<svg xmlns="http://www.w3.org/2000/svg" viewBox="0 0 257.95 235.88"><defs><style>.cls-1{fill:#2b5465;}.cls-2{fill:#fdfdfd;}</style></defs><g id="Layer_2" data-name="Layer 2"><g id="Layer_1-2" data-name="Layer 1"><g id="_04YN93" data-name="04YN93"><path class="cls-1" d="M170,6.89C177,3,184,4.28,190.85,7.41c5.8,2.66,8.39,8.94,6.57,15.44-3.66,13-7.41,26-11.1,38.95-.22.74-.32,1.52-.61,2.92,5.93-2.67,11.09-.06,16.35,1.35,5.93,1.58,9.06,5.67,9.71,12,7.59-3.87,14.26-.1,20.86,2.61,3.26,1.34,5.05,4.6,5.53,8.28.21,1.59.19,2.5,2.73,2.21A18.57,18.57,0,0,1,254.31,95a8.92,8.92,0,0,1,3.22,10c-7.09,25-14,50-21.48,74.81-3.36,11.16-11.19,18.84-22.26,22.8a5.62,5.62,0,0,0-4.06,4.58c-2.06,8.27-4.35,16.51-12,21.73-4.09,2.78-8.34,5.13-13.35,5.71-1.18-1.21-2-1.05-2.39.63l-2.42.15a12.89,12.89,0,0,0-9.56,0l-2.42-.16q-.65-2.42-2.38-.63c-14.92-2-29-14.28-32.32-28.17-1.64-6.78.12-13.19,2.31-19.46,1.06-3,.83-5.23-1.32-7.79-4.79-5.71-6.36-13-8.77-19.85-2.76-7.85-6.19-15.48-8-23.65s-.09-15.59,4-22.57c2.75-4.69,5.66-9.31,8.84-13.71,2.35-3.24,4.92-6.37,9.9-5.64,2.06.31,3.82-1,4.48-3.57,1.85-7,4-14,6-21a10.22,10.22,0,0,0,2.9-9.58l7.44-27c.38-1.37,1.17-2.68.59-4.18,1.63-2.57,2.24-5.53,3.07-8.39C165.65,15.39,166.41,10.55,170,6.89Zm-29.14,91.3a9.34,9.34,0,0,0-7,4.74c-2.53,4-5.16,8-7.75,12a27.6,27.6,0,0,0-4.27,15.89c.09,4.77,1.78,9.08,3.44,13.4,3.8,9.86,5.31,21,11.6,29.39,5,6.62,5,12,2.14,18.65-.15.36-.09.8-.23,1.17-2.88,8-1.14,15.27,3.95,21.69,9.56,12.05,22.47,16.77,37.41,15.05,12.28-1.42,20.94-7.84,23.44-20.8.45-2.33,1.46-4.55,2-6.87s1.71-3.39,4.12-4.11c11.08-3.32,18.56-10.53,21.81-21.74q10-34.53,19.88-69.1c2.17-7.59,1.5-8.72-6.27-10.84-4.51-1.23-6.51-.2-7.8,4.2-1.45,5-2.88,9.92-4.15,14.92-.64,2.51-1.81,3.66-4.51,3-2.87-.69-2.52-2.59-1.95-4.64,1.39-5,2.77-10,4.2-14.91,3.66-12.67,2.65-14.41-10.15-17.29-4.93-1.12-7.88.55-9.36,5.47-2.11,7-4.13,14-6.12,21-.65,2.28-1.65,3.46-4.28,2.61s-3.33-2-2.47-4.71c2.09-6.69,3.71-13.54,5.84-20.22,4-12.37,1.79-13.74-9.28-16.64-6.06-1.6-9,0-10.73,6-2.35,8.14-4.75,16.27-7,24.42-.64,2.27-1.27,4-4.29,3.18-2.85-.8-3.42-2.17-2.56-5,2.77-9.12,5.24-18.33,7.86-27.5q6.9-24,13.83-48.09c1.73-6.06-.31-9.64-6.39-11.46-1.15-.34-2.3-.64-3.45-1-6.31-1.75-9.72.21-11.55,6.59q-15.54,54.23-31.07,108.44c-.56,2-1,4.39-3.63,3.68-2.88-.77-2-3.1-1.38-5.26,2.35-8.14,4.58-16.32,6.85-24.49C142.19,98.07,141.72,98,140.82,98.19Z"/><path class="cls-1" d="M170,6.89c-3.55,3.66-4.31,8.5-5.66,13.12-.83,2.86-1.44,5.82-3.07,8.39-25.46-10.52-52.09-14-79.4-12.58-26.12,1.4-51.18,7.73-75.28,17.84l-4,1.67a4.44,4.44,0,0,0-.46-.59c15.87-10.38,33.08-17.93,51-23.87A211.28,211.28,0,0,1,135.72.58C147.31,1.43,158.87,3,170,6.89Z"/><path class="cls-1" d="M170,235.37a12.89,12.89,0,0,1,9.56,0A23.33,23.33,0,0,1,170,235.37Z"/><path class="cls-1" d="M153.2,59.6a10.22,10.22,0,0,1-2.9,9.58Q151.76,64.39,153.2,59.6Z"/><path class="cls-1" d="M165.19,234.58q1.74-1.79,2.38.63Z"/><path class="cls-1" d="M182,235.25c.4-1.68,1.21-1.84,2.39-.63Z"/><path class="cls-1" d="M0,35.37l2.06-.63a4.44,4.44,0,0,1,.46.59c-.83.37-1.67.75-2.51,0Z"/><path class="cls-1" d="M0,35.35c.07.11.13.29.22.32.47.12.49.23,0,.29-.06,0-.16-.38-.25-.59Z"/><path class="cls-2" d="M141.52,99.07c-2.27,8.17-4.5,16.35-6.85,24.49-.63,2.16-1.5,4.49,1.38,5.26,2.67.71,3.07-1.73,3.63-3.68Q155.19,70.91,170.75,16.7c1.83-6.38,5.24-8.34,11.55-6.59,1.15.32,2.3.62,3.45,1,6.08,1.82,8.12,5.4,6.39,11.46q-6.88,24.06-13.83,48.09c-2.62,9.17-5.09,18.38-7.86,27.5-.86,2.82-.29,4.19,2.56,5,3,.84,3.65-.91,4.29-3.18,2.29-8.15,4.69-16.28,7-24.42,1.73-6,4.67-7.57,10.73-6,11.07,2.9,13.23,4.27,9.28,16.64-2.13,6.68-3.75,13.53-5.84,20.22-.86,2.73,0,3.9,2.47,4.71s3.63-.33,4.28-2.61c2-7,4-14,6.12-21,1.48-4.92,4.43-6.59,9.36-5.47,12.8,2.88,13.81,4.62,10.15,17.29-1.43,5-2.81,9.94-4.2,14.91-.57,2-.92,4,1.95,4.64,2.7.65,3.87-.5,4.51-3,1.27-5,2.7-10,4.15-14.92,1.29-4.4,3.29-5.43,7.8-4.2,7.77,2.12,8.44,3.25,6.27,10.84q-9.92,34.56-19.88,69.1c-3.25,11.21-10.73,18.42-21.81,21.74-2.41.72-3.6,1.77-4.12,4.11s-1.53,4.54-2,6.87c-2.5,13-11.16,19.38-23.44,20.8-14.94,1.72-27.85-3-37.41-15.05-5.09-6.42-6.83-13.69-3.95-21.69.14-.37.08-.81.23-1.17,2.84-6.63,2.83-12-2.14-18.65-6.29-8.4-7.8-19.53-11.6-29.39-1.66-4.32-3.35-8.63-3.44-13.4A27.6,27.6,0,0,1,126.1,115c2.59-4,5.22-8,7.75-12a9.34,9.34,0,0,1,7-4.74Z"/></g></g></g></svg>