<svg xmlns="http://www.w3.org/2000/svg" xmlns:xlink="http://www.w3.org/1999/xlink" viewBox="0 0 152.82 152.82"><defs><style>.cls-1,.cls-39,.cls-43,.cls-56{fill:none;}.cls-2{fill:#fff;}.cls-3{clip-path:url(#clip-path);}.cls-4{fill:#cacaef;}.cls-5{fill:#a7a7ea;}.cls-6{fill:#7677b8;}.cls-7{fill:#8685c0;}.cls-8{fill:#6869b0;}.cls-9{fill:#4a4b9f;}.cls-10{fill:#5351a2;}.cls-11{fill:#eee6ca;}.cls-12{fill:#8585c0;}.cls-13{fill:#7678b9;}.cls-14{fill:#6c6bb1;}.cls-15{fill:#f9e0c3;}.cls-16{fill:#a6a4d1;}.cls-17{fill:#9594c8;}.cls-18{fill:#f7dfd3;}.cls-19{fill:#a6a5d2;}.cls-20{fill:#feddc7;}.cls-21{fill:#5c6bb2;}.cls-22{fill:#6c80bf;}.cls-23{fill:#4f61ac;}.cls-24{fill:#fae5a8;}.cls-25{fill:#4a5aa8;}.cls-26{fill:#495ca9;}.cls-27{fill:#4c5eab;}.cls-28{fill:#4a5caa;}.cls-29{fill:#485ba9;}.cls-30{fill:#495daa;}.cls-31{fill:#485ca9;}.cls-32{fill:#4d5ca9;}.cls-33{fill:#484c9b;}.cls-34{fill:#8384c0;}.cls-35{fill:#a8a6d2;}.cls-36{fill:#8786c1;}.cls-37{fill:#8da8d7;}.cls-38{fill:#7b88c3;}.cls-39{stroke:#788dc7;stroke-width:1.92px;}.cls-39,.cls-43{stroke-linecap:round;}.cls-39,.cls-43,.cls-56{stroke-miterlimit:10;}.cls-40{fill:#5e69b0;}.cls-41{fill:#5063ad;}.cls-42{fill:#87acda;}.cls-43{stroke:#dadcea;stroke-width:1.99px;}.cls-44{fill:#33346b;}.cls-45{fill:#3c4690;}.cls-46{fill:#a4a3a4;}.cls-47{fill:#c8e6f8;}.cls-48{fill:#d2d2d1;}.cls-49{fill:#e5e7e5;}.cls-50{fill:#b3b4b4;}.cls-51{fill:#b12a2b;}.cls-52{fill:#ef423d;}.cls-53{fill:#e2b373;}.cls-54{fill:#a0cc3a;}.cls-55{fill:#be2326;}.cls-56{stroke:#d8b82f;stroke-width:1.63px;}.cls-57{fill:#393951;isolation:isolate;opacity:0.15;}</style><clipPath id="clip-path"><circle class="cls-1" cx="76.41" cy="76.41" r="66.34"/></clipPath></defs><g id="Layer_2" data-name="Layer 2"><g id="Layer_1-2" data-name="Layer 1"><circle class="cls-2" cx="76.41" cy="76.41" r="76.41"/><g class="cls-3"><g id="Layer_1-3" data-name="Layer 1"><g id="City"><rect id="sky" class="cls-4" x="-218.29" y="-17.32" width="543.2" height="147.98"/><g id="cloud"><path class="cls-5" d="M100.63,35.76c1.73-4.66,1.51-4.12,3.59-1-4-15.06,19.63-12.35,22.2-6.5.44-3.14,6.34-2.76,7.8-.11-.22-6.5,16.37-13.55,21.67-4.43,2-4.35,12.9-3.36,14.75,2,.75-2.17,5.63-2.06,6.71,1.72,1.63-1.39,4.45-1.72,5.21,2.07,1.2-2.07,6.5-2.21,7.48,1.06,2.05-1.2,7.47-4.24,8.55,0s-7,1.2-11.16,2.19S185.7,36,178.76,34.9s-9.32-2.4-14.63-1.3-31,.75-37.82,2.73-18.2,1.52-25.68,1.41S100.63,35.76,100.63,35.76Z"/><path class="cls-5" d="M69.52,21.67c.43-1.84.43-2.16,1.62-1.62s-1-4.45,2.07-3c-4.34-5,4.44-11,9.21-6.6C81.22,4.88,87,2,90.44,4.88c1.4-2.59,10-5.3,10.83-1.62s-.75,4.8-4.66,6-3.68,2-5.86,4.32-4,3.47-7.26,3.6-5.4-1.3-6.18.75a4.12,4.12,0,0,1-4.55,2.4C71.13,20.09,69.52,21.67,69.52,21.67Z"/><path class="cls-5" d="M-73.33,25.36c6.5-3.15,6.5-1.95,9-1.41,1.3-5.2,6.29-2.82,7.8-1.3,1.84-7.12,31.32-11.6,34.68,2.71,4.12-6.29,21.24.28,21.78,5.18,1.63-1.39,3.15-.2,2.72,1.43,2.7-2.82,10.29-1.74,11.59,1.62,2.4-3.05,3.9,1,4.44,2.28s12.79-.32,13.44,1.63S10.67,39,4.7,38s-12-5.2-18.1-2.71-9.21-7-16.68-3.69S-56,31.53-58.48,28.5-66,26.74-69.64,27.41-73.33,25.36-73.33,25.36Z"/><path class="cls-5" d="M9.91,13.44c-2.1,5.09,5.05,1.73,7.64,3.75s9.23,4.8,12.84,5.65,4.48-.6,8,3,3.47.72,4.2,1.15a59.91,59.91,0,0,1,5.16,3.33c1.49,1.15,1.41-3.18-.93-3.33s-4.66-5.91-6.55-3.53-.33-2.24-2.83-2.24.67-2.61-.92-3.33c3.18-1.9,1.68-10.25-8-9.24C29.62,4.16,20-4.94,8.58,4.88,4.93.26-6.38,6.19-2.22,9.22-5.3,11.7,7.92,14.14,9.91,13.44Z"/></g><g id="background_building" data-name="background building"><rect class="cls-6" x="10.73" y="42.48" width="6.16" height="48.96"/><rect class="cls-6" x="132.49" y="47.46" width="6.29" height="34.24"/><rect class="cls-6" x="123.82" y="49.86" width="10.67" height="24.64"/><rect class="cls-6" x="116.45" y="56.57" width="8.24" height="13.77"/><rect class="cls-6" x="101.06" y="56.57" width="8.29" height="18.67"/><rect class="cls-6" x="65.29" y="60.79" width="17.99" height="41.84"/><rect class="cls-6" x="22.27" y="64.25" width="10.08" height="37.17"/><rect class="cls-6" x="2.21" y="61.45" width="17.12" height="37.75"/><rect class="cls-7" x="56.62" y="51.15" width="13.66" height="32.01"/><rect class="cls-8" x="17.61" y="57.87" width="9.32" height="44.76"/><rect class="cls-8" x="97.59" y="58.93" width="23.52" height="59.63"/><rect class="cls-8" x="44.05" y="61.21" width="23.2" height="59.52"/><rect class="cls-7" x="116.45" y="56.57" width="9.32" height="38.8"/><rect class="cls-7" x="99.76" y="55.57" width="8.89" height="36.72"/><rect class="cls-7" x="42.97" y="47.46" width="7.59" height="39.48"/><rect class="cls-7" x="21.73" y="53.97" width="8.67" height="35.56"/><rect class="cls-7" x="5.68" y="55.57" width="7.59" height="33.95"/><rect class="cls-9" x="119.7" y="64.25" width="19.73" height="47.73"/></g><g id="Main_building" data-name="Main building"><g id="b10"><rect class="cls-10" x="57.02" y="71.89" width="36.63" height="71.14"/><rect class="cls-11" x="58.86" y="135.25" width="1.14" height="0.7"/><rect class="cls-11" x="63.67" y="135.25" width="1.14" height="0.7"/><rect class="cls-11" x="65.27" y="135.25" width="1.14" height="0.7"/><rect class="cls-11" x="69.29" y="135.25" width="1.14" height="0.7"/><rect class="cls-11" x="74.65" y="135.25" width="1.14" height="0.7"/><rect class="cls-11" x="76.03" y="135.25" width="1.14" height="0.7"/><rect class="cls-11" x="77.4" y="135.25" width="1.14" height="0.7"/><rect class="cls-11" x="59.89" y="137.63" width="1.14" height="0.7"/><rect class="cls-11" x="62.63" y="137.63" width="1.14" height="0.7"/><rect class="cls-11" x="64.13" y="137.63" width="1.14" height="0.7"/><rect class="cls-11" x="69.29" y="137.63" width="1.14" height="0.7"/><rect class="cls-11" x="72.15" y="137.63" width="1.14" height="0.7"/><rect class="cls-11" x="73.9" y="137.63" width="1.14" height="0.7"/><rect class="cls-11" x="75.64" y="137.63" width="1.14" height="0.7"/><rect class="cls-11" x="65.63" y="137.63" width="1.14" height="0.7"/><rect class="cls-11" x="58.86" y="130.6" width="1.14" height="0.7"/><rect class="cls-11" x="60.46" y="130.6" width="1.14" height="0.7"/><rect class="cls-11" x="62.06" y="130.6" width="1.14" height="0.7"/><rect class="cls-11" x="63.67" y="130.6" width="1.14" height="0.7"/><rect class="cls-11" x="65.27" y="130.6" width="1.14" height="0.7"/><rect class="cls-11" x="69.29" y="130.6" width="1.14" height="0.7"/><rect class="cls-11" x="74.65" y="130.6" width="1.14" height="0.7"/><rect class="cls-11" x="76.03" y="130.6" width="1.14" height="0.7"/><rect class="cls-11" x="77.4" y="130.6" width="1.14" height="0.7"/><rect class="cls-11" x="59.89" y="132.98" width="1.14" height="0.7"/><rect class="cls-11" x="64.13" y="132.98" width="1.14" height="0.7"/><rect class="cls-11" x="69.29" y="132.98" width="1.14" height="0.7"/><rect class="cls-11" x="72.15" y="132.98" width="1.14" height="0.7"/><rect class="cls-11" x="73.9" y="132.98" width="1.14" height="0.7"/><rect class="cls-11" x="75.64" y="132.98" width="1.14" height="0.7"/><rect class="cls-11" x="65.63" y="132.98" width="1.14" height="0.7"/><rect class="cls-11" x="58.86" y="125.95" width="1.14" height="0.7"/><rect class="cls-11" x="60.46" y="125.95" width="1.14" height="0.7"/><rect class="cls-11" x="62.06" y="125.95" width="1.14" height="0.7"/><rect class="cls-11" x="63.67" y="125.95" width="1.14" height="0.7"/><rect class="cls-11" x="65.27" y="125.95" width="1.14" height="0.7"/><rect class="cls-11" x="69.29" y="125.95" width="1.14" height="0.7"/><rect class="cls-11" x="74.65" y="125.95" width="1.14" height="0.7"/><rect class="cls-11" x="76.03" y="125.95" width="1.14" height="0.7"/><rect class="cls-11" x="77.4" y="125.95" width="1.14" height="0.7"/><rect class="cls-11" x="59.89" y="128.33" width="1.14" height="0.7"/><rect class="cls-11" x="62.63" y="128.33" width="1.14" height="0.7"/><rect class="cls-11" x="64.13" y="128.33" width="1.14" height="0.7"/><rect class="cls-11" x="69.29" y="128.33" width="1.14" height="0.7"/><rect class="cls-11" x="72.15" y="128.33" width="1.14" height="0.7"/><rect class="cls-11" x="73.9" y="128.33" width="1.14" height="0.7"/><rect class="cls-11" x="75.64" y="128.33" width="1.14" height="0.7"/><rect class="cls-11" x="65.63" y="128.33" width="1.14" height="0.7"/><rect class="cls-11" x="58.86" y="121.29" width="1.14" height="0.7"/><rect class="cls-11" x="60.46" y="121.29" width="1.14" height="0.7"/><rect class="cls-11" x="63.67" y="121.29" width="1.14" height="0.7"/><rect class="cls-11" x="65.27" y="121.29" width="1.14" height="0.7"/><rect class="cls-11" x="69.29" y="121.29" width="1.14" height="0.7"/><rect class="cls-11" x="74.65" y="121.29" width="1.14" height="0.7"/><rect class="cls-11" x="76.03" y="121.29" width="1.14" height="0.7"/><rect class="cls-11" x="77.4" y="121.29" width="1.14" height="0.7"/><rect class="cls-11" x="59.89" y="123.67" width="1.14" height="0.7"/><rect class="cls-11" x="62.63" y="123.67" width="1.14" height="0.7"/><rect class="cls-11" x="64.13" y="123.67" width="1.14" height="0.7"/><rect class="cls-11" x="69.29" y="123.67" width="1.14" height="0.7"/><rect class="cls-11" x="72.15" y="123.67" width="1.14" height="0.7"/><rect class="cls-11" x="73.9" y="123.67" width="1.14" height="0.7"/><rect class="cls-11" x="75.64" y="123.67" width="1.14" height="0.7"/><rect class="cls-11" x="65.63" y="123.67" width="1.14" height="0.7"/><rect class="cls-11" x="58.86" y="116.64" width="1.14" height="0.7"/><rect class="cls-11" x="62.06" y="116.64" width="1.14" height="0.7"/><rect class="cls-11" x="63.67" y="116.64" width="1.14" height="0.7"/><rect class="cls-11" x="65.27" y="116.64" width="1.14" height="0.7"/><rect class="cls-11" x="69.29" y="116.64" width="1.14" height="0.7"/><rect class="cls-11" x="74.65" y="116.64" width="1.14" height="0.7"/><rect class="cls-11" x="76.03" y="116.64" width="1.14" height="0.7"/><rect class="cls-11" x="77.4" y="116.64" width="1.14" height="0.7"/><rect class="cls-11" x="59.89" y="119.02" width="1.14" height="0.7"/><rect class="cls-11" x="62.63" y="119.02" width="1.14" height="0.7"/><rect class="cls-11" x="64.13" y="119.02" width="1.14" height="0.7"/><rect class="cls-11" x="69.29" y="119.02" width="1.14" height="0.7"/><rect class="cls-11" x="72.15" y="119.02" width="1.14" height="0.7"/><rect class="cls-11" x="73.9" y="119.02" width="1.14" height="0.7"/><rect class="cls-11" x="75.64" y="119.02" width="1.14" height="0.7"/><rect class="cls-11" x="65.63" y="119.02" width="1.14" height="0.7"/><rect class="cls-11" x="58.86" y="111.98" width="1.14" height="0.7"/><rect class="cls-11" x="60.46" y="111.98" width="1.14" height="0.7"/><rect class="cls-11" x="62.06" y="111.98" width="1.14" height="0.7"/><rect class="cls-11" x="63.67" y="111.98" width="1.14" height="0.7"/><rect class="cls-11" x="65.27" y="111.98" width="1.14" height="0.7"/><rect class="cls-11" x="69.29" y="111.98" width="1.14" height="0.7"/><rect class="cls-11" x="74.65" y="111.98" width="1.14" height="0.7"/><rect class="cls-11" x="76.03" y="111.98" width="1.14" height="0.7"/><rect class="cls-11" x="77.4" y="111.98" width="1.14" height="0.7"/><rect class="cls-11" x="59.89" y="114.36" width="1.14" height="0.7"/><rect class="cls-11" x="62.63" y="114.36" width="1.14" height="0.7"/><rect class="cls-11" x="64.13" y="114.36" width="1.14" height="0.7"/><rect class="cls-11" x="69.29" y="114.36" width="1.14" height="0.7"/><rect class="cls-11" x="72.15" y="114.36" width="1.14" height="0.7"/><rect class="cls-11" x="73.9" y="114.36" width="1.14" height="0.7"/><rect class="cls-11" x="75.64" y="114.36" width="1.14" height="0.7"/><rect class="cls-11" x="65.63" y="114.36" width="1.14" height="0.7"/><rect class="cls-11" x="58.86" y="107.33" width="1.14" height="0.7"/><rect class="cls-11" x="60.46" y="107.33" width="1.14" height="0.7"/><rect class="cls-11" x="62.06" y="107.33" width="1.14" height="0.7"/><rect class="cls-11" x="65.27" y="107.33" width="1.14" height="0.7"/><rect class="cls-11" x="69.29" y="107.33" width="1.14" height="0.7"/><rect class="cls-11" x="74.65" y="107.33" width="1.14" height="0.7"/><rect class="cls-11" x="76.03" y="107.33" width="1.14" height="0.7"/><rect class="cls-11" x="77.4" y="107.33" width="1.14" height="0.7"/><rect class="cls-11" x="59.89" y="109.71" width="1.14" height="0.7"/><rect class="cls-11" x="62.63" y="109.71" width="1.14" height="0.7"/><rect class="cls-11" x="64.13" y="109.71" width="1.14" height="0.7"/><rect class="cls-11" x="69.29" y="109.71" width="1.14" height="0.7"/><rect class="cls-11" x="72.15" y="109.71" width="1.14" height="0.7"/><rect class="cls-11" x="73.9" y="109.71" width="1.14" height="0.7"/><rect class="cls-11" x="75.64" y="109.71" width="1.14" height="0.7"/><rect class="cls-11" x="65.63" y="109.71" width="1.14" height="0.7"/><rect class="cls-11" x="58.86" y="102.67" width="1.14" height="0.7"/><rect class="cls-11" x="62.06" y="102.67" width="1.14" height="0.7"/><rect class="cls-11" x="63.67" y="102.67" width="1.14" height="0.7"/><rect class="cls-11" x="65.27" y="102.67" width="1.14" height="0.7"/><rect class="cls-11" x="69.29" y="102.67" width="1.14" height="0.7"/><rect class="cls-11" x="74.65" y="102.67" width="1.14" height="0.7"/><rect class="cls-11" x="76.03" y="102.67" width="1.14" height="0.7"/><rect class="cls-11" x="77.4" y="102.67" width="1.14" height="0.7"/><rect class="cls-11" x="59.89" y="105.05" width="1.14" height="0.7"/><rect class="cls-11" x="62.63" y="105.05" width="1.14" height="0.7"/><rect class="cls-11" x="64.13" y="105.05" width="1.14" height="0.7"/><rect class="cls-11" x="69.29" y="105.05" width="1.14" height="0.7"/><rect class="cls-11" x="72.15" y="105.05" width="1.14" height="0.7"/><rect class="cls-11" x="73.9" y="105.05" width="1.14" height="0.7"/><rect class="cls-11" x="75.64" y="105.05" width="1.14" height="0.7"/><rect class="cls-11" x="65.63" y="105.05" width="1.14" height="0.7"/><rect class="cls-11" x="60.46" y="98.02" width="1.14" height="0.7"/><rect class="cls-11" x="63.67" y="98.02" width="1.14" height="0.7"/><rect class="cls-11" x="65.27" y="98.02" width="1.14" height="0.7"/><rect class="cls-11" x="69.29" y="98.02" width="1.14" height="0.7"/><rect class="cls-11" x="74.65" y="98.02" width="1.14" height="0.7"/><rect class="cls-11" x="76.03" y="98.02" width="1.14" height="0.7"/><rect class="cls-11" x="77.4" y="98.02" width="1.14" height="0.7"/><rect class="cls-11" x="59.89" y="100.4" width="1.14" height="0.7"/><rect class="cls-11" x="62.63" y="100.4" width="1.14" height="0.7"/><rect class="cls-11" x="64.13" y="100.4" width="1.14" height="0.7"/><rect class="cls-11" x="69.29" y="100.4" width="1.14" height="0.7"/><rect class="cls-11" x="72.15" y="100.4" width="1.14" height="0.7"/><rect class="cls-11" x="73.9" y="100.4" width="1.14" height="0.7"/><rect class="cls-11" x="75.64" y="100.4" width="1.14" height="0.7"/><rect class="cls-11" x="65.63" y="100.4" width="1.14" height="0.7"/><rect class="cls-11" x="58.86" y="93.36" width="1.14" height="0.7"/><rect class="cls-11" x="62.06" y="93.36" width="1.14" height="0.7"/><rect class="cls-11" x="63.67" y="93.36" width="1.14" height="0.7"/><rect class="cls-11" x="65.27" y="93.36" width="1.14" height="0.7"/><rect class="cls-11" x="69.29" y="93.36" width="1.14" height="0.7"/><rect class="cls-11" x="74.65" y="93.36" width="1.14" height="0.7"/><rect class="cls-11" x="76.03" y="93.36" width="1.14" height="0.7"/><rect class="cls-11" x="77.4" y="93.36" width="1.14" height="0.7"/><rect class="cls-11" x="59.89" y="95.74" width="1.14" height="0.7"/><rect class="cls-11" x="62.63" y="95.74" width="1.14" height="0.7"/><rect class="cls-11" x="64.13" y="95.74" width="1.14" height="0.7"/><rect class="cls-11" x="69.29" y="95.74" width="1.14" height="0.7"/><rect class="cls-11" x="72.15" y="95.74" width="1.14" height="0.7"/><rect class="cls-11" x="73.9" y="95.74" width="1.14" height="0.7"/><rect class="cls-11" x="75.64" y="95.74" width="1.14" height="0.7"/><rect class="cls-11" x="65.63" y="95.74" width="1.14" height="0.7"/><rect class="cls-11" x="58.86" y="88.71" width="1.14" height="0.7"/><rect class="cls-11" x="62.06" y="88.71" width="1.14" height="0.7"/><rect class="cls-11" x="63.67" y="88.71" width="1.14" height="0.7"/><rect class="cls-11" x="65.27" y="88.71" width="1.14" height="0.7"/><rect class="cls-11" x="69.29" y="88.71" width="1.14" height="0.7"/><rect class="cls-11" x="74.65" y="88.71" width="1.14" height="0.7"/><rect class="cls-11" x="76.03" y="88.71" width="1.14" height="0.7"/><rect class="cls-11" x="77.4" y="88.71" width="1.14" height="0.7"/><rect class="cls-11" x="59.89" y="91.09" width="1.14" height="0.7"/><rect class="cls-11" x="64.13" y="91.09" width="1.14" height="0.7"/><rect class="cls-11" x="69.29" y="91.09" width="1.14" height="0.7"/><rect class="cls-11" x="72.15" y="91.09" width="1.14" height="0.7"/><rect class="cls-11" x="73.9" y="91.09" width="1.14" height="0.7"/><rect class="cls-11" x="75.64" y="91.09" width="1.14" height="0.7"/><rect class="cls-11" x="65.63" y="91.09" width="1.14" height="0.7"/><rect class="cls-11" x="60.46" y="84.05" width="1.14" height="0.7"/><rect class="cls-11" x="62.06" y="84.05" width="1.14" height="0.7"/><rect class="cls-11" x="63.67" y="84.05" width="1.14" height="0.7"/><rect class="cls-11" x="65.27" y="84.05" width="1.14" height="0.7"/><rect class="cls-11" x="69.29" y="84.05" width="1.14" height="0.7"/><rect class="cls-11" x="74.65" y="84.05" width="1.14" height="0.7"/><rect class="cls-11" x="76.03" y="84.05" width="1.14" height="0.7"/><rect class="cls-11" x="77.4" y="84.05" width="1.14" height="0.7"/><rect class="cls-11" x="58.54" y="84.05" width="1.14" height="0.7"/><rect class="cls-11" x="59.89" y="86.44" width="1.14" height="0.7"/><rect class="cls-11" x="62.63" y="86.44" width="1.14" height="0.7"/><rect class="cls-11" x="64.13" y="86.44" width="1.14" height="0.7"/><rect class="cls-11" x="69.29" y="86.44" width="1.14" height="0.7"/><rect class="cls-11" x="72.15" y="86.44" width="1.14" height="0.7"/><rect class="cls-11" x="73.9" y="86.44" width="1.14" height="0.7"/><rect class="cls-11" x="75.64" y="86.44" width="1.14" height="0.7"/><rect class="cls-11" x="65.63" y="86.44" width="1.14" height="0.7"/><rect class="cls-11" x="58.86" y="79.41" width="1.14" height="0.7"/><rect class="cls-11" x="60.46" y="79.41" width="1.14" height="0.7"/><rect class="cls-11" x="63.67" y="79.41" width="1.14" height="0.7"/><rect class="cls-11" x="65.27" y="79.41" width="1.14" height="0.7"/><rect class="cls-11" x="69.29" y="79.41" width="1.14" height="0.7"/><rect class="cls-11" x="74.65" y="79.41" width="1.14" height="0.7"/><rect class="cls-11" x="76.03" y="79.41" width="1.14" height="0.7"/><rect class="cls-11" x="77.4" y="79.41" width="1.14" height="0.7"/><rect class="cls-11" x="59.89" y="81.78" width="1.14" height="0.7"/><rect class="cls-11" x="62.63" y="81.78" width="1.14" height="0.7"/><rect class="cls-11" x="64.13" y="81.78" width="1.14" height="0.7"/><rect class="cls-11" x="69.29" y="81.78" width="1.14" height="0.7"/><rect class="cls-11" x="72.15" y="81.78" width="1.14" height="0.7"/><rect class="cls-11" x="73.9" y="81.78" width="1.14" height="0.7"/><rect class="cls-11" x="75.64" y="81.78" width="1.14" height="0.7"/><rect class="cls-11" x="58.86" y="74.75" width="1.14" height="0.7"/><rect class="cls-11" x="60.46" y="74.75" width="1.14" height="0.7"/><rect class="cls-11" x="62.06" y="74.75" width="1.14" height="0.7"/><rect class="cls-11" x="63.67" y="74.75" width="1.14" height="0.7"/><rect class="cls-11" x="65.27" y="74.75" width="1.14" height="0.7"/><rect class="cls-11" x="69.29" y="74.75" width="1.14" height="0.7"/><rect class="cls-11" x="74.65" y="74.75" width="1.14" height="0.7"/><rect class="cls-11" x="76.03" y="74.75" width="1.14" height="0.7"/><rect class="cls-11" x="77.4" y="74.75" width="1.14" height="0.7"/><rect class="cls-11" x="59.89" y="77.13" width="1.14" height="0.7"/><rect class="cls-11" x="62.63" y="77.13" width="1.14" height="0.7"/><rect class="cls-11" x="64.13" y="77.13" width="1.14" height="0.7"/><rect class="cls-11" x="69.29" y="77.13" width="1.14" height="0.7"/><rect class="cls-11" x="72.15" y="77.13" width="1.14" height="0.7"/><rect class="cls-11" x="73.9" y="77.13" width="1.14" height="0.7"/><rect class="cls-11" x="75.64" y="77.13" width="1.14" height="0.7"/><rect class="cls-11" x="65.63" y="77.13" width="1.14" height="0.7"/></g><g id="b19"><path class="cls-12" d="M147.88,13.14v120h9.32V8.67C152.86,8.67,149.72,10.46,147.88,13.14Z"/><path class="cls-13" d="M141.92,28.5V143.1h18.53V18.64C154.93,17.62,142.94,24.15,141.92,28.5Z"/><path class="cls-14" d="M136,43.36V157.93h28.61V29.76C156.13,28.74,137.62,39,136,43.36Z"/><rect class="cls-15" x="146.22" y="44.59" width="18.43" height="2.74"/><rect class="cls-15" x="146.22" y="49.86" width="18.43" height="2.74"/><rect class="cls-15" x="146.22" y="55.13" width="18.43" height="2.74"/><rect class="cls-15" x="146.22" y="60.4" width="18.43" height="2.74"/><rect class="cls-15" x="146.22" y="65.67" width="18.43" height="2.74"/><rect class="cls-15" x="146.22" y="70.94" width="18.43" height="2.74"/><rect class="cls-15" x="146.22" y="76.21" width="18.43" height="2.74"/><rect class="cls-15" x="146.22" y="81.49" width="18.43" height="2.74"/><rect class="cls-15" x="146.22" y="86.76" width="18.43" height="2.74"/><rect class="cls-15" x="146.22" y="92.03" width="18.43" height="2.74"/><rect class="cls-15" x="146.22" y="97.3" width="18.43" height="2.74"/><rect class="cls-15" x="146.22" y="102.58" width="18.43" height="2.74"/><rect class="cls-15" x="146.22" y="107.85" width="18.43" height="2.74"/><rect class="cls-15" x="146.22" y="113.11" width="18.43" height="2.74"/><rect class="cls-15" x="146.22" y="118.39" width="18.43" height="2.74"/><rect class="cls-15" x="146.22" y="123.66" width="18.43" height="2.74"/><rect class="cls-15" x="146.22" y="128.93" width="18.43" height="2.74"/><rect class="cls-15" x="146.22" y="134.2" width="18.43" height="2.74"/><rect class="cls-15" x="146.22" y="139.48" width="18.43" height="2.74"/><rect class="cls-15" x="146.22" y="144.75" width="18.43" height="2.74"/><rect class="cls-15" x="146.22" y="150.02" width="18.43" height="2.74"/></g><g id="b13"><path class="cls-16" d="M85.79,16.23V130.8h9.54V16.23C95.33,13.34,85.79,13.22,85.79,16.23Z"/><path class="cls-17" d="M82.36,25.06V139.62H98.72V25.06C98.74,22.16,82.36,22.05,82.36,25.06Z"/><path class="cls-7" d="M78.54,39.33V153.9h24V39.33C102.58,36.42,78.54,36.33,78.54,39.33Z"/><rect class="cls-18" x="82.37" y="44.91" width="2.47" height="51.87"/><rect class="cls-18" x="86.75" y="43.36" width="2.47" height="51.87"/><rect class="cls-18" x="91.2" y="43.36" width="2.47" height="51.87"/><rect class="cls-18" x="95.83" y="44.59" width="2.47" height="51.87"/></g><g id="b12"><rect class="cls-19" x="106.37" y="70.99" width="54.08" height="79.73"/><rect class="cls-20" x="110.7" y="75.1" width="41.4" height="3.36"/><rect class="cls-20" x="110.7" y="80.48" width="41.4" height="3.36"/><rect class="cls-20" x="110.7" y="85.88" width="41.4" height="3.36"/><rect class="cls-20" x="110.7" y="91.26" width="41.4" height="3.36"/><rect class="cls-20" x="110.7" y="96.65" width="41.4" height="3.36"/><rect class="cls-20" x="110.7" y="102.04" width="41.4" height="3.36"/><rect class="cls-20" x="110.7" y="107.42" width="41.4" height="3.36"/><rect class="cls-20" x="110.7" y="112.81" width="41.4" height="3.36"/><rect class="cls-20" x="110.7" y="118.2" width="41.4" height="3.36"/><rect class="cls-20" x="110.7" y="123.59" width="41.4" height="3.36"/><rect class="cls-20" x="110.7" y="128.97" width="41.4" height="3.36"/><rect class="cls-20" x="110.7" y="134.36" width="41.4" height="3.36"/><rect class="cls-20" x="110.7" y="139.75" width="41.4" height="3.36"/></g><g id="b17"><rect class="cls-21" x="49.47" y="86.44" width="49.96" height="64.88"/><rect class="cls-22" x="50.34" y="86.44" width="42.59" height="2.26"/><rect class="cls-23" x="91.2" y="86.44" width="8.24" height="64.86"/><rect class="cls-24" x="56.08" y="139.91" width="3.81" height="5.09"/><rect class="cls-24" x="62.8" y="140.04" width="3.81" height="5.09"/><rect class="cls-25" x="69.51" y="140.17" width="3.81" height="5.09"/><rect class="cls-24" x="76.22" y="140.29" width="3.81" height="5.09"/><rect class="cls-26" x="82.94" y="140.42" width="3.81" height="5.09"/><rect class="cls-24" x="56.08" y="130.67" width="3.81" height="5.09"/><rect class="cls-27" x="62.8" y="130.8" width="3.81" height="5.09"/><rect class="cls-28" x="69.51" y="130.93" width="3.81" height="5.09"/><rect class="cls-24" x="76.22" y="131.06" width="3.81" height="5.09"/><rect class="cls-24" x="82.94" y="131.18" width="3.81" height="5.09"/><rect class="cls-29" x="56.08" y="121.43" width="3.81" height="5.09"/><rect class="cls-24" x="62.8" y="121.56" width="3.81" height="5.09"/><rect class="cls-30" x="69.51" y="121.69" width="3.81" height="5.09"/><rect class="cls-30" x="76.22" y="121.82" width="3.81" height="5.09"/><rect class="cls-24" x="82.94" y="121.94" width="3.81" height="5.09"/><rect class="cls-24" x="56.08" y="112.2" width="3.81" height="5.09"/><rect class="cls-30" x="62.8" y="112.32" width="3.81" height="5.09"/><rect class="cls-24" x="69.51" y="112.45" width="3.81" height="5.09"/><rect class="cls-24" x="76.22" y="112.58" width="3.81" height="5.09"/><rect class="cls-28" x="82.94" y="112.71" width="3.81" height="5.09"/><rect class="cls-24" x="56.08" y="102.95" width="3.81" height="5.09"/><rect class="cls-24" x="62.8" y="103.09" width="3.81" height="5.09"/><rect class="cls-31" x="69.51" y="103.21" width="3.81" height="5.09"/><rect class="cls-32" x="76.22" y="103.34" width="3.81" height="5.09"/><rect class="cls-24" x="82.94" y="103.46" width="3.81" height="5.09"/><rect class="cls-24" x="56.08" y="93.72" width="3.81" height="5.09"/><rect class="cls-24" x="62.8" y="93.84" width="3.81" height="5.09"/><rect class="cls-31" x="69.51" y="93.97" width="3.81" height="5.09"/><rect class="cls-24" x="76.22" y="94.1" width="3.81" height="5.09"/><rect class="cls-30" x="82.94" y="94.23" width="3.81" height="5.09"/></g><polygon class="cls-33" points="51.53 152.94 43.62 152.94 43.62 71.19 51.85 72.42 51.53 152.94"/><g id="b9"><rect class="cls-10" x="5.9" y="73.2" width="36.63" height="71.14"/><rect class="cls-11" x="9.91" y="137.61" width="1.14" height="0.7"/><rect class="cls-11" x="14.72" y="137.61" width="1.14" height="0.7"/><rect class="cls-11" x="16.32" y="137.61" width="1.14" height="0.7"/><rect class="cls-11" x="20.34" y="137.61" width="1.14" height="0.7"/><rect class="cls-11" x="25.71" y="137.61" width="1.14" height="0.7"/><rect class="cls-11" x="27.08" y="137.61" width="1.14" height="0.7"/><rect class="cls-11" x="28.45" y="137.61" width="1.14" height="0.7"/><rect class="cls-11" x="10.94" y="139.99" width="1.14" height="0.7"/><rect class="cls-11" x="13.68" y="139.99" width="1.14" height="0.7"/><rect class="cls-11" x="15.18" y="139.99" width="1.14" height="0.7"/><rect class="cls-11" x="20.34" y="139.99" width="1.14" height="0.7"/><rect class="cls-11" x="23.21" y="139.99" width="1.14" height="0.7"/><rect class="cls-11" x="24.95" y="139.99" width="1.14" height="0.7"/><rect class="cls-11" x="26.69" y="139.99" width="1.14" height="0.7"/><rect class="cls-11" x="16.68" y="139.99" width="1.14" height="0.7"/><rect class="cls-11" x="9.91" y="132.96" width="1.14" height="0.7"/><rect class="cls-11" x="11.51" y="132.96" width="1.14" height="0.7"/><rect class="cls-11" x="13.12" y="132.96" width="1.14" height="0.7"/><rect class="cls-11" x="14.72" y="132.96" width="1.14" height="0.7"/><rect class="cls-11" x="16.32" y="132.96" width="1.14" height="0.7"/><rect class="cls-11" x="20.34" y="132.96" width="1.14" height="0.7"/><rect class="cls-11" x="25.71" y="132.96" width="1.14" height="0.7"/><rect class="cls-11" x="27.08" y="132.96" width="1.14" height="0.7"/><rect class="cls-11" x="28.45" y="132.96" width="1.14" height="0.7"/><rect class="cls-11" x="10.94" y="135.34" width="1.14" height="0.7"/><rect class="cls-11" x="15.18" y="135.34" width="1.14" height="0.7"/><rect class="cls-11" x="20.34" y="135.34" width="1.14" height="0.7"/><rect class="cls-11" x="23.21" y="135.34" width="1.14" height="0.7"/><rect class="cls-11" x="24.95" y="135.34" width="1.14" height="0.7"/><rect class="cls-11" x="26.69" y="135.34" width="1.14" height="0.7"/><rect class="cls-11" x="16.68" y="135.34" width="1.14" height="0.7"/><rect class="cls-11" x="9.91" y="128.3" width="1.14" height="0.7"/><rect class="cls-11" x="11.51" y="128.3" width="1.14" height="0.7"/><rect class="cls-11" x="13.12" y="128.3" width="1.14" height="0.7"/><rect class="cls-11" x="14.72" y="128.3" width="1.14" height="0.7"/><rect class="cls-11" x="16.32" y="128.3" width="1.14" height="0.7"/><rect class="cls-11" x="20.34" y="128.3" width="1.14" height="0.7"/><rect class="cls-11" x="25.71" y="128.3" width="1.14" height="0.7"/><rect class="cls-11" x="27.08" y="128.3" width="1.14" height="0.7"/><rect class="cls-11" x="28.45" y="128.3" width="1.14" height="0.7"/><rect class="cls-11" x="10.94" y="130.68" width="1.14" height="0.7"/><rect class="cls-11" x="13.68" y="130.68" width="1.14" height="0.7"/><rect class="cls-11" x="15.18" y="130.68" width="1.14" height="0.7"/><rect class="cls-11" x="20.34" y="130.68" width="1.14" height="0.7"/><rect class="cls-11" x="23.21" y="130.68" width="1.14" height="0.7"/><rect class="cls-11" x="24.95" y="130.68" width="1.14" height="0.7"/><rect class="cls-11" x="26.69" y="130.68" width="1.14" height="0.7"/><rect class="cls-11" x="16.68" y="130.68" width="1.14" height="0.7"/><rect class="cls-11" x="9.91" y="123.65" width="1.14" height="0.7"/><rect class="cls-11" x="11.51" y="123.65" width="1.14" height="0.7"/><rect class="cls-11" x="14.72" y="123.65" width="1.14" height="0.7"/><rect class="cls-11" x="16.32" y="123.65" width="1.14" height="0.7"/><rect class="cls-11" x="20.34" y="123.65" width="1.14" height="0.7"/><rect class="cls-11" x="25.71" y="123.65" width="1.14" height="0.7"/><rect class="cls-11" x="27.08" y="123.65" width="1.14" height="0.7"/><rect class="cls-11" x="28.45" y="123.65" width="1.14" height="0.7"/><rect class="cls-11" x="10.94" y="126.03" width="1.14" height="0.7"/><rect class="cls-11" x="13.68" y="126.03" width="1.14" height="0.7"/><rect class="cls-11" x="15.18" y="126.03" width="1.14" height="0.7"/><rect class="cls-11" x="20.34" y="126.03" width="1.14" height="0.7"/><rect class="cls-11" x="23.21" y="126.03" width="1.14" height="0.7"/><rect class="cls-11" x="24.95" y="126.03" width="1.14" height="0.7"/><rect class="cls-11" x="26.69" y="126.03" width="1.14" height="0.7"/><rect class="cls-11" x="16.68" y="126.03" width="1.14" height="0.7"/><rect class="cls-11" x="9.91" y="119" width="1.14" height="0.7"/><rect class="cls-11" x="13.12" y="119" width="1.14" height="0.7"/><rect class="cls-11" x="14.72" y="119" width="1.14" height="0.7"/><rect class="cls-11" x="16.32" y="119" width="1.14" height="0.7"/><rect class="cls-11" x="20.34" y="119" width="1.14" height="0.7"/><rect class="cls-11" x="25.71" y="119" width="1.14" height="0.7"/><rect class="cls-11" x="27.08" y="119" width="1.14" height="0.7"/><rect class="cls-11" x="28.45" y="119" width="1.14" height="0.7"/><rect class="cls-11" x="10.94" y="121.37" width="1.14" height="0.7"/><rect class="cls-11" x="13.68" y="121.37" width="1.14" height="0.7"/><rect class="cls-11" x="15.18" y="121.37" width="1.14" height="0.7"/><rect class="cls-11" x="20.34" y="121.37" width="1.14" height="0.7"/><rect class="cls-11" x="23.21" y="121.37" width="1.14" height="0.7"/><rect class="cls-11" x="24.95" y="121.37" width="1.14" height="0.7"/><rect class="cls-11" x="26.69" y="121.37" width="1.14" height="0.7"/><rect class="cls-11" x="16.68" y="121.37" width="1.14" height="0.7"/><rect class="cls-11" x="9.91" y="114.34" width="1.14" height="0.7"/><rect class="cls-11" x="11.51" y="114.34" width="1.14" height="0.7"/><rect class="cls-11" x="13.12" y="114.34" width="1.14" height="0.7"/><rect class="cls-11" x="14.72" y="114.34" width="1.14" height="0.7"/><rect class="cls-11" x="16.32" y="114.34" width="1.14" height="0.7"/><rect class="cls-11" x="20.34" y="114.34" width="1.14" height="0.7"/><rect class="cls-11" x="25.71" y="114.34" width="1.14" height="0.7"/><rect class="cls-11" x="27.08" y="114.34" width="1.14" height="0.7"/><rect class="cls-11" x="28.45" y="114.34" width="1.14" height="0.7"/><rect class="cls-11" x="10.94" y="116.72" width="1.14" height="0.7"/><rect class="cls-11" x="13.68" y="116.72" width="1.14" height="0.7"/><rect class="cls-11" x="15.18" y="116.72" width="1.14" height="0.7"/><rect class="cls-11" x="20.34" y="116.72" width="1.14" height="0.7"/><rect class="cls-11" x="23.21" y="116.72" width="1.14" height="0.7"/><rect class="cls-11" x="24.95" y="116.72" width="1.14" height="0.7"/><rect class="cls-11" x="26.69" y="116.72" width="1.14" height="0.7"/><rect class="cls-11" x="16.68" y="116.72" width="1.14" height="0.7"/><rect class="cls-11" x="9.91" y="109.69" width="1.14" height="0.7"/><rect class="cls-11" x="11.51" y="109.69" width="1.14" height="0.7"/><rect class="cls-11" x="13.12" y="109.69" width="1.14" height="0.7"/><rect class="cls-11" x="16.32" y="109.69" width="1.14" height="0.7"/><rect class="cls-11" x="20.34" y="109.69" width="1.14" height="0.7"/><rect class="cls-11" x="25.71" y="109.69" width="1.14" height="0.7"/><rect class="cls-11" x="27.08" y="109.69" width="1.14" height="0.7"/><rect class="cls-11" x="28.45" y="109.69" width="1.14" height="0.7"/><rect class="cls-11" x="10.94" y="112.07" width="1.14" height="0.7"/><rect class="cls-11" x="13.68" y="112.07" width="1.14" height="0.7"/><rect class="cls-11" x="15.18" y="112.07" width="1.14" height="0.7"/><rect class="cls-11" x="20.34" y="112.07" width="1.14" height="0.7"/><rect class="cls-11" x="23.21" y="112.07" width="1.14" height="0.7"/><rect class="cls-11" x="24.95" y="112.07" width="1.14" height="0.7"/><rect class="cls-11" x="26.69" y="112.07" width="1.14" height="0.7"/><rect class="cls-11" x="16.68" y="112.07" width="1.14" height="0.7"/><rect class="cls-11" x="9.91" y="105.04" width="1.14" height="0.7"/><rect class="cls-11" x="13.12" y="105.04" width="1.14" height="0.7"/><rect class="cls-11" x="14.72" y="105.04" width="1.14" height="0.7"/><rect class="cls-11" x="16.32" y="105.04" width="1.14" height="0.7"/><rect class="cls-11" x="20.34" y="105.04" width="1.14" height="0.7"/><rect class="cls-11" x="25.71" y="105.04" width="1.14" height="0.7"/><rect class="cls-11" x="27.08" y="105.04" width="1.14" height="0.7"/><rect class="cls-11" x="28.45" y="105.04" width="1.14" height="0.7"/><rect class="cls-11" x="10.94" y="107.42" width="1.14" height="0.7"/><rect class="cls-11" x="13.68" y="107.42" width="1.14" height="0.7"/><rect class="cls-11" x="15.18" y="107.42" width="1.14" height="0.7"/><rect class="cls-11" x="20.34" y="107.42" width="1.14" height="0.7"/><rect class="cls-11" x="23.21" y="107.42" width="1.14" height="0.7"/><rect class="cls-11" x="24.95" y="107.42" width="1.14" height="0.7"/><rect class="cls-11" x="26.69" y="107.42" width="1.14" height="0.7"/><rect class="cls-11" x="16.68" y="107.42" width="1.14" height="0.7"/><rect class="cls-11" x="11.51" y="100.38" width="1.14" height="0.7"/><rect class="cls-11" x="14.72" y="100.38" width="1.14" height="0.7"/><rect class="cls-11" x="16.32" y="100.38" width="1.14" height="0.7"/><rect class="cls-11" x="20.34" y="100.38" width="1.14" height="0.7"/><rect class="cls-11" x="25.71" y="100.38" width="1.14" height="0.7"/><rect class="cls-11" x="27.08" y="100.38" width="1.14" height="0.7"/><rect class="cls-11" x="28.45" y="100.38" width="1.14" height="0.7"/><rect class="cls-11" x="10.94" y="102.76" width="1.14" height="0.7"/><rect class="cls-11" x="13.68" y="102.76" width="1.14" height="0.7"/><rect class="cls-11" x="15.18" y="102.76" width="1.14" height="0.7"/><rect class="cls-11" x="20.34" y="102.76" width="1.14" height="0.7"/><rect class="cls-11" x="23.21" y="102.76" width="1.14" height="0.7"/><rect class="cls-11" x="24.95" y="102.76" width="1.14" height="0.7"/><rect class="cls-11" x="26.69" y="102.76" width="1.14" height="0.7"/><rect class="cls-11" x="16.68" y="102.76" width="1.14" height="0.7"/><rect class="cls-11" x="9.91" y="95.73" width="1.14" height="0.7"/><rect class="cls-11" x="13.12" y="95.73" width="1.14" height="0.7"/><rect class="cls-11" x="14.72" y="95.73" width="1.14" height="0.7"/><rect class="cls-11" x="16.32" y="95.73" width="1.14" height="0.7"/><rect class="cls-11" x="20.34" y="95.73" width="1.14" height="0.7"/><rect class="cls-11" x="25.71" y="95.73" width="1.14" height="0.7"/><rect class="cls-11" x="27.08" y="95.73" width="1.14" height="0.7"/><rect class="cls-11" x="28.45" y="95.73" width="1.14" height="0.7"/><rect class="cls-11" x="10.94" y="98.11" width="1.14" height="0.7"/><rect class="cls-11" x="13.68" y="98.11" width="1.14" height="0.7"/><rect class="cls-11" x="15.18" y="98.11" width="1.14" height="0.7"/><rect class="cls-11" x="20.34" y="98.11" width="1.14" height="0.7"/><rect class="cls-11" x="23.21" y="98.11" width="1.14" height="0.7"/><rect class="cls-11" x="24.95" y="98.11" width="1.14" height="0.7"/><rect class="cls-11" x="26.69" y="98.11" width="1.14" height="0.7"/><rect class="cls-11" x="16.68" y="98.11" width="1.14" height="0.7"/><rect class="cls-11" x="9.91" y="91.07" width="1.14" height="0.7"/><rect class="cls-11" x="13.12" y="91.07" width="1.14" height="0.7"/><rect class="cls-11" x="14.72" y="91.07" width="1.14" height="0.7"/><rect class="cls-11" x="16.32" y="91.07" width="1.14" height="0.7"/><rect class="cls-11" x="20.34" y="91.07" width="1.14" height="0.7"/><rect class="cls-11" x="25.71" y="91.07" width="1.14" height="0.7"/><rect class="cls-11" x="27.08" y="91.07" width="1.14" height="0.7"/><rect class="cls-11" x="28.45" y="91.07" width="1.14" height="0.7"/><rect class="cls-11" x="10.94" y="93.45" width="1.14" height="0.7"/><rect class="cls-11" x="15.18" y="93.45" width="1.14" height="0.7"/><rect class="cls-11" x="20.34" y="93.45" width="1.14" height="0.7"/><rect class="cls-11" x="23.21" y="93.45" width="1.14" height="0.7"/><rect class="cls-11" x="24.95" y="93.45" width="1.14" height="0.7"/><rect class="cls-11" x="26.69" y="93.45" width="1.14" height="0.7"/><rect class="cls-11" x="16.68" y="93.45" width="1.14" height="0.7"/><rect class="cls-11" x="11.51" y="86.42" width="1.14" height="0.7"/><rect class="cls-11" x="13.12" y="86.42" width="1.14" height="0.7"/><rect class="cls-11" x="14.72" y="86.42" width="1.14" height="0.7"/><rect class="cls-11" x="16.32" y="86.42" width="1.14" height="0.7"/><rect class="cls-11" x="20.34" y="86.42" width="1.14" height="0.7"/><rect class="cls-11" x="25.71" y="86.42" width="1.14" height="0.7"/><rect class="cls-11" x="27.08" y="86.42" width="1.14" height="0.7"/><rect class="cls-11" x="28.45" y="86.42" width="1.14" height="0.7"/><rect class="cls-11" x="9.59" y="86.42" width="1.14" height="0.7"/><rect class="cls-11" x="10.94" y="88.8" width="1.14" height="0.7"/><rect class="cls-11" x="13.68" y="88.8" width="1.14" height="0.7"/><rect class="cls-11" x="15.18" y="88.8" width="1.14" height="0.7"/><rect class="cls-11" x="20.34" y="88.8" width="1.14" height="0.7"/><rect class="cls-11" x="23.21" y="88.8" width="1.14" height="0.7"/><rect class="cls-11" x="24.95" y="88.8" width="1.14" height="0.7"/><rect class="cls-11" x="26.69" y="88.8" width="1.14" height="0.7"/><rect class="cls-11" x="16.68" y="88.8" width="1.14" height="0.7"/><rect class="cls-11" x="9.91" y="81.76" width="1.14" height="0.7"/><rect class="cls-11" x="11.51" y="81.76" width="1.14" height="0.7"/><rect class="cls-11" x="14.72" y="81.76" width="1.14" height="0.7"/><rect class="cls-11" x="16.32" y="81.76" width="1.14" height="0.7"/><rect class="cls-11" x="20.34" y="81.76" width="1.14" height="0.7"/><rect class="cls-11" x="25.71" y="81.76" width="1.14" height="0.7"/><rect class="cls-11" x="27.08" y="81.76" width="1.14" height="0.7"/><rect class="cls-11" x="28.45" y="81.76" width="1.14" height="0.7"/><rect class="cls-11" x="10.94" y="84.14" width="1.14" height="0.7"/><rect class="cls-11" x="13.68" y="84.14" width="1.14" height="0.7"/><rect class="cls-11" x="15.18" y="84.14" width="1.14" height="0.7"/><rect class="cls-11" x="20.34" y="84.14" width="1.14" height="0.7"/><rect class="cls-11" x="23.21" y="84.14" width="1.14" height="0.7"/><rect class="cls-11" x="24.95" y="84.14" width="1.14" height="0.7"/><rect class="cls-11" x="26.69" y="84.14" width="1.14" height="0.7"/><rect class="cls-11" x="9.91" y="77.11" width="1.14" height="0.7"/><rect class="cls-11" x="11.51" y="77.11" width="1.14" height="0.7"/><rect class="cls-11" x="13.12" y="77.11" width="1.14" height="0.7"/><rect class="cls-11" x="14.72" y="77.11" width="1.14" height="0.7"/><rect class="cls-11" x="16.32" y="77.11" width="1.14" height="0.7"/><rect class="cls-11" x="20.34" y="77.11" width="1.14" height="0.7"/><rect class="cls-11" x="25.71" y="77.11" width="1.14" height="0.7"/><rect class="cls-11" x="27.08" y="77.11" width="1.14" height="0.7"/><rect class="cls-11" x="28.45" y="77.11" width="1.14" height="0.7"/><rect class="cls-11" x="10.94" y="79.49" width="1.14" height="0.7"/><rect class="cls-11" x="13.68" y="79.49" width="1.14" height="0.7"/><rect class="cls-11" x="15.18" y="79.49" width="1.14" height="0.7"/><rect class="cls-11" x="20.34" y="79.49" width="1.14" height="0.7"/><rect class="cls-11" x="23.21" y="79.49" width="1.14" height="0.7"/><rect class="cls-11" x="24.95" y="79.49" width="1.14" height="0.7"/><rect class="cls-11" x="26.69" y="79.49" width="1.14" height="0.7"/><rect class="cls-11" x="16.68" y="79.49" width="1.14" height="0.7"/></g><g id="b8"><rect class="cls-34" x="17.55" y="81.22" width="10.9" height="4.97"/><rect class="cls-35" x="15.41" y="85.54" width="17.86" height="98.72"/><rect class="cls-36" x="28.41" y="89.78" width="1.52" height="93.31"/><rect class="cls-36" x="24.95" y="89.78" width="1.52" height="93.31"/><rect class="cls-36" x="21.48" y="89.78" width="1.52" height="93.31"/><rect class="cls-36" x="18.01" y="89.78" width="1.52" height="93.31"/></g><g id="b7"><path class="cls-37" d="M-12.27,155.18V49.87c0-5.55,20.05-5.54,20.05,0v104Z"/><path class="cls-38" d="M-12.27,51.38c2.21-.65,11.78-3.36,20.05,0,0-3.9.07-.64,0-2.76s-14.77-5.46-20,0Z"/><path class="cls-39" d="M-8.27,145.86a41.5,41.5,0,0,1,11.46,0"/><path class="cls-39" d="M-8.27,140.47a41.5,41.5,0,0,1,11.46,0"/><path class="cls-39" d="M-8.27,135.09a41.5,41.5,0,0,1,11.46,0"/><path class="cls-39" d="M-8.27,129.71a40.74,40.74,0,0,1,11.46,0"/><path class="cls-39" d="M-8.27,124.32a41.5,41.5,0,0,1,11.46,0"/><path class="cls-39" d="M-8.27,118.93a41.5,41.5,0,0,1,11.46,0"/><path class="cls-39" d="M-8.27,113.55a40.74,40.74,0,0,1,11.46,0"/><path class="cls-39" d="M-8.27,108.16a41.5,41.5,0,0,1,11.46,0"/><path class="cls-39" d="M-8.27,102.77a41.5,41.5,0,0,1,11.46,0"/><path class="cls-39" d="M-8.27,97.39a41.5,41.5,0,0,1,11.46,0"/><path class="cls-39" d="M-8.27,92A40.74,40.74,0,0,1,3.19,92"/><path class="cls-39" d="M-8.27,86.62a41.5,41.5,0,0,1,11.46,0"/><path class="cls-39" d="M-8.27,81.23a41.5,41.5,0,0,1,11.46,0"/><path class="cls-39" d="M-8.27,75.85a40.74,40.74,0,0,1,11.46,0"/><path class="cls-39" d="M-8.27,70.46a41.5,41.5,0,0,1,11.46,0"/><path class="cls-39" d="M-8.27,65.08a40.74,40.74,0,0,1,11.46,0"/><path class="cls-39" d="M-8.27,59.73a40.74,40.74,0,0,1,11.46,0"/><path class="cls-39" d="M-8.27,54.33a40.74,40.74,0,0,1,11.46,0"/></g><g id="b4"><rect class="cls-40" x="-28.78" y="73.2" width="33.7" height="73.92"/><rect class="cls-41" x="1.35" y="73.2" width="3.57" height="74.41"/></g><g id="b2"><path class="cls-42" d="M27.65,150.72V45.41c0-5.55,20.05-5.53,20.05,0v104Z"/><path class="cls-12" d="M27.65,46.92c2.2-.64,11.78-3.35,20.05,0,0-3.89.07-.64,0-2.75s-14.78-5.47-20.05,0Z"/><path class="cls-43" d="M31.65,141.4a41.5,41.5,0,0,1,11.46,0"/><path class="cls-43" d="M31.65,136a40.74,40.74,0,0,1,11.46,0"/><path class="cls-43" d="M31.65,130.63a41.5,41.5,0,0,1,11.46,0"/><path class="cls-43" d="M31.65,125.24a41.5,41.5,0,0,1,11.46,0"/><path class="cls-43" d="M31.65,119.86a40.74,40.74,0,0,1,11.46,0"/><path class="cls-43" d="M31.65,114.48a40.74,40.74,0,0,1,11.46,0"/><path class="cls-43" d="M31.65,109.09a41.5,41.5,0,0,1,11.46,0"/><path class="cls-43" d="M31.65,103.7a41.5,41.5,0,0,1,11.46,0"/><path class="cls-43" d="M31.65,98.32a40.74,40.74,0,0,1,11.46,0"/><path class="cls-43" d="M31.65,92.93a41.5,41.5,0,0,1,11.46,0"/><path class="cls-43" d="M31.65,87.54a41.5,41.5,0,0,1,11.46,0"/><path class="cls-43" d="M31.65,82.16a40.74,40.74,0,0,1,11.46,0"/><path class="cls-43" d="M31.65,76.78a40.74,40.74,0,0,1,11.46,0"/><path class="cls-43" d="M31.65,71.39a41.5,41.5,0,0,1,11.46,0"/><path class="cls-43" d="M31.65,66a40.74,40.74,0,0,1,11.46,0"/><path class="cls-43" d="M31.65,60.62a40.74,40.74,0,0,1,11.46,0"/><path class="cls-43" d="M31.65,55.23a41.5,41.5,0,0,1,11.46,0"/><path class="cls-43" d="M31.65,49.85a40.74,40.74,0,0,1,11.46,0"/></g></g><path id="bush" class="cls-44" d="M231,121.1a5.76,5.76,0,0,0-.26-3h0a5.29,5.29,0,0,0,2.29-6.6,4.94,4.94,0,1,0-9.25,3.33v0a5,5,0,0,0-2.64,4.63,4.7,4.7,0,0,0-2.24,3.51,4.44,4.44,0,0,0,.27,2,6.05,6.05,0,0,0-2.13-.6,5.23,5.23,0,0,0-5.92,4.37,4.63,4.63,0,0,0,1.07,3.39l-.45.41a3.54,3.54,0,0,0-1.74-.66c-2.58-.25-4.95,2.39-5.28,5.92-.28,2.87.89,5.44,2.73,6.41v.14a3.87,3.87,0,0,0-2.4-1.24c-1.72-.17-3.33,1-4.33,2.76h0s-6.31,2.49-7.34,6.48a3.68,3.68,0,0,0-1.33-.41,4.11,4.11,0,0,0-3.32,1.39,7.6,7.6,0,0,0-5.27-2.82,7.19,7.19,0,0,0-7.11,3.51c-.35-2.16-1.36-3.72-2.69-3.85s-2.77,1.37-3.51,3.6l-.26-.07c.32-3.48-.91-6.43-2.77-6.6a2.31,2.31,0,0,0-1.76.69c-.24-2.5-1.31-4.38-2.78-4.52-1.87-.18-3.66,2.52-4,6a11.45,11.45,0,0,0,0,2.68,2.18,2.18,0,0,0-1.19-.52,2.85,2.85,0,0,0-2.82,2.24,2.43,2.43,0,0,0-1.71-1c-1.47-.14-2.8,1.24-3,3.09l-.86-.26a5.06,5.06,0,0,0,.29-1.28,4.39,4.39,0,0,0-3.66-5,3.86,3.86,0,0,0-2.63.75,3.4,3.4,0,0,0-3.41-2v-.18a4.38,4.38,0,0,0-3.66-5,3.91,3.91,0,0,0-3.09,1.12l-.69-.86a5.11,5.11,0,0,0,.91-2.44,4.39,4.39,0,0,0-3.66-5,4.15,4.15,0,0,0-4,2.4,3.56,3.56,0,0,0-1.2-.32,4.39,4.39,0,0,0-4.55,4.2,4.38,4.38,0,0,0-4.54,4.2,4.92,4.92,0,0,0,.47,2.67l-.44.32a4,4,0,0,0-3-2.06,4.4,4.4,0,0,0-4.55,4.2,5.53,5.53,0,0,0,0,1.15l-7.24,1.31a9.61,9.61,0,0,0-8.26-6l-.6,0a5.19,5.19,0,0,0,.38-1.49,4.15,4.15,0,1,0-8.2-.79,4.75,4.75,0,0,0,1.53,4.06,8.22,8.22,0,0,0-2.74,3.25,10.67,10.67,0,0,0-4.29-1.35,10.36,10.36,0,0,0-5.74,1.05c-.36-1.8-1.47-3.1-2.92-3.24a2.66,2.66,0,0,0-.69,0c.06-2.4-1.24-4.41-3-4.58a2.55,2.55,0,0,0-.87.07,8.19,8.19,0,0,0,.2-1.08c.25-2.61-1.09-4.87-3-5.06a3.5,3.5,0,0,0-3.28,2.19,4.83,4.83,0,0,0-.92-.18,4.73,4.73,0,0,0-4.68,6.87,11.84,11.84,0,0,0-6.51-2.67c-5.74-.56-10.79,2.86-11.52,7.7l-2.66.08c-.6-4.24-4.61-7.76-9.75-8.26a11.37,11.37,0,0,0-9.2,3.11,3.85,3.85,0,0,0-3.25-2.51,4,4,0,0,0-.69,0,3.88,3.88,0,0,0-6.35-2.57v-.13A3.89,3.89,0,0,0-.14,138a3.91,3.91,0,0,0-2.32.51,4.71,4.71,0,0,0,.09-.52,3.87,3.87,0,0,0-3.36-4.2,3.9,3.9,0,0,0-5.16-1.89A3.89,3.89,0,0,0-12.77,137a3.79,3.79,0,0,0,1.09,1.39,3.88,3.88,0,0,0-2.05,3.05,3.77,3.77,0,0,0,.05,1.11,3.87,3.87,0,0,0-2.87,1.73,7.75,7.75,0,0,0-7.4,5.53,7.75,7.75,0,0,0-5.54,5l-.21,0h-.54a7.58,7.58,0,0,0,.8-2.75,7.75,7.75,0,0,0-7-8.45,7.75,7.75,0,0,0-8,5.13l-.49-.22a6,6,0,0,0,.44-1.73c.27-2.71-1.37-5.09-3.65-5.31s-4.33,1.8-4.59,4.51a5.43,5.43,0,0,0,.52,3l-.28.29a4.29,4.29,0,0,0-2.83-1.48,4.9,4.9,0,0,0-5,3.6h-.17a4.58,4.58,0,0,0-4,1.86c.25-3-1.62-5.61-4.2-5.86a4.24,4.24,0,0,0-2.47.52,6.39,6.39,0,0,0,.2-1.06c.23-2.37-.89-4.47-2.59-5.14a6.35,6.35,0,0,0,.17-1c.24-2.45-1-4.61-2.76-5.21a8.52,8.52,0,0,0,.23-2c0-3.75-2.4-6.79-5.36-6.79a4.53,4.53,0,0,0-2.51.69,4.75,4.75,0,0,0,.6-2.3c0-2.27-1.56-4.11-3.47-4.11a3.23,3.23,0,0,0-.76.1,3.56,3.56,0,0,0-1.8-.66A3,3,0,0,0-90.71,118a3,3,0,0,0-.55-4.2.61.61,0,0,0-.16-.12,3,3,0,0,0,1.27-4,3,3,0,0,0-4-1.27,3,3,0,0,0-1.27,4.05,3,3,0,0,0,1,1.09,3,3,0,0,0-1.34,4,3,3,0,0,0,1.19,1.26,3,3,0,0,0,.55,4.2l.37.25V177H239.65V121.1Z"/><g id="fence"><rect class="cls-45" x="17.01" y="147.23" width="3.58" height="29.81"/><rect class="cls-45" x="39.35" y="147.23" width="3.58" height="29.81"/><rect class="cls-45" x="61.69" y="147.23" width="3.58" height="29.81"/><rect class="cls-45" x="84.03" y="147.23" width="3.58" height="29.81"/><rect class="cls-45" x="106.37" y="147.23" width="3.58" height="29.81"/><rect class="cls-45" x="128.7" y="147.23" width="3.58" height="29.81"/><rect class="cls-45" x="151.04" y="147.23" width="3.58" height="29.81"/><rect class="cls-45" x="-108.17" y="143.97" width="341.89" height="4.75"/></g><g id="hotdog_stand" data-name="hotdog stand"><rect class="cls-46" x="21.19" y="117.06" width="34.95" height="16.58"/><rect class="cls-47" x="22.72" y="118.31" width="31.89" height="6.65" rx="1"/><rect class="cls-48" x="20.95" y="107.19" width="35.41" height="10.49" rx="1"/><rect class="cls-48" x="17.86" y="137.08" width="94.86" height="33.24"/><rect class="cls-49" x="17.16" y="135.33" width="96.41" height="3.51"/><rect class="cls-49" x="20.3" y="133.64" width="90.69" height="3.37"/><rect class="cls-49" x="63.96" y="57.05" width="2.81" height="78.98"/><polyline class="cls-50" points="90.94 89.14 92.35 91.95 109.96 91.95 110.99 89.14 90.94 89.14"/><polyline class="cls-50" points="39.6 89.14 41.38 91.95 63.77 91.95 65.64 89.14 39.6 89.14"/><polyline class="cls-51" points="65.64 89.14 67.14 91.95 89.44 91.95 90.94 89.14 65.64 89.14"/><polyline class="cls-51" points="20.3 89.14 21.14 91.95 38.47 91.95 39.6 89.14 20.3 89.14"/><polyline class="cls-2" points="90.94 89.14 110.99 89.14 64.89 61.41 87.95 89.14 90.94 89.14"/><polyline class="cls-2" points="41.66 89.14 65.64 89.14 64.89 61.41 37.35 89.14 41.66 89.14"/><polygon class="cls-52" points="65.64 89.14 64.89 61.41 90.94 89.14 65.64 89.14"/><polygon class="cls-52" points="64.89 61.41 20.3 89.14 41.66 89.14 64.89 61.41"/><path class="cls-49" d="M87.38,42.74a5.09,5.09,0,0,0-.83-1.58,4.78,4.78,0,0,0-.5-1.69c-1.2-2.5-4.2-3.6-6.49-3.6A4.79,4.79,0,0,0,78.2,36c-.5.08-1.12.18-1.88.32a57.53,57.53,0,0,1-9.79,1.09c-3.27,0-5.74-.54-7.38-1.59a6.14,6.14,0,0,0-3.43-1,5.45,5.45,0,0,0-4.95,2.64l-.05.11a6.48,6.48,0,0,0-5.4,4.09,4.87,4.87,0,0,0-.19,1,5.3,5.3,0,0,0-1.5,1.76,5.46,5.46,0,0,0,.48,5.61c2.92,6,14.32,9.21,23.69,9.21,6.69,0,12-1.6,15.08-4.49l.14-.13.12-.15a11.36,11.36,0,0,0,2-3.71A8.18,8.18,0,0,0,87.38,42.74Z"/><path class="cls-53" d="M57.76,37.91c-2.26-1.47-6.6,0-4.44,3.12,2.57,5.68,23.66,9.57,29.27,4.2,4.44-5.75-2.4-7.43-3.86-6.8C75.7,38.82,63.82,41.86,57.76,37.91Z"/><path class="cls-54" d="M53.61,41.76c1.65-1.93,2.4-3.31,3.13-2.21s.46,3.31,1,3.87,1.93-2.49,2.48-2a3.58,3.58,0,0,0,3.5,0,2,2,0,0,1,2.86,1.11c.45,1.1,1.2-.74,1.74-1.2a1.89,1.89,0,0,1,2.58.18c.83.92,1.47.09,2-.46s1.2-1.29,1.84-.46a7.93,7.93,0,0,0,1.76,1.66c.91.73.45-1.38,1.28-1.66s1.29-.92,1.84-.28a13.8,13.8,0,0,1,1.29,1.57c.28.46,2,1.93.19,2.48s-18,.92-18,.92l-10.86-.83Z"/><path class="cls-55" d="M53.33,40.38c-3.46-1.53-7.91,2.21-4.6,4.51s15.64,6.81,19.33,6.72,13.25-1,15.36-2.67,3.32-7.55-1.93-7.36C69.35,43.24,60,43.33,53.33,40.38Z"/><path class="cls-56" d="M56.74,40.75c-5.8,1.29-5.71,8.19,2,3.6s4.51-.46,3.22,1.29,3.22,1.93,6-3.22,1.2,5.34,2.12,7,.27-7,4-7.27,0,4.42,1.66,5.25.83-10,4.69-4.42"/><path class="cls-53" d="M52.14,44.73c-2.66-2.4-8.75,0-5.89,4.14C49.65,56.42,73.67,60.1,81.13,53c5.89-7.63-4.6-10.4-6.54-9.59C72.93,43.6,59.86,51.7,52.14,44.73Z"/></g></g><rect class="cls-57" x="-221.67" y="-21.24" width="545.75" height="258.07"/></g></g></g></g></svg>