<svg xmlns="http://www.w3.org/2000/svg" xmlns:xlink="http://www.w3.org/1999/xlink" viewBox="0 0 152.82 152.82"><defs><style>.cls-1,.cls-10,.cls-11,.cls-25{fill:none;}.cls-2{fill:#fff;}.cls-3{clip-path:url(#clip-path);}.cls-4{fill:#8ad6f4;}.cls-5{fill:#98ca40;}.cls-6{fill:#80c341;}.cls-7{fill:#4fab47;}.cls-8{fill:#efb567;}.cls-9{fill:#f6ee6e;}.cls-10{stroke:#f6ee6e;}.cls-10,.cls-11,.cls-25{stroke-miterlimit:10;}.cls-10,.cls-11{stroke-width:2.38px;}.cls-11{stroke:#a365a9;}.cls-12{fill:#a365a9;}.cls-13{fill:#f3b367;}.cls-14{fill:#f7ef6c;}.cls-15{fill:#a4a3a4;}.cls-16{fill:#c8e6f8;}.cls-17{fill:#d2d2d1;}.cls-18{fill:#e5e7e5;}.cls-19{fill:#b3b4b4;}.cls-20{fill:#b12a2b;}.cls-21{fill:#ef423d;}.cls-22{fill:#e2b373;}.cls-23{fill:#a0cc3a;}.cls-24{fill:#be2326;}.cls-25{stroke:#d8b82f;stroke-width:1.43px;}.cls-26{fill:#cdecf9;}</style><clipPath id="clip-path"><circle class="cls-1" cx="75.84" cy="76.25" r="64.73"/></clipPath></defs><g id="Layer_2" data-name="Layer 2"><g id="Layer_1-2" data-name="Layer 1"><circle class="cls-2" cx="76.41" cy="76.41" r="76.41"/><ellipse class="cls-1" cx="75.84" cy="63.35" rx="54.32" ry="52.63"/><g class="cls-3"><g id="Amusement_park" data-name="Amusement park"><rect class="cls-4" x="-163.33" y="-12.53" width="519.2" height="175.93"/><rect class="cls-5" x="-162.27" y="113.37" width="531.44" height="96.37"/><path class="cls-6" d="M9.49,112a8.63,8.63,0,0,0-8.63-8.63h0a8.75,8.75,0,0,0-1.44.12,13.26,13.26,0,0,0-16.59-8.74A13.26,13.26,0,0,0-23.48,99a12.31,12.31,0,0,0-3-.38,12.3,12.3,0,0,0-12.56,12,12.29,12.29,0,0,0,12,12.56,4.69,4.69,0,0,0,.53,0H1.92l3.85-4.07h0A8.66,8.66,0,0,0,9.49,112Z"/><path class="cls-6" d="M160.51,112a8.62,8.62,0,0,0-8.62-8.63h0a8.75,8.75,0,0,0-1.44.12,13.26,13.26,0,0,0-22.9-4.5,12.3,12.3,0,0,0-6.06,23.84,12,12,0,0,0,3,.38h28.4l3.85-4.07h0A8.6,8.6,0,0,0,160.51,112Z"/><path class="cls-6" d="M126.58,112a8.63,8.63,0,0,0-8.63-8.63h0a9.74,9.74,0,0,0-1.43.12A13.26,13.26,0,0,0,93.62,99a12.27,12.27,0,1,0-3,24.22H119l3.85-4.07h0A8.63,8.63,0,0,0,126.58,112Z"/><path class="cls-6" d="M34.34,114.58A6.63,6.63,0,0,0,27.71,108h0a6.71,6.71,0,0,0-1.1.09A10.18,10.18,0,0,0,9,104.59a9.44,9.44,0,1,0-2.31,18.59H28.54l2.95-3.13h0A6.6,6.6,0,0,0,34.34,114.58Z"/><path class="cls-7" d="M91,114.58A6.63,6.63,0,0,0,84.34,108h0a6.92,6.92,0,0,0-1.11.09,10.17,10.17,0,0,0-17.57-3.45,9.44,9.44,0,1,0-2.3,18.59H85.17l3-3.13h0A6.62,6.62,0,0,0,91,114.58Z"/><path class="cls-7" d="M196,112a8.62,8.62,0,0,0-8.62-8.63h0a8.75,8.75,0,0,0-1.44.12A13.27,13.27,0,0,0,163,98.94a12.34,12.34,0,1,0-3.55,24.23h28.95l3.85-4.08h0A8.59,8.59,0,0,0,196,112Z"/><path class="cls-7" d="M63.53,113.55a7.44,7.44,0,0,0-7.44-7.44h0a7.3,7.3,0,0,0-1.23.11,11.39,11.39,0,0,0-19.66-3.88,10.89,10.89,0,0,0-2.6-.32,10.58,10.58,0,1,0-.5,21.15H57l3.32-3.51h0A7.41,7.41,0,0,0,63.53,113.55Z"/><g id="light-2"><polygon class="cls-2" points="148.75 77.48 151.41 87.5 158.24 87.5 160.91 77.42 148.75 77.48"/><path d="M158.56,87.9h-7.47l-2.88-10.83L161.43,77Zm-6.83-.82h6.2l2.44-9.24-11.08,0Z"/><rect x="152.75" y="77.39" width="0.82" height="10.09" transform="translate(-4.9 9.83) rotate(-3.62)"/><path d="M161.59,77h-1a1.44,1.44,0,0,0-1.43-1.39h-2.41v-1a.82.82,0,0,0-.82-.82h-2.24a.82.82,0,0,0-.82.82v1h-2.41A1.45,1.45,0,0,0,149,77h-1a.41.41,0,0,0-.41.41h0v.17A.41.41,0,0,0,148,78h13.53a.41.41,0,0,0,.41-.41h0v-.17A.42.42,0,0,0,161.59,77Z"/><path d="M158.72,87.63h-7.78a.21.21,0,0,0-.21.21v.24a.22.22,0,0,0,.21.2h1.43a.61.61,0,0,0,.61.58h3.68a.62.62,0,0,0,.62-.58h1.43a.22.22,0,0,0,.21-.2v-.24A.21.21,0,0,0,158.72,87.63Z"/><path d="M184.79,91.68h1.5a.65.65,0,0,0,.65-.65v-.72h24.91V88.73H186.94v-1a.65.65,0,0,0-.65-.65h-1.5a.65.65,0,0,0-.64.65v1h-1.57v-9H181v9h-1.77v-.87a.65.65,0,0,0-.65-.65h-1.5a.65.65,0,0,0-.64.65v.87H152.06v1.58h24.38v.81a.66.66,0,0,0,.64.65h1.5a.66.66,0,0,0,.65-.65v-.81H181v57.9h-2.14a.64.64,0,0,0-.64.65v.47a.64.64,0,0,0,.64.64h.45v2.59h-.8a.77.77,0,0,0-.7.45l-6.16,13.46a.77.77,0,0,0,.39,1,.64.64,0,0,0,.31.07h18.89a.76.76,0,0,0,.77-.76.81.81,0,0,0-.08-.34l-6.37-13.4a.75.75,0,0,0-.69-.44h-.57V150h.44a.65.65,0,0,0,.65-.65v-.47a.65.65,0,0,0-.65-.64H182.6V90.31h1.56V91A.65.65,0,0,0,184.79,91.68Z"/></g><g id="base"><polygon class="cls-8" points="46.53 64.59 75.35 131.99 85.65 131.99 46.53 64.59"/><polygon class="cls-8" points="40.39 65.27 2.56 130.13 13.63 130.13 44 63.25 40.65 60.96 40.39 65.27"/><rect class="cls-9" x="-16.74" y="128.3" width="117.89" height="4.56"/></g><line class="cls-10" x1="3.31" y1="38.53" x2="46.1" y2="62.46"/><line class="cls-10" x1="-2.7" y1="74.96" x2="44.9" y2="63.21"/><line class="cls-10" x1="25.82" y1="109.01" x2="45.45" y2="64.09"/><line class="cls-10" x1="63.3" y1="108.59" x2="45.41" y2="62.94"/><line class="cls-10" x1="90.35" y1="84.61" x2="45.42" y2="64.98"/><line class="cls-10" x1="92.07" y1="46.33" x2="46.42" y2="64.22"/><line class="cls-10" x1="68.29" y1="19.17" x2="44.07" y2="61.79"/><line class="cls-10" x1="30.83" y1="16.51" x2="44.01" y2="63.73"/><line class="cls-11" x1="90.68" y1="78.18" x2="44.03" y2="63.12"/><line class="cls-11" x1="87.67" y1="40.78" x2="44.03" y2="63.12"/><line class="cls-11" x1="59.09" y1="16.47" x2="44.03" y2="63.12"/><line class="cls-11" x1="1.28" y1="86.15" x2="44.82" y2="63.63"/><line class="cls-11" x1="-1.46" y1="47.32" x2="44.82" y2="63.5"/><line class="cls-11" x1="21.68" y1="19.48" x2="44.03" y2="63.12"/><rect class="cls-12" x="-5.91" y="60.96" width="99.87" height="2.74"/><rect class="cls-12" x="-5.91" y="61.41" width="99.87" height="2.74" transform="translate(-31.5 49.52) rotate(-45)"/><rect class="cls-12" x="42.66" y="13.19" width="2.74" height="99.87" transform="translate(-32.09 51.72) rotate(-46.58)"/><rect class="cls-12" x="42.66" y="15.08" width="2.74" height="99.87"/><path class="cls-12" d="M44,2.74a60,60,0,1,0,60,60v0A60,60,0,0,0,44,2.74Zm0,117.77a57.75,57.75,0,1,1,57.74-57.75h0A57.82,57.82,0,0,1,44,120.51Z"/><path class="cls-12" d="M44,9.58a53.19,53.19,0,1,0,53.18,53.2v0A53.24,53.24,0,0,0,44,9.58Zm0,99.53A46.35,46.35,0,1,1,90.37,62.76h0A46.39,46.39,0,0,1,44,109.11Z"/><path class="cls-12" d="M44,48.3A14.45,14.45,0,1,0,58.47,62.75h0A14.46,14.46,0,0,0,44,48.3Zm0,19.77a5.33,5.33,0,1,1,5.33-5.33h0A5.34,5.34,0,0,1,44,68.09h0Z"/><path class="cls-9" d="M44,57.44a5.33,5.33,0,1,0,5.33,5.33h0A5.33,5.33,0,0,0,44,57.44Z"/><path class="cls-13" d="M-.59,107.45l10.64-.69C10.91,90.11-3.56,96.38-.59,107.45ZM.51,106a7.92,7.92,0,0,1,1.36-6.2,4.31,4.31,0,0,1,3.21-1.88A2.51,2.51,0,0,1,7,98.77c.69.73,1.78,2.55,1.76,6.7Z"/><path class="cls-13" d="M4.31,113.45h-6a1.82,1.82,0,0,1-1.82-1.82h0v-4.94a1.82,1.82,0,0,1,1.81-1.82H4.31Z"/><path class="cls-14" d="M4.31,104.87h6.06a1.82,1.82,0,0,1,1.82,1.82h0v4.94a1.81,1.81,0,0,1-1.81,1.82H4.31Z"/><path class="cls-13" d="M79.28,106.44l10.64-.68C90.78,89.12,76.3,95.37,79.28,106.44ZM80.37,105a8.07,8.07,0,0,1,1.36-6.21A4.35,4.35,0,0,1,85,96.91a2.52,2.52,0,0,1,1.87.86c.7.73,1.79,2.54,1.77,6.7Z"/><path class="cls-13" d="M84.18,112.45H78.12a1.83,1.83,0,0,1-1.82-1.82h0v-4.94a1.83,1.83,0,0,1,1.82-1.82h6.06Z"/><path class="cls-14" d="M84.18,103.87h6.06a1.83,1.83,0,0,1,1.83,1.82h0v4.94a1.83,1.83,0,0,1-1.83,1.82H84.18Z"/><path class="cls-13" d="M-6.36,29.85l10.67-.69C5.14,12.52-9.33,18.78-6.36,29.85Zm1.09-1.44A8,8,0,0,1-3.9,22.2,4.31,4.31,0,0,1-.69,20.32a2.55,2.55,0,0,1,1.87.85c.7.74,1.79,2.55,1.77,6.71Z"/><path class="cls-14" d="M-1.44,27.27H4.62A1.82,1.82,0,0,1,6.44,29.1h0V34a1.82,1.82,0,0,1-1.81,1.83H-1.44Z"/><path class="cls-13" d="M79.51,29l10.64-.69C91,11.62,76.54,17.88,79.51,29Zm1.09-1.44A8.08,8.08,0,0,1,82,21.31a4.31,4.31,0,0,1,3.22-1.89,2.56,2.56,0,0,1,1.88.86c.69.73,1.78,2.54,1.76,6.7Z"/><path class="cls-13" d="M84.41,35h-6a1.82,1.82,0,0,1-1.82-1.83h0v-5a1.82,1.82,0,0,1,1.82-1.83h6Z"/><path class="cls-14" d="M84.41,26.38h6.06a1.82,1.82,0,0,1,1.8,1.8v4.93a1.81,1.81,0,0,1-1.82,1.82h-6Z"/><path class="cls-13" d="M39.33,119.48,50,118.79C50.83,102.15,36.35,108.42,39.33,119.48ZM40.42,118a8,8,0,0,1,1.36-6.2A4.31,4.31,0,0,1,45,110a2.51,2.51,0,0,1,1.88.85c.7.73,1.78,2.55,1.77,6.7Z"/><path class="cls-13" d="M44.23,125.49H38.17a1.82,1.82,0,0,1-1.82-1.82h0v-4.93a1.82,1.82,0,0,1,1.82-1.82h6.06Z"/><path class="cls-14" d="M44.23,116.91H50.3a1.82,1.82,0,0,1,1.83,1.82h0v4.93a1.82,1.82,0,0,1-1.82,1.83H44.23Z"/><path class="cls-13" d="M96.24,68.2l10.64-.68C107.74,50.87,93.27,57.14,96.24,68.2Zm1.09-1.43a8,8,0,0,1,1.36-6.21,4.27,4.27,0,0,1,3.22-1.88,2.48,2.48,0,0,1,1.87.85c.7.73,1.79,2.54,1.77,6.7Z"/><path class="cls-13" d="M101.14,74.21h-6a1.82,1.82,0,0,1-1.82-1.81h0V67.46a1.81,1.81,0,0,1,1.81-1.83h6.06Z"/><path class="cls-14" d="M101.14,65.63h6.08A1.81,1.81,0,0,1,109,67.45h0v4.93a1.82,1.82,0,0,1-1.82,1.82h-6.08Z"/><path class="cls-13" d="M39.09,13.16l10.64-.68C50.59-4.17,36.12,2.09,39.09,13.16Zm1.1-1.44a8,8,0,0,1,1.36-6.21,4.31,4.31,0,0,1,3.21-1.88,2.56,2.56,0,0,1,1.88.86c.69.73,1.78,2.54,1.77,6.7Z"/><path class="cls-13" d="M44,19.17h-6a1.83,1.83,0,0,1-1.82-1.82h0V12.41a1.82,1.82,0,0,1,1.82-1.82h6Z"/><path class="cls-14" d="M44,10.59H50a1.81,1.81,0,0,1,1.82,1.82h0v4.94A1.82,1.82,0,0,1,50,19.17H44Z"/><g id="hotdog_stand" data-name="hotdog stand"><rect class="cls-15" x="94.81" y="126.48" width="29.34" height="13.92"/><rect class="cls-16" x="96.1" y="127.53" width="26.77" height="5.58" rx="0.83"/><rect class="cls-17" x="94.62" y="118.2" width="29.73" height="8.81" rx="0.83"/><rect class="cls-17" x="92.02" y="143.29" width="79.63" height="27.9"/><rect class="cls-18" x="91.43" y="141.82" width="80.93" height="2.95"/><rect class="cls-18" x="94.07" y="140.41" width="76.14" height="2.83"/><rect class="cls-18" x="130.72" y="76.11" width="2.36" height="66.3"/><polyline class="cls-19" points="110.27 103.04 111.77 105.41 130.56 105.41 132.14 103.04 110.27 103.04"/><polyline class="cls-20" points="132.14 103.04 133.4 105.41 152.12 105.41 153.37 103.04 132.14 103.04"/><polyline class="cls-20" points="94.07 103.04 94.78 105.41 109.33 105.41 110.27 103.04 94.07 103.04"/><polyline class="cls-2" points="153.37 103.04 170.2 103.04 131.5 79.76 150.85 103.04 153.37 103.04"/><polyline class="cls-2" points="112 103.04 132.14 103.04 131.5 79.76 108.38 103.04 112 103.04"/><polygon class="cls-21" points="132.14 103.04 131.5 79.76 153.37 103.04 132.14 103.04"/><polygon class="cls-21" points="131.5 79.76 94.07 103.04 112 103.04 131.5 79.76"/><path class="cls-18" d="M150.38,64.09a4.49,4.49,0,0,0-.71-1.33,4.76,4.76,0,0,0-.43-1.42,6.19,6.19,0,0,0-5.45-3,4,4,0,0,0-1.15.15c-.43.06-.95.15-1.58.26a48.34,48.34,0,0,1-8.22.92,11.54,11.54,0,0,1-6.19-1.34,5.32,5.32,0,0,0-2.87-.82,4.59,4.59,0,0,0-4.16,2.22l0,.09A5.47,5.47,0,0,0,115,63.23a3.46,3.46,0,0,0-.16.84,4.39,4.39,0,0,0-.9,6.14l0,.06c2.45,5,12,7.72,19.88,7.72,5.61,0,10.11-1.34,12.65-3.76l.12-.11.09-.13a9.46,9.46,0,0,0,1.67-3.11A6.73,6.73,0,0,0,150.38,64.09Z"/><path class="cls-22" d="M125.52,60c-1.9-1.24-5.53,0-3.72,2.62,2.15,4.77,19.85,8,24.57,3.55,3.72-4.83-2-6.24-3.25-5.72C140.56,60.8,130.61,63.35,125.52,60Z"/><path class="cls-23" d="M122,63.28c1.39-1.63,2-2.79,2.63-1.86s.38,2.78.85,3.25,1.62-2.09,2.08-1.73a3,3,0,0,0,2.94,0,1.64,1.64,0,0,1,2.39.93c.39.92,1-.62,1.47-1a1.56,1.56,0,0,1,2.16.15c.7.77,1.24.08,1.73-.39s1-1.08,1.54-.38a6.93,6.93,0,0,0,1.47,1.39c.78.61.38-1.15,1.08-1.39s1.08-.77,1.55-.23A11.39,11.39,0,0,1,145,63.33c.23.38,1.72,1.62.15,2.08s-15.14.77-15.14.77l-9.11-.69Z"/><path class="cls-24" d="M121.8,62.1c-2.9-1.29-6.65,1.85-3.86,3.79s13.13,5.71,16.22,5.64,11.12-.86,12.9-2.25,2.78-6.32-1.62-6.18C135.24,64.51,127.34,64.59,121.8,62.1Z"/><path class="cls-25" d="M124.66,62.42c-4.87,1.09-4.79,6.9,1.72,3s3.78-.39,2.7,1.08,2.71,1.62,5-2.7,1,4.47,1.78,5.87.23-5.87,3.4-6.11,0,3.71,1.39,4.4.7-8.41,3.94-3.7"/><path class="cls-22" d="M120.79,65.75c-2.23-2-7.34,0-4.94,3.45,2.87,6.32,23,9.43,29.28,3.48,4.94-6.41-3.86-8.73-5.49-8.05C138.26,64.82,127.28,71.62,120.79,65.75Z"/></g><path class="cls-26" d="M170.36,27a4.85,4.85,0,0,0-1.47.22,6.78,6.78,0,0,0-12.84-1.07,5.46,5.46,0,0,0-3.66,10.29,5.29,5.29,0,0,0,1.85.31h16.09a4.89,4.89,0,1,0,0-9.77Z"/></g></g></g></g></svg>