<svg xmlns="http://www.w3.org/2000/svg" xmlns:xlink="http://www.w3.org/1999/xlink" viewBox="0 0 152.82 152.82"><defs><style>.cls-1,.cls-23{fill:none;}.cls-2{fill:#fff;}.cls-3{clip-path:url(#clip-path);}.cls-4{fill:#add9ee;}.cls-5{fill:#5caacc;}.cls-6{fill:#683717;}.cls-7{fill:#4ca547;}.cls-8{fill:#289345;}.cls-9{fill:#a5a4a4;}.cls-10{fill:#bababa;}.cls-11{fill:#c8982e;}.cls-12{fill:#703e18;}.cls-13{fill:#e2b373;}.cls-14{fill:#a0cc3a;}.cls-15{fill:#be2326;}.cls-16{fill:#d8b82f;}.cls-17{fill:#020202;}.cls-18{fill:#565656;}.cls-19{fill:#cfcfce;}.cls-20{fill:#69b5b7;}.cls-21{fill:#cacece;}.cls-22{fill:#2b2121;}.cls-23{stroke:#e2dcdc;stroke-miterlimit:10;stroke-width:1.93px;}.cls-24{fill:#db3527;}.cls-25{fill:#eaeaea;}.cls-26{fill:#7c1616;}.cls-27{fill:#434343;}</style><clipPath id="clip-path"><circle class="cls-1" cx="76.2" cy="76.49" r="64.97"/></clipPath></defs><g id="Layer_2" data-name="Layer 2"><g id="Layer_1-2" data-name="Layer 1"><circle class="cls-2" cx="76.41" cy="76.41" r="76.41"/><g class="cls-3"><rect id="Sky" class="cls-4" x="-140.27" y="6.81" width="391.37" height="108.54"/><polygon id="City" class="cls-5" points="157.34 68.86 155.37 68.86 155.37 51.23 147.63 51.23 147.63 68.86 140.35 68.86 140.35 78.88 127.9 78.88 127.9 35.68 111.35 35.68 111.35 57.28 101.79 57.28 101.79 62.81 98.76 62.81 98.76 66.79 94.05 66.79 94.05 57.45 87.52 57.45 87.52 65.06 80.69 65.06 80.69 53.99 78.57 53.99 78.57 47.26 70.52 47.26 70.52 56.59 69.46 56.59 69.46 52.96 66.27 52.96 66.27 65.36 61.72 65.36 61.72 58.32 33.64 58.32 33.64 63.51 27.11 63.51 27.11 57.11 21.2 57.11 21.2 70.76 18.31 70.76 18.31 64.71 15.58 64.71 15.58 67.65 12.99 67.65 12.99 60.91 9.96 60.91 9.96 64.89 7.68 64.89 7.68 55.03 4.34 55.03 4.34 59.53 -2.94 59.53 -2.94 39.82 -8.71 39.82 -8.71 53.82 -15.69 53.82 -15.69 63.33 -28.44 63.33 -28.44 51.05 -35.12 51.05 -35.12 76.46 -43.01 76.46 -43.01 52.96 -47.26 52.96 -47.26 76.46 -49.08 76.46 -49.08 49.5 -63.35 49.5 -63.35 108.44 -53.03 108.44 -53.03 111.9 -35.12 111.9 -35.12 112.94 -30.26 112.94 -30.26 113.97 -15.69 113.97 -15.69 115.01 -8.71 115.01 -8.71 122.79 -2.94 122.79 -2.94 112.42 6.92 112.42 6.92 107.92 7.68 107.92 7.68 99.63 9.96 99.63 9.96 104.99 12.99 104.99 12.99 88.05 16.34 88.05 16.34 98.93 23.47 98.93 23.47 97.73 25.9 97.73 25.9 106.71 33.64 106.71 33.64 113.63 61.72 113.63 61.72 81.78 66.27 81.78 66.27 99.45 69.46 99.45 69.46 89.92 70.52 89.92 70.52 98.76 78.57 98.76 78.57 101.53 87.52 101.53 87.52 112.77 94.05 112.77 94.05 110 98.76 110 98.76 114.32 122.89 114.32 122.89 123.14 143.08 123.14 143.08 122.1 157.34 122.1 157.34 68.86"/><g id="tree5"><polygon class="cls-6" points="132.09 76.69 131.83 82.87 126.68 81.53 125.52 81.82 131.67 86.64 130.8 107.06 136.62 106.85 136.62 76.48 132.09 76.69"/><path class="cls-7" d="M119.85,50.87c0-7.78,12.5-14.09,16-5.45,4.89-3.52,11.46,5,9.79,9.54,12.76.44,2.57,34.19-12.89,24.94-3.6,7.63-26.41,1.49-20.48-12.47C110.7,66,108.77,52.62,119.85,50.87Z"/></g><g id="tree4"><polygon class="cls-6" points="104.49 94.06 104.4 96.35 102.48 95.85 102.05 95.96 104.33 97.75 104.07 107.87 106.39 108.1 106.17 93.98 104.49 94.06"/><path class="cls-8" d="M100,84.47c0-2.89,4.64-5.23,5.93-2,1.82-1.3,4.26,1.86,3.64,3.54,4.73.17,1,12.7-4.78,9.26-1.34,2.84-9.81.55-7.61-4.62C96.55,90.09,95.86,85.14,100,84.47Z"/></g><g id="tree3"><polygon class="cls-6" points="83.84 90.79 83.7 94.13 80.92 93.41 80.3 93.57 83.62 96.16 83.15 107.17 86.29 107.06 86.29 90.68 83.84 90.79"/><path class="cls-7" d="M77.24,76.87c0-4.19,6.74-7.6,8.62-2.93,2.64-1.89,6.18,2.69,5.28,5.15,6.88.23,1.39,18.43-7,13.45-2,4.11-14.25.79-11-6.73C72.31,85,71.27,77.82,77.24,76.87Z"/></g><g id="tree2"><path class="cls-8" d="M-13.12,76.52c0-4.19,6.74-7.59,8.61-2.93,2.64-1.89,6.19,2.7,5.29,5.15,6.87.24,1.38,18.44-7,13.45-1.94,4.12-14.24.79-11-6.72C-18.06,84.67-19.1,77.47-13.12,76.52Z"/></g><rect id="grass" class="cls-7" x="-140.27" y="106.52" width="392.26" height="16.96"/><g id="fence"><rect class="cls-9" x="25.32" y="116.73" width="227.05" height="1.99"/><rect class="cls-9" x="24.99" y="96.58" width="227.05" height="1.99"/><rect class="cls-9" x="40.68" y="90.97" width="6.51" height="34.79"/><rect class="cls-9" x="145.86" y="92.12" width="6.51" height="34.79"/><rect class="cls-9" x="128.33" y="91.92" width="6.51" height="34.79"/><rect class="cls-9" x="110.8" y="91.73" width="6.51" height="34.79"/><rect class="cls-9" x="93.27" y="91.54" width="6.51" height="34.79"/><rect class="cls-9" x="75.74" y="91.35" width="6.51" height="34.79"/><rect class="cls-9" x="58.21" y="91.17" width="6.51" height="34.79"/></g><g id="fence-2"><rect class="cls-9" x="-216.15" y="116.73" width="227.05" height="1.99"/><rect class="cls-9" x="-216.48" y="96.58" width="227.05" height="1.99"/></g><rect id="Ground" class="cls-10" x="-140.27" y="123.23" width="391.37" height="89.71"/><rect class="cls-11" x="52.36" y="67.31" width="1.52" height="14.29"/><rect class="cls-11" x="30.6" y="67.31" width="1.52" height="14.29"/><ellipse class="cls-11" cx="41.86" cy="58.29" rx="20.59" ry="13.89"/><path class="cls-12" d="M41.86,70.66A25,25,0,0,1,28,66.8c-3.48-2.34-5.37-5.36-5.37-8.51s1.9-6.17,5.37-8.5a25,25,0,0,1,13.87-3.86,25,25,0,0,1,13.88,3.86c3.47,2.33,5.37,5.36,5.37,8.5s-1.91,6.17-5.37,8.51A24.86,24.86,0,0,1,41.86,70.66Z"/><path class="cls-13" d="M35.6,49.7c-1.87-1.38-5.43,0-3.66,2.93,2.11,5.34,19.5,9,24.14,4,3.65-5.4-2-7-3.19-6.39C50.38,50.55,40.59,53.41,35.6,49.7Z"/><path class="cls-14" d="M32.17,53.32c1.36-1.81,2-3.11,2.58-2.08s.38,3.12.83,3.64,1.61-2.34,2.05-1.9a2.63,2.63,0,0,0,2.88,0c.91-.69,2,0,2.36,1s1-.69,1.43-1.12a1.42,1.42,0,0,1,2.13.17c.68.86,1.22.08,1.67-.43s1-1.21,1.52-.44a6.51,6.51,0,0,0,1.44,1.56c.76.69.38-1.29,1.06-1.56s1.07-.86,1.52-.25a12,12,0,0,1,1.06,1.48c.23.43,1.67,1.82.15,2.33S40,56.63,40,56.63l-9-.78Z"/><path class="cls-15" d="M31.94,52c-2.85-1.44-6.52,2.07-3.8,4.24s12.9,6.39,15.94,6.3,10.93-1,12.67-2.5,2.73-7.09-1.6-6.93C45.15,54.7,37.4,54.79,31.94,52Z"/><path class="cls-16" d="M34.83,52.68c-1.55.38-3.37,1.82-3,3.52a1,1,0,0,0,1.14.63c2.46-.27,4.22-2.47,6.57-3.32.42-.17,1.1-.3,1.36.24.28,1.08-.66,2.06-1.13,2.93-.19.33-.43.59-.42.82a2,2,0,0,0,1.6-.4,7.41,7.41,0,0,0,2.33-2.63,8,8,0,0,1,1.32-2.16c2.2-1.31.92,6.86,1.6,8l0,0s0,0,0,0a.38.38,0,0,0-.53,0c.23-1.09.36-2.6.71-3.87s.9-2.88,2.45-3.26c.8-.17,1.89.06,2.12,1,.34,1.37-.44,2.59-.32,3.77a.14.14,0,0,0,0,.11s0,.07,0,.07,0,.05,0,0a.28.28,0,0,0-.2,0c.64-1.08.43-6.63,2.86-5.59a5.19,5.19,0,0,1,1.46,1.57l-.95.58c-.29-.54-.67-1.15-1.06-1.29,0,0,0,0-.1.09C51.91,55,52,56.8,51.43,58.43c-.06.21-.38.72-.82.71-1.45-.18-.94-2.2-.75-3A4,4,0,0,0,50,54.48a.36.36,0,0,0-.32-.3,1.56,1.56,0,0,0-1.8.91c-1,1.71-.92,3.68-1.42,5.61a.68.68,0,0,1-.34.4.59.59,0,0,1-.69-.25A8.62,8.62,0,0,1,45,57.46,21.28,21.28,0,0,0,44.8,53s0,0,0,0,0,0,.08.05.19,0,.18,0a1.15,1.15,0,0,0-.2.24c-.87,1.64-1.79,3.52-3.51,4.56-.68.41-2,1-2.73.13-.4-.56.16-1.33.42-1.71a7.35,7.35,0,0,0,1.09-2.14c.07.1.12.06,0,.07-2.55.7-4.35,3.2-7.18,3.4-1.91.13-2.37-1.9-1.49-3.24a5.1,5.1,0,0,1,3.21-2.28l.16.63Z"/><path class="cls-13" d="M31,56.08c-2.19-2.25-7.21,0-4.85,3.89,2.8,7.09,22.59,10.55,28.76,3.89,4.86-7.17-3.8-9.77-5.39-9C48.11,55.05,37.33,62.65,31,56.08Z"/><g id="Car"><ellipse class="cls-17" cx="65.74" cy="127.71" rx="7.59" ry="8.64"/><path class="cls-9" d="M65.74,135.33c-3.69,0-6.69-3.41-6.69-7.61s3-7.62,6.69-7.62,6.68,3.4,6.69,7.6-3,7.62-6.69,7.63Z"/><path class="cls-18" d="M65.74,133.79c-2.95,0-5.33-2.72-5.33-6.08s2.39-6.08,5.34-6.08,5.33,2.72,5.34,6.07-2.39,6.09-5.34,6.09Z"/><path class="cls-9" d="M65.74,132.88c-2.5,0-4.53-2.31-4.54-5.16s2-5.17,4.54-5.17,4.53,2.3,4.54,5.15-2,5.17-4.54,5.18Z"/><path class="cls-19" d="M65.74,130.43a2.74,2.74,0,1,1,2.39-2.72h0A2.57,2.57,0,0,1,65.74,130.43Z"/><path class="cls-2" d="M65.74,128.59a.82.82,0,0,1-.77-.87.78.78,0,1,1,1.54,0h0A.82.82,0,0,1,65.74,128.59Z"/><ellipse class="cls-17" cx="1.54" cy="128.23" rx="7.59" ry="8.64"/><path class="cls-9" d="M1.56,135.85c-3.69,0-6.69-3.41-6.69-7.61s3-7.62,6.68-7.62,6.69,3.4,6.7,7.61h0C8.24,132.43,5.25,135.84,1.56,135.85Z"/><path class="cls-18" d="M1.56,134.31c-2.95,0-5.34-2.72-5.34-6.08s2.39-6.08,5.34-6.08,5.34,2.72,5.34,6.08S4.51,134.31,1.56,134.31Z"/><path class="cls-9" d="M1.56,133.4c-2.5,0-4.54-2.31-4.54-5.16s2-5.17,4.53-5.17,4.54,2.3,4.54,5.16h0C6.09,131.08,4.06,133.39,1.56,133.4Z"/><path class="cls-19" d="M1.56,131a2.74,2.74,0,0,1,0-5.43,2.56,2.56,0,0,1,2.39,2.71h0A2.56,2.56,0,0,1,1.56,131Z"/><path class="cls-2" d="M1.56,129.11a.83.83,0,0,1-.78-.87.84.84,0,0,1,.77-.89.83.83,0,0,1,.78.88h0A.82.82,0,0,1,1.56,129.11Z"/><path class="cls-20" d="M-21.54,100.48c-.95,6.3-.87,14.6.84,25.58H-9.17c-.2-5.87,14.47-17.16,19.84-.92H54.89c5-11.52,23.78-5.53,23.78,1H89.4a142.34,142.34,0,0,0-.73-25.7Z"/><path class="cls-21" d="M76.34,79.86C59,78.94,5.1,77.44-3.4,79.64-9.48,81.2-19,84.06-21.54,100.49H88.67C87.22,90,83.85,80.29,76.34,79.86Z"/><rect class="cls-22" x="15.12" y="84.94" width="59.27" height="19.36"/><rect class="cls-20" x="62.4" y="85.19" width="2.35" height="19.01"/><line class="cls-23" x1="21.88" y1="93.14" x2="32.65" y2="93.14"/><rect class="cls-23" x="22.1" y="86.14" width="10.55" height="14.17"/><line class="cls-23" x1="22.03" y1="87.73" x2="32.65" y2="87.73"/><rect class="cls-24" x="21.42" y="97.99" width="11.93" height="5.87"/><rect class="cls-25" x="65.82" y="102.22" width="6.53" height="2.16"/><rect class="cls-25" x="53.98" y="102.22" width="6.53" height="2.16"/><rect class="cls-25" x="42.14" y="102.22" width="6.53" height="2.16"/><rect class="cls-25" x="30.3" y="102.22" width="6.53" height="2.16"/><rect class="cls-25" x="18.46" y="102.22" width="6.53" height="2.16"/><rect class="cls-26" x="13.91" y="103.77" width="64.06" height="1.12"/><rect class="cls-24" x="11.48" y="83.72" width="66.41" height="2.77"/><path class="cls-21" d="M86.46,122.26c-2.7,1.53-3,4.66.53,5.09s3.8.09,3.8-2.76S89.8,120.37,86.46,122.26Z"/><g id="window"><path class="cls-27" d="M-6.49,86.6H9a.58.58,0,0,1,.54.61V97.73a.58.58,0,0,1-.54.61H-6.49A.58.58,0,0,1-7,97.73V87.21A.58.58,0,0,1-6.49,86.6Z"/></g></g><g id="light"><polygon class="cls-2" points="94.91 44.59 97.12 54.09 102.82 54.09 105.03 44.53 94.91 44.59"/><path d="M103.08,54.46H96.86l-2.4-10.27,11-.06Zm-5.69-.77h5.16l2-8.78L95.35,45Z"/><line class="cls-1" x1="101.74" y1="44.42" x2="101.06" y2="54.14"/><polygon points="100.71 54.11 101.39 44.39 102.07 44.45 101.39 54.17 100.71 54.11"/><line class="cls-1" x1="98.31" y1="44.53" x2="98.84" y2="54.09"/><polygon points="97.97 44.54 98.66 44.49 99.19 54.05 98.5 54.1 97.97 44.54"/><path d="M105.61,44.07h-.82a1.27,1.27,0,0,0-1.19-1.32h-2v-.91a.74.74,0,0,0-.69-.78H99a.73.73,0,0,0-.68.78h0v.93h-2a1.28,1.28,0,0,0-1.19,1.3h-.82a.37.37,0,0,0-.34.38h0v.16a.37.37,0,0,0,.34.39h11.3a.37.37,0,0,0,.34-.39v-.16a.37.37,0,0,0-.34-.39Z"/><path d="M103.21,54.22H96.73a.18.18,0,0,0-.17.19v.24a.18.18,0,0,0,.17.19h1.19a.55.55,0,0,0,.51.57h3.08a.55.55,0,0,0,.51-.57h1.19a.18.18,0,0,0,.17-.19h0v-.24a.17.17,0,0,0-.16-.19Z"/><polygon class="cls-2" points="140.14 44.59 142.36 54.09 148.05 54.09 150.27 44.53 140.14 44.59"/><path d="M148.31,54.46h-6.22l-2.4-10.27,11-.06Zm-5.69-.77h5.17l2-8.78-9.24.05Z"/><line class="cls-1" x1="146.97" y1="44.42" x2="146.29" y2="54.14"/><polygon points="145.95 54.11 146.62 44.39 147.3 44.45 146.63 54.17 145.95 54.11"/><line class="cls-1" x1="143.54" y1="44.53" x2="144.08" y2="54.09"/><polygon points="143.21 44.54 143.89 44.49 144.42 54.05 143.74 54.1 143.21 44.54"/><path d="M150.84,44.07H150a1.29,1.29,0,0,0-1.2-1.32h-2v-.91a.73.73,0,0,0-.68-.78h-1.87a.73.73,0,0,0-.68.78h0v.93h-2a1.29,1.29,0,0,0-1.2,1.3h-.82a.38.38,0,0,0-.34.39v.16a.38.38,0,0,0,.34.39h11.3a.38.38,0,0,0,.35-.39v-.16a.38.38,0,0,0-.35-.39Z"/><path d="M148.44,54.22H142a.19.19,0,0,0-.17.19h0v.24a.19.19,0,0,0,.17.19h1.19a.56.56,0,0,0,.51.57h3.07a.54.54,0,0,0,.51-.57h1.2a.19.19,0,0,0,.17-.19v-.24a.19.19,0,0,0-.17-.19Z"/><polygon class="cls-2" points="114.48 31.82 117.97 46.77 126.93 46.77 130.42 31.73 114.48 31.82"/><path d="M127.34,47.38h-9.78l-3.78-16.17,17.34-.1Zm-9-1.23h8.13l3.21-13.8-14.54.07Z"/><line class="cls-1" x1="125.23" y1="31.55" x2="124.17" y2="46.85"/><polygon points="124.01 45.92 125.09 30.58 126.16 30.68 125.08 46.02 124.01 45.92"/><line class="cls-1" x1="119.84" y1="31.73" x2="120.67" y2="46.76"/><polygon points="119.31 31.75 120.38 31.68 121.21 46.71 120.14 46.79 119.31 31.75"/><path d="M131.32,31H130A2,2,0,0,0,128.14,29H125V27.48a1.17,1.17,0,0,0-1.06-1.22H121a1.16,1.16,0,0,0-1.07,1.22V29h-3.17A2,2,0,0,0,114.86,31h-1.3a.57.57,0,0,0-.53.61v.25a.57.57,0,0,0,.53.61h17.75a.59.59,0,0,0,.54-.6h0v-.25A.6.6,0,0,0,131.32,31Z"/><path d="M127.55,47h-10.2a.28.28,0,0,0-.27.29h0v.37a.29.29,0,0,0,.27.31h1.88a.86.86,0,0,0,.8.89h4.84a.86.86,0,0,0,.8-.89h1.88a.29.29,0,0,0,.27-.31v-.37a.29.29,0,0,0-.26-.3Z"/><path d="M125,58.06h1.25a.59.59,0,0,0,.54-.61h0v-.68h20.77V55.28H126.74v-.93a.57.57,0,0,0-.53-.61H125a.58.58,0,0,0-.54.61v.91H123.1V46.68h-1.3v8.58h-1.48v-.83a.58.58,0,0,0-.54-.61H118.5a.58.58,0,0,0-.53.61v.83H97.64v1.49H118v.77a.58.58,0,0,0,.54.61h1.24a.58.58,0,0,0,.53-.61v-.76h1.48v55H120a.59.59,0,0,0-.54.61v.44a.6.6,0,0,0,.54.62h.38v2.47h-.67a.64.64,0,0,0-.58.43L114,129.07a.79.79,0,0,0,.32,1,.66.66,0,0,0,.27.06h15.75a.69.69,0,0,0,.64-.73.81.81,0,0,0-.06-.31l-5.3-12.74a.64.64,0,0,0-.57-.42h-.48v-2.5h.37a.58.58,0,0,0,.54-.62v-.42a.58.58,0,0,0-.54-.61h-1.79v-55h1.3v.67A.59.59,0,0,0,125,58.06Z"/></g></g></g></g></svg>