<svg id="Layer_1" data-name="Layer 1" xmlns="http://www.w3.org/2000/svg" viewBox="0 0 100.49 103.52"><defs><style>.cls-1{fill:#656f74;}.cls-2{fill:#dfebf1;}.cls-3{fill:#cadde8;}</style></defs><g id="Timer"><rect class="cls-1" y="2.89" width="100.49" height="100.49" rx="7.61"/><rect class="cls-2" width="100.49" height="100.49" rx="7.61"/><rect class="cls-3" y="-11.86" width="100.49" height="113.9" rx="8.1"/><path d="M18.34,22.49a16.51,16.51,0,0,1-1.72.09,4.71,4.71,0,0,1-1.09-.07c-.16-.05-.24-.14-.24-.26v-6H13.35q-.15,0-.27-.39A4.84,4.84,0,0,1,13,14.67a5.42,5.42,0,0,1,.17-1.4q.16-.63.45-.63h7.57c.14,0,.24.13.29.4a6.53,6.53,0,0,1,.07,1.13,6.33,6.33,0,0,1-.15,1.4q-.15.66-.42.66H19.2v6C19.2,22.35,18.91,22.43,18.34,22.49Z"/><path d="M24.24,11.66a3.06,3.06,0,0,1,1.45.28,1,1,0,0,1,.52,1c0,.84-.65,1.26-2,1.26s-2-.42-2-1.26S22.94,11.66,24.24,11.66Zm1.9,3.69v6.9c0,.1-.26.18-.8.24a14.93,14.93,0,0,1-1.65.09,4.83,4.83,0,0,1-1.09-.07c-.17-.05-.25-.14-.25-.26V15.6c0-.21.26-.41.79-.61a4.84,4.84,0,0,1,1.73-.3C25.72,14.69,26.14,14.91,26.14,15.35Z"/><path d="M40,18v4.29c0,.1-.27.18-.79.24a14.62,14.62,0,0,1-1.64.09,5,5,0,0,1-1.1-.07c-.17-.05-.25-.14-.25-.26V18.37c0-1.33-.14-2-.41-2a.31.31,0,0,0-.19.08.38.38,0,0,0-.1.3v5.5c0,.1-.27.18-.79.24a14.67,14.67,0,0,1-1.65.09,5,5,0,0,1-1.1-.07c-.16-.05-.24-.14-.24-.26V18.37a4.8,4.8,0,0,0-.2-1.86.28.28,0,0,0-.25-.14c-.18,0-.27.12-.27.38v5.5c0,.1-.26.18-.79.24a14.8,14.8,0,0,1-1.65.09,4.89,4.89,0,0,1-1.09-.07c-.16-.05-.25-.14-.25-.26v-6.9c0-.2.27-.4.81-.59a4.83,4.83,0,0,1,1.7-.3c.6,0,.93.18,1,.52l.12.62h.1a2.34,2.34,0,0,1,1.35-1.14,3.46,3.46,0,0,1,1-.12,1.88,1.88,0,0,1,1.8,1.26,2,2,0,0,1,.91-.84,3.14,3.14,0,0,1,1.61-.42,2,2,0,0,1,1.87.86A5.92,5.92,0,0,1,40,18Z"/><path d="M44.61,19.42c0,.61.29.91.87.91A3.55,3.55,0,0,0,46.79,20c.55-.23.83-.35.86-.35s.41.27.7.8a2.87,2.87,0,0,1,.43,1.18c0,.36-.37.64-1.12.82a8.83,8.83,0,0,1-2.19.28,8.23,8.23,0,0,1-1.79-.16,5,5,0,0,1-1.18-.43,3.08,3.08,0,0,1-.79-.64A2.87,2.87,0,0,1,40.93,20a5.4,5.4,0,0,1-.14-1.28c0-1.69.44-2.87,1.33-3.51a4,4,0,0,1,1.47-.69,8.31,8.31,0,0,1,1.92-.19q3.54,0,3.54,2.46,0,2.63-4,2.62Zm0-2v.92a.85.85,0,0,0,.67-.32,1.25,1.25,0,0,0,.26-.79c0-.56-.15-.84-.44-.84S44.58,16.69,44.58,17.38Z"/><path d="M54.28,22.58a3.74,3.74,0,0,1-.93-.07c-.16-.05-.24-.14-.24-.26V13.54c0-.21.27-.41.81-.61a5.22,5.22,0,0,1,1.82-.3,1.43,1.43,0,0,1,1.18.38.49.49,0,0,1,.09.28v6.2c1.14-.08,2-.11,2.58-.11.2,0,.29.31.29.93a9.24,9.24,0,0,1-.12,1.6c-.09.45-.2.67-.34.67Z"/><path d="M64.34,19.42c0,.61.29.91.86.91A3.55,3.55,0,0,0,66.52,20l.85-.35c.18,0,.41.27.7.8a2.93,2.93,0,0,1,.44,1.18c0,.36-.38.64-1.12.82a8.89,8.89,0,0,1-2.19.28,8.33,8.33,0,0,1-1.8-.16,4.73,4.73,0,0,1-1.17-.43,3.31,3.31,0,0,1-.8-.64,3,3,0,0,1-.51-.72,4,4,0,0,1-.27-.76,6,6,0,0,1-.14-1.28c0-1.69.45-2.87,1.33-3.51a4,4,0,0,1,1.47-.69,8.31,8.31,0,0,1,1.92-.19q3.54,0,3.54,2.46,0,2.63-4,2.62Zm0-2v.92A.81.81,0,0,0,65,18a1.25,1.25,0,0,0,.26-.79c0-.56-.14-.84-.43-.84S64.31,16.69,64.31,17.38Z"/><path d="M74.14,18v4.29c0,.1-.26.18-.77.24a16.84,16.84,0,0,1-1.89.09c-.75,0-1.12-.11-1.12-.33V18h-.72c-.25,0-.38-.42-.38-1.27a2.42,2.42,0,0,1,.18-.94c.11-.3.27-.45.45-.45h.47a4.49,4.49,0,0,1,.27-1.63A2.61,2.61,0,0,1,72.22,12a4.84,4.84,0,0,1,1.85-.34c1.73,0,2.6.29,2.6.86A5.28,5.28,0,0,1,76.49,14c-.12.39-.29.59-.49.59a2.22,2.22,0,0,1-.47-.09,2.6,2.6,0,0,0-.65-.09c-.54,0-.81.18-.81.56a.72.72,0,0,0,.07.3H76c.25,0,.38.41.38,1.24a2.76,2.76,0,0,1-.17,1c-.1.3-.24.44-.42.44Z"/><path d="M82.94,22.46a1.82,1.82,0,0,1-1.15.24,7.61,7.61,0,0,1-1.48-.12,3.23,3.23,0,0,1-1.12-.47c-.68-.46-1-1.41-1-2.86V17.07h-.7c-.11,0-.19-.11-.27-.32a3,3,0,0,1-.11-.89,2.68,2.68,0,0,1,.17-1c.12-.29.27-.43.46-.43h.45V12.76c0-.29.28-.53.84-.7a5.48,5.48,0,0,1,1.66-.27c.85,0,1.28.21,1.28.63v2h1c.25,0,.37.35.37,1.05a3.57,3.57,0,0,1-.16,1.13c-.11.29-.25.44-.42.44H82v2.56a.55.55,0,0,0,.32.54,1.24,1.24,0,0,0,.57.16.28.28,0,0,1,.3.24,3.22,3.22,0,0,1,0,.71C83.19,21.91,83.11,22.3,82.94,22.46Z"/><path d="M87.24,16.72a1.4,1.4,0,0,1-.38,1.14,2.2,2.2,0,0,1-2.22,0,1.37,1.37,0,0,1-.38-1.14,1.3,1.3,0,0,1,.38-1.1,2,2,0,0,1,1.12-.27,1.88,1.88,0,0,1,1.1.27A1.3,1.3,0,0,1,87.24,16.72Zm0,4.55a1.39,1.39,0,0,1-.38,1.13,2.14,2.14,0,0,1-2.22,0,1.36,1.36,0,0,1-.38-1.13,1.3,1.3,0,0,1,.38-1.1,2,2,0,0,1,1.12-.27,1.88,1.88,0,0,1,1.1.27A1.3,1.3,0,0,1,87.24,21.27Z"/></g></svg>