<svg id="Layer_1" data-name="Layer 1" xmlns="http://www.w3.org/2000/svg" viewBox="0 0 285.36 73.73"><defs><style>.cls-1{fill:#ffdc4b;stroke:#e6c846;stroke-miterlimit:10;stroke-width:7px;}.cls-2{fill:#6697ab;}</style></defs><g id="Attack"><rect class="cls-1" x="5.42" y="6.24" width="274.51" height="60.88" rx="12"/><path class="cls-2" d="M61.19,45.18H55.72A5.13,5.13,0,0,1,54,45a.58.58,0,0,1-.42-.55V28.38c0-.8,2.4-1.2,7.22-1.2q4.16,0,5.73.8a3.93,3.93,0,0,1,2.05,2.1,5.77,5.77,0,0,1,.25,1.75,5.18,5.18,0,0,1-.67,2.93,2.26,2.26,0,0,1-1.43,1.1,3.49,3.49,0,0,1,2,1.15,4.74,4.74,0,0,1,.77,3.05A4.43,4.43,0,0,1,68,43.76a7.79,7.79,0,0,1-4,1.32C63.15,45.15,62.24,45.18,61.19,45.18Zm0-10.9c.85,0,1.27-.56,1.27-1.7a2,2,0,0,0-.34-1.26,1,1,0,0,0-.76-.41h-.8v3.37Zm-.63,7.18h.63c.85,0,1.27-.57,1.27-1.7a1.92,1.92,0,0,0-.34-1.26,1,1,0,0,0-.76-.42h-.8Z"/><path class="cls-2" d="M75.87,45.41a5.44,5.44,0,0,1-3.58-1.08A3.7,3.7,0,0,1,71.38,43,5,5,0,0,1,71,41a3.75,3.75,0,0,1,.56-2.05,4.2,4.2,0,0,1,1.37-1.35,7.46,7.46,0,0,1,1.87-.78,14.3,14.3,0,0,1,3.58-.42h.82a1.55,1.55,0,0,0-.7-1.45,1.8,1.8,0,0,0-.91-.18,4.3,4.3,0,0,0-1.48.33,10.33,10.33,0,0,0-1.43.66,2.09,2.09,0,0,1-.78.34c-.3,0-.71-.4-1.22-1.19a4,4,0,0,1-.78-2.16c0-.22.31-.5.93-.85a10.8,10.8,0,0,1,2.61-1,12.68,12.68,0,0,1,3.29-.44,13.07,13.07,0,0,1,2.76.26,8.56,8.56,0,0,1,1.9.64,3.81,3.81,0,0,1,1.25,1,6.87,6.87,0,0,1,.77,1.12,4.08,4.08,0,0,1,.39,1.3A12.24,12.24,0,0,1,86,37.06v7.52c0,.19-.45.33-1.34.44a21.65,21.65,0,0,1-2.65.16,11.86,11.86,0,0,1-1.7-.07.81.81,0,0,1-.46-.18.8.8,0,0,1-.13-.35l-.2-1.42h-.2Q78.66,45.41,75.87,45.41Zm3.35-4.15V38.33a1.24,1.24,0,0,0-1,.55,2.07,2.07,0,0,0-.4,1.25q0,1.65.75,1.65a.76.76,0,0,0,.51-.16A.5.5,0,0,0,79.22,41.26Z"/><path class="cls-2" d="M90.94,44.76a6.15,6.15,0,0,1-1.29-.83,4.69,4.69,0,0,1-1.13-1.3,9.24,9.24,0,0,1-1-4.7A8.51,8.51,0,0,1,88,34.72a6.13,6.13,0,0,1,1.4-2.19,7.18,7.18,0,0,1,1.9-1.27,8.19,8.19,0,0,1,3.45-.8,12.41,12.41,0,0,1,4,.45A1.57,1.57,0,0,1,100,32.43a7.49,7.49,0,0,1-.39,2.29c-.26.81-.6,1.21-1,1.21a5.5,5.5,0,0,1-1.22-.42,4.72,4.72,0,0,0-1.75-.43,1.27,1.27,0,0,0-1.12.59A4.53,4.53,0,0,0,94.09,38a5.22,5.22,0,0,0,.35,2.3,1.18,1.18,0,0,0,1.09.61,4.76,4.76,0,0,0,1.84-.5,8.18,8.18,0,0,1,1.22-.5c.32,0,.62.37.91,1.12a5.67,5.67,0,0,1,.44,2,1.92,1.92,0,0,1-1.4,1.89,10.8,10.8,0,0,1-3.79.54A9.36,9.36,0,0,1,90.94,44.76Z"/><path class="cls-2" d="M106.81,45a24.85,24.85,0,0,1-2.92.16,8.74,8.74,0,0,1-2-.13c-.3-.09-.46-.25-.46-.47V27.28c0-.36.48-.72,1.42-1.07a8.63,8.63,0,0,1,3-.53c1.53,0,2.29.39,2.29,1.15v9.35h.33q1.2-5.72,1.77-5.72a11.44,11.44,0,0,1,3.5.67c1.37.45,2.06.95,2.06,1.5a6.22,6.22,0,0,1-1,2.3,13.77,13.77,0,0,1-2.08,2.78c2.38,2.85,3.58,4.54,3.58,5.07s-.76,1.11-2.28,1.83a9.08,9.08,0,0,1-3.2,1.07c-.3,0-.62-.36-1-1.08a21.88,21.88,0,0,1-1.07-3.27l-.66.78v2.47C108.21,44.77,107.75,44.91,106.81,45Z"/><path class="cls-2" d="M132.81,45a3.28,3.28,0,0,1-2.05.42,13.92,13.92,0,0,1-2.65-.21,5.63,5.63,0,0,1-2-.84q-1.81-1.21-1.82-5.1v-3.9H123q-.27,0-.48-.57a5.06,5.06,0,0,1-.2-1.58,4.6,4.6,0,0,1,.32-1.76c.2-.51.48-.76.81-.76h.8v-3c0-.51.5-.93,1.51-1.25a10.09,10.09,0,0,1,3-.47c1.52,0,2.28.37,2.28,1.12v3.63h1.85c.43,0,.65.62.65,1.87a6,6,0,0,1-.29,2c-.19.52-.44.78-.74.78H131v4.58a1,1,0,0,0,.57,1,2.38,2.38,0,0,0,1,.29.49.49,0,0,1,.53.42,5.86,5.86,0,0,1,.1,1.28A3.15,3.15,0,0,1,132.81,45Z"/><path class="cls-2" d="M142.74,45.41a13.78,13.78,0,0,1-3.23-.33,6.57,6.57,0,0,1-2.45-1.15q-2.26-1.65-2.27-6.15,0-4,2.32-5.72a9.25,9.25,0,0,1,5.63-1.6,18.3,18.3,0,0,1,2.52.14,8.33,8.33,0,0,1,2.14.58,4.46,4.46,0,0,1,1.75,1.23,6,6,0,0,1,1.09,2.14,11,11,0,0,1,.42,3.23c0,2.54-.71,4.44-2.15,5.72A8.37,8.37,0,0,1,142.74,45.41Zm-.88-4.88a2.44,2.44,0,0,0,.37,1.08.68.68,0,0,0,.5.17.71.71,0,0,0,.5-.17,2.52,2.52,0,0,0,.35-1.08,14,14,0,0,0,.16-2.26q0-1.37-.06-2.1T143.53,35a1.91,1.91,0,0,0-.24-.62.65.65,0,0,0-.54-.33.73.73,0,0,0-.51.19,2.52,2.52,0,0,0-.38,1.1,15.38,15.38,0,0,0-.17,2.59A15,15,0,0,0,141.86,40.53Z"/><path class="cls-2" d="M163.38,45a22.21,22.21,0,0,1-3,.2,6.7,6.7,0,0,1-2-.17.59.59,0,0,1-.44-.55V29.08c0-.41.49-.79,1.45-1.13a9.21,9.21,0,0,1,3.15-.52c1.59,0,2.38.38,2.38,1.13v5.5h2.22v-5c0-.41.49-.79,1.47-1.13a9.27,9.27,0,0,1,3.16-.52c1.57,0,2.35.38,2.35,1.13v15.9c0,.22-.51.39-1.53.52a22.21,22.21,0,0,1-3.05.2,6.62,6.62,0,0,1-2-.17.59.59,0,0,1-.44-.55V38.73h-2.22v5.73C164.89,44.68,164.38,44.85,163.38,45Z"/><path class="cls-2" d="M183.66,45.41a13.69,13.69,0,0,1-3.22-.33A6.5,6.5,0,0,1,178,43.93q-2.28-1.65-2.28-6.15,0-4,2.33-5.72a9.22,9.22,0,0,1,5.62-1.6,18.36,18.36,0,0,1,2.53.14,8.44,8.44,0,0,1,2.14.58,4.61,4.61,0,0,1,1.75,1.23,6,6,0,0,1,1.08,2.14,10.66,10.66,0,0,1,.43,3.23,7.28,7.28,0,0,1-2.15,5.72A8.41,8.41,0,0,1,183.66,45.41Zm-.87-4.88a2.62,2.62,0,0,0,.36,1.08.69.69,0,0,0,.5.17.68.68,0,0,0,.5-.17,2.38,2.38,0,0,0,.35-1.08,12.9,12.9,0,0,0,.16-2.26q0-1.37-.06-2.1a8.91,8.91,0,0,0-.15-1.14,1.91,1.91,0,0,0-.24-.62.65.65,0,0,0-.53-.33.77.77,0,0,0-.52.19,2.56,2.56,0,0,0-.37,1.1,14.22,14.22,0,0,0-.18,2.59A13.9,13.9,0,0,0,182.79,40.53Z"/><path class="cls-2" d="M215.86,36.93v7.65c0,.19-.47.33-1.41.44a25.22,25.22,0,0,1-2.92.16,8.87,8.87,0,0,1-2-.13c-.3-.09-.45-.25-.45-.47V37.66c0-2.38-.24-3.58-.72-3.58a.54.54,0,0,0-.35.15.66.66,0,0,0-.18.53v9.82c0,.19-.47.33-1.41.44a25.32,25.32,0,0,1-2.94.16,8.69,8.69,0,0,1-2-.13c-.29-.09-.44-.25-.44-.47V37.66a8.59,8.59,0,0,0-.35-3.33.53.53,0,0,0-.45-.25c-.31,0-.47.23-.47.68v9.82c0,.19-.48.33-1.43.44a25.52,25.52,0,0,1-2.93.16,8.58,8.58,0,0,1-1.95-.13c-.3-.09-.44-.25-.44-.47V32.26q0-.52,1.44-1a8.74,8.74,0,0,1,3-.53q1.6,0,1.8.93l.23,1.1h.17a4.17,4.17,0,0,1,2.4-2,6,6,0,0,1,1.8-.22,3.33,3.33,0,0,1,3.2,2.25,3.71,3.71,0,0,1,1.63-1.5,5.64,5.64,0,0,1,2.87-.75c1.65,0,2.77.51,3.34,1.54A10.5,10.5,0,0,1,215.86,36.93Z"/><path class="cls-2" d="M224.19,39.53c0,1.09.52,1.63,1.55,1.63a6.39,6.39,0,0,0,2.35-.61c1-.41,1.47-.62,1.52-.62.32,0,.74.48,1.25,1.43a5.15,5.15,0,0,1,.78,2.1c0,.65-.67,1.14-2,1.47a15.83,15.83,0,0,1-3.91.5,14.31,14.31,0,0,1-3.2-.3,7.81,7.81,0,0,1-2.1-.76A5.7,5.7,0,0,1,219,43.23a5.77,5.77,0,0,1-.91-1.28,6.69,6.69,0,0,1-.48-1.37,10.6,10.6,0,0,1-.25-2.27c0-3,.79-5.13,2.38-6.28a7.15,7.15,0,0,1,2.62-1.22,15,15,0,0,1,3.43-.35q6.32,0,6.32,4.4c0,3.12-2.36,4.67-7.1,4.67Zm-.05-3.65v1.65a1.47,1.47,0,0,0,1.19-.57,2.2,2.2,0,0,0,.46-1.4q0-1.5-.78-1.5C224.43,34.06,224.14,34.67,224.14,35.88Z"/></g></svg>