<svg xmlns="http://www.w3.org/2000/svg" viewBox="0 0 162.03 64.39"><defs><style>.cls-1{fill:#fff;stroke:#fff;stroke-miterlimit:10;stroke-width:6px;}.cls-2{fill:#407d96;}</style></defs><g id="Timer"><path class="cls-1" d="M10.4,50.23a16.56,16.56,0,0,1-4.29-.35C5.39,49.65,5,49.25,5,48.7V8.89Q5,7.48,8.74,6.1a23.92,23.92,0,0,1,8.32-1.37c2.73,0,4.52.57,5.37,1.73a2.19,2.19,0,0,1,.45,1.28V36.09q7.8-.51,11.78-.51c.89,0,1.34,1.42,1.34,4.25a39.8,39.8,0,0,1-.58,7.33c-.38,2.05-.89,3.07-1.53,3.07Z"/><path class="cls-1" d="M56.35,35.77q0,4.15,4,4.16a16.3,16.3,0,0,0,6-1.57c2.48-1,3.78-1.57,3.91-1.57q1.22,0,3.2,3.65t2,5.38c0,1.66-1.7,2.92-5.12,3.77a40.84,40.84,0,0,1-10,1.28,36.25,36.25,0,0,1-8.19-.77,20.19,20.19,0,0,1-5.38-2,14.81,14.81,0,0,1-3.65-2.91,14.49,14.49,0,0,1-2.33-3.3,15.83,15.83,0,0,1-1.22-3.48,26,26,0,0,1-.64-5.83Q38.88,21,45,16.57a18.36,18.36,0,0,1,6.72-3.14,37.6,37.6,0,0,1,8.77-.89q16.18,0,16.19,11.26,0,12-18.18,12Zm-.13-9.35v4.23a3.73,3.73,0,0,0,3-1.47,5.55,5.55,0,0,0,1.19-3.59c0-2.56-.66-3.84-2-3.84Q56.22,21.75,56.22,26.42Z"/><path class="cls-1" d="M101.86,46V42.3h-.52a5.46,5.46,0,0,1-.89.8,14.26,14.26,0,0,1-3.17,1.31,18.32,18.32,0,0,1-5.7.83,13.21,13.21,0,0,1-5.34-1,9.2,9.2,0,0,1-3.39-2.4A10.46,10.46,0,0,1,80.93,38a38.2,38.2,0,0,1-1.09-10.24q0-7.43,3.14-11.39a9.31,9.31,0,0,1,3.61-2.72,12,12,0,0,1,5.15-1.12,14.58,14.58,0,0,1,4.55.6A7.7,7.7,0,0,1,99,14.58a6.71,6.71,0,0,1,2,3.14l.07.58h.51l.57-2.5q.64-2.69,10.12-2.69,4.21,0,5.12,1.28a4.07,4.07,0,0,1,.64,1.44,12.48,12.48,0,0,1,.12,2V44.66q0,7.56-4.92,11.52t-14.47,4q-10.11,0-13.76-2c-1.06-.6-1.6-1.22-1.6-1.86a19,19,0,0,1,1.25-5.18c.83-2.43,1.61-3.65,2.34-3.65a11.78,11.78,0,0,1,1.79.45,32.76,32.76,0,0,0,7.9,1.28c2,0,3.4-.26,4.1-.77A2.81,2.81,0,0,0,101.86,46Zm-2.57-8.07a1.48,1.48,0,0,0,1.16-.51,1.69,1.69,0,0,0,.45-1.15V23.1q-.27-1.35-1.41-1.35-2.43,0-2.43,8a23.73,23.73,0,0,0,.6,6C98.07,37.2,98.61,37.94,99.29,37.94Z"/><path class="cls-1" d="M140.06,50.81q-10.62,0-15.55-2.05c-1.66-.72-2.5-1.43-2.5-2.11a15.89,15.89,0,0,1,1.54-6.15c1-2.34,1.92-3.52,2.69-3.52a22.66,22.66,0,0,1,4.32,1.41,18,18,0,0,0,6.21,1.41,10.94,10.94,0,0,0,3.32-.32,1.22,1.22,0,0,0,.81-1.25c0-.62-.43-1.11-1.28-1.47a11.26,11.26,0,0,0-3.21-.74,26.44,26.44,0,0,1-4.12-.76,24.55,24.55,0,0,1-4.13-1.48,7.38,7.38,0,0,1-3.2-3,8.43,8.43,0,0,1-1.28-4.48,35.07,35.07,0,0,1,.13-3.59,12.38,12.38,0,0,1,1-3.32,8.83,8.83,0,0,1,2.63-3.49,16.14,16.14,0,0,1,5.25-2.43,26.93,26.93,0,0,1,8-1.09c3,0,5.41.09,7.39.29a30.51,30.51,0,0,1,4.68.73,12.86,12.86,0,0,1,2.78,1c1.24.64,1.86,1.34,1.86,2.11a12.4,12.4,0,0,1-1.79,5.76q-1.8,3.26-2.85,3.26a20.2,20.2,0,0,1-4.58-1.12A19.63,19.63,0,0,0,143,23.35c-1.8,0-2.69.51-2.69,1.54,0,.64.61,1.12,1.82,1.44s2.68.65,4.39,1a36.48,36.48,0,0,1,5.15,1.44,9.43,9.43,0,0,1,4.41,3.36,9.93,9.93,0,0,1,1.83,6.14Q157.92,50.82,140.06,50.81Z"/><path class="cls-2" d="M10.4,50.23a16.56,16.56,0,0,1-4.29-.35C5.39,49.65,5,49.25,5,48.7V8.89Q5,7.48,8.74,6.1a23.92,23.92,0,0,1,8.32-1.37c2.73,0,4.52.57,5.37,1.73a2.19,2.19,0,0,1,.45,1.28V36.09q7.8-.51,11.78-.51c.89,0,1.34,1.42,1.34,4.25a39.8,39.8,0,0,1-.58,7.33c-.38,2.05-.89,3.07-1.53,3.07Z"/><path class="cls-2" d="M56.35,35.77q0,4.15,4,4.16a16.3,16.3,0,0,0,6-1.57c2.48-1,3.78-1.57,3.91-1.57q1.22,0,3.2,3.65t2,5.38c0,1.66-1.7,2.92-5.12,3.77a40.84,40.84,0,0,1-10,1.28,36.25,36.25,0,0,1-8.19-.77,20.19,20.19,0,0,1-5.38-2,14.81,14.81,0,0,1-3.65-2.91,14.49,14.49,0,0,1-2.33-3.3,15.83,15.83,0,0,1-1.22-3.48,26,26,0,0,1-.64-5.83Q38.88,21,45,16.57a18.36,18.36,0,0,1,6.72-3.14,37.6,37.6,0,0,1,8.77-.89q16.18,0,16.19,11.26,0,12-18.18,12Zm-.13-9.35v4.23a3.73,3.73,0,0,0,3-1.47,5.55,5.55,0,0,0,1.19-3.59c0-2.56-.66-3.84-2-3.84Q56.22,21.75,56.22,26.42Z"/><path class="cls-2" d="M101.86,46V42.3h-.52a5.46,5.46,0,0,1-.89.8,14.26,14.26,0,0,1-3.17,1.31,18.32,18.32,0,0,1-5.7.83,13.21,13.21,0,0,1-5.34-1,9.2,9.2,0,0,1-3.39-2.4A10.46,10.46,0,0,1,80.93,38a38.2,38.2,0,0,1-1.09-10.24q0-7.43,3.14-11.39a9.31,9.31,0,0,1,3.61-2.72,12,12,0,0,1,5.15-1.12,14.58,14.58,0,0,1,4.55.6A7.7,7.7,0,0,1,99,14.58a6.71,6.71,0,0,1,2,3.14l.07.58h.51l.57-2.5q.64-2.69,10.12-2.69,4.21,0,5.12,1.28a4.07,4.07,0,0,1,.64,1.44,12.48,12.48,0,0,1,.12,2V44.66q0,7.56-4.92,11.52t-14.47,4q-10.11,0-13.76-2c-1.06-.6-1.6-1.22-1.6-1.86a19,19,0,0,1,1.25-5.18c.83-2.43,1.61-3.65,2.34-3.65a11.78,11.78,0,0,1,1.79.45,32.76,32.76,0,0,0,7.9,1.28c2,0,3.4-.26,4.1-.77A2.81,2.81,0,0,0,101.86,46Zm-2.57-8.07a1.48,1.48,0,0,0,1.16-.51,1.69,1.69,0,0,0,.45-1.15V23.1q-.27-1.35-1.41-1.35-2.43,0-2.43,8a23.73,23.73,0,0,0,.6,6C98.07,37.2,98.61,37.94,99.29,37.94Z"/><path class="cls-2" d="M140.06,50.81q-10.62,0-15.55-2.05c-1.66-.72-2.5-1.43-2.5-2.11a15.89,15.89,0,0,1,1.54-6.15c1-2.34,1.92-3.52,2.69-3.52a22.66,22.66,0,0,1,4.32,1.41,18,18,0,0,0,6.21,1.41,10.94,10.94,0,0,0,3.32-.32,1.22,1.22,0,0,0,.81-1.25c0-.62-.43-1.11-1.28-1.47a11.26,11.26,0,0,0-3.21-.74,26.44,26.44,0,0,1-4.12-.76,24.55,24.55,0,0,1-4.13-1.48,7.38,7.38,0,0,1-3.2-3,8.43,8.43,0,0,1-1.28-4.48,35.07,35.07,0,0,1,.13-3.59,12.38,12.38,0,0,1,1-3.32,8.83,8.83,0,0,1,2.63-3.49,16.14,16.14,0,0,1,5.25-2.43,26.93,26.93,0,0,1,8-1.09c3,0,5.41.09,7.39.29a30.51,30.51,0,0,1,4.68.73,12.86,12.86,0,0,1,2.78,1c1.24.64,1.86,1.34,1.86,2.11a12.4,12.4,0,0,1-1.79,5.76q-1.8,3.26-2.85,3.26a20.2,20.2,0,0,1-4.58-1.12A19.63,19.63,0,0,0,143,23.35c-1.8,0-2.69.51-2.69,1.54,0,.64.61,1.12,1.82,1.44s2.68.65,4.39,1a36.48,36.48,0,0,1,5.15,1.44,9.43,9.43,0,0,1,4.41,3.36,9.93,9.93,0,0,1,1.83,6.14Q157.92,50.82,140.06,50.81Z"/></g></svg>