<svg xmlns="http://www.w3.org/2000/svg" viewBox="0 0 177.7 60.8"><defs><style>.cls-1{fill:#fff;stroke:#fff;stroke-miterlimit:10;stroke-width:6px;}.cls-2{fill:#407d96;}</style></defs><g id="Timer"><path class="cls-1" d="M18.94,54.82a59.67,59.67,0,0,1-7.81.51,17.13,17.13,0,0,1-5.05-.45A1.5,1.5,0,0,1,5,53.47V14.11c0-1.06,1.23-2,3.71-2.91a24.12,24.12,0,0,1,8.06-1.31q6.07,0,6.08,2.88V26.85h5.7V14.11q0-1.59,3.74-2.91a24.48,24.48,0,0,1,8.1-1.31q6,0,6,2.88v40.7q0,.84-3.9,1.35a60.25,60.25,0,0,1-7.81.51,17,17,0,0,1-5-.45,1.5,1.5,0,0,1-1.12-1.41V38.82h-5.7V53.47Q22.81,54.31,18.94,54.82Z"/><path class="cls-1" d="M68,40.87Q68,45,72,45a16.59,16.59,0,0,0,6-1.57c2.47-1.05,3.78-1.57,3.9-1.57q1.22,0,3.2,3.65t2,5.37q0,2.51-5.12,3.78a41.41,41.41,0,0,1-10,1.28,37,37,0,0,1-8.19-.77,20.19,20.19,0,0,1-5.38-2,14.76,14.76,0,0,1-3.64-2.91A14.25,14.25,0,0,1,52.38,47a16.46,16.46,0,0,1-1.22-3.49,26.48,26.48,0,0,1-.64-5.82q0-11.65,6.08-16.06a18.34,18.34,0,0,1,6.72-3.14,37.62,37.62,0,0,1,8.77-.9q16.2,0,16.19,11.27,0,12-18.17,12Zm-.13-9.35v4.23a3.72,3.72,0,0,0,3-1.48,5.51,5.51,0,0,0,1.18-3.58q0-3.84-2-3.84C68.61,26.85,67.87,28.41,67.87,31.52Z"/><path class="cls-1" d="M104.28,55.91q-5.82,0-9.15-2.76a9.19,9.19,0,0,1-2.33-3.39,12.71,12.71,0,0,1-1-5.25,9.47,9.47,0,0,1,1.44-5.24,10.57,10.57,0,0,1,3.49-3.46,19.89,19.89,0,0,1,4.8-2,35.87,35.87,0,0,1,9.15-1.09h2.12A4,4,0,0,0,111,29a4.73,4.73,0,0,0-2.33-.45,11.13,11.13,0,0,0-3.78.83,23.43,23.43,0,0,0-3.68,1.7,5.39,5.39,0,0,1-2,.86q-1.16,0-3.14-3a10.4,10.4,0,0,1-2-5.54c0-.55.79-1.28,2.36-2.17a28.37,28.37,0,0,1,6.69-2.47,33.81,33.81,0,0,1,8.42-1.12,32.27,32.27,0,0,1,7.07.68,20.51,20.51,0,0,1,4.86,1.63,9.91,9.91,0,0,1,3.21,2.56,17.83,17.83,0,0,1,2,2.88,10.62,10.62,0,0,1,1,3.33,31.77,31.77,0,0,1,.45,5.82V53.79c0,.47-1.14.85-3.42,1.12a55.87,55.87,0,0,1-6.79.42,29.5,29.5,0,0,1-4.35-.19,2.26,2.26,0,0,1-1.19-.45,2.41,2.41,0,0,1-.31-.9l-.52-3.64h-.51Q111.45,55.91,104.28,55.91Zm8.58-10.63V37.79a3.17,3.17,0,0,0-2.69,1.41,5.33,5.33,0,0,0-1,3.2q0,4.23,1.92,4.23a1.93,1.93,0,0,0,1.31-.42A1.22,1.22,0,0,0,112.86,45.28Z"/><path class="cls-1" d="M146.65,55.91a13.52,13.52,0,0,1-4.42-.71,11.49,11.49,0,0,1-3.36-1.73,9,9,0,0,1-2.27-2.75,18.9,18.9,0,0,1-1.47-3.29,19.8,19.8,0,0,1-.77-3.88,71,71,0,0,1-.38-7.74q0-8.9,3.26-13.54a10.38,10.38,0,0,1,9-4.64q5.82,0,8.45,2.76a4.62,4.62,0,0,1,.9,1.53h.51l-.77-4.41v-8q0-1.41,3.58-2.76a22,22,0,0,1,7.75-1.34q4.35,0,5.57,1.66a2.3,2.3,0,0,1,.44,1.28V53.79c0,.47-1.18.85-3.55,1.12a58.37,58.37,0,0,1-6.85.42,23.79,23.79,0,0,1-4.22-.22,2.47,2.47,0,0,1-1.15-.48,1.5,1.5,0,0,1-.29-.84l-.51-3.64h-.51a7.46,7.46,0,0,1-2.31,3.77C151.79,55.24,149.59,55.91,146.65,55.91Zm7.17-9.35c.68,0,1.19-.42,1.53-1.28V28.19a1.09,1.09,0,0,0-.67-1,2.68,2.68,0,0,0-1.18-.35q-2.17,0-2.18,10a31.66,31.66,0,0,0,.61,7.52C152.34,45.83,153,46.56,153.82,46.56Z"/><path class="cls-2" d="M18.94,54.82a59.67,59.67,0,0,1-7.81.51,17.13,17.13,0,0,1-5.05-.45A1.5,1.5,0,0,1,5,53.47V14.11c0-1.06,1.23-2,3.71-2.91a24.12,24.12,0,0,1,8.06-1.31q6.07,0,6.08,2.88V26.85h5.7V14.11q0-1.59,3.74-2.91a24.48,24.48,0,0,1,8.1-1.31q6,0,6,2.88v40.7q0,.84-3.9,1.35a60.25,60.25,0,0,1-7.81.51,17,17,0,0,1-5-.45,1.5,1.5,0,0,1-1.12-1.41V38.82h-5.7V53.47Q22.81,54.31,18.94,54.82Z"/><path class="cls-2" d="M68,40.87Q68,45,72,45a16.59,16.59,0,0,0,6-1.57c2.47-1.05,3.78-1.57,3.9-1.57q1.22,0,3.2,3.65t2,5.37q0,2.51-5.12,3.78a41.41,41.41,0,0,1-10,1.28,37,37,0,0,1-8.19-.77,20.19,20.19,0,0,1-5.38-2,14.76,14.76,0,0,1-3.64-2.91A14.25,14.25,0,0,1,52.38,47a16.46,16.46,0,0,1-1.22-3.49,26.48,26.48,0,0,1-.64-5.82q0-11.65,6.08-16.06a18.34,18.34,0,0,1,6.72-3.14,37.62,37.62,0,0,1,8.77-.9q16.2,0,16.19,11.27,0,12-18.17,12Zm-.13-9.35v4.23a3.72,3.72,0,0,0,3-1.48,5.51,5.51,0,0,0,1.18-3.58q0-3.84-2-3.84C68.61,26.85,67.87,28.41,67.87,31.52Z"/><path class="cls-2" d="M104.28,55.91q-5.82,0-9.15-2.76a9.19,9.19,0,0,1-2.33-3.39,12.71,12.71,0,0,1-1-5.25,9.47,9.47,0,0,1,1.44-5.24,10.57,10.57,0,0,1,3.49-3.46,19.89,19.89,0,0,1,4.8-2,35.87,35.87,0,0,1,9.15-1.09h2.12A4,4,0,0,0,111,29a4.73,4.73,0,0,0-2.33-.45,11.13,11.13,0,0,0-3.78.83,23.43,23.43,0,0,0-3.68,1.7,5.39,5.39,0,0,1-2,.86q-1.16,0-3.14-3a10.4,10.4,0,0,1-2-5.54c0-.55.79-1.28,2.36-2.17a28.37,28.37,0,0,1,6.69-2.47,33.81,33.81,0,0,1,8.42-1.12,32.27,32.27,0,0,1,7.07.68,20.51,20.51,0,0,1,4.86,1.63,9.91,9.91,0,0,1,3.21,2.56,17.83,17.83,0,0,1,2,2.88,10.62,10.62,0,0,1,1,3.33,31.77,31.77,0,0,1,.45,5.82V53.79c0,.47-1.14.85-3.42,1.12a55.87,55.87,0,0,1-6.79.42,29.5,29.5,0,0,1-4.35-.19,2.26,2.26,0,0,1-1.19-.45,2.41,2.41,0,0,1-.31-.9l-.52-3.64h-.51Q111.45,55.91,104.28,55.91Zm8.58-10.63V37.79a3.17,3.17,0,0,0-2.69,1.41,5.33,5.33,0,0,0-1,3.2q0,4.23,1.92,4.23a1.93,1.93,0,0,0,1.31-.42A1.22,1.22,0,0,0,112.86,45.28Z"/><path class="cls-2" d="M146.65,55.91a13.52,13.52,0,0,1-4.42-.71,11.49,11.49,0,0,1-3.36-1.73,9,9,0,0,1-2.27-2.75,18.9,18.9,0,0,1-1.47-3.29,19.8,19.8,0,0,1-.77-3.88,71,71,0,0,1-.38-7.74q0-8.9,3.26-13.54a10.38,10.38,0,0,1,9-4.64q5.82,0,8.45,2.76a4.62,4.62,0,0,1,.9,1.53h.51l-.77-4.41v-8q0-1.41,3.58-2.76a22,22,0,0,1,7.75-1.34q4.35,0,5.57,1.66a2.3,2.3,0,0,1,.44,1.28V53.79c0,.47-1.18.85-3.55,1.12a58.37,58.37,0,0,1-6.85.42,23.79,23.79,0,0,1-4.22-.22,2.47,2.47,0,0,1-1.15-.48,1.5,1.5,0,0,1-.29-.84l-.51-3.64h-.51a7.46,7.46,0,0,1-2.31,3.77C151.79,55.24,149.59,55.91,146.65,55.91Zm7.17-9.35c.68,0,1.19-.42,1.53-1.28V28.19a1.09,1.09,0,0,0-.67-1,2.68,2.68,0,0,0-1.18-.35q-2.17,0-2.18,10a31.66,31.66,0,0,0,.61,7.52C152.34,45.83,153,46.56,153.82,46.56Z"/></g></svg>