<svg xmlns="http://www.w3.org/2000/svg" viewBox="0 0 179.09 69.78"><defs><style>.cls-1{fill:#fff;stroke:#fff;stroke-miterlimit:10;stroke-width:6px;}.cls-2{fill:#407d96;}</style></defs><g id="Timer"><path class="cls-1" d="M24.4,54.69h-14a13.18,13.18,0,0,1-4.29-.45A1.47,1.47,0,0,1,5,52.84V11.68q0-3.06,18.5-3.07,10.62,0,14.65,2.05T43.41,16a14.07,14.07,0,0,1,.64,4.48c0,3.32-.57,5.82-1.7,7.48a5.76,5.76,0,0,1-3.68,2.82,8.92,8.92,0,0,1,5,2.94q2,2.31,2,7.81,0,6.41-3.9,9.47-3.41,2.7-10.37,3.4Q28.44,54.7,24.4,54.69Zm.07-27.9q3.26,0,3.26-4.35a5.12,5.12,0,0,0-.86-3.24,2.52,2.52,0,0,0-2-1.05h-2v8.64Zm-1.6,18.37h1.6q3.26,0,3.26-4.36a5.09,5.09,0,0,0-.86-3.23,2.52,2.52,0,0,0-2-1h-2Z"/><path class="cls-1" d="M69.52,55.27a35.87,35.87,0,0,1-8.25-.83A17,17,0,0,1,55,51.49q-5.82-4.22-5.82-15.74,0-10.24,5.95-14.66Q60.69,17,69.52,17a50,50,0,0,1,6.47.35,21.43,21.43,0,0,1,5.47,1.5A11.7,11.7,0,0,1,85.94,22a15.37,15.37,0,0,1,2.78,5.47,27.86,27.86,0,0,1,1.09,8.29q0,9.72-5.5,14.62T69.52,55.27ZM67.28,42.79a6.28,6.28,0,0,0,.93,2.75,2,2,0,0,0,2.56,0,6.13,6.13,0,0,0,.9-2.75A34.35,34.35,0,0,0,72.08,37c0-2.33,0-4.12-.16-5.38a24.51,24.51,0,0,0-.38-2.91,4.65,4.65,0,0,0-.61-1.6,1.64,1.64,0,0,0-1.38-.83,1.84,1.84,0,0,0-1.31.48,6.22,6.22,0,0,0-1,2.81,37.29,37.29,0,0,0-.45,6.63A36.71,36.71,0,0,0,67.28,42.79Z"/><path class="cls-1" d="M105.68,55.27a13.41,13.41,0,0,1-4.41-.71,11.47,11.47,0,0,1-3.36-1.72,8.89,8.89,0,0,1-2.28-2.76,18.9,18.9,0,0,1-1.47-3.29,19.84,19.84,0,0,1-.77-3.87A71.33,71.33,0,0,1,93,35.17q0-8.9,3.26-13.53a10.37,10.37,0,0,1,9-4.64c3.89,0,6.7.91,8.45,2.75a4.65,4.65,0,0,1,.9,1.53h.51l-.77-4.41v-8q0-1.41,3.59-2.75a21.75,21.75,0,0,1,7.74-1.35q4.35,0,5.57,1.67a2.19,2.19,0,0,1,.45,1.28V53.16c0,.47-1.19.84-3.56,1.12a60.37,60.37,0,0,1-6.84.41,23.85,23.85,0,0,1-4.23-.22,2.47,2.47,0,0,1-1.15-.48,1.49,1.49,0,0,1-.29-.83l-.51-3.65h-.51a7.39,7.39,0,0,1-2.31,3.77C110.82,54.61,108.63,55.27,105.68,55.27Zm7.17-9.35c.68,0,1.19-.42,1.54-1.28V27.56a1.1,1.1,0,0,0-.68-1,2.64,2.64,0,0,0-1.18-.35q-2.18,0-2.18,10a32.33,32.33,0,0,0,.61,7.52C111.37,45.19,112,45.92,112.85,45.92Z"/><path class="cls-1" d="M157.71,50.53V46.76h-.51a11.54,11.54,0,0,1-1,.83,12.3,12.3,0,0,1-3,1.34,15.73,15.73,0,0,1-5.28.83,13.33,13.33,0,0,1-5.12-.92,8.73,8.73,0,0,1-3.48-2.5,11.05,11.05,0,0,1-2-4.19,44.17,44.17,0,0,1-1.22-11.78V21.54c0-.9,1.26-1.78,3.78-2.66a24.13,24.13,0,0,1,7.94-1.31q5.56,0,5.56,2.88v8.07q0,12.79,2.05,12.8c.81,0,1.22-.58,1.22-1.73V21.54c0-.9,1.34-1.78,4-2.66a27.92,27.92,0,0,1,8.64-1.31q4.6,0,4.61,2.5V50.34q0,14.27-19.33,14.27-10.17,0-13.82-2c-1.07-.6-1.6-1.22-1.6-1.86a18,18,0,0,1,1.28-5.15c.85-2.41,1.64-3.62,2.36-3.62a13.63,13.63,0,0,1,1.8.39,31.49,31.49,0,0,0,7.9,1.28c2.11,0,3.5-.24,4.16-.71A2.78,2.78,0,0,0,157.71,50.53Z"/><path class="cls-2" d="M24.4,54.69h-14a13.18,13.18,0,0,1-4.29-.45A1.47,1.47,0,0,1,5,52.84V11.68q0-3.06,18.5-3.07,10.62,0,14.65,2.05T43.41,16a14.07,14.07,0,0,1,.64,4.48c0,3.32-.57,5.82-1.7,7.48a5.76,5.76,0,0,1-3.68,2.82,8.92,8.92,0,0,1,5,2.94q2,2.31,2,7.81,0,6.41-3.9,9.47-3.41,2.7-10.37,3.4Q28.44,54.7,24.4,54.69Zm.07-27.9q3.26,0,3.26-4.35a5.12,5.12,0,0,0-.86-3.24,2.52,2.52,0,0,0-2-1.05h-2v8.64Zm-1.6,18.37h1.6q3.26,0,3.26-4.36a5.09,5.09,0,0,0-.86-3.23,2.52,2.52,0,0,0-2-1h-2Z"/><path class="cls-2" d="M69.52,55.27a35.87,35.87,0,0,1-8.25-.83A17,17,0,0,1,55,51.49q-5.82-4.22-5.82-15.74,0-10.24,5.95-14.66Q60.69,17,69.52,17a50,50,0,0,1,6.47.35,21.43,21.43,0,0,1,5.47,1.5A11.7,11.7,0,0,1,85.94,22a15.37,15.37,0,0,1,2.78,5.47,27.86,27.86,0,0,1,1.09,8.29q0,9.72-5.5,14.62T69.52,55.27ZM67.28,42.79a6.28,6.28,0,0,0,.93,2.75,2,2,0,0,0,2.56,0,6.13,6.13,0,0,0,.9-2.75A34.35,34.35,0,0,0,72.08,37c0-2.33,0-4.12-.16-5.38a24.51,24.51,0,0,0-.38-2.91,4.65,4.65,0,0,0-.61-1.6,1.64,1.64,0,0,0-1.38-.83,1.84,1.84,0,0,0-1.31.48,6.22,6.22,0,0,0-1,2.81,37.29,37.29,0,0,0-.45,6.63A36.71,36.71,0,0,0,67.28,42.79Z"/><path class="cls-2" d="M105.68,55.27a13.41,13.41,0,0,1-4.41-.71,11.47,11.47,0,0,1-3.36-1.72,8.89,8.89,0,0,1-2.28-2.76,18.9,18.9,0,0,1-1.47-3.29,19.84,19.84,0,0,1-.77-3.87A71.33,71.33,0,0,1,93,35.17q0-8.9,3.26-13.53a10.37,10.37,0,0,1,9-4.64c3.89,0,6.7.91,8.45,2.75a4.65,4.65,0,0,1,.9,1.53h.51l-.77-4.41v-8q0-1.41,3.59-2.75a21.75,21.75,0,0,1,7.74-1.35q4.35,0,5.57,1.67a2.19,2.19,0,0,1,.45,1.28V53.16c0,.47-1.19.84-3.56,1.12a60.37,60.37,0,0,1-6.84.41,23.85,23.85,0,0,1-4.23-.22,2.47,2.47,0,0,1-1.15-.48,1.49,1.49,0,0,1-.29-.83l-.51-3.65h-.51a7.39,7.39,0,0,1-2.31,3.77C110.82,54.61,108.63,55.27,105.68,55.27Zm7.17-9.35c.68,0,1.19-.42,1.54-1.28V27.56a1.1,1.1,0,0,0-.68-1,2.64,2.64,0,0,0-1.18-.35q-2.18,0-2.18,10a32.33,32.33,0,0,0,.61,7.52C111.37,45.19,112,45.92,112.85,45.92Z"/><path class="cls-2" d="M157.71,50.53V46.76h-.51a11.54,11.54,0,0,1-1,.83,12.3,12.3,0,0,1-3,1.34,15.73,15.73,0,0,1-5.28.83,13.33,13.33,0,0,1-5.12-.92,8.73,8.73,0,0,1-3.48-2.5,11.05,11.05,0,0,1-2-4.19,44.17,44.17,0,0,1-1.22-11.78V21.54c0-.9,1.26-1.78,3.78-2.66a24.13,24.13,0,0,1,7.94-1.31q5.56,0,5.56,2.88v8.07q0,12.79,2.05,12.8c.81,0,1.22-.58,1.22-1.73V21.54c0-.9,1.34-1.78,4-2.66a27.92,27.92,0,0,1,8.64-1.31q4.6,0,4.61,2.5V50.34q0,14.27-19.33,14.27-10.17,0-13.82-2c-1.07-.6-1.6-1.22-1.6-1.86a18,18,0,0,1,1.28-5.15c.85-2.41,1.64-3.62,2.36-3.62a13.63,13.63,0,0,1,1.8.39,31.49,31.49,0,0,0,7.9,1.28c2.11,0,3.5-.24,4.16-.71A2.78,2.78,0,0,0,157.71,50.53Z"/></g></svg>