<?xml version="1.0" encoding="utf-8"?>
<!-- Generator: Adobe Illustrator 25.4.1, SVG Export Plug-In . SVG Version: 6.00 Build 0)  -->
<svg version="1.1" id="Layer_1" xmlns="http://www.w3.org/2000/svg" xmlns:xlink="http://www.w3.org/1999/xlink" x="0px" y="0px"
	 viewBox="0 0 100.5 103.5" style="enable-background:new 0 0 100.5 103.5;" xml:space="preserve">
<style type="text/css">
	.st0{fill:#807650;}
	.st1{fill:#DFEBF1;}
	.st2{fill:#FFDC4B;}
	.st3{fill:#407D96;}
	.st4{fill:#407D96;stroke:#407D96;stroke-width:7;stroke-miterlimit:10;}
	.st5{fill:#FFFFFF;}
</style>
<g id="Timer">
	<path class="st0" d="M7.6,2.9h85.3c4.2,0,7.6,3.4,7.6,7.6v85.3c0,4.2-3.4,7.6-7.6,7.6H7.6c-4.2,0-7.6-3.4-7.6-7.6V10.5
		C0,6.3,3.4,2.9,7.6,2.9z"/>
	<path class="st1" d="M7.6,0h85.3c4.2,0,7.6,3.4,7.6,7.6v85.3c0,4.2-3.4,7.6-7.6,7.6H7.6c-4.2,0-7.6-3.4-7.6-7.6V7.6
		C0,3.4,3.4,0,7.6,0z"/>
	<path class="st2" d="M8.1-11.9h84.3c4.5,0,8.1,3.6,8.1,8.1v97.7c0,4.5-3.6,8.1-8.1,8.1H8.1C3.6,102,0,98.4,0,93.9V-3.8
		C0-8.2,3.6-11.9,8.1-11.9z"/>
	<path class="st3" d="M37.3,22.5c-0.6,0.1-1.1,0.1-1.7,0.1c-0.4,0-0.7,0-1.1-0.1c-0.1,0-0.2-0.2-0.2-0.3v-8.6c0-0.2,0.3-0.4,0.8-0.6
		c0.6-0.2,1.2-0.3,1.8-0.3c0.9,0,1.3,0.2,1.3,0.6v3.1h1.2v-2.8c0-0.2,0.3-0.4,0.8-0.6c0.6-0.2,1.2-0.3,1.8-0.3
		c0.9,0,1.3,0.2,1.3,0.6v8.9c0,0.1-0.3,0.2-0.8,0.3c-0.6,0.1-1.1,0.1-1.7,0.1c-0.4,0-0.7,0-1.1-0.1c-0.1,0-0.2-0.2-0.2-0.3V19h-1.3
		v3.2C38.1,22.3,37.8,22.4,37.3,22.5z"/>
	<path class="st3" d="M48,19.4c0,0.6,0.3,0.9,0.9,0.9c0.5,0,0.9-0.1,1.3-0.3l0.8-0.4c0.2,0,0.4,0.3,0.7,0.8c0.2,0.4,0.4,0.8,0.4,1.2
		c0,0.4-0.4,0.6-1.1,0.8c-0.7,0.2-1.5,0.3-2.2,0.3c-0.6,0-1.2,0-1.8-0.2c-0.4-0.1-0.8-0.2-1.2-0.4c-0.3-0.2-0.6-0.4-0.8-0.6
		c-0.2-0.2-0.4-0.5-0.5-0.7c-0.1-0.2-0.2-0.5-0.3-0.8c-0.1-0.4-0.1-0.8-0.1-1.3c0-1.7,0.5-2.9,1.3-3.5c0.4-0.3,1-0.6,1.5-0.7
		c0.6-0.1,1.3-0.2,1.9-0.2c2.4,0,3.5,0.8,3.5,2.5c0,1.8-1.3,2.6-4,2.6L48,19.4z M48,17.4v0.9c0.3,0,0.5-0.1,0.7-0.3
		c0.2-0.2,0.3-0.5,0.3-0.8c0-0.6-0.1-0.8-0.4-0.8S48,16.7,48,17.4L48,17.4z"/>
	<path class="st3" d="M57.1,12.3v9.9c0,0.1-0.3,0.2-0.8,0.2c-0.5,0.1-1.1,0.1-1.7,0.1c-0.4,0-0.7,0-1.1-0.1c-0.2,0-0.2-0.1-0.2-0.3
		v-9.7c0-0.2,0.3-0.4,0.8-0.6c0.5-0.2,1.1-0.3,1.7-0.3C56.6,11.7,57.1,11.9,57.1,12.3z"/>
	<path class="st3" d="M58,24.3v-8.9c0-0.2,0.3-0.4,0.8-0.6c0.5-0.2,1.1-0.3,1.7-0.3c0.2,0,0.4,0,0.7,0.1c0.2,0.1,0.3,0.1,0.3,0.2
		c0.1,0.3,0.2,0.6,0.2,0.8h0.1c0-0.1,0.1-0.3,0.2-0.4c0.1-0.2,0.3-0.3,0.5-0.4c0.2-0.1,0.4-0.2,0.7-0.3c0.3-0.1,0.7-0.1,1-0.1
		c0.4,0,0.7,0.1,1.1,0.3c0.3,0.1,0.5,0.3,0.7,0.6c0.2,0.3,0.3,0.6,0.4,0.9c0.1,0.3,0.1,0.6,0.2,0.8c0,0.2,0,0.5,0,0.9s0,0.8,0,1.2
		c0,0.4-0.1,0.8-0.2,1.2c-0.1,0.3-0.2,0.7-0.3,1c-0.1,0.3-0.3,0.6-0.5,0.8c-0.5,0.5-1.2,0.7-1.9,0.7c-0.3,0-0.5,0-0.8-0.1
		c-0.2-0.1-0.4-0.2-0.5-0.3c-0.2-0.2-0.3-0.4-0.4-0.7v-0.1h-0.1l0.2,1.3v1.6c0,0.1-0.3,0.2-0.8,0.2c-0.5,0.1-1.1,0.1-1.7,0.1
		c-0.4,0-0.8,0-1.1-0.1C58.1,24.5,58,24.4,58,24.3z M62.5,16.8c-0.1-0.3-0.2-0.5-0.4-0.5c-0.2,0-0.3,0.1-0.4,0.3v3.7
		c0,0.2,0.1,0.4,0.4,0.4s0.5-0.7,0.5-2.2C62.7,17.9,62.7,17.4,62.5,16.8L62.5,16.8z"/>
</g>
<path class="st4" d="M38.7,56.5c-1.2,0-2.2-1.4-3.1-4.2c-0.8-2.6-1.3-5.4-1.3-8.2c0-0.6,0.7-1.3,2-2c1.9-1,3.9-1.6,6-2
	c2.9-0.6,5.8-0.9,8.7-0.9c12.3,0,18.4,4.3,18.4,12.8c0.1,2.2-0.5,4.4-1.5,6.3c-0.8,1.6-2.1,2.9-3.6,3.9c-2.4,1.4-5.1,2.3-7.9,2.4
	l-1.5,0.1c0,0.8,0.1,1.5,0.3,2.2c0.2,0.9,0.3,1.8,0.3,2.7c0,0.7-1.2,1.2-3.5,1.6c-2,0.3-4,0.5-6,0.5c-2.6,0-4.2-0.6-4.8-1.9
	s-0.9-4-0.9-8.1c0-1,1.8-1.7,5.5-2.2c1.3-0.2,2.6-0.7,3.7-1.3c1.1-0.5,1.7-1.6,1.7-2.8c0-1.2-1-1.8-2.9-1.8c-2.1,0-4.2,0.5-6.1,1.4
	C41.1,55.6,39.9,56.1,38.7,56.5z M48.7,73.9c2.3-0.1,4.6,0.2,6.7,1.1c1.5,0.8,2.3,2.3,2.3,4.6c0,3.8-3,5.8-9,5.8c-6,0-9-1.9-9-5.8
	C39.7,75.8,42.7,73.9,48.7,73.9L48.7,73.9z"/>
<path class="st5" d="M38.7,56.5c-1.2,0-2.2-1.4-3.1-4.2c-0.8-2.6-1.3-5.4-1.3-8.2c0-0.6,0.7-1.3,2-2c1.9-1,3.9-1.6,6-2
	c2.9-0.6,5.8-0.9,8.8-0.9c12.2,0,18.4,4.3,18.4,12.8c0.1,2.2-0.5,4.4-1.5,6.3c-0.8,1.6-2.1,2.9-3.6,3.9c-2.4,1.4-5.1,2.3-7.9,2.4
	l-1.5,0.1c0,0.8,0.1,1.5,0.3,2.2c0.2,0.9,0.3,1.8,0.3,2.7c0,0.7-1.2,1.2-3.5,1.6c-2,0.3-4,0.5-6,0.5c-2.6,0-4.2-0.6-4.8-1.9
	c-0.6-1.3-0.9-4-0.9-8.1c0-1,1.8-1.7,5.5-2.2c1.3-0.2,2.6-0.7,3.8-1.3c1-0.5,1.7-1.6,1.7-2.8c0-1.2-1-1.8-2.9-1.8
	c-2.1,0-4.2,0.5-6,1.4C41.1,55.6,39.9,56.1,38.7,56.5z M48.7,73.9c2.3-0.1,4.5,0.2,6.6,1.1c1.5,0.8,2.3,2.3,2.3,4.6
	c0,3.8-3,5.8-9,5.8s-9-1.9-9-5.8C39.7,75.8,42.7,73.9,48.7,73.9z"/>
</svg>
