<svg xmlns="http://www.w3.org/2000/svg" viewBox="0 0 140.47 140.47"><defs><style>.cls-1{fill:#fff;}.cls-2{fill:#407d96;}</style></defs><g id="Layer_1" data-name="Layer 1"><rect class="cls-1" x="-6.14" y="-5.47" width="151.68" height="151.68"/></g><g id="Timer"><path class="cls-2" d="M35,81.84h-7.5a7.08,7.08,0,0,1-2.29-.24.79.79,0,0,1-.58-.75v-22c0-1.1,3.3-1.64,9.89-1.64,3.78,0,6.4.36,7.83,1.09a5.35,5.35,0,0,1,2.81,2.87,7.6,7.6,0,0,1,.34,2.4,7.11,7.11,0,0,1-.91,4,3.13,3.13,0,0,1-2,1.51,4.76,4.76,0,0,1,2.67,1.57,6.48,6.48,0,0,1,1.06,4.18,6,6,0,0,1-2.09,5.06,10.62,10.62,0,0,1-5.54,1.81C37.67,81.8,36.42,81.84,35,81.84Zm0-14.92c1.16,0,1.75-.77,1.75-2.32a2.67,2.67,0,0,0-.47-1.73,1.31,1.31,0,0,0-1-.57H34.17v4.62Zm-.85,9.82H35c1.16,0,1.75-.77,1.75-2.32a2.67,2.67,0,0,0-.47-1.73,1.31,1.31,0,0,0-1-.57H34.17Z"/><path class="cls-2" d="M59.11,82.15a18.82,18.82,0,0,1-4.41-.45,9,9,0,0,1-3.36-1.57c-2.07-1.51-3.11-4.31-3.11-8.42q0-5.47,3.18-7.83a12.66,12.66,0,0,1,7.7-2.19,26.16,26.16,0,0,1,3.45.19,11.35,11.35,0,0,1,2.93.8,6.25,6.25,0,0,1,2.4,1.68,8.13,8.13,0,0,1,1.48,2.92A14.9,14.9,0,0,1,70,71.71c0,3.47-1,6.08-2.95,7.82A11.42,11.42,0,0,1,59.11,82.15Zm-1.2-6.67a3.34,3.34,0,0,0,.5,1.47,1.1,1.1,0,0,0,1.37,0,3.29,3.29,0,0,0,.48-1.47,18.85,18.85,0,0,0,.22-3.1c0-1.24,0-2.2-.09-2.87a13.33,13.33,0,0,0-.2-1.56,2.49,2.49,0,0,0-.33-.86.89.89,0,0,0-.73-.44,1,1,0,0,0-.71.26,3.36,3.36,0,0,0-.51,1.5A19.89,19.89,0,0,0,57.67,72,19.68,19.68,0,0,0,57.91,75.48Z"/><path class="cls-2" d="M78.44,82.15a7.25,7.25,0,0,1-2.36-.38,6.31,6.31,0,0,1-1.8-.92,5,5,0,0,1-1.21-1.47,8.94,8.94,0,0,1-1.2-3.83,36.55,36.55,0,0,1-.2-4.14q0-4.77,1.74-7.24a5.53,5.53,0,0,1,4.79-2.48c2.08,0,3.58.49,4.52,1.47a2.65,2.65,0,0,1,.48.82h.27l-.41-2.36V57.34q0-.75,1.92-1.47a11.62,11.62,0,0,1,4.14-.72c1.55,0,2.54.3,3,.89a1.2,1.2,0,0,1,.24.69V81c0,.25-.63.45-1.9.6a30.94,30.94,0,0,1-3.66.22,12.78,12.78,0,0,1-2.26-.12,1.2,1.2,0,0,1-.61-.26.83.83,0,0,1-.16-.44l-.27-2H83.2a4,4,0,0,1-1.23,2A5.09,5.09,0,0,1,78.44,82.15Zm3.83-5c.37,0,.64-.22.82-.68V67.33a.6.6,0,0,0-.35-.53,1.49,1.49,0,0,0-.64-.18c-.77,0-1.16,1.77-1.16,5.33a17.48,17.48,0,0,0,.32,4C81.48,76.76,81.82,77.15,82.27,77.15Z"/><path class="cls-2" d="M106.26,79.62v-2H106a5.82,5.82,0,0,1-.51.44,6,6,0,0,1-1.61.72,8.34,8.34,0,0,1-2.82.45,7,7,0,0,1-2.74-.5,4.66,4.66,0,0,1-1.86-1.33,5.89,5.89,0,0,1-1.06-2.25,23.28,23.28,0,0,1-.65-6.29V64.12c0-.48.67-1,2-1.42A12.74,12.74,0,0,1,101,62c2,0,3,.51,3,1.54v4.31q0,6.84,1.09,6.84c.43,0,.65-.31.65-.92V64.12c0-.48.72-1,2.16-1.42a14.71,14.71,0,0,1,4.62-.7c1.64,0,2.46.44,2.46,1.33V79.51q0,7.63-10.33,7.63c-3.63,0-6.09-.35-7.4-1.06-.57-.32-.85-.65-.85-1a9.88,9.88,0,0,1,.68-2.75c.46-1.29.88-1.94,1.27-1.94a7.26,7.26,0,0,1,1,.21,16.55,16.55,0,0,0,4.22.68,4.39,4.39,0,0,0,2.23-.37A1.5,1.5,0,0,0,106.26,79.62Z"/></g></svg>