<svg xmlns="http://www.w3.org/2000/svg" viewBox="0 0 140.47 140.47"><defs><style>.cls-1{fill:#fff;}.cls-2{fill:#407d96;}</style></defs><g id="Layer_1" data-name="Layer 1"><rect class="cls-1" x="-6.14" y="-5.47" width="151.68" height="151.68"/></g><g id="Timer"><path class="cls-2" d="M32.49,81a9.17,9.17,0,0,1-2.29-.19c-.39-.13-.58-.34-.58-.64V58.92c0-.5.66-1,2-1.49a12.78,12.78,0,0,1,4.45-.73c1.46,0,2.42.31,2.88.92a1.2,1.2,0,0,1,.24.69V73.46q4.17-.27,6.29-.27c.48,0,.72.76.72,2.27a21.1,21.1,0,0,1-.31,3.92c-.2,1.1-.48,1.65-.82,1.65Z"/><path class="cls-2" d="M57.06,73.29c0,1.49.71,2.23,2.12,2.23a8.79,8.79,0,0,0,3.22-.84c1.32-.56,2-.84,2.09-.84q.65,0,1.71,2a7.2,7.2,0,0,1,1.06,2.87c0,.89-.92,1.57-2.74,2a21.9,21.9,0,0,1-5.36.69A19.83,19.83,0,0,1,54.79,81a10.71,10.71,0,0,1-2.88-1,8.22,8.22,0,0,1-3.2-3.32,9,9,0,0,1-.65-1.86,13.88,13.88,0,0,1-.34-3.12q0-6.23,3.25-8.58a9.79,9.79,0,0,1,3.59-1.68,20.2,20.2,0,0,1,4.69-.48q8.66,0,8.66,6,0,6.4-9.72,6.4Zm-.07-5v2.25a2,2,0,0,0,1.63-.78,3,3,0,0,0,.63-1.92c0-1.37-.35-2-1.06-2S57,66.63,57,68.3Z"/><path class="cls-2" d="M81.39,78.77v-2h-.28a2.61,2.61,0,0,1-.47.43,7.76,7.76,0,0,1-1.7.7,9.57,9.57,0,0,1-3,.45A6.93,6.93,0,0,1,73,77.84a4.85,4.85,0,0,1-1.81-1.28,5.42,5.42,0,0,1-1-2.07A20.45,20.45,0,0,1,69.62,69a9.72,9.72,0,0,1,1.67-6.1,5.09,5.09,0,0,1,1.94-1.45,6.39,6.39,0,0,1,2.75-.6,7.58,7.58,0,0,1,2.43.33,3.86,3.86,0,0,1,1.44.77,3.53,3.53,0,0,1,1.09,1.67L81,64h.27l.31-1.33q.34-1.44,5.41-1.44c1.5,0,2.41.23,2.73.68a2,2,0,0,1,.34.77,5.82,5.82,0,0,1,.07,1.08V78.05a7.44,7.44,0,0,1-2.63,6.16q-2.64,2.12-7.73,2.12c-3.61,0-6.06-.36-7.36-1.06-.57-.32-.86-.65-.86-1a10.35,10.35,0,0,1,.67-2.78c.45-1.3.86-2,1.25-2a6.48,6.48,0,0,1,1,.24,17.25,17.25,0,0,0,4.22.69,4,4,0,0,0,2.19-.41A1.5,1.5,0,0,0,81.39,78.77ZM80,74.46a.8.8,0,0,0,.62-.28,1,1,0,0,0,.23-.61v-7q-.14-.72-.75-.72c-.86,0-1.3,1.42-1.3,4.28a12.39,12.39,0,0,0,.33,3.18Q79.47,74.46,80,74.46Z"/><path class="cls-2" d="M101.82,81.33q-5.68,0-8.32-1.09c-.89-.39-1.33-.77-1.33-1.13A8.41,8.41,0,0,1,93,75.82c.55-1.25,1-1.88,1.43-1.88a11.66,11.66,0,0,1,2.31.76,9.72,9.72,0,0,0,3.32.75,6,6,0,0,0,1.78-.17.66.66,0,0,0,.43-.67c0-.33-.23-.59-.68-.79a6.17,6.17,0,0,0-1.71-.39A15.36,15.36,0,0,1,97.66,73a13.4,13.4,0,0,1-2.21-.79,4.05,4.05,0,0,1-1.71-1.59,4.45,4.45,0,0,1-.68-2.4c0-.85,0-1.49.06-1.91a7,7,0,0,1,.57-1.78,4.7,4.7,0,0,1,1.4-1.86,8.8,8.8,0,0,1,2.81-1.31,14.73,14.73,0,0,1,4.26-.58c1.57,0,2.89.05,4,.16a16.34,16.34,0,0,1,2.5.39,7,7,0,0,1,1.49.55c.66.34,1,.72,1,1.13a6.6,6.6,0,0,1-1,3.08c-.64,1.16-1.15,1.74-1.52,1.74a10.81,10.81,0,0,1-2.45-.6,10.31,10.31,0,0,0-2.77-.6c-1,0-1.44.28-1.44.83,0,.34.33.59,1,.76s1.43.35,2.34.54a18.42,18.42,0,0,1,2.76.77,5.1,5.1,0,0,1,2.36,1.79,5.33,5.33,0,0,1,1,3.29Q111.36,81.33,101.82,81.33Z"/></g></svg>