<svg xmlns="http://www.w3.org/2000/svg" viewBox="0 0 140.47 140.47"><defs><style>.cls-1{fill:#fff;}.cls-2{fill:#407d96;}</style></defs><g id="Layer_1" data-name="Layer 1"><rect class="cls-1" x="-6.14" y="-5.47" width="151.68" height="151.68"/></g><g id="Timer"><path class="cls-2" d="M33,81.57a32.21,32.21,0,0,1-4.17.27,9.16,9.16,0,0,1-2.7-.24.8.8,0,0,1-.6-.75v-21q0-.86,2-1.56a12.78,12.78,0,0,1,4.31-.7c2.17,0,3.25.51,3.25,1.54v7.52h3.05v-6.8c0-.57.67-1.09,2-1.56a12.94,12.94,0,0,1,4.33-.7c2.14,0,3.21.51,3.21,1.54V80.85c0,.3-.69.53-2.08.72a32.59,32.59,0,0,1-4.18.27,9.08,9.08,0,0,1-2.68-.24.8.8,0,0,1-.6-.75V73H35v7.84C35,81.15,34.35,81.38,33,81.57Z"/><path class="cls-2" d="M59.2,74.11c0,1.48.71,2.22,2.12,2.22a8.83,8.83,0,0,0,3.22-.84c1.32-.55,2-.83,2.08-.83.44,0,1,.65,1.72,2a7.15,7.15,0,0,1,1.06,2.87c0,.89-.92,1.56-2.74,2a22.37,22.37,0,0,1-5.36.68,19.39,19.39,0,0,1-4.38-.41,10.78,10.78,0,0,1-2.87-1,7.79,7.79,0,0,1-1.95-1.56,7.49,7.49,0,0,1-1.25-1.76,8.93,8.93,0,0,1-.65-1.87,13.85,13.85,0,0,1-.34-3.11q0-6.23,3.25-8.59a9.77,9.77,0,0,1,3.59-1.67,20.14,20.14,0,0,1,4.69-.48q8.65,0,8.66,6,0,6.41-9.72,6.4Zm-.07-5v2.26a2,2,0,0,0,1.63-.79,3,3,0,0,0,.63-1.91c0-1.37-.35-2.06-1.06-2.06S59.13,67.45,59.13,69.11Z"/><path class="cls-2" d="M78.6,82.15a7.43,7.43,0,0,1-4.89-1.47,5,5,0,0,1-1.25-1.82,6.73,6.73,0,0,1-.53-2.8,5,5,0,0,1,.77-2.81,5.66,5.66,0,0,1,1.86-1.85,11,11,0,0,1,2.57-1.06A19.63,19.63,0,0,1,82,69.76h1.13a2.13,2.13,0,0,0-1-2,2.53,2.53,0,0,0-1.25-.24,6,6,0,0,0-2,.44,12.77,12.77,0,0,0-2,.91,2.85,2.85,0,0,1-1.06.46q-.62,0-1.68-1.62a5.54,5.54,0,0,1-1.06-3c0-.3.42-.69,1.27-1.17A15.07,15.07,0,0,1,78,62.29a17.87,17.87,0,0,1,4.5-.6,17.32,17.32,0,0,1,3.78.36,11.41,11.41,0,0,1,2.6.87,5.31,5.31,0,0,1,1.71,1.37,9.12,9.12,0,0,1,1.06,1.54,5.61,5.61,0,0,1,.53,1.78,17,17,0,0,1,.24,3.11V81q0,.38-1.83.6a29.67,29.67,0,0,1-3.62.22,15.8,15.8,0,0,1-2.33-.1c-.35-.07-.57-.15-.63-.24a1.26,1.26,0,0,1-.18-.48l-.27-2h-.27C82.72,81.12,81.15,82.15,78.6,82.15Zm4.58-5.68v-4a1.68,1.68,0,0,0-1.43.75,2.8,2.8,0,0,0-.55,1.71c0,1.5.34,2.26,1,2.26a1,1,0,0,0,.7-.23A.62.62,0,0,0,83.18,76.47Z"/><path class="cls-2" d="M101.25,82.15a7.25,7.25,0,0,1-2.36-.38,6.31,6.31,0,0,1-1.8-.92,5,5,0,0,1-1.21-1.47,8.93,8.93,0,0,1-1.2-3.84,36.31,36.31,0,0,1-.2-4.14q0-4.75,1.74-7.23A5.53,5.53,0,0,1,101,61.69c2.08,0,3.58.49,4.52,1.47A2.65,2.65,0,0,1,106,64h.27l-.41-2.36V57.34q0-.75,1.92-1.47a11.62,11.62,0,0,1,4.14-.72c1.55,0,2.54.3,3,.89a1.2,1.2,0,0,1,.24.69V81c0,.25-.63.45-1.9.6a30.94,30.94,0,0,1-3.66.22,12.7,12.7,0,0,1-2.26-.12,1.2,1.2,0,0,1-.61-.26.83.83,0,0,1-.16-.44l-.27-2H106a4,4,0,0,1-1.24,2A5.06,5.06,0,0,1,101.25,82.15Zm3.83-5c.37,0,.64-.22.82-.68V67.33a.59.59,0,0,0-.36-.53,1.44,1.44,0,0,0-.63-.19q-1.16,0-1.16,5.34a17.48,17.48,0,0,0,.32,4C104.29,76.76,104.63,77.15,105.08,77.15Z"/></g></svg>