<svg id="Layer_1" data-name="Layer 1" xmlns="http://www.w3.org/2000/svg" viewBox="0 0 100.49 103.52"><defs><style>.cls-1{fill:#656f74;}.cls-2{fill:#dfebf1;}.cls-3{fill:#cadde8;}.cls-4,.cls-5{fill:none;stroke-linecap:round;}.cls-4,.cls-6{stroke:#fff;}.cls-4,.cls-5,.cls-6{stroke-miterlimit:10;}.cls-4{stroke-width:10px;}.cls-5{stroke:#407d96;stroke-width:3.46px;}.cls-6{fill:#fff;stroke-width:7px;}.cls-7{fill:#407d96;}</style></defs><g id="Timer"><rect class="cls-1" y="2.89" width="100.49" height="100.49" rx="7.61"/><rect class="cls-2" width="100.49" height="100.49" rx="7.61"/><rect class="cls-3" y="-11.86" width="100.49" height="113.9" rx="8.1"/><path d="M34.2,22.58h-1a3,3,0,0,1-.91-.09.32.32,0,0,1-.23-.31V13.34c0-.21.28-.38.86-.51a8.88,8.88,0,0,1,1.84-.19,2.84,2.84,0,0,1,1.4.26.94.94,0,0,1,.49.53l1,3.69h.13l.89-3.52c.07-.26.37-.48.92-.67a5.39,5.39,0,0,1,1.8-.29,5.12,5.12,0,0,1,1.45.16c.31.1.47.23.47.39v9c0,.12-.27.22-.8.29a13.52,13.52,0,0,1-2,.11c-.76,0-1.15-.13-1.15-.4,0-.74.08-2.05.24-3.94h-.12l-.73,3.66c0,.14-.14.24-.34.31a3.49,3.49,0,0,1-.91.09,1.76,1.76,0,0,1-.73-.08.46.46,0,0,1-.18-.32l-.75-3.66H35.7c.17,1.93.25,3.24.25,3.94C36,22.42,35.37,22.56,34.2,22.58Z"/><path d="M47.11,22.71a2.59,2.59,0,0,1-2.19-.81,4.77,4.77,0,0,1-.62-2.83V15.26c0-.18.27-.36.82-.54a5.86,5.86,0,0,1,1.74-.26c.81,0,1.22.21,1.22.63v3.56a9.78,9.78,0,0,0,.08,1.55q.09.48.42.48c.3,0,.45-.13.45-.38v-5c0-.19.29-.38.87-.54a6.59,6.59,0,0,1,1.89-.26c.68,0,1,.19,1,.55v7.21c0,.13-.3.22-.88.28a17.15,17.15,0,0,1-1.74.08c-.57,0-.86-.07-.87-.22l-.14-.91h-.11a1.55,1.55,0,0,1-.5.83,1.89,1.89,0,0,1-.59.3A2.57,2.57,0,0,1,47.11,22.71Z"/><path d="M59.29,22.46a1.82,1.82,0,0,1-1.15.24,7.54,7.54,0,0,1-1.48-.12,3.23,3.23,0,0,1-1.12-.47c-.68-.46-1-1.41-1-2.86V17.07h-.7c-.11,0-.2-.11-.27-.32a3,3,0,0,1-.11-.89,2.68,2.68,0,0,1,.17-1c.12-.29.27-.43.46-.43h.45V12.76c0-.29.28-.53.84-.7A5.48,5.48,0,0,1,57,11.79c.85,0,1.28.21,1.28.63v2h1c.24,0,.37.35.37,1.05a3.28,3.28,0,0,1-.17,1.13c-.1.29-.24.44-.41.44H58.3v2.56a.55.55,0,0,0,.32.54,1.24,1.24,0,0,0,.57.16.28.28,0,0,1,.3.24,4,4,0,0,1,0,.71C59.54,21.91,59.46,22.3,59.29,22.46Z"/><path d="M64.22,19.42c0,.61.29.91.87.91A3.55,3.55,0,0,0,66.4,20c.54-.23.83-.35.86-.35s.41.27.7.8a3,3,0,0,1,.43,1.18c0,.36-.37.64-1.12.82a8.89,8.89,0,0,1-2.19.28,8.17,8.17,0,0,1-1.79-.16,4.82,4.82,0,0,1-1.18-.43,3.31,3.31,0,0,1-.8-.64,3,3,0,0,1-.51-.72,3.4,3.4,0,0,1-.26-.76,5.4,5.4,0,0,1-.14-1.28c0-1.69.44-2.87,1.33-3.51a3.86,3.86,0,0,1,1.46-.69,8.43,8.43,0,0,1,1.92-.19q3.54,0,3.54,2.46,0,2.63-4,2.62Zm0-2v.92a.81.81,0,0,0,.66-.32,1.19,1.19,0,0,0,.26-.79c0-.56-.14-.84-.43-.84S64.19,16.69,64.19,17.38Z"/></g><path class="cls-4" d="M59.89,72.29a17.9,17.9,0,0,0,0-22.28"/><path class="cls-4" d="M71.92,75.83a23.58,23.58,0,0,0,0-29.37"/><path class="cls-5" d="M59.89,72.29a17.9,17.9,0,0,0,0-22.28"/><path class="cls-5" d="M71.92,75.83a23.58,23.58,0,0,0,0-29.37"/><path class="cls-6" d="M34.92,50.4,44.51,41l.68-.67c.83-.81,1.69-1.69,3-1.18s1.34,1.82,1.34,3c0,7.17,0,14.33,0,21.5a2.76,2.76,0,0,0,.88,2.17c4.71,4.65,9.37,9.34,14.05,14A2,2,0,0,1,65,82.41a1.76,1.76,0,0,1-2.06,1,2.77,2.77,0,0,1-1.3-.75Q41.49,62.59,21.38,42.45c-1.06-1.07-1.13-2.26-.24-3.12s2-.75,3,.3C27.73,43.18,31.28,46.74,34.92,50.4Z"/><path class="cls-6" d="M23.16,61.2c0-1.86,0-3.72,0-5.58,0-1,.21-2,1.28-2.3s2.38-.69,3.43.36q10.53,10.53,21,21.08a2.32,2.32,0,0,1,.58,1.43c.08,1.38.06,2.77,0,4.15,0,1.12-.15,2.32-1.36,2.8s-2-.27-2.82-1c-4.11-4-8.23-8-12.3-12a2.72,2.72,0,0,0-2.18-.86c-1.78.05-3.56,0-5.34,0a2.07,2.07,0,0,1-2.34-2.33C23.13,65,23.16,63.1,23.16,61.2Z"/><path class="cls-7" d="M34.92,50.4,44.51,41l.68-.67c.83-.81,1.69-1.69,3-1.18s1.34,1.82,1.34,3c0,7.17,0,14.33,0,21.5a2.76,2.76,0,0,0,.88,2.17c4.71,4.65,9.37,9.34,14.05,14A2,2,0,0,1,65,82.41a1.76,1.76,0,0,1-2.06,1,2.77,2.77,0,0,1-1.3-.75Q41.49,62.59,21.38,42.45c-1.06-1.07-1.13-2.26-.24-3.12s2-.75,3,.3C27.73,43.18,31.28,46.74,34.92,50.4Z"/><path class="cls-7" d="M23.16,61.2c0-1.86,0-3.72,0-5.58,0-1,.21-2,1.28-2.3s2.38-.69,3.43.36q10.53,10.53,21,21.08a2.32,2.32,0,0,1,.58,1.43c.08,1.38.06,2.77,0,4.15,0,1.12-.15,2.32-1.36,2.8s-2-.27-2.82-1c-4.11-4-8.23-8-12.3-12a2.72,2.72,0,0,0-2.18-.86c-1.78.05-3.56,0-5.34,0a2.07,2.07,0,0,1-2.34-2.33C23.13,65,23.16,63.1,23.16,61.2Z"/></svg>