<svg id="Layer_1" data-name="Layer 1" xmlns="http://www.w3.org/2000/svg" viewBox="0 0 285.36 73.73"><defs><style>.cls-1{fill:#6697ab;stroke:#5d90a6;stroke-miterlimit:10;stroke-width:7px;}.cls-2{fill:#fff;}</style></defs><g id="Attack"><rect class="cls-1" x="5.42" y="6.24" width="274.51" height="60.88" rx="12"/><path class="cls-2" d="M72.63,44.46c0,.22-.51.39-1.53.52a22.21,22.21,0,0,1-3,.2,6.54,6.54,0,0,1-2-.17.58.58,0,0,1-.42-.55V28.38q0-1.2,7.2-1.2a17.48,17.48,0,0,1,5.75.6,4.23,4.23,0,0,1,2.3,1.9,8.72,8.72,0,0,1,.8,4,8,8,0,0,1-1.15,4.82,4.06,4.06,0,0,1-1.65,1.43,11.47,11.47,0,0,1-1.36.46,9.25,9.25,0,0,1-1.34.21c-.74.07-1.74.1-3,.1l-.6,0Zm0-8h.6a1.7,1.7,0,0,0,.75-.14,1.23,1.23,0,0,0,.49-.75,5.53,5.53,0,0,0,.21-1.72,4.91,4.91,0,0,0-.23-1.7c-.16-.4-.32-.63-.48-.7a1.22,1.22,0,0,0-.56-.12h-.78Z"/><path class="cls-2" d="M90,26.83V44.58c0,.19-.48.33-1.43.44a25.52,25.52,0,0,1-2.93.16,8.58,8.58,0,0,1-2-.13c-.3-.09-.44-.25-.44-.47V27.28c0-.36.47-.72,1.41-1.07a8.63,8.63,0,0,1,3-.53C89.21,25.68,90,26.07,90,26.83Z"/><path class="cls-2" d="M96.48,45.41a5.44,5.44,0,0,1-3.58-1.08A3.7,3.7,0,0,1,92,43a5,5,0,0,1-.39-2,3.67,3.67,0,0,1,.57-2.05,4.08,4.08,0,0,1,1.36-1.35,7.62,7.62,0,0,1,1.87-.78A14.35,14.35,0,0,1,99,36.36h.82a1.55,1.55,0,0,0-.7-1.45,1.8,1.8,0,0,0-.91-.18,4.2,4.2,0,0,0-1.47.33,10,10,0,0,0-1.44.66,2,2,0,0,1-.78.34c-.3,0-.71-.4-1.22-1.19a4,4,0,0,1-.78-2.16c0-.22.31-.5.93-.85a11,11,0,0,1,2.61-1,12.74,12.74,0,0,1,3.29-.44,13,13,0,0,1,2.76.26,8.39,8.39,0,0,1,1.9.64,3.81,3.81,0,0,1,1.25,1,7.73,7.73,0,0,1,.78,1.12,4.37,4.37,0,0,1,.38,1.3,12.24,12.24,0,0,1,.18,2.28v7.52c0,.19-.45.33-1.34.44a21.53,21.53,0,0,1-2.65.16,12,12,0,0,1-1.7-.07.81.81,0,0,1-.46-.18,1,1,0,0,1-.13-.35l-.2-1.42h-.2C99.49,44.66,98.34,45.41,96.48,45.41Zm3.35-4.15V38.33a1.24,1.24,0,0,0-1,.55,2.07,2.07,0,0,0-.4,1.25q0,1.65.75,1.65a.74.74,0,0,0,.51-.16A.47.47,0,0,0,99.83,41.26Z"/><path class="cls-2" d="M116.75,43.56V42.08h-.2a3.45,3.45,0,0,1-.37.33,4.8,4.8,0,0,1-1.18.52,6.06,6.06,0,0,1-2.06.33,5.17,5.17,0,0,1-2-.36,3.51,3.51,0,0,1-1.36-1,4.32,4.32,0,0,1-.78-1.64,17.5,17.5,0,0,1-.47-4.6V32.23c0-.35.49-.69,1.47-1a9.21,9.21,0,0,1,3.1-.52c1.45,0,2.18.38,2.18,1.13V35c0,3.33.26,5,.8,5,.31,0,.47-.23.47-.68V32.23c0-.35.53-.69,1.58-1a10.57,10.57,0,0,1,3.37-.52c1.2,0,1.8.33,1.8,1V43.48q0,5.58-7.55,5.58-4,0-5.4-.78c-.41-.23-.62-.47-.62-.72a6.86,6.86,0,0,1,.5-2c.33-.95.64-1.42.92-1.42a5.2,5.2,0,0,1,.7.15,12.06,12.06,0,0,0,3.09.5,3.22,3.22,0,0,0,1.63-.27A1.1,1.1,0,0,0,116.75,43.56Z"/><path class="cls-2" d="M136.74,44.91a8.24,8.24,0,0,1-2.56.27,12.16,12.16,0,0,1-3.09-.33c-.83-.23-1.24-.52-1.24-.87a76.77,76.77,0,0,1,2.23-7.66q2.22-7.07,2.55-8.14c.08-.21.75-.39,2-.53a34.37,34.37,0,0,1,4.05-.22c1.44,0,2.24.25,2.39.75q4.72,15.7,4.72,16a.67.67,0,0,1-.3.5,4.78,4.78,0,0,1-2.77.55q-4.42,0-4.53-1L140,42.51h-2.4l-.13,1.4A1.09,1.09,0,0,1,136.74,44.91Zm2.76-7.15-.37-4.5h-.55l-.43,4.5Z"/><path class="cls-2" d="M156.28,43.53V42.08h-.2a2.36,2.36,0,0,1-.35.32,5.92,5.92,0,0,1-1.24.51,7,7,0,0,1-2.22.32,5.15,5.15,0,0,1-2.09-.37,3.57,3.57,0,0,1-1.33-.94,4.26,4.26,0,0,1-.75-1.51,15.17,15.17,0,0,1-.42-4A7.08,7.08,0,0,1,148.9,32a3.65,3.65,0,0,1,1.42-1.06,4.55,4.55,0,0,1,2-.44,5.52,5.52,0,0,1,1.77.24,2.7,2.7,0,0,1,1.05.56,2.54,2.54,0,0,1,.8,1.22l0,.23h.2l.22-1c.17-.7,1.49-1.05,3.95-1.05,1.1,0,1.77.17,2,.5a1.4,1.4,0,0,1,.25.57,3.86,3.86,0,0,1,.05.78V43a5.45,5.45,0,0,1-1.92,4.5,8.89,8.89,0,0,1-5.65,1.55q-4,0-5.38-.78c-.41-.23-.62-.47-.62-.72a7.25,7.25,0,0,1,.49-2c.32-1,.62-1.42.91-1.42a5.6,5.6,0,0,1,.7.17,12.32,12.32,0,0,0,3.09.5,3,3,0,0,0,1.6-.3A1.1,1.1,0,0,0,156.28,43.53Zm-1-3.15a.56.56,0,0,0,.45-.2.68.68,0,0,0,.17-.45V34.58c-.06-.35-.25-.52-.55-.52-.63,0-.95,1-.95,3.12a9.09,9.09,0,0,0,.24,2.33C154.8,40.09,155,40.38,155.28,40.38Z"/><path class="cls-2" d="M169.15,45.41a5.42,5.42,0,0,1-3.57-1.08,3.71,3.71,0,0,1-.92-1.32,5.17,5.17,0,0,1-.38-2,3.67,3.67,0,0,1,.56-2.05,4.17,4.17,0,0,1,1.36-1.35,7.7,7.7,0,0,1,1.88-.78,14.21,14.21,0,0,1,3.57-.42h.83a1.57,1.57,0,0,0-.7-1.45,1.83,1.83,0,0,0-.91-.18,4.25,4.25,0,0,0-1.48.33,10.51,10.51,0,0,0-1.44.66,2,2,0,0,1-.77.34c-.3,0-.71-.4-1.23-1.19a4.09,4.09,0,0,1-.77-2.16c0-.22.31-.5.92-.85a11.14,11.14,0,0,1,2.61-1,12.8,12.8,0,0,1,3.29-.44,12.94,12.94,0,0,1,2.76.26,8.39,8.39,0,0,1,1.9.64,3.71,3.71,0,0,1,1.25,1,7,7,0,0,1,.78,1.12,4.36,4.36,0,0,1,.39,1.3,13.27,13.27,0,0,1,.17,2.28v7.52c0,.19-.44.33-1.34.44a21.53,21.53,0,0,1-2.65.16,12,12,0,0,1-1.7-.07.84.84,0,0,1-.46-.18.81.81,0,0,1-.12-.35l-.2-1.42h-.2C172.16,44.66,171,45.41,169.15,45.41Zm3.35-4.15V38.33a1.26,1.26,0,0,0-1.05.55,2.14,2.14,0,0,0-.4,1.25q0,1.65.75,1.65a.73.73,0,0,0,.51-.16A.47.47,0,0,0,172.5,41.26Z"/><path class="cls-2" d="M184.48,25.68a5.69,5.69,0,0,1,2.58.49,1.8,1.8,0,0,1,.94,1.76c0,1.5-1.17,2.25-3.5,2.25s-3.5-.75-3.5-2.25S182.16,25.68,184.48,25.68Zm3.4,6.58V44.58c0,.19-.48.33-1.44.44a25.87,25.87,0,0,1-2.95.16,8.58,8.58,0,0,1-2-.13c-.29-.09-.44-.25-.44-.47V32.71c0-.37.47-.73,1.41-1.09a8.65,8.65,0,0,1,3.09-.54C187.12,31.08,187.88,31.48,187.88,32.26Z"/><path class="cls-2" d="M204.83,36.88v7.7c0,.19-.48.33-1.43.44a25.57,25.57,0,0,1-2.94.16,8.71,8.71,0,0,1-2-.13c-.29-.09-.43-.25-.43-.47V36.63a7.36,7.36,0,0,0-.09-1.47l-.16-.63a.64.64,0,0,0-.63-.47c-.46,0-.7.22-.7.67v9.85c0,.19-.47.33-1.41.44a25.27,25.27,0,0,1-2.93.16,8.82,8.82,0,0,1-2-.13c-.3-.09-.45-.25-.45-.47V32.26q0-.52,1.44-1a8.79,8.79,0,0,1,3-.53q1.59,0,1.8.93l.22,1.1h.18a4,4,0,0,1,2.5-2,5.34,5.34,0,0,1,1.6-.22c1.68,0,2.82.5,3.41,1.51A10.19,10.19,0,0,1,204.83,36.88Z"/><path class="cls-2" d="M207.93,34.16c-.47,0-.88-.56-1.22-1.66a10.87,10.87,0,0,1-.51-3.19c0-.23.26-.5.78-.79a8.54,8.54,0,0,1,2.35-.77,16,16,0,0,1,3.42-.34q7.17,0,7.18,5a4.92,4.92,0,0,1-.59,2.46,3.84,3.84,0,0,1-1.41,1.51,6.63,6.63,0,0,1-3.08.95l-.57,0a5,5,0,0,0,.12.87,5.54,5.54,0,0,1,.13,1.05c0,.27-.46.47-1.37.62a15.76,15.76,0,0,1-2.36.21c-1,0-1.64-.25-1.89-.75a8.84,8.84,0,0,1-.36-3.18c0-.38.72-.66,2.15-.85a3.87,3.87,0,0,0,1.46-.52,1.22,1.22,0,0,0,.67-1.1c0-.47-.38-.7-1.13-.7a5.62,5.62,0,0,0-2.36.57A7.52,7.52,0,0,1,207.93,34.16Zm3.92,6.8a6,6,0,0,1,2.6.44,1.8,1.8,0,0,1,.9,1.81c0,1.5-1.17,2.25-3.5,2.25s-3.5-.75-3.5-2.25S209.52,41,211.85,41Z"/></g></svg>