<svg id="Layer_1" data-name="Layer 1" xmlns="http://www.w3.org/2000/svg" viewBox="0 0 100.49 103.52"><defs><style>.cls-1{fill:#656f74;}.cls-2{fill:#dfebf1;}.cls-3{fill:#cadde8;}.cls-4,.cls-7{fill:none;stroke-linecap:round;}.cls-4,.cls-5{stroke:#fff;}.cls-4,.cls-5,.cls-7{stroke-miterlimit:10;}.cls-4{stroke-width:10px;}.cls-5{fill:#fff;stroke-width:7px;}.cls-6{fill:#407d96;}.cls-7{stroke:#407d96;stroke-width:3.46px;}</style></defs><g id="Timer"><rect class="cls-1" y="2.89" width="100.49" height="100.49" rx="7.61"/><rect class="cls-2" width="100.49" height="100.49" rx="7.61"/><rect class="cls-3" y="-11.86" width="100.49" height="113.9" rx="8.1"/><path d="M34.2,22.58h-1a3,3,0,0,1-.91-.09.34.34,0,0,1-.23-.31V13.34c0-.21.28-.38.86-.51a8.88,8.88,0,0,1,1.84-.19,2.84,2.84,0,0,1,1.4.26.94.94,0,0,1,.49.53l1,3.69h.13l.89-3.52c.07-.26.37-.48.92-.67a5.39,5.39,0,0,1,1.8-.29,5.12,5.12,0,0,1,1.45.16c.31.1.47.23.47.39v9c0,.12-.27.22-.8.29a13.52,13.52,0,0,1-2,.11c-.76,0-1.15-.13-1.15-.4,0-.74.08-2.05.24-3.94h-.12l-.73,3.66c0,.14-.15.24-.35.31a3.35,3.35,0,0,1-.9.09,1.73,1.73,0,0,1-.73-.08.46.46,0,0,1-.18-.32l-.75-3.66H35.7c.17,1.93.25,3.24.25,3.94C36,22.42,35.37,22.56,34.2,22.58Z"/><path d="M47.11,22.71a2.59,2.59,0,0,1-2.19-.81,4.77,4.77,0,0,1-.62-2.83V15.26c0-.18.27-.36.82-.54a5.86,5.86,0,0,1,1.74-.26c.81,0,1.22.21,1.22.63v3.56a9.78,9.78,0,0,0,.08,1.55q.09.48.42.48c.3,0,.45-.13.45-.38v-5c0-.19.29-.38.87-.54a6.59,6.59,0,0,1,1.89-.26c.68,0,1,.19,1,.55v7.21c0,.13-.3.22-.88.28a17.15,17.15,0,0,1-1.74.08c-.57,0-.86-.07-.87-.22l-.14-.91h-.11a1.55,1.55,0,0,1-.5.83,2,2,0,0,1-.59.3A2.57,2.57,0,0,1,47.11,22.71Z"/><path d="M59.29,22.46a1.82,1.82,0,0,1-1.15.24,7.54,7.54,0,0,1-1.48-.12,3.23,3.23,0,0,1-1.12-.47c-.68-.46-1-1.41-1-2.86V17.07h-.7c-.11,0-.2-.11-.27-.32a2.68,2.68,0,0,1-.11-.89,2.68,2.68,0,0,1,.17-1c.12-.29.27-.43.46-.43h.45V12.76c0-.29.28-.53.84-.7A5.48,5.48,0,0,1,57,11.79c.85,0,1.28.21,1.28.63v2h1c.24,0,.37.35.37,1.05a3.28,3.28,0,0,1-.17,1.13c-.1.29-.24.44-.41.44H58.3v2.56a.55.55,0,0,0,.32.54,1.23,1.23,0,0,0,.56.16.29.29,0,0,1,.31.24,4,4,0,0,1,0,.71C59.54,21.91,59.46,22.3,59.29,22.46Z"/><path d="M64.22,19.42c0,.61.29.91.87.91A3.55,3.55,0,0,0,66.4,20l.85-.35c.18,0,.42.27.71.8a3,3,0,0,1,.43,1.18c0,.36-.37.64-1.12.82a8.89,8.89,0,0,1-2.19.28,8.17,8.17,0,0,1-1.79-.16,4.82,4.82,0,0,1-1.18-.43,3.31,3.31,0,0,1-.8-.64,3,3,0,0,1-.51-.72,3.4,3.4,0,0,1-.26-.76,5.4,5.4,0,0,1-.14-1.28c0-1.69.44-2.87,1.33-3.51a3.83,3.83,0,0,1,1.47-.69,8.28,8.28,0,0,1,1.91-.19c2.36,0,3.55.82,3.55,2.46s-1.33,2.62-4,2.62Zm0-2v.92a.81.81,0,0,0,.66-.32,1.19,1.19,0,0,0,.26-.79c0-.56-.14-.84-.43-.84S64.19,16.69,64.19,17.38Z"/></g><path class="cls-4" d="M59.88,72.29a17.9,17.9,0,0,0,0-22.28"/><path class="cls-4" d="M71.91,75.83a23.58,23.58,0,0,0,0-29.37"/><path class="cls-5" d="M49.33,63.14h0q0-3.12,0-6.22c0-4.92,0-9.83,0-14.74,0-1.2,0-2.49-1.34-3s-2.15.37-3,1.18l-.67.67c-3.17,3.1-9.39,9.35-11.54,11.62a2.77,2.77,0,0,1-2.14.64c-1,0-5.1,0-6.41,0-1.1,0-1.27,1.29-1.27,2.3,0,1.86,0,3.72,0,5.58s0,3.8,0,5.69a2.07,2.07,0,0,0,2.34,2.33c1.78,0,3.56,0,5.33,0a2.73,2.73,0,0,1,2.19.86c4.07,4,8.19,8,12.3,12,.79.77,1.66,1.5,2.82,1s1.33-1.68,1.36-2.8,0-2,0-3Z"/><path class="cls-6" d="M49.49,63.14h0c0-2.08,0-4.15,0-6.22,0-4.92,0-9.83,0-14.74,0-1.2,0-2.49-1.34-3s-2.15.37-3,1.18L44.5,41c-3.17,3.1-9.39,9.35-11.54,11.62a2.75,2.75,0,0,1-2.13.64c-1,0-5.11,0-6.41,0-1.11,0-1.28,1.29-1.27,2.3V61.2c0,1.9,0,3.8,0,5.69a2.07,2.07,0,0,0,2.34,2.33c1.78,0,3.56,0,5.34,0a2.72,2.72,0,0,1,2.18.86c4.07,4,8.19,8,12.3,12,.79.77,1.67,1.5,2.82,1s1.33-1.68,1.36-2.8,0-2,0-3l0,0Z"/><path class="cls-7" d="M59.88,72.29a17.9,17.9,0,0,0,0-22.28"/><path class="cls-7" d="M71.91,75.83a23.58,23.58,0,0,0,0-29.37"/></svg>