<?xml version="1.0" encoding="utf-8"?>
<!-- Generator: Adobe Illustrator 25.4.1, SVG Export Plug-In . SVG Version: 6.00 Build 0)  -->
<svg version="1.1" id="Layer_1" xmlns="http://www.w3.org/2000/svg" xmlns:xlink="http://www.w3.org/1999/xlink" x="0px" y="0px"
	 viewBox="0 0 100.5 103.5" style="enable-background:new 0 0 100.5 103.5;" xml:space="preserve">
<style type="text/css">
	.st0{fill:#656F74;}
	.st1{fill:#DFEBF1;}
	.st2{fill:#407D96;}
	.st3{fill:#FFFFFF;}
	.st4{fill:none;stroke:#FFFFFF;stroke-width:4;stroke-linecap:round;stroke-miterlimit:10;}
</style>
<g id="Timer">
	<path class="st0" d="M7.6,2.9h85.3c4.2,0,7.6,3.4,7.6,7.6v85.3c0,4.2-3.4,7.6-7.6,7.6H7.6c-4.2,0-7.6-3.4-7.6-7.6V10.5
		C0,6.3,3.4,2.9,7.6,2.9z"/>
	<path class="st1" d="M7.6,0h85.3c4.2,0,7.6,3.4,7.6,7.6v85.3c0,4.2-3.4,7.6-7.6,7.6H7.6c-4.2,0-7.6-3.4-7.6-7.6V7.6
		C0,3.4,3.4,0,7.6,0z"/>
	<path class="st2" d="M8.1-11.9h84.3c4.5,0,8.1,3.6,8.1,8.1v97.7c0,4.5-3.6,8.1-8.1,8.1H8.1C3.6,102,0,98.4,0,93.9V-3.8
		C0-8.2,3.6-11.9,8.1-11.9z"/>
	<path class="st3" d="M34.2,22.6h-1c-0.3,0-0.6,0-0.9-0.1c-0.1,0-0.2-0.2-0.2-0.3v-8.8c0-0.2,0.3-0.4,0.9-0.5
		c0.6-0.1,1.2-0.2,1.8-0.2c0.5,0,1,0.1,1.4,0.3c0.2,0.1,0.4,0.3,0.5,0.5l1,3.7h0.1l0.9-3.5c0.1-0.3,0.4-0.5,0.9-0.7
		c0.6-0.2,1.2-0.3,1.8-0.3c0.5,0,1,0,1.5,0.2c0.3,0.1,0.5,0.2,0.5,0.4v9c0,0.1-0.3,0.2-0.8,0.3c-0.7,0.1-1.3,0.1-2,0.1
		c-0.8,0-1.2-0.1-1.2-0.4c0-0.7,0.1-2,0.2-3.9h-0.1l-0.7,3.7c0,0.1-0.2,0.2-0.3,0.3c-0.3,0.1-0.6,0.1-0.9,0.1c-0.2,0-0.5,0-0.7-0.1
		c-0.1-0.1-0.2-0.2-0.2-0.3l-0.8-3.7h-0.1c0.2,1.9,0.2,3.2,0.2,3.9C36,22.4,35.4,22.6,34.2,22.6z"/>
	<path class="st3" d="M47.1,22.7c-0.8,0.1-1.6-0.2-2.2-0.8c-0.5-0.9-0.7-1.8-0.6-2.8v-3.8c0-0.2,0.3-0.4,0.8-0.5
		c0.6-0.2,1.2-0.3,1.7-0.3c0.8,0,1.2,0.2,1.2,0.6v3.6c0,0.5,0,1,0.1,1.5c0.1,0.3,0.2,0.5,0.4,0.5c0.3,0,0.5-0.1,0.5-0.4v-5
		c0-0.2,0.3-0.4,0.9-0.5c0.6-0.2,1.3-0.3,1.9-0.3c0.7,0,1,0.2,1,0.6v7.2c0,0.1-0.3,0.2-0.9,0.3c-0.6,0.1-1.2,0.1-1.7,0.1
		c-0.6,0-0.9-0.1-0.9-0.2l-0.1-0.9h-0.1c-0.1,0.3-0.2,0.6-0.5,0.8c-0.2,0.1-0.4,0.2-0.6,0.3C47.7,22.7,47.4,22.7,47.1,22.7z"/>
	<path class="st3" d="M59.3,22.5c-0.3,0.2-0.8,0.3-1.2,0.2c-0.5,0-1,0-1.5-0.1c-0.4-0.1-0.8-0.2-1.1-0.5c-0.7-0.5-1-1.4-1-2.9v-2.2
		h-0.7c-0.1,0-0.2-0.1-0.3-0.3c-0.1-0.3-0.1-0.6-0.1-0.9c0-0.3,0.1-0.7,0.2-1c0.1-0.3,0.3-0.4,0.5-0.4h0.5v-1.7
		c0-0.3,0.3-0.5,0.8-0.7c0.5-0.2,1.1-0.3,1.6-0.3c0.8,0,1.3,0.2,1.3,0.6v2h1c0.2,0,0.4,0.4,0.4,1.1c0,0.4,0,0.8-0.2,1.1
		c-0.1,0.3-0.2,0.4-0.4,0.4h-0.8v2.6c0,0.2,0.1,0.4,0.3,0.5c0.2,0.1,0.4,0.2,0.6,0.2c0.1,0,0.3,0.1,0.3,0.2c0,0.2,0,0.5,0,0.7
		C59.5,21.9,59.5,22.3,59.3,22.5z"/>
	<path class="st3" d="M64.2,19.4c0,0.6,0.3,0.9,0.9,0.9c0.5,0,0.9-0.1,1.3-0.3l0.8-0.4c0.2,0,0.4,0.3,0.7,0.8
		c0.2,0.4,0.4,0.8,0.4,1.2c0,0.4-0.4,0.6-1.1,0.8c-0.7,0.2-1.5,0.3-2.2,0.3c-0.6,0-1.2,0-1.8-0.2c-0.4-0.1-0.8-0.2-1.2-0.4
		c-0.3-0.2-0.6-0.4-0.8-0.6c-0.2-0.2-0.4-0.5-0.5-0.7c-0.1-0.2-0.2-0.5-0.3-0.8c-0.1-0.4-0.1-0.8-0.1-1.3c0-1.7,0.4-2.9,1.3-3.5
		c0.4-0.3,0.9-0.6,1.5-0.7c0.6-0.1,1.3-0.2,1.9-0.2c2.4,0,3.6,0.8,3.6,2.5s-1.3,2.6-4,2.6L64.2,19.4z M64.2,17.4v0.9
		c0.3,0,0.5-0.1,0.7-0.3c0.2-0.2,0.3-0.5,0.3-0.8c0-0.6-0.1-0.8-0.4-0.8S64.2,16.7,64.2,17.4L64.2,17.4z"/>
</g>
<path class="st3" d="M49.5,63.1L49.5,63.1c0-2.1,0-4.2,0-6.2c0-4.9,0-9.8,0-14.7c0-1.2,0-2.5-1.3-3s-2.2,0.4-3,1.2L44.5,41
	c-3.2,3.1-9.4,9.3-11.5,11.6c-0.6,0.5-1.4,0.7-2.1,0.6c-1,0-5.1,0-6.4,0c-1.1,0-1.3,1.3-1.3,2.3v5.6c0,1.9,0,3.8,0,5.7
	c-0.2,1.1,0.6,2.2,1.8,2.3c0.2,0,0.4,0,0.6,0c1.8,0,3.6,0,5.3,0c0.8-0.1,1.6,0.3,2.2,0.9c4.1,4,8.2,8,12.3,12c0.8,0.8,1.7,1.5,2.8,1
	s1.3-1.7,1.4-2.8s0-2,0-3l0,0L49.5,63.1z"/>
<path class="st4" d="M59.9,72.3c5.2-6.5,5.2-15.8,0-22.3"/>
<path class="st4" d="M71.9,75.8c6.8-8.6,6.8-20.8,0-29.4"/>
</svg>
