<svg id="Layer_1" data-name="Layer 1" xmlns="http://www.w3.org/2000/svg" viewBox="0 0 218.34 249.92"><defs><style>.cls-1{fill:#cd804a;}.cls-2{fill:#b16f42;}.cls-3{fill:#525252;opacity:0.5;}.cls-4{fill:#9e6f42;}</style></defs><path class="cls-1" d="M109.39-16.6h0a7.44,7.44,0,0,0-3.28.79v264.3a5.27,5.27,0,0,0,1,.11h4.48a5.35,5.35,0,0,0,1.39-.18v-264A7.32,7.32,0,0,0,109.39-16.6Z"/><path class="cls-1" d="M102.06-11.8V245.66a6.6,6.6,0,0,0,4,2.83V-15.81A9.76,9.76,0,0,0,102.06-11.8Z"/><path class="cls-2" d="M102.06-11.8V245.66a6.6,6.6,0,0,0,4,2.83V-15.81A9.76,9.76,0,0,0,102.06-11.8Z"/><path class="cls-1" d="M116.69,245.72V-11.86A9.81,9.81,0,0,0,113-15.62v264A6.73,6.73,0,0,0,116.69,245.72Z"/><path class="cls-2" d="M116.69,245.72V-11.86A9.81,9.81,0,0,0,113-15.62v264A6.73,6.73,0,0,0,116.69,245.72Z"/><path class="cls-1" d="M118.43,240v-245a13.64,13.64,0,0,0-1.74-6.77V245.72A10,10,0,0,0,118.43,240Z"/><path class="cls-3" d="M118.43,240v-245a13.64,13.64,0,0,0-1.74-6.77V245.72A10,10,0,0,0,118.43,240Z"/><path class="cls-4" d="M118.43,240v-245a13.64,13.64,0,0,0-1.74-6.77V245.72A10,10,0,0,0,118.43,240Z"/><path class="cls-1" d="M100.36,239.94a10.07,10.07,0,0,0,1.7,5.72V-11.8a13.63,13.63,0,0,0-1.7,6.71Z"/><path class="cls-3" d="M100.36,239.94a10.07,10.07,0,0,0,1.7,5.72V-11.8a13.63,13.63,0,0,0-1.7,6.71Z"/><path class="cls-4" d="M100.36,239.94a10.07,10.07,0,0,0,1.7,5.72V-11.8a13.63,13.63,0,0,0-1.7,6.71Z"/></svg>