<svg id="svg2" xmlns="http://www.w3.org/2000/svg" viewBox="0 0 1024 165.16"><defs><style>.cls-1{fill:#fff;}</style></defs><g id="g2999"><path id="path2994" d="M66.06,0V33h198.2v33h33v33h33v33h33v33h198.2v-33h33v-33h33v-33h66.07v33h33v33H957.94v-33h33v-33h33V0H66.06Zm0,33H0v33H66.06Z"/><path id="path2990" class="cls-1" d="M330.32,33v33h33V33Zm33,33v33h33v-33Zm33,0h33V33h-33Zm33,0v33h33v-33Zm33,33v33h33v-33Zm-33,0h-33v33h33Z"/><path id="rect3012" class="cls-1" d="M726.71,33h33v33h33V33h33v33h33v33h-33v-33h-33v33h-33v-33h-33Z"/></g></svg>