<svg id="svg2" xmlns="http://www.w3.org/2000/svg" viewBox="0 0 1024 165.16"><defs><style>.cls-1{fill:#fff;}</style></defs><g id="g2987"><path id="path2989" d="M957.94,0V33H759.74v33h-33v33h-33v33h-33v33H462.45v-33h-33v-33h-33v-33H330.32v33h-33v33H66.06v-33H33v-33H0V0H957.94Zm0,33H1024v33H957.94Z"/><path id="path2991" class="cls-1" d="M693.68,33v33h-33V33Zm-33,33v33h-33v-33Zm-33,0h-33V33h33Zm-33,0v33h-33v-33Zm-33,33v33h-33v-33Zm33,0h33v33h-33Z"/><path id="path2993" class="cls-1" d="M297.29,33h-33v33h-33V33h-33v33h-33v33h33v-33h33v33h33v-33h33Z"/></g></svg>