<svg width="24" height="28" viewBox="0 0 24 28" fill="none" xmlns="http://www.w3.org/2000/svg">
<path fill-rule="evenodd" clip-rule="evenodd" d="M15.7594 7.76261V8.9462H8.23419V7.76261C8.23419 5.68458 9.91876 4 11.9968 4C14.0748 4 15.7594 5.68458 15.7594 7.76261ZM0 14.9462C0 12.2471 1.78228 9.96419 4.23419 9.21026V7.76261C4.23419 3.47544 7.70962 0 11.9968 0C16.284 0 19.7594 3.47544 19.7594 7.76261V9.331C22.0276 10.1873 23.6407 12.3783 23.6407 14.9462V21.9999C23.6407 25.3136 20.9544 27.9999 17.6407 27.9999H6C2.68629 27.9999 0 25.3136 0 21.9999V14.9462ZM14.2348 16.4666C14.2348 17.2702 13.8093 17.9743 13.1714 18.3662L14.4876 22.6722H9.52692L10.8431 18.3662C10.2051 17.9744 9.77962 17.2702 9.77962 16.4666C9.77962 15.2364 10.7769 14.239 12.0072 14.239C13.2375 14.239 14.2348 15.2364 14.2348 16.4666Z" fill="#407D96"/>
</svg>
