<?xml version="1.0" encoding="utf-8"?>
<!-- Generator: Adobe Illustrator 25.4.1, SVG Export Plug-In . SVG Version: 6.00 Build 0)  -->
<svg version="1.1" id="Capa_1" xmlns="http://www.w3.org/2000/svg" xmlns:xlink="http://www.w3.org/1999/xlink" x="0px" y="0px"
	 viewBox="0 0 335 335" style="enable-background:new 0 0 335 335;" xml:space="preserve">
<style type="text/css">
	.st0{opacity:0.25;}
</style>
<path class="st0" d="M4.7,304.3c-0.1,1.5,0.4,2.8,1.4,3.9c2.3,2.4,7.3,3.5,15.3,3.5c17.4,0,47.2-5.5,76.1-10.9
	c9-1.7,18.2-3.4,27-4.9c18.9-3.3,37.3-5.6,53.5-7.7c7.1-0.9,13.9-1.8,20.4-2.7c3.4,10.9,6.7,22.4,8,29.5c0.5,2.6-7,12.2-9.8,15.8
	c-2.4,3.1-2.4,3.1-2.1,3.8l0.3,0.4l0.6-0.2h0.3h0.3c7.7-5.3,13.8-7.5,19.7-7.5c3.5,0,6.6,0.8,10.3,1.7c1.4,0.3,2.9,0.7,4.5,1
	c1.1,0.2,2.2,0.4,3.3,0.4c2.9,0,5.4-0.8,7.9-1.5c2.5-0.8,5.1-1.6,8.2-1.6c4.8,0,10.1,1.9,16.6,6c0.8,0.5,1.6,0.4,2-0.2
	c0.3-0.5,0.3-1.1-0.1-1.9l-0.1-0.2l-3.1-4.5c-0.1-0.1-2.4-3.3-7.3-5c-1.7-0.6-3.7-0.9-5.9-1c-3-0.1-4.7-0.2-6.1-0.3
	c-1.5-0.1-2.8-0.2-5.2-0.2c-1.7,0-3.9,0.1-6.7,0.2c0.4-0.6,1.2-1.5,2.6-2.4c1.7-0.4,3.4-0.5,5-0.5c3.5,0,6.6,0.8,10.3,1.7
	c1.4,0.3,2.9,0.7,4.5,1c1.1,0.2,2.2,0.4,3.4,0.4c2.9,0,5.4-0.8,7.9-1.5c2.5-0.8,5.1-1.6,8.2-1.6c4.8,0,10.1,1.9,16.6,6
	c0.8,0.5,1.6,0.4,2-0.2c0.3-0.5,0.3-1.1-0.1-1.9l-0.1-0.2l-3.1-4.5c-0.1-0.1-2.4-3.3-7.3-5c-1.7-0.6-3.7-0.9-5.9-1
	c-3-0.1-4.7-0.2-6.1-0.3c-1.5-0.1-2.8-0.2-5.2-0.2c-1.5,0-3.3,0-5.5,0.1c-0.2-0.2-0.4-0.4-0.7-0.6c0.8-0.9,2.2-2.1,4.8-3
	c8.7-3.2,17.5-2.5,25,1.8c0.5,0.3,0.7,0.5,1,0.5h0.6l0.5-1.3l-0.5-0.6c-0.1-0.1-0.2-0.4-0.3-0.7c-1.3-2.4-4.6-8.8-11.3-8.8
	c-0.9,0-1.8,0.1-2.8,0.3c-8.1,2-13.2,3-15.5,3.1c5.1-5.5,10.5-5.7,12.5-5.8c0.8,0,1.6-0.1,1.8-0.9c0.2-0.8-0.6-1.2-0.9-1.4
	c-1.3-0.7-2.9-1.4-5-1.4c-2.8,0-6.1,1.2-10.3,3.8c-2.3,1.4-4.4,3-6.2,4.3c-1.1,0.8-2.2,1.7-2.8,2c-0.1-0.2-0.1-0.5-0.2-0.7
	c-0.1-0.5-0.2-0.9-0.5-1.3c-2.8-5.4-5.9-13.8-8.7-22.4c4.5-1.4,8.6-2.9,12.3-4.7c38.9-18.5,50.1-38.8,58.2-72.1
	c6.3-25.9,1.8-62.6-13.9-112.2c-5.5-17.5-5.5-30.1-0.1-37.6c3.8-5.2,10.3-7.9,19.3-7.9c1.9,0,3.9,0.1,6.1,0.4c2.8,0.3,5-0.5,6-2.2
	c0.8-1.3,0.7-3-0.2-4.7c-2-3.8-4.9-7.1-8.5-9.9c-3-2.3-7.5-6.6-9.9-9.9c-5.2-7.4-14.3-16-27.5-16.2H283c-20.5,0-50.3,18.4-52.7,59.2
	c-1.8,32.2-27.8,59-45,76.8c-4.2,4.3-7.7,8-10.6,11.3c-10.1,11.8-16.2,22.2-22.2,32.3c-10.6,17.9-19.7,33.4-48.5,50.2
	c-37.1,21.7-41.1,29.8-40.9,34c0.2,3.5,3.7,5,6.2,6.2c0.7,0.3,1.8,0.8,2.1,1.1c-0.3,0.4-1.8,1.5-8,3.8c-4.6,1.7-10,3.5-15.8,5.3
	C27.9,286.6,5.2,294,4.7,304.3z M224.5,309.4c-3.2-6.2-6.8-16.5-9.9-26.3c4-0.7,7.8-1.4,11.5-2.1c2.8,9.2,5.3,18.2,6.3,24
	c0.1,0.3,0,0.7-0.2,1.3c-1.6,1.1-3,2.2-4.2,3.1c-1.1,0.8-2.2,1.7-2.8,2c-0.1-0.2-0.1-0.5-0.2-0.7
	C224.8,310.3,224.7,309.8,224.5,309.4z"/>
</svg>
