<svg id="Layer_1" data-name="Layer 1" xmlns="http://www.w3.org/2000/svg" viewBox="0 0 1920 1080"><defs><style>.cls-1{fill:#fedb4b;}.cls-2{fill:#fefefe;}.cls-3{fill:#fe6904;}.cls-4{fill:#fd6b08;}.cls-5{fill:#f3a37f;}.cls-6{fill:#feb27f;}.cls-7{fill:#8c97aa;}.cls-8{fill:#434c61;}.cls-9{fill:#70798d;}.cls-10{fill:#17826e;}.cls-11{fill:#70798e;}.cls-12{fill:#444d62;}.cls-13{fill:#8d98aa;}.cls-14{fill:#8d98ab;}.cls-15{fill:#444d61;}.cls-16{fill:#18826e;}.cls-17{fill:#6f788d;}.cls-18{fill:#8897a8;}.cls-19{fill:#e9520c;}.cls-20{fill:#1b826f;}.cls-21{fill:#454e63;}.cls-22{fill:#454d62;}.cls-23{fill:#6d788c;}.cls-24{fill:#19836f;}.cls-25{fill:#475064;}.cls-26{fill:#e95a16;}.cls-27{fill:#ea5714;}.cls-28{fill:#fedb4c;}.cls-29{fill:#fedc4d;}.cls-30{fill:#b7d1d1;}.cls-31{fill:#27292f;}.cls-32{fill:#26272d;}.cls-33{fill:#98a1b3;}.cls-34{fill:#707d90;}.cls-35{fill:#869fab;}.cls-36{fill:#242c30;}.cls-37{fill:#242c2f;}</style></defs><path class="cls-1" d="M705,1058.93H626.16c-9.06-2.15-18.37-1.92-27.55-2.85-31-3.16-55.55-17.75-74.84-41.45-4.49-5.52-9-7.6-15.78-7.42-15.19.41-30.4.25-45.59.12-42.53-.36-74.59-17.42-91.9-57.83a14.43,14.43,0,0,0-2.06-3.57c-.19-.23-.63-.26-1.7-.66-5.41,10.49-11.3,20.72-19.82,29.43-14.32,14.65-31.38,23.19-51.32,27-36.57,7-73.36,8.34-110.12,3.13-23.09-3.28-41.63-15.61-56.5-33.71-10.48-12.76-13.86-27.54-13.88-43.35Q114.94,803,115,678.22c0-34.64,19.07-56.43,48.38-70.73,19.75-9.63,41.13-13.66,63-14.86,1.37-.07,2.76,0,4.14-.15,17-1.27,18-2.22,18-19.08,0-14.84,0-29.68,0-44.52,0-5.48-1.15-10.08-6.53-13-28.95-15.81-41.73-42.35-46.56-73.16-5.42-34.58-3.22-69.06,10.25-101.59,12.91-31.18,35.07-52.48,70.68-55.91a98.46,98.46,0,0,0,21.75-1.46c4.29.3,8.58.67,12.84,1.26a174.2,174.2,0,0,0,19.79-.14c12-1.87,24.13-.8,36.2-.86q49.23-.24,98.46,0c25.33.11,46.55,9.77,62.41,29.39,7.8,9.65,15.64,11.87,28.27,10.82,43.9-3.65,87,.4,126.29,23.09,6.07,3.51,11.12,2,16.5-1,20.81-11.41,43.08-18.4,66.52-21.85,15.82-2.33,31.72-.83,47.58-1.07,5.85-.09,10.45-1.07,14.14-6.43,23.46-34.09,58.86-45.79,97.49-51.65,27.57-4.19,54.33-2,80.34,8.16,5.11,2,9.34-.31,13.9-1.92,44.18-15.53,87.87-15.84,130.67,4.89,18,8.71,32,21.92,40.72,39.8,4.44,9.05,9.68,11,19.57,9.63,40.46-5.56,80.57-4.39,119.13,11.2,5.26,2.13,10.07,1.45,15.08-.27,33.42-11.49,68-16.44,103-12.87,17.26,1.77,26.8-2.38,37.31-16.52,20.65-27.79,51.67-39,85.25-43.32,19.79-2.17,39.6-3.59,59.52-1.51,13.59,5.66,28.66,7,41.22,15.9,26,18.49,40.43,42.87,40.48,75,.11,77.31-.15,154.63.18,231.94.07,17.16-3.6,32.88-13.28,46.92-4.41,6.4-1.68,8.41,4.24,9.49,14.65,2.68,28.91,6.47,42.39,13,34.5,16.8,54.77,43.72,57.08,82.34a101.76,101.76,0,0,1-7.81,44.5c-3.75,9.2-2.75,17.48.63,26.83,18.68,51.63,10.4,119.94-35.47,159.9-24.44,21.29-52.74,33.57-84.43,38.68a357.49,357.49,0,0,1-87.59,2.87c-21.06-1.79-41.78-4.54-62.2-9.72-4.31-1.09-8.25.17-12.25,1-40.32,8.13-80.79,8.41-121.41,2.73-10.44-1.46-20.52,1.81-30.82,2.17-30.29,1.08-60.64,4.18-90.65-3.11-3-.74-6.43-1.19-8.81-2.87-12.92-9.09-25.21-5.26-38.86-.86-59,19.06-117.51,16.63-174.7-7.94a19.59,19.59,0,0,0-16.76,0c-42.24,17.89-86.67,22.22-131.89,19.69a219.27,219.27,0,0,1-57.79-10.9c-5.9-2-10.76-2.39-15.7,3.23-30.42,34.65-68.3,54-115,54.47C708.16,1057.92,706.4,1057.7,705,1058.93Z"/><path class="cls-2" d="M689.15,884.33C669,897,649.08,901.34,628,900.66c-32.74-1.06-51.42-16.24-57.82-48.28-5.79-29-7.4-58.28.1-87.18,10.94-42.16,57.68-62.2,96.48-42,10,5.2,15.67,14,21.41,27.44,1.36-27.07,19.21-28.2,36.68-30,13.78-1.42,27.49-2,41.25.43,10.22,1.76,15.39,8,15.43,17.72.19,56.58,1.1,113.19-.38,169.73-1,39.12-30.36,66.76-74.37,73.37-30.6,4.6-61.46,4.52-91.67-2-36.2-7.86-31.78-15-24.31-39.75,8.45-28.09,8.55-28,36.34-22.21,12.84,2.69,25.71,4.9,39,4.42,18.4-.67,23-5.22,23.06-23.68C689.16,894.49,689.15,890.4,689.15,884.33Z"/><path class="cls-2" d="M190.73,802c0-35.88.43-71.77-.26-107.64-.22-10.95,4.44-15.76,13.94-18.21,19.19-4.94,38.85-6.37,58.5-6.5,31.72-.2,63.57-2.14,95.09,3.28,37.79,6.48,55.19,23.34,62,60.66a170.84,170.84,0,0,1-2.26,71.88c-8.4,34.09-32.64,53.09-70.38,56.66A402.1,402.1,0,0,1,299.77,864c-6.59-.16-8.43,2.23-8.3,8.31.26,12.77-.3,25.55.2,38.3.3,7.58-2.59,11.72-9.87,13.14-25.58,5-51.4,5.83-77.33,4.2-9.86-.62-14.14-5.46-14-16.15C191.09,875.2,190.73,838.62,190.73,802Z"/><path class="cls-2" d="M1378.28,749.92c17.82-28.89,43.1-35.39,72.15-32.87,21.24,1.84,36.4,11.73,43.24,32.73,5.4,16.59,7.35,33.68,7.44,51,.19,37.28-.17,74.56.24,111.84.09,7.94-2.72,10.9-10.2,12.19-24.67,4.25-49.49,4.27-74.35,3.28-9.45-.38-13.76-4.66-13.61-15.05.55-38,.17-75.94.25-113.91a75.81,75.81,0,0,0-3.43-22.39c-1.61-5.35-4.84-8.26-10.59-7.71-6.11.59-8.05,4.81-8.12,10.11-.15,12.08-.08,24.16-.08,36.25,0,31.75-.32,63.51.2,95.26.14,8.92-2.33,13.1-11.47,14.5-24.38,3.72-48.82,4-73.34,2.86-9.54-.46-13.48-5-13.38-15.31.48-54.53.37-109.07.07-163.61,0-8.36,2.75-13.75,10.15-17.32a121.6,121.6,0,0,1,60.28-12.07c14.44.8,18.89,5.31,22.19,19.78C1376.51,742,1377.08,744.62,1378.28,749.92Z"/><path class="cls-2" d="M1155,716.8c13.57-.29,30,.68,46.25,4.86,30.46,7.81,48.77,27.07,56.22,57.31,6,24.14,7.13,48.48,2.4,72.85-8.21,42.38-35.17,66.71-76.22,76.39-26.68,6.3-53.66,5.42-80.17-.54-37.39-8.41-60.45-31.34-67-69.86-3.52-20.58-4.5-41.2-1.17-61.78,6.91-42.61,33.45-68.16,78.53-76.71C1126.44,716.93,1139.16,716.61,1155,716.8Z"/><path class="cls-2" d="M921.27,932.25a165,165,0,0,1-38.11-3.17c-52.8-10.63-78.36-40.79-80.4-94.75a181.49,181.49,0,0,1,4.41-46.24c7.42-33.34,28.08-55.05,60.55-64.48a191.28,191.28,0,0,1,102.38-1.72c44.7,11.58,61.47,64,32.06,98.35-14.61,17.08-35.29,22-56.39,25.19a184.67,184.67,0,0,1-36.15,2.09c-8.09-.38-8.54,3.17-6.43,9.37,3.51,10.28,12.86,15.05,26.16,13.06,14.17-2.12,27-8.1,40.1-13.53,12.32-5.12,14.86-4.43,22.23,6.5a132,132,0,0,1,15.05,29.42c5.12,14.34,1.86,22-12.37,27.9-20,8.23-41.3,10.75-62.73,12C928.18,932.44,924.72,932.27,921.27,932.25Z"/><path class="cls-2" d="M1618.48,932.43c-26.13-1.44-52.48-1.67-77.68-10.33-18.78-6.45-21.13-10.68-16.45-29.86a111,111,0,0,1,13.12-31.41c3.75-6.17,8.37-7.94,15.68-5.53,18.24,6,35.76,15.26,55.87,13.85a49.23,49.23,0,0,0,5.17-.13c5.1-.92,12.36,1.18,13.42-6.51,1.17-8.51-6.21-9.75-12.14-11.24-13.38-3.35-27.2-4.33-40.58-8-41.9-11.55-48-38.75-40.74-76.24,4-20.74,17.46-34.3,37.73-41.77,27.29-10.07,55.3-11.06,83.74-9,17.21,1.22,34.49,2.1,50.79,8.74,15.12,6.16,17.83,11.43,13.63,27.17a76,76,0,0,1-2.69,7.82c-12.45,32-16.32,33.82-49,23.66-9.23-2.87-18.53-5.81-28.27-5.94-5.82-.07-13.09.31-13.8,7.77-.61,6.48,6.13,7.43,11.06,8.66,14.4,3.57,29,6.44,43.26,10.46,27.08,7.65,42.27,25.6,44.12,51,2.2,30.17-10.66,53.29-36.26,65C1666.25,930.83,1642.44,931.84,1618.48,932.43Z"/><path class="cls-2" d="M1435.6,567.71c-13.5,26.79-30.95,34.17-63.87,29-26.59-4.2-42.52-20.38-46.28-47-3.58-25.36,7.69-46.93,30.6-57.86,21-10,43.6-12.57,66.59-12.65,10.13,0,11.57-2.47,6.77-11.34-5-9.15-13.42-10.27-22.37-8.88-12.43,1.92-23.94,6.8-34.58,13.35-8.08,5-14.33,3.56-19.62-3.81-26.9-37.49-19.14-43.87,14.65-55.75,35.11-12.35,70.87-14.77,106.85-3.88,27,8.15,42.23,26.92,45.27,54.61,4.33,39.55,1.15,79.32,2,119,.12,5.11-2.4,7.51-7.1,8.49-22.17,4.67-44.58,4.67-67,3.28-5.42-.34-8.63-3.43-9.07-9.35C1438.05,579.88,1436.83,575,1435.6,567.71Z"/><path class="cls-2" d="M588.07,569c-20.1,30.11-54.78,38-85.9,20.25C482,577.69,476.69,558.32,477.34,537s12.44-36.15,31.18-45.28c19.63-9.55,40.87-12,62.43-12.67,4.35-.15,11.58,3.11,12.62-2.8,1.22-7-3.29-13.19-10.53-16.11-5.3-2.14-10.73-2-16.28-.76a110.64,110.64,0,0,0-33.43,13.57c-6.87,4.11-12.39,3-17.21-3.12-.64-.82-1.43-1.52-2-2.37-25.79-37.6-18-42.76,15.75-54.8a175.65,175.65,0,0,1,84.64-8.73c46.15,6.49,67.12,28,68.75,74.13,1.21,34.47.17,69,.39,103.53,0,6.08-2.51,8.56-8.16,9.67-21.53,4.24-43.24,4.26-65,3.1-5.75-.31-9.56-3.11-9.92-9.68C590.31,579.9,589.1,575.17,588.07,569Z"/><path class="cls-2" d="M376.28,362.88c27.3,0,54.6.25,81.89-.16,8.21-.12,12.13,2.89,13.14,10.87,2.62,20.73,2.24,41.28-3,61.63-2.19,8.61-7.14,12.68-16.43,11.93-7.9-.63-15.91.26-23.83-.24-7.21-.45-9.47,2.15-9.42,9.39.3,40.39-.22,80.79.4,121.17.15,9.91-3.56,13.47-12.53,14.57a398.43,398.43,0,0,1-67.22,2.49c-8.82-.4-12.36-4.37-12.25-13.79.47-41.08,0-82.17.36-123.25.07-8.07-2.22-11.12-10.5-10.61-10,.61-20-.07-30.05.19-6.23.16-9.8-2.57-11.1-8.45-5-22.7-4.27-45.18,3-67.31,2.07-6.35,6.69-8.64,13.58-8.57C320.3,363.06,348.29,362.88,376.28,362.88Z"/><path class="cls-2" d="M891.86,502.56c0-8.38-.41-14.28.09-20.11.91-10.34.48-18.73-13.86-16.19-5.12.91-7.07-3.7-8.26-7.73a66.53,66.53,0,0,1,1.49-43.64c2.37-6.2,6.37-10.83,13.83-10.25,5.83.46,6.88-2.66,6.76-7.57-.21-9,.08-17.94-.07-26.91-.14-8.19,3.43-14,10.84-17.19,20.73-8.92,42.23-12.67,64.66-8.5,9.39,1.74,14.25,7.21,13.8,17.4-.5,11.36.11,22.77-.19,34.15-.16,5.88,1.25,8.54,7.94,8.75,23.76.73,25.61,2.9,24.9,27.06a112.42,112.42,0,0,1-2,17.43c-2.71,14.38-6.08,17.55-20.58,17-8.37-.32-10.64,2.49-10.32,10.52.58,14.82.12,29.67.18,44.51.05,12.81,3.44,17.88,16.24,19.63,9.92,1.36,12.87,6.31,12.53,15.18-.2,5.16.15,10.35-.06,15.51-.79,20.29-5.93,25.37-26.53,25.61-19.32.23-38.55.49-56.94-7.63-22.14-9.79-29.69-28.47-32.58-50.31A237.31,237.31,0,0,1,891.86,502.56Z"/><path class="cls-2" d="M796.86,402.27c13.15.1,26.25,1,39,4.19,15.66,3.92,21.36,11.73,20.26,27.56A95.52,95.52,0,0,1,849,464.09c-3.62,8.73-9.31,12.25-18.8,8.18-8.85-3.79-17.63-8-27.53-8.6-12.54-.74-18.72,3.74-21.25,16.1a103.34,103.34,0,0,0,.27,43.14c2.48,11.34,8.59,15.49,20.14,14.58,10.26-.81,19.34-5.31,28.19-9.8,9.21-4.68,14.1-1.43,18,6.83a89.67,89.67,0,0,1,7.73,25.66c2.06,14.77-3.33,25.69-17.48,30.23-33.42,10.75-67.36,11.79-100.34-1.31-19.52-7.75-32.45-23-38.89-43.27a140,140,0,0,1-3.8-72.56c8.8-41.23,44-69.26,88.17-71C787.88,402.12,792.37,402.27,796.86,402.27Z"/><path class="cls-2" d="M1144.32,501.17c-.1-62,37.12-99,99.59-98.94,14.53,0,29,.68,43.18,4.18,16.35,4,22.31,12.9,20.27,29.42-1.18,9.62-2.9,19.11-6.92,28-4.7,10.38-9,12.18-19.55,8.13-9.33-3.57-18.34-8-28.64-8.38s-16.73,4.05-18.84,13.89a109.71,109.71,0,0,0,.11,47.17c2.12,9.58,8.59,13.53,18.28,13,11-.63,20.62-5.58,30.17-10.24,8.19-4,13.08-1.19,16.76,6a74.81,74.81,0,0,1,8.61,31.7c.37,10.48-3.78,19.93-13.83,23.44-37.73,13.2-75.91,15.87-112.15-3.88-27.84-15.17-35.16-42.68-37-72.09C1144.11,508.77,1144.32,505,1144.32,501.17Z"/><path class="cls-2" d="M1632.11,469.19c0,36.58-.26,73.17.19,109.75.1,8.33-2.86,11.73-10.73,12.89a329.49,329.49,0,0,1-66.13,2.58c-8-.43-12.19-4.08-12.16-13.13q.4-107.68.06-215.38c0-6.69,2.42-11.29,8.18-14.27a102.54,102.54,0,0,1,65.31-10.24c12.72,2.14,15.26,6.12,15.27,19.08Q1632.15,414.83,1632.11,469.19Z"/><path class="cls-2" d="M542.92,828.86c0,28-.2,55.93.14,83.9.08,7.17-2.17,10.59-9.45,11.87-25.36,4.44-50.86,4.56-76.42,3.3-9.25-.46-12.92-5.31-12.86-14.86.33-52.48.24-105,.06-157.43,0-7.65,2-13.56,9-17.14,23.18-11.87,47.67-16.09,73.32-11.38,12.77,2.34,16.15,7.12,16.17,19.92C543,774.31,542.92,801.59,542.92,828.86Z"/><path class="cls-2" d="M1123.5,505.85c0,24.13-.39,48.28.2,72.4.22,8.83-3.13,12.38-11.36,13.6-21.95,3.24-44,3.71-66.07,2.57-8.64-.45-12.26-4.42-12.16-13.87.48-47.58.35-95.16.08-142.74,0-7.35,1.81-12.61,8.6-16,20.4-10.13,41.9-13.68,64.32-10.15,12.74,2,16.31,6.85,16.36,19.7C1123.56,456.2,1123.5,481,1123.5,505.85Z"/><path class="cls-2" d="M494.32,713c-10.41.25-20.69-.8-30.51-4.36-14.07-5.1-20.56-14.54-20.38-28.93C443.61,666,450.08,656.37,464,652a97.44,97.44,0,0,1,61.93.56c12.81,4.34,18.82,12.91,19,26.53.13,12.29-4.78,22-16.27,27.71C520.72,710.69,508.51,713,494.32,713Z"/><path class="cls-2" d="M1079.49,340.16a71,71,0,0,1,26.53,3.53c13,4.36,18.58,11.87,18.87,25.28.26,12.09-5.31,21.25-17.23,25.56a82.68,82.68,0,0,1-58.76-.44c-11.08-4.19-16.5-13.46-16.26-25.18s6.09-20.21,17.33-24.55A69.58,69.58,0,0,1,1079.49,340.16Z"/><path class="cls-3" d="M1649.81,239,1634,252.68c1.15,4.87,2.87,4,4,4.11,3.69.3,8.7-.68,8.63,4.76-.08,6.37-5.65,3-8.8,3.54-3.36.59-6.86.36-10.3.48-16.28,1-32.61-1.46-48.87.56-2.3.28-4.86-.6-6.82,1.37l-1.64-3.92c1.54-1.41,3.25-2.95,5.3-3,11.18-.24,21.27-4.58,31.57-8.13,6.24,1.91,11.3.32,15.59-4.7,4.52-5.29,10.3-9,16.54-12.12C1643.35,234.87,1647.3,234.72,1649.81,239Z"/><path class="cls-4" d="M275.64,286.33c-2.35-7.1,5.87-3.72,7.32-7.15l-9.61-10.91c1.34-3.21,4.09-3.43,7-3.32,7.56,2.81,11.75,11.91,21.15,11.32,4.23.56,7.51,3.24,11.22,5a3.66,3.66,0,0,1,1.57,4c-.56,1.65-2,2.17-3.44,2.82l-11.59,0C291.51,285.77,283.37,288.81,275.64,286.33Z"/><path class="cls-5" d="M310.84,288.07l2.24-1.82c4.95-5.34,11.08-1.67,16.66-2.18.52,1.37,1,2.73,1.55,4.09Z"/><path class="cls-6" d="M275.64,286.33c7.86.72,16-1.89,23.6,1.77l-23.47.19A4.48,4.48,0,0,1,275.64,286.33Z"/><path class="cls-7" d="M1617.27,116.39q42.57,25.29,83.26,53.5a8.78,8.78,0,0,1-2.14,4.63C1681,191.1,1665.82,210.1,1646,224.17c-7.73,4-15.79,1-23.71,1.15a10.14,10.14,0,0,1-5-.68,184.42,184.42,0,0,1-20.09-17.71C1566.35,175,1575.6,133.17,1617.27,116.39Z"/><path class="cls-8" d="M1544.5,126.44c0-25.53-.23-51.06-.08-76.58.09-15.4,10.21-25.67,25.65-26.71,19.75-1.34,31.83,6.8,33.73,23.75,2.27,20.2,3.72,40.49,5.53,60.74,2.24,7.12-2.44,10.21-7.71,12.51-14.56,6.34-29.26,12.37-44.22,17.67C1545.52,142,1542.9,139.5,1544.5,126.44Z"/><path class="cls-9" d="M1544.5,126.44c-.2,9.31,2.71,11.61,12,7.3,14.52-6.78,29.74-12.08,44.69-17.92,4-1.56,7.5-3.41,8.18-8.18,1.45,4,4.53,6.53,7.94,8.75-.38,5.51-5.36,6.85-8.85,9.3-31.81,22.26-34.67,51.61-7.56,79,5.57,5.62,11.08,11.31,16.62,17-5.38,7.8-12.45,2.92-18.93,2.52-2.21-.88-4.37-1.94-6.64-2.63-26.09-7.87-41.1-25.67-45.92-52C1543.39,155.3,1541.81,140.9,1544.5,126.44Z"/><path class="cls-7" d="M238.31,217.77c18-13.41,37.18-25.06,56.4-36.61,19.85,1.8,35.61,25.39,29,45.07-6.46,19.23-18.51,34.94-46.89,33.42-14.41-8.59-24.74-21.66-36.29-33.38C238.32,224,237,221.15,238.31,217.77Z"/><path class="cls-10" d="M302.26,170.46c1-12.32,1.88-24.65,3.18-36.94,1.51-14.22,9.5-21,23.2-20.21,13.54.78,19.92,7.72,20,22.07.09,17.87,0,35.73,0,53.6,2.26,7.9-2.53,9.64-8.39,8.12-11.65-3-22.75-7.8-33.47-13.27C301.23,181,300.85,175.91,302.26,170.46Z"/><path class="cls-11" d="M302.26,170.46c.34,4.64,1.62,8.29,6.73,10.16,10.88,4,21.64,8.32,32.27,12.91,5.26,2.28,6.69-.21,7.39-4.56,1.91,16,.57,31.58-7,46-6.72,12.84-18.59,18.79-32,22.34-6.45,3.94-15,3.39-20.39,9.66-2.45,1.74-5.21.71-7.84.92l-8.06.34A38,38,0,0,1,263,257.41c4-4.89,8.24-2.7,12.45-.29,3.71-.65,7.51-2.16,11.12-1.8,8.51.84,14.14-3,19.75-8.8,21.74-22.33,19.91-43.26-5.74-61.09-2-1.38-3.9-2.85-5.84-4.27C299.7,179.33,300.9,174.84,302.26,170.46Z"/><path class="cls-8" d="M1646.38,220q22-21.79,44.09-43.55c2.89-2.84,5.26-6.59,10.06-6.52l10,6.55c2.93,3.94,1.05,7.63-1.76,10-14,11.79-25,27.05-41.72,35.65a4.71,4.71,0,0,1-1.57.31C1658.84,224,1651.45,231.06,1646.38,220Z"/><path class="cls-12" d="M1803.5,240.48c-24,2.8-46.26-1.7-65.85-16.58-.2-3.69,2.64-4.78,5.25-5.26,12-2.2,23.92-1.39,35.71,1.38,2,.47,3.16,2.55,4.57,4,5.74,3.69,11.49,7.35,17.21,11.08C1802.27,236.38,1805.05,237.21,1803.5,240.48Z"/><path class="cls-12" d="M1723.05,184.47l12.11,6.95c3.64,4.49.3,7.74-2.32,10.63-7.08,7.84-14.09,15.86-24.19,20.12h0c-6.76,1.91-13.66.4-20.48.86-4.6-.44-4-4-2.37-5.91C1696.61,204.46,1705.75,189.77,1723.05,184.47Z"/><path class="cls-13" d="M1723.05,184.47c-12.12,12.43-25.42,23.7-36.54,37.11a2.35,2.35,0,0,1-3.55.66,47.18,47.18,0,0,1-15.86-.15c9.62-11.11,20.41-21,31.15-31.05,4.64-4.32,10.55-7.79,12.33-14.6A31.84,31.84,0,0,1,1723.05,184.47Z"/><path class="cls-14" d="M1708.65,222.17c5.67-8.38,14-14.17,20.71-21.56,2.45-2.7,6.34-4.58,5.8-9.19l17.19,11.7c-.38,12.59-10.08,15.87-19.47,19.46Z"/><path class="cls-15" d="M1754.3,203.71h49.45c-2.5,11.63-8.76,17.93-20.25,18.58a55.89,55.89,0,0,1-23.68-9.9C1756.92,210.29,1753.34,208.37,1754.3,203.71Z"/><path class="cls-16" d="M275.42,257.12l-12.45.29a6.48,6.48,0,0,1-1.58-.43c-13.51-5-21.38-16.51-30.59-26.42-2-2.17-3.42-5.32-.38-8.18l7.89-4.61C249.92,231.61,264.85,242.31,275.42,257.12Z"/><path class="cls-17" d="M1754.3,203.71l29.2,18.58a10.9,10.9,0,0,1-.32,1.78c-15.17-2.76-30.34-3.43-45.53-.17-1.76.19-3.51.33-4.77-1.32l19.47-19.46A4.35,4.35,0,0,1,1754.3,203.71Z"/><path class="cls-18" d="M230.42,222.38c.66,7.41,7.4,10.21,11.57,14.87,6.15,6.86,12.9,13.18,19.4,19.73l-14.9-.08c-12.47-5.79-21.56-15.2-28.73-26.68Z"/><path class="cls-19" d="M1609.18,255.26c-12.74,3.93-24.76,11.19-39,8.32.15-6.68,6-8.28,10-7.66,16,2.43,24.6-8.71,34.82-17.16,2.55-3.49,5.82-3.52,9.41-1.95C1627.12,245.6,1621.74,252.1,1609.18,255.26Z"/><path class="cls-20" d="M217.76,230.22C230.19,236,237.84,247,246.49,256.9l-16.07-.12c-7.2-2-12.79-6.3-17.25-12.17-2.33-3.06-4.48-6.21-1.79-10.18Z"/><path class="cls-21" d="M207.27,259.22c-13.35,9.5-28,12.65-45.59,9.52,4.73-4.83,9.35-7.31,14-9.71C185,250.58,201.61,250.68,207.27,259.22Z"/><path class="cls-22" d="M1624.89,239l-9.84-.25q-8.25-7.29-16.49-14.59c5.84-4.32,12.7-1,18.92-2.52l3.66.73c5,2,10.47,3.53,10.39,10.55C1630.8,236.56,1628.82,238.86,1624.89,239Z"/><path class="cls-14" d="M211.38,234.43c3.7,9.7,13.72,14,19,22.35l-17.07.08c-6.91-2.64-13.44-5.67-14.5-14.26Z"/><path class="cls-23" d="M198.85,242.6a73.38,73.38,0,0,1,14.5,14.26l-6.08,2.36c-10.5-3.85-21-2.66-31.56-.19l-1.62-3.27c4.8-9.25,14.57-9.61,22.79-12.72A5,5,0,0,1,198.85,242.6Z"/><path class="cls-24" d="M196.88,243c-7.08,5.17-13.65,11.26-22.8,12.72-2.13-.91-4.53-1.47-6.34-2.83-2.74-2.05-5.5-5.19-4.34-8.51s5.32-1.57,8.09-1.62C180,242.66,188.42,242.93,196.88,243Z"/><path class="cls-25" d="M288.13,265.61c3.33-12.73,13.66-7.29,21.51-8.26L298.23,268c-2.16,2.57-4.86,2.66-7.79,1.69C288.87,268.77,287.75,267.61,288.13,265.61Z"/><path class="cls-26" d="M290.78,268.26l7.45-.28c7.22,9.07,17.06,12.75,28.23,13.67-4.37,3.71-8.89,3-13.47.46l-12.23-2C296.8,276.66,289.59,276,290.78,268.26Z"/><path class="cls-27" d="M313,282.11l13.47-.46a3.23,3.23,0,0,1,3.28,2.42c-5.05,4.53-11.12,1.35-16.66,2.18Z"/><path class="cls-9" d="M1630,232.79l-8.84-10.41c8.35-1.43,17.12,1.5,25.24-2.42,5.95,4.22,12.83,1.09,19.15,2.44L1649.81,239l-11.75-.24C1632.87,240.15,1631.09,236.91,1630,232.79Z"/><path class="cls-14" d="M1683,222.24l3.55-.66,22.13.59A43,43,0,0,1,1683,222.24Z"/><path class="cls-1" d="M684.21,813.29c0,11.33-.05,22.67,0,34,0,5.29-1.52,10.08-7,11.18-6.18,1.24-8.29-4-9.56-8.66-6.37-23.31-6.19-46.83-.91-70.27,1.18-5.2,3.64-11.36,10.78-10.27,7.39,1.13,6.64,7.61,6.66,13.09C684.25,792.68,684.22,803,684.21,813.29Z"/><path class="cls-1" d="M292,766.65c0-8.28-.31-16.57.13-24.83.21-4-2.83-10.13,3.34-11.48,6.71-1.46,14-1.3,18.6,5.6a34.58,34.58,0,0,1,5.29,14.45c1.95,13.45,1.81,26.73-1.87,40-2.37,8.48-7.67,12.45-16.26,13.33-6.42.66-9.72-.68-9.35-8C292.4,786,292,776.31,292,766.65Z"/><path class="cls-1" d="M1161.93,824.64c.07,14.46.08,28.92-3.35,43.07-1.31,5.4-2.86,10.86-10.08,11.22-7.84.39-10-5.11-11.15-11a225.79,225.79,0,0,1,0-87c1.15-5.92,3.44-11.93,10.87-11.61,7.22.32,9.22,6.5,10.56,12.28C1162.1,795.73,1161.75,810.21,1161.93,824.64Z"/><path class="cls-28" d="M900.64,800c.36-6.17.2-14.44,2.79-22.38,1.59-4.88,4.27-8.75,10.09-8.63s8,4.24,9.42,9.22c4,14.23-.28,29.56-10.33,36.25-2.91,1.93-6.45,4.14-9.53,3-3.85-1.45-2.11-6-2.41-9.22C900.49,806.18,900.64,804.1,900.64,800Z"/><path class="cls-28" d="M1432.66,525.61c0,5.13.33,10.29-.11,15.39-.36,4.28-2.24,8-7.32,8.49-4.9.51-7.5-2.11-9.25-6.39-4.63-11.4-1.35-28,7-34.07,2.2-1.59,4.67-3.54,7.47-2.74,3.67,1,2,4.55,2.19,7,.27,4.09.08,8.2.08,12.31Z"/><path class="cls-29" d="M584.46,526.06c0,5.51.37,11.05-.13,16.51-.33,3.49-2.3,6.5-6.51,6.91a8.28,8.28,0,0,1-8.1-3.39c-6.87-9.17-3.86-30.17,5.47-37.06,2.2-1.63,4.7-3.61,7.5-2.59,3.47,1.28,1.76,4.74,1.93,7.22.28,4.12.08,8.27.08,12.4Z"/><path class="cls-30" d="M1630,232.79l8.08,6c-5.62,4.95-11.29,9.84-16.83,14.87-3.71,3.36-7.61,4.2-12,1.62q7.86-8.12,15.71-16.25Z"/><path class="cls-30" d="M290.78,268.26l10,11.8c-9.42.68-13.34-7.38-19.35-12.13,1.43-3.11,4.22-2.31,6.72-2.32Z"/><path class="cls-17" d="M1578,56.24a9.92,9.92,0,0,1-6.84,13.38c-6.81,1.32-8.6-5.65-9.56-11.46C1566.54,53.44,1572.32,55.5,1578,56.24Z"/><path class="cls-31" d="M1594.17,52.82c-.73,4.15-3.18,5.65-6.66,5.28-3-.31-5.18-2.13-4.87-5.4s2.37-6,5.93-5.73S1593.61,50,1594.17,52.82Z"/><path class="cls-32" d="M1561.37,54.26a36.93,36.93,0,0,1-5.24,3.28c-3.05,1.29-5.49.12-6.7-2.89a5.07,5.07,0,0,1,1.66-6.47c2.6-1.91,5.18-2.08,7.24.69a46.52,46.52,0,0,1,3,5.4Z"/><path class="cls-33" d="M1578,56.24c-5.13,3.56-10.94,1.25-16.4,1.92l-.18-3.9h0C1567.23,52,1573.2,48.94,1578,56.24Z"/><path class="cls-34" d="M336,139.25c-.48,3.37-1.39,6.86-5.11,7.55s-4.9-2.41-5.55-5.48C327.72,134.79,331.72,136.39,336,139.25Z"/><path class="cls-35" d="M336,139.25c-3.68,0-7.6-1.18-10.66,2.07-3.18-4.27,0-6.34,3.19-7.39C332.8,132.53,335.62,134.47,336,139.25Z"/><path class="cls-36" d="M317,131c2.18.06,3.88,1,3.91,3.52a3.75,3.75,0,0,1-3.65,4.07c-2.45.24-3.81-1.18-4-3.55S314.38,131.26,317,131Z"/><path class="cls-37" d="M345.49,134.41c0,2.38-1.19,3.9-3.59,4.22a3.17,3.17,0,0,1-3.7-2.77c-.48-2.26.22-4.26,2.73-4.67C343.25,130.81,344.85,132.07,345.49,134.41Z"/></svg>