<?xml version="1.0" encoding="UTF-8"?><svg xmlns="http://www.w3.org/2000/svg" viewBox="0 0 158.63 45.67"><defs><style>.e{fill:#ffdc4b;}.f{fill:#ffeca0;}.g{fill:#fcfafa;}.h{fill:#807650;}.i{fill:#407d96;stroke:#407d96;stroke-miterlimit:10;stroke-width:6px;}.j{isolation:isolate;opacity:.3;}</style></defs><g id="a"/><g id="b"><g id="c"><g id="d"><rect class="f" x=".23" width="157.99" height="43.66" rx="12.88" ry="12.88"/><rect class="h" x=".64" y="4.47" width="157.99" height="41.2" rx="12.51" ry="12.51"/><rect class="e" x=".64" y="2.8" width="157.99" height="41.2" rx="12.51" ry="12.51"/><g><path class="i" d="M45.93,30.13c-.78,0-1.31-.04-1.57-.13s-.4-.23-.4-.43V14.96c0-.34,.45-.68,1.36-1.02,.91-.34,1.92-.5,3.05-.5,1,0,1.66,.21,1.97,.63,.11,.16,.16,.31,.16,.47v10.4c1.91-.12,3.35-.19,4.32-.19,.33,0,.49,.52,.49,1.56s-.07,1.94-.21,2.69c-.14,.75-.33,1.13-.56,1.13h-8.61Z"/><path class="i" d="M63.84,30.34c-1.17,0-2.18-.1-3.03-.31-.84-.2-1.61-.56-2.3-1.08-1.42-1.03-2.14-2.96-2.14-5.77,0-2.5,.73-4.3,2.18-5.38,1.36-1,3.12-1.5,5.28-1.5,.92,0,1.71,.04,2.37,.13s1.33,.27,2.01,.55c.68,.28,1.23,.67,1.64,1.15,.41,.49,.75,1.15,1.02,2.01,.27,.85,.4,1.87,.4,3.04,0,2.38-.67,4.17-2.02,5.36-1.35,1.2-3.15,1.8-5.42,1.8Zm-.82-4.58c.11,.56,.22,.9,.34,1.01,.12,.11,.27,.16,.47,.16s.35-.05,.47-.16c.12-.11,.23-.45,.33-1.01,.1-.56,.15-1.27,.15-2.12s-.02-1.51-.06-1.97c-.04-.46-.09-.82-.14-1.07-.05-.25-.13-.45-.22-.59-.14-.2-.31-.31-.5-.31s-.36,.06-.48,.18c-.13,.12-.24,.46-.35,1.03-.11,.57-.16,1.38-.16,2.43s.05,1.85,.16,2.42Z"/><path class="i" d="M80.53,28.58v-1.36h-.19c-.06,.08-.17,.18-.33,.29-.16,.12-.54,.28-1.16,.48-.62,.2-1.31,.3-2.09,.3s-1.43-.12-1.96-.35c-.53-.23-.95-.53-1.24-.88-.3-.35-.53-.83-.7-1.42-.27-.92-.4-2.17-.4-3.76,0-1.81,.38-3.21,1.15-4.18,.3-.39,.74-.72,1.33-1s1.22-.41,1.89-.41,1.23,.07,1.67,.22c.44,.15,.77,.32,.99,.53,.44,.44,.69,.82,.75,1.15l.02,.21h.19l.21-.92c.16-.66,1.39-.99,3.71-.99,1.03,0,1.66,.16,1.88,.47,.12,.19,.2,.36,.23,.53,.03,.16,.05,.41,.05,.74v9.83c0,1.85-.6,3.25-1.81,4.23-1.21,.97-2.97,1.46-5.3,1.46-2.47,0-4.15-.24-5.05-.73-.39-.22-.59-.45-.59-.68,0-.38,.15-1.01,.46-1.9,.31-.89,.59-1.34,.86-1.34,.06,0,.28,.05,.66,.16,1.19,.31,2.16,.47,2.9,.47s1.24-.09,1.5-.28c.26-.19,.39-.48,.39-.89Zm-.94-2.96c.17,0,.31-.06,.42-.19,.11-.12,.16-.27,.16-.42v-4.84c-.06-.33-.23-.49-.52-.49-.59,0-.89,.98-.89,2.93,0,.91,.07,1.64,.22,2.18,.15,.55,.35,.82,.6,.82Z"/><path class="i" d="M91.42,11.82c1.03,0,1.84,.15,2.43,.46,.59,.31,.88,.86,.88,1.65,0,1.41-1.1,2.11-3.29,2.11s-3.29-.7-3.29-2.11,1.09-2.11,3.26-2.11Zm3.19,6.17v11.57c0,.17-.45,.31-1.35,.41-.9,.1-1.82,.15-2.77,.15s-1.56-.04-1.83-.13c-.27-.09-.41-.23-.41-.43v-11.15c0-.34,.44-.68,1.33-1.02,.88-.34,1.85-.5,2.9-.5,1.42,0,2.14,.37,2.14,1.1Z"/><path class="i" d="M110.52,22.34v7.23c0,.17-.45,.31-1.34,.41s-1.81,.15-2.76,.15-1.56-.04-1.83-.13-.41-.23-.41-.43v-7.46c0-.7-.03-1.17-.08-1.38-.06-.22-.11-.41-.15-.59-.11-.3-.31-.45-.59-.45-.44,0-.66,.21-.66,.63v9.25c0,.17-.44,.31-1.33,.41-.88,.1-1.8,.15-2.75,.15s-1.56-.04-1.84-.13-.42-.23-.42-.43v-11.57c0-.33,.45-.66,1.35-.99,.9-.33,1.85-.49,2.85-.49s1.56,.29,1.69,.87l.21,1.03h.16c.45-.91,1.24-1.54,2.35-1.9,.45-.14,.95-.21,1.5-.21,1.58,0,2.65,.47,3.2,1.42,.56,.95,.83,2.48,.83,4.61Z"/></g><g><path class="g" d="M45.93,30.13c-.78,0-1.31-.04-1.57-.13s-.4-.23-.4-.43V14.96c0-.34,.45-.68,1.36-1.02,.91-.34,1.92-.5,3.05-.5,1,0,1.66,.21,1.97,.63,.11,.16,.16,.31,.16,.47v10.4c1.91-.12,3.35-.19,4.32-.19,.33,0,.49,.52,.49,1.56s-.07,1.94-.21,2.69c-.14,.75-.33,1.13-.56,1.13h-8.61Z"/><path class="g" d="M63.84,30.34c-1.17,0-2.18-.1-3.03-.31-.84-.2-1.61-.56-2.3-1.08-1.42-1.03-2.14-2.96-2.14-5.77,0-2.5,.73-4.3,2.18-5.38,1.36-1,3.12-1.5,5.28-1.5,.92,0,1.71,.04,2.37,.13s1.33,.27,2.01,.55c.68,.28,1.23,.67,1.64,1.15,.41,.49,.75,1.15,1.02,2.01,.27,.85,.4,1.87,.4,3.04,0,2.38-.67,4.17-2.02,5.36-1.35,1.2-3.15,1.8-5.42,1.8Zm-.82-4.58c.11,.56,.22,.9,.34,1.01,.12,.11,.27,.16,.47,.16s.35-.05,.47-.16c.12-.11,.23-.45,.33-1.01,.1-.56,.15-1.27,.15-2.12s-.02-1.51-.06-1.97c-.04-.46-.09-.82-.14-1.07-.05-.25-.13-.45-.22-.59-.14-.2-.31-.31-.5-.31s-.36,.06-.48,.18c-.13,.12-.24,.46-.35,1.03-.11,.57-.16,1.38-.16,2.43s.05,1.85,.16,2.42Z"/><path class="g" d="M80.53,28.58v-1.36h-.19c-.06,.08-.17,.18-.33,.29-.16,.12-.54,.28-1.16,.48-.62,.2-1.31,.3-2.09,.3s-1.43-.12-1.96-.35c-.53-.23-.95-.53-1.24-.88-.3-.35-.53-.83-.7-1.42-.27-.92-.4-2.17-.4-3.76,0-1.81,.38-3.21,1.15-4.18,.3-.39,.74-.72,1.33-1s1.22-.41,1.89-.41,1.23,.07,1.67,.22c.44,.15,.77,.32,.99,.53,.44,.44,.69,.82,.75,1.15l.02,.21h.19l.21-.92c.16-.66,1.39-.99,3.71-.99,1.03,0,1.66,.16,1.88,.47,.12,.19,.2,.36,.23,.53,.03,.16,.05,.41,.05,.74v9.83c0,1.85-.6,3.25-1.81,4.23-1.21,.97-2.97,1.46-5.3,1.46-2.47,0-4.15-.24-5.05-.73-.39-.22-.59-.45-.59-.68,0-.38,.15-1.01,.46-1.9,.31-.89,.59-1.34,.86-1.34,.06,0,.28,.05,.66,.16,1.19,.31,2.16,.47,2.9,.47s1.24-.09,1.5-.28c.26-.19,.39-.48,.39-.89Zm-.94-2.96c.17,0,.31-.06,.42-.19,.11-.12,.16-.27,.16-.42v-4.84c-.06-.33-.23-.49-.52-.49-.59,0-.89,.98-.89,2.93,0,.91,.07,1.64,.22,2.18,.15,.55,.35,.82,.6,.82Z"/><path class="g" d="M91.42,11.82c1.03,0,1.84,.15,2.43,.46,.59,.31,.88,.86,.88,1.65,0,1.41-1.1,2.11-3.29,2.11s-3.29-.7-3.29-2.11,1.09-2.11,3.26-2.11Zm3.19,6.17v11.57c0,.17-.45,.31-1.35,.41-.9,.1-1.82,.15-2.77,.15s-1.56-.04-1.83-.13c-.27-.09-.41-.23-.41-.43v-11.15c0-.34,.44-.68,1.33-1.02,.88-.34,1.85-.5,2.9-.5,1.42,0,2.14,.37,2.14,1.1Z"/><path class="g" d="M110.52,22.34v7.23c0,.17-.45,.31-1.34,.41s-1.81,.15-2.76,.15-1.56-.04-1.83-.13-.41-.23-.41-.43v-7.46c0-.7-.03-1.17-.08-1.38-.06-.22-.11-.41-.15-.59-.11-.3-.31-.45-.59-.45-.44,0-.66,.21-.66,.63v9.25c0,.17-.44,.31-1.33,.41-.88,.1-1.8,.15-2.75,.15s-1.56-.04-1.84-.13-.42-.23-.42-.43v-11.57c0-.33,.45-.66,1.35-.99,.9-.33,1.85-.49,2.85-.49s1.56,.29,1.69,.87l.21,1.03h.16c.45-.91,1.24-1.54,2.35-1.9,.45-.14,.95-.21,1.5-.21,1.58,0,2.65,.47,3.2,1.42,.56,.95,.83,2.48,.83,4.61Z"/></g></g><path class="j" d="M158.13,12.01c-.48-6.75-6.09-11.99-12.85-12.01H12.9C5.79,.02,.03,5.76,0,12.86V30.78c0,1.13,.15,2.25,.44,3.34,.53,6.51,5.96,11.53,12.49,11.55H146.09c6.91-.02,12.51-5.62,12.53-12.53V15.29c-.02-1.11-.18-2.21-.49-3.28Z"/></g></g></svg>