<svg xmlns="http://www.w3.org/2000/svg" viewBox="0 0 379.89 74"><defs><style>.cls-1{fill:#407d96;stroke:#407d96;stroke-miterlimit:10;stroke-width:10px;}.cls-2{fill:#fff;}</style></defs><g id="Timer"><path class="cls-1" d="M30.05,57.48a36.54,36.54,0,0,1-9.12-1,18.7,18.7,0,0,1-7-3.55q-6.47-5.05-6.47-19.4A28.63,28.63,0,0,1,9.21,23.05a17.35,17.35,0,0,1,4.9-7.11q6.15-5.11,15.94-5.12a38,38,0,0,1,8.8.9A20.51,20.51,0,0,1,45.92,15q6.72,4.88,6.72,18.56,0,12.3-6.08,18.12T30.05,57.48Zm-2.12-11a2.87,2.87,0,0,0,4.23,0,9.3,9.3,0,0,0,1.28-4A54.35,54.35,0,0,0,34,34.06a52.37,52.37,0,0,0-.51-8.39,8.87,8.87,0,0,0-1.28-3.84,3,3,0,0,0-4.23,0,8.87,8.87,0,0,0-1.28,3.84,52.37,52.37,0,0,0-.51,8.39,54.35,54.35,0,0,0,.51,8.48A9.3,9.3,0,0,0,27.93,46.5Z"/><path class="cls-1" d="M60,56.26c-2.35-.59-3.52-1.49-3.52-2.68V13q0-1.41,3.77-2.75A23.44,23.44,0,0,1,68.19,8.9c3.75,0,5.63,1,5.63,2.95v7.23l-.7,4.42h.51a6.86,6.86,0,0,1,1.44-1.41,12.13,12.13,0,0,1,2.21-1.41,13.17,13.17,0,0,1,6.21-1.47,13.58,13.58,0,0,1,5.34.86A8.75,8.75,0,0,1,92,22.31a10.43,10.43,0,0,1,1.88,3.49,29.09,29.09,0,0,1,1.22,9.09q0,9-2,13.82a12.37,12.37,0,0,1-6.65,6.79q-4.62,2-13,2A58.69,58.69,0,0,1,60,56.26Zm13.76-8.19h2q2.06,0,2.05-9.82t-2.11-9.83H73.76Z"/><path class="cls-1" d="M116.48,62.92q-3.56,3.9-9.76,3.9t-8-1.18Q97,64.45,97,60.33c0-2.75.53-4.19,1.6-4.32a6.21,6.21,0,0,0,3.17-1.15,4,4,0,0,0,.93-3.08V25q0-1.41,3.61-2.79a22,22,0,0,1,7.84-1.37q5.89,0,5.89,3V51.14Q120,59,116.48,62.92ZM111.39,18.5q-9,0-9-5.82,0-3.27,2.4-4.48A15,15,0,0,1,111.52,7a15.36,15.36,0,0,1,6.56,1.12q2.27,1.13,2.27,4.45Q120.35,18.51,111.39,18.5Z"/><path class="cls-1" d="M141.66,42.44q0,4.16,4,4.16a16.3,16.3,0,0,0,6-1.57c2.48-1,3.78-1.57,3.91-1.57q1.22,0,3.2,3.65t2,5.38c0,1.66-1.7,2.92-5.12,3.77a40.84,40.84,0,0,1-10,1.28,36.9,36.9,0,0,1-8.19-.76,20.53,20.53,0,0,1-5.38-2,15.5,15.5,0,0,1-6-6.2,16.11,16.11,0,0,1-1.22-3.49,26,26,0,0,1-.64-5.83q0-11.64,6.08-16.06A18.36,18.36,0,0,1,137,20.1a38.15,38.15,0,0,1,8.77-.89q16.19,0,16.19,11.26,0,12-18.18,12Zm-.13-9.34v4.22a3.73,3.73,0,0,0,3-1.47,5.55,5.55,0,0,0,1.19-3.59c0-2.56-.66-3.84-2-3.84Q141.54,28.42,141.53,33.1Z"/><path class="cls-1" d="M174.05,55.82a16,16,0,0,1-3.3-2.12,12.15,12.15,0,0,1-2.91-3.32q-2.68-4.62-2.69-12a21.67,21.67,0,0,1,1.47-8.22,15.61,15.61,0,0,1,3.59-5.6,18.35,18.35,0,0,1,4.86-3.27,20.9,20.9,0,0,1,8.83-2q7.42,0,10.34,1.15a4,4,0,0,1,2.91,3.9,19.3,19.3,0,0,1-1,5.86c-.66,2.07-1.53,3.1-2.6,3.1a14.17,14.17,0,0,1-3.1-1.08A11.84,11.84,0,0,0,186,31.05a3.24,3.24,0,0,0-2.88,1.5c-.66,1-1,3-1,5.83s.3,4.84.9,5.88a3,3,0,0,0,2.78,1.57,11.76,11.76,0,0,0,4.7-1.28,20.33,20.33,0,0,1,3.14-1.28q1.22,0,2.34,2.88a14.53,14.53,0,0,1,1.12,5.12q0,3.46-3.59,4.83a27.66,27.66,0,0,1-9.69,1.38A24,24,0,0,1,174.05,55.82Z"/><path class="cls-1" d="M226.14,56.33c-.77.72-2.52,1.09-5.25,1.09a35.2,35.2,0,0,1-6.78-.55A14.56,14.56,0,0,1,209,54.73q-4.68-3.13-4.67-13.06v-10h-3.2c-.47,0-.88-.49-1.22-1.48a12.7,12.7,0,0,1-.51-4,11.71,11.71,0,0,1,.8-4.51c.53-1.3,1.22-2,2.08-2h2V12c0-1.33,1.29-2.39,3.87-3.2a24.94,24.94,0,0,1,7.58-1.22c3.88,0,5.83,1,5.83,2.88v9.28h4.73q1.66,0,1.67,4.8a15.22,15.22,0,0,1-.74,5.15c-.49,1.35-1.12,2-1.89,2H221.6V43.4a2.54,2.54,0,0,0,1.47,2.46,6,6,0,0,0,2.59.74A1.28,1.28,0,0,1,227,47.69a15.43,15.43,0,0,1,.25,3.26Q227.29,55.24,226.14,56.33Z"/><path class="cls-1" d="M240.73,7a14.57,14.57,0,0,1,6.63,1.25,4.63,4.63,0,0,1,2.4,4.51q0,5.76-9,5.76t-9-5.76Q231.84,7,240.73,7Zm8.71,16.84V55.37c0,.47-1.23.84-3.68,1.12a66.71,66.71,0,0,1-7.56.41,21.11,21.11,0,0,1-5-.35c-.74-.23-1.12-.63-1.12-1.18V25q0-1.41,3.62-2.79a22.18,22.18,0,0,1,7.9-1.37C247.49,20.81,249.44,21.81,249.44,23.82Z"/><path class="cls-1" d="M252.32,24.33c0-.43.61-1,1.85-1.7a23.3,23.3,0,0,1,5.06-1.95,23.06,23.06,0,0,1,6.27-.9c4.14,0,6.27,1,6.4,3l1.6,20.35h.83l1.41-19.32c.08-1.07,1.56-2,4.42-2.82a28.11,28.11,0,0,1,7.55-1.22,15.73,15.73,0,0,1,4.89.58,4.55,4.55,0,0,1,2.08,1.18,1.9,1.9,0,0,1,.45,1.06,60.14,60.14,0,0,1-2.72,6.59q-2.71,6.15-10.85,26.18-.63,1.53-10.43,1.53a14.19,14.19,0,0,1-4-.35,2,2,0,0,1-1.28-1.18q-4.41-11.15-9-21T252.32,24.33Z"/><path class="cls-1" d="M314.52,42.44q0,4.16,4,4.16a16.39,16.39,0,0,0,6-1.57c2.47-1,3.77-1.57,3.9-1.57q1.21,0,3.2,3.65t2,5.38c0,1.66-1.7,2.92-5.12,3.77a40.84,40.84,0,0,1-10,1.28,36.9,36.9,0,0,1-8.19-.76,20.53,20.53,0,0,1-5.38-2,15.5,15.5,0,0,1-6-6.2,16.11,16.11,0,0,1-1.22-3.49,26,26,0,0,1-.64-5.83q0-11.64,6.08-16.06a18.51,18.51,0,0,1,6.72-3.14,38.15,38.15,0,0,1,8.77-.89q16.19,0,16.19,11.26,0,12-18.18,12Zm-.13-9.34v4.22a3.73,3.73,0,0,0,3-1.47,5.55,5.55,0,0,0,1.19-3.59c0-2.56-.66-3.84-2-3.84Q314.4,28.42,314.39,33.1Z"/><path class="cls-1" d="M356.06,57.48q-10.62,0-15.55-2c-1.67-.72-2.5-1.43-2.5-2.11a15.63,15.63,0,0,1,1.54-6.14c1-2.35,1.92-3.52,2.68-3.52a22.81,22.81,0,0,1,4.32,1.4,18.08,18.08,0,0,0,6.21,1.41,10.65,10.65,0,0,0,3.33-.32,1.22,1.22,0,0,0,.8-1.25c0-.61-.43-1.11-1.28-1.47a10.88,10.88,0,0,0-3.2-.73,27.88,27.88,0,0,1-4.13-.77,25.45,25.45,0,0,1-4.13-1.47,7.52,7.52,0,0,1-3.2-3A8.43,8.43,0,0,1,339.67,33c0-1.6.05-2.79.13-3.58a12.8,12.8,0,0,1,1.06-3.33,8.88,8.88,0,0,1,2.62-3.49,16.14,16.14,0,0,1,5.25-2.43,27,27,0,0,1,8-1.09c2.94,0,5.41.1,7.39.29a31.86,31.86,0,0,1,4.67.73,13.17,13.17,0,0,1,2.79,1c1.23.64,1.85,1.34,1.85,2.11A12.4,12.4,0,0,1,371.61,29c-1.19,2.18-2.14,3.26-2.85,3.26a20.16,20.16,0,0,1-4.57-1.12A19.68,19.68,0,0,0,359,30c-1.79,0-2.69.52-2.69,1.54q0,1,1.83,1.44c1.21.32,2.68.65,4.38,1a35.75,35.75,0,0,1,5.15,1.44,9.5,9.5,0,0,1,4.42,3.36,9.93,9.93,0,0,1,1.82,6.15Q373.91,57.48,356.06,57.48Z"/><path class="cls-2" d="M30.05,57.48a36.54,36.54,0,0,1-9.12-1,18.7,18.7,0,0,1-7-3.55q-6.47-5.05-6.47-19.4A28.63,28.63,0,0,1,9.21,23.05a17.35,17.35,0,0,1,4.9-7.11q6.15-5.11,15.94-5.12a38,38,0,0,1,8.8.9A20.51,20.51,0,0,1,45.92,15q6.72,4.88,6.72,18.56,0,12.3-6.08,18.12T30.05,57.48Zm-2.12-11a2.87,2.87,0,0,0,4.23,0,9.3,9.3,0,0,0,1.28-4A54.35,54.35,0,0,0,34,34.06a52.37,52.37,0,0,0-.51-8.39,8.87,8.87,0,0,0-1.28-3.84,3,3,0,0,0-4.23,0,8.87,8.87,0,0,0-1.28,3.84,52.37,52.37,0,0,0-.51,8.39,54.35,54.35,0,0,0,.51,8.48A9.3,9.3,0,0,0,27.93,46.5Z"/><path class="cls-2" d="M60,56.26c-2.35-.59-3.52-1.49-3.52-2.68V13q0-1.41,3.77-2.75A23.44,23.44,0,0,1,68.19,8.9c3.75,0,5.63,1,5.63,2.95v7.23l-.7,4.42h.51a6.86,6.86,0,0,1,1.44-1.41,12.13,12.13,0,0,1,2.21-1.41,13.17,13.17,0,0,1,6.21-1.47,13.58,13.58,0,0,1,5.34.86A8.75,8.75,0,0,1,92,22.31a10.43,10.43,0,0,1,1.88,3.49,29.09,29.09,0,0,1,1.22,9.09q0,9-2,13.82a12.37,12.37,0,0,1-6.65,6.79q-4.62,2-13,2A58.69,58.69,0,0,1,60,56.26Zm13.76-8.19h2q2.06,0,2.05-9.82t-2.11-9.83H73.76Z"/><path class="cls-2" d="M116.48,62.92q-3.56,3.9-9.76,3.9t-8-1.18Q97,64.45,97,60.33c0-2.75.53-4.19,1.6-4.32a6.21,6.21,0,0,0,3.17-1.15,4,4,0,0,0,.93-3.08V25q0-1.41,3.61-2.79a22,22,0,0,1,7.84-1.37q5.89,0,5.89,3V51.14Q120,59,116.48,62.92ZM111.39,18.5q-9,0-9-5.82,0-3.27,2.4-4.48A15,15,0,0,1,111.52,7a15.36,15.36,0,0,1,6.56,1.12q2.27,1.13,2.27,4.45Q120.35,18.51,111.39,18.5Z"/><path class="cls-2" d="M141.66,42.44q0,4.16,4,4.16a16.3,16.3,0,0,0,6-1.57c2.48-1,3.78-1.57,3.91-1.57q1.22,0,3.2,3.65t2,5.38c0,1.66-1.7,2.92-5.12,3.77a40.84,40.84,0,0,1-10,1.28,36.9,36.9,0,0,1-8.19-.76,20.53,20.53,0,0,1-5.38-2,15.5,15.5,0,0,1-6-6.2,16.11,16.11,0,0,1-1.22-3.49,26,26,0,0,1-.64-5.83q0-11.64,6.08-16.06A18.36,18.36,0,0,1,137,20.1a38.15,38.15,0,0,1,8.77-.89q16.19,0,16.19,11.26,0,12-18.18,12Zm-.13-9.34v4.22a3.73,3.73,0,0,0,3-1.47,5.55,5.55,0,0,0,1.19-3.59c0-2.56-.66-3.84-2-3.84Q141.54,28.42,141.53,33.1Z"/><path class="cls-2" d="M174.05,55.82a16,16,0,0,1-3.3-2.12,12.15,12.15,0,0,1-2.91-3.32q-2.68-4.62-2.69-12a21.67,21.67,0,0,1,1.47-8.22,15.61,15.61,0,0,1,3.59-5.6,18.35,18.35,0,0,1,4.86-3.27,20.9,20.9,0,0,1,8.83-2q7.42,0,10.34,1.15a4,4,0,0,1,2.91,3.9,19.3,19.3,0,0,1-1,5.86c-.66,2.07-1.53,3.1-2.6,3.1a14.17,14.17,0,0,1-3.1-1.08A11.84,11.84,0,0,0,186,31.05a3.24,3.24,0,0,0-2.88,1.5c-.66,1-1,3-1,5.83s.3,4.84.9,5.88a3,3,0,0,0,2.78,1.57,11.76,11.76,0,0,0,4.7-1.28,20.33,20.33,0,0,1,3.14-1.28q1.22,0,2.34,2.88a14.53,14.53,0,0,1,1.12,5.12q0,3.46-3.59,4.83a27.66,27.66,0,0,1-9.69,1.38A24,24,0,0,1,174.05,55.82Z"/><path class="cls-2" d="M226.14,56.33c-.77.72-2.52,1.09-5.25,1.09a35.2,35.2,0,0,1-6.78-.55A14.56,14.56,0,0,1,209,54.73q-4.68-3.13-4.67-13.06v-10h-3.2c-.47,0-.88-.49-1.22-1.48a12.7,12.7,0,0,1-.51-4,11.71,11.71,0,0,1,.8-4.51c.53-1.3,1.22-2,2.08-2h2V12c0-1.33,1.29-2.39,3.87-3.2a24.94,24.94,0,0,1,7.58-1.22c3.88,0,5.83,1,5.83,2.88v9.28h4.73q1.66,0,1.67,4.8a15.22,15.22,0,0,1-.74,5.15c-.49,1.35-1.12,2-1.89,2H221.6V43.4a2.54,2.54,0,0,0,1.47,2.46,6,6,0,0,0,2.59.74A1.28,1.28,0,0,1,227,47.69a15.43,15.43,0,0,1,.25,3.26Q227.29,55.24,226.14,56.33Z"/><path class="cls-2" d="M240.73,7a14.57,14.57,0,0,1,6.63,1.25,4.63,4.63,0,0,1,2.4,4.51q0,5.76-9,5.76t-9-5.76Q231.84,7,240.73,7Zm8.71,16.84V55.37c0,.47-1.23.84-3.68,1.12a66.71,66.71,0,0,1-7.56.41,21.11,21.11,0,0,1-5-.35c-.74-.23-1.12-.63-1.12-1.18V25q0-1.41,3.62-2.79a22.18,22.18,0,0,1,7.9-1.37C247.49,20.81,249.44,21.81,249.44,23.82Z"/><path class="cls-2" d="M252.32,24.33c0-.43.61-1,1.85-1.7a23.3,23.3,0,0,1,5.06-1.95,23.06,23.06,0,0,1,6.27-.9c4.14,0,6.27,1,6.4,3l1.6,20.35h.83l1.41-19.32c.08-1.07,1.56-2,4.42-2.82a28.11,28.11,0,0,1,7.55-1.22,15.73,15.73,0,0,1,4.89.58,4.55,4.55,0,0,1,2.08,1.18,1.9,1.9,0,0,1,.45,1.06,60.14,60.14,0,0,1-2.72,6.59q-2.71,6.15-10.85,26.18-.63,1.53-10.43,1.53a14.19,14.19,0,0,1-4-.35,2,2,0,0,1-1.28-1.18q-4.41-11.15-9-21T252.32,24.33Z"/><path class="cls-2" d="M314.52,42.44q0,4.16,4,4.16a16.39,16.39,0,0,0,6-1.57c2.47-1,3.77-1.57,3.9-1.57q1.21,0,3.2,3.65t2,5.38c0,1.66-1.7,2.92-5.12,3.77a40.84,40.84,0,0,1-10,1.28,36.9,36.9,0,0,1-8.19-.76,20.53,20.53,0,0,1-5.38-2,15.5,15.5,0,0,1-6-6.2,16.11,16.11,0,0,1-1.22-3.49,26,26,0,0,1-.64-5.83q0-11.64,6.08-16.06a18.51,18.51,0,0,1,6.72-3.14,38.15,38.15,0,0,1,8.77-.89q16.19,0,16.19,11.26,0,12-18.18,12Zm-.13-9.34v4.22a3.73,3.73,0,0,0,3-1.47,5.55,5.55,0,0,0,1.19-3.59c0-2.56-.66-3.84-2-3.84Q314.4,28.42,314.39,33.1Z"/><path class="cls-2" d="M356.06,57.48q-10.62,0-15.55-2c-1.67-.72-2.5-1.43-2.5-2.11a15.63,15.63,0,0,1,1.54-6.14c1-2.35,1.92-3.52,2.68-3.52a22.81,22.81,0,0,1,4.32,1.4,18.08,18.08,0,0,0,6.21,1.41,10.65,10.65,0,0,0,3.33-.32,1.22,1.22,0,0,0,.8-1.25c0-.61-.43-1.11-1.28-1.47a10.88,10.88,0,0,0-3.2-.73,27.88,27.88,0,0,1-4.13-.77,25.45,25.45,0,0,1-4.13-1.47,7.52,7.52,0,0,1-3.2-3A8.43,8.43,0,0,1,339.67,33c0-1.6.05-2.79.13-3.58a12.8,12.8,0,0,1,1.06-3.33,8.88,8.88,0,0,1,2.62-3.49,16.14,16.14,0,0,1,5.25-2.43,27,27,0,0,1,8-1.09c2.94,0,5.41.1,7.39.29a31.86,31.86,0,0,1,4.67.73,13.17,13.17,0,0,1,2.79,1c1.23.64,1.85,1.34,1.85,2.11A12.4,12.4,0,0,1,371.61,29c-1.19,2.18-2.14,3.26-2.85,3.26a20.16,20.16,0,0,1-4.57-1.12A19.68,19.68,0,0,0,359,30c-1.79,0-2.69.52-2.69,1.54q0,1,1.83,1.44c1.21.32,2.68.65,4.38,1a35.75,35.75,0,0,1,5.15,1.44,9.5,9.5,0,0,1,4.42,3.36,9.93,9.93,0,0,1,1.82,6.15Q373.91,57.48,356.06,57.48Z"/></g></svg>