<svg xmlns="http://www.w3.org/2000/svg" viewBox="0 0 159.96 47.5"><defs><style>.cls-1{fill:#ffeca0;}.cls-2{fill:#807650;}.cls-3{fill:#ffdc4b;}.cls-4{fill:#407d96;stroke:#407d96;stroke-miterlimit:10;stroke-width:6px;}.cls-5{fill:#fff;}.cls-6{opacity:0.3;}</style></defs><g id="Timer"><rect class="cls-1" x="0.56" y="1.72" width="157.99" height="43.66" rx="12.88"/><rect class="cls-2" x="0.97" y="6.19" width="157.99" height="41.2" rx="12.51"/><rect class="cls-3" x="0.97" y="4.52" width="157.99" height="41.2" rx="12.51"/><path class="cls-4" d="M22.78,31c0,.19-.43.33-1.29.45a20,20,0,0,1-2.57.16,5.5,5.5,0,0,1-1.64-.14.5.5,0,0,1-.36-.47V17.46c0-.68,2-1,6.07-1a14.73,14.73,0,0,1,4.85.5,3.62,3.62,0,0,1,1.94,1.6,7.33,7.33,0,0,1,.67,3.36,6.68,6.68,0,0,1-1,4.06,3.44,3.44,0,0,1-1.39,1.21,11.21,11.21,0,0,1-1.15.39,10.15,10.15,0,0,1-1.12.18c-.62.05-1.47.08-2.53.08l-.51,0Zm0-6.7h.51a1.41,1.41,0,0,0,.63-.12,1,1,0,0,0,.41-.63,4.58,4.58,0,0,0,.18-1.45,4.09,4.09,0,0,0-.2-1.44,1.13,1.13,0,0,0-.4-.59,1.17,1.17,0,0,0-.48-.09H22.8Z"/><path class="cls-4" d="M37.41,16.15v15c0,.15-.4.28-1.2.37a22.24,22.24,0,0,1-2.48.13,6.93,6.93,0,0,1-1.64-.11c-.25-.08-.37-.21-.37-.39V16.53c0-.31.39-.61,1.19-.91a7.4,7.4,0,0,1,2.56-.44C36.76,15.18,37.41,15.5,37.41,16.15Z"/><path class="cls-4" d="M42.89,31.81a4.6,4.6,0,0,1-3-.9,3,3,0,0,1-.77-1.12,4.2,4.2,0,0,1-.33-1.73,3.2,3.2,0,0,1,.47-1.73A3.44,3.44,0,0,1,40.4,25.2,6.53,6.53,0,0,1,42,24.54a11.91,11.91,0,0,1,3-.36h.7A1.31,1.31,0,0,0,45.1,23a1.5,1.5,0,0,0-.76-.15,3.52,3.52,0,0,0-1.25.28,7.73,7.73,0,0,0-1.21.56,1.7,1.7,0,0,1-.65.28c-.26,0-.6-.33-1-1a3.48,3.48,0,0,1-.65-1.82q0-.28.78-.72a8.85,8.85,0,0,1,2.2-.81,10.83,10.83,0,0,1,2.77-.37,10.54,10.54,0,0,1,2.33.22,7.18,7.18,0,0,1,1.61.54,3.3,3.3,0,0,1,1.05.84,5.21,5.21,0,0,1,.65,1,3.43,3.43,0,0,1,.33,1.09,10.38,10.38,0,0,1,.15,1.92v6.35c0,.15-.38.28-1.13.37a18.77,18.77,0,0,1-2.23.13,10.44,10.44,0,0,1-1.44-.06q-.33-.06-.39-.15a.64.64,0,0,1-.1-.29L46,29.92h-.17C45.43,31.18,44.47,31.81,42.89,31.81Zm2.83-3.5V25.85a1,1,0,0,0-.89.46,1.79,1.79,0,0,0-.34,1.06c0,.92.21,1.39.64,1.39a.65.65,0,0,0,.43-.14A.41.41,0,0,0,45.72,28.31Z"/><path class="cls-4" d="M60,30.25V29h-.17a2.76,2.76,0,0,1-1.31.72,5.29,5.29,0,0,1-1.74.27,4.34,4.34,0,0,1-1.68-.3,2.87,2.87,0,0,1-1.15-.83,3.7,3.7,0,0,1-.66-1.38,14.78,14.78,0,0,1-.4-3.88V20.7c0-.29.42-.58,1.25-.87a7.85,7.85,0,0,1,2.61-.43c1.22,0,1.83.31,1.83,1V23c0,2.81.23,4.22.68,4.22.27,0,.4-.19.4-.57V20.7c0-.29.44-.58,1.33-.87a9,9,0,0,1,2.84-.43c1,0,1.52.27,1.52.82v10q0,4.69-6.36,4.7a10.82,10.82,0,0,1-4.56-.65c-.35-.2-.52-.4-.52-.61a6,6,0,0,1,.42-1.7c.28-.79.54-1.19.78-1.19a4.11,4.11,0,0,1,.59.13,10.33,10.33,0,0,0,2.6.42,2.71,2.71,0,0,0,1.37-.23A.93.93,0,0,0,60,30.25Z"/><path class="cls-4" d="M78.79,31.81a11.94,11.94,0,0,1-3-.32,6.17,6.17,0,0,1-2.31-1.17q-2.13-1.66-2.13-6.39a9.4,9.4,0,0,1,.58-3.46,5.75,5.75,0,0,1,1.61-2.34,8,8,0,0,1,5.25-1.68,12.41,12.41,0,0,1,2.9.29A6.76,6.76,0,0,1,84,17.82c1.48,1.06,2.21,3.1,2.21,6.11,0,2.7-.66,4.69-2,6A7.52,7.52,0,0,1,78.79,31.81ZM78.1,28.2a1,1,0,0,0,1.39,0,3,3,0,0,0,.42-1.31,18.09,18.09,0,0,0,.17-2.79,17.31,17.31,0,0,0-.17-2.76,2.89,2.89,0,0,0-.42-1.27,1,1,0,0,0-1.39,0,2.89,2.89,0,0,0-.42,1.27,16.19,16.19,0,0,0-.17,2.76,16.91,16.91,0,0,0,.17,2.79A3,3,0,0,0,78.1,28.2Z"/><path class="cls-4" d="M100.21,24.63v6.49c0,.15-.4.28-1.2.37a22.24,22.24,0,0,1-2.48.13,6.93,6.93,0,0,1-1.64-.11c-.25-.08-.37-.21-.37-.39V24.41a7.49,7.49,0,0,0-.07-1.24c0-.2-.1-.37-.14-.53a.55.55,0,0,0-.53-.4.51.51,0,0,0-.59.57v8.31c0,.15-.4.28-1.19.37a21.93,21.93,0,0,1-2.47.13,7.09,7.09,0,0,1-1.65-.11c-.25-.08-.38-.21-.38-.39V20.73c0-.3.4-.59,1.21-.89a7.53,7.53,0,0,1,2.56-.44c.9,0,1.41.26,1.52.78l.19.93h.15a3.35,3.35,0,0,1,2.11-1.71,4.36,4.36,0,0,1,1.35-.19,3,3,0,0,1,2.87,1.27A8.57,8.57,0,0,1,100.21,24.63Z"/><path class="cls-4" d="M107.38,16.15v15c0,.15-.4.28-1.2.37a22.24,22.24,0,0,1-2.48.13,6.93,6.93,0,0,1-1.64-.11c-.25-.08-.37-.21-.37-.39V16.53c0-.31.39-.61,1.19-.91a7.4,7.4,0,0,1,2.56-.44C106.73,15.18,107.38,15.5,107.38,16.15Z"/><path class="cls-4" d="M111.78,15.18a4.88,4.88,0,0,1,2.19.41,1.54,1.54,0,0,1,.79,1.49c0,1.26-1,1.9-3,1.9s-3-.64-3-1.9S109.83,15.18,111.78,15.18Zm2.87,5.55V31.12c0,.15-.4.28-1.21.37a22.55,22.55,0,0,1-2.49.13,6.93,6.93,0,0,1-1.64-.11c-.25-.08-.37-.21-.37-.39v-10c0-.31.4-.62,1.19-.92a7.28,7.28,0,0,1,2.6-.46C114,19.73,114.65,20.07,114.65,20.73Z"/><path class="cls-4" d="M129,24.63v6.49c0,.15-.41.28-1.21.37a22.06,22.06,0,0,1-2.47.13,7.09,7.09,0,0,1-1.65-.11c-.24-.08-.37-.21-.37-.39V24.41a6.49,6.49,0,0,0-.07-1.24c-.05-.2-.1-.37-.14-.53a.54.54,0,0,0-.53-.4.51.51,0,0,0-.59.57v8.31c0,.15-.39.28-1.19.37a21.75,21.75,0,0,1-2.46.13,7.19,7.19,0,0,1-1.66-.11c-.25-.08-.38-.21-.38-.39V20.73c0-.3.41-.59,1.22-.89A7.48,7.48,0,0,1,120,19.4c.9,0,1.4.26,1.51.78l.19.93h.15A3.37,3.37,0,0,1,124,19.4a4.45,4.45,0,0,1,1.35-.19,3.05,3.05,0,0,1,2.88,1.27A8.57,8.57,0,0,1,129,24.63Z"/><path class="cls-4" d="M136,26.86c0,.91.44,1.37,1.31,1.37a5.27,5.27,0,0,0,2-.52q1.23-.51,1.29-.51.41,0,1.05,1.2a4.32,4.32,0,0,1,.66,1.77c0,.55-.57,1-1.69,1.24a13.12,13.12,0,0,1-3.3.43,12.09,12.09,0,0,1-2.7-.26,6.81,6.81,0,0,1-1.77-.64,5.13,5.13,0,0,1-2-2.05,5.27,5.27,0,0,1-.4-1.14,8.69,8.69,0,0,1-.21-1.92q0-3.84,2-5.29a6,6,0,0,1,2.22-1,12.72,12.72,0,0,1,2.88-.29c3.56,0,5.34,1.23,5.34,3.71s-2,3.94-6,3.94Zm0-3.08v1.39a1.23,1.23,0,0,0,1-.48,1.82,1.82,0,0,0,.39-1.18c0-.84-.21-1.27-.65-1.27S135.92,22.76,135.92,23.78Z"/><path class="cls-5" d="M22.78,31c0,.19-.43.33-1.29.45a20,20,0,0,1-2.57.16,5.5,5.5,0,0,1-1.64-.14.5.5,0,0,1-.36-.47V17.46c0-.68,2-1,6.07-1a14.73,14.73,0,0,1,4.85.5,3.62,3.62,0,0,1,1.94,1.6,7.33,7.33,0,0,1,.67,3.36,6.68,6.68,0,0,1-1,4.06,3.44,3.44,0,0,1-1.39,1.21,11.21,11.21,0,0,1-1.15.39,10.15,10.15,0,0,1-1.12.18c-.62.05-1.47.08-2.53.08l-.51,0Zm0-6.7h.51a1.41,1.41,0,0,0,.63-.12,1,1,0,0,0,.41-.63,4.58,4.58,0,0,0,.18-1.45,4.09,4.09,0,0,0-.2-1.44,1.13,1.13,0,0,0-.4-.59,1.17,1.17,0,0,0-.48-.09H22.8Z"/><path class="cls-5" d="M37.41,16.15v15c0,.15-.4.28-1.2.37a22.24,22.24,0,0,1-2.48.13,6.93,6.93,0,0,1-1.64-.11c-.25-.08-.37-.21-.37-.39V16.53c0-.31.39-.61,1.19-.91a7.4,7.4,0,0,1,2.56-.44C36.76,15.18,37.41,15.5,37.41,16.15Z"/><path class="cls-5" d="M42.89,31.81a4.6,4.6,0,0,1-3-.9,3,3,0,0,1-.77-1.12,4.2,4.2,0,0,1-.33-1.73,3.2,3.2,0,0,1,.47-1.73A3.44,3.44,0,0,1,40.4,25.2,6.53,6.53,0,0,1,42,24.54a11.91,11.91,0,0,1,3-.36h.7A1.31,1.31,0,0,0,45.1,23a1.5,1.5,0,0,0-.76-.15,3.52,3.52,0,0,0-1.25.28,7.73,7.73,0,0,0-1.21.56,1.7,1.7,0,0,1-.65.28c-.26,0-.6-.33-1-1a3.48,3.48,0,0,1-.65-1.82q0-.28.78-.72a8.85,8.85,0,0,1,2.2-.81,10.83,10.83,0,0,1,2.77-.37,10.54,10.54,0,0,1,2.33.22,7.18,7.18,0,0,1,1.61.54,3.3,3.3,0,0,1,1.05.84,5.21,5.21,0,0,1,.65,1,3.43,3.43,0,0,1,.33,1.09,10.38,10.38,0,0,1,.15,1.92v6.35c0,.15-.38.28-1.13.37a18.77,18.77,0,0,1-2.23.13,10.44,10.44,0,0,1-1.44-.06q-.33-.06-.39-.15a.64.64,0,0,1-.1-.29L46,29.92h-.17C45.43,31.18,44.47,31.81,42.89,31.81Zm2.83-3.5V25.85a1,1,0,0,0-.89.46,1.79,1.79,0,0,0-.34,1.06c0,.92.21,1.39.64,1.39a.65.65,0,0,0,.43-.14A.41.41,0,0,0,45.72,28.31Z"/><path class="cls-5" d="M60,30.25V29h-.17a2.76,2.76,0,0,1-1.31.72,5.29,5.29,0,0,1-1.74.27,4.34,4.34,0,0,1-1.68-.3,2.87,2.87,0,0,1-1.15-.83,3.7,3.7,0,0,1-.66-1.38,14.78,14.78,0,0,1-.4-3.88V20.7c0-.29.42-.58,1.25-.87a7.85,7.85,0,0,1,2.61-.43c1.22,0,1.83.31,1.83,1V23c0,2.81.23,4.22.68,4.22.27,0,.4-.19.4-.57V20.7c0-.29.44-.58,1.33-.87a9,9,0,0,1,2.84-.43c1,0,1.52.27,1.52.82v10q0,4.69-6.36,4.7a10.82,10.82,0,0,1-4.56-.65c-.35-.2-.52-.4-.52-.61a6,6,0,0,1,.42-1.7c.28-.79.54-1.19.78-1.19a4.11,4.11,0,0,1,.59.13,10.33,10.33,0,0,0,2.6.42,2.71,2.71,0,0,0,1.37-.23A.93.93,0,0,0,60,30.25Z"/><path class="cls-5" d="M78.79,31.81a11.94,11.94,0,0,1-3-.32,6.17,6.17,0,0,1-2.31-1.17q-2.13-1.66-2.13-6.39a9.4,9.4,0,0,1,.58-3.46,5.75,5.75,0,0,1,1.61-2.34,8,8,0,0,1,5.25-1.68,12.41,12.41,0,0,1,2.9.29A6.76,6.76,0,0,1,84,17.82c1.48,1.06,2.21,3.1,2.21,6.11,0,2.7-.66,4.69-2,6A7.52,7.52,0,0,1,78.79,31.81ZM78.1,28.2a1,1,0,0,0,1.39,0,3,3,0,0,0,.42-1.31,18.09,18.09,0,0,0,.17-2.79,17.31,17.31,0,0,0-.17-2.76,2.89,2.89,0,0,0-.42-1.27,1,1,0,0,0-1.39,0,2.89,2.89,0,0,0-.42,1.27,16.19,16.19,0,0,0-.17,2.76,16.91,16.91,0,0,0,.17,2.79A3,3,0,0,0,78.1,28.2Z"/><path class="cls-5" d="M100.21,24.63v6.49c0,.15-.4.28-1.2.37a22.24,22.24,0,0,1-2.48.13,6.93,6.93,0,0,1-1.64-.11c-.25-.08-.37-.21-.37-.39V24.41a7.49,7.49,0,0,0-.07-1.24c0-.2-.1-.37-.14-.53a.55.55,0,0,0-.53-.4.51.51,0,0,0-.59.57v8.31c0,.15-.4.28-1.19.37a21.93,21.93,0,0,1-2.47.13,7.09,7.09,0,0,1-1.65-.11c-.25-.08-.38-.21-.38-.39V20.73c0-.3.4-.59,1.21-.89a7.53,7.53,0,0,1,2.56-.44c.9,0,1.41.26,1.52.78l.19.93h.15a3.35,3.35,0,0,1,2.11-1.71,4.36,4.36,0,0,1,1.35-.19,3,3,0,0,1,2.87,1.27A8.57,8.57,0,0,1,100.21,24.63Z"/><path class="cls-5" d="M107.38,16.15v15c0,.15-.4.28-1.2.37a22.24,22.24,0,0,1-2.48.13,6.93,6.93,0,0,1-1.64-.11c-.25-.08-.37-.21-.37-.39V16.53c0-.31.39-.61,1.19-.91a7.4,7.4,0,0,1,2.56-.44C106.73,15.18,107.38,15.5,107.38,16.15Z"/><path class="cls-5" d="M111.78,15.18a4.88,4.88,0,0,1,2.19.41,1.54,1.54,0,0,1,.79,1.49c0,1.26-1,1.9-3,1.9s-3-.64-3-1.9S109.83,15.18,111.78,15.18Zm2.87,5.55V31.12c0,.15-.4.28-1.21.37a22.55,22.55,0,0,1-2.49.13,6.93,6.93,0,0,1-1.64-.11c-.25-.08-.37-.21-.37-.39v-10c0-.31.4-.62,1.19-.92a7.28,7.28,0,0,1,2.6-.46C114,19.73,114.65,20.07,114.65,20.73Z"/><path class="cls-5" d="M129,24.63v6.49c0,.15-.41.28-1.21.37a22.06,22.06,0,0,1-2.47.13,7.09,7.09,0,0,1-1.65-.11c-.24-.08-.37-.21-.37-.39V24.41a6.49,6.49,0,0,0-.07-1.24c-.05-.2-.1-.37-.14-.53a.54.54,0,0,0-.53-.4.51.51,0,0,0-.59.57v8.31c0,.15-.39.28-1.19.37a21.75,21.75,0,0,1-2.46.13,7.19,7.19,0,0,1-1.66-.11c-.25-.08-.38-.21-.38-.39V20.73c0-.3.41-.59,1.22-.89A7.48,7.48,0,0,1,120,19.4c.9,0,1.4.26,1.51.78l.19.93h.15A3.37,3.37,0,0,1,124,19.4a4.45,4.45,0,0,1,1.35-.19,3.05,3.05,0,0,1,2.88,1.27A8.57,8.57,0,0,1,129,24.63Z"/><path class="cls-5" d="M136,26.86c0,.91.44,1.37,1.31,1.37a5.27,5.27,0,0,0,2-.52q1.23-.51,1.29-.51.41,0,1.05,1.2a4.32,4.32,0,0,1,.66,1.77c0,.55-.57,1-1.69,1.24a13.12,13.12,0,0,1-3.3.43,12.09,12.09,0,0,1-2.7-.26,6.81,6.81,0,0,1-1.77-.64,5.13,5.13,0,0,1-2-2.05,5.27,5.27,0,0,1-.4-1.14,8.69,8.69,0,0,1-.21-1.92q0-3.84,2-5.29a6,6,0,0,1,2.22-1,12.72,12.72,0,0,1,2.88-.29c3.56,0,5.34,1.23,5.34,3.71s-2,3.94-6,3.94Zm0-3.08v1.39a1.23,1.23,0,0,0,1-.48,1.82,1.82,0,0,0,.39-1.18c0-.84-.21-1.27-.65-1.27S135.92,22.76,135.92,23.78Z"/><path class="cls-6" d="M158.51,13.75a12.92,12.92,0,0,0-12.84-12H13.44A12.92,12.92,0,0,0,.56,14.6V32.5A12.78,12.78,0,0,0,1,35.85,12.54,12.54,0,0,0,13.48,47.38h133A12.55,12.55,0,0,0,159,34.87V17A12.73,12.73,0,0,0,158.51,13.75Z"/></g></svg>