<svg xmlns="http://www.w3.org/2000/svg" viewBox="0 0 159.96 47.5"><defs><style>.cls-1{fill:#ffeca0;}.cls-2{fill:#807650;}.cls-3{fill:#ffdc4b;}.cls-4{fill:#407d96;stroke:#407d96;stroke-miterlimit:10;stroke-width:6px;}.cls-5{fill:#fff;}</style></defs><g id="Layer_1" data-name="Layer 1"><rect class="cls-1" x="0.56" y="1.15" width="157.99" height="43.66" rx="12.88"/><rect class="cls-2" x="0.97" y="5.62" width="157.99" height="41.2" rx="12.51"/><rect class="cls-3" x="0.97" y="3.95" width="157.99" height="41.2" rx="12.51"/></g><g id="Timer"><path class="cls-4" d="M22.78,30.44q0,.28-1.29.45a20,20,0,0,1-2.57.17,5.38,5.38,0,0,1-1.64-.15.49.49,0,0,1-.36-.47V16.89c0-.68,2-1,6.07-1a15,15,0,0,1,4.85.5A3.59,3.59,0,0,1,29.78,18a7.26,7.26,0,0,1,.67,3.35,6.73,6.73,0,0,1-1,4.07,3.41,3.41,0,0,1-1.39,1.2,10.45,10.45,0,0,1-1.15.39,9.77,9.77,0,0,1-1.12.18c-.62.05-1.47.08-2.53.08l-.51,0Zm0-6.7h.51a1.41,1.41,0,0,0,.63-.12,1,1,0,0,0,.41-.63,4.58,4.58,0,0,0,.18-1.45,4.09,4.09,0,0,0-.2-1.44,1.13,1.13,0,0,0-.4-.59,1.17,1.17,0,0,0-.48-.09H22.8Z"/><path class="cls-4" d="M37.41,15.58v15c0,.15-.4.28-1.2.37a22.21,22.21,0,0,1-2.48.14,6.73,6.73,0,0,1-1.64-.12c-.25-.08-.37-.21-.37-.39V16c0-.31.39-.61,1.19-.91a7.4,7.4,0,0,1,2.56-.44C36.76,14.61,37.41,14.94,37.41,15.58Z"/><path class="cls-4" d="M42.89,31.25a4.6,4.6,0,0,1-3-.91,3,3,0,0,1-.77-1.12,4.2,4.2,0,0,1-.33-1.73,3.2,3.2,0,0,1,.47-1.73,3.44,3.44,0,0,1,1.15-1.13A6.53,6.53,0,0,1,42,24a11.91,11.91,0,0,1,3-.36h.7a1.31,1.31,0,0,0-.6-1.22,1.5,1.5,0,0,0-.76-.15,3.76,3.76,0,0,0-1.25.28,7.73,7.73,0,0,0-1.21.56,1.7,1.7,0,0,1-.65.28c-.26,0-.6-.33-1-1a3.48,3.48,0,0,1-.65-1.82q0-.28.78-.72a8.85,8.85,0,0,1,2.2-.81,10.89,10.89,0,0,1,2.77-.37,10.54,10.54,0,0,1,2.33.22,7.18,7.18,0,0,1,1.61.54,3.3,3.3,0,0,1,1.05.84,5.21,5.21,0,0,1,.65,1,3.5,3.5,0,0,1,.33,1.1,10.34,10.34,0,0,1,.15,1.91v6.35c0,.15-.38.28-1.13.37a18.8,18.8,0,0,1-2.23.14A9.87,9.87,0,0,1,46.61,31a.76.76,0,0,1-.39-.14.94.94,0,0,1-.1-.3L46,29.35h-.17C45.43,30.61,44.47,31.25,42.89,31.25Zm2.83-3.5V25.28a1,1,0,0,0-.89.46,1.79,1.79,0,0,0-.34,1.06c0,.92.21,1.39.64,1.39a.65.65,0,0,0,.43-.14A.41.41,0,0,0,45.72,27.75Z"/><path class="cls-4" d="M60,29.69V28.44h-.17l-.32.28a4.06,4.06,0,0,1-1,.44,5.29,5.29,0,0,1-1.74.27,4.34,4.34,0,0,1-1.68-.3,2.87,2.87,0,0,1-1.15-.83,3.7,3.7,0,0,1-.66-1.38,14.78,14.78,0,0,1-.4-3.88v-2.9c0-.3.42-.59,1.25-.88a7.85,7.85,0,0,1,2.61-.43c1.22,0,1.84.31,1.84,1v2.65c0,2.81.22,4.22.67,4.22.27,0,.4-.19.4-.57V20.14c0-.3.44-.59,1.33-.88a9,9,0,0,1,2.84-.43c1,0,1.52.27,1.52.82v10c0,3.14-2.12,4.7-6.36,4.7a10.66,10.66,0,0,1-4.56-.65c-.35-.2-.52-.4-.52-.61a6.06,6.06,0,0,1,.42-1.7c.28-.79.54-1.19.78-1.19a4.11,4.11,0,0,1,.59.13,10.39,10.39,0,0,0,2.6.42,2.71,2.71,0,0,0,1.37-.23A.91.91,0,0,0,60,29.69Z"/><path class="cls-4" d="M78.79,31.25a11.9,11.9,0,0,1-3-.33,6.17,6.17,0,0,1-2.31-1.17q-2.13-1.66-2.13-6.39a9.4,9.4,0,0,1,.58-3.46,5.75,5.75,0,0,1,1.61-2.34,8,8,0,0,1,5.25-1.68,13,13,0,0,1,2.9.29A6.76,6.76,0,0,1,84,17.25c1.48,1.07,2.21,3.1,2.21,6.11,0,2.7-.66,4.69-2,6A7.53,7.53,0,0,1,78.79,31.25Zm-.69-3.62a.93.93,0,0,0,1.39,0,3,3,0,0,0,.42-1.31,18,18,0,0,0,.17-2.79,17.39,17.39,0,0,0-.17-2.76,2.89,2.89,0,0,0-.42-1.27,1,1,0,0,0-1.39,0,2.89,2.89,0,0,0-.42,1.27,16.27,16.27,0,0,0-.17,2.76,16.83,16.83,0,0,0,.17,2.79A3,3,0,0,0,78.1,27.63Z"/><path class="cls-4" d="M100.21,24.06v6.49c0,.15-.4.28-1.2.37a22.21,22.21,0,0,1-2.48.14,6.73,6.73,0,0,1-1.64-.12c-.25-.08-.37-.21-.37-.39v-6.7a7.55,7.55,0,0,0-.07-1.25l-.14-.53a.55.55,0,0,0-.53-.4.51.51,0,0,0-.59.57v8.31c0,.15-.4.28-1.19.37a21.89,21.89,0,0,1-2.47.14,6.89,6.89,0,0,1-1.65-.12c-.25-.08-.38-.21-.38-.39V20.16c0-.3.4-.59,1.21-.89a7.53,7.53,0,0,1,2.56-.44c.9,0,1.41.26,1.52.78l.19.93h.15a3.37,3.37,0,0,1,2.11-1.71,4.36,4.36,0,0,1,1.35-.19,3,3,0,0,1,2.87,1.27A8.6,8.6,0,0,1,100.21,24.06Z"/><path class="cls-4" d="M107.38,15.58v15c0,.15-.4.28-1.2.37a22.21,22.21,0,0,1-2.48.14,6.73,6.73,0,0,1-1.64-.12c-.25-.08-.37-.21-.37-.39V16c0-.31.39-.61,1.19-.91a7.4,7.4,0,0,1,2.56-.44C106.73,14.61,107.38,14.94,107.38,15.58Z"/><path class="cls-4" d="M111.78,14.61A4.88,4.88,0,0,1,114,15a1.54,1.54,0,0,1,.79,1.49c0,1.26-1,1.9-3,1.9s-3-.64-3-1.9S109.83,14.61,111.78,14.61Zm2.87,5.55V30.55c0,.15-.4.28-1.21.37a22.52,22.52,0,0,1-2.49.14,6.73,6.73,0,0,1-1.64-.12c-.25-.08-.37-.21-.37-.39v-10c0-.31.4-.62,1.19-.92a7.28,7.28,0,0,1,2.6-.45Q114.65,19.17,114.65,20.16Z"/><path class="cls-4" d="M129,24.06v6.49c0,.15-.41.28-1.21.37a22,22,0,0,1-2.47.14,6.89,6.89,0,0,1-1.65-.12c-.24-.08-.37-.21-.37-.39v-6.7a6.55,6.55,0,0,0-.07-1.25l-.14-.53a.54.54,0,0,0-.52-.4q-.6,0-.6.57v8.31c0,.15-.39.28-1.19.37a21.71,21.71,0,0,1-2.46.14,7.05,7.05,0,0,1-1.66-.12c-.25-.08-.38-.21-.38-.39V20.16c0-.3.41-.59,1.22-.89a7.48,7.48,0,0,1,2.56-.44c.9,0,1.4.26,1.51.78l.19.93h.15A3.37,3.37,0,0,1,124,18.83a4.45,4.45,0,0,1,1.35-.19,3.05,3.05,0,0,1,2.88,1.27A8.6,8.6,0,0,1,129,24.06Z"/><path class="cls-4" d="M136,26.29c0,.92.44,1.37,1.31,1.37a5.42,5.42,0,0,0,2-.51c.82-.35,1.25-.52,1.29-.52q.41,0,1.05,1.2a4.32,4.32,0,0,1,.66,1.77c0,.55-.56,1-1.69,1.25a13.57,13.57,0,0,1-3.3.42,12.09,12.09,0,0,1-2.7-.26,6.46,6.46,0,0,1-1.77-.64,4.88,4.88,0,0,1-1.2-1,5.08,5.08,0,0,1-.77-1.08,5.56,5.56,0,0,1-.4-1.15,8.69,8.69,0,0,1-.21-1.92q0-3.84,2-5.29a6.12,6.12,0,0,1,2.22-1,12.72,12.72,0,0,1,2.88-.29q5.34,0,5.34,3.71,0,3.95-6,3.94Zm0-3.08V24.6a1.23,1.23,0,0,0,1-.48,1.82,1.82,0,0,0,.39-1.18c0-.84-.21-1.27-.65-1.27S135.92,22.19,135.92,23.21Z"/><path class="cls-5" d="M22.78,30.44q0,.28-1.29.45a20,20,0,0,1-2.57.17,5.38,5.38,0,0,1-1.64-.15.49.49,0,0,1-.36-.47V16.89c0-.68,2-1,6.07-1a15,15,0,0,1,4.85.5A3.59,3.59,0,0,1,29.78,18a7.26,7.26,0,0,1,.67,3.35,6.73,6.73,0,0,1-1,4.07,3.41,3.41,0,0,1-1.39,1.2,10.45,10.45,0,0,1-1.15.39,9.77,9.77,0,0,1-1.12.18c-.62.05-1.47.08-2.53.08l-.51,0Zm0-6.7h.51a1.41,1.41,0,0,0,.63-.12,1,1,0,0,0,.41-.63,4.58,4.58,0,0,0,.18-1.45,4.09,4.09,0,0,0-.2-1.44,1.13,1.13,0,0,0-.4-.59,1.17,1.17,0,0,0-.48-.09H22.8Z"/><path class="cls-5" d="M37.41,15.58v15c0,.15-.4.28-1.2.37a22.21,22.21,0,0,1-2.48.14,6.73,6.73,0,0,1-1.64-.12c-.25-.08-.37-.21-.37-.39V16c0-.31.39-.61,1.19-.91a7.4,7.4,0,0,1,2.56-.44C36.76,14.61,37.41,14.94,37.41,15.58Z"/><path class="cls-5" d="M42.89,31.25a4.6,4.6,0,0,1-3-.91,3,3,0,0,1-.77-1.12,4.2,4.2,0,0,1-.33-1.73,3.2,3.2,0,0,1,.47-1.73,3.44,3.44,0,0,1,1.15-1.13A6.53,6.53,0,0,1,42,24a11.91,11.91,0,0,1,3-.36h.7a1.31,1.31,0,0,0-.6-1.22,1.5,1.5,0,0,0-.76-.15,3.76,3.76,0,0,0-1.25.28,7.73,7.73,0,0,0-1.21.56,1.7,1.7,0,0,1-.65.28c-.26,0-.6-.33-1-1a3.48,3.48,0,0,1-.65-1.82q0-.28.78-.72a8.85,8.85,0,0,1,2.2-.81,10.89,10.89,0,0,1,2.77-.37,10.54,10.54,0,0,1,2.33.22,7.18,7.18,0,0,1,1.61.54,3.3,3.3,0,0,1,1.05.84,5.21,5.21,0,0,1,.65,1,3.5,3.5,0,0,1,.33,1.1,10.34,10.34,0,0,1,.15,1.91v6.35c0,.15-.38.28-1.13.37a18.8,18.8,0,0,1-2.23.14A9.87,9.87,0,0,1,46.61,31a.76.76,0,0,1-.39-.14.94.94,0,0,1-.1-.3L46,29.35h-.17C45.43,30.61,44.47,31.25,42.89,31.25Zm2.83-3.5V25.28a1,1,0,0,0-.89.46,1.79,1.79,0,0,0-.34,1.06c0,.92.21,1.39.64,1.39a.65.65,0,0,0,.43-.14A.41.41,0,0,0,45.72,27.75Z"/><path class="cls-5" d="M60,29.69V28.44h-.17l-.32.28a4.06,4.06,0,0,1-1,.44,5.29,5.29,0,0,1-1.74.27,4.34,4.34,0,0,1-1.68-.3,2.87,2.87,0,0,1-1.15-.83,3.7,3.7,0,0,1-.66-1.38,14.78,14.78,0,0,1-.4-3.88v-2.9c0-.3.42-.59,1.25-.88a7.85,7.85,0,0,1,2.61-.43c1.22,0,1.84.31,1.84,1v2.65c0,2.81.22,4.22.67,4.22.27,0,.4-.19.4-.57V20.14c0-.3.44-.59,1.33-.88a9,9,0,0,1,2.84-.43c1,0,1.52.27,1.52.82v10c0,3.14-2.12,4.7-6.36,4.7a10.66,10.66,0,0,1-4.56-.65c-.35-.2-.52-.4-.52-.61a6.06,6.06,0,0,1,.42-1.7c.28-.79.54-1.19.78-1.19a4.11,4.11,0,0,1,.59.13,10.39,10.39,0,0,0,2.6.42,2.71,2.71,0,0,0,1.37-.23A.91.91,0,0,0,60,29.69Z"/><path class="cls-5" d="M78.79,31.25a11.9,11.9,0,0,1-3-.33,6.17,6.17,0,0,1-2.31-1.17q-2.13-1.66-2.13-6.39a9.4,9.4,0,0,1,.58-3.46,5.75,5.75,0,0,1,1.61-2.34,8,8,0,0,1,5.25-1.68,13,13,0,0,1,2.9.29A6.76,6.76,0,0,1,84,17.25c1.48,1.07,2.21,3.1,2.21,6.11,0,2.7-.66,4.69-2,6A7.53,7.53,0,0,1,78.79,31.25Zm-.69-3.62a.93.93,0,0,0,1.39,0,3,3,0,0,0,.42-1.31,18,18,0,0,0,.17-2.79,17.39,17.39,0,0,0-.17-2.76,2.89,2.89,0,0,0-.42-1.27,1,1,0,0,0-1.39,0,2.89,2.89,0,0,0-.42,1.27,16.27,16.27,0,0,0-.17,2.76,16.83,16.83,0,0,0,.17,2.79A3,3,0,0,0,78.1,27.63Z"/><path class="cls-5" d="M100.21,24.06v6.49c0,.15-.4.28-1.2.37a22.21,22.21,0,0,1-2.48.14,6.73,6.73,0,0,1-1.64-.12c-.25-.08-.37-.21-.37-.39v-6.7a7.55,7.55,0,0,0-.07-1.25l-.14-.53a.55.55,0,0,0-.53-.4.51.51,0,0,0-.59.57v8.31c0,.15-.4.28-1.19.37a21.89,21.89,0,0,1-2.47.14,6.89,6.89,0,0,1-1.65-.12c-.25-.08-.38-.21-.38-.39V20.16c0-.3.4-.59,1.21-.89a7.53,7.53,0,0,1,2.56-.44c.9,0,1.41.26,1.52.78l.19.93h.15a3.37,3.37,0,0,1,2.11-1.71,4.36,4.36,0,0,1,1.35-.19,3,3,0,0,1,2.87,1.27A8.6,8.6,0,0,1,100.21,24.06Z"/><path class="cls-5" d="M107.38,15.58v15c0,.15-.4.28-1.2.37a22.21,22.21,0,0,1-2.48.14,6.73,6.73,0,0,1-1.64-.12c-.25-.08-.37-.21-.37-.39V16c0-.31.39-.61,1.19-.91a7.4,7.4,0,0,1,2.56-.44C106.73,14.61,107.38,14.94,107.38,15.58Z"/><path class="cls-5" d="M111.78,14.61A4.88,4.88,0,0,1,114,15a1.54,1.54,0,0,1,.79,1.49c0,1.26-1,1.9-3,1.9s-3-.64-3-1.9S109.83,14.61,111.78,14.61Zm2.87,5.55V30.55c0,.15-.4.28-1.21.37a22.52,22.52,0,0,1-2.49.14,6.73,6.73,0,0,1-1.64-.12c-.25-.08-.37-.21-.37-.39v-10c0-.31.4-.62,1.19-.92a7.28,7.28,0,0,1,2.6-.45Q114.65,19.17,114.65,20.16Z"/><path class="cls-5" d="M129,24.06v6.49c0,.15-.41.28-1.21.37a22,22,0,0,1-2.47.14,6.89,6.89,0,0,1-1.65-.12c-.24-.08-.37-.21-.37-.39v-6.7a6.55,6.55,0,0,0-.07-1.25l-.14-.53a.54.54,0,0,0-.52-.4q-.6,0-.6.57v8.31c0,.15-.39.28-1.19.37a21.71,21.71,0,0,1-2.46.14,7.05,7.05,0,0,1-1.66-.12c-.25-.08-.38-.21-.38-.39V20.16c0-.3.41-.59,1.22-.89a7.48,7.48,0,0,1,2.56-.44c.9,0,1.4.26,1.51.78l.19.93h.15A3.37,3.37,0,0,1,124,18.83a4.45,4.45,0,0,1,1.35-.19,3.05,3.05,0,0,1,2.88,1.27A8.6,8.6,0,0,1,129,24.06Z"/><path class="cls-5" d="M136,26.29c0,.92.44,1.37,1.31,1.37a5.42,5.42,0,0,0,2-.51c.82-.35,1.25-.52,1.29-.52q.41,0,1.05,1.2a4.32,4.32,0,0,1,.66,1.77c0,.55-.56,1-1.69,1.25a13.57,13.57,0,0,1-3.3.42,12.09,12.09,0,0,1-2.7-.26,6.46,6.46,0,0,1-1.77-.64,4.88,4.88,0,0,1-1.2-1,5.08,5.08,0,0,1-.77-1.08,5.56,5.56,0,0,1-.4-1.15,8.69,8.69,0,0,1-.21-1.92q0-3.84,2-5.29a6.12,6.12,0,0,1,2.22-1,12.72,12.72,0,0,1,2.88-.29q5.34,0,5.34,3.71,0,3.95-6,3.94Zm0-3.08V24.6a1.23,1.23,0,0,0,1-.48,1.82,1.82,0,0,0,.39-1.18c0-.84-.21-1.27-.65-1.27S135.92,22.19,135.92,23.21Z"/></g></svg>