<?xml version="1.0" encoding="UTF-8"?><svg xmlns="http://www.w3.org/2000/svg" viewBox="0 0 158.4 45.67"><defs><style>.e{fill:#fff;}.f{fill:#ffdc4b;}.g{fill:#ffeca0;}.h{fill:#807650;}.i{fill:#417d96;stroke:#417d96;stroke-miterlimit:10;stroke-width:6px;}</style></defs><g id="a"/><g id="b"><g id="c"><g id="d"><rect class="g" width="157.99" height="43.66" rx="12.88" ry="12.88"/><rect class="h" x=".41" y="4.47" width="157.99" height="41.2" rx="12.51" ry="12.51"/><rect class="f" x=".41" y="2.8" width="157.99" height="41.2" rx="12.51" ry="12.51"/></g><g><path class="i" d="M46.74,29.13c-.46,.34-1.1,.62-1.92,.84-.82,.22-1.88,.33-3.17,.33s-2.52-.11-3.69-.32c-1.16-.21-2-.45-2.5-.71-.51-.26-.76-.51-.76-.76,0-.86,.12-1.75,.37-2.68,.25-.93,.54-1.39,.87-1.39,.06,0,.7,.21,1.91,.62,1.21,.41,2.12,.62,2.73,.62s1.01-.06,1.19-.2c.18-.13,.28-.32,.28-.56s-.17-.46-.51-.66c-.34-.19-.76-.36-1.26-.5s-1.05-.36-1.64-.63c-.59-.28-1.14-.58-1.64-.92-.51-.34-.93-.82-1.26-1.44-.34-.62-.51-1.33-.51-2.13,0-3.4,2.03-5.1,6.09-5.1,1.52,0,2.83,.1,3.93,.29s1.88,.41,2.33,.64c.45,.24,.68,.47,.68,.7,0,.8-.19,1.65-.56,2.57-.38,.92-.74,1.38-1.09,1.38-.06,0-.26-.07-.6-.21-1.01-.44-1.85-.67-2.52-.67s-1.12,.06-1.36,.18c-.24,.12-.36,.31-.36,.56s.17,.46,.51,.62,.75,.31,1.25,.44c.5,.13,1.04,.33,1.63,.6,.59,.27,1.14,.58,1.64,.94,.51,.36,.93,.87,1.26,1.53,.34,.66,.51,1.42,.51,2.3,0,.92-.24,1.75-.71,2.5-.29,.46-.67,.86-1.13,1.2Z"/><path class="i" d="M53.15,12.17c1.01,0,1.8,.15,2.38,.45,.57,.3,.86,.84,.86,1.62,0,1.38-1.07,2.07-3.22,2.07s-3.22-.69-3.22-2.07,1.06-2.07,3.19-2.07Zm3.12,6.04v11.33c0,.17-.44,.3-1.32,.4-.88,.1-1.79,.15-2.71,.15s-1.52-.04-1.79-.13c-.27-.08-.4-.23-.4-.43v-10.91c0-.34,.43-.67,1.3-1,.87-.33,1.81-.49,2.84-.49,1.39,0,2.09,.36,2.09,1.08Z"/><path class="i" d="M65.68,28.57v-1.33h-.18c-.06,.08-.17,.17-.32,.29-.15,.12-.53,.27-1.14,.47s-1.29,.3-2.04,.3-1.4-.12-1.92-.34c-.52-.23-.93-.52-1.22-.86s-.52-.81-.69-1.39c-.26-.9-.39-2.13-.39-3.68,0-1.78,.38-3.14,1.13-4.09,.29-.38,.72-.71,1.3-.98,.57-.27,1.19-.4,1.85-.4s1.2,.07,1.63,.22c.43,.15,.75,.32,.96,.52,.43,.43,.67,.8,.74,1.13l.02,.21h.18l.21-.9c.15-.64,1.36-.96,3.63-.96,1.01,0,1.62,.15,1.84,.46,.12,.18,.2,.36,.23,.52,.03,.16,.04,.4,.04,.72v9.63c0,1.81-.59,3.19-1.77,4.14s-2.91,1.42-5.19,1.42c-2.42,0-4.07-.24-4.94-.71-.38-.21-.57-.44-.57-.67,0-.37,.15-.99,.45-1.86,.3-.87,.58-1.31,.84-1.31,.06,0,.28,.05,.64,.16,1.16,.31,2.11,.46,2.84,.46s1.22-.09,1.47-.28c.25-.18,.38-.47,.38-.87Zm-.92-2.9c.17,0,.31-.06,.41-.18,.11-.12,.16-.26,.16-.41v-4.73c-.06-.32-.23-.48-.51-.48-.58,0-.87,.96-.87,2.87,0,.89,.07,1.6,.22,2.14,.15,.54,.34,.8,.59,.8Z"/><path class="i" d="M87,22.46v7.08c0,.17-.44,.3-1.31,.4s-1.77,.15-2.7,.15-1.52-.04-1.79-.13c-.27-.08-.4-.23-.4-.43v-7.31c0-.69-.03-1.14-.08-1.36-.05-.21-.1-.41-.15-.58-.11-.29-.3-.44-.58-.44-.43,0-.64,.21-.64,.62v9.05c0,.17-.43,.3-1.3,.4s-1.76,.15-2.69,.15-1.53-.04-1.8-.13-.41-.23-.41-.43v-11.33c0-.32,.44-.64,1.32-.96,.88-.32,1.81-.48,2.79-.48s1.53,.28,1.66,.85l.21,1.01h.16c.44-.89,1.21-1.51,2.3-1.86,.44-.14,.93-.21,1.47-.21,1.55,0,2.59,.46,3.14,1.39,.54,.93,.82,2.43,.82,4.52Z"/><path class="i" d="M106.84,28.63c-1.26,1.1-3.09,1.64-5.49,1.64s-4.24-.55-5.53-1.64c-1.29-1.09-1.93-2.75-1.93-4.95V15.25c0-.38,.43-.73,1.3-1.03,.87-.31,1.87-.46,3.02-.46,.92,0,1.52,.18,1.79,.53,.2,.28,.3,.51,.3,.71v6.85c0,1.73,.07,2.88,.2,3.44,.13,.56,.41,.84,.84,.84s.7-.27,.82-.82c.12-.54,.17-1.7,.17-3.48v-6.57c0-.38,.43-.73,1.3-1.03s1.87-.46,3-.46c.96,0,1.58,.18,1.84,.53,.18,.28,.28,.51,.28,.71v8.69c0,2.21-.63,3.86-1.9,4.95Z"/><path class="i" d="M110.46,32.87v-14.61c0-.32,.43-.65,1.29-.99,.86-.34,1.78-.5,2.78-.5,.46,0,.82,.05,1.08,.16,.26,.11,.42,.21,.48,.32s.18,.57,.34,1.38h.18c.03-.14,.17-.35,.41-.64s.49-.53,.75-.71c.25-.18,.62-.35,1.09-.49,.47-.14,1.03-.22,1.67-.22s1.21,.14,1.74,.42c.52,.28,.91,.61,1.16,.99,.25,.38,.45,.85,.6,1.42s.23,1.03,.25,1.38c.02,.34,.03,.84,.03,1.49s-.02,1.29-.07,1.93-.13,1.28-.25,1.94c-.12,.66-.3,1.23-.53,1.7-.23,.47-.52,.9-.87,1.29-.7,.77-1.74,1.15-3.1,1.15-.49,0-.92-.07-1.3-.22-.38-.15-.65-.32-.84-.52-.38-.41-.6-.78-.67-1.1l-.02-.23h-.18l.32,2.07v2.6c0,.17-.44,.3-1.32,.4s-1.79,.15-2.71,.15-1.54-.04-1.85-.13-.46-.23-.46-.42Zm7.42-12.25c-.14-.52-.34-.78-.62-.78s-.47,.15-.6,.46v6.02c0,.4,.21,.6,.62,.6,.54,0,.8-1.19,.8-3.56,0-1.3-.07-2.21-.21-2.73Z"/></g><g><path class="e" d="M46.74,29.13c-.46,.34-1.1,.62-1.92,.84-.82,.22-1.88,.33-3.17,.33s-2.52-.11-3.69-.32c-1.16-.21-2-.45-2.5-.71-.51-.26-.76-.51-.76-.76,0-.86,.12-1.75,.37-2.68,.25-.93,.54-1.39,.87-1.39,.06,0,.7,.21,1.91,.62,1.21,.41,2.12,.62,2.73,.62s1.01-.06,1.19-.2c.18-.13,.28-.32,.28-.56s-.17-.46-.51-.66c-.34-.19-.76-.36-1.26-.5s-1.05-.36-1.64-.63c-.59-.28-1.14-.58-1.64-.92-.51-.34-.93-.82-1.26-1.44-.34-.62-.51-1.33-.51-2.13,0-3.4,2.03-5.1,6.09-5.1,1.52,0,2.83,.1,3.93,.29s1.88,.41,2.33,.64c.45,.24,.68,.47,.68,.7,0,.8-.19,1.65-.56,2.57-.38,.92-.74,1.38-1.09,1.38-.06,0-.26-.07-.6-.21-1.01-.44-1.85-.67-2.52-.67s-1.12,.06-1.36,.18c-.24,.12-.36,.31-.36,.56s.17,.46,.51,.62,.75,.31,1.25,.44c.5,.13,1.04,.33,1.63,.6,.59,.27,1.14,.58,1.64,.94,.51,.36,.93,.87,1.26,1.53,.34,.66,.51,1.42,.51,2.3,0,.92-.24,1.75-.71,2.5-.29,.46-.67,.86-1.13,1.2Z"/><path class="e" d="M53.15,12.17c1.01,0,1.8,.15,2.38,.45,.57,.3,.86,.84,.86,1.62,0,1.38-1.07,2.07-3.22,2.07s-3.22-.69-3.22-2.07,1.06-2.07,3.19-2.07Zm3.12,6.04v11.33c0,.17-.44,.3-1.32,.4-.88,.1-1.79,.15-2.71,.15s-1.52-.04-1.79-.13c-.27-.08-.4-.23-.4-.43v-10.91c0-.34,.43-.67,1.3-1,.87-.33,1.81-.49,2.84-.49,1.39,0,2.09,.36,2.09,1.08Z"/><path class="e" d="M65.68,28.57v-1.33h-.18c-.06,.08-.17,.17-.32,.29-.15,.12-.53,.27-1.14,.47s-1.29,.3-2.04,.3-1.4-.12-1.92-.34c-.52-.23-.93-.52-1.22-.86s-.52-.81-.69-1.39c-.26-.9-.39-2.13-.39-3.68,0-1.78,.38-3.14,1.13-4.09,.29-.38,.72-.71,1.3-.98,.57-.27,1.19-.4,1.85-.4s1.2,.07,1.63,.22c.43,.15,.75,.32,.96,.52,.43,.43,.67,.8,.74,1.13l.02,.21h.18l.21-.9c.15-.64,1.36-.96,3.63-.96,1.01,0,1.62,.15,1.84,.46,.12,.18,.2,.36,.23,.52,.03,.16,.04,.4,.04,.72v9.63c0,1.81-.59,3.19-1.77,4.14s-2.91,1.42-5.19,1.42c-2.42,0-4.07-.24-4.94-.71-.38-.21-.57-.44-.57-.67,0-.37,.15-.99,.45-1.86,.3-.87,.58-1.31,.84-1.31,.06,0,.28,.05,.64,.16,1.16,.31,2.11,.46,2.84,.46s1.22-.09,1.47-.28c.25-.18,.38-.47,.38-.87Zm-.92-2.9c.17,0,.31-.06,.41-.18,.11-.12,.16-.26,.16-.41v-4.73c-.06-.32-.23-.48-.51-.48-.58,0-.87,.96-.87,2.87,0,.89,.07,1.6,.22,2.14,.15,.54,.34,.8,.59,.8Z"/><path class="e" d="M87,22.46v7.08c0,.17-.44,.3-1.31,.4s-1.77,.15-2.7,.15-1.52-.04-1.79-.13c-.27-.08-.4-.23-.4-.43v-7.31c0-.69-.03-1.14-.08-1.36-.05-.21-.1-.41-.15-.58-.11-.29-.3-.44-.57-.44-.43,0-.64,.21-.64,.62v9.05c0,.17-.43,.3-1.3,.4s-1.76,.15-2.69,.15-1.53-.04-1.8-.13-.41-.23-.41-.43v-11.33c0-.32,.44-.64,1.32-.96,.88-.32,1.81-.48,2.79-.48s1.53,.28,1.66,.85l.21,1.01h.16c.44-.89,1.21-1.51,2.3-1.86,.44-.14,.93-.21,1.47-.21,1.55,0,2.59,.46,3.14,1.39,.54,.93,.82,2.43,.82,4.52Z"/><path class="e" d="M106.84,28.63c-1.26,1.1-3.09,1.64-5.49,1.64s-4.24-.55-5.53-1.64c-1.29-1.09-1.93-2.75-1.93-4.95V15.25c0-.38,.43-.73,1.3-1.03,.87-.31,1.87-.46,3.02-.46,.92,0,1.52,.18,1.79,.53,.2,.28,.3,.51,.3,.71v6.85c0,1.73,.07,2.88,.2,3.44,.13,.56,.41,.84,.84,.84s.7-.27,.82-.82c.12-.54,.17-1.7,.17-3.48v-6.57c0-.38,.43-.73,1.3-1.03s1.87-.46,3-.46c.96,0,1.58,.18,1.84,.53,.18,.28,.28,.51,.28,.71v8.69c0,2.21-.63,3.86-1.9,4.95Z"/><path class="e" d="M110.46,32.87v-14.61c0-.32,.43-.65,1.29-.99,.86-.34,1.78-.5,2.78-.5,.46,0,.82,.05,1.08,.16,.26,.11,.42,.21,.48,.32s.18,.57,.34,1.38h.18c.03-.14,.17-.35,.41-.64s.49-.53,.75-.71c.25-.18,.62-.35,1.09-.49,.47-.14,1.03-.22,1.67-.22s1.21,.14,1.74,.42c.52,.28,.91,.61,1.16,.99,.25,.38,.45,.85,.6,1.42s.23,1.03,.25,1.38c.02,.34,.03,.84,.03,1.49s-.02,1.29-.07,1.93-.13,1.28-.25,1.94c-.12,.66-.3,1.23-.53,1.7-.23,.47-.52,.9-.87,1.29-.7,.77-1.74,1.15-3.1,1.15-.49,0-.92-.07-1.3-.22-.38-.15-.65-.32-.84-.52-.38-.41-.6-.78-.67-1.1l-.02-.23h-.18l.32,2.07v2.6c0,.17-.44,.3-1.32,.4s-1.79,.15-2.71,.15-1.54-.04-1.85-.13-.46-.23-.46-.42Zm7.42-12.25c-.14-.52-.34-.78-.62-.78s-.47,.15-.6,.46v6.02c0,.4,.21,.6,.62,.6,.54,0,.8-1.19,.8-3.56,0-1.3-.07-2.21-.21-2.73Z"/></g></g></g></svg>