<svg id="Layer_1" data-name="Layer 1" xmlns="http://www.w3.org/2000/svg" viewBox="0 0 159.96 47.5"><defs><style>.cls-1{fill:#ffeca0;}.cls-2{fill:#807650;}.cls-3{fill:#ffdc4b;}.cls-4{fill:#407d96;}.cls-5{fill:#fff;}</style></defs><g id="Start"><rect class="cls-1" x="0.56" y="1.15" width="157.99" height="43.66" rx="12.88"/><rect class="cls-2" x="0.97" y="5.62" width="157.99" height="41.2" rx="12.51"/><rect class="cls-3" x="0.97" y="3.95" width="157.99" height="41.2" rx="12.51"/><path class="cls-4" d="M53,35.35A24,24,0,0,1,48.6,35a12.43,12.43,0,0,1-3.45-1,3.85,3.85,0,0,1-2.41-3.46,14,14,0,0,1,.48-3.56,5.93,5.93,0,0,1,1.27-2.55c-.11-.17-.21-.35-.31-.53a7.58,7.58,0,0,1-.89-3.65c0-5.22,3.5-8.33,9.36-8.33a27.34,27.34,0,0,1,4.62.34,11.5,11.5,0,0,1,3.31,1,3.78,3.78,0,0,1,2.32,3.39,10.06,10.06,0,0,1-.81,3.82,8.51,8.51,0,0,1-.79,1.51,8.08,8.08,0,0,1,1.08,1.61,8.17,8.17,0,0,1,.86,3.77,7.66,7.66,0,0,1-3.15,6.28,8.87,8.87,0,0,1-3,1.35A15.42,15.42,0,0,1,53,35.35Z"/><path class="cls-4" d="M69.14,35.32A15.76,15.76,0,0,1,66,35.06a8.44,8.44,0,0,1-3-1.24c-2.06-1.39-3.1-3.87-3.1-7.4V25.13a3.79,3.79,0,0,1-1.49-2,7.53,7.53,0,0,1-.36-2.49,7.35,7.35,0,0,1,.53-2.83A4.38,4.38,0,0,1,59.92,16v-.68c0-.89.34-3.06,3.55-4.06a12.39,12.39,0,0,1,3.75-.6c4.93,0,5.18,3.4,5.18,4.08v.7c1.1.4,2.4,1.53,2.4,4.58a8.84,8.84,0,0,1-.45,3,4.08,4.08,0,0,1-1.95,2.34v.28a3.49,3.49,0,0,1,2,2.41,8.45,8.45,0,0,1,.18,1.92,5.55,5.55,0,0,1-1.37,4.19A5.7,5.7,0,0,1,69.14,35.32Z"/><path class="cls-4" d="M77.8,35.35a8.13,8.13,0,0,1-5.34-1.72,6.63,6.63,0,0,1-1.71-2.37,7.83,7.83,0,0,1-.63-3.19,6.49,6.49,0,0,1,1-3.59A7,7,0,0,1,72,23.43a6.54,6.54,0,0,1-1-3.28c0-2.06,1.82-3.09,2.41-3.43a13.07,13.07,0,0,1,3.24-1.21A15.3,15.3,0,0,1,80.54,15a15.61,15.61,0,0,1,3.31.32,10.72,10.72,0,0,1,2.52.87,6.74,6.74,0,0,1,2.16,1.73,9.86,9.86,0,0,1,1.09,1.59,7.26,7.26,0,0,1,.68,2.18,14.83,14.83,0,0,1,.2,2.65v7.22c0,1.34-.68,3-3.92,3.4a23.93,23.93,0,0,1-2.91.18,11,11,0,0,1-2.2-.13,4.83,4.83,0,0,1-.76-.2A7.37,7.37,0,0,1,77.8,35.35Z"/><path class="cls-4" d="M91.49,35.13a10,10,0,0,1-2.76-.26,3.48,3.48,0,0,1-2.56-3.32V19.72c0-1.66,1.09-2.93,3.23-3.78a10.87,10.87,0,0,1,4-.74,5.57,5.57,0,0,1,2.71.61A8.56,8.56,0,0,1,99.74,15a5.7,5.7,0,0,1,3.65,1,4.27,4.27,0,0,1,1.65,3.4,18.17,18.17,0,0,1-.11,1.91,12.57,12.57,0,0,1-.6,2.77c-.94,2.92-3,3.23-3.83,3.23A6.6,6.6,0,0,1,98.66,27v4.54c0,1.34-.7,3-4,3.4A26.82,26.82,0,0,1,91.49,35.13Z"/><path class="cls-4" d="M110.7,35.32a15.65,15.65,0,0,1-3.13-.26,8.44,8.44,0,0,1-3-1.24c-2.07-1.39-3.1-3.87-3.1-7.4V25.13a3.79,3.79,0,0,1-1.49-2,7.53,7.53,0,0,1-.36-2.49,7.35,7.35,0,0,1,.52-2.83A4.4,4.4,0,0,1,101.49,16v-.68c0-.89.34-3.06,3.55-4.06a12.37,12.37,0,0,1,3.74-.6c4.94,0,5.19,3.4,5.19,4.08v.7c1.1.4,2.4,1.53,2.4,4.58a8.58,8.58,0,0,1-.46,3A4,4,0,0,1,114,25.29v.28a3.49,3.49,0,0,1,2,2.41,8.45,8.45,0,0,1,.18,1.92,5.52,5.52,0,0,1-1.38,4.19A5.69,5.69,0,0,1,110.7,35.32Z"/><path class="cls-5" d="M58.31,31.12a6.25,6.25,0,0,1-2,.88,13.14,13.14,0,0,1-3.31.34A21.56,21.56,0,0,1,49.15,32a10.12,10.12,0,0,1-2.62-.75c-.53-.27-.79-.53-.79-.79a11.13,11.13,0,0,1,.38-2.79c.26-1,.56-1.46.91-1.46.07,0,.73.22,2,.65a9.85,9.85,0,0,0,2.85.65,2.55,2.55,0,0,0,1.25-.2.7.7,0,0,0,.29-.59c0-.26-.18-.49-.53-.69a6,6,0,0,0-1.32-.52,14.16,14.16,0,0,1-1.72-.66,14,14,0,0,1-1.71-1,4.21,4.21,0,0,1-1.32-1.5,4.61,4.61,0,0,1-.53-2.22c0-3.56,2.12-5.33,6.36-5.33a24.31,24.31,0,0,1,4.1.3,8.94,8.94,0,0,1,2.44.67c.47.25.71.49.71.73a7.2,7.2,0,0,1-.59,2.69q-.59,1.44-1.14,1.44a2.82,2.82,0,0,1-.62-.22,7,7,0,0,0-2.63-.69A3.49,3.49,0,0,0,53.5,20a.62.62,0,0,0-.37.59c0,.26.18.48.53.65a7.61,7.61,0,0,0,1.31.45,11.33,11.33,0,0,1,1.7.63,10,10,0,0,1,1.72,1,4.52,4.52,0,0,1,1.32,1.6,5.18,5.18,0,0,1,.52,2.4,4.73,4.73,0,0,1-.74,2.61A4.52,4.52,0,0,1,58.31,31.12Z"/><path class="cls-5" d="M71.11,31.91a3.16,3.16,0,0,1-2,.41,13.79,13.79,0,0,1-2.55-.2,5.55,5.55,0,0,1-1.92-.81c-1.16-.78-1.75-2.41-1.75-4.89V22.67h-1.2c-.17,0-.33-.18-.45-.55a4.67,4.67,0,0,1-.2-1.51,4.4,4.4,0,0,1,.3-1.69c.2-.49.46-.74.78-.74h.77v-2.9c0-.5.49-.9,1.45-1.2a9.64,9.64,0,0,1,2.85-.46c1.45,0,2.18.36,2.18,1.08v3.48h1.78c.41,0,.62.6.62,1.8a5.88,5.88,0,0,1-.27,1.94c-.19.5-.42.75-.71.75H69.4v4.39A1,1,0,0,0,70,28a2.31,2.31,0,0,0,1,.27.48.48,0,0,1,.51.41,5.36,5.36,0,0,1,.1,1.23A3.06,3.06,0,0,1,71.11,31.91Z"/><path class="cls-5" d="M77.8,32.34a5.22,5.22,0,0,1-3.43-1A3.51,3.51,0,0,1,73.49,30a4.81,4.81,0,0,1-.37-2,3.57,3.57,0,0,1,.54-2A3.93,3.93,0,0,1,75,24.81a7.44,7.44,0,0,1,1.8-.75,13.62,13.62,0,0,1,3.43-.4H81a1.51,1.51,0,0,0-.67-1.4,1.79,1.79,0,0,0-.87-.16,4.06,4.06,0,0,0-1.42.31,10.21,10.21,0,0,0-1.38.63,2,2,0,0,1-.74.33c-.29,0-.69-.38-1.18-1.14A3.85,3.85,0,0,1,74,20.15c0-.21.29-.48.88-.81a10.6,10.6,0,0,1,2.51-.93A12.55,12.55,0,0,1,80.54,18a12.69,12.69,0,0,1,2.65.25,8,8,0,0,1,1.82.62,3.54,3.54,0,0,1,1.2,1A6.68,6.68,0,0,1,87,20.9a4,4,0,0,1,.37,1.24,12.25,12.25,0,0,1,.17,2.19v7.22q0,.27-1.29.42a19.8,19.8,0,0,1-2.54.16A12.61,12.61,0,0,1,82,32.06a.9.9,0,0,1-.45-.17,1.41,1.41,0,0,1-.12-.34l-.19-1.37h-.19C80.69,31.62,79.59,32.34,77.8,32.34Zm3.22-4V25.55a1.19,1.19,0,0,0-1,.53,2,2,0,0,0-.38,1.2c0,1.06.24,1.58.72,1.58a.75.75,0,0,0,.49-.15A.47.47,0,0,0,81,28.36Z"/><path class="cls-5" d="M95.66,24.54v7c0,.18-.46.32-1.36.42a23.22,23.22,0,0,1-2.81.16A8.7,8.7,0,0,1,89.61,32c-.29-.09-.43-.24-.43-.45V19.72c0-.3.44-.63,1.33-1a7.63,7.63,0,0,1,2.9-.53c1,0,1.64.29,1.77.86l.24,1.11h.16a3,3,0,0,1,1.61-1.55A5.6,5.6,0,0,1,99.74,18a3,3,0,0,1,1.78.41,1.26,1.26,0,0,1,.52,1,15.44,15.44,0,0,1-.1,1.62,10.45,10.45,0,0,1-.46,2.14c-.25.77-.58,1.15-1,1.15A9.61,9.61,0,0,1,99,24a8.06,8.06,0,0,0-2.1-.36c-.55,0-.89.08-1,.24A1,1,0,0,0,95.66,24.54Z"/><path class="cls-5" d="M112.67,31.91a3.14,3.14,0,0,1-2,.41,13.67,13.67,0,0,1-2.54-.2,5.55,5.55,0,0,1-1.92-.81q-1.76-1.17-1.75-4.89V22.67h-1.2c-.18,0-.33-.18-.46-.55a4.7,4.7,0,0,1-.19-1.51,4.4,4.4,0,0,1,.3-1.69c.2-.49.46-.74.78-.74h.77v-2.9c0-.5.48-.9,1.45-1.2a9.62,9.62,0,0,1,2.84-.46q2.19,0,2.19,1.08v3.48h1.77q.63,0,.63,1.8a5.61,5.61,0,0,1-.28,1.94c-.18.5-.42.75-.71.75H111v4.39a1,1,0,0,0,.55.93,2.27,2.27,0,0,0,1,.27.49.49,0,0,1,.52.41,6.16,6.16,0,0,1,.09,1.23C113.1,31,113,31.64,112.67,31.91Z"/></g></svg>