<svg xmlns="http://www.w3.org/2000/svg" viewBox="0 0 896 414"><defs><style>.cls-1{fill:#8ad6f4;}.cls-2{fill:#98ca40;}.cls-3{fill:#c8a868;}.cls-4{fill:#80c341;}.cls-5{fill:#4fab47;}.cls-6{fill:#fff;}.cls-7{fill:#efb567;}.cls-8{fill:#f6ee6e;}.cls-10,.cls-27,.cls-9{fill:none;stroke-miterlimit:10;}.cls-9{stroke:#f6ee6e;}.cls-10,.cls-9{stroke-width:2.38px;}.cls-10{stroke:#a365a9;}.cls-11{fill:#a365a9;}.cls-12{fill:#f3b367;}.cls-13{fill:#f7ef6c;}.cls-14{fill:#a4a3a4;}.cls-15{fill:#c8e6f8;}.cls-16{fill:#d2d2d1;}.cls-17{fill:#e5e7e5;}.cls-18{fill:#fffffe;}.cls-19{fill:#353535;}.cls-20{fill:#fdfefe;}.cls-21{fill:#b3b4b4;}.cls-22{fill:#b12a2b;}.cls-23{fill:#ef423d;}.cls-24{fill:#e2b373;}.cls-25{fill:#a0cc3a;}.cls-26{fill:#be2326;}.cls-27{stroke:#d8b82f;stroke-width:1.43px;}.cls-28{fill:#cdecf9;}</style></defs><g id="Amusement_park" data-name="Amusement park"><rect class="cls-1" x="-1.6" y="-1.8" width="903.09" height="306.01"/><rect class="cls-2" x="0.25" y="217.19" width="924.39" height="167.63"/><rect class="cls-3" x="4.88" y="316.27" width="890.12" height="99.54"/><path class="cls-4" d="M178.77,214.76a15,15,0,0,0-15-15,15.81,15.81,0,0,0-2.5.21,23.06,23.06,0,0,0-39.83-7.84,21.17,21.17,0,0,0-5.26-.65,21.4,21.4,0,1,0,0,42.79h49.44l6.69-7.09h0A15,15,0,0,0,178.77,214.76Z"/><path class="cls-4" d="M299,214.76a15,15,0,0,0-15-15,15.71,15.71,0,0,0-2.5.21,23.07,23.07,0,0,0-39.84-7.84,21.15,21.15,0,0,0-5.25-.65,21.4,21.4,0,1,0,0,42.79h49.43l6.7-7.09h0A15,15,0,0,0,299,214.76Z"/><path class="cls-4" d="M561.7,214.76a15,15,0,0,0-15-15,15.81,15.81,0,0,0-2.5.21,23.06,23.06,0,0,0-39.83-7.84,21.4,21.4,0,1,0-5.26,42.14H548.5l6.7-7.09h0A15,15,0,0,0,561.7,214.76Z"/><path class="cls-4" d="M502.67,214.76a15,15,0,0,0-15-15,15.91,15.91,0,0,0-2.5.21,23.06,23.06,0,0,0-39.83-7.84,21.17,21.17,0,0,0-5.26-.65,21.4,21.4,0,0,0,0,42.79h49.44l6.7-7.09h0A15,15,0,0,0,502.67,214.76Z"/><path class="cls-4" d="M342.24,219.29a11.54,11.54,0,0,0-11.54-11.54,12,12,0,0,0-1.92.16,17.7,17.7,0,0,0-30.57-6,16.24,16.24,0,0,0-4-.5,16.42,16.42,0,1,0,0,32.84h37.93l5.14-5.44h0A11.51,11.51,0,0,0,342.24,219.29Z"/><path class="cls-5" d="M440.74,219.29a11.54,11.54,0,0,0-11.54-11.54,12,12,0,0,0-1.92.16,17.7,17.7,0,0,0-30.57-6,16.26,16.26,0,0,0-4-.5,16.42,16.42,0,0,0,0,32.84h37.94l5.14-5.44h0A11.53,11.53,0,0,0,440.74,219.29Z"/><path class="cls-5" d="M658.76,219.29a11.54,11.54,0,0,0-11.54-11.54,12.23,12.23,0,0,0-1.92.16,17.7,17.7,0,0,0-30.57-6,16.24,16.24,0,0,0-4-.5,16.42,16.42,0,0,0,0,32.84h37.94l5.14-5.44h0A11.52,11.52,0,0,0,658.76,219.29Z"/><path class="cls-5" d="M238.17,214.76a15,15,0,0,0-15-15,15.71,15.71,0,0,0-2.5.21,23.07,23.07,0,0,0-39.84-7.84,21.15,21.15,0,0,0-5.25-.65,21.4,21.4,0,1,0,0,42.79H225l6.7-7.09h0A15,15,0,0,0,238.17,214.76Z"/><path class="cls-5" d="M623.36,214.76a15,15,0,0,0-15-15,15.71,15.71,0,0,0-2.5.21A23.07,23.07,0,0,0,566,192.09a21.15,21.15,0,0,0-5.25-.65,21.4,21.4,0,1,0,0,42.79h49.43l6.7-7.09h0A15,15,0,0,0,623.36,214.76Z"/><path class="cls-5" d="M393,217.49a12.93,12.93,0,0,0-12.93-12.93,12.73,12.73,0,0,0-2.15.19A19.82,19.82,0,0,0,343.72,198a18.72,18.72,0,0,0-4.52-.56,18.4,18.4,0,1,0,0,36.79h42.49l5.76-6.1h0A12.89,12.89,0,0,0,393,217.49Z"/><path class="cls-4" d="M785.94,214.76a15,15,0,0,0-15-15,15.81,15.81,0,0,0-2.5.21,23.06,23.06,0,0,0-39.83-7.84,21.4,21.4,0,1,0-5.26,42.14h49.43l6.7-7.09h0A15,15,0,0,0,785.94,214.76Z"/><path class="cls-4" d="M906.2,214.76a15,15,0,0,0-15-15,15.91,15.91,0,0,0-2.5.21,23.06,23.06,0,0,0-39.83-7.84,21.17,21.17,0,0,0-5.26-.65,21.4,21.4,0,0,0,0,42.79H893l6.7-7.09h0A15,15,0,0,0,906.2,214.76Z"/><path class="cls-4" d="M949.41,219.29a11.54,11.54,0,0,0-11.54-11.54,12,12,0,0,0-1.92.16,17.7,17.7,0,0,0-30.57-6,16.42,16.42,0,1,0-4,32.34h37.94l5.14-5.44h0A11.53,11.53,0,0,0,949.41,219.29Z"/><path class="cls-5" d="M845.33,214.76a15,15,0,0,0-15-15,15.91,15.91,0,0,0-2.5.21A23.06,23.06,0,0,0,788,192.09a21.17,21.17,0,0,0-5.26-.65,21.4,21.4,0,0,0,0,42.79h49.44l6.7-7.09h0A15,15,0,0,0,845.33,214.76Z"/><path class="cls-4" d="M20.74,214.76a15,15,0,0,0-15-15,15.68,15.68,0,0,0-2.49.21,23.09,23.09,0,0,0-22-16.24,23,23,0,0,0-17.8,8.4,21.15,21.15,0,0,0-5.25-.65,21.4,21.4,0,0,0-21.4,21.39,21.4,21.4,0,0,0,21.4,21.4H7.55l6.7-7.09h0A15,15,0,0,0,20.74,214.76Z"/><path class="cls-5" d="M117.81,219.29a11.54,11.54,0,0,0-11.54-11.54,12,12,0,0,0-1.92.16,17.7,17.7,0,0,0-30.57-6,16.24,16.24,0,0,0-4-.5,16.42,16.42,0,1,0,0,32.84h37.93l5.14-5.44h0A11.51,11.51,0,0,0,117.81,219.29Z"/><path class="cls-5" d="M82.4,214.76a15,15,0,0,0-15-15,15.91,15.91,0,0,0-2.5.21A23.06,23.06,0,0,0,25,192.09a21.17,21.17,0,0,0-5.26-.65,21.4,21.4,0,0,0,0,42.79H69.21l6.69-7.09h0A15,15,0,0,0,82.4,214.76Z"/><g id="light"><polygon class="cls-6" points="85.57 154.76 90.2 172.18 102.08 172.18 106.71 154.66 85.57 154.76"/><path d="M102.63,172.89h-13l-5-18.84,23-.11Zm-11.88-1.43h10.78l4.25-16.08-19.28.09Z"/><line class="cls-6" x1="99.83" y1="154.46" x2="98.42" y2="172.28"/><rect x="90.19" y="162.66" width="17.87" height="1.43" transform="translate(-71.55 249.31) rotate(-85.48)"/><line class="cls-6" x1="92.68" y1="154.66" x2="93.79" y2="172.18"/><rect x="92.52" y="154.64" width="1.43" height="17.55" transform="translate(-10.12 6.21) rotate(-3.62)"/><path d="M107.91,153.86H106.2a2.5,2.5,0,0,0-2.49-2.42h-4.2v-1.71a1.42,1.42,0,0,0-1.42-1.43H94.2a1.43,1.43,0,0,0-1.43,1.43v1.71h-4.2a2.5,2.5,0,0,0-2.49,2.42H84.37a.71.71,0,0,0-.71.71v.29a.71.71,0,0,0,.71.71h23.54a.71.71,0,0,0,.71-.71v-.29A.71.71,0,0,0,107.91,153.86Z"/><path d="M102.91,172.41H89.38a.36.36,0,0,0-.36.36v.43a.36.36,0,0,0,.36.35h2.49a1.06,1.06,0,0,0,1.06,1h6.42a1.07,1.07,0,0,0,1.07-1h2.49a.35.35,0,0,0,.35-.35v-.43A.36.36,0,0,0,102.91,172.41Z"/><polygon class="cls-6" points="179.96 154.76 184.59 172.18 196.47 172.18 201.1 154.66 179.96 154.76"/><path d="M197,172.89H184l-5-18.84,23-.11Zm-11.87-1.43h10.78l4.25-16.08-19.29.09Z"/><line class="cls-6" x1="194.21" y1="154.46" x2="192.81" y2="172.28"/><rect x="184.57" y="162.66" width="17.87" height="1.43" transform="translate(15.39 343.4) rotate(-85.48)"/><line class="cls-6" x1="187.07" y1="154.66" x2="188.17" y2="172.18"/><rect x="186.91" y="154.64" width="1.43" height="17.55" transform="translate(-9.94 12.16) rotate(-3.62)"/><path d="M202.3,153.86h-1.71a2.5,2.5,0,0,0-2.49-2.42h-4.2v-1.71a1.43,1.43,0,0,0-1.43-1.43h-3.89a1.43,1.43,0,0,0-1.43,1.43v1.71H183a2.5,2.5,0,0,0-2.5,2.42h-1.7a.71.71,0,0,0-.72.71v.29a.71.71,0,0,0,.72.71H202.3a.71.71,0,0,0,.71-.71v-.29A.71.71,0,0,0,202.3,153.86Z"/><path d="M197.29,172.41H183.76a.36.36,0,0,0-.36.36v.43a.36.36,0,0,0,.36.35h2.49a1.07,1.07,0,0,0,1.07,1h6.42a1.06,1.06,0,0,0,1.06-1h2.49a.36.36,0,0,0,.36-.35v-.43A.36.36,0,0,0,197.29,172.41Z"/><polygon class="cls-6" points="126.42 131.36 133.7 158.75 152.39 158.75 159.67 131.2 126.42 131.36"/><path d="M153.25,159.88H132.84L125,130.24l36.17-.17Zm-18.69-2.25h17l6.69-25.3-30.34.14Z"/><line class="cls-6" x1="148.85" y1="130.88" x2="146.63" y2="158.91"/><rect x="133.68" y="143.78" width="28.12" height="2.24" transform="translate(-8.36 280.75) rotate(-85.48)"/><line class="cls-6" x1="137.6" y1="131.2" x2="139.35" y2="158.76"/><rect x="137.35" y="131.17" width="2.24" height="27.61" transform="translate(-8.87 9.02) rotate(-3.62)"/><path d="M161.56,129.93h-2.68a3.93,3.93,0,0,0-3.92-3.8h-6.61v-2.69a2.24,2.24,0,0,0-2.24-2.24H140a2.24,2.24,0,0,0-2.24,2.24v2.69h-6.6a3.92,3.92,0,0,0-3.92,3.8h-2.69a1.12,1.12,0,0,0-1.12,1.12v.45a1.12,1.12,0,0,0,1.12,1.12h37a1.12,1.12,0,0,0,1.12-1.12v-.45A1.12,1.12,0,0,0,161.56,129.93Z"/><path d="M153.69,159.12H132.4a.57.57,0,0,0-.56.57v.67a.56.56,0,0,0,.56.56h3.92a1.69,1.69,0,0,0,1.68,1.63h10.09a1.68,1.68,0,0,0,1.68-1.63h3.92a.56.56,0,0,0,.56-.56v-.67A.57.57,0,0,0,153.69,159.12Z"/><path d="M148.26,179.45h2.61a1.12,1.12,0,0,0,1.12-1.12v-1.26h43.34v-2.74H152v-1.68a1.12,1.12,0,0,0-1.12-1.12h-2.61a1.13,1.13,0,0,0-1.13,1.12v1.68h-2.71V158.6h-2.75v15.73h-3.09v-1.52a1.12,1.12,0,0,0-1.12-1.12h-2.61a1.12,1.12,0,0,0-1.12,1.12v1.52H91.28v2.74h42.45v1.41a1.13,1.13,0,0,0,1.12,1.13h2.61a1.13,1.13,0,0,0,1.12-1.13v-1.41h3.09V277.79h-3.73a1.12,1.12,0,0,0-1.12,1.12v.82a1.12,1.12,0,0,0,1.12,1.12h.78v4.51h-1.39a1.33,1.33,0,0,0-1.23.78l-10.7,23.4a1.33,1.33,0,0,0,1.21,1.89h32.87a1.33,1.33,0,0,0,1.2-1.91L149.6,286.2a1.34,1.34,0,0,0-1.2-.76h-1v-4.58h.78a1.12,1.12,0,0,0,1.12-1.12v-.82a1.12,1.12,0,0,0-1.12-1.12h-3.73V177.07h2.71v1.26A1.13,1.13,0,0,0,148.26,179.45Z"/></g><g id="light-2" data-name="light"><polygon class="cls-6" points="541.24 154.76 545.87 172.18 557.75 172.18 562.38 154.66 541.24 154.76"/><path d="M558.3,172.89h-13l-5-18.84,23-.11Zm-11.88-1.43H557.2l4.25-16.08-19.28.09Z"/><line class="cls-6" x1="555.5" y1="154.46" x2="554.09" y2="172.28"/><rect x="545.86" y="162.66" width="17.87" height="1.43" transform="translate(348.19 703.56) rotate(-85.48)"/><line class="cls-6" x1="548.35" y1="154.66" x2="549.46" y2="172.18"/><rect x="548.19" y="154.64" width="1.43" height="17.55" transform="translate(-9.22 34.95) rotate(-3.62)"/><path d="M563.58,153.86h-1.71a2.5,2.5,0,0,0-2.49-2.42h-4.2v-1.71a1.42,1.42,0,0,0-1.42-1.43h-3.89a1.43,1.43,0,0,0-1.43,1.43v1.71h-4.2a2.5,2.5,0,0,0-2.49,2.42H540a.71.71,0,0,0-.71.71v.29a.71.71,0,0,0,.71.71h23.54a.71.71,0,0,0,.71-.71v-.29A.71.71,0,0,0,563.58,153.86Z"/><path d="M558.58,172.41H545.05a.36.36,0,0,0-.36.36v.43a.36.36,0,0,0,.36.35h2.49a1.06,1.06,0,0,0,1.06,1H555a1.07,1.07,0,0,0,1.07-1h2.49a.36.36,0,0,0,.36-.35v-.43A.36.36,0,0,0,558.58,172.41Z"/><polygon class="cls-6" points="635.63 154.76 640.26 172.18 652.14 172.18 656.77 154.66 635.63 154.76"/><path d="M652.69,172.89h-13l-5-18.84,23-.11Zm-11.88-1.43h10.78l4.25-16.08-19.29.09Z"/><line class="cls-6" x1="649.89" y1="154.46" x2="648.48" y2="172.28"/><rect x="640.24" y="162.66" width="17.87" height="1.43" transform="translate(435.14 797.65) rotate(-85.48)"/><line class="cls-6" x1="642.74" y1="154.66" x2="643.85" y2="172.18"/><rect x="642.58" y="154.64" width="1.43" height="17.55" transform="translate(-9.03 40.91) rotate(-3.62)"/><path d="M658,153.86h-1.71a2.5,2.5,0,0,0-2.49-2.42h-4.2v-1.71a1.43,1.43,0,0,0-1.43-1.43h-3.89a1.42,1.42,0,0,0-1.42,1.43v1.71h-4.2a2.51,2.51,0,0,0-2.5,2.42h-1.7a.71.71,0,0,0-.72.71v.29a.71.71,0,0,0,.72.71H658a.71.71,0,0,0,.71-.71v-.29A.71.71,0,0,0,658,153.86Z"/><path d="M653,172.41H639.43a.36.36,0,0,0-.36.36v.43a.36.36,0,0,0,.36.35h2.49a1.07,1.07,0,0,0,1.07,1h6.42a1.06,1.06,0,0,0,1.06-1H653a.36.36,0,0,0,.36-.35v-.43A.36.36,0,0,0,653,172.41Z"/><polygon class="cls-6" points="582.09 131.36 589.37 158.75 608.06 158.75 615.34 131.2 582.09 131.36"/><path d="M608.92,159.88H588.51l-7.88-29.64,36.17-.17Zm-18.69-2.25h17l6.69-25.3-30.35.14Z"/><line class="cls-6" x1="604.52" y1="130.88" x2="602.3" y2="158.91"/><rect x="589.35" y="143.78" width="28.12" height="2.24" transform="translate(411.39 735.01) rotate(-85.48)"/><line class="cls-6" x1="593.27" y1="131.2" x2="595.02" y2="158.76"/><rect x="593.02" y="131.17" width="2.24" height="27.61" transform="translate(-7.96 37.77) rotate(-3.62)"/><path d="M617.23,129.93h-2.68a3.93,3.93,0,0,0-3.92-3.8H604v-2.69a2.24,2.24,0,0,0-2.24-2.24h-6.13a2.24,2.24,0,0,0-2.24,2.24v2.69h-6.6a3.92,3.92,0,0,0-3.92,3.8H580.2a1.12,1.12,0,0,0-1.12,1.12v.45a1.12,1.12,0,0,0,1.12,1.12h37a1.12,1.12,0,0,0,1.12-1.12v-.45A1.12,1.12,0,0,0,617.23,129.93Z"/><path d="M609.36,159.12H588.07a.57.57,0,0,0-.56.57v.67a.56.56,0,0,0,.56.56H592a1.69,1.69,0,0,0,1.68,1.63h10.09a1.67,1.67,0,0,0,1.68-1.63h3.92a.56.56,0,0,0,.56-.56v-.67A.57.57,0,0,0,609.36,159.12Z"/><path d="M603.93,179.45h2.61a1.12,1.12,0,0,0,1.12-1.12v-1.26H651v-2.74H607.66v-1.68a1.12,1.12,0,0,0-1.12-1.12h-2.61a1.12,1.12,0,0,0-1.12,1.12v1.68h-2.72V158.6h-2.75v15.73h-3.09v-1.52a1.12,1.12,0,0,0-1.12-1.12h-2.61a1.12,1.12,0,0,0-1.12,1.12v1.52H547v2.74H589.4v1.41a1.13,1.13,0,0,0,1.12,1.13h2.61a1.13,1.13,0,0,0,1.12-1.13v-1.41h3.09V277.79h-3.73a1.12,1.12,0,0,0-1.12,1.12v.82a1.12,1.12,0,0,0,1.12,1.12h.78v4.51H593a1.3,1.3,0,0,0-1.22.78l-10.71,23.4a1.34,1.34,0,0,0,1.21,1.89h32.87a1.33,1.33,0,0,0,1.2-1.91L605.27,286.2a1.33,1.33,0,0,0-1.2-.76h-1v-4.58h.77a1.13,1.13,0,0,0,1.13-1.12v-.82a1.13,1.13,0,0,0-1.13-1.12h-3.73V177.07h2.72v1.26A1.12,1.12,0,0,0,603.93,179.45Z"/></g><g id="base"><polygon class="cls-7" points="363.43 132.34 413.57 249.57 431.48 249.57 363.43 132.34"/><polygon class="cls-7" points="352.76 133.51 286.95 246.33 306.2 246.33 359.03 130 353.21 126.03 352.76 133.51"/><rect class="cls-8" x="253.39" y="243.16" width="205.05" height="7.93"/></g><line class="cls-9" x1="288.26" y1="87.01" x2="362.69" y2="128.64"/><line class="cls-9" x1="277.81" y1="150.38" x2="360.6" y2="129.94"/><line class="cls-9" x1="327.42" y1="209.6" x2="361.56" y2="131.46"/><line class="cls-9" x1="392.6" y1="208.87" x2="361.48" y2="129.47"/><line class="cls-9" x1="439.65" y1="167.16" x2="361.5" y2="133.02"/><line class="cls-9" x1="442.64" y1="100.58" x2="363.24" y2="131.7"/><line class="cls-9" x1="401.28" y1="53.33" x2="359.15" y2="127.47"/><line class="cls-9" x1="336.12" y1="48.71" x2="359.06" y2="130.84"/><line class="cls-10" x1="440.23" y1="155.98" x2="359.08" y2="129.78"/><line class="cls-10" x1="434.99" y1="90.92" x2="359.08" y2="129.78"/><line class="cls-10" x1="385.28" y1="48.63" x2="359.08" y2="129.78"/><line class="cls-10" x1="284.72" y1="169.83" x2="360.47" y2="130.66"/><line class="cls-10" x1="279.97" y1="102.3" x2="360.47" y2="130.44"/><line class="cls-10" x1="320.22" y1="53.88" x2="359.08" y2="129.78"/><rect class="cls-11" x="272.23" y="126.03" width="173.71" height="4.76"/><rect class="cls-11" x="272.23" y="126.81" width="173.71" height="4.76" transform="translate(13.82 291.75) rotate(-45)"/><rect class="cls-11" x="356.7" y="42.93" width="4.76" height="173.71" transform="translate(18.01 301.4) rotate(-46.58)"/><rect class="cls-11" x="356.7" y="46.21" width="4.76" height="173.71"/><path class="cls-11" d="M359.08,24.76a104.41,104.41,0,1,0,104.4,104.4A104.4,104.4,0,0,0,359.08,24.76Zm0,204.84A100.44,100.44,0,1,1,459.52,129.16,100.55,100.55,0,0,1,359.08,229.6Z"/><path class="cls-11" d="M359.08,36.65a92.52,92.52,0,1,0,92.51,92.51A92.62,92.62,0,0,0,359.08,36.65Zm0,173.13a80.62,80.62,0,1,1,80.62-80.62A80.71,80.71,0,0,1,359.08,209.78Z"/><path class="cls-11" d="M359.08,104a25.13,25.13,0,1,0,25.12,25.12A25.15,25.15,0,0,0,359.08,104Zm0,34.39a9.27,9.27,0,1,1,9.27-9.27A9.28,9.28,0,0,1,359.08,138.43Z"/><path class="cls-8" d="M359.08,119.9a9.27,9.27,0,1,0,9.27,9.26A9.27,9.27,0,0,0,359.08,119.9Z"/><path class="cls-12" d="M281.48,206.88l18.51-1.2C301.48,176.73,276.31,187.63,281.48,206.88Zm1.9-2.51a13.88,13.88,0,0,1,2.37-10.79,7.49,7.49,0,0,1,5.59-3.27,4.39,4.39,0,0,1,3.26,1.48c1.21,1.27,3.11,4.43,3.07,11.66Z"/><path class="cls-12" d="M290,217.33H279.48a3.17,3.17,0,0,1-3.17-3.18v-8.58a3.16,3.16,0,0,1,3.17-3.17H290Z"/><path class="cls-13" d="M290,202.4h10.54a3.17,3.17,0,0,1,3.17,3.17v8.58a3.17,3.17,0,0,1-3.17,3.18H290Z"/><path class="cls-12" d="M420.4,205.13l18.51-1.19C440.4,175,415.22,185.88,420.4,205.13Zm1.89-2.5a14,14,0,0,1,2.38-10.8,7.49,7.49,0,0,1,5.59-3.27,4.38,4.38,0,0,1,3.26,1.49c1.21,1.27,3.11,4.42,3.07,11.65Z"/><path class="cls-12" d="M428.93,215.58H418.39a3.17,3.17,0,0,1-3.17-3.17v-8.58a3.17,3.17,0,0,1,3.17-3.17h10.54Z"/><path class="cls-13" d="M428.93,200.66h10.54a3.17,3.17,0,0,1,3.17,3.17v8.58a3.17,3.17,0,0,1-3.17,3.17H428.93Z"/><path class="cls-12" d="M271.44,71.91,290,70.71C291.44,41.76,266.27,52.66,271.44,71.91Zm1.89-2.51a13.92,13.92,0,0,1,2.38-10.79,7.49,7.49,0,0,1,5.59-3.27,4.39,4.39,0,0,1,3.26,1.48c1.21,1.27,3.11,4.43,3.07,11.66Z"/><path class="cls-12" d="M280,82.36H269.44a3.17,3.17,0,0,1-3.17-3.18V70.6a3.16,3.16,0,0,1,3.17-3.17H280Z"/><path class="cls-13" d="M280,67.43h10.54a3.17,3.17,0,0,1,3.17,3.17v8.58a3.17,3.17,0,0,1-3.17,3.18H280Z"/><path class="cls-12" d="M420.81,70.34l18.5-1.19C440.8,40.2,415.63,51.09,420.81,70.34Zm1.89-2.5a14,14,0,0,1,2.37-10.79,7.5,7.5,0,0,1,5.59-3.28,4.4,4.4,0,0,1,3.27,1.49c1.2,1.27,3.1,4.42,3.07,11.66Z"/><path class="cls-12" d="M429.33,80.79H418.8a3.17,3.17,0,0,1-3.17-3.17V69a3.17,3.17,0,0,1,3.17-3.17h10.53Z"/><path class="cls-13" d="M429.33,65.87h10.54A3.17,3.17,0,0,1,443,69v8.58a3.17,3.17,0,0,1-3.17,3.17H429.33Z"/><path class="cls-12" d="M350.91,227.82l18.5-1.2C370.91,197.67,345.73,208.57,350.91,227.82Zm1.89-2.51a13.92,13.92,0,0,1,2.38-10.79,7.48,7.48,0,0,1,5.58-3.27,4.43,4.43,0,0,1,3.27,1.48c1.21,1.27,3.1,4.43,3.07,11.66Z"/><path class="cls-12" d="M359.44,238.27H348.9a3.17,3.17,0,0,1-3.17-3.18v-8.58a3.17,3.17,0,0,1,3.17-3.17h10.54Z"/><path class="cls-13" d="M359.44,223.34H370a3.17,3.17,0,0,1,3.17,3.17v8.58a3.17,3.17,0,0,1-3.17,3.18H359.44Z"/><path class="cls-12" d="M449.9,138.62l18.51-1.19C469.9,108.48,444.73,119.37,449.9,138.62Zm1.9-2.5a13.9,13.9,0,0,1,2.37-10.8,7.49,7.49,0,0,1,5.59-3.27,4.37,4.37,0,0,1,3.26,1.49c1.21,1.27,3.11,4.42,3.07,11.65Z"/><path class="cls-12" d="M458.43,149.07H447.9a3.16,3.16,0,0,1-3.17-3.17v-8.58a3.17,3.17,0,0,1,3.17-3.18h10.53Z"/><path class="cls-13" d="M458.43,134.14H469a3.17,3.17,0,0,1,3.17,3.18v8.58a3.17,3.17,0,0,1-3.17,3.17H458.43Z"/><path class="cls-12" d="M253.49,138.85l18.5-1.2C273.49,108.7,248.31,119.6,253.49,138.85Zm1.89-2.51a14,14,0,0,1,2.37-10.79,7.5,7.5,0,0,1,5.59-3.27,4.43,4.43,0,0,1,3.27,1.48c1.21,1.27,3.1,4.43,3.07,11.66Z"/><path class="cls-12" d="M262,149.3H251.48a3.17,3.17,0,0,1-3.17-3.18v-8.58a3.17,3.17,0,0,1,3.17-3.17H262Z"/><path class="cls-13" d="M262,134.37h10.53a3.17,3.17,0,0,1,3.17,3.17v8.58a3.17,3.17,0,0,1-3.17,3.18H262Z"/><path class="cls-12" d="M350.5,42.88,369,41.69C370.5,12.74,345.33,23.63,350.5,42.88Zm1.9-2.5a13.94,13.94,0,0,1,2.37-10.8,7.49,7.49,0,0,1,5.59-3.27,4.37,4.37,0,0,1,3.26,1.49c1.21,1.27,3.11,4.42,3.08,11.65Z"/><path class="cls-12" d="M359,53.33H348.5a3.17,3.17,0,0,1-3.17-3.17V41.57a3.17,3.17,0,0,1,3.17-3.17H359Z"/><path class="cls-13" d="M359,38.4h10.54a3.17,3.17,0,0,1,3.17,3.17v8.59a3.17,3.17,0,0,1-3.17,3.17H359Z"/><g id="hotdog_stand" data-name="hotdog stand"><rect class="cls-14" x="447.42" y="239.99" width="51.03" height="24.21"/><rect class="cls-15" x="449.65" y="241.81" width="46.57" height="9.71" rx="1.45"/><rect class="cls-16" x="447.08" y="225.58" width="51.71" height="15.32" rx="1.45"/><rect class="cls-16" x="442.57" y="269.23" width="138.51" height="48.53"/><rect class="cls-17" x="441.54" y="266.67" width="140.77" height="5.13"/><rect class="cls-17" x="446.13" y="264.21" width="132.43" height="4.92"/><path class="cls-18" d="M440.67,311.61v10.46h142.2V311.61h-4.51c-7.18-20.73-50.89-29.55-62,0-4.56,0-2.26.2-10.06.2-3.28-18.31-45.21-32-61.08-.41C442.92,311.4,440.67,311.61,440.67,311.61Z"/><rect class="cls-16" x="548.39" y="300.86" width="0.89" height="43.98" transform="translate(178.76 -195.32) rotate(24)"/><rect class="cls-16" x="546.53" y="300.03" width="0.89" height="43.98" transform="translate(178.27 -194.64) rotate(24)"/><rect class="cls-16" x="548.11" y="301.25" width="0.89" height="43.98" transform="translate(421.71 -300.71) rotate(48)"/><rect class="cls-16" x="546.75" y="299.73" width="0.89" height="43.98" transform="translate(420.14 -300.2) rotate(48)"/><rect class="cls-16" x="547.69" y="301.49" width="0.89" height="43.98" transform="translate(686.4 -297.79) rotate(72)"/><rect class="cls-16" x="547.07" y="299.55" width="0.89" height="43.98" transform="translate(684.13 -298.53) rotate(72)"/><rect class="cls-16" x="547.22" y="301.54" width="0.89" height="43.98" transform="translate(926.66 -187.32) rotate(96)"/><rect class="cls-16" x="547.43" y="299.51" width="0.89" height="43.98" transform="translate(924.89 -189.76) rotate(96)"/><rect class="cls-16" x="546.76" y="301.39" width="0.89" height="43.98" transform="translate(1100.86 11.17) rotate(120)"/><rect class="cls-16" x="547.78" y="299.63" width="0.89" height="43.98" transform="translate(1100.86 7.65) rotate(120)"/><rect class="cls-16" x="546.4" y="301.07" width="0.89" height="43.98" transform="translate(1179.15 262.99) rotate(144)"/><rect class="cls-16" x="548.05" y="299.87" width="0.89" height="43.98" transform="matrix(-0.81, 0.59, -0.59, -0.81, 1181.42, 259.86)"/><rect class="cls-16" x="546.21" y="300.63" width="0.89" height="43.98" transform="translate(1148.44 524.53) rotate(168)"/><rect class="cls-16" x="548.2" y="300.21" width="0.89" height="43.98" transform="translate(1152.29 523.28) rotate(168)"/><rect class="cls-16" x="546.21" y="300.15" width="0.89" height="43.98" transform="matrix(-0.98, -0.21, 0.21, -0.98, 1014.39, 750.9)"/><rect class="cls-16" x="548.2" y="300.57" width="0.89" height="43.98" transform="translate(1018.23 752.15) rotate(-168)"/><rect class="cls-16" x="546.4" y="299.71" width="0.89" height="43.98" transform="translate(800.17 903.39) rotate(-144)"/><rect class="cls-16" x="548.05" y="300.91" width="0.89" height="43.98" transform="translate(802.44 906.52) rotate(-144)"/><rect class="cls-16" x="546.76" y="299.39" width="0.89" height="43.98" transform="translate(542.48 955.96) rotate(-120)"/><rect class="cls-16" x="547.78" y="301.15" width="0.89" height="43.98" transform="translate(542.48 959.49) rotate(-120)"/><rect class="cls-16" x="547.22" y="299.24" width="0.89" height="43.98" transform="translate(285.44 899.47) rotate(-96)"/><rect class="cls-16" x="547.43" y="301.26" width="0.89" height="43.98" transform="translate(283.66 901.92) rotate(-96)"/><rect class="cls-16" x="547.69" y="299.29" width="0.89" height="43.98" transform="translate(73.2 743.31) rotate(-72)"/><rect class="cls-16" x="547.07" y="301.22" width="0.89" height="43.98" transform="translate(70.92 744.05) rotate(-72)"/><rect class="cls-16" x="548.11" y="299.53" width="0.89" height="43.98" transform="translate(-57.44 514.04) rotate(-48)"/><rect class="cls-16" x="546.75" y="301.04" width="0.89" height="43.98" transform="translate(-59.01 513.53) rotate(-48)"/><rect class="cls-16" x="548.39" y="299.92" width="0.89" height="43.98" transform="translate(-83.48 251.06) rotate(-24)"/><rect class="cls-16" x="546.53" y="300.75" width="0.89" height="43.98" transform="translate(-83.98 250.38) rotate(-24)"/><rect class="cls-16" x="548.49" y="300.39" width="0.89" height="43.98"/><rect class="cls-16" x="546.46" y="300.39" width="0.89" height="43.98"/><path class="cls-19" d="M547.59,295.94a25.86,25.86,0,1,0,25.86,25.86A25.86,25.86,0,0,0,547.59,295.94Zm0,47.35a21.5,21.5,0,1,1,21.5-21.49A21.51,21.51,0,0,1,547.59,343.29Z"/><path class="cls-20" d="M547.59,300.3a21.5,21.5,0,1,0,21.5,21.5A21.52,21.52,0,0,0,547.59,300.3Zm0,40.81A19.32,19.32,0,1,1,566.9,321.8,19.33,19.33,0,0,1,547.59,341.11Z"/><circle class="cls-19" cx="547.83" cy="322.35" r="3.47"/><circle class="cls-16" cx="547.83" cy="322.35" r="1.29"/><rect class="cls-16" x="476.97" y="301.13" width="0.89" height="43.98" transform="translate(172.7 -166.25) rotate(24)"/><rect class="cls-16" x="475.11" y="300.31" width="0.89" height="43.98" transform="translate(172.2 -165.56) rotate(24)"/><rect class="cls-16" x="476.69" y="301.52" width="0.89" height="43.98" transform="translate(398.28 -247.54) rotate(48)"/><rect class="cls-16" x="475.33" y="300.01" width="0.89" height="43.98" transform="translate(396.71 -247.03) rotate(48)"/><rect class="cls-16" x="476.27" y="301.76" width="0.89" height="43.98" transform="translate(637.31 -229.68) rotate(72)"/><rect class="cls-16" x="475.64" y="299.83" width="0.89" height="43.98" transform="translate(635.04 -230.41) rotate(72)"/><rect class="cls-16" x="475.79" y="301.81" width="0.89" height="43.98" transform="translate(848.05 -115.98) rotate(96)"/><rect class="cls-16" x="476.01" y="299.79" width="0.89" height="43.98" transform="translate(846.27 -118.43) rotate(96)"/><rect class="cls-16" x="475.34" y="301.66" width="0.89" height="43.98" transform="translate(993.97 73.44) rotate(120)"/><rect class="cls-16" x="476.35" y="299.9" width="0.89" height="43.98" transform="translate(993.97 69.92) rotate(120)"/><rect class="cls-16" x="474.98" y="301.34" width="0.89" height="43.98" transform="translate(1050.1 305.47) rotate(144)"/><rect class="cls-16" x="476.63" y="300.15" width="0.89" height="43.98" transform="translate(1052.38 302.34) rotate(144)"/><rect class="cls-16" x="474.79" y="300.9" width="0.89" height="43.98" transform="translate(1007.21 539.93) rotate(168)"/><rect class="cls-16" x="476.78" y="300.48" width="0.89" height="43.98" transform="matrix(-0.98, 0.21, -0.21, -0.98, 1011.06, 538.68)"/><rect class="cls-16" x="474.79" y="300.42" width="0.89" height="43.98" transform="translate(873.04 736.59) rotate(-168)"/><rect class="cls-16" x="476.78" y="300.85" width="0.89" height="43.98" transform="translate(876.89 737.84) rotate(-168)"/><rect class="cls-16" x="474.98" y="299.99" width="0.89" height="43.98" transform="translate(670.8 861.91) rotate(-144)"/><rect class="cls-16" x="476.63" y="301.18" width="0.89" height="43.98" transform="translate(673.07 865.04) rotate(-144)"/><rect class="cls-16" x="475.34" y="299.67" width="0.89" height="43.98" transform="translate(435.11 894.52) rotate(-120)"/><rect class="cls-16" x="476.35" y="301.43" width="0.89" height="43.98" transform="translate(435.11 898.05) rotate(-120)"/><rect class="cls-16" x="475.79" y="299.52" width="0.89" height="43.98" transform="translate(206.27 828.74) rotate(-96)"/><rect class="cls-16" x="476.01" y="301.54" width="0.89" height="43.98" transform="translate(204.49 831.19) rotate(-96)"/><rect class="cls-16" x="476.27" y="299.57" width="0.89" height="43.98" transform="translate(23.58 675.57) rotate(-72)"/><rect class="cls-16" x="475.64" y="301.5" width="0.89" height="43.98" transform="translate(21.31 676.31) rotate(-72)"/><rect class="cls-16" x="476.69" y="299.81" width="0.89" height="43.98" transform="translate(-81.27 461.05) rotate(-48)"/><rect class="cls-16" x="475.33" y="301.32" width="0.89" height="43.98" transform="matrix(0.67, -0.74, 0.74, 0.67, -82.85, 460.54)"/><rect class="cls-16" x="476.97" y="300.19" width="0.89" height="43.98" transform="translate(-89.77 222.04) rotate(-24)"/><rect class="cls-16" x="475.11" y="301.02" width="0.89" height="43.98" transform="translate(-90.27 221.35) rotate(-24)"/><rect class="cls-16" x="477.07" y="300.66" width="0.89" height="43.98"/><rect class="cls-16" x="475.03" y="300.66" width="0.89" height="43.98"/><path class="cls-19" d="M476.17,296.22A25.86,25.86,0,1,0,502,322.07,25.85,25.85,0,0,0,476.17,296.22Zm0,47.35a21.5,21.5,0,1,1,21.49-21.5A21.52,21.52,0,0,1,476.17,343.57Z"/><path class="cls-20" d="M476.17,300.58a21.5,21.5,0,1,0,21.49,21.49A21.52,21.52,0,0,0,476.17,300.58Zm0,40.81a19.32,19.32,0,1,1,19.31-19.32A19.35,19.35,0,0,1,476.17,341.39Z"/><circle class="cls-19" cx="476.41" cy="322.62" r="3.47"/><circle class="cls-16" cx="476.41" cy="322.62" r="1.29"/><rect class="cls-17" x="509.88" y="152.37" width="4.1" height="115.33"/><polyline class="cls-21" points="549.27 199.22 551.33 203.33 577.05 203.33 578.55 199.22 549.27 199.22"/><polyline class="cls-21" points="474.31 199.22 476.91 203.33 509.6 203.33 512.34 199.22 474.31 199.22"/><polyline class="cls-22" points="512.34 199.22 514.53 203.33 547.09 203.33 549.27 199.22 512.34 199.22"/><polyline class="cls-22" points="446.13 199.22 447.36 203.33 472.67 203.33 474.31 199.22 446.13 199.22"/><polyline class="cls-6" points="549.27 199.22 578.55 199.22 511.24 158.73 544.9 199.22 549.27 199.22"/><polyline class="cls-6" points="477.32 199.22 512.34 199.22 511.24 158.73 471.02 199.22 477.32 199.22"/><polygon class="cls-23" points="512.34 199.22 511.24 158.73 549.27 199.22 512.34 199.22"/><polygon class="cls-23" points="511.24 158.73 446.13 199.22 477.32 199.22 511.24 158.73"/><path class="cls-17" d="M544.08,131.47a8.15,8.15,0,0,0-1.25-2.31,7.8,7.8,0,0,0-.74-2.47c-1.79-3.64-6.17-5.29-9.48-5.29a7.15,7.15,0,0,0-2,.25c-.74.11-1.65.27-2.75.46a83.08,83.08,0,0,1-14.29,1.6c-4.77,0-8.39-.78-10.77-2.33a9.21,9.21,0,0,0-5-1.43,8,8,0,0,0-7.23,3.86l-.06.16c-3.67.48-6.94,2.88-7.91,6a6.93,6.93,0,0,0-.28,1.47,7.63,7.63,0,0,0-1.48,10.78c4.26,8.72,20.91,13.42,34.59,13.42,9.76,0,17.58-2.32,22-6.53l.2-.2.17-.22a16.54,16.54,0,0,0,2.9-5.42C543.53,140.89,545.53,135.7,544.08,131.47Z"/><path class="cls-24" d="M500.84,124.43c-3.31-2.16-9.62,0-6.48,4.55,3.74,8.3,34.53,14,42.73,6.17,6.48-8.4-3.52-10.85-5.64-9.94C527,125.75,509.68,130.18,500.84,124.43Z"/><path class="cls-25" d="M494.76,130.05c2.42-2.82,3.5-4.84,4.57-3.23s.67,4.84,1.48,5.65,2.82-3.63,3.63-3a5.25,5.25,0,0,0,5.1,0c1.62-1.08,3.5,0,4.17,1.61s1.75-1.07,2.55-1.74a2.74,2.74,0,0,1,3.76.26c1.21,1.35,2.15.14,3-.67s1.75-1.88,2.69-.67a11.19,11.19,0,0,0,2.55,2.42c1.35,1.07.67-2,1.88-2.42s1.88-1.34,2.69-.4a19.88,19.88,0,0,1,1.88,2.28c.41.67,3,2.82.27,3.63s-26.34,1.34-26.34,1.34l-15.85-1.21Z"/><path class="cls-26" d="M494.36,128c-5.05-2.24-11.56,3.23-6.72,6.59s22.84,9.94,28.22,9.81,19.35-1.48,22.44-3.9,4.84-11-2.82-10.75C517.74,132.2,504,132.33,494.36,128Z"/><path class="cls-27" d="M499.33,128.57c-8.47,1.88-8.33,12,3,5.24s6.58-.67,4.7,1.88,4.7,2.82,8.73-4.7,1.75,7.79,3.1,10.21.4-10.21,5.91-10.62,0,6.46,2.42,7.66,1.21-14.64,6.85-6.45"/><path class="cls-24" d="M492.61,134.35c-3.88-3.51-12.77,0-8.6,6,5,11,40,16.4,50.93,6.05,8.6-11.15-6.72-15.18-9.54-14C523,132.73,503.9,144.56,492.61,134.35Z"/></g><path class="cls-28" d="M578.82,67a8.6,8.6,0,0,0-2.55.39,11.79,11.79,0,0,0-22.33-1.87,9.5,9.5,0,1,0-3.16,18.45h28a8.49,8.49,0,1,0,0-17Z"/><path class="cls-28" d="M183.05,46.34a8.6,8.6,0,0,0-2.55.39,11.8,11.8,0,0,0-22.34-1.87,9.35,9.35,0,0,0-3.15-.55,9.5,9.5,0,0,0,0,19h28a8.49,8.49,0,0,0,0-17Z"/><path class="cls-28" d="M758.45,46.34a8.6,8.6,0,0,0-2.55.39,11.79,11.79,0,0,0-22.33-1.87,9.49,9.49,0,1,0-3.15,18.45h28a8.49,8.49,0,1,0,0-17Z"/></g></svg>