<svg id="backgroud" xmlns="http://www.w3.org/2000/svg" viewBox="0 0 896 414"><defs><style>.cls-1{fill:#add9ee;}.cls-2{fill:#5caacc;}.cls-3{fill:#683717;}.cls-4{fill:#4ca547;}.cls-5{fill:#289345;}.cls-6{fill:#a5a4a4;}.cls-7{fill:#bababa;}.cls-8{fill:#c8982e;}.cls-9{fill:#703e18;}.cls-10{fill:#e2b373;}.cls-11{fill:#a0cc3a;}.cls-12{fill:#be2326;}.cls-13,.cls-21{fill:none;stroke-miterlimit:10;}.cls-13{stroke:#d8b82f;stroke-width:1.86px;}.cls-14{fill:#020202;}.cls-15{fill:#565656;}.cls-16{fill:#cfcfce;}.cls-17{fill:#fff;}.cls-18{fill:#69b5b7;}.cls-19{fill:#cacece;}.cls-20{fill:#2b2121;}.cls-21{stroke:#e2dcdc;stroke-width:1.93px;}.cls-22{fill:#db3527;}.cls-23{fill:#eaeaea;}.cls-24{fill:#7c1616;}.cls-25{fill:#434343;}</style></defs><rect id="Sky" class="cls-1" x="-3.4" y="-1.31" width="900.65" height="219.36"/><polygon id="City" class="cls-2" points="681.5 124.09 676.96 124.09 676.96 88.46 659.15 88.46 659.15 124.09 642.38 124.09 642.38 144.35 613.74 144.35 613.74 57.03 575.66 57.03 575.66 100.69 553.66 100.69 553.66 111.87 546.67 111.87 546.67 119.9 535.84 119.9 535.84 101.04 520.82 101.04 520.82 116.41 505.1 116.41 505.1 94.05 500.21 94.05 500.21 80.43 481.7 80.43 481.7 99.29 479.25 99.29 479.25 91.96 471.92 91.96 471.92 117.03 461.44 117.03 461.44 102.79 396.82 102.79 396.82 113.27 381.8 113.27 381.8 100.34 368.18 100.34 368.18 127.94 361.54 127.94 361.54 115.71 355.25 115.71 355.25 121.65 349.31 121.65 349.31 108.03 342.33 108.03 342.33 116.06 337.09 116.06 337.09 96.15 329.4 96.15 329.4 105.23 312.64 105.23 312.64 65.41 299.36 65.41 299.36 93.7 283.29 93.7 283.29 112.92 253.95 112.92 253.95 88.11 238.58 88.11 238.58 139.46 220.42 139.46 220.42 91.96 210.64 91.96 210.64 139.46 206.45 139.46 206.45 84.97 173.61 84.97 173.61 204.09 197.36 204.09 197.36 211.07 238.58 211.07 238.58 213.17 249.76 213.17 249.76 215.26 283.29 215.26 283.29 217.36 299.36 217.36 299.36 233.08 312.64 233.08 312.64 212.12 335.34 212.12 335.34 203.04 337.09 203.04 337.09 186.27 342.33 186.27 342.33 197.1 349.31 197.1 349.31 162.87 357 162.87 357 184.87 373.42 184.87 373.42 182.43 379 182.43 379 200.59 396.82 200.59 396.82 214.56 461.44 214.56 461.44 150.21 471.92 150.21 471.92 185.92 479.25 185.92 479.25 166.66 481.7 166.66 481.7 184.52 500.21 184.52 500.21 190.11 520.82 190.11 520.82 212.82 535.84 212.82 535.84 207.23 546.67 207.23 546.67 215.96 602.21 215.96 602.21 233.78 648.67 233.78 648.67 231.68 681.5 231.68 681.5 124.09"/><polygon id="City-2" data-name="City" class="cls-2" points="1188.4 158.81 1183.86 158.81 1183.86 123.18 1166.05 123.18 1166.05 158.81 1149.28 158.81 1149.28 179.07 1120.64 179.07 1120.64 91.74 1082.57 91.74 1082.57 135.4 1060.56 135.4 1060.56 146.58 1053.57 146.58 1053.57 154.62 1042.74 154.62 1042.74 135.75 1027.72 135.75 1027.72 151.12 1012 151.12 1012 128.77 1007.12 128.77 1007.12 115.14 988.6 115.14 988.6 134.01 986.16 134.01 986.16 126.67 978.82 126.67 978.82 151.74 968.34 151.74 968.34 137.5 903.72 137.5 903.72 147.98 888.7 147.98 888.7 135.06 875.08 135.06 875.08 162.65 868.44 162.65 868.44 150.42 862.15 150.42 862.15 156.36 856.21 156.36 856.21 142.74 849.23 142.74 849.23 150.77 843.99 150.77 843.99 130.86 836.3 130.86 836.3 139.94 819.54 139.94 819.54 100.12 806.26 100.12 806.26 128.42 790.2 128.42 790.2 147.63 760.85 147.63 760.85 122.83 745.48 122.83 745.48 174.18 727.32 174.18 727.32 126.67 717.54 126.67 717.54 174.18 713.35 174.18 713.35 119.69 680.51 119.69 680.51 238.8 704.27 238.8 704.27 245.78 745.48 245.78 745.48 247.88 756.66 247.88 756.66 249.98 790.2 249.98 790.2 252.07 806.26 252.07 806.26 267.79 819.54 267.79 819.54 246.83 842.24 246.83 842.24 237.75 843.99 237.75 843.99 220.98 849.23 220.98 849.23 231.81 856.21 231.81 856.21 197.58 863.9 197.58 863.9 219.59 880.32 219.59 880.32 217.14 885.9 217.14 885.9 235.31 903.72 235.31 903.72 249.28 968.34 249.28 968.34 184.93 978.82 184.93 978.82 220.63 986.16 220.63 986.16 201.38 988.6 201.38 988.6 219.24 1007.12 219.24 1007.12 224.83 1027.72 224.83 1027.72 247.53 1042.74 247.53 1042.74 241.94 1053.57 241.94 1053.57 250.68 1109.11 250.68 1109.11 268.49 1155.57 268.49 1155.57 266.39 1188.4 266.39 1188.4 158.81"/><polygon id="City-3" data-name="City" class="cls-2" points="173.73 135.79 169.19 135.79 169.19 100.17 151.37 100.17 151.37 135.79 134.61 135.79 134.61 156.06 105.96 156.06 105.96 68.73 67.89 68.73 67.89 112.39 45.88 112.39 45.88 123.57 38.9 123.57 38.9 131.6 28.07 131.6 28.07 112.74 13.05 112.74 13.05 128.11 -2.67 128.11 -2.67 105.75 -7.56 105.75 -7.56 92.13 -26.08 92.13 -26.08 110.99 -28.52 110.99 -28.52 103.66 -35.86 103.66 -35.86 128.73 -46.34 128.73 -46.34 114.49 -110.96 114.49 -110.96 124.97 -125.98 124.97 -125.98 112.04 -139.6 112.04 -139.6 139.64 -146.24 139.64 -146.24 127.41 -152.53 127.41 -152.53 133.35 -158.46 133.35 -158.46 119.73 -165.45 119.73 -165.45 127.76 -170.69 127.76 -170.69 107.85 -178.37 107.85 -178.37 116.93 -195.14 116.93 -195.14 77.11 -208.41 77.11 -208.41 105.41 -224.48 105.41 -224.48 124.62 -253.82 124.62 -253.82 99.82 -269.19 99.82 -269.19 151.16 -287.36 151.16 -287.36 103.66 -297.14 103.66 -297.14 151.16 -301.33 151.16 -301.33 96.67 -334.16 96.67 -334.16 215.79 -310.41 215.79 -310.41 222.77 -269.19 222.77 -269.19 224.87 -258.01 224.87 -258.01 226.96 -224.48 226.96 -224.48 229.06 -208.41 229.06 -208.41 244.78 -195.14 244.78 -195.14 223.82 -172.44 223.82 -172.44 214.74 -170.69 214.74 -170.69 197.97 -165.45 197.97 -165.45 208.8 -158.46 208.8 -158.46 174.57 -150.78 174.57 -150.78 196.57 -134.36 196.57 -134.36 194.13 -128.77 194.13 -128.77 212.29 -110.96 212.29 -110.96 226.27 -46.34 226.27 -46.34 161.91 -35.86 161.91 -35.86 197.62 -28.52 197.62 -28.52 178.37 -26.08 178.37 -26.08 196.22 -7.56 196.22 -7.56 201.81 13.05 201.81 13.05 224.52 28.07 224.52 28.07 218.93 38.9 218.93 38.9 227.66 94.44 227.66 94.44 245.48 140.89 245.48 140.89 243.38 173.73 243.38 173.73 135.79"/><g id="tree5"><polygon class="cls-3" points="623.38 139.91 622.78 152.4 610.93 149.7 608.26 150.29 622.41 160.03 620.41 201.29 633.81 200.86 633.81 139.49 623.38 139.91"/><path class="cls-4" d="M595.21,87.73c0-15.72,28.76-28.47,36.77-11,11.27-7.12,26.39,10.08,22.53,19.27,29.36.89,5.93,69.09-29.65,50.41-8.3,15.41-60.78,3-47.14-25.21C574.16,118.27,569.71,91.28,595.21,87.73Z"/></g><g id="tree4"><polygon class="cls-3" points="559.87 175.01 559.65 179.65 555.25 178.64 554.26 178.86 559.51 182.48 558.9 202.92 564.25 203.39 563.74 174.85 559.87 175.01"/><path class="cls-5" d="M549.41,155.64c0-5.84,10.68-10.57,13.65-4.08,4.19-2.64,9.8,3.75,8.37,7.16,10.9.33,2.2,25.65-11,18.71-3.08,5.73-22.56,1.1-17.5-9.35C541.6,167,540,157,549.41,155.64Z"/></g><g id="tree3"><polygon class="cls-3" points="512.35 168.42 512.02 175.16 505.63 173.7 504.2 174.02 511.83 179.27 510.75 201.52 517.98 201.29 517.98 168.19 512.35 168.42"/><path class="cls-4" d="M497.16,140.28c0-8.47,15.51-15.35,19.83-5.92,6.07-3.83,14.23,5.44,12.15,10.4,15.83.48,3.2,37.25-16,27.18-4.48,8.32-32.78,1.6-25.42-13.59C485.81,156.75,483.41,142.2,497.16,140.28Z"/></g><g id="tree2"><polygon class="cls-3" points="304.4 167.72 304.07 174.46 297.68 173 296.24 173.32 303.87 178.57 302.8 200.82 310.02 200.59 310.02 167.49 304.4 167.72"/><path class="cls-5" d="M289.21,139.58c0-8.47,15.51-15.35,19.82-5.92,6.08-3.83,14.24,5.44,12.16,10.4,15.83.48,3.19,37.26-16,27.18-4.48,8.32-32.78,1.6-25.43-13.59C277.85,156.05,275.45,141.5,289.21,139.58Z"/></g><g id="tree1"><polygon class="cls-3" points="236.14 153.78 235.66 163.59 226.36 161.47 224.26 161.94 235.37 169.59 233.81 201.99 244.33 201.65 244.33 153.45 236.14 153.78"/><path class="cls-4" d="M214,112.8c0-12.34,22.59-22.36,28.88-8.62,8.85-5.59,20.73,7.92,17.7,15.14,23.05.7,4.66,54.26-23.29,39.59-6.52,12.11-47.74,2.33-37-19.8C197.48,136.78,194,115.59,214,112.8Z"/></g><g id="tree2-2" data-name="tree2"><polygon class="cls-3" points="809.19 167.72 808.86 174.46 802.47 173 801.03 173.32 808.66 178.57 807.59 200.82 814.81 200.59 814.81 167.49 809.19 167.72"/><path class="cls-5" d="M794,139.58c0-8.47,15.51-15.35,19.82-5.92,6.08-3.83,14.24,5.44,12.16,10.4,15.83.48,3.2,37.26-16,27.18-4.48,8.32-32.78,1.6-25.43-13.59C782.64,156.05,780.24,141.5,794,139.58Z"/></g><g id="tree1-2" data-name="tree1"><polygon class="cls-3" points="740.93 153.78 740.45 163.59 731.15 161.47 729.05 161.94 740.16 169.59 738.6 201.99 749.12 201.65 749.12 153.45 740.93 153.78"/><path class="cls-4" d="M718.81,112.8c0-12.34,22.58-22.36,28.87-8.62,8.85-5.59,20.73,7.92,17.7,15.14,23,.7,4.66,54.26-23.29,39.59-6.52,12.11-47.74,2.33-37-19.8C702.27,136.78,698.78,115.59,718.81,112.8Z"/></g><g id="tree5-2" data-name="tree5"><polygon class="cls-3" points="115.86 139.91 115.25 152.4 103.4 149.7 100.73 150.29 114.88 160.03 112.89 201.29 126.29 200.86 126.29 139.49 115.86 139.91"/><path class="cls-4" d="M87.69,87.73c0-15.72,28.76-28.47,36.76-11C135.72,69.64,150.84,86.84,147,96c29.35.89,5.93,69.09-29.65,50.41-8.3,15.41-60.79,3-47.15-25.21C66.64,118.27,62.19,91.28,87.69,87.73Z"/></g><g id="tree4-2" data-name="tree4"><polygon class="cls-3" points="52.35 175.01 52.12 179.65 47.72 178.64 46.73 178.86 51.99 182.48 51.37 202.92 56.73 203.39 56.22 174.85 52.35 175.01"/><path class="cls-5" d="M41.89,155.64c0-5.84,10.68-10.57,13.65-4.08,4.18-2.64,9.8,3.75,8.36,7.16,10.9.33,2.21,25.65-11,18.71-3.08,5.73-22.57,1.1-17.51-9.35C34.07,167,32.42,157,41.89,155.64Z"/></g><g id="tree3-2" data-name="tree3"><polygon class="cls-3" points="4.83 168.42 4.5 175.16 -1.89 173.7 -3.33 174.02 4.3 179.27 3.23 201.52 10.45 201.29 10.45 168.19 4.83 168.42"/><path class="cls-4" d="M-10.36,140.28c0-8.47,15.51-15.35,19.82-5.92,6.08-3.83,14.23,5.44,12.16,10.4,15.83.48,3.19,37.25-16,27.18-4.48,8.32-32.78,1.6-25.43-13.59C-21.72,156.75-24.12,142.2-10.36,140.28Z"/></g><rect id="grass" class="cls-4" x="-3.4" y="200.21" width="902.7" height="34.27"/><g id="fence"><rect class="cls-6" x="377.68" y="220.84" width="522.51" height="4.03"/><rect class="cls-6" x="376.91" y="180.12" width="522.51" height="4.03"/><rect class="cls-6" x="413.02" y="168.78" width="14.98" height="70.31"/><rect class="cls-6" x="856.78" y="173.01" width="14.98" height="70.31"/><rect class="cls-6" x="816.44" y="172.62" width="14.98" height="70.31"/><rect class="cls-6" x="776.09" y="172.24" width="14.98" height="70.31"/><rect class="cls-6" x="735.75" y="171.85" width="14.98" height="70.31"/><rect class="cls-6" x="695.41" y="171.47" width="14.98" height="70.31"/><rect class="cls-6" x="655.07" y="171.09" width="14.98" height="70.31"/><rect class="cls-6" x="614.73" y="170.7" width="14.98" height="70.31"/><rect class="cls-6" x="574.39" y="170.32" width="14.98" height="70.31"/><rect class="cls-6" x="534.05" y="169.93" width="14.98" height="70.31"/><rect class="cls-6" x="493.71" y="169.55" width="14.98" height="70.31"/><rect class="cls-6" x="453.36" y="169.17" width="14.98" height="70.31"/></g><g id="fence-2" data-name="fence"><rect class="cls-6" x="-178.01" y="220.84" width="522.51" height="4.03"/><rect class="cls-6" x="-178.78" y="180.12" width="522.51" height="4.03"/><rect class="cls-6" x="301.09" y="173.01" width="14.98" height="70.31"/><rect class="cls-6" x="260.75" y="172.62" width="14.98" height="70.31"/><rect class="cls-6" x="220.41" y="172.24" width="14.98" height="70.31"/><rect class="cls-6" x="180.07" y="171.85" width="14.98" height="70.31"/><rect class="cls-6" x="139.73" y="171.47" width="14.98" height="70.31"/><rect class="cls-6" x="99.39" y="171.09" width="14.98" height="70.31"/><rect class="cls-6" x="59.05" y="170.7" width="14.98" height="70.31"/><rect class="cls-6" x="18.7" y="170.32" width="14.98" height="70.31"/></g><rect id="Ground" class="cls-7" x="-3.4" y="233.97" width="900.65" height="181.29"/><rect class="cls-8" x="439.9" y="120.95" width="3.49" height="28.88"/><rect class="cls-8" x="389.83" y="120.95" width="3.49" height="28.88"/><ellipse class="cls-8" cx="415.74" cy="102.74" rx="47.38" ry="28.07"/><path class="cls-9" d="M415.74,127.72c-12.11,0-23.45-2.77-31.93-7.79-8-4.72-12.36-10.83-12.36-17.19s4.39-12.47,12.36-17.19c8.48-5,19.82-7.79,31.93-7.79s23.45,2.76,31.93,7.79c8,4.72,12.36,10.83,12.36,17.19s-4.39,12.47-12.36,17.19C439.19,125,427.85,127.72,415.74,127.72Z"/><path class="cls-10" d="M401.33,85.38c-4.3-2.8-12.5,0-8.42,5.92,4.86,10.78,44.88,18.15,55.54,8,8.42-10.92-4.58-14.11-7.34-12.92C435.35,87.09,412.82,92.86,401.33,85.38Z"/><path class="cls-11" d="M393.43,92.68c3.14-3.66,4.54-6.28,5.94-4.19s.87,6.29,1.92,7.34S405,91.11,406,92s4.54,1.4,6.63,0,4.54,0,5.42,2.1,2.27-1.4,3.31-2.27a3.58,3.58,0,0,1,4.9.35c1.57,1.75,2.79.17,3.84-.87s2.27-2.45,3.49-.88a14.37,14.37,0,0,0,3.32,3.15c1.75,1.39.87-2.62,2.44-3.15s2.45-1.74,3.5-.52a25.12,25.12,0,0,1,2.44,3c.53.87,3.84,3.67.35,4.71s-34.23,1.75-34.23,1.75l-20.61-1.57Z"/><path class="cls-12" d="M392.91,90.06c-6.57-2.92-15,4.19-8.74,8.56s29.69,12.93,36.68,12.75S446,109.45,450,106.31s6.29-14.33-3.67-14C423.3,95.48,405.48,95.65,392.91,90.06Z"/><path class="cls-13" d="M399.37,90.76c-11,2.45-10.83,15.55,3.84,6.81s8.56-.87,6.11,2.45,6.12,3.67,11.36-6.11,2.27,10.13,4,13.27.53-13.27,7.69-13.8,0,8.39,3.14,10,1.57-19,8.91-8.39"/><path class="cls-10" d="M390.64,98.27c-5.05-4.56-16.6,0-11.18,7.86,6.46,14.32,52,21.31,66.19,7.86,11.18-14.5-8.73-19.74-12.4-18.16C430.11,96.18,405.31,111.55,390.64,98.27Z"/><g id="Car"><circle class="cls-14" cx="470.7" cy="243.03" r="17.46"/><path class="cls-6" d="M470.7,258.42A15.39,15.39,0,1,1,486.08,243,15.4,15.4,0,0,1,470.7,258.42Z"/><path class="cls-15" d="M470.7,255.32A12.29,12.29,0,1,1,483,243,12.3,12.3,0,0,1,470.7,255.32Z"/><path class="cls-6" d="M470.7,253.47A10.44,10.44,0,1,1,481.13,243,10.45,10.45,0,0,1,470.7,253.47Z"/><path class="cls-16" d="M470.7,248.52a5.49,5.49,0,1,1,5.48-5.49A5.49,5.49,0,0,1,470.7,248.52Z"/><path class="cls-17" d="M470.7,244.81a1.78,1.78,0,1,1,1.77-1.78A1.78,1.78,0,0,1,470.7,244.81Z"/><circle class="cls-14" cx="322.96" cy="244.08" r="17.46"/><path class="cls-6" d="M323,259.47a15.39,15.39,0,1,1,15.38-15.39A15.41,15.41,0,0,1,323,259.47Z"/><path class="cls-15" d="M323,256.37a12.29,12.29,0,1,1,12.29-12.29A12.3,12.3,0,0,1,323,256.37Z"/><path class="cls-6" d="M323,254.52a10.44,10.44,0,1,1,10.43-10.44A10.45,10.45,0,0,1,323,254.52Z"/><path class="cls-16" d="M323,249.57a5.49,5.49,0,1,1,5.48-5.49A5.49,5.49,0,0,1,323,249.57Z"/><path class="cls-17" d="M323,245.86a1.78,1.78,0,1,1,1.77-1.78A1.78,1.78,0,0,1,323,245.86Z"/><path class="cls-18" d="M269.84,188c-2.19,12.73-2,29.49,1.93,51.69h26.54c-.46-11.87,33.3-34.69,45.65-1.86H445.72c11.41-23.29,54.73-11.18,54.73,2.1h24.68S527.38,213,523.45,188Z"/><path class="cls-19" d="M495.09,146.33c-39.82-1.86-163.94-4.89-183.5-.46-14,3.17-36,8.94-41.75,42.15H523.45C520.12,166.9,512.37,147.19,495.09,146.33Z"/><rect class="cls-20" x="354.2" y="156.58" width="136.4" height="39.12"/><rect class="cls-18" x="463.01" y="157.1" width="5.41" height="38.42"/><line class="cls-21" x1="369.75" y1="173.16" x2="394.55" y2="173.16"/><rect class="cls-21" x="370.27" y="159.02" width="24.28" height="28.64"/><line class="cls-21" x1="370.1" y1="162.23" x2="394.55" y2="162.23"/><rect class="cls-22" x="368.7" y="182.96" width="27.46" height="11.87"/><rect class="cls-23" x="470.87" y="191.51" width="15.02" height="4.37"/><rect class="cls-23" x="443.63" y="191.51" width="15.02" height="4.37"/><rect class="cls-23" x="416.38" y="191.51" width="15.02" height="4.37"/><rect class="cls-23" x="389.13" y="191.51" width="15.02" height="4.37"/><rect class="cls-23" x="361.89" y="191.51" width="15.02" height="4.37"/><rect class="cls-24" x="351.41" y="194.65" width="147.41" height="2.27"/><rect class="cls-22" x="345.82" y="154.13" width="152.82" height="5.59"/><path class="cls-19" d="M518.38,232c-6.22,3.11-7,9.43,1.22,10.3s8.73.18,8.73-5.59S526.06,228.19,518.38,232Z"/><g id="window"><path class="cls-25" d="M299.37,159.94h-3.44a1.12,1.12,0,0,0-1,.7l-8.7,21.49a1.12,1.12,0,0,0,1,1.54h12.06a1.12,1.12,0,0,0,1.12-1.12l.08-21.48A1.12,1.12,0,0,0,299.37,159.94Z"/><rect class="cls-25" x="303.23" y="159.94" width="38.2" height="23.73" rx="1.24"/><path class="cls-25" d="M286.74,156.53l3,.12a.64.64,0,0,1,.55.9l-11.66,25.67a.63.63,0,0,1-.57.37c-1.15,0-4.53.07-6.71.08a.64.64,0,0,1-.64-.64c.08-4.06,7.44-21.7,15.65-26.42A.62.62,0,0,1,286.74,156.53Z"/></g></g><g id="light"><polygon class="cls-17" points="537.81 75.04 542.91 94.24 556.02 94.24 561.12 74.93 537.81 75.04"/><path d="M556.62,95H542.31l-5.52-20.77,25.36-.12Zm-13.1-1.57h11.89l4.69-17.74-21.27.1Z"/><line class="cls-17" x1="553.53" y1="74.7" x2="551.98" y2="94.35"/><rect x="542.9" y="83.74" width="19.71" height="1.57" transform="translate(424.91 628.9) rotate(-85.48)"/><line class="cls-17" x1="545.65" y1="74.93" x2="546.87" y2="94.24"/><rect x="545.48" y="74.91" width="1.57" height="19.36" transform="translate(-4.25 34.63) rotate(-3.62)"/><path d="M562.45,74h-1.89a2.74,2.74,0,0,0-2.74-2.67h-4.63V69.49a1.58,1.58,0,0,0-1.58-1.58h-4.29a1.57,1.57,0,0,0-1.57,1.58v1.88h-4.63A2.76,2.76,0,0,0,538.37,74h-1.88a.78.78,0,0,0-.79.78v.32a.79.79,0,0,0,.79.79h26a.79.79,0,0,0,.78-.79v-.32A.78.78,0,0,0,562.45,74Z"/><path d="M556.93,94.5H542a.4.4,0,0,0-.39.4v.47a.4.4,0,0,0,.39.39h2.75a1.18,1.18,0,0,0,1.18,1.15H553a1.18,1.18,0,0,0,1.18-1.15h2.75a.39.39,0,0,0,.39-.39V94.9A.39.39,0,0,0,556.93,94.5Z"/><polygon class="cls-17" points="641.9 75.04 647.01 94.24 660.11 94.24 665.22 74.93 641.9 75.04"/><path d="M660.71,95H646.4l-5.52-20.77,25.36-.12Zm-13.1-1.57H659.5l4.69-17.74-21.27.1Z"/><line class="cls-17" x1="657.63" y1="74.7" x2="656.07" y2="94.35"/><rect x="646.99" y="83.74" width="19.71" height="1.57" transform="translate(520.8 732.67) rotate(-85.48)"/><line class="cls-17" x1="649.74" y1="74.93" x2="650.97" y2="94.24"/><rect x="649.57" y="74.91" width="1.57" height="19.36" transform="translate(-4.04 41.2) rotate(-3.62)"/><path d="M666.54,74h-1.88a2.76,2.76,0,0,0-2.75-2.67h-4.63V69.49a1.58,1.58,0,0,0-1.57-1.58h-4.3a1.57,1.57,0,0,0-1.57,1.58v1.88h-4.63A2.76,2.76,0,0,0,642.46,74h-1.88a.79.79,0,0,0-.79.78v.32a.8.8,0,0,0,.79.79h26a.8.8,0,0,0,.79-.79v-.32A.79.79,0,0,0,666.54,74Z"/><path d="M661,94.5H646.1a.4.4,0,0,0-.4.4v.47a.4.4,0,0,0,.4.39h2.74A1.18,1.18,0,0,0,650,96.91h7.08a1.17,1.17,0,0,0,1.17-1.15H661a.4.4,0,0,0,.4-.39V94.9A.4.4,0,0,0,661,94.5Z"/><polygon class="cls-17" points="582.86 49.23 590.89 79.44 611.5 79.44 619.53 49.05 582.86 49.23"/><path d="M612.45,80.68H589.94L581.25,48l39.89-.19ZM591.84,78.2h18.71l7.37-27.9-33.46.15Z"/><line class="cls-17" x1="607.59" y1="48.7" x2="605.15" y2="79.61"/><rect x="590.87" y="62.92" width="31.01" height="2.47" transform="matrix(0.08, -1, 1, 0.08, 494.6, 663.58)"/><line class="cls-17" x1="595.19" y1="49.05" x2="597.11" y2="79.44"/><rect x="594.92" y="49.02" width="2.47" height="30.45" transform="translate(-2.87 37.74) rotate(-3.62)"/><path d="M621.61,47.65h-3a4.33,4.33,0,0,0-4.32-4.19h-7.28v-3A2.48,2.48,0,0,0,604.57,38h-6.75a2.48,2.48,0,0,0-2.48,2.47v3h-7.28a4.32,4.32,0,0,0-4.32,4.19h-3a1.24,1.24,0,0,0-1.23,1.24v.5a1.23,1.23,0,0,0,1.23,1.23h40.84a1.23,1.23,0,0,0,1.24-1.23v-.5A1.24,1.24,0,0,0,621.61,47.65Z"/><path d="M612.93,79.85H589.46a.61.61,0,0,0-.62.62v.74a.62.62,0,0,0,.62.62h4.32a1.85,1.85,0,0,0,1.85,1.8h11.13a1.85,1.85,0,0,0,1.85-1.8h4.32a.62.62,0,0,0,.62-.62v-.74A.61.61,0,0,0,612.93,79.85Z"/><path d="M606.94,102.26h2.88a1.23,1.23,0,0,0,1.24-1.24V99.64h47.8v-3h-47.8V94.77a1.23,1.23,0,0,0-1.24-1.24h-2.88a1.24,1.24,0,0,0-1.24,1.24v1.84h-3V79.27h-3V96.61h-3.41V94.94A1.24,1.24,0,0,0,595,93.7h-2.89a1.24,1.24,0,0,0-1.23,1.24v1.67H544.11v3h46.81v1.56a1.24,1.24,0,0,0,1.23,1.24H595a1.24,1.24,0,0,0,1.23-1.24V99.64h3.41V210.72h-4.12a1.25,1.25,0,0,0-1.24,1.24v.9a1.25,1.25,0,0,0,1.24,1.24h.86v5l-1.53,0a1.49,1.49,0,0,0-1.35.86l-11.81,25.81a1.48,1.48,0,0,0,1.34,2.09h36.25a1.48,1.48,0,0,0,1.33-2.11L608.42,220a1.46,1.46,0,0,0-1.32-.84H606V214.1h.86a1.24,1.24,0,0,0,1.23-1.24V212a1.24,1.24,0,0,0-1.23-1.24h-4.12V99.64h3V101A1.24,1.24,0,0,0,606.94,102.26Z"/></g><g id="light-2" data-name="light"><polygon class="cls-17" points="69.18 75.04 74.28 94.24 87.38 94.24 92.49 74.93 69.18 75.04"/><path d="M88,95H73.68L68.16,74.26l25.35-.12Zm-13.1-1.57H86.78l4.69-17.74-21.27.1Z"/><line class="cls-17" x1="84.9" y1="74.7" x2="83.35" y2="94.35"/><rect x="74.27" y="83.74" width="19.71" height="1.57" transform="translate(-6.77 161.73) rotate(-85.48)"/><line class="cls-17" x1="77.02" y1="74.93" x2="78.24" y2="94.24"/><rect x="76.84" y="74.91" width="1.57" height="19.36" transform="translate(-5.18 5.07) rotate(-3.62)"/><path d="M93.81,74H91.93a2.75,2.75,0,0,0-2.75-2.67H84.55V69.49A1.57,1.57,0,0,0,83,67.91H78.69a1.57,1.57,0,0,0-1.57,1.58v1.88H72.49A2.75,2.75,0,0,0,69.74,74H67.85a.78.78,0,0,0-.78.78v.32a.79.79,0,0,0,.78.79h26a.79.79,0,0,0,.79-.79v-.32A.78.78,0,0,0,93.81,74Z"/><path d="M88.3,94.5H73.37a.4.4,0,0,0-.39.4v.47a.4.4,0,0,0,.39.39h2.75a1.18,1.18,0,0,0,1.18,1.15h7.07a1.18,1.18,0,0,0,1.18-1.15H88.3a.4.4,0,0,0,.39-.39V94.9A.4.4,0,0,0,88.3,94.5Z"/><polygon class="cls-17" points="10.13 49.23 18.16 79.44 38.77 79.44 46.81 49.05 10.13 49.23"/><path d="M39.73,80.68H17.21L8.52,48l39.9-.19ZM19.12,78.2h18.7L45.2,50.3l-33.46.15Z"/><line class="cls-17" x1="34.87" y1="48.7" x2="32.42" y2="79.61"/><rect x="18.14" y="62.92" width="31.01" height="2.47" transform="matrix(0.08, -1, 1, 0.08, -32.96, 92.64)"/><line class="cls-17" x1="22.47" y1="49.05" x2="24.39" y2="79.44"/><rect x="22.19" y="49.02" width="2.47" height="30.45" transform="translate(-4.01 1.61) rotate(-3.62)"/><path d="M48.89,47.65h-3a4.33,4.33,0,0,0-4.32-4.19H34.32v-3A2.48,2.48,0,0,0,31.85,38H25.09a2.48,2.48,0,0,0-2.47,2.47v3H15.33A4.33,4.33,0,0,0,11,47.65h-3a1.25,1.25,0,0,0-1.24,1.24v.5a1.24,1.24,0,0,0,1.24,1.23H48.89a1.24,1.24,0,0,0,1.24-1.23v-.5A1.25,1.25,0,0,0,48.89,47.65Z"/><path d="M40.21,79.85H16.73a.62.62,0,0,0-.62.62v.74a.62.62,0,0,0,.62.62h4.32a1.86,1.86,0,0,0,1.85,1.8H34a1.86,1.86,0,0,0,1.85-1.8h4.32a.62.62,0,0,0,.62-.62v-.74A.62.62,0,0,0,40.21,79.85Z"/><path d="M34.22,102.26H37.1A1.24,1.24,0,0,0,38.34,101V99.64H86.13v-3H38.34V94.77a1.24,1.24,0,0,0-1.24-1.24H34.22A1.23,1.23,0,0,0,33,94.77v1.84H30V79.27H27V96.61H23.55V94.94a1.25,1.25,0,0,0-1.24-1.24H19.43a1.25,1.25,0,0,0-1.24,1.24v1.67h-46.8v3h46.8v1.56a1.25,1.25,0,0,0,1.24,1.24h2.88a1.25,1.25,0,0,0,1.24-1.24V99.64H27V210.72H22.84A1.24,1.24,0,0,0,21.6,212v.9a1.24,1.24,0,0,0,1.24,1.24h.86v5l-1.53,0a1.52,1.52,0,0,0-1.36.86L9,245.72a1.47,1.47,0,0,0,1.34,2.09H46.59a1.47,1.47,0,0,0,1.33-2.11L35.7,220a1.48,1.48,0,0,0-1.32-.84H33.24V214.1h.86a1.24,1.24,0,0,0,1.24-1.24V212a1.24,1.24,0,0,0-1.24-1.24H30V99.64h3V101A1.23,1.23,0,0,0,34.22,102.26Z"/></g></svg>