<svg xmlns="http://www.w3.org/2000/svg" viewBox="0 0 792 612"><defs><style>.cls-1{fill:#cadde8;}.cls-2{opacity:0.15;}.cls-3{fill:#667176;}.cls-4,.cls-5{fill:none;stroke:#667176;stroke-miterlimit:10;}.cls-4{stroke-width:5.65px;}.cls-5{stroke-width:4.06px;}</style></defs><g id="Amusement_park" data-name="Amusement park"><rect class="cls-1" x="-6.05" y="-11.92" width="804.17" height="634.24"/><g class="cls-2"><path class="cls-3" d="M488,400.2c-.65-3.31-.59-6.77-1.14-10.1-.74-4.54-2.29-9.15-5.6-12.33a11.39,11.39,0,0,0-14.8-1c-.43.31-.55,1-.78,1.59-.07.18-.13.36-.19.55a1.92,1.92,0,0,1-.35.71l-.19.15-.1.09a4.6,4.6,0,0,1-.73.47,26.29,26.29,0,0,0-3.63,2.19,8.13,8.13,0,0,0-1.65,2.18c-.21.35-.34.68-.26.75a1.61,1.61,0,0,0,.87,0,3.4,3.4,0,0,0,.86-.23,7.38,7.38,0,0,1,10.52,6.46c.17,3.22-1.26,6.31-2.89,9.09-1.19,2-2.75,5.38-4.67,6.79-1.65,1.22-3.44,1.09-5.23,2.19-4.07,2.51-7,7.85-9.34,11.8s-4.41,7.9-6.84,11.71c-2.27,3.56-5.36,6.42-7.82,9.69a1.51,1.51,0,0,0-.17,1.28c.11.33.23.73.31,1.07a1.88,1.88,0,0,0,.79,1c2.08,1.4-4.9,6.76-7.08,8.56-.32.27-.23.54.17.58,5.56.58,11.71-1.16,16.61-3.13a8.49,8.49,0,0,0,1.44-.8c.83-.53,1.64-1.11,2.47-1.64s8.68-.61,7.82,1.09c-2.15,4.27.13,8.69.85,13a11.1,11.1,0,0,1-.31,4.53,1.23,1.23,0,0,1-.9.85c-1.5.27-2.86.7-1.8,1.26a6,6,0,0,1,1.8,1.44,3.38,3.38,0,0,1,.53,1.35,26.27,26.27,0,0,0,1.33,4.48c.14.38.43.42.64.06,1.78-3,2.24-4.67,5.84-3.86,2.38.53,4.8,1.25,7.18,1.75.4.09.45,0,.12-.28-1.19-.87-2.37-1.75-3.62-2.53-.35-.22-.32-.27.09-.22,2.14.31,2.69-1.48,3.94-2.21.36-.21.37-.2,0-.13a19.85,19.85,0,0,1-5.43.44c-5.35-.52-7-4.89-6.07-9.92.46-2.62,2.84-11.29,5.55-12.34a3,3,0,0,1,3.49,1.8,9,9,0,0,1,.41,4.26,8.21,8.21,0,0,0,.48,4.24,13.68,13.68,0,0,0,2.51,2.93,3.92,3.92,0,0,1,1.24,3.5,3.19,3.19,0,0,1-2.6,2,7.79,7.79,0,0,1-2.72-.13c-.4-.08-.55.14-.24.41,2.21,1.84,7.54.1,6.42,4.08-.23.82-.42,1.66-.62,2.51-.09.4.14.59.49.39a3.7,3.7,0,0,0,2.23-3.92c0-.23,8.69,2.37,9.25,2.55a15.86,15.86,0,0,0,2.17.47c.41.07.64-.19.5-.57a2.71,2.71,0,0,0-2.19-2.1,22.58,22.58,0,0,1-3.6-1c-.39-.14-.37-.26.05-.24,2.19.11,6.76.62,6.77-1.64a.69.69,0,0,0-.86-.6,10.46,10.46,0,0,1-2.34.32c-2.91-.06-6.23.46-8.43-1.48s-2.65-6.06-2.47-8.71c.91-13.52,14.47-20.87,18.38-33.47,1.89-6.09.35-11.55-2.82-16.87C490,404.75,488.58,403.28,488,400.2Z"/><path class="cls-3" d="M299.11,407.32c-3.17,5.32-4.7,10.78-2.81,16.87,3.9,12.6,17.47,20,18.38,33.47.18,2.65-.31,6.82-2.47,8.72s-5.52,1.41-8.44,1.48a10.91,10.91,0,0,1-2.33-.33.7.7,0,0,0-.86.6c0,2.26,4.58,1.75,6.77,1.64.41,0,.43.1,0,.24a22.8,22.8,0,0,1-3.59,1,2.68,2.68,0,0,0-2.19,2.09c-.15.38.09.64.49.57a16.35,16.35,0,0,0,2.18-.47c.56-.18,9.27-2.78,9.24-2.55a3.71,3.71,0,0,0,2.23,3.92c.36.2.59,0,.49-.39-.2-.85-.38-1.69-.62-2.51-1.12-4,4.22-2.24,6.42-4.08.32-.27.17-.49-.24-.41a7.56,7.56,0,0,1-2.72.13,3.19,3.19,0,0,1-2.59-2,3.9,3.9,0,0,1,1.24-3.5,14,14,0,0,0,2.51-2.93,8.32,8.32,0,0,0,.48-4.24,8.7,8.7,0,0,1,.41-4.25,3,3,0,0,1,3.48-1.8c2.72,1,5.1,9.71,5.55,12.33.88,5-.72,9.4-6.07,9.92a19.15,19.15,0,0,1-5.43-.44c-.4-.07-.39-.08,0,.13,1.25.73,1.81,2.52,3.95,2.22.41-.06.43,0,.09.21-1.25.78-2.44,1.66-3.63,2.53-.33.24-.27.37.13.29,2.38-.51,4.8-1.23,7.17-1.76,3.61-.81,4.07.9,5.84,3.87.21.35.5.32.64-.07a26.27,26.27,0,0,0,1.33-4.48,3.16,3.16,0,0,1,.54-1.34,5.89,5.89,0,0,1,1.8-1.45c1-.56-.3-1-1.8-1.26a1.21,1.21,0,0,1-.9-.85,11.1,11.1,0,0,1-.31-4.53c.71-4.3,3-8.72.84-13-.86-1.7,6.93-1.65,7.82-1.08s1.64,1.1,2.48,1.63a8.86,8.86,0,0,0,1.44.81c4.9,2,11.05,3.7,16.6,3.13.41-.05.49-.32.18-.58-2.19-1.81-9.16-7.17-7.08-8.56a1.9,1.9,0,0,0,.79-1c.08-.34.2-.74.31-1.07a1.52,1.52,0,0,0-.17-1.28c-2.47-3.26-5.55-6.12-7.83-9.69-2.43-3.81-4.5-7.84-6.83-11.71s-5.28-9.29-9.34-11.79c-1.79-1.11-3.59-1-5.23-2.2-1.92-1.41-3.49-4.76-4.68-6.79-1.63-2.78-3.06-5.87-2.89-9.09a7.38,7.38,0,0,1,10.52-6.46,3.52,3.52,0,0,0,.86.23,1.81,1.81,0,0,0,.88,0c.08-.08-.05-.41-.27-.76a7.74,7.74,0,0,0-1.65-2.18,25.6,25.6,0,0,0-3.62-2.19,4.9,4.9,0,0,1-.74-.47l-.1-.09-.18-.15a2,2,0,0,1-.36-.71c-.06-.19-.12-.37-.19-.54-.23-.55-.35-1.29-.77-1.59a11.38,11.38,0,0,0-14.8,1c-3.31,3.19-4.86,7.8-5.61,12.33-.55,3.34-.49,6.8-1.14,10.11C302.11,403.17,300.71,404.64,299.11,407.32Z"/><path class="cls-3" d="M219.13,400.1c-.65-3.31-.6-6.77-1.14-10.1-.75-4.54-2.3-9.15-5.61-12.34a11.4,11.4,0,0,0-14.8-1c-.42.31-.54,1-.77,1.59-.07.18-.13.35-.19.55a2,2,0,0,1-.36.7l-.19.15-.09.1a6.88,6.88,0,0,1-.74.47,24.65,24.65,0,0,0-3.62,2.18,8,8,0,0,0-1.65,2.18c-.22.35-.35.69-.27.76a1.69,1.69,0,0,0,.88,0,3,3,0,0,0,.85-.22A7.38,7.38,0,0,1,202,391.61c.17,3.23-1.26,6.31-2.9,9.1-1.19,2-2.75,5.38-4.67,6.79-1.65,1.21-3.44,1.09-5.23,2.19-4.07,2.5-6.95,7.84-9.34,11.8s-4.41,7.9-6.84,11.71c-2.27,3.56-5.35,6.42-7.82,9.68a1.54,1.54,0,0,0-.17,1.29c.11.33.23.72.31,1.07a1.88,1.88,0,0,0,.79,1c2.08,1.4-4.89,6.76-7.08,8.56-.32.26-.23.54.18.58,5.55.57,11.7-1.16,16.6-3.13a8.8,8.8,0,0,0,1.44-.8c.84-.53,1.64-1.11,2.48-1.64s8.68-.62,7.82,1.09c-2.16,4.27.13,8.69.84,13a11.09,11.09,0,0,1-.31,4.53,1.2,1.2,0,0,1-.9.85c-1.5.28-2.86.71-1.8,1.26a6,6,0,0,1,1.8,1.45,3.25,3.25,0,0,1,.53,1.34,26.92,26.92,0,0,0,1.33,4.48c.14.39.43.42.65.07,1.77-3,2.23-4.67,5.84-3.87,2.37.54,4.79,1.26,7.17,1.76.4.09.46-.05.12-.29-1.19-.86-2.37-1.74-3.62-2.52-.35-.22-.32-.28.09-.22,2.14.31,2.69-1.48,3.94-2.22.36-.2.37-.2,0-.12a19.42,19.42,0,0,1-5.42.43c-5.36-.52-6.95-4.88-6.08-9.91.46-2.62,2.84-11.3,5.56-12.34,1.34-.51,2.88.49,3.48,1.8a8.83,8.83,0,0,1,.41,4.25,8.35,8.35,0,0,0,.48,4.25,14.18,14.18,0,0,0,2.51,2.93,3.9,3.9,0,0,1,1.24,3.49,3.19,3.19,0,0,1-2.59,2.05,7.85,7.85,0,0,1-2.73-.14c-.4-.07-.55.15-.23.41,2.2,1.84,7.54.1,6.41,4.08-.23.83-.42,1.66-.62,2.52-.09.4.14.59.5.38a3.67,3.67,0,0,0,2.22-3.91c0-.24,8.69,2.37,9.25,2.55a16.39,16.39,0,0,0,2.18.46c.4.07.63-.18.49-.57A2.71,2.71,0,0,0,218,471a23.69,23.69,0,0,1-3.6-1c-.38-.14-.36-.27.05-.25,2.19.11,6.76.62,6.77-1.64a.69.69,0,0,0-.86-.59,10.45,10.45,0,0,1-2.33.32c-2.92-.06-6.24.45-8.44-1.48s-2.65-6.07-2.47-8.72c.91-13.51,14.48-20.86,18.38-33.47,1.89-6.08.36-11.55-2.82-16.86C221.12,404.64,219.73,403.17,219.13,400.1Z"/><path class="cls-3" d="M30.26,407.22c-3.18,5.32-4.71,10.78-2.82,16.87,3.9,12.6,17.47,20,18.38,33.47.18,2.65-.31,6.82-2.47,8.71s-5.52,1.42-8.44,1.48a10.45,10.45,0,0,1-2.33-.32.69.69,0,0,0-.86.59c0,2.27,4.58,1.76,6.77,1.65.41,0,.43.1,0,.24a22.58,22.58,0,0,1-3.6,1A2.71,2.71,0,0,0,32.75,473c-.14.39.09.65.49.57a14.94,14.94,0,0,0,2.18-.46c.56-.18,9.28-2.78,9.25-2.55a3.69,3.69,0,0,0,2.22,3.92c.36.2.59,0,.5-.39-.2-.86-.39-1.69-.62-2.51-1.12-4,4.21-2.24,6.42-4.08.31-.27.16-.49-.24-.41a7.8,7.8,0,0,1-2.72.13,3.19,3.19,0,0,1-2.6-2,3.91,3.91,0,0,1,1.24-3.49,13.68,13.68,0,0,0,2.51-2.93,8.33,8.33,0,0,0,.48-4.24,8.86,8.86,0,0,1,.41-4.26c.6-1.31,2.14-2.31,3.48-1.8,2.72,1.05,5.1,9.72,5.56,12.34.87,5-.72,9.39-6.08,9.92a19.81,19.81,0,0,1-5.42-.44c-.41-.07-.4-.08,0,.13,1.25.73,1.8,2.52,3.94,2.21.41-.05.44,0,.09.22-1.25.78-2.43,1.66-3.62,2.52-.34.25-.28.38.12.29,2.38-.5,4.8-1.22,7.17-1.75,3.61-.81,4.07.9,5.85,3.86.21.36.5.32.64-.06a27.31,27.31,0,0,0,1.33-4.49,3.25,3.25,0,0,1,.53-1.34,6,6,0,0,1,1.8-1.44c1.06-.56-.3-1-1.8-1.26a1.21,1.21,0,0,1-.9-.85,11.1,11.1,0,0,1-.31-4.53c.72-4.3,3-8.72.84-13-.86-1.71,6.93-1.65,7.82-1.09s1.64,1.11,2.48,1.64a8.8,8.8,0,0,0,1.44.8c4.9,2,11,3.71,16.6,3.13.41,0,.5-.31.18-.58-2.19-1.8-9.16-7.16-7.08-8.56a1.88,1.88,0,0,0,.79-1c.08-.34.2-.74.31-1.07a1.54,1.54,0,0,0-.17-1.29c-2.47-3.26-5.55-6.12-7.82-9.68-2.43-3.81-4.5-7.84-6.84-11.71s-5.27-9.3-9.34-11.8c-1.79-1.1-3.58-1-5.23-2.19-1.92-1.41-3.48-4.76-4.67-6.79-1.63-2.78-3.07-5.87-2.9-9.09a7.38,7.38,0,0,1,10.53-6.46,3.44,3.44,0,0,0,.85.23,1.65,1.65,0,0,0,.88,0c.08-.07-.05-.4-.27-.75a7.9,7.9,0,0,0-1.64-2.18,26.29,26.29,0,0,0-3.63-2.19,4.6,4.6,0,0,1-.73-.47l-.1-.1-.19-.15a1.91,1.91,0,0,1-.36-.7c-.06-.19-.12-.37-.19-.55-.23-.55-.35-1.28-.77-1.59a11.38,11.38,0,0,0-14.8,1c-3.31,3.18-4.86,7.79-5.61,12.33-.54,3.33-.49,6.79-1.14,10.1C33.25,403.07,31.86,404.54,30.26,407.22Z"/><path class="cls-3" d="M488,236.56c-.65-3.31-.59-6.77-1.14-10.1-.74-4.54-2.29-9.15-5.6-12.33a11.39,11.39,0,0,0-14.8-1c-.43.31-.55,1-.78,1.59-.07.18-.13.36-.19.55a1.86,1.86,0,0,1-.35.7l-.19.15-.1.1a5.51,5.51,0,0,1-.73.47,24.46,24.46,0,0,0-3.63,2.19,8.13,8.13,0,0,0-1.65,2.18c-.21.35-.34.68-.26.75a1.61,1.61,0,0,0,.87,0,3.4,3.4,0,0,0,.86-.23,7.37,7.37,0,0,1,10.52,6.45c.17,3.23-1.26,6.31-2.89,9.1-1.19,2-2.75,5.38-4.67,6.79-1.65,1.22-3.44,1.09-5.23,2.19-4.07,2.5-7,7.84-9.34,11.8s-4.41,7.9-6.84,11.71c-2.27,3.56-5.36,6.42-7.82,9.68a1.54,1.54,0,0,0-.17,1.29c.11.33.23.73.31,1.07a1.88,1.88,0,0,0,.79,1c2.08,1.4-4.9,6.76-7.08,8.56-.32.26-.23.54.17.58,5.56.58,11.71-1.16,16.61-3.13a9.24,9.24,0,0,0,1.44-.8c.83-.53,1.64-1.11,2.47-1.64s8.68-.62,7.82,1.09c-2.15,4.27.13,8.69.85,13a11,11,0,0,1-.31,4.52,1.2,1.2,0,0,1-.9.85c-1.5.28-2.86.71-1.8,1.27a6,6,0,0,1,1.8,1.44,3.4,3.4,0,0,1,.53,1.34,26,26,0,0,0,1.33,4.48c.14.39.43.42.64.07,1.78-3,2.24-4.67,5.84-3.86,2.38.53,4.8,1.25,7.18,1.75.4.09.45,0,.12-.29-1.19-.86-2.37-1.74-3.62-2.52-.35-.22-.32-.27.09-.22,2.14.31,2.69-1.48,3.94-2.21.36-.21.37-.21,0-.13a19.46,19.46,0,0,1-5.43.43c-5.35-.52-7-4.88-6.07-9.91.46-2.62,2.84-11.29,5.55-12.34a3,3,0,0,1,3.49,1.8,9,9,0,0,1,.41,4.26,8.22,8.22,0,0,0,.48,4.24,13.93,13.93,0,0,0,2.51,2.93,3.9,3.9,0,0,1,1.24,3.49,3.19,3.19,0,0,1-2.6,2,7.56,7.56,0,0,1-2.72-.14c-.4-.07-.55.15-.24.41,2.21,1.85,7.54.1,6.42,4.08-.23.83-.42,1.66-.62,2.52-.09.4.14.59.49.39a3.7,3.7,0,0,0,2.23-3.92c0-.24,8.69,2.37,9.25,2.55a14.53,14.53,0,0,0,2.17.46c.41.07.64-.18.5-.57a2.71,2.71,0,0,0-2.19-2.09,22.58,22.58,0,0,1-3.6-1c-.39-.14-.37-.27.05-.24,2.19.1,6.76.62,6.77-1.65a.69.69,0,0,0-.86-.59,10.46,10.46,0,0,1-2.34.32c-2.91-.06-6.23.45-8.43-1.48s-2.65-6.06-2.47-8.72c.91-13.51,14.47-20.86,18.38-33.46,1.89-6.09.35-11.55-2.82-16.87C490,241.11,488.58,239.63,488,236.56Z"/><path class="cls-3" d="M299.11,243.68c-3.17,5.32-4.7,10.78-2.81,16.87,3.9,12.6,17.47,20,18.38,33.47.18,2.65-.31,6.82-2.47,8.71s-5.52,1.42-8.44,1.49a10.91,10.91,0,0,1-2.33-.33.7.7,0,0,0-.86.6c0,2.26,4.58,1.75,6.77,1.64.41,0,.43.1,0,.24a23.93,23.93,0,0,1-3.59,1,2.68,2.68,0,0,0-2.19,2.09c-.15.38.09.64.49.57a16.35,16.35,0,0,0,2.18-.47c.56-.18,9.27-2.78,9.24-2.55a3.71,3.71,0,0,0,2.23,3.92c.36.2.59,0,.49-.39-.2-.85-.38-1.69-.62-2.51-1.12-4,4.22-2.24,6.42-4.08.32-.27.17-.49-.24-.41a7.79,7.79,0,0,1-2.72.13,3.19,3.19,0,0,1-2.59-2,3.89,3.89,0,0,1,1.24-3.5,14,14,0,0,0,2.51-2.93,8.32,8.32,0,0,0,.48-4.24,8.74,8.74,0,0,1,.41-4.26,3,3,0,0,1,3.48-1.79c2.72,1,5.1,9.71,5.55,12.33.88,5-.72,9.4-6.07,9.92a19.91,19.91,0,0,1-5.43-.44c-.4-.07-.39-.08,0,.13,1.25.73,1.81,2.52,3.95,2.22.41-.06.43,0,.09.21-1.25.78-2.44,1.66-3.63,2.53-.33.24-.27.37.13.28,2.38-.5,4.8-1.22,7.17-1.75,3.61-.81,4.07.9,5.84,3.86.21.36.5.32.64-.06a26.27,26.27,0,0,0,1.33-4.48,3.26,3.26,0,0,1,.54-1.35,6,6,0,0,1,1.8-1.44c1-.56-.3-1-1.8-1.26a1.21,1.21,0,0,1-.9-.85,11.1,11.1,0,0,1-.31-4.53c.71-4.3,3-8.72.84-13-.86-1.7,6.93-1.65,7.82-1.09s1.64,1.11,2.48,1.64a8.12,8.12,0,0,0,1.44.8c4.9,2,11.05,3.71,16.6,3.13.41,0,.49-.31.18-.57-2.19-1.81-9.16-7.17-7.08-8.57a1.88,1.88,0,0,0,.79-1c.08-.34.2-.74.31-1.07a1.51,1.51,0,0,0-.17-1.28c-2.47-3.27-5.55-6.13-7.83-9.69-2.43-3.81-4.5-7.84-6.83-11.71s-5.28-9.29-9.34-11.79c-1.79-1.11-3.59-1-5.23-2.2-1.92-1.41-3.49-4.76-4.68-6.79-1.63-2.78-3.06-5.87-2.89-9.09a7.38,7.38,0,0,1,10.52-6.46,3.52,3.52,0,0,0,.86.23,1.65,1.65,0,0,0,.88,0c.08-.07-.05-.4-.27-.75a7.74,7.74,0,0,0-1.65-2.18,25.6,25.6,0,0,0-3.62-2.19,4.9,4.9,0,0,1-.74-.47.43.43,0,0,0-.1-.09l-.18-.15a2.07,2.07,0,0,1-.36-.71c-.06-.19-.12-.37-.19-.54-.23-.56-.35-1.29-.77-1.6a11.38,11.38,0,0,0-14.8,1c-3.31,3.19-4.86,7.79-5.61,12.33-.55,3.33-.49,6.79-1.14,10.1C302.11,239.53,300.71,241,299.11,243.68Z"/><path class="cls-3" d="M219.13,236.46c-.65-3.31-.6-6.77-1.14-10.11-.75-4.53-2.3-9.14-5.61-12.33a11.38,11.38,0,0,0-14.8-1c-.42.31-.54,1-.77,1.59-.07.17-.13.35-.19.55a2,2,0,0,1-.36.7l-.19.15-.09.1a5.91,5.91,0,0,1-.74.46,25.6,25.6,0,0,0-3.62,2.19A8,8,0,0,0,190,221c-.22.35-.35.69-.27.76a1.69,1.69,0,0,0,.88,0,3,3,0,0,0,.85-.23A7.39,7.39,0,0,1,202,228c.17,3.23-1.26,6.31-2.9,9.1-1.19,2-2.75,5.38-4.67,6.79-1.65,1.21-3.44,1.09-5.23,2.19-4.07,2.5-6.95,7.84-9.34,11.8s-4.41,7.89-6.84,11.7c-2.27,3.57-5.35,6.43-7.82,9.69a1.52,1.52,0,0,0-.17,1.28c.11.33.23.73.31,1.08a1.88,1.88,0,0,0,.79,1c2.08,1.4-4.89,6.76-7.08,8.56-.32.26-.23.54.18.58,5.55.57,11.7-1.16,16.6-3.13a8.8,8.8,0,0,0,1.44-.8c.84-.54,1.64-1.11,2.48-1.64s8.68-.62,7.82,1.08c-2.16,4.28.13,8.69.84,13a11.1,11.1,0,0,1-.31,4.53,1.2,1.2,0,0,1-.9.85c-1.5.28-2.86.7-1.8,1.26a6,6,0,0,1,1.8,1.45,3.15,3.15,0,0,1,.53,1.34,27.2,27.2,0,0,0,1.33,4.48c.14.39.43.42.65.07,1.77-3,2.23-4.67,5.84-3.87,2.37.53,4.79,1.25,7.17,1.76.4.09.46-.05.12-.29-1.19-.87-2.37-1.75-3.62-2.52-.35-.22-.32-.28.09-.22,2.14.31,2.69-1.49,3.94-2.22.36-.21.37-.2,0-.12a19.42,19.42,0,0,1-5.42.43c-5.36-.52-6.95-4.89-6.08-9.91.46-2.63,2.84-11.3,5.56-12.34,1.34-.52,2.88.49,3.48,1.8a8.83,8.83,0,0,1,.41,4.25,8.32,8.32,0,0,0,.48,4.24,14,14,0,0,0,2.51,2.94,3.9,3.9,0,0,1,1.24,3.49,3.16,3.16,0,0,1-2.59,2,7.62,7.62,0,0,1-2.73-.13c-.4-.08-.55.15-.23.41,2.2,1.84,7.54.1,6.41,4.08-.23.82-.42,1.66-.62,2.52-.09.4.14.58.5.38a3.67,3.67,0,0,0,2.22-3.91c0-.24,8.69,2.36,9.25,2.55a18.14,18.14,0,0,0,2.18.46c.4.07.63-.18.49-.57a2.71,2.71,0,0,0-2.19-2.09,22.62,22.62,0,0,1-3.6-1c-.38-.13-.36-.26.05-.24,2.19.11,6.76.62,6.77-1.64a.69.69,0,0,0-.86-.59,10.45,10.45,0,0,1-2.33.32c-2.92-.07-6.24.45-8.44-1.48s-2.65-6.07-2.47-8.72c.91-13.51,14.48-20.87,18.38-33.47,1.89-6.09.36-11.55-2.82-16.86C221.12,241,219.73,239.53,219.13,236.46Z"/><path class="cls-3" d="M30.26,243.58c-3.18,5.32-4.71,10.78-2.82,16.87,3.9,12.6,17.47,19.95,18.38,33.46.18,2.66-.31,6.83-2.47,8.72s-5.52,1.42-8.44,1.48a10.45,10.45,0,0,1-2.33-.32.69.69,0,0,0-.86.59c0,2.26,4.58,1.75,6.77,1.65.41,0,.43.1,0,.24a22.58,22.58,0,0,1-3.6,1,2.71,2.71,0,0,0-2.19,2.09c-.14.39.09.64.49.57a14.94,14.94,0,0,0,2.18-.46c.56-.18,9.28-2.79,9.25-2.55a3.67,3.67,0,0,0,2.22,3.91c.36.21.59,0,.5-.38-.2-.86-.39-1.69-.62-2.52-1.12-4,4.21-2.23,6.42-4.08.31-.26.16-.48-.24-.41a7.58,7.58,0,0,1-2.72.14,3.19,3.19,0,0,1-2.6-2.05A3.9,3.9,0,0,1,48.87,298a14.18,14.18,0,0,0,2.51-2.93,8.33,8.33,0,0,0,.48-4.24,8.86,8.86,0,0,1,.41-4.26c.6-1.31,2.14-2.31,3.48-1.8,2.72,1,5.1,9.72,5.56,12.34.87,5-.72,9.39-6.08,9.91a19.42,19.42,0,0,1-5.42-.43c-.41-.08-.4-.08,0,.12,1.25.74,1.8,2.53,3.94,2.22.41-.06.44,0,.09.22-1.25.78-2.43,1.66-3.62,2.52-.34.24-.28.38.12.29,2.38-.5,4.8-1.22,7.17-1.75,3.61-.81,4.07.9,5.85,3.86.21.35.5.32.64-.07a26.92,26.92,0,0,0,1.33-4.48,3.25,3.25,0,0,1,.53-1.34,6,6,0,0,1,1.8-1.45c1.06-.55-.3-1-1.8-1.26a1.18,1.18,0,0,1-.9-.85,11.09,11.09,0,0,1-.31-4.53c.72-4.29,3-8.71.84-13-.86-1.71,6.93-1.66,7.82-1.09s1.64,1.11,2.48,1.64a8.8,8.8,0,0,0,1.44.8c4.9,2,11,3.71,16.6,3.13.41,0,.5-.32.18-.58-2.19-1.8-9.16-7.16-7.08-8.56a1.88,1.88,0,0,0,.79-1c.08-.35.2-.74.31-1.07a1.54,1.54,0,0,0-.17-1.29c-2.47-3.26-5.55-6.12-7.82-9.68-2.43-3.81-4.5-7.84-6.84-11.71s-5.27-9.3-9.34-11.8c-1.79-1.1-3.58-1-5.23-2.19-1.92-1.41-3.48-4.76-4.67-6.79-1.63-2.79-3.07-5.87-2.9-9.1a7.38,7.38,0,0,1,10.53-6.45,3,3,0,0,0,.85.22,1.58,1.58,0,0,0,.88,0c.08-.07-.05-.41-.27-.75a8.1,8.1,0,0,0-1.64-2.19,25.29,25.29,0,0,0-3.63-2.18A5.51,5.51,0,0,1,57,216l-.1-.1-.19-.15a2,2,0,0,1-.36-.7c-.06-.19-.12-.37-.19-.55-.23-.55-.35-1.28-.77-1.59a11.38,11.38,0,0,0-14.8,1c-3.31,3.18-4.86,7.79-5.61,12.33-.54,3.33-.49,6.79-1.14,10.1C33.25,239.42,31.86,240.9,30.26,243.58Z"/><path class="cls-3" d="M488,72.65c-.65-3.31-.59-6.77-1.14-10.11-.74-4.53-2.29-9.14-5.6-12.33a11.38,11.38,0,0,0-14.8-1c-.43.3-.55,1-.78,1.59-.07.17-.13.35-.19.54a1.84,1.84,0,0,1-.35.71l-.19.15-.1.09a4.6,4.6,0,0,1-.73.47A26.29,26.29,0,0,0,460.47,55a8.13,8.13,0,0,0-1.65,2.18c-.21.35-.34.68-.26.76a1.65,1.65,0,0,0,.87,0,3.4,3.4,0,0,0,.86-.23,7.38,7.38,0,0,1,10.52,6.46c.17,3.22-1.26,6.31-2.89,9.09-1.19,2-2.75,5.38-4.67,6.8-1.65,1.21-3.44,1.08-5.23,2.19-4.07,2.5-7,7.84-9.34,11.79s-4.41,7.9-6.84,11.71c-2.27,3.57-5.36,6.43-7.82,9.69a1.52,1.52,0,0,0-.17,1.28c.11.33.23.73.31,1.07a1.9,1.9,0,0,0,.79,1c2.08,1.39-4.9,6.75-7.08,8.56-.32.26-.23.53.17.58,5.56.57,11.71-1.16,16.61-3.13a9.3,9.3,0,0,0,1.44-.81c.83-.53,1.64-1.1,2.47-1.63s8.68-.62,7.82,1.08c-2.15,4.27.13,8.69.85,13a11.1,11.1,0,0,1-.31,4.53,1.23,1.23,0,0,1-.9.85c-1.5.28-2.86.7-1.8,1.26a6,6,0,0,1,1.8,1.45,3.28,3.28,0,0,1,.53,1.34,26.27,26.27,0,0,0,1.33,4.48c.14.39.43.42.64.07,1.78-3,2.24-4.68,5.84-3.87,2.38.53,4.8,1.25,7.18,1.76.4.08.45,0,.12-.29-1.19-.87-2.37-1.75-3.62-2.53-.35-.21-.32-.27.09-.21,2.14.3,2.69-1.49,3.94-2.22.36-.21.37-.2,0-.13a19.1,19.1,0,0,1-5.43.44c-5.35-.52-7-4.89-6.07-9.92.46-2.62,2.84-11.29,5.55-12.33,1.35-.52,2.89.48,3.49,1.8a8.94,8.94,0,0,1,.41,4.25,8.21,8.21,0,0,0,.48,4.24,13.68,13.68,0,0,0,2.51,2.93,3.93,3.93,0,0,1,1.24,3.5,3.16,3.16,0,0,1-2.6,2,7.56,7.56,0,0,1-2.72-.13c-.4-.08-.55.15-.24.41,2.21,1.84,7.54.1,6.42,4.08-.23.82-.42,1.66-.62,2.51-.09.41.14.59.49.39a3.69,3.69,0,0,0,2.23-3.92c0-.23,8.69,2.37,9.25,2.55a15.86,15.86,0,0,0,2.17.47c.41.07.64-.19.5-.57a2.7,2.7,0,0,0-2.19-2.09,22.62,22.62,0,0,1-3.6-1c-.39-.14-.37-.26.05-.24,2.19.11,6.76.62,6.77-1.64a.7.7,0,0,0-.86-.6,11.09,11.09,0,0,1-2.34.33c-2.91-.07-6.23.45-8.43-1.48s-2.65-6.07-2.47-8.72c.91-13.51,14.47-20.87,18.38-33.47,1.89-6.09.35-11.55-2.82-16.87C490,77.19,488.58,75.72,488,72.65Z"/><path class="cls-3" d="M758.21,400.2c-.65-3.31-.59-6.77-1.14-10.1-.74-4.54-2.29-9.15-5.6-12.33a11.39,11.39,0,0,0-14.8-1c-.43.31-.54,1-.77,1.59a5.14,5.14,0,0,0-.2.55,1.92,1.92,0,0,1-.35.71l-.19.15-.1.09a4.6,4.6,0,0,1-.73.47,26.29,26.29,0,0,0-3.63,2.19,8.13,8.13,0,0,0-1.65,2.18c-.21.35-.34.68-.26.75a1.61,1.61,0,0,0,.87,0,3.4,3.4,0,0,0,.86-.23,7.39,7.39,0,0,1,10.53,6.46c.17,3.22-1.27,6.31-2.9,9.09-1.19,2-2.75,5.38-4.67,6.79-1.65,1.22-3.44,1.09-5.23,2.19-4.07,2.51-7,7.85-9.34,11.8s-4.41,7.9-6.84,11.71c-2.27,3.56-5.36,6.42-7.82,9.69a1.51,1.51,0,0,0-.17,1.28c.11.33.23.73.31,1.07a1.88,1.88,0,0,0,.79,1c2.08,1.4-4.89,6.76-7.08,8.56-.32.27-.23.54.18.58,5.55.58,11.7-1.16,16.6-3.13a8.12,8.12,0,0,0,1.44-.8c.83-.53,1.64-1.11,2.48-1.64s8.67-.61,7.81,1.09c-2.15,4.27.13,8.69.85,13a11.1,11.1,0,0,1-.31,4.53,1.23,1.23,0,0,1-.9.85c-1.5.27-2.86.7-1.8,1.26a6,6,0,0,1,1.8,1.44,3.38,3.38,0,0,1,.53,1.35,27.2,27.2,0,0,0,1.33,4.48c.14.38.43.42.64.06,1.78-3,2.24-4.67,5.85-3.86,2.37.53,4.79,1.25,7.17,1.75.4.09.45,0,.12-.28-1.19-.87-2.37-1.75-3.62-2.53-.35-.22-.32-.27.09-.22,2.14.31,2.69-1.48,3.94-2.21.36-.21.37-.2,0-.13a19.85,19.85,0,0,1-5.43.44c-5.35-.52-7-4.89-6.07-9.92.46-2.62,2.84-11.29,5.55-12.34a3,3,0,0,1,3.49,1.8,9,9,0,0,1,.41,4.26,8.21,8.21,0,0,0,.48,4.24,13.68,13.68,0,0,0,2.51,2.93,3.92,3.92,0,0,1,1.24,3.5,3.19,3.19,0,0,1-2.6,2,7.8,7.8,0,0,1-2.72-.13c-.4-.08-.55.14-.24.41,2.21,1.84,7.54.1,6.42,4.08-.23.82-.42,1.66-.62,2.51-.09.4.14.59.49.39,1.51-.85,2.47-2,2.23-3.92,0-.23,8.69,2.37,9.25,2.55a16.2,16.2,0,0,0,2.17.47c.41.07.64-.19.5-.57a2.71,2.71,0,0,0-2.19-2.1,22.58,22.58,0,0,1-3.6-1c-.39-.14-.37-.26.05-.24,2.19.11,6.76.62,6.77-1.64a.69.69,0,0,0-.86-.6,10.46,10.46,0,0,1-2.34.32c-2.91-.06-6.23.46-8.43-1.48s-2.65-6.06-2.47-8.71c.91-13.52,14.47-20.87,18.38-33.47,1.89-6.09.35-11.55-2.82-16.87C760.21,404.75,758.82,403.28,758.21,400.2Z"/><path class="cls-3" d="M758.21,236.56c-.65-3.31-.59-6.77-1.14-10.1-.74-4.54-2.29-9.15-5.6-12.33a11.39,11.39,0,0,0-14.8-1c-.43.31-.54,1-.77,1.59a5.14,5.14,0,0,0-.2.55,1.86,1.86,0,0,1-.35.7l-.19.15-.1.1a5.51,5.51,0,0,1-.73.47,24.46,24.46,0,0,0-3.63,2.19,8.13,8.13,0,0,0-1.65,2.18c-.21.35-.34.68-.26.75a1.61,1.61,0,0,0,.87,0,3.4,3.4,0,0,0,.86-.23,7.38,7.38,0,0,1,10.53,6.45c.17,3.23-1.27,6.31-2.9,9.1-1.19,2-2.75,5.38-4.67,6.79-1.65,1.22-3.44,1.09-5.23,2.19-4.07,2.5-7,7.84-9.34,11.8s-4.41,7.9-6.84,11.71c-2.27,3.56-5.36,6.42-7.82,9.68a1.54,1.54,0,0,0-.17,1.29c.11.33.23.73.31,1.07a1.88,1.88,0,0,0,.79,1c2.08,1.4-4.89,6.76-7.08,8.56-.32.26-.23.54.18.58,5.55.58,11.7-1.16,16.6-3.13a8.8,8.8,0,0,0,1.44-.8c.83-.53,1.64-1.11,2.48-1.64s8.67-.62,7.81,1.09c-2.15,4.27.13,8.69.85,13a11,11,0,0,1-.31,4.52,1.2,1.2,0,0,1-.9.85c-1.5.28-2.86.71-1.8,1.27a6,6,0,0,1,1.8,1.44,3.4,3.4,0,0,1,.53,1.34,26.92,26.92,0,0,0,1.33,4.48c.14.39.43.42.64.07,1.78-3,2.24-4.67,5.85-3.86,2.37.53,4.79,1.25,7.17,1.75.4.09.45,0,.12-.29-1.19-.86-2.37-1.74-3.62-2.52-.35-.22-.32-.27.09-.22,2.14.31,2.69-1.48,3.94-2.21.36-.21.37-.21,0-.13a19.46,19.46,0,0,1-5.43.43c-5.35-.52-7-4.88-6.07-9.91.46-2.62,2.84-11.29,5.55-12.34a3,3,0,0,1,3.49,1.8,9,9,0,0,1,.41,4.26,8.22,8.22,0,0,0,.48,4.24,13.93,13.93,0,0,0,2.51,2.93,3.9,3.9,0,0,1,1.24,3.49,3.19,3.19,0,0,1-2.6,2,7.58,7.58,0,0,1-2.72-.14c-.4-.07-.55.15-.24.41,2.21,1.85,7.54.1,6.42,4.08-.23.83-.42,1.66-.62,2.52-.09.4.14.59.49.39,1.51-.85,2.47-2,2.23-3.92,0-.24,8.69,2.37,9.25,2.55a14.8,14.8,0,0,0,2.17.46c.41.07.64-.18.5-.57a2.71,2.71,0,0,0-2.19-2.09,22.58,22.58,0,0,1-3.6-1c-.39-.14-.37-.27.05-.24,2.19.1,6.76.62,6.77-1.65a.69.69,0,0,0-.86-.59,10.46,10.46,0,0,1-2.34.32c-2.91-.06-6.23.45-8.43-1.48s-2.65-6.06-2.47-8.72c.91-13.51,14.47-20.86,18.38-33.46,1.89-6.09.35-11.55-2.82-16.87C760.21,241.11,758.82,239.63,758.21,236.56Z"/><path class="cls-3" d="M758.21,72.65c-.65-3.31-.59-6.77-1.14-10.11-.74-4.53-2.29-9.14-5.6-12.33a11.38,11.38,0,0,0-14.8-1c-.43.3-.54,1-.77,1.59a4.3,4.3,0,0,0-.2.54,1.84,1.84,0,0,1-.35.71l-.19.15-.1.09a4.6,4.6,0,0,1-.73.47A26.29,26.29,0,0,0,730.7,55a8.13,8.13,0,0,0-1.65,2.18c-.21.35-.34.68-.26.76a1.65,1.65,0,0,0,.87,0,3.4,3.4,0,0,0,.86-.23,7.39,7.39,0,0,1,10.53,6.46c.17,3.22-1.27,6.31-2.9,9.09-1.19,2-2.75,5.38-4.67,6.8-1.65,1.21-3.44,1.08-5.23,2.19-4.07,2.5-7,7.84-9.34,11.79s-4.41,7.9-6.84,11.71c-2.27,3.57-5.36,6.43-7.82,9.69a1.52,1.52,0,0,0-.17,1.28c.11.33.23.73.31,1.07a1.9,1.9,0,0,0,.79,1c2.08,1.39-4.89,6.75-7.08,8.56-.32.26-.23.53.18.58,5.55.57,11.7-1.16,16.6-3.13a8.86,8.86,0,0,0,1.44-.81c.83-.53,1.64-1.1,2.48-1.63s8.67-.62,7.81,1.08c-2.15,4.27.13,8.69.85,13a11.1,11.1,0,0,1-.31,4.53,1.23,1.23,0,0,1-.9.85c-1.5.28-2.86.7-1.8,1.26a6,6,0,0,1,1.8,1.45,3.28,3.28,0,0,1,.53,1.34,27.2,27.2,0,0,0,1.33,4.48c.14.39.43.42.64.07,1.78-3,2.24-4.68,5.85-3.87,2.37.53,4.79,1.25,7.17,1.76.4.08.45,0,.12-.29-1.19-.87-2.37-1.75-3.62-2.53-.35-.21-.32-.27.09-.21,2.14.3,2.69-1.49,3.94-2.22.36-.21.37-.2,0-.13a19.1,19.1,0,0,1-5.43.44c-5.35-.52-7-4.89-6.07-9.92.46-2.62,2.84-11.29,5.55-12.33,1.35-.52,2.89.48,3.49,1.8a8.94,8.94,0,0,1,.41,4.25,8.21,8.21,0,0,0,.48,4.24,13.68,13.68,0,0,0,2.51,2.93,3.93,3.93,0,0,1,1.24,3.5,3.16,3.16,0,0,1-2.6,2,7.57,7.57,0,0,1-2.72-.13c-.4-.08-.55.15-.24.41,2.21,1.84,7.54.1,6.42,4.08-.23.82-.42,1.66-.62,2.51-.09.41.14.59.49.39a3.68,3.68,0,0,0,2.23-3.92c0-.23,8.69,2.37,9.25,2.55a16.2,16.2,0,0,0,2.17.47c.41.07.64-.19.5-.57a2.7,2.7,0,0,0-2.19-2.09,22.62,22.62,0,0,1-3.6-1c-.39-.14-.37-.26.05-.24,2.19.11,6.76.62,6.77-1.64a.7.7,0,0,0-.86-.6,11.09,11.09,0,0,1-2.34.33c-2.91-.07-6.23.45-8.43-1.48s-2.65-6.07-2.47-8.72c.91-13.51,14.47-20.87,18.38-33.47,1.89-6.09.35-11.55-2.82-16.87C760.21,77.19,758.82,75.72,758.21,72.65Z"/><path class="cls-3" d="M299.11,79.77c-3.17,5.31-4.7,10.77-2.81,16.86,3.9,12.6,17.47,20,18.38,33.47.18,2.65-.31,6.82-2.47,8.72s-5.52,1.41-8.44,1.48a10.29,10.29,0,0,1-2.33-.32.69.69,0,0,0-.86.59c0,2.26,4.58,1.75,6.77,1.64.41,0,.43.11,0,.24a22.8,22.8,0,0,1-3.59,1,2.69,2.69,0,0,0-2.19,2.09c-.15.39.09.64.49.57a18.14,18.14,0,0,0,2.18-.46c.56-.18,9.27-2.79,9.24-2.55a3.69,3.69,0,0,0,2.23,3.91c.36.2.59,0,.49-.38-.2-.86-.38-1.7-.62-2.52-1.12-4,4.22-2.24,6.42-4.08.32-.26.17-.48-.24-.41a7.56,7.56,0,0,1-2.72.13,3.16,3.16,0,0,1-2.59-2,3.87,3.87,0,0,1,1.24-3.49,14.49,14.49,0,0,0,2.51-2.93,8.37,8.37,0,0,0,.48-4.25,8.71,8.71,0,0,1,.41-4.25c.59-1.31,2.13-2.32,3.48-1.8,2.72,1,5.1,9.71,5.55,12.34.88,5-.72,9.39-6.07,9.91a19.52,19.52,0,0,1-5.43-.43c-.4-.08-.39-.09,0,.12,1.25.73,1.81,2.53,3.95,2.22.41-.06.43,0,.09.22-1.25.77-2.44,1.65-3.63,2.52-.33.24-.27.38.13.29,2.38-.5,4.8-1.23,7.17-1.76,3.61-.8,4.07.91,5.84,3.87.21.35.5.32.64-.07a26.27,26.27,0,0,0,1.33-4.48,3.22,3.22,0,0,1,.54-1.34,6,6,0,0,1,1.8-1.45c1-.56-.3-1-1.8-1.26a1.2,1.2,0,0,1-.9-.85,11.1,11.1,0,0,1-.31-4.53c.71-4.3,3-8.71.84-13-.86-1.7,6.93-1.65,7.82-1.08s1.64,1.1,2.48,1.64a8.8,8.8,0,0,0,1.44.8c4.9,2,11.05,3.7,16.6,3.13.41,0,.49-.32.18-.58-2.19-1.8-9.16-7.16-7.08-8.56a1.88,1.88,0,0,0,.79-1c.08-.35.2-.75.31-1.08a1.52,1.52,0,0,0-.17-1.28c-2.47-3.26-5.55-6.12-7.83-9.69-2.43-3.81-4.5-7.83-6.83-11.7s-5.28-9.3-9.34-11.8c-1.79-1.1-3.59-1-5.23-2.19-1.92-1.41-3.49-4.77-4.68-6.79-1.63-2.79-3.06-5.87-2.89-9.1a7.38,7.38,0,0,1,10.52-6.46,2.81,2.81,0,0,0,.86.23,1.69,1.69,0,0,0,.88,0c.08-.07-.05-.41-.27-.76a8,8,0,0,0-1.65-2.18,25.6,25.6,0,0,0-3.62-2.19,5.19,5.19,0,0,1-.74-.46.47.47,0,0,0-.1-.1l-.18-.15a2,2,0,0,1-.36-.7c-.06-.2-.12-.38-.19-.55-.23-.55-.35-1.28-.77-1.59a11.38,11.38,0,0,0-14.8,1c-3.31,3.19-4.86,7.8-5.61,12.33-.55,3.34-.49,6.8-1.14,10.11C302.11,75.61,300.71,77.08,299.11,79.77Z"/><path class="cls-3" d="M567.42,407.32c-3.17,5.32-4.7,10.78-2.82,16.87,3.91,12.6,17.47,20,18.39,33.47.18,2.65-.31,6.82-2.48,8.72s-5.51,1.41-8.43,1.48a10.91,10.91,0,0,1-2.33-.33.7.7,0,0,0-.87.6c0,2.26,4.58,1.75,6.78,1.64.41,0,.43.1,0,.24a22.62,22.62,0,0,1-3.6,1,2.7,2.7,0,0,0-2.19,2.09c-.14.38.09.64.5.57a15.86,15.86,0,0,0,2.17-.47c.57-.18,9.28-2.78,9.25-2.55a3.7,3.7,0,0,0,2.23,3.92c.36.2.58,0,.49-.39-.2-.85-.39-1.69-.62-2.51-1.12-4,4.21-2.24,6.42-4.08.32-.27.17-.49-.24-.41a7.56,7.56,0,0,1-2.72.13,3.18,3.18,0,0,1-2.59-2,3.89,3.89,0,0,1,1.23-3.5,13.68,13.68,0,0,0,2.51-2.93,8.21,8.21,0,0,0,.48-4.24,8.94,8.94,0,0,1,.41-4.25c.6-1.32,2.14-2.32,3.49-1.8,2.71,1,5.09,9.71,5.55,12.33.88,5-.72,9.4-6.07,9.92a19.15,19.15,0,0,1-5.43-.44c-.4-.07-.39-.08,0,.13,1.25.73,1.8,2.52,4,2.22.4-.06.43,0,.08.21-1.25.78-2.43,1.66-3.62,2.53-.33.24-.28.37.13.29,2.37-.51,4.79-1.23,7.17-1.76,3.6-.81,4.06.9,5.84,3.87.21.35.5.32.64-.07a26.27,26.27,0,0,0,1.33-4.48A3.16,3.16,0,0,1,603,472a5.66,5.66,0,0,1,1.8-1.45c1.05-.56-.31-1-1.81-1.26a1.22,1.22,0,0,1-.89-.85,10.76,10.76,0,0,1-.31-4.53c.71-4.3,3-8.72.84-13-.86-1.7,6.93-1.65,7.82-1.08s1.64,1.1,2.47,1.63a9.78,9.78,0,0,0,1.44.81c4.91,2,11,3.7,16.61,3.13.41-.05.49-.32.17-.58-2.18-1.81-9.16-7.17-7.08-8.56a1.85,1.85,0,0,0,.79-1c.09-.34.21-.74.31-1.07a1.55,1.55,0,0,0-.16-1.28c-2.47-3.26-5.56-6.12-7.83-9.69-2.43-3.81-4.5-7.84-6.83-11.71s-5.28-9.29-9.34-11.79c-1.8-1.11-3.59-1-5.24-2.2-1.91-1.41-3.48-4.76-4.67-6.79-1.63-2.78-3.06-5.87-2.89-9.09a7.38,7.38,0,0,1,10.52-6.46,3.52,3.52,0,0,0,.86.23,1.81,1.81,0,0,0,.88,0c.07-.08-.05-.41-.27-.76a8.13,8.13,0,0,0-1.65-2.18,26.79,26.79,0,0,0-3.62-2.19,4.9,4.9,0,0,1-.74-.47l-.1-.09-.18-.15a1.7,1.7,0,0,1-.36-.71c-.06-.19-.12-.37-.19-.54-.23-.55-.35-1.29-.77-1.59a11.4,11.4,0,0,0-14.81,1c-3.31,3.19-4.86,7.8-5.6,12.33-.55,3.34-.49,6.8-1.14,10.11C570.42,403.17,569,404.64,567.42,407.32Z"/><path class="cls-3" d="M488,562.09c-.65-3.31-.59-6.77-1.14-10.1-.74-4.54-2.29-9.15-5.6-12.33a11.39,11.39,0,0,0-14.8-1c-.43.31-.55,1-.78,1.59-.07.18-.13.36-.19.55a1.78,1.78,0,0,1-.35.7l-.19.15-.1.1a4.6,4.6,0,0,1-.73.47,26.29,26.29,0,0,0-3.63,2.19,8.13,8.13,0,0,0-1.65,2.18c-.21.35-.34.68-.26.75a1.61,1.61,0,0,0,.87,0,3.4,3.4,0,0,0,.86-.23,7.37,7.37,0,0,1,10.52,6.46c.17,3.22-1.26,6.31-2.89,9.09-1.19,2-2.75,5.38-4.67,6.79-1.65,1.22-3.44,1.09-5.23,2.19-4.07,2.5-7,7.84-9.34,11.8s-4.41,7.9-6.84,11.71c-2.27,3.56-5.36,6.42-7.82,9.68a1.54,1.54,0,0,0-.17,1.29c.11.33.23.73.31,1.07a1.88,1.88,0,0,0,.79,1c2.08,1.4-4.9,6.76-7.08,8.56-.32.27-.23.54.17.58,5.56.58,11.71-1.16,16.61-3.13a9.24,9.24,0,0,0,1.44-.8c.83-.53,1.64-1.11,2.47-1.64s8.68-.62,7.82,1.09c-2.15,4.27.13,8.69.85,13a11.1,11.1,0,0,1-.31,4.53,1.23,1.23,0,0,1-.9.85c-1.5.27-2.86.7-1.8,1.26A6,6,0,0,1,456,634a3.4,3.4,0,0,1,.53,1.34,26.37,26.37,0,0,0,1.33,4.49c.14.38.43.42.64.06,1.78-3,2.24-4.67,5.84-3.86,2.38.53,4.8,1.25,7.18,1.75.4.09.45,0,.12-.29-1.19-.86-2.37-1.74-3.62-2.52-.35-.22-.32-.27.09-.22,2.14.31,2.69-1.48,3.94-2.21.36-.21.37-.2,0-.13a19.85,19.85,0,0,1-5.43.44c-5.35-.53-7-4.89-6.07-9.92.46-2.62,2.84-11.29,5.55-12.34a3,3,0,0,1,3.49,1.8,9,9,0,0,1,.41,4.26,8.22,8.22,0,0,0,.48,4.24,13.68,13.68,0,0,0,2.51,2.93,3.91,3.91,0,0,1,1.24,3.49,3.19,3.19,0,0,1-2.6,2,7.79,7.79,0,0,1-2.72-.13c-.4-.08-.55.14-.24.41,2.21,1.84,7.54.1,6.42,4.08-.23.82-.42,1.65-.62,2.51-.09.4.14.59.49.39a3.7,3.7,0,0,0,2.23-3.92c0-.23,8.69,2.37,9.25,2.55a14.53,14.53,0,0,0,2.17.46c.41.08.64-.18.5-.57A2.71,2.71,0,0,0,486.9,633a22.58,22.58,0,0,1-3.6-1c-.39-.14-.37-.26.05-.24,2.19.11,6.76.62,6.77-1.65a.69.69,0,0,0-.86-.59,10.46,10.46,0,0,1-2.34.32c-2.91-.06-6.23.45-8.43-1.48s-2.65-6.06-2.47-8.71c.91-13.52,14.47-20.87,18.38-33.47,1.89-6.09.35-11.55-2.82-16.87C490,566.64,488.58,565.17,488,562.09Z"/><path class="cls-3" d="M299.11,569.21c-3.17,5.32-4.7,10.78-2.81,16.87,3.9,12.6,17.47,20,18.38,33.47.18,2.65-.31,6.82-2.47,8.71s-5.52,1.42-8.44,1.49a10.91,10.91,0,0,1-2.33-.33.7.7,0,0,0-.86.6c0,2.26,4.58,1.75,6.77,1.64.41,0,.43.1,0,.24a23.93,23.93,0,0,1-3.59,1,2.68,2.68,0,0,0-2.19,2.09c-.15.38.09.64.49.57a16.35,16.35,0,0,0,2.18-.47c.56-.18,9.27-2.78,9.24-2.55a3.71,3.71,0,0,0,2.23,3.92c.36.2.59,0,.49-.39-.2-.85-.38-1.69-.62-2.51-1.12-4,4.22-2.24,6.42-4.08.32-.27.17-.49-.24-.41a7.79,7.79,0,0,1-2.72.13,3.19,3.19,0,0,1-2.59-2,3.9,3.9,0,0,1,1.24-3.5,14,14,0,0,0,2.51-2.93,8.32,8.32,0,0,0,.48-4.24,8.7,8.7,0,0,1,.41-4.25,3,3,0,0,1,3.48-1.8c2.72,1,5.1,9.71,5.55,12.33.88,5-.72,9.4-6.07,9.92a19.53,19.53,0,0,1-5.43-.44c-.4-.07-.39-.08,0,.13,1.25.73,1.81,2.52,3.95,2.22.41-.06.43,0,.09.21-1.25.78-2.44,1.66-3.63,2.53-.33.24-.27.37.13.29,2.38-.51,4.8-1.23,7.17-1.76,3.61-.81,4.07.9,5.84,3.86.21.36.5.32.64-.06a26.27,26.27,0,0,0,1.33-4.48,3.16,3.16,0,0,1,.54-1.34,5.89,5.89,0,0,1,1.8-1.45c1-.56-.3-1-1.8-1.26a1.21,1.21,0,0,1-.9-.85,11.1,11.1,0,0,1-.31-4.53c.71-4.3,3-8.72.84-13-.86-1.7,6.93-1.65,7.82-1.08s1.64,1.1,2.48,1.63a8.86,8.86,0,0,0,1.44.81c4.9,2,11.05,3.7,16.6,3.12.41,0,.49-.31.18-.57-2.19-1.81-9.16-7.17-7.08-8.56a1.9,1.9,0,0,0,.79-1c.08-.34.2-.74.31-1.07a1.51,1.51,0,0,0-.17-1.28c-2.47-3.26-5.55-6.13-7.83-9.69-2.43-3.81-4.5-7.84-6.83-11.71s-5.28-9.29-9.34-11.79c-1.79-1.11-3.59-1-5.23-2.2-1.92-1.41-3.49-4.76-4.68-6.79-1.63-2.78-3.06-5.87-2.89-9.09A7.38,7.38,0,0,1,330.4,547a3.52,3.52,0,0,0,.86.23,1.81,1.81,0,0,0,.88,0c.08-.08-.05-.41-.27-.76a7.74,7.74,0,0,0-1.65-2.18,25.6,25.6,0,0,0-3.62-2.19,4.9,4.9,0,0,1-.74-.47l-.1-.09-.18-.15a2.07,2.07,0,0,1-.36-.71c-.06-.19-.12-.37-.19-.54-.23-.55-.35-1.29-.77-1.6a11.4,11.4,0,0,0-14.8,1c-3.31,3.19-4.86,7.8-5.61,12.33-.55,3.34-.49,6.8-1.14,10.1C302.11,565.06,300.71,566.53,299.11,569.21Z"/><path class="cls-3" d="M219.13,562c-.65-3.31-.6-6.77-1.14-10.11-.75-4.53-2.3-9.14-5.61-12.33a11.4,11.4,0,0,0-14.8-1c-.42.31-.54,1-.77,1.59-.07.17-.13.35-.19.55a2,2,0,0,1-.36.7l-.19.15-.09.1a6.88,6.88,0,0,1-.74.47,24.65,24.65,0,0,0-3.62,2.18A8,8,0,0,0,190,546.5c-.22.35-.35.69-.27.76a1.69,1.69,0,0,0,.88,0,3,3,0,0,0,.85-.22A7.38,7.38,0,0,1,202,553.5c.17,3.23-1.26,6.31-2.9,9.1-1.19,2-2.75,5.38-4.67,6.79-1.65,1.21-3.44,1.09-5.23,2.19-4.07,2.5-6.95,7.84-9.34,11.8s-4.41,7.89-6.84,11.7c-2.27,3.57-5.35,6.43-7.82,9.69a1.53,1.53,0,0,0-.17,1.29c.11.33.23.72.31,1.07a1.88,1.88,0,0,0,.79,1c2.08,1.4-4.89,6.76-7.08,8.56-.32.26-.23.54.18.58,5.55.57,11.7-1.16,16.6-3.13a8.8,8.8,0,0,0,1.44-.8c.84-.53,1.64-1.11,2.48-1.64s8.68-.62,7.82,1.09c-2.16,4.27.13,8.68.84,13a11.09,11.09,0,0,1-.31,4.53,1.2,1.2,0,0,1-.9.85c-1.5.28-2.86.7-1.8,1.26a6,6,0,0,1,1.8,1.45,3.25,3.25,0,0,1,.53,1.34,27.2,27.2,0,0,0,1.33,4.48c.14.39.43.42.65.07,1.77-3,2.23-4.67,5.84-3.87,2.37.53,4.79,1.26,7.17,1.76.4.09.46,0,.12-.29-1.19-.86-2.37-1.74-3.62-2.52-.35-.22-.32-.28.09-.22,2.14.31,2.69-1.48,3.94-2.22.36-.2.37-.2,0-.12a19.42,19.42,0,0,1-5.42.43c-5.36-.52-6.95-4.88-6.08-9.91.46-2.63,2.84-11.3,5.56-12.34,1.34-.52,2.88.49,3.48,1.8a8.83,8.83,0,0,1,.41,4.25,8.35,8.35,0,0,0,.48,4.25,14.18,14.18,0,0,0,2.51,2.93,3.9,3.9,0,0,1,1.24,3.49,3.16,3.16,0,0,1-2.59,2,7.62,7.62,0,0,1-2.73-.13c-.4-.07-.55.15-.23.41,2.2,1.84,7.54.1,6.41,4.08-.23.83-.42,1.66-.62,2.52-.09.4.14.59.5.38a3.67,3.67,0,0,0,2.22-3.91c0-.24,8.69,2.37,9.25,2.55a18.14,18.14,0,0,0,2.18.46c.4.07.63-.18.49-.57A2.71,2.71,0,0,0,218,632.9a22.62,22.62,0,0,1-3.6-1c-.38-.13-.36-.26.05-.24,2.19.11,6.76.62,6.77-1.64a.69.69,0,0,0-.86-.59,10.45,10.45,0,0,1-2.33.32c-2.92-.06-6.24.45-8.44-1.48s-2.65-6.07-2.47-8.72c.91-13.51,14.48-20.87,18.38-33.47,1.89-6.09.36-11.55-2.82-16.86C221.12,566.53,219.73,565.06,219.13,562Z"/><path class="cls-3" d="M30.26,569.11c-3.18,5.32-4.71,10.78-2.82,16.87,3.9,12.6,17.47,19.95,18.38,33.46.18,2.66-.31,6.83-2.47,8.72s-5.52,1.42-8.44,1.48a10.45,10.45,0,0,1-2.33-.32.69.69,0,0,0-.86.59c0,2.27,4.58,1.76,6.77,1.65.41,0,.43.1,0,.24a22.58,22.58,0,0,1-3.6,1,2.71,2.71,0,0,0-2.19,2.09c-.14.39.09.64.49.57a14.94,14.94,0,0,0,2.18-.46c.56-.18,9.28-2.78,9.25-2.55a3.69,3.69,0,0,0,2.22,3.92c.36.2.59,0,.5-.39-.2-.86-.39-1.69-.62-2.51-1.12-4,4.21-2.24,6.42-4.09.31-.26.16-.48-.24-.41a7.58,7.58,0,0,1-2.72.14,3.19,3.19,0,0,1-2.6-2.05,3.9,3.9,0,0,1,1.24-3.49,13.93,13.93,0,0,0,2.51-2.93,8.33,8.33,0,0,0,.48-4.24,8.86,8.86,0,0,1,.41-4.26c.6-1.31,2.14-2.31,3.48-1.8,2.72,1,5.1,9.72,5.56,12.34.87,5-.72,9.39-6.08,9.91a19.42,19.42,0,0,1-5.42-.43c-.41-.07-.4-.08,0,.13,1.25.73,1.8,2.52,3.94,2.21.41,0,.44,0,.09.22-1.25.78-2.43,1.66-3.62,2.52-.34.25-.28.38.12.29,2.38-.5,4.8-1.22,7.17-1.75,3.61-.81,4.07.9,5.85,3.86.21.35.5.32.64-.06a27.31,27.31,0,0,0,1.33-4.49,3.25,3.25,0,0,1,.53-1.34,6,6,0,0,1,1.8-1.44c1.06-.56-.3-1-1.8-1.27a1.18,1.18,0,0,1-.9-.85,11,11,0,0,1-.31-4.52c.72-4.3,3-8.72.84-13-.86-1.71,6.93-1.65,7.82-1.09s1.64,1.11,2.48,1.64a8.8,8.8,0,0,0,1.44.8c4.9,2,11,3.71,16.6,3.13.41,0,.5-.32.18-.58-2.19-1.8-9.16-7.16-7.08-8.56a1.88,1.88,0,0,0,.79-1c.08-.34.2-.74.31-1.07a1.54,1.54,0,0,0-.17-1.29c-2.47-3.26-5.55-6.12-7.82-9.68-2.43-3.81-4.5-7.84-6.84-11.71s-5.27-9.3-9.34-11.8c-1.79-1.1-3.58-1-5.23-2.19-1.92-1.41-3.48-4.76-4.67-6.79-1.63-2.78-3.07-5.87-2.9-9.1a7.38,7.38,0,0,1,10.53-6.45,3.44,3.44,0,0,0,.85.23,1.65,1.65,0,0,0,.88,0c.08-.07-.05-.4-.27-.75a7.9,7.9,0,0,0-1.64-2.18A24.46,24.46,0,0,0,57.74,542a5.51,5.51,0,0,1-.73-.47l-.1-.1-.19-.15a2,2,0,0,1-.36-.7c-.06-.19-.12-.37-.19-.55-.23-.55-.35-1.28-.77-1.59a11.38,11.38,0,0,0-14.8,1c-3.31,3.18-4.86,7.79-5.61,12.33-.54,3.33-.49,6.79-1.14,10.1C33.25,565,31.86,566.43,30.26,569.11Z"/><path class="cls-3" d="M758.21,562.09c-.65-3.31-.59-6.77-1.14-10.1-.74-4.54-2.29-9.15-5.6-12.33a11.39,11.39,0,0,0-14.8-1c-.43.31-.54,1-.77,1.59a5.14,5.14,0,0,0-.2.55,1.78,1.78,0,0,1-.35.7l-.19.15-.1.1a4.6,4.6,0,0,1-.73.47,26.29,26.29,0,0,0-3.63,2.19,8.13,8.13,0,0,0-1.65,2.18c-.21.35-.34.68-.26.75a1.61,1.61,0,0,0,.87,0,3.4,3.4,0,0,0,.86-.23,7.38,7.38,0,0,1,10.53,6.46c.17,3.22-1.27,6.31-2.9,9.09-1.19,2-2.75,5.38-4.67,6.79-1.65,1.22-3.44,1.09-5.23,2.19-4.07,2.5-7,7.84-9.34,11.8s-4.41,7.9-6.84,11.71c-2.27,3.56-5.36,6.42-7.82,9.68a1.54,1.54,0,0,0-.17,1.29c.11.33.23.73.31,1.07a1.88,1.88,0,0,0,.79,1c2.08,1.4-4.89,6.76-7.08,8.56-.32.27-.23.54.18.58,5.55.58,11.7-1.16,16.6-3.13a8.8,8.8,0,0,0,1.44-.8c.83-.53,1.64-1.11,2.48-1.64s8.67-.62,7.81,1.09c-2.15,4.27.13,8.69.85,13a11.1,11.1,0,0,1-.31,4.53,1.23,1.23,0,0,1-.9.85c-1.5.27-2.86.7-1.8,1.26a6,6,0,0,1,1.8,1.44,3.4,3.4,0,0,1,.53,1.34,27.31,27.31,0,0,0,1.33,4.49c.14.38.43.42.64.06,1.78-3,2.24-4.67,5.85-3.86,2.37.53,4.79,1.25,7.17,1.75.4.09.45,0,.12-.29-1.19-.86-2.37-1.74-3.62-2.52-.35-.22-.32-.27.09-.22,2.14.31,2.69-1.48,3.94-2.21.36-.21.37-.2,0-.13a19.85,19.85,0,0,1-5.43.44c-5.35-.53-7-4.89-6.07-9.92.46-2.62,2.84-11.29,5.55-12.34a3,3,0,0,1,3.49,1.8,9,9,0,0,1,.41,4.26,8.22,8.22,0,0,0,.48,4.24,13.68,13.68,0,0,0,2.51,2.93,3.91,3.91,0,0,1,1.24,3.49,3.19,3.19,0,0,1-2.6,2,7.8,7.8,0,0,1-2.72-.13c-.4-.08-.55.14-.24.41,2.21,1.84,7.54.1,6.42,4.08-.23.82-.42,1.65-.62,2.51-.09.4.14.59.49.39,1.51-.85,2.47-2,2.23-3.92,0-.23,8.69,2.37,9.25,2.55a14.8,14.8,0,0,0,2.17.46c.41.08.64-.18.5-.57a2.71,2.71,0,0,0-2.19-2.09,22.58,22.58,0,0,1-3.6-1c-.39-.14-.37-.26.05-.24,2.19.11,6.76.62,6.77-1.65a.69.69,0,0,0-.86-.59,10.46,10.46,0,0,1-2.34.32c-2.91-.06-6.23.45-8.43-1.48s-2.65-6.06-2.47-8.71c.91-13.52,14.47-20.87,18.38-33.47,1.89-6.09.35-11.55-2.82-16.87C760.21,566.64,758.82,565.17,758.21,562.09Z"/><path class="cls-3" d="M567.42,569.21c-3.17,5.32-4.7,10.78-2.82,16.87,3.91,12.6,17.47,20,18.39,33.47.18,2.65-.31,6.82-2.48,8.71s-5.51,1.42-8.43,1.49a10.91,10.91,0,0,1-2.33-.33.7.7,0,0,0-.87.6c0,2.26,4.58,1.75,6.78,1.64.41,0,.43.1,0,.24a23.72,23.72,0,0,1-3.6,1,2.7,2.7,0,0,0-2.19,2.09c-.14.38.09.64.5.57a15.86,15.86,0,0,0,2.17-.47c.57-.18,9.28-2.78,9.25-2.55a3.7,3.7,0,0,0,2.23,3.92c.36.2.58,0,.49-.39-.2-.85-.39-1.69-.62-2.51-1.12-4,4.21-2.24,6.42-4.08.32-.27.17-.49-.24-.41a7.79,7.79,0,0,1-2.72.13,3.18,3.18,0,0,1-2.59-2,3.89,3.89,0,0,1,1.23-3.5,13.68,13.68,0,0,0,2.51-2.93,8.21,8.21,0,0,0,.48-4.24,8.94,8.94,0,0,1,.41-4.25c.6-1.32,2.14-2.32,3.49-1.8,2.71,1,5.09,9.71,5.55,12.33.88,5-.72,9.4-6.07,9.92a19.53,19.53,0,0,1-5.43-.44c-.4-.07-.39-.08,0,.13,1.25.73,1.8,2.52,4,2.22.4-.06.43,0,.08.21-1.25.78-2.43,1.66-3.62,2.53-.33.24-.28.37.13.29,2.37-.51,4.79-1.23,7.17-1.76,3.6-.81,4.06.9,5.84,3.86.21.36.5.32.64-.06a26.27,26.27,0,0,0,1.33-4.48,3.16,3.16,0,0,1,.54-1.34,5.66,5.66,0,0,1,1.8-1.45c1.05-.56-.31-1-1.81-1.26a1.22,1.22,0,0,1-.89-.85,10.76,10.76,0,0,1-.31-4.53c.71-4.3,3-8.72.84-13-.86-1.7,6.93-1.65,7.82-1.08s1.64,1.1,2.47,1.63a9.78,9.78,0,0,0,1.44.81c4.91,2,11,3.7,16.61,3.12.41,0,.49-.31.17-.57-2.18-1.81-9.16-7.17-7.08-8.56a1.85,1.85,0,0,0,.79-1c.09-.34.21-.74.31-1.07a1.55,1.55,0,0,0-.16-1.28c-2.47-3.26-5.56-6.13-7.83-9.69-2.43-3.81-4.5-7.84-6.83-11.71s-5.28-9.29-9.34-11.79c-1.8-1.11-3.59-1-5.24-2.2-1.91-1.41-3.48-4.76-4.67-6.79-1.63-2.78-3.06-5.87-2.89-9.09A7.38,7.38,0,0,1,598.71,547a3.52,3.52,0,0,0,.86.23,1.81,1.81,0,0,0,.88,0c.07-.08-.05-.41-.27-.76a8.13,8.13,0,0,0-1.65-2.18,26.79,26.79,0,0,0-3.62-2.19,4.9,4.9,0,0,1-.74-.47l-.1-.09-.18-.15a1.77,1.77,0,0,1-.36-.71c-.06-.19-.12-.37-.19-.54-.23-.55-.35-1.29-.77-1.6a11.41,11.41,0,0,0-14.81,1c-3.31,3.19-4.86,7.8-5.6,12.33-.55,3.34-.49,6.8-1.14,10.1C570.42,565.06,569,566.53,567.42,569.21Z"/><path class="cls-3" d="M567.42,243.68c-3.17,5.32-4.7,10.78-2.82,16.87,3.91,12.6,17.47,20,18.39,33.47.18,2.65-.31,6.82-2.48,8.71s-5.51,1.42-8.43,1.49a10.91,10.91,0,0,1-2.33-.33.7.7,0,0,0-.87.6c0,2.26,4.58,1.75,6.78,1.64.41,0,.43.1,0,.24a23.72,23.72,0,0,1-3.6,1,2.7,2.7,0,0,0-2.19,2.09c-.14.38.09.64.5.57a15.86,15.86,0,0,0,2.17-.47c.57-.18,9.28-2.78,9.25-2.55a3.7,3.7,0,0,0,2.23,3.92c.36.2.58,0,.49-.39-.2-.85-.39-1.69-.62-2.51-1.12-4,4.21-2.24,6.42-4.08.32-.27.17-.49-.24-.41a7.79,7.79,0,0,1-2.72.13,3.18,3.18,0,0,1-2.59-2,3.88,3.88,0,0,1,1.23-3.5,13.68,13.68,0,0,0,2.51-2.93A8.21,8.21,0,0,0,589,291a9,9,0,0,1,.41-4.26c.6-1.31,2.14-2.31,3.49-1.79,2.71,1,5.09,9.71,5.55,12.33.88,5-.72,9.4-6.07,9.92a19.91,19.91,0,0,1-5.43-.44c-.4-.07-.39-.08,0,.13,1.25.73,1.8,2.52,4,2.22.4-.06.43,0,.08.21-1.25.78-2.43,1.66-3.62,2.53-.33.24-.28.37.13.28,2.37-.5,4.79-1.22,7.17-1.75,3.6-.81,4.06.9,5.84,3.86.21.36.5.32.64-.06a26.27,26.27,0,0,0,1.33-4.48,3.26,3.26,0,0,1,.54-1.35,5.78,5.78,0,0,1,1.8-1.44c1.05-.56-.31-1-1.81-1.26a1.22,1.22,0,0,1-.89-.85,10.76,10.76,0,0,1-.31-4.53c.71-4.3,3-8.72.84-13-.86-1.7,6.93-1.65,7.82-1.09s1.64,1.11,2.47,1.64a8.89,8.89,0,0,0,1.44.8c4.91,2,11,3.71,16.61,3.13.41,0,.49-.31.17-.57-2.18-1.81-9.16-7.17-7.08-8.57a1.83,1.83,0,0,0,.79-1c.09-.34.21-.74.31-1.07a1.55,1.55,0,0,0-.16-1.28c-2.47-3.27-5.56-6.13-7.83-9.69-2.43-3.81-4.5-7.84-6.83-11.71s-5.28-9.29-9.34-11.79c-1.8-1.11-3.59-1-5.24-2.2-1.91-1.41-3.48-4.76-4.67-6.79-1.63-2.78-3.06-5.87-2.89-9.09a7.38,7.38,0,0,1,10.52-6.46,3.52,3.52,0,0,0,.86.23,1.65,1.65,0,0,0,.88,0c.07-.07-.05-.4-.27-.75a8.13,8.13,0,0,0-1.65-2.18,26.79,26.79,0,0,0-3.62-2.19,4.9,4.9,0,0,1-.74-.47.43.43,0,0,0-.1-.09l-.18-.15a1.77,1.77,0,0,1-.36-.71c-.06-.19-.12-.37-.19-.54-.23-.56-.35-1.29-.77-1.6a11.4,11.4,0,0,0-14.81,1c-3.31,3.19-4.86,7.79-5.6,12.33-.55,3.33-.49,6.79-1.14,10.1C570.42,239.53,569,241,567.42,243.68Z"/><path class="cls-3" d="M567.42,79.77c-3.17,5.31-4.7,10.77-2.82,16.86,3.91,12.6,17.47,20,18.39,33.47.18,2.65-.31,6.82-2.48,8.72s-5.51,1.41-8.43,1.48a10.29,10.29,0,0,1-2.33-.32.7.7,0,0,0-.87.59c0,2.26,4.58,1.75,6.78,1.64.41,0,.43.11,0,.24a22.62,22.62,0,0,1-3.6,1,2.71,2.71,0,0,0-2.19,2.09c-.14.39.09.64.5.57a17.56,17.56,0,0,0,2.17-.46c.57-.18,9.28-2.79,9.25-2.55a3.68,3.68,0,0,0,2.23,3.91c.36.2.58,0,.49-.38-.2-.86-.39-1.7-.62-2.52-1.12-4,4.21-2.24,6.42-4.08.32-.26.17-.48-.24-.41a7.56,7.56,0,0,1-2.72.13,3.14,3.14,0,0,1-2.59-2,3.87,3.87,0,0,1,1.23-3.49,14.18,14.18,0,0,0,2.51-2.93A8.26,8.26,0,0,0,589,127a9,9,0,0,1,.41-4.25c.6-1.31,2.14-2.32,3.49-1.8,2.71,1,5.09,9.71,5.55,12.34.88,5-.72,9.39-6.07,9.91a19.52,19.52,0,0,1-5.43-.43c-.4-.08-.39-.09,0,.12,1.25.73,1.8,2.53,4,2.22.4-.06.43,0,.08.22-1.25.77-2.43,1.65-3.62,2.52-.33.24-.28.38.13.29,2.37-.5,4.79-1.23,7.17-1.76,3.6-.8,4.06.91,5.84,3.87.21.35.5.32.64-.07a26.27,26.27,0,0,0,1.33-4.48,3.22,3.22,0,0,1,.54-1.34,5.79,5.79,0,0,1,1.8-1.45c1.05-.56-.31-1-1.81-1.26a1.2,1.2,0,0,1-.89-.85,10.76,10.76,0,0,1-.31-4.53c.71-4.3,3-8.71.84-13-.86-1.7,6.93-1.65,7.82-1.08s1.64,1.1,2.47,1.64a9.72,9.72,0,0,0,1.44.8c4.91,2,11,3.7,16.61,3.13.41,0,.49-.32.17-.58-2.18-1.8-9.16-7.16-7.08-8.56a1.83,1.83,0,0,0,.79-1c.09-.35.21-.75.31-1.08a1.55,1.55,0,0,0-.16-1.28c-2.47-3.26-5.56-6.12-7.83-9.69-2.43-3.81-4.5-7.83-6.83-11.7s-5.28-9.3-9.34-11.8c-1.8-1.1-3.59-1-5.24-2.19-1.91-1.41-3.48-4.77-4.67-6.79-1.63-2.79-3.06-5.87-2.89-9.1a7.38,7.38,0,0,1,10.52-6.46,2.81,2.81,0,0,0,.86.23,1.69,1.69,0,0,0,.88,0c.07-.07-.05-.41-.27-.76a8.46,8.46,0,0,0-1.65-2.18,26.79,26.79,0,0,0-3.62-2.19,5.19,5.19,0,0,1-.74-.46l-.1-.1-.18-.15a1.71,1.71,0,0,1-.36-.7c-.06-.2-.12-.38-.19-.55-.23-.55-.35-1.28-.77-1.59a11.4,11.4,0,0,0-14.81,1c-3.31,3.19-4.86,7.8-5.6,12.33-.55,3.34-.49,6.8-1.14,10.11C570.42,75.61,569,77.08,567.42,79.77Z"/><path class="cls-3" d="M219.13,72.54c-.65-3.31-.6-6.77-1.14-10.1-.75-4.54-2.3-9.15-5.61-12.33a11.38,11.38,0,0,0-14.8-1c-.42.31-.54,1-.77,1.59-.07.18-.13.36-.19.55a2.07,2.07,0,0,1-.36.71l-.19.15a.76.76,0,0,0-.09.09,5.54,5.54,0,0,1-.74.47,25.6,25.6,0,0,0-3.62,2.19A7.74,7.74,0,0,0,190,57.06c-.22.35-.35.68-.27.75a1.65,1.65,0,0,0,.88,0,3.33,3.33,0,0,0,.85-.23A7.39,7.39,0,0,1,202,64.06c.17,3.22-1.26,6.31-2.9,9.09-1.19,2-2.75,5.38-4.67,6.79-1.65,1.22-3.44,1.09-5.23,2.19-4.07,2.51-6.95,7.85-9.34,11.8s-4.41,7.9-6.84,11.71c-2.27,3.56-5.35,6.42-7.82,9.69a1.51,1.51,0,0,0-.17,1.28c.11.33.23.73.31,1.07a1.88,1.88,0,0,0,.79,1c2.08,1.4-4.89,6.76-7.08,8.56-.32.27-.23.54.18.58,5.55.58,11.7-1.16,16.6-3.13a8.12,8.12,0,0,0,1.44-.8c.84-.53,1.64-1.11,2.48-1.64s8.68-.61,7.82,1.09c-2.16,4.27.13,8.69.84,13a11.1,11.1,0,0,1-.31,4.53,1.21,1.21,0,0,1-.9.85c-1.5.27-2.86.7-1.8,1.26a6,6,0,0,1,1.8,1.44,3.24,3.24,0,0,1,.53,1.35,27.2,27.2,0,0,0,1.33,4.48c.14.38.43.42.65.06,1.77-3,2.23-4.67,5.84-3.86,2.37.53,4.79,1.25,7.17,1.75.4.09.46,0,.12-.28-1.19-.87-2.37-1.75-3.62-2.53-.35-.22-.32-.27.09-.22,2.14.31,2.69-1.48,3.94-2.21.36-.21.37-.2,0-.13a19.81,19.81,0,0,1-5.42.44c-5.36-.52-6.95-4.89-6.08-9.92.46-2.62,2.84-11.29,5.56-12.34,1.34-.51,2.88.49,3.48,1.8a8.86,8.86,0,0,1,.41,4.26,8.32,8.32,0,0,0,.48,4.24,13.68,13.68,0,0,0,2.51,2.93,3.92,3.92,0,0,1,1.24,3.5,3.19,3.19,0,0,1-2.59,2,7.85,7.85,0,0,1-2.73-.13c-.4-.08-.55.14-.23.41,2.2,1.84,7.54.1,6.41,4.08-.23.82-.42,1.66-.62,2.51-.09.4.14.59.5.39a3.69,3.69,0,0,0,2.22-3.92c0-.23,8.69,2.37,9.25,2.55a16.35,16.35,0,0,0,2.18.47c.4.07.63-.19.49-.57a2.71,2.71,0,0,0-2.19-2.1,22.58,22.58,0,0,1-3.6-1c-.38-.14-.36-.26.05-.24,2.19.11,6.76.62,6.77-1.64a.69.69,0,0,0-.86-.6,10.45,10.45,0,0,1-2.33.32c-2.92-.06-6.24.46-8.44-1.48s-2.65-6.06-2.47-8.71c.91-13.52,14.48-20.87,18.38-33.47,1.89-6.09.36-11.55-2.82-16.87C221.12,77.09,219.73,75.62,219.13,72.54Z"/><path class="cls-3" d="M30.26,79.66C27.08,85,25.55,90.44,27.44,96.53c3.9,12.6,17.47,20,18.38,33.47.18,2.65-.31,6.82-2.47,8.72s-5.52,1.41-8.44,1.48a11.09,11.09,0,0,1-2.33-.33.7.7,0,0,0-.86.6c0,2.26,4.58,1.75,6.77,1.64.41,0,.43.1,0,.24a22.62,22.62,0,0,1-3.6,1,2.7,2.7,0,0,0-2.19,2.09c-.14.38.09.64.49.57a16.35,16.35,0,0,0,2.18-.47c.56-.18,9.28-2.78,9.25-2.55a3.69,3.69,0,0,0,2.22,3.92c.36.2.59,0,.5-.39-.2-.85-.39-1.69-.62-2.51-1.12-4,4.21-2.24,6.42-4.08.31-.27.16-.49-.24-.41a7.57,7.57,0,0,1-2.72.13,3.19,3.19,0,0,1-2.6-2,3.93,3.93,0,0,1,1.24-3.5,13.68,13.68,0,0,0,2.51-2.93,8.32,8.32,0,0,0,.48-4.24,8.82,8.82,0,0,1,.41-4.25c.6-1.32,2.14-2.32,3.48-1.8,2.72,1,5.1,9.71,5.56,12.33.87,5-.72,9.4-6.08,9.92a19.06,19.06,0,0,1-5.42-.44c-.41-.07-.4-.08,0,.13,1.25.73,1.8,2.52,3.94,2.22.41-.06.44,0,.09.21-1.25.78-2.43,1.66-3.62,2.53-.34.24-.28.37.12.29,2.38-.51,4.8-1.23,7.17-1.76,3.61-.81,4.07.9,5.85,3.87.21.35.5.32.64-.07a27.2,27.2,0,0,0,1.33-4.48,3.15,3.15,0,0,1,.53-1.34,5.89,5.89,0,0,1,1.8-1.45c1.06-.56-.3-1-1.8-1.26a1.21,1.21,0,0,1-.9-.85,11.1,11.1,0,0,1-.31-4.53c.72-4.3,3-8.72.84-13-.86-1.7,6.93-1.65,7.82-1.08s1.64,1.1,2.48,1.63a8.86,8.86,0,0,0,1.44.81c4.9,2,11,3.7,16.6,3.13.41,0,.5-.32.18-.58-2.19-1.81-9.16-7.17-7.08-8.56a1.9,1.9,0,0,0,.79-1c.08-.34.2-.74.31-1.07a1.52,1.52,0,0,0-.17-1.28c-2.47-3.26-5.55-6.12-7.82-9.69-2.43-3.81-4.5-7.84-6.84-11.71S67.89,84.53,63.82,82c-1.79-1.11-3.58-1-5.23-2.2-1.92-1.41-3.48-4.76-4.67-6.79C52.29,70.26,50.85,67.17,51,64a7.39,7.39,0,0,1,10.53-6.46,3.44,3.44,0,0,0,.85.23,1.81,1.81,0,0,0,.88,0c.08-.08-.05-.41-.27-.76a7.9,7.9,0,0,0-1.64-2.18,26.29,26.29,0,0,0-3.63-2.19,4.6,4.6,0,0,1-.73-.47l-.1-.09-.19-.15a2,2,0,0,1-.36-.71c-.06-.19-.12-.37-.19-.54-.23-.55-.35-1.29-.77-1.59a11.38,11.38,0,0,0-14.8,1c-3.31,3.19-4.86,7.8-5.61,12.33-.54,3.34-.49,6.8-1.14,10.11C33.25,75.51,31.86,77,30.26,79.66Z"/><circle class="cls-4" cx="462" cy="387.16" r="41.6"/><circle class="cls-5" cx="462.01" cy="387.16" r="29.91"/><line class="cls-5" x1="401.03" y1="387.16" x2="439.77" y2="387.16"/><line class="cls-5" x1="484.24" y1="387.16" x2="522.98" y2="387.16"/><line class="cls-5" x1="462" y1="326.18" x2="462" y2="364.92"/><line class="cls-5" x1="462" y1="409.39" x2="462" y2="448.13"/><circle class="cls-4" cx="328.69" cy="387.05" r="41.6"/><circle class="cls-5" cx="328.69" cy="387.05" r="29.91"/><line class="cls-5" x1="389.66" y1="387.05" x2="350.93" y2="387.05"/><line class="cls-5" x1="306.46" y1="387.05" x2="267.72" y2="387.05"/><line class="cls-5" x1="328.69" y1="326.08" x2="328.69" y2="364.81"/><line class="cls-5" x1="328.69" y1="409.29" x2="328.69" y2="448.02"/><circle class="cls-4" cx="193.15" cy="387.05" r="41.6"/><circle class="cls-5" cx="193.15" cy="387.05" r="29.91"/><line class="cls-5" x1="132.17" y1="387.05" x2="170.91" y2="387.05"/><line class="cls-5" x1="215.38" y1="387.05" x2="254.12" y2="387.05"/><line class="cls-5" x1="193.15" y1="326.08" x2="193.15" y2="364.82"/><line class="cls-5" x1="193.15" y1="409.29" x2="193.15" y2="448.03"/><circle class="cls-4" cx="59.83" cy="386.95" r="41.6"/><circle class="cls-5" cx="59.83" cy="386.95" r="29.91"/><line class="cls-5" x1="120.81" y1="386.95" x2="82.07" y2="386.95"/><line class="cls-5" x1="37.6" y1="386.95" x2="-1.14" y2="386.95"/><line class="cls-5" x1="59.83" y1="325.97" x2="59.83" y2="364.71"/><line class="cls-5" x1="59.83" y1="409.18" x2="59.83" y2="447.92"/><circle class="cls-4" cx="462" cy="223.52" r="41.6"/><circle class="cls-5" cx="462.01" cy="223.52" r="29.91"/><line class="cls-5" x1="401.03" y1="223.52" x2="439.77" y2="223.52"/><line class="cls-5" x1="484.24" y1="223.52" x2="522.98" y2="223.52"/><line class="cls-5" x1="462" y1="162.54" x2="462" y2="201.28"/><line class="cls-5" x1="462" y1="245.75" x2="462" y2="284.49"/><circle class="cls-4" cx="328.69" cy="223.41" r="41.6"/><circle class="cls-5" cx="328.69" cy="223.41" r="29.91"/><line class="cls-5" x1="389.66" y1="223.41" x2="350.93" y2="223.41"/><line class="cls-5" x1="306.46" y1="223.41" x2="267.72" y2="223.41"/><line class="cls-5" x1="328.69" y1="162.43" x2="328.69" y2="201.17"/><line class="cls-5" x1="328.69" y1="245.64" x2="328.69" y2="284.38"/><circle class="cls-4" cx="193.15" cy="223.41" r="41.6"/><circle class="cls-5" cx="193.15" cy="223.41" r="29.91"/><line class="cls-5" x1="132.17" y1="223.41" x2="170.91" y2="223.41"/><line class="cls-5" x1="215.38" y1="223.41" x2="254.12" y2="223.41"/><line class="cls-5" x1="193.15" y1="162.44" x2="193.15" y2="201.18"/><line class="cls-5" x1="193.15" y1="245.65" x2="193.15" y2="284.39"/><circle class="cls-4" cx="59.83" cy="223.3" r="41.6"/><circle class="cls-5" cx="59.83" cy="223.3" r="29.91"/><line class="cls-5" x1="120.81" y1="223.3" x2="82.07" y2="223.3"/><line class="cls-5" x1="37.6" y1="223.3" x2="-1.14" y2="223.3"/><line class="cls-5" x1="59.83" y1="162.33" x2="59.83" y2="201.07"/><line class="cls-5" x1="59.83" y1="245.54" x2="59.83" y2="284.28"/><circle class="cls-4" cx="462" cy="59.6" r="41.6"/><circle class="cls-5" cx="462.01" cy="59.6" r="29.91"/><line class="cls-5" x1="401.03" y1="59.6" x2="439.77" y2="59.6"/><line class="cls-5" x1="484.24" y1="59.6" x2="522.98" y2="59.6"/><line class="cls-5" x1="462" y1="-1.37" x2="462" y2="37.36"/><line class="cls-5" x1="462" y1="81.84" x2="462" y2="120.57"/><circle class="cls-4" cx="732.23" cy="387.16" r="41.6"/><circle class="cls-5" cx="732.24" cy="387.16" r="29.91"/><line class="cls-5" x1="671.26" y1="387.16" x2="710" y2="387.16"/><line class="cls-5" x1="754.47" y1="387.16" x2="793.21" y2="387.16"/><line class="cls-5" x1="732.23" y1="326.18" x2="732.23" y2="364.92"/><line class="cls-5" x1="732.23" y1="409.39" x2="732.23" y2="448.13"/><circle class="cls-4" cx="732.23" cy="223.52" r="41.6"/><circle class="cls-5" cx="732.24" cy="223.52" r="29.91"/><line class="cls-5" x1="671.26" y1="223.52" x2="710" y2="223.52"/><line class="cls-5" x1="754.47" y1="223.52" x2="793.21" y2="223.52"/><line class="cls-5" x1="732.23" y1="162.54" x2="732.23" y2="201.28"/><line class="cls-5" x1="732.23" y1="245.75" x2="732.23" y2="284.49"/><circle class="cls-4" cx="732.23" cy="59.6" r="41.6"/><circle class="cls-5" cx="732.24" cy="59.6" r="29.91"/><line class="cls-5" x1="671.26" y1="59.6" x2="710" y2="59.6"/><line class="cls-5" x1="754.47" y1="59.6" x2="793.21" y2="59.6"/><line class="cls-5" x1="732.23" y1="-1.37" x2="732.23" y2="37.36"/><line class="cls-5" x1="732.23" y1="81.84" x2="732.23" y2="120.57"/><circle class="cls-4" cx="328.69" cy="59.49" r="41.6"/><circle class="cls-5" cx="328.69" cy="59.49" r="29.91"/><line class="cls-5" x1="389.66" y1="59.49" x2="350.93" y2="59.49"/><line class="cls-5" x1="306.46" y1="59.49" x2="267.72" y2="59.49"/><line class="cls-5" x1="328.69" y1="-1.48" x2="328.69" y2="37.26"/><line class="cls-5" x1="328.69" y1="81.73" x2="328.69" y2="120.47"/><circle class="cls-4" cx="597" cy="387.05" r="41.6"/><circle class="cls-5" cx="597" cy="387.05" r="29.91"/><line class="cls-5" x1="657.97" y1="387.05" x2="619.23" y2="387.05"/><line class="cls-5" x1="574.76" y1="387.05" x2="536.02" y2="387.05"/><line class="cls-5" x1="597" y1="326.08" x2="597" y2="364.81"/><line class="cls-5" x1="597" y1="409.29" x2="597" y2="448.02"/><circle class="cls-4" cx="462" cy="549.05" r="41.6"/><circle class="cls-5" cx="462.01" cy="549.05" r="29.91"/><line class="cls-5" x1="401.03" y1="549.05" x2="439.77" y2="549.05"/><line class="cls-5" x1="484.24" y1="549.05" x2="522.98" y2="549.05"/><line class="cls-5" x1="462" y1="488.07" x2="462" y2="526.81"/><line class="cls-5" x1="462" y1="571.28" x2="462" y2="610.02"/><circle class="cls-4" cx="328.69" cy="548.94" r="41.6"/><circle class="cls-5" cx="328.69" cy="548.94" r="29.91"/><line class="cls-5" x1="389.66" y1="548.94" x2="350.93" y2="548.94"/><line class="cls-5" x1="306.46" y1="548.94" x2="267.72" y2="548.94"/><line class="cls-5" x1="328.69" y1="487.97" x2="328.69" y2="526.7"/><line class="cls-5" x1="328.69" y1="571.17" x2="328.69" y2="609.91"/><circle class="cls-4" cx="193.15" cy="548.94" r="41.6"/><circle class="cls-5" cx="193.15" cy="548.94" r="29.91"/><line class="cls-5" x1="132.17" y1="548.94" x2="170.91" y2="548.94"/><line class="cls-5" x1="215.38" y1="548.94" x2="254.12" y2="548.94"/><line class="cls-5" x1="193.15" y1="487.97" x2="193.15" y2="526.71"/><line class="cls-5" x1="193.15" y1="571.18" x2="193.15" y2="609.92"/><circle class="cls-4" cx="59.83" cy="548.84" r="41.6"/><circle class="cls-5" cx="59.83" cy="548.84" r="29.91"/><line class="cls-5" x1="120.81" y1="548.84" x2="82.07" y2="548.84"/><line class="cls-5" x1="37.6" y1="548.84" x2="-1.14" y2="548.84"/><line class="cls-5" x1="59.83" y1="487.86" x2="59.83" y2="526.6"/><line class="cls-5" x1="59.83" y1="571.07" x2="59.83" y2="609.81"/><circle class="cls-4" cx="732.23" cy="549.05" r="41.6"/><circle class="cls-5" cx="732.24" cy="549.05" r="29.91"/><line class="cls-5" x1="671.26" y1="549.05" x2="710" y2="549.05"/><line class="cls-5" x1="754.47" y1="549.05" x2="793.21" y2="549.05"/><line class="cls-5" x1="732.23" y1="488.07" x2="732.23" y2="526.81"/><line class="cls-5" x1="732.23" y1="571.28" x2="732.23" y2="610.02"/><circle class="cls-4" cx="597" cy="548.94" r="41.6"/><circle class="cls-5" cx="597" cy="548.94" r="29.91"/><line class="cls-5" x1="657.97" y1="548.94" x2="619.23" y2="548.94"/><line class="cls-5" x1="574.76" y1="548.94" x2="536.02" y2="548.94"/><line class="cls-5" x1="597" y1="487.97" x2="597" y2="526.7"/><line class="cls-5" x1="597" y1="571.17" x2="597" y2="609.91"/><circle class="cls-4" cx="597" cy="223.41" r="41.6"/><circle class="cls-5" cx="597" cy="223.41" r="29.91"/><line class="cls-5" x1="657.97" y1="223.41" x2="619.23" y2="223.41"/><line class="cls-5" x1="574.76" y1="223.41" x2="536.02" y2="223.41"/><line class="cls-5" x1="597" y1="162.43" x2="597" y2="201.17"/><line class="cls-5" x1="597" y1="245.64" x2="597" y2="284.38"/><circle class="cls-4" cx="597" cy="59.49" r="41.6"/><circle class="cls-5" cx="597" cy="59.49" r="29.91"/><line class="cls-5" x1="657.97" y1="59.49" x2="619.23" y2="59.49"/><line class="cls-5" x1="574.76" y1="59.49" x2="536.02" y2="59.49"/><line class="cls-5" x1="597" y1="-1.48" x2="597" y2="37.26"/><line class="cls-5" x1="597" y1="81.73" x2="597" y2="120.47"/><circle class="cls-4" cx="193.15" cy="59.5" r="41.6"/><circle class="cls-5" cx="193.15" cy="59.5" r="29.91"/><line class="cls-5" x1="132.17" y1="59.5" x2="170.91" y2="59.5"/><line class="cls-5" x1="215.38" y1="59.5" x2="254.12" y2="59.5"/><line class="cls-5" x1="193.15" y1="-1.48" x2="193.15" y2="37.26"/><line class="cls-5" x1="193.15" y1="81.73" x2="193.15" y2="120.47"/><circle class="cls-4" cx="59.83" cy="59.39" r="41.6"/><circle class="cls-5" cx="59.83" cy="59.39" r="29.91"/><line class="cls-5" x1="120.81" y1="59.39" x2="82.07" y2="59.39"/><line class="cls-5" x1="37.6" y1="59.39" x2="-1.14" y2="59.39"/><line class="cls-5" x1="59.83" y1="-1.58" x2="59.83" y2="37.15"/><line class="cls-5" x1="59.83" y1="81.63" x2="59.83" y2="120.36"/></g></g></svg>