<svg xmlns="http://www.w3.org/2000/svg" viewBox="0 0 792 612"><defs><style>.cls-1{fill:#ffdc4d;}.cls-2{opacity:0.15;}.cls-3{fill:#817751;}.cls-4,.cls-5{fill:none;stroke:#817751;stroke-miterlimit:10;}.cls-4{stroke-width:5.65px;}.cls-5{stroke-width:4.06px;}</style></defs><g id="Amusement_park" data-name="Amusement park"><rect class="cls-1" x="-6.05" y="-11.92" width="804.17" height="634.24"/><g class="cls-2"><path class="cls-3" d="M487.33,400.2c-.64-3.31-.59-6.77-1.13-10.1-.75-4.54-2.3-9.15-5.61-12.33a11.38,11.38,0,0,0-14.8-1c-.42.31-.54,1-.77,1.59-.08.18-.13.36-.2.55a1.92,1.92,0,0,1-.35.71l-.19.15-.1.09a4.6,4.6,0,0,1-.73.47,26.29,26.29,0,0,0-3.63,2.19,8.13,8.13,0,0,0-1.65,2.18c-.21.35-.34.68-.26.75a1.65,1.65,0,0,0,.88,0,3.44,3.44,0,0,0,.85-.23,7.39,7.39,0,0,1,10.53,6.46c.17,3.22-1.27,6.31-2.9,9.09-1.19,2-2.75,5.38-4.67,6.79-1.65,1.22-3.44,1.09-5.23,2.19-4.07,2.51-7,7.85-9.34,11.8s-4.41,7.9-6.84,11.71c-2.27,3.56-5.36,6.42-7.82,9.69a1.51,1.51,0,0,0-.17,1.28c.11.33.23.73.31,1.07a1.88,1.88,0,0,0,.79,1c2.08,1.4-4.89,6.76-7.08,8.56-.32.27-.23.54.18.58,5.55.58,11.7-1.16,16.6-3.13a8.12,8.12,0,0,0,1.44-.8c.84-.53,1.64-1.11,2.48-1.64s8.67-.61,7.82,1.09c-2.16,4.27.12,8.69.84,13a11.1,11.1,0,0,1-.31,4.53,1.21,1.21,0,0,1-.9.85c-1.5.27-2.86.7-1.8,1.26a6,6,0,0,1,1.8,1.44,3.38,3.38,0,0,1,.53,1.35,27.2,27.2,0,0,0,1.33,4.48c.14.38.43.42.64.06,1.78-3,2.24-4.67,5.85-3.86,2.37.53,4.79,1.25,7.17,1.75.4.09.46,0,.12-.28-1.19-.87-2.37-1.75-3.62-2.53-.35-.22-.32-.27.09-.22,2.14.31,2.69-1.48,3.94-2.21.36-.21.37-.2,0-.13a19.81,19.81,0,0,1-5.42.44c-5.36-.52-6.95-4.89-6.08-9.92.46-2.62,2.84-11.29,5.56-12.34,1.34-.51,2.88.49,3.48,1.8a8.86,8.86,0,0,1,.41,4.26,8.32,8.32,0,0,0,.48,4.24,13.68,13.68,0,0,0,2.51,2.93,3.92,3.92,0,0,1,1.24,3.5,3.19,3.19,0,0,1-2.6,2,7.8,7.8,0,0,1-2.72-.13c-.4-.08-.55.14-.24.41,2.21,1.84,7.54.1,6.42,4.08-.23.82-.42,1.66-.62,2.51-.09.4.14.59.5.39a3.69,3.69,0,0,0,2.22-3.92c0-.23,8.69,2.37,9.25,2.55a16,16,0,0,0,2.18.47c.4.07.63-.19.49-.57a2.71,2.71,0,0,0-2.19-2.1,22.58,22.58,0,0,1-3.6-1c-.38-.14-.36-.26.05-.24,2.19.11,6.76.62,6.77-1.64a.69.69,0,0,0-.86-.6,10.45,10.45,0,0,1-2.33.32c-2.92-.06-6.24.46-8.44-1.48s-2.65-6.06-2.47-8.71c.91-13.52,14.48-20.87,18.38-33.47,1.89-6.09.36-11.55-2.82-16.87C489.33,404.75,487.94,403.28,487.33,400.2Z"/><circle class="cls-4" cx="461.36" cy="387.16" r="41.6"/><circle class="cls-5" cx="461.36" cy="387.16" r="29.91"/><line class="cls-5" x1="400.38" y1="387.16" x2="439.12" y2="387.16"/><line class="cls-5" x1="483.59" y1="387.16" x2="522.33" y2="387.16"/><line class="cls-5" x1="461.36" y1="326.18" x2="461.36" y2="364.92"/><line class="cls-5" x1="461.36" y1="409.39" x2="461.36" y2="448.13"/></g><g class="cls-2"><path class="cls-3" d="M298.47,407.32c-3.18,5.32-4.71,10.78-2.82,16.87,3.9,12.6,17.47,20,18.38,33.47.18,2.65-.31,6.82-2.47,8.72s-5.52,1.41-8.44,1.48a11.09,11.09,0,0,1-2.33-.33.7.7,0,0,0-.86.6c0,2.26,4.58,1.75,6.77,1.64.41,0,.43.1.05.24a23.22,23.22,0,0,1-3.6,1A2.69,2.69,0,0,0,301,473.1c-.14.38.09.64.49.57a16.35,16.35,0,0,0,2.18-.47c.56-.18,9.27-2.78,9.25-2.55a3.69,3.69,0,0,0,2.22,3.92c.36.2.59,0,.5-.39-.2-.85-.39-1.69-.62-2.51-1.13-4,4.21-2.24,6.41-4.08.32-.27.17-.49-.23-.41a7.62,7.62,0,0,1-2.73.13,3.19,3.19,0,0,1-2.59-2,3.93,3.93,0,0,1,1.24-3.5,14,14,0,0,0,2.51-2.93,8.32,8.32,0,0,0,.48-4.24,8.82,8.82,0,0,1,.41-4.25c.6-1.32,2.14-2.32,3.48-1.8,2.72,1,5.1,9.71,5.56,12.33.87,5-.72,9.4-6.08,9.92a19.06,19.06,0,0,1-5.42-.44c-.41-.07-.4-.08,0,.13,1.25.73,1.8,2.52,3.94,2.22.41-.06.44,0,.09.21-1.25.78-2.43,1.66-3.62,2.53-.34.24-.28.37.12.29,2.38-.51,4.8-1.23,7.17-1.76,3.61-.81,4.07.9,5.84,3.87.22.35.51.32.65-.07a27.2,27.2,0,0,0,1.33-4.48A3.15,3.15,0,0,1,334,472a5.89,5.89,0,0,1,1.8-1.45c1.05-.56-.3-1-1.8-1.26a1.21,1.21,0,0,1-.9-.85,11.1,11.1,0,0,1-.31-4.53c.71-4.3,3-8.72.84-13-.86-1.7,6.93-1.65,7.82-1.08s1.64,1.1,2.48,1.63a8.86,8.86,0,0,0,1.44.81c4.9,2,11.05,3.7,16.6,3.13.41-.05.5-.32.18-.58-2.19-1.81-9.16-7.17-7.08-8.56a1.9,1.9,0,0,0,.79-1c.08-.34.2-.74.31-1.07a1.52,1.52,0,0,0-.17-1.28c-2.47-3.26-5.55-6.12-7.82-9.69-2.43-3.81-4.5-7.84-6.84-11.71s-5.27-9.29-9.34-11.79c-1.79-1.11-3.58-1-5.23-2.2-1.92-1.41-3.48-4.76-4.67-6.79-1.64-2.78-3.07-5.87-2.9-9.09a7.39,7.39,0,0,1,10.53-6.46,3.33,3.33,0,0,0,.85.23,1.81,1.81,0,0,0,.88,0c.08-.08-.05-.41-.27-.76a7.74,7.74,0,0,0-1.65-2.18,25.6,25.6,0,0,0-3.62-2.19,5.54,5.54,0,0,1-.74-.47l-.1-.09-.18-.15a2,2,0,0,1-.36-.71c-.06-.19-.12-.37-.19-.54-.23-.55-.35-1.29-.77-1.59a11.38,11.38,0,0,0-14.8,1c-3.31,3.19-4.86,7.8-5.61,12.33-.54,3.34-.49,6.8-1.14,10.11C301.46,403.17,300.07,404.64,298.47,407.32Z"/><circle class="cls-4" cx="328.04" cy="387.05" r="41.6"/><circle class="cls-5" cx="328.04" cy="387.05" r="29.91"/><line class="cls-5" x1="389.02" y1="387.05" x2="350.28" y2="387.05"/><line class="cls-5" x1="305.81" y1="387.05" x2="267.07" y2="387.05"/><line class="cls-5" x1="328.04" y1="326.08" x2="328.04" y2="364.81"/><line class="cls-5" x1="328.04" y1="409.29" x2="328.04" y2="448.02"/></g><g class="cls-2"><path class="cls-3" d="M218.48,400.1c-.65-3.31-.59-6.77-1.14-10.1-.75-4.54-2.3-9.15-5.61-12.34a11.4,11.4,0,0,0-14.8-1c-.42.31-.54,1-.77,1.59-.07.18-.13.35-.19.55a2,2,0,0,1-.36.7l-.18.15a.47.47,0,0,0-.1.1,5.93,5.93,0,0,1-.74.47,24.65,24.65,0,0,0-3.62,2.18,8,8,0,0,0-1.65,2.18c-.22.35-.35.69-.27.76a1.69,1.69,0,0,0,.88,0,3.11,3.11,0,0,0,.86-.22,7.37,7.37,0,0,1,10.52,6.45c.17,3.23-1.26,6.31-2.9,9.1-1.18,2-2.75,5.38-4.67,6.79-1.65,1.21-3.44,1.09-5.23,2.19-4.06,2.5-6.95,7.84-9.34,11.8s-4.4,7.9-6.83,11.71c-2.28,3.56-5.36,6.42-7.83,9.68a1.54,1.54,0,0,0-.17,1.29c.11.33.23.72.31,1.07a1.88,1.88,0,0,0,.79,1c2.08,1.4-4.89,6.76-7.08,8.56-.31.26-.23.54.18.58,5.55.57,11.7-1.16,16.6-3.13a8.8,8.8,0,0,0,1.44-.8c.84-.53,1.65-1.11,2.48-1.64s8.68-.62,7.82,1.09c-2.15,4.27.13,8.69.84,13a11.09,11.09,0,0,1-.31,4.53,1.2,1.2,0,0,1-.9.85c-1.5.28-2.85.71-1.8,1.26a6,6,0,0,1,1.8,1.45,3.27,3.27,0,0,1,.54,1.34,26.89,26.89,0,0,0,1.32,4.48c.15.39.44.42.65.07,1.77-3,2.23-4.67,5.84-3.87,2.37.54,4.79,1.26,7.17,1.76.4.09.46-.05.13-.29-1.19-.86-2.38-1.74-3.63-2.52-.35-.22-.32-.28.09-.22,2.14.31,2.69-1.48,3.95-2.22.35-.2.36-.2,0-.12a19.52,19.52,0,0,1-5.43.43c-5.36-.52-6.95-4.88-6.07-9.91.45-2.62,2.83-11.3,5.55-12.34a3,3,0,0,1,3.48,1.8,8.71,8.71,0,0,1,.41,4.25,8.35,8.35,0,0,0,.48,4.25,14.49,14.49,0,0,0,2.51,2.93,3.87,3.87,0,0,1,1.24,3.49,3.19,3.19,0,0,1-2.59,2.05,7.8,7.8,0,0,1-2.72-.14c-.41-.07-.56.15-.24.41,2.2,1.84,7.54.1,6.41,4.08-.23.83-.41,1.66-.61,2.52-.1.4.13.59.49.38a3.69,3.69,0,0,0,2.23-3.91c0-.24,8.68,2.37,9.24,2.55a16.39,16.39,0,0,0,2.18.46c.4.07.64-.18.49-.57a2.69,2.69,0,0,0-2.19-2.09,23.89,23.89,0,0,1-3.59-1c-.39-.14-.37-.27,0-.25,2.19.11,6.76.62,6.77-1.64a.69.69,0,0,0-.86-.59,10.29,10.29,0,0,1-2.33.32c-2.92-.06-6.23.45-8.44-1.48s-2.65-6.07-2.47-8.72c.91-13.51,14.48-20.86,18.38-33.47,1.89-6.08.36-11.55-2.81-16.86C220.48,404.64,219.08,403.17,218.48,400.1Z"/><circle class="cls-4" cx="192.5" cy="387.05" r="41.6"/><circle class="cls-5" cx="192.5" cy="387.05" r="29.91"/><line class="cls-5" x1="131.52" y1="387.05" x2="170.26" y2="387.05"/><line class="cls-5" x1="214.73" y1="387.05" x2="253.47" y2="387.05"/><line class="cls-5" x1="192.5" y1="326.08" x2="192.5" y2="364.82"/><line class="cls-5" x1="192.5" y1="409.29" x2="192.5" y2="448.03"/></g><g class="cls-2"><path class="cls-3" d="M29.61,407.22c-3.17,5.32-4.71,10.78-2.82,16.87,3.91,12.6,17.47,20,18.38,33.47.18,2.65-.31,6.82-2.47,8.71s-5.52,1.42-8.43,1.48a10.46,10.46,0,0,1-2.34-.32.69.69,0,0,0-.86.59c0,2.27,4.58,1.76,6.77,1.65.42,0,.44.1,0,.24a22.58,22.58,0,0,1-3.6,1A2.71,2.71,0,0,0,32.1,473c-.14.39.09.65.5.57a14.8,14.8,0,0,0,2.17-.46c.56-.18,9.28-2.78,9.25-2.55a3.7,3.7,0,0,0,2.23,3.92c.35.2.58,0,.49-.39-.2-.86-.39-1.69-.62-2.51-1.12-4,4.21-2.24,6.42-4.08.31-.27.16-.49-.24-.41a7.8,7.8,0,0,1-2.72.13,3.19,3.19,0,0,1-2.6-2,3.91,3.91,0,0,1,1.24-3.49,13.68,13.68,0,0,0,2.51-2.93,8.22,8.22,0,0,0,.48-4.24,9,9,0,0,1,.41-4.26,3,3,0,0,1,3.49-1.8c2.71,1.05,5.09,9.72,5.55,12.34.88,5-.72,9.39-6.07,9.92a19.85,19.85,0,0,1-5.43-.44c-.41-.07-.4-.08,0,.13,1.25.73,1.8,2.52,3.94,2.21.41-.05.44,0,.09.22-1.25.78-2.43,1.66-3.62,2.52-.33.25-.28.38.12.29,2.38-.5,4.8-1.22,7.18-1.75,3.6-.81,4.06.9,5.84,3.86.21.36.5.32.64-.06a26.37,26.37,0,0,0,1.33-4.49,3.4,3.4,0,0,1,.53-1.34,6,6,0,0,1,1.8-1.44c1.06-.56-.3-1-1.8-1.26a1.23,1.23,0,0,1-.9-.85,11.1,11.1,0,0,1-.31-4.53c.72-4.3,3-8.72.85-13-.86-1.71,6.93-1.65,7.81-1.09s1.65,1.11,2.48,1.64a9.24,9.24,0,0,0,1.44.8c4.9,2,11,3.71,16.61,3.13.4,0,.49-.31.17-.58-2.19-1.8-9.16-7.16-7.08-8.56a1.88,1.88,0,0,0,.79-1c.08-.34.2-.74.31-1.07a1.54,1.54,0,0,0-.17-1.29c-2.46-3.26-5.55-6.12-7.82-9.68-2.43-3.81-4.5-7.84-6.84-11.71s-5.27-9.3-9.34-11.8c-1.79-1.1-3.58-1-5.23-2.19-1.92-1.41-3.48-4.76-4.67-6.79-1.63-2.78-3.06-5.87-2.89-9.09a7.37,7.37,0,0,1,10.52-6.46,3.4,3.4,0,0,0,.86.23,1.61,1.61,0,0,0,.87,0c.08-.07-.05-.4-.26-.75a8.13,8.13,0,0,0-1.65-2.18,26.29,26.29,0,0,0-3.63-2.19,4.6,4.6,0,0,1-.73-.47l-.1-.1-.19-.15a1.78,1.78,0,0,1-.35-.7,5.14,5.14,0,0,0-.2-.55c-.22-.55-.34-1.28-.77-1.59a11.39,11.39,0,0,0-14.8,1c-3.31,3.18-4.86,7.79-5.6,12.33-.55,3.33-.49,6.79-1.14,10.1C32.61,403.07,31.21,404.54,29.61,407.22Z"/><circle class="cls-4" cx="59.19" cy="386.95" r="41.6"/><circle class="cls-5" cx="59.18" cy="386.95" r="29.91"/><line class="cls-5" x1="120.16" y1="386.95" x2="81.42" y2="386.95"/><line class="cls-5" x1="36.95" y1="386.95" x2="-1.79" y2="386.95"/><line class="cls-5" x1="59.19" y1="325.97" x2="59.19" y2="364.71"/><line class="cls-5" x1="59.19" y1="409.18" x2="59.19" y2="447.92"/></g><g class="cls-2"><path class="cls-3" d="M487.33,236.56c-.64-3.31-.59-6.77-1.13-10.1-.75-4.54-2.3-9.15-5.61-12.33a11.38,11.38,0,0,0-14.8-1c-.42.31-.54,1-.77,1.59-.08.18-.13.36-.2.55a1.86,1.86,0,0,1-.35.7l-.19.15-.1.1a5.51,5.51,0,0,1-.73.47,24.46,24.46,0,0,0-3.63,2.19,8.13,8.13,0,0,0-1.65,2.18c-.21.35-.34.68-.26.75a1.65,1.65,0,0,0,.88,0,3.44,3.44,0,0,0,.85-.23,7.38,7.38,0,0,1,10.53,6.45c.17,3.23-1.27,6.31-2.9,9.1-1.19,2-2.75,5.38-4.67,6.79-1.65,1.22-3.44,1.09-5.23,2.19-4.07,2.5-7,7.84-9.34,11.8s-4.41,7.9-6.84,11.71c-2.27,3.56-5.36,6.42-7.82,9.68a1.54,1.54,0,0,0-.17,1.29c.11.33.23.73.31,1.07a1.88,1.88,0,0,0,.79,1c2.08,1.4-4.89,6.76-7.08,8.56-.32.26-.23.54.18.58,5.55.58,11.7-1.16,16.6-3.13a8.8,8.8,0,0,0,1.44-.8c.84-.53,1.64-1.11,2.48-1.64s8.67-.62,7.82,1.09c-2.16,4.27.12,8.69.84,13a11,11,0,0,1-.31,4.52,1.18,1.18,0,0,1-.9.85c-1.5.28-2.86.71-1.8,1.27a6,6,0,0,1,1.8,1.44,3.4,3.4,0,0,1,.53,1.34,26.92,26.92,0,0,0,1.33,4.48c.14.39.43.42.64.07,1.78-3,2.24-4.67,5.85-3.86,2.37.53,4.79,1.25,7.17,1.75.4.09.46,0,.12-.29-1.19-.86-2.37-1.74-3.62-2.52-.35-.22-.32-.27.09-.22,2.14.31,2.69-1.48,3.94-2.21.36-.21.37-.21,0-.13a19.42,19.42,0,0,1-5.42.43c-5.36-.52-6.95-4.88-6.08-9.91.46-2.62,2.84-11.29,5.56-12.34,1.34-.51,2.88.49,3.48,1.8a8.86,8.86,0,0,1,.41,4.26,8.33,8.33,0,0,0,.48,4.24,13.93,13.93,0,0,0,2.51,2.93,3.9,3.9,0,0,1,1.24,3.49,3.19,3.19,0,0,1-2.6,2,7.58,7.58,0,0,1-2.72-.14c-.4-.07-.55.15-.24.41,2.21,1.85,7.54.1,6.42,4.08-.23.83-.42,1.66-.62,2.52-.09.4.14.59.5.39a3.69,3.69,0,0,0,2.22-3.92c0-.24,8.69,2.37,9.25,2.55a14.67,14.67,0,0,0,2.18.46c.4.07.63-.18.49-.57a2.71,2.71,0,0,0-2.19-2.09,22.58,22.58,0,0,1-3.6-1c-.38-.14-.36-.27.05-.24,2.19.1,6.76.62,6.77-1.65a.69.69,0,0,0-.86-.59,10.45,10.45,0,0,1-2.33.32c-2.92-.06-6.24.45-8.44-1.48s-2.65-6.06-2.47-8.72c.91-13.51,14.48-20.86,18.38-33.46,1.89-6.09.36-11.55-2.82-16.87C489.33,241.11,487.94,239.63,487.33,236.56Z"/><circle class="cls-4" cx="461.36" cy="223.52" r="41.6"/><circle class="cls-5" cx="461.36" cy="223.52" r="29.91"/><line class="cls-5" x1="400.38" y1="223.52" x2="439.12" y2="223.52"/><line class="cls-5" x1="483.59" y1="223.52" x2="522.33" y2="223.52"/><line class="cls-5" x1="461.36" y1="162.54" x2="461.36" y2="201.28"/><line class="cls-5" x1="461.36" y1="245.75" x2="461.36" y2="284.49"/></g><g class="cls-2"><path class="cls-3" d="M298.47,243.68c-3.18,5.32-4.71,10.78-2.82,16.87,3.9,12.6,17.47,20,18.38,33.47.18,2.65-.31,6.82-2.47,8.71s-5.52,1.42-8.44,1.49a11.09,11.09,0,0,1-2.33-.33.7.7,0,0,0-.86.6c0,2.26,4.58,1.75,6.77,1.64.41,0,.43.1.05.24a24.39,24.39,0,0,1-3.6,1,2.69,2.69,0,0,0-2.19,2.09c-.14.38.09.64.49.57a16.35,16.35,0,0,0,2.18-.47c.56-.18,9.27-2.78,9.25-2.55a3.69,3.69,0,0,0,2.22,3.92c.36.2.59,0,.5-.39-.2-.85-.39-1.69-.62-2.51-1.13-4,4.21-2.24,6.41-4.08.32-.27.17-.49-.23-.41a7.85,7.85,0,0,1-2.73.13,3.19,3.19,0,0,1-2.59-2,3.92,3.92,0,0,1,1.24-3.5,14,14,0,0,0,2.51-2.93,8.32,8.32,0,0,0,.48-4.24,8.86,8.86,0,0,1,.41-4.26c.6-1.31,2.14-2.31,3.48-1.79,2.72,1,5.1,9.71,5.56,12.33.87,5-.72,9.4-6.08,9.92a19.81,19.81,0,0,1-5.42-.44c-.41-.07-.4-.08,0,.13,1.25.73,1.8,2.52,3.94,2.22.41-.06.44,0,.09.21-1.25.78-2.43,1.66-3.62,2.53-.34.24-.28.37.12.28,2.38-.5,4.8-1.22,7.17-1.75,3.61-.81,4.07.9,5.84,3.86.22.36.51.32.65-.06a27.2,27.2,0,0,0,1.33-4.48,3.24,3.24,0,0,1,.53-1.35,6,6,0,0,1,1.8-1.44c1.05-.56-.3-1-1.8-1.26a1.21,1.21,0,0,1-.9-.85,11.1,11.1,0,0,1-.31-4.53c.71-4.3,3-8.72.84-13-.86-1.7,6.93-1.65,7.82-1.09s1.64,1.11,2.48,1.64a8.12,8.12,0,0,0,1.44.8c4.9,2,11.05,3.71,16.6,3.13.41,0,.5-.31.18-.57-2.19-1.81-9.16-7.17-7.08-8.57a1.88,1.88,0,0,0,.79-1c.08-.34.2-.74.31-1.07a1.51,1.51,0,0,0-.17-1.28c-2.47-3.27-5.55-6.13-7.82-9.69-2.43-3.81-4.5-7.84-6.84-11.71s-5.27-9.29-9.34-11.79c-1.79-1.11-3.58-1-5.23-2.2-1.92-1.41-3.48-4.76-4.67-6.79-1.64-2.78-3.07-5.87-2.9-9.09a7.39,7.39,0,0,1,10.53-6.46,3.33,3.33,0,0,0,.85.23,1.65,1.65,0,0,0,.88,0c.08-.07-.05-.4-.27-.75a7.74,7.74,0,0,0-1.65-2.18A25.6,25.6,0,0,0,326,216.6a5.54,5.54,0,0,1-.74-.47.43.43,0,0,0-.1-.09l-.18-.15a2.07,2.07,0,0,1-.36-.71c-.06-.19-.12-.37-.19-.54-.23-.56-.35-1.29-.77-1.6a11.38,11.38,0,0,0-14.8,1c-3.31,3.19-4.86,7.79-5.61,12.33-.54,3.33-.49,6.79-1.14,10.1C301.46,239.53,300.07,241,298.47,243.68Z"/><circle class="cls-4" cx="328.04" cy="223.41" r="41.6"/><circle class="cls-5" cx="328.04" cy="223.41" r="29.91"/><line class="cls-5" x1="389.02" y1="223.41" x2="350.28" y2="223.41"/><line class="cls-5" x1="305.81" y1="223.41" x2="267.07" y2="223.41"/><line class="cls-5" x1="328.04" y1="162.43" x2="328.04" y2="201.17"/><line class="cls-5" x1="328.04" y1="245.64" x2="328.04" y2="284.38"/></g><g class="cls-2"><path class="cls-3" d="M218.48,236.46c-.65-3.31-.59-6.77-1.14-10.11-.75-4.53-2.3-9.14-5.61-12.33a11.38,11.38,0,0,0-14.8-1c-.42.31-.54,1-.77,1.59-.07.17-.13.35-.19.55a2,2,0,0,1-.36.7l-.18.15a.47.47,0,0,0-.1.1,5.19,5.19,0,0,1-.74.46,25.6,25.6,0,0,0-3.62,2.19,8,8,0,0,0-1.65,2.18c-.22.35-.35.69-.27.76a1.69,1.69,0,0,0,.88,0,3.12,3.12,0,0,0,.86-.23A7.38,7.38,0,0,1,201.31,228c.17,3.23-1.26,6.31-2.9,9.1-1.18,2-2.75,5.38-4.67,6.79-1.65,1.21-3.44,1.09-5.23,2.19-4.06,2.5-6.95,7.84-9.34,11.8s-4.4,7.89-6.83,11.7c-2.28,3.57-5.36,6.43-7.83,9.69a1.52,1.52,0,0,0-.17,1.28c.11.33.23.73.31,1.08a1.88,1.88,0,0,0,.79,1c2.08,1.4-4.89,6.76-7.08,8.56-.31.26-.23.54.18.58,5.55.57,11.7-1.16,16.6-3.13a8.8,8.8,0,0,0,1.44-.8c.84-.54,1.65-1.11,2.48-1.64s8.68-.62,7.82,1.08c-2.15,4.28.13,8.69.84,13a11.1,11.1,0,0,1-.31,4.53,1.2,1.2,0,0,1-.9.85c-1.5.28-2.85.7-1.8,1.26a6,6,0,0,1,1.8,1.45,3.16,3.16,0,0,1,.54,1.34,27.17,27.17,0,0,0,1.32,4.48c.15.39.44.42.65.07,1.77-3,2.23-4.67,5.84-3.87,2.37.53,4.79,1.25,7.17,1.76.4.09.46-.05.13-.29-1.19-.87-2.38-1.75-3.63-2.52-.35-.22-.32-.28.09-.22,2.14.31,2.69-1.49,3.95-2.22.35-.21.36-.2,0-.12a19.52,19.52,0,0,1-5.43.43c-5.36-.52-6.95-4.89-6.07-9.91.45-2.63,2.83-11.3,5.55-12.34,1.34-.52,2.89.49,3.48,1.8a8.71,8.71,0,0,1,.41,4.25,8.32,8.32,0,0,0,.48,4.24,14.28,14.28,0,0,0,2.51,2.94,3.87,3.87,0,0,1,1.24,3.49,3.16,3.16,0,0,1-2.59,2,7.56,7.56,0,0,1-2.72-.13c-.41-.08-.56.15-.24.41,2.2,1.84,7.54.1,6.41,4.08-.23.82-.41,1.66-.61,2.52-.1.4.13.58.49.38a3.69,3.69,0,0,0,2.23-3.91c0-.24,8.68,2.36,9.24,2.55a18.14,18.14,0,0,0,2.18.46c.4.07.64-.18.49-.57a2.69,2.69,0,0,0-2.19-2.09,22.8,22.8,0,0,1-3.59-1c-.39-.13-.37-.26,0-.24,2.19.11,6.76.62,6.77-1.64a.69.69,0,0,0-.86-.59,10.29,10.29,0,0,1-2.33.32c-2.92-.07-6.23.45-8.44-1.48s-2.65-6.07-2.47-8.72c.91-13.51,14.48-20.87,18.38-33.47,1.89-6.09.36-11.55-2.81-16.86C220.48,241,219.08,239.53,218.48,236.46Z"/><circle class="cls-4" cx="192.5" cy="223.41" r="41.6"/><circle class="cls-5" cx="192.5" cy="223.41" r="29.91"/><line class="cls-5" x1="131.52" y1="223.41" x2="170.26" y2="223.41"/><line class="cls-5" x1="214.73" y1="223.41" x2="253.47" y2="223.41"/><line class="cls-5" x1="192.5" y1="162.44" x2="192.5" y2="201.18"/><line class="cls-5" x1="192.5" y1="245.65" x2="192.5" y2="284.39"/></g><g class="cls-2"><path class="cls-3" d="M29.61,243.58c-3.17,5.32-4.71,10.78-2.82,16.87,3.91,12.6,17.47,19.95,18.38,33.46.18,2.66-.31,6.83-2.47,8.72s-5.52,1.42-8.43,1.48a10.46,10.46,0,0,1-2.34-.32.69.69,0,0,0-.86.59c0,2.26,4.58,1.75,6.77,1.65.42,0,.44.1,0,.24a22.58,22.58,0,0,1-3.6,1,2.71,2.71,0,0,0-2.19,2.09c-.14.39.09.64.5.57a14.8,14.8,0,0,0,2.17-.46c.56-.18,9.28-2.79,9.25-2.55a3.68,3.68,0,0,0,2.23,3.91c.35.21.58,0,.49-.38-.2-.86-.39-1.69-.62-2.52-1.12-4,4.21-2.23,6.42-4.08.31-.26.16-.48-.24-.41a7.58,7.58,0,0,1-2.72.14,3.19,3.19,0,0,1-2.6-2.05A3.9,3.9,0,0,1,48.22,298a14.18,14.18,0,0,0,2.51-2.93,8.22,8.22,0,0,0,.48-4.24,9,9,0,0,1,.41-4.26,3,3,0,0,1,3.49-1.8c2.71,1,5.09,9.72,5.55,12.34.88,5-.72,9.39-6.07,9.91a19.46,19.46,0,0,1-5.43-.43c-.41-.08-.4-.08,0,.12,1.25.74,1.8,2.53,3.94,2.22.41-.06.44,0,.09.22-1.25.78-2.43,1.66-3.62,2.52-.33.24-.28.38.12.29,2.38-.5,4.8-1.22,7.18-1.75,3.6-.81,4.06.9,5.84,3.86.21.35.5.32.64-.07a26,26,0,0,0,1.33-4.48,3.4,3.4,0,0,1,.53-1.34,6,6,0,0,1,1.8-1.45c1.06-.55-.3-1-1.8-1.26a1.2,1.2,0,0,1-.9-.85,11.09,11.09,0,0,1-.31-4.53c.72-4.29,3-8.71.85-13-.86-1.71,6.93-1.66,7.81-1.09s1.65,1.11,2.48,1.64a9.24,9.24,0,0,0,1.44.8c4.9,2,11,3.71,16.61,3.13.4,0,.49-.32.17-.58-2.19-1.8-9.16-7.16-7.08-8.56a1.88,1.88,0,0,0,.79-1c.08-.35.2-.74.31-1.07a1.54,1.54,0,0,0-.17-1.29c-2.46-3.26-5.55-6.12-7.82-9.68-2.43-3.81-4.5-7.84-6.84-11.71s-5.27-9.3-9.34-11.8c-1.79-1.1-3.58-1-5.23-2.19C56,242.34,54.46,239,53.27,237c-1.63-2.79-3.06-5.87-2.89-9.1a7.37,7.37,0,0,1,10.52-6.45,3,3,0,0,0,.86.22,1.54,1.54,0,0,0,.87,0c.08-.07-.05-.41-.26-.75a8.35,8.35,0,0,0-1.65-2.19,25.29,25.29,0,0,0-3.63-2.18,5.51,5.51,0,0,1-.73-.47l-.1-.1-.19-.15a1.86,1.86,0,0,1-.35-.7,5.14,5.14,0,0,0-.2-.55c-.22-.55-.34-1.28-.77-1.59a11.39,11.39,0,0,0-14.8,1c-3.31,3.18-4.86,7.79-5.6,12.33-.55,3.33-.49,6.79-1.14,10.1C32.61,239.42,31.21,240.9,29.61,243.58Z"/><circle class="cls-4" cx="59.19" cy="223.3" r="41.6"/><circle class="cls-5" cx="59.18" cy="223.3" r="29.91"/><line class="cls-5" x1="120.16" y1="223.3" x2="81.42" y2="223.3"/><line class="cls-5" x1="36.95" y1="223.3" x2="-1.79" y2="223.3"/><line class="cls-5" x1="59.19" y1="162.33" x2="59.19" y2="201.07"/><line class="cls-5" x1="59.19" y1="245.54" x2="59.19" y2="284.28"/></g><g class="cls-2"><path class="cls-3" d="M487.33,72.65c-.64-3.31-.59-6.77-1.13-10.11-.75-4.53-2.3-9.14-5.61-12.33a11.38,11.38,0,0,0-14.8-1c-.42.3-.54,1-.77,1.59-.08.17-.13.35-.2.54a1.84,1.84,0,0,1-.35.71l-.19.15-.1.09a4.6,4.6,0,0,1-.73.47A26.29,26.29,0,0,0,459.82,55a8.13,8.13,0,0,0-1.65,2.18c-.21.35-.34.68-.26.76a1.69,1.69,0,0,0,.88,0,3.44,3.44,0,0,0,.85-.23,7.39,7.39,0,0,1,10.53,6.46c.17,3.22-1.27,6.31-2.9,9.09-1.19,2-2.75,5.38-4.67,6.8-1.65,1.21-3.44,1.08-5.23,2.19-4.07,2.5-7,7.84-9.34,11.79s-4.41,7.9-6.84,11.71c-2.27,3.57-5.36,6.43-7.82,9.69a1.52,1.52,0,0,0-.17,1.28c.11.33.23.73.31,1.07a1.9,1.9,0,0,0,.79,1c2.08,1.39-4.89,6.75-7.08,8.56-.32.26-.23.53.18.58,5.55.57,11.7-1.16,16.6-3.13a8.86,8.86,0,0,0,1.44-.81c.84-.53,1.64-1.1,2.48-1.63s8.67-.62,7.82,1.08c-2.16,4.27.12,8.69.84,13a11.1,11.1,0,0,1-.31,4.53,1.21,1.21,0,0,1-.9.85c-1.5.28-2.86.7-1.8,1.26a6,6,0,0,1,1.8,1.45,3.28,3.28,0,0,1,.53,1.34,27.2,27.2,0,0,0,1.33,4.48c.14.39.43.42.64.07,1.78-3,2.24-4.68,5.85-3.87,2.37.53,4.79,1.25,7.17,1.76.4.08.46,0,.12-.29-1.19-.87-2.37-1.75-3.62-2.53-.35-.21-.32-.27.09-.21,2.14.3,2.69-1.49,3.94-2.22.36-.21.37-.2,0-.13a19.06,19.06,0,0,1-5.42.44c-5.36-.52-6.95-4.89-6.08-9.92.46-2.62,2.84-11.29,5.56-12.33,1.34-.52,2.88.48,3.48,1.8a8.82,8.82,0,0,1,.41,4.25,8.32,8.32,0,0,0,.48,4.24,13.68,13.68,0,0,0,2.51,2.93,3.93,3.93,0,0,1,1.24,3.5,3.16,3.16,0,0,1-2.6,2,7.57,7.57,0,0,1-2.72-.13c-.4-.08-.55.15-.24.41,2.21,1.84,7.54.1,6.42,4.08-.23.82-.42,1.66-.62,2.51-.09.41.14.59.5.39a3.68,3.68,0,0,0,2.22-3.92c0-.23,8.69,2.37,9.25,2.55a16,16,0,0,0,2.18.47c.4.07.63-.19.49-.57a2.7,2.7,0,0,0-2.19-2.09,22.62,22.62,0,0,1-3.6-1c-.38-.14-.36-.26.05-.24,2.19.11,6.76.62,6.77-1.64a.7.7,0,0,0-.86-.6,11.09,11.09,0,0,1-2.33.33c-2.92-.07-6.24.45-8.44-1.48s-2.65-6.07-2.47-8.72c.91-13.51,14.48-20.87,18.38-33.47,1.89-6.09.36-11.55-2.82-16.87C489.33,77.19,487.94,75.72,487.33,72.65Z"/><circle class="cls-4" cx="461.36" cy="59.6" r="41.6"/><circle class="cls-5" cx="461.36" cy="59.6" r="29.91"/><line class="cls-5" x1="400.38" y1="59.6" x2="439.12" y2="59.6"/><line class="cls-5" x1="483.59" y1="59.6" x2="522.33" y2="59.6"/><line class="cls-5" x1="461.36" y1="-1.37" x2="461.36" y2="37.36"/><line class="cls-5" x1="461.36" y1="81.84" x2="461.36" y2="120.57"/></g><g class="cls-2"><path class="cls-3" d="M757.57,400.2c-.65-3.31-.6-6.77-1.14-10.1-.75-4.54-2.3-9.15-5.61-12.33a11.38,11.38,0,0,0-14.8-1c-.42.31-.54,1-.77,1.59-.07.18-.13.36-.19.55a2.07,2.07,0,0,1-.36.71l-.19.15-.1.09a4.6,4.6,0,0,1-.73.47,26.29,26.29,0,0,0-3.63,2.19,7.9,7.9,0,0,0-1.64,2.18c-.22.35-.35.68-.27.75a1.65,1.65,0,0,0,.88,0,3.33,3.33,0,0,0,.85-.23,7.39,7.39,0,0,1,10.53,6.46c.17,3.22-1.26,6.31-2.9,9.09-1.19,2-2.75,5.38-4.67,6.79-1.65,1.22-3.44,1.09-5.23,2.19-4.07,2.51-7,7.85-9.34,11.8s-4.41,7.9-6.84,11.71c-2.27,3.56-5.35,6.42-7.82,9.69a1.51,1.51,0,0,0-.17,1.28c.11.33.23.73.31,1.07a1.88,1.88,0,0,0,.79,1c2.08,1.4-4.89,6.76-7.08,8.56-.32.27-.23.54.18.58,5.55.58,11.7-1.16,16.6-3.13a8.12,8.12,0,0,0,1.44-.8c.84-.53,1.64-1.11,2.48-1.64s8.68-.61,7.82,1.09c-2.16,4.27.12,8.69.84,13a11.1,11.1,0,0,1-.31,4.53,1.21,1.21,0,0,1-.9.85c-1.5.27-2.86.7-1.8,1.26a6,6,0,0,1,1.8,1.44,3.24,3.24,0,0,1,.53,1.35,27.2,27.2,0,0,0,1.33,4.48c.14.38.43.42.64.06,1.78-3,2.24-4.67,5.85-3.86,2.37.53,4.79,1.25,7.17,1.75.4.09.46,0,.12-.28-1.19-.87-2.37-1.75-3.62-2.53-.35-.22-.32-.27.09-.22,2.14.31,2.69-1.48,3.94-2.21.36-.21.37-.2,0-.13a19.81,19.81,0,0,1-5.42.44c-5.36-.52-7-4.89-6.08-9.92.46-2.62,2.84-11.29,5.56-12.34,1.34-.51,2.88.49,3.48,1.8a8.86,8.86,0,0,1,.41,4.26A8.32,8.32,0,0,0,740,459a13.68,13.68,0,0,0,2.51,2.93,3.92,3.92,0,0,1,1.24,3.5,3.19,3.19,0,0,1-2.6,2,7.8,7.8,0,0,1-2.72-.13c-.4-.08-.55.14-.24.41,2.21,1.84,7.55.1,6.42,4.08-.23.82-.42,1.66-.62,2.51-.09.4.14.59.5.39a3.69,3.69,0,0,0,2.22-3.92c0-.23,8.69,2.37,9.25,2.55a16.35,16.35,0,0,0,2.18.47c.4.07.63-.19.49-.57a2.71,2.71,0,0,0-2.19-2.1,22.58,22.58,0,0,1-3.6-1c-.38-.14-.36-.26,0-.24,2.19.11,6.76.62,6.77-1.64a.69.69,0,0,0-.86-.6,10.45,10.45,0,0,1-2.33.32c-2.92-.06-6.24.46-8.44-1.48s-2.65-6.06-2.47-8.71c.91-13.52,14.48-20.87,18.38-33.47,1.89-6.09.36-11.55-2.82-16.87C759.56,404.75,758.17,403.28,757.57,400.2Z"/><circle class="cls-4" cx="731.59" cy="387.16" r="41.6"/><circle class="cls-5" cx="731.59" cy="387.16" r="29.91"/><line class="cls-5" x1="670.61" y1="387.16" x2="709.35" y2="387.16"/><line class="cls-5" x1="753.82" y1="387.16" x2="792.56" y2="387.16"/><line class="cls-5" x1="731.59" y1="326.18" x2="731.59" y2="364.92"/><line class="cls-5" x1="731.59" y1="409.39" x2="731.59" y2="448.13"/></g><g class="cls-2"><path class="cls-3" d="M757.57,236.56c-.65-3.31-.6-6.77-1.14-10.1-.75-4.54-2.3-9.15-5.61-12.33a11.38,11.38,0,0,0-14.8-1c-.42.31-.54,1-.77,1.59-.07.18-.13.36-.19.55a2,2,0,0,1-.36.7l-.19.15-.1.1a5.51,5.51,0,0,1-.73.47,24.46,24.46,0,0,0-3.63,2.19,7.9,7.9,0,0,0-1.64,2.18c-.22.35-.35.68-.27.75a1.65,1.65,0,0,0,.88,0,3.33,3.33,0,0,0,.85-.23,7.38,7.38,0,0,1,10.53,6.45c.17,3.23-1.26,6.31-2.9,9.1-1.19,2-2.75,5.38-4.67,6.79-1.65,1.22-3.44,1.09-5.23,2.19-4.07,2.5-7,7.84-9.34,11.8s-4.41,7.9-6.84,11.71c-2.27,3.56-5.35,6.42-7.82,9.68a1.54,1.54,0,0,0-.17,1.29c.11.33.23.73.31,1.07a1.88,1.88,0,0,0,.79,1c2.08,1.4-4.89,6.76-7.08,8.56-.32.26-.23.54.18.58,5.55.58,11.7-1.16,16.6-3.13a8.8,8.8,0,0,0,1.44-.8c.84-.53,1.64-1.11,2.48-1.64s8.68-.62,7.82,1.09c-2.16,4.27.12,8.69.84,13a11,11,0,0,1-.31,4.52,1.18,1.18,0,0,1-.9.85c-1.5.28-2.86.71-1.8,1.27a6,6,0,0,1,1.8,1.44,3.25,3.25,0,0,1,.53,1.34,26.92,26.92,0,0,0,1.33,4.48c.14.39.43.42.64.07,1.78-3,2.24-4.67,5.85-3.86,2.37.53,4.79,1.25,7.17,1.75.4.09.46,0,.12-.29-1.19-.86-2.37-1.74-3.62-2.52-.35-.22-.32-.27.09-.22,2.14.31,2.69-1.48,3.94-2.21.36-.21.37-.21,0-.13a19.42,19.42,0,0,1-5.42.43c-5.36-.52-7-4.88-6.08-9.91.46-2.62,2.84-11.29,5.56-12.34,1.34-.51,2.88.49,3.48,1.8a8.86,8.86,0,0,1,.41,4.26,8.33,8.33,0,0,0,.48,4.24,13.93,13.93,0,0,0,2.51,2.93,3.9,3.9,0,0,1,1.24,3.49,3.19,3.19,0,0,1-2.6,2,7.58,7.58,0,0,1-2.72-.14c-.4-.07-.55.15-.24.41,2.21,1.85,7.55.1,6.42,4.08-.23.83-.42,1.66-.62,2.52-.09.4.14.59.5.39a3.69,3.69,0,0,0,2.22-3.92c0-.24,8.69,2.37,9.25,2.55a14.94,14.94,0,0,0,2.18.46c.4.07.63-.18.49-.57a2.71,2.71,0,0,0-2.19-2.09,22.58,22.58,0,0,1-3.6-1c-.38-.14-.36-.27,0-.24,2.19.1,6.76.62,6.77-1.65a.69.69,0,0,0-.86-.59,10.45,10.45,0,0,1-2.33.32c-2.92-.06-6.24.45-8.44-1.48s-2.65-6.06-2.47-8.72c.91-13.51,14.48-20.86,18.38-33.46,1.89-6.09.36-11.55-2.82-16.87C759.56,241.11,758.17,239.63,757.57,236.56Z"/><circle class="cls-4" cx="731.59" cy="223.52" r="41.6"/><circle class="cls-5" cx="731.59" cy="223.52" r="29.91"/><line class="cls-5" x1="670.61" y1="223.52" x2="709.35" y2="223.52"/><line class="cls-5" x1="753.82" y1="223.52" x2="792.56" y2="223.52"/><line class="cls-5" x1="731.59" y1="162.54" x2="731.59" y2="201.28"/><line class="cls-5" x1="731.59" y1="245.75" x2="731.59" y2="284.49"/></g><g class="cls-2"><path class="cls-3" d="M757.57,72.65c-.65-3.31-.6-6.77-1.14-10.11-.75-4.53-2.3-9.14-5.61-12.33a11.38,11.38,0,0,0-14.8-1c-.42.3-.54,1-.77,1.59-.07.17-.13.35-.19.54a2,2,0,0,1-.36.71l-.19.15-.1.09a4.6,4.6,0,0,1-.73.47A26.29,26.29,0,0,0,730.05,55a7.9,7.9,0,0,0-1.64,2.18c-.22.35-.35.68-.27.76a1.69,1.69,0,0,0,.88,0,3.33,3.33,0,0,0,.85-.23,7.39,7.39,0,0,1,10.53,6.46c.17,3.22-1.26,6.31-2.9,9.09-1.19,2-2.75,5.38-4.67,6.8-1.65,1.21-3.44,1.08-5.23,2.19-4.07,2.5-7,7.84-9.34,11.79s-4.41,7.9-6.84,11.71c-2.27,3.57-5.35,6.43-7.82,9.69a1.52,1.52,0,0,0-.17,1.28c.11.33.23.73.31,1.07a1.9,1.9,0,0,0,.79,1c2.08,1.39-4.89,6.75-7.08,8.56-.32.26-.23.53.18.58,5.55.57,11.7-1.16,16.6-3.13a8.86,8.86,0,0,0,1.44-.81c.84-.53,1.64-1.1,2.48-1.63s8.68-.62,7.82,1.08c-2.16,4.27.12,8.69.84,13a11.1,11.1,0,0,1-.31,4.53,1.21,1.21,0,0,1-.9.85c-1.5.28-2.86.7-1.8,1.26a6,6,0,0,1,1.8,1.45,3.15,3.15,0,0,1,.53,1.34,27.2,27.2,0,0,0,1.33,4.48c.14.39.43.42.64.07,1.78-3,2.24-4.68,5.85-3.87,2.37.53,4.79,1.25,7.17,1.76.4.08.46,0,.12-.29-1.19-.87-2.37-1.75-3.62-2.53-.35-.21-.32-.27.09-.21,2.14.3,2.69-1.49,3.94-2.22.36-.21.37-.2,0-.13a19.06,19.06,0,0,1-5.42.44c-5.36-.52-7-4.89-6.08-9.92.46-2.62,2.84-11.29,5.56-12.33,1.34-.52,2.88.48,3.48,1.8a8.82,8.82,0,0,1,.41,4.25,8.32,8.32,0,0,0,.48,4.24,13.68,13.68,0,0,0,2.51,2.93,3.93,3.93,0,0,1,1.24,3.5,3.16,3.16,0,0,1-2.6,2,7.57,7.57,0,0,1-2.72-.13c-.4-.08-.55.15-.24.41,2.21,1.84,7.55.1,6.42,4.08-.23.82-.42,1.66-.62,2.51-.09.41.14.59.5.39a3.68,3.68,0,0,0,2.22-3.92c0-.23,8.69,2.37,9.25,2.55a16.35,16.35,0,0,0,2.18.47c.4.07.63-.19.49-.57a2.7,2.7,0,0,0-2.19-2.09,22.62,22.62,0,0,1-3.6-1c-.38-.14-.36-.26,0-.24,2.19.11,6.76.62,6.77-1.64a.7.7,0,0,0-.86-.6,11.09,11.09,0,0,1-2.33.33c-2.92-.07-6.24.45-8.44-1.48s-2.65-6.07-2.47-8.72c.91-13.51,14.48-20.87,18.38-33.47,1.89-6.09.36-11.55-2.82-16.87C759.56,77.19,758.17,75.72,757.57,72.65Z"/><circle class="cls-4" cx="731.59" cy="59.6" r="41.6"/><circle class="cls-5" cx="731.59" cy="59.6" r="29.91"/><line class="cls-5" x1="670.61" y1="59.6" x2="709.35" y2="59.6"/><line class="cls-5" x1="753.82" y1="59.6" x2="792.56" y2="59.6"/><line class="cls-5" x1="731.59" y1="-1.37" x2="731.59" y2="37.36"/><line class="cls-5" x1="731.59" y1="81.84" x2="731.59" y2="120.57"/></g><g class="cls-2"><path class="cls-3" d="M298.47,79.77c-3.18,5.31-4.71,10.77-2.82,16.86,3.9,12.6,17.47,20,18.38,33.47.18,2.65-.31,6.82-2.47,8.72s-5.52,1.41-8.44,1.48a10.45,10.45,0,0,1-2.33-.32.69.69,0,0,0-.86.59c0,2.26,4.58,1.75,6.77,1.64.41,0,.43.11.05.24a23.22,23.22,0,0,1-3.6,1,2.7,2.7,0,0,0-2.19,2.09c-.14.39.09.64.49.57a18.14,18.14,0,0,0,2.18-.46c.56-.18,9.27-2.79,9.25-2.55A3.67,3.67,0,0,0,315.1,147c.36.2.59,0,.5-.38-.2-.86-.39-1.7-.62-2.52-1.13-4,4.21-2.24,6.41-4.08.32-.26.17-.48-.23-.41a7.62,7.62,0,0,1-2.73.13,3.16,3.16,0,0,1-2.59-2,3.9,3.9,0,0,1,1.24-3.49,14.49,14.49,0,0,0,2.51-2.93,8.37,8.37,0,0,0,.48-4.25,8.83,8.83,0,0,1,.41-4.25c.6-1.31,2.14-2.32,3.48-1.8,2.72,1,5.1,9.71,5.56,12.34.87,5-.72,9.39-6.08,9.91a19.42,19.42,0,0,1-5.42-.43c-.41-.08-.4-.09,0,.12,1.25.73,1.8,2.53,3.94,2.22.41-.06.44,0,.09.22-1.25.77-2.43,1.65-3.62,2.52-.34.24-.28.38.12.29,2.38-.5,4.8-1.23,7.17-1.76,3.61-.8,4.07.91,5.84,3.87.22.35.51.32.65-.07a27.2,27.2,0,0,0,1.33-4.48,3.2,3.2,0,0,1,.53-1.34,6,6,0,0,1,1.8-1.45c1.05-.56-.3-1-1.8-1.26a1.2,1.2,0,0,1-.9-.85,11.1,11.1,0,0,1-.31-4.53c.71-4.3,3-8.71.84-13-.86-1.7,6.93-1.65,7.82-1.08s1.64,1.1,2.48,1.64a8.8,8.8,0,0,0,1.44.8c4.9,2,11.05,3.7,16.6,3.13.41,0,.5-.32.18-.58-2.19-1.8-9.16-7.16-7.08-8.56a1.88,1.88,0,0,0,.79-1c.08-.35.2-.75.31-1.08a1.52,1.52,0,0,0-.17-1.28c-2.47-3.26-5.55-6.12-7.82-9.69-2.43-3.81-4.5-7.83-6.84-11.7s-5.27-9.3-9.34-11.8c-1.79-1.1-3.58-1-5.23-2.19-1.92-1.41-3.48-4.77-4.67-6.79-1.64-2.79-3.07-5.87-2.9-9.1a7.39,7.39,0,0,1,10.53-6.46,2.67,2.67,0,0,0,.85.23,1.69,1.69,0,0,0,.88,0c.08-.07-.05-.41-.27-.76a8,8,0,0,0-1.65-2.18A25.6,25.6,0,0,0,326,52.68a5.91,5.91,0,0,1-.74-.46.47.47,0,0,0-.1-.1l-.18-.15a2,2,0,0,1-.36-.7c-.06-.2-.12-.38-.19-.55-.23-.55-.35-1.28-.77-1.59a11.38,11.38,0,0,0-14.8,1c-3.31,3.19-4.86,7.8-5.61,12.33-.54,3.34-.49,6.8-1.14,10.11C301.46,75.61,300.07,77.08,298.47,79.77Z"/><circle class="cls-4" cx="328.04" cy="59.49" r="41.6"/><circle class="cls-5" cx="328.04" cy="59.49" r="29.91"/><line class="cls-5" x1="389.02" y1="59.49" x2="350.28" y2="59.49"/><line class="cls-5" x1="305.81" y1="59.49" x2="267.07" y2="59.49"/><line class="cls-5" x1="328.04" y1="-1.48" x2="328.04" y2="37.26"/><line class="cls-5" x1="328.04" y1="81.73" x2="328.04" y2="120.47"/></g><g class="cls-2"><path class="cls-3" d="M566.77,407.32c-3.17,5.32-4.7,10.78-2.82,16.87,3.91,12.6,17.48,20,18.39,33.47.18,2.65-.31,6.82-2.47,8.72s-5.52,1.41-8.44,1.48a10.91,10.91,0,0,1-2.33-.33.69.69,0,0,0-.86.6c0,2.26,4.57,1.75,6.77,1.64.41,0,.43.1,0,.24a22.8,22.8,0,0,1-3.59,1,2.68,2.68,0,0,0-2.19,2.09c-.15.38.08.64.49.57a16.35,16.35,0,0,0,2.18-.47c.56-.18,9.27-2.78,9.24-2.55a3.71,3.71,0,0,0,2.23,3.92c.36.2.59,0,.49-.39-.2-.85-.38-1.69-.62-2.51-1.12-4,4.22-2.24,6.42-4.08.32-.27.17-.49-.24-.41a7.56,7.56,0,0,1-2.72.13,3.19,3.19,0,0,1-2.59-2,3.87,3.87,0,0,1,1.24-3.5,14,14,0,0,0,2.51-2.93,8.32,8.32,0,0,0,.48-4.24,8.7,8.7,0,0,1,.41-4.25,3,3,0,0,1,3.48-1.8c2.72,1,5.1,9.71,5.55,12.33.88,5-.72,9.4-6.07,9.92a19.15,19.15,0,0,1-5.43-.44c-.4-.07-.39-.08,0,.13,1.25.73,1.81,2.52,4,2.22.41-.06.43,0,.08.21-1.24.78-2.43,1.66-3.62,2.53-.33.24-.27.37.13.29,2.38-.51,4.8-1.23,7.17-1.76,3.6-.81,4.07.9,5.84,3.87.21.35.5.32.64-.07a26.27,26.27,0,0,0,1.33-4.48,3.16,3.16,0,0,1,.54-1.34,5.89,5.89,0,0,1,1.8-1.45c1.05-.56-.3-1-1.8-1.26a1.21,1.21,0,0,1-.9-.85,11.1,11.1,0,0,1-.31-4.53c.71-4.3,3-8.72.84-13-.86-1.7,6.93-1.65,7.82-1.08s1.64,1.1,2.47,1.63a9.39,9.39,0,0,0,1.45.81c4.9,2,11,3.7,16.6,3.13.41-.05.49-.32.18-.58-2.19-1.81-9.16-7.17-7.09-8.56a1.87,1.87,0,0,0,.8-1c.08-.34.2-.74.31-1.07a1.52,1.52,0,0,0-.17-1.28c-2.47-3.26-5.55-6.12-7.83-9.69-2.43-3.81-4.5-7.84-6.83-11.71s-5.28-9.29-9.34-11.79c-1.79-1.11-3.59-1-5.23-2.2-1.92-1.41-3.49-4.76-4.68-6.79-1.63-2.78-3.06-5.87-2.89-9.09a7.38,7.38,0,0,1,10.52-6.46,3.52,3.52,0,0,0,.86.23,1.81,1.81,0,0,0,.88,0c.08-.08,0-.41-.27-.76a7.93,7.93,0,0,0-1.65-2.18,25.6,25.6,0,0,0-3.62-2.19,4.9,4.9,0,0,1-.74-.47l-.1-.09-.18-.15a2,2,0,0,1-.36-.71c-.06-.19-.12-.37-.19-.54-.23-.55-.35-1.29-.77-1.59a11.38,11.38,0,0,0-14.8,1c-3.31,3.19-4.87,7.8-5.61,12.33-.55,3.34-.49,6.8-1.14,10.11C569.77,403.17,568.37,404.64,566.77,407.32Z"/><circle class="cls-4" cx="596.35" cy="387.05" r="41.6"/><circle class="cls-5" cx="596.35" cy="387.05" r="29.91"/><line class="cls-5" x1="657.32" y1="387.05" x2="618.59" y2="387.05"/><line class="cls-5" x1="574.11" y1="387.05" x2="535.38" y2="387.05"/><line class="cls-5" x1="596.35" y1="326.08" x2="596.35" y2="364.81"/><line class="cls-5" x1="596.35" y1="409.29" x2="596.35" y2="448.02"/></g><g class="cls-2"><path class="cls-3" d="M487.33,562.09c-.64-3.31-.59-6.77-1.13-10.1-.75-4.54-2.3-9.15-5.61-12.33a11.38,11.38,0,0,0-14.8-1c-.42.31-.54,1-.77,1.59-.08.18-.13.36-.2.55a1.78,1.78,0,0,1-.35.7l-.19.15a.94.94,0,0,1-.1.1,4.6,4.6,0,0,1-.73.47,26.29,26.29,0,0,0-3.63,2.19,8.13,8.13,0,0,0-1.65,2.18c-.21.35-.34.68-.26.75a1.65,1.65,0,0,0,.88,0,3.44,3.44,0,0,0,.85-.23,7.38,7.38,0,0,1,10.53,6.46c.17,3.22-1.27,6.31-2.9,9.09-1.19,2-2.75,5.38-4.67,6.79-1.65,1.22-3.44,1.09-5.23,2.19-4.07,2.5-7,7.84-9.34,11.8s-4.41,7.9-6.84,11.71c-2.27,3.56-5.36,6.42-7.82,9.68a1.54,1.54,0,0,0-.17,1.29c.11.33.23.73.31,1.07a1.88,1.88,0,0,0,.79,1c2.08,1.4-4.89,6.76-7.08,8.56-.32.27-.23.54.18.58,5.55.58,11.7-1.16,16.6-3.13a8.8,8.8,0,0,0,1.44-.8c.84-.53,1.64-1.11,2.48-1.64s8.67-.62,7.82,1.09c-2.16,4.27.12,8.69.84,13a11.1,11.1,0,0,1-.31,4.53,1.21,1.21,0,0,1-.9.85c-1.5.27-2.86.7-1.8,1.26a6,6,0,0,1,1.8,1.44,3.4,3.4,0,0,1,.53,1.34,27.31,27.31,0,0,0,1.33,4.49c.14.38.43.42.64.06,1.78-3,2.24-4.67,5.85-3.86,2.37.53,4.79,1.25,7.17,1.75.4.09.46,0,.12-.29-1.19-.86-2.37-1.74-3.62-2.52-.35-.22-.32-.27.09-.22,2.14.31,2.69-1.48,3.94-2.21.36-.21.37-.2,0-.13a19.81,19.81,0,0,1-5.42.44c-5.36-.53-6.95-4.89-6.08-9.92.46-2.62,2.84-11.29,5.56-12.34,1.34-.51,2.88.49,3.48,1.8a8.86,8.86,0,0,1,.41,4.26,8.33,8.33,0,0,0,.48,4.24,13.68,13.68,0,0,0,2.51,2.93,3.91,3.91,0,0,1,1.24,3.49,3.19,3.19,0,0,1-2.6,2,7.8,7.8,0,0,1-2.72-.13c-.4-.08-.55.14-.24.41,2.21,1.84,7.54.1,6.42,4.08-.23.82-.42,1.65-.62,2.51-.09.4.14.59.5.39a3.69,3.69,0,0,0,2.22-3.92c0-.23,8.69,2.37,9.25,2.55a14.67,14.67,0,0,0,2.18.46c.4.08.63-.18.49-.57a2.71,2.71,0,0,0-2.19-2.09,22.58,22.58,0,0,1-3.6-1c-.38-.14-.36-.26.05-.24,2.19.11,6.76.62,6.77-1.65a.69.69,0,0,0-.86-.59,10.45,10.45,0,0,1-2.33.32c-2.92-.06-6.24.45-8.44-1.48s-2.65-6.06-2.47-8.71c.91-13.52,14.48-20.87,18.38-33.47,1.89-6.09.36-11.55-2.82-16.87C489.33,566.64,487.94,565.17,487.33,562.09Z"/><circle class="cls-4" cx="461.36" cy="549.05" r="41.6"/><circle class="cls-5" cx="461.36" cy="549.05" r="29.91"/><line class="cls-5" x1="400.38" y1="549.05" x2="439.12" y2="549.05"/><line class="cls-5" x1="483.59" y1="549.05" x2="522.33" y2="549.05"/><line class="cls-5" x1="461.36" y1="488.07" x2="461.36" y2="526.81"/><line class="cls-5" x1="461.36" y1="571.28" x2="461.36" y2="610.02"/></g><g class="cls-2"><path class="cls-3" d="M298.47,569.21c-3.18,5.32-4.71,10.78-2.82,16.87,3.9,12.6,17.47,20,18.38,33.47.18,2.65-.31,6.82-2.47,8.71s-5.52,1.42-8.44,1.49a11.09,11.09,0,0,1-2.33-.33.7.7,0,0,0-.86.6c0,2.26,4.58,1.75,6.77,1.64.41,0,.43.1.05.24a24.39,24.39,0,0,1-3.6,1A2.69,2.69,0,0,0,301,635c-.14.38.09.64.49.57a16.35,16.35,0,0,0,2.18-.47c.56-.18,9.27-2.78,9.25-2.55a3.69,3.69,0,0,0,2.22,3.92c.36.2.59,0,.5-.39-.2-.85-.39-1.69-.62-2.51-1.13-4,4.21-2.24,6.41-4.08.32-.27.17-.49-.23-.41a7.85,7.85,0,0,1-2.73.13,3.19,3.19,0,0,1-2.59-2,3.93,3.93,0,0,1,1.24-3.5,14,14,0,0,0,2.51-2.93,8.32,8.32,0,0,0,.48-4.24,8.82,8.82,0,0,1,.41-4.25c.6-1.32,2.14-2.32,3.48-1.8,2.72,1,5.1,9.71,5.56,12.33.87,5-.72,9.4-6.08,9.92a19.42,19.42,0,0,1-5.42-.44c-.41-.07-.4-.08,0,.13,1.25.73,1.8,2.52,3.94,2.22.41-.06.44,0,.09.21-1.25.78-2.43,1.66-3.62,2.53-.34.24-.28.37.12.29,2.38-.51,4.8-1.23,7.17-1.76,3.61-.81,4.07.9,5.84,3.86.22.36.51.32.65-.06a27.2,27.2,0,0,0,1.33-4.48,3.15,3.15,0,0,1,.53-1.34,5.89,5.89,0,0,1,1.8-1.45c1.05-.56-.3-1-1.8-1.26a1.21,1.21,0,0,1-.9-.85,11.1,11.1,0,0,1-.31-4.53c.71-4.3,3-8.72.84-13-.86-1.7,6.93-1.65,7.82-1.08s1.64,1.1,2.48,1.63a8.86,8.86,0,0,0,1.44.81c4.9,2,11.05,3.7,16.6,3.12.41,0,.5-.31.18-.57-2.19-1.81-9.16-7.17-7.08-8.56a1.9,1.9,0,0,0,.79-1c.08-.34.2-.74.31-1.07a1.51,1.51,0,0,0-.17-1.28c-2.47-3.26-5.55-6.13-7.82-9.69-2.43-3.81-4.5-7.84-6.84-11.71s-5.27-9.29-9.34-11.79c-1.79-1.11-3.58-1-5.23-2.2-1.92-1.41-3.48-4.76-4.67-6.79-1.64-2.78-3.07-5.87-2.9-9.09A7.39,7.39,0,0,1,329.76,547a3.33,3.33,0,0,0,.85.23,1.81,1.81,0,0,0,.88,0c.08-.08-.05-.41-.27-.76a7.74,7.74,0,0,0-1.65-2.18,25.6,25.6,0,0,0-3.62-2.19,5.54,5.54,0,0,1-.74-.47l-.1-.09-.18-.15a2.07,2.07,0,0,1-.36-.71c-.06-.19-.12-.37-.19-.54-.23-.55-.35-1.29-.77-1.6a11.4,11.4,0,0,0-14.8,1c-3.31,3.19-4.86,7.8-5.61,12.33-.54,3.34-.49,6.8-1.14,10.1C301.46,565.06,300.07,566.53,298.47,569.21Z"/><circle class="cls-4" cx="328.04" cy="548.94" r="41.6"/><circle class="cls-5" cx="328.04" cy="548.94" r="29.91"/><line class="cls-5" x1="389.02" y1="548.94" x2="350.28" y2="548.94"/><line class="cls-5" x1="305.81" y1="548.94" x2="267.07" y2="548.94"/><line class="cls-5" x1="328.04" y1="487.97" x2="328.04" y2="526.7"/><line class="cls-5" x1="328.04" y1="571.17" x2="328.04" y2="609.91"/></g><g class="cls-2"><path class="cls-3" d="M218.48,562c-.65-3.31-.59-6.77-1.14-10.11-.75-4.53-2.3-9.14-5.61-12.33a11.4,11.4,0,0,0-14.8-1c-.42.31-.54,1-.77,1.59-.07.17-.13.35-.19.55a2,2,0,0,1-.36.7l-.18.15-.1.1a5.93,5.93,0,0,1-.74.47,24.65,24.65,0,0,0-3.62,2.18,8,8,0,0,0-1.65,2.18c-.22.35-.35.69-.27.76a1.69,1.69,0,0,0,.88,0,3.11,3.11,0,0,0,.86-.22,7.37,7.37,0,0,1,10.52,6.45c.17,3.23-1.26,6.31-2.9,9.1-1.18,2-2.75,5.38-4.67,6.79-1.65,1.21-3.44,1.09-5.23,2.19-4.06,2.5-6.95,7.84-9.34,11.8s-4.4,7.89-6.83,11.7c-2.28,3.57-5.36,6.43-7.83,9.69a1.53,1.53,0,0,0-.17,1.29c.11.33.23.72.31,1.07a1.88,1.88,0,0,0,.79,1c2.08,1.4-4.89,6.76-7.08,8.56-.31.26-.23.54.18.58,5.55.57,11.7-1.16,16.6-3.13a8.8,8.8,0,0,0,1.44-.8c.84-.53,1.65-1.11,2.48-1.64s8.68-.62,7.82,1.09c-2.15,4.27.13,8.68.84,13a11.09,11.09,0,0,1-.31,4.53,1.2,1.2,0,0,1-.9.85c-1.5.28-2.85.7-1.8,1.26a6,6,0,0,1,1.8,1.45,3.27,3.27,0,0,1,.54,1.34,27.17,27.17,0,0,0,1.32,4.48c.15.39.44.42.65.07,1.77-3,2.23-4.67,5.84-3.87,2.37.53,4.79,1.26,7.17,1.76.4.09.46,0,.13-.29-1.19-.86-2.38-1.74-3.63-2.52-.35-.22-.32-.28.09-.22,2.14.31,2.69-1.48,3.95-2.22.35-.2.36-.2,0-.12a19.52,19.52,0,0,1-5.43.43c-5.36-.52-6.95-4.88-6.07-9.91.45-2.63,2.83-11.3,5.55-12.34,1.34-.52,2.89.49,3.48,1.8a8.71,8.71,0,0,1,.41,4.25,8.35,8.35,0,0,0,.48,4.25,14.49,14.49,0,0,0,2.51,2.93,3.87,3.87,0,0,1,1.24,3.49,3.16,3.16,0,0,1-2.59,2,7.56,7.56,0,0,1-2.72-.13c-.41-.07-.56.15-.24.41,2.2,1.84,7.54.1,6.41,4.08-.23.83-.41,1.66-.61,2.52-.1.4.13.59.49.38a3.69,3.69,0,0,0,2.23-3.91c0-.24,8.68,2.37,9.24,2.55a18.14,18.14,0,0,0,2.18.46c.4.07.64-.18.49-.57a2.69,2.69,0,0,0-2.19-2.09,22.8,22.8,0,0,1-3.59-1c-.39-.13-.37-.26,0-.24,2.19.11,6.76.62,6.77-1.64a.69.69,0,0,0-.86-.59,10.29,10.29,0,0,1-2.33.32c-2.92-.06-6.23.45-8.44-1.48s-2.65-6.07-2.47-8.72c.91-13.51,14.48-20.87,18.38-33.47,1.89-6.09.36-11.55-2.81-16.86C220.48,566.53,219.08,565.06,218.48,562Z"/><circle class="cls-4" cx="192.5" cy="548.94" r="41.6"/><circle class="cls-5" cx="192.5" cy="548.94" r="29.91"/><line class="cls-5" x1="131.52" y1="548.94" x2="170.26" y2="548.94"/><line class="cls-5" x1="214.73" y1="548.94" x2="253.47" y2="548.94"/><line class="cls-5" x1="192.5" y1="487.97" x2="192.5" y2="526.71"/><line class="cls-5" x1="192.5" y1="571.18" x2="192.5" y2="609.92"/></g><g class="cls-2"><path class="cls-3" d="M29.61,569.11c-3.17,5.32-4.71,10.78-2.82,16.87,3.91,12.6,17.47,19.95,18.38,33.46.18,2.66-.31,6.83-2.47,8.72s-5.52,1.42-8.43,1.48a10.46,10.46,0,0,1-2.34-.32.69.69,0,0,0-.86.59c0,2.27,4.58,1.76,6.77,1.65.42,0,.44.1,0,.24a22.58,22.58,0,0,1-3.6,1,2.71,2.71,0,0,0-2.19,2.09c-.14.39.09.64.5.57a14.8,14.8,0,0,0,2.17-.46c.56-.18,9.28-2.78,9.25-2.55a3.7,3.7,0,0,0,2.23,3.92c.35.2.58,0,.49-.39-.2-.86-.39-1.69-.62-2.51-1.12-4,4.21-2.24,6.42-4.09.31-.26.16-.48-.24-.41a7.58,7.58,0,0,1-2.72.14,3.19,3.19,0,0,1-2.6-2.05,3.9,3.9,0,0,1,1.24-3.49,13.93,13.93,0,0,0,2.51-2.93,8.22,8.22,0,0,0,.48-4.24,9,9,0,0,1,.41-4.26,3,3,0,0,1,3.49-1.8c2.71,1,5.09,9.72,5.55,12.34.88,5-.72,9.39-6.07,9.91a19.46,19.46,0,0,1-5.43-.43c-.41-.07-.4-.08,0,.13,1.25.73,1.8,2.52,3.94,2.21.41,0,.44,0,.09.22-1.25.78-2.43,1.66-3.62,2.52-.33.25-.28.38.12.29,2.38-.5,4.8-1.22,7.18-1.75,3.6-.81,4.06.9,5.84,3.86.21.35.5.32.64-.06a26.37,26.37,0,0,0,1.33-4.49,3.4,3.4,0,0,1,.53-1.34A6,6,0,0,1,67,632.3c1.06-.56-.3-1-1.8-1.27a1.2,1.2,0,0,1-.9-.85,11,11,0,0,1-.31-4.52c.72-4.3,3-8.72.85-13C64,611,71.74,611,72.62,611.58s1.65,1.11,2.48,1.64a9.24,9.24,0,0,0,1.44.8c4.9,2,11,3.71,16.61,3.13.4,0,.49-.32.17-.58-2.19-1.8-9.16-7.16-7.08-8.56a1.88,1.88,0,0,0,.79-1c.08-.34.2-.74.31-1.07a1.54,1.54,0,0,0-.17-1.29c-2.46-3.26-5.55-6.12-7.82-9.68-2.43-3.81-4.5-7.84-6.84-11.71s-5.27-9.3-9.34-11.8c-1.79-1.1-3.58-1-5.23-2.19-1.92-1.41-3.48-4.76-4.67-6.79-1.63-2.78-3.06-5.87-2.89-9.1a7.37,7.37,0,0,1,10.52-6.45,3.4,3.4,0,0,0,.86.23,1.61,1.61,0,0,0,.87,0c.08-.07-.05-.4-.26-.75a8.13,8.13,0,0,0-1.65-2.18A24.46,24.46,0,0,0,57.09,542a5.51,5.51,0,0,1-.73-.47l-.1-.1-.19-.15a1.86,1.86,0,0,1-.35-.7,5.14,5.14,0,0,0-.2-.55c-.22-.55-.34-1.28-.77-1.59a11.39,11.39,0,0,0-14.8,1c-3.31,3.18-4.86,7.79-5.6,12.33-.55,3.33-.49,6.79-1.14,10.1C32.61,565,31.21,566.43,29.61,569.11Z"/><circle class="cls-4" cx="59.19" cy="548.84" r="41.6"/><circle class="cls-5" cx="59.18" cy="548.84" r="29.91"/><line class="cls-5" x1="120.16" y1="548.84" x2="81.42" y2="548.84"/><line class="cls-5" x1="36.95" y1="548.84" x2="-1.79" y2="548.84"/><line class="cls-5" x1="59.19" y1="487.86" x2="59.19" y2="526.6"/><line class="cls-5" x1="59.19" y1="571.07" x2="59.19" y2="609.81"/></g><g class="cls-2"><path class="cls-3" d="M757.57,562.09c-.65-3.31-.6-6.77-1.14-10.1-.75-4.54-2.3-9.15-5.61-12.33a11.38,11.38,0,0,0-14.8-1c-.42.31-.54,1-.77,1.59-.07.18-.13.36-.19.55a1.91,1.91,0,0,1-.36.7l-.19.15a.94.94,0,0,1-.1.1,4.6,4.6,0,0,1-.73.47,26.29,26.29,0,0,0-3.63,2.19,7.9,7.9,0,0,0-1.64,2.18c-.22.35-.35.68-.27.75a1.65,1.65,0,0,0,.88,0,3.33,3.33,0,0,0,.85-.23,7.38,7.38,0,0,1,10.53,6.46c.17,3.22-1.26,6.31-2.9,9.09-1.19,2-2.75,5.38-4.67,6.79-1.65,1.22-3.44,1.09-5.23,2.19-4.07,2.5-7,7.84-9.34,11.8s-4.41,7.9-6.84,11.71c-2.27,3.56-5.35,6.42-7.82,9.68a1.54,1.54,0,0,0-.17,1.29c.11.33.23.73.31,1.07a1.88,1.88,0,0,0,.79,1c2.08,1.4-4.89,6.76-7.08,8.56-.32.27-.23.54.18.58,5.55.58,11.7-1.16,16.6-3.13a8.8,8.8,0,0,0,1.44-.8c.84-.53,1.64-1.11,2.48-1.64s8.68-.62,7.82,1.09c-2.16,4.27.12,8.69.84,13a11.1,11.1,0,0,1-.31,4.53,1.21,1.21,0,0,1-.9.85c-1.5.27-2.86.7-1.8,1.26a6,6,0,0,1,1.8,1.44,3.25,3.25,0,0,1,.53,1.34,27.31,27.31,0,0,0,1.33,4.49c.14.38.43.42.64.06,1.78-3,2.24-4.67,5.85-3.86,2.37.53,4.79,1.25,7.17,1.75.4.09.46,0,.12-.29-1.19-.86-2.37-1.74-3.62-2.52-.35-.22-.32-.27.09-.22,2.14.31,2.69-1.48,3.94-2.21.36-.21.37-.2,0-.13a19.81,19.81,0,0,1-5.42.44c-5.36-.53-7-4.89-6.08-9.92.46-2.62,2.84-11.29,5.56-12.34,1.34-.51,2.88.49,3.48,1.8a8.86,8.86,0,0,1,.41,4.26,8.33,8.33,0,0,0,.48,4.24,13.68,13.68,0,0,0,2.51,2.93,3.91,3.91,0,0,1,1.24,3.49,3.19,3.19,0,0,1-2.6,2,7.8,7.8,0,0,1-2.72-.13c-.4-.08-.55.14-.24.41,2.21,1.84,7.55.1,6.42,4.08-.23.82-.42,1.65-.62,2.51-.09.4.14.59.5.39a3.69,3.69,0,0,0,2.22-3.92c0-.23,8.69,2.37,9.25,2.55a14.94,14.94,0,0,0,2.18.46c.4.08.63-.18.49-.57a2.71,2.71,0,0,0-2.19-2.09,22.58,22.58,0,0,1-3.6-1c-.38-.14-.36-.26,0-.24,2.19.11,6.76.62,6.77-1.65a.69.69,0,0,0-.86-.59,10.45,10.45,0,0,1-2.33.32c-2.92-.06-6.24.45-8.44-1.48s-2.65-6.06-2.47-8.71c.91-13.52,14.48-20.87,18.38-33.47,1.89-6.09.36-11.55-2.82-16.87C759.56,566.64,758.17,565.17,757.57,562.09Z"/><circle class="cls-4" cx="731.59" cy="549.05" r="41.6"/><circle class="cls-5" cx="731.59" cy="549.05" r="29.91"/><line class="cls-5" x1="670.61" y1="549.05" x2="709.35" y2="549.05"/><line class="cls-5" x1="753.82" y1="549.05" x2="792.56" y2="549.05"/><line class="cls-5" x1="731.59" y1="488.07" x2="731.59" y2="526.81"/><line class="cls-5" x1="731.59" y1="571.28" x2="731.59" y2="610.02"/></g><g class="cls-2"><path class="cls-3" d="M566.77,569.21c-3.17,5.32-4.7,10.78-2.82,16.87,3.91,12.6,17.48,20,18.39,33.47.18,2.65-.31,6.82-2.47,8.71s-5.52,1.42-8.44,1.49a10.91,10.91,0,0,1-2.33-.33.69.69,0,0,0-.86.6c0,2.26,4.57,1.75,6.77,1.64.41,0,.43.1,0,.24a23.93,23.93,0,0,1-3.59,1,2.68,2.68,0,0,0-2.19,2.09c-.15.38.08.64.49.57a16.35,16.35,0,0,0,2.18-.47c.56-.18,9.27-2.78,9.24-2.55a3.71,3.71,0,0,0,2.23,3.92c.36.2.59,0,.49-.39-.2-.85-.38-1.69-.62-2.51-1.12-4,4.22-2.24,6.42-4.08.32-.27.17-.49-.24-.41a7.79,7.79,0,0,1-2.72.13,3.19,3.19,0,0,1-2.59-2,3.87,3.87,0,0,1,1.24-3.5,14,14,0,0,0,2.51-2.93,8.32,8.32,0,0,0,.48-4.24,8.7,8.7,0,0,1,.41-4.25,3,3,0,0,1,3.48-1.8c2.72,1,5.1,9.71,5.55,12.33.88,5-.72,9.4-6.07,9.92a19.53,19.53,0,0,1-5.43-.44c-.4-.07-.39-.08,0,.13,1.25.73,1.81,2.52,4,2.22.41-.06.43,0,.08.21-1.24.78-2.43,1.66-3.62,2.53-.33.24-.27.37.13.29,2.38-.51,4.8-1.23,7.17-1.76,3.6-.81,4.07.9,5.84,3.86.21.36.5.32.64-.06a26.27,26.27,0,0,0,1.33-4.48,3.16,3.16,0,0,1,.54-1.34,5.89,5.89,0,0,1,1.8-1.45c1.05-.56-.3-1-1.8-1.26a1.21,1.21,0,0,1-.9-.85,11.1,11.1,0,0,1-.31-4.53c.71-4.3,3-8.72.84-13-.86-1.7,6.93-1.65,7.82-1.08s1.64,1.1,2.47,1.63a9.39,9.39,0,0,0,1.45.81c4.9,2,11,3.7,16.6,3.12.41,0,.49-.31.18-.57-2.19-1.81-9.16-7.17-7.09-8.56a1.87,1.87,0,0,0,.8-1c.08-.34.2-.74.31-1.07a1.51,1.51,0,0,0-.17-1.28c-2.47-3.26-5.55-6.13-7.83-9.69-2.43-3.81-4.5-7.84-6.83-11.71s-5.28-9.29-9.34-11.79c-1.79-1.11-3.59-1-5.23-2.2-1.92-1.41-3.49-4.76-4.68-6.79-1.63-2.78-3.06-5.87-2.89-9.09A7.38,7.38,0,0,1,598.06,547a3.52,3.52,0,0,0,.86.23,1.81,1.81,0,0,0,.88,0c.08-.08,0-.41-.27-.76a7.93,7.93,0,0,0-1.65-2.18,25.6,25.6,0,0,0-3.62-2.19,4.9,4.9,0,0,1-.74-.47l-.1-.09-.18-.15a2.07,2.07,0,0,1-.36-.71c-.06-.19-.12-.37-.19-.54-.23-.55-.35-1.29-.77-1.6a11.4,11.4,0,0,0-14.8,1c-3.31,3.19-4.87,7.8-5.61,12.33-.55,3.34-.49,6.8-1.14,10.1C569.77,565.06,568.37,566.53,566.77,569.21Z"/><circle class="cls-4" cx="596.35" cy="548.94" r="41.6"/><circle class="cls-5" cx="596.35" cy="548.94" r="29.91"/><line class="cls-5" x1="657.32" y1="548.94" x2="618.59" y2="548.94"/><line class="cls-5" x1="574.11" y1="548.94" x2="535.38" y2="548.94"/><line class="cls-5" x1="596.35" y1="487.97" x2="596.35" y2="526.7"/><line class="cls-5" x1="596.35" y1="571.17" x2="596.35" y2="609.91"/></g><g class="cls-2"><path class="cls-3" d="M566.77,243.68c-3.17,5.32-4.7,10.78-2.82,16.87,3.91,12.6,17.48,20,18.39,33.47.18,2.65-.31,6.82-2.47,8.71s-5.52,1.42-8.44,1.49a10.91,10.91,0,0,1-2.33-.33.69.69,0,0,0-.86.6c0,2.26,4.57,1.75,6.77,1.64.41,0,.43.1,0,.24a23.93,23.93,0,0,1-3.59,1,2.68,2.68,0,0,0-2.19,2.09c-.15.38.08.64.49.57a16.35,16.35,0,0,0,2.18-.47c.56-.18,9.27-2.78,9.24-2.55a3.71,3.71,0,0,0,2.23,3.92c.36.2.59,0,.49-.39-.2-.85-.38-1.69-.62-2.51-1.12-4,4.22-2.24,6.42-4.08.32-.27.17-.49-.24-.41a7.79,7.79,0,0,1-2.72.13,3.19,3.19,0,0,1-2.59-2,3.87,3.87,0,0,1,1.24-3.5,14,14,0,0,0,2.51-2.93,8.32,8.32,0,0,0,.48-4.24,8.74,8.74,0,0,1,.41-4.26,3,3,0,0,1,3.48-1.79c2.72,1,5.1,9.71,5.55,12.33.88,5-.72,9.4-6.07,9.92a19.91,19.91,0,0,1-5.43-.44c-.4-.07-.39-.08,0,.13,1.25.73,1.81,2.52,4,2.22.41-.06.43,0,.08.21-1.24.78-2.43,1.66-3.62,2.53-.33.24-.27.37.13.28,2.38-.5,4.8-1.22,7.17-1.75,3.6-.81,4.07.9,5.84,3.86.21.36.5.32.64-.06a26.27,26.27,0,0,0,1.33-4.48,3.26,3.26,0,0,1,.54-1.35,6,6,0,0,1,1.8-1.44c1.05-.56-.3-1-1.8-1.26a1.21,1.21,0,0,1-.9-.85,11.1,11.1,0,0,1-.31-4.53c.71-4.3,3-8.72.84-13-.86-1.7,6.93-1.65,7.82-1.09s1.64,1.11,2.47,1.64a8.57,8.57,0,0,0,1.45.8c4.9,2,11,3.71,16.6,3.13.41,0,.49-.31.18-.57-2.19-1.81-9.16-7.17-7.09-8.57a1.85,1.85,0,0,0,.8-1c.08-.34.2-.74.31-1.07a1.51,1.51,0,0,0-.17-1.28c-2.47-3.27-5.55-6.13-7.83-9.69-2.43-3.81-4.5-7.84-6.83-11.71s-5.28-9.29-9.34-11.79c-1.79-1.11-3.59-1-5.23-2.2-1.92-1.41-3.49-4.76-4.68-6.79-1.63-2.78-3.06-5.87-2.89-9.09a7.38,7.38,0,0,1,10.52-6.46,3.52,3.52,0,0,0,.86.23,1.65,1.65,0,0,0,.88,0c.08-.07,0-.4-.27-.75a7.93,7.93,0,0,0-1.65-2.18,25.6,25.6,0,0,0-3.62-2.19,4.9,4.9,0,0,1-.74-.47.43.43,0,0,0-.1-.09l-.18-.15a2.07,2.07,0,0,1-.36-.71c-.06-.19-.12-.37-.19-.54-.23-.56-.35-1.29-.77-1.6a11.38,11.38,0,0,0-14.8,1c-3.31,3.19-4.87,7.79-5.61,12.33-.55,3.33-.49,6.79-1.14,10.1C569.77,239.53,568.37,241,566.77,243.68Z"/><circle class="cls-4" cx="596.35" cy="223.41" r="41.6"/><circle class="cls-5" cx="596.35" cy="223.41" r="29.91"/><line class="cls-5" x1="657.32" y1="223.41" x2="618.59" y2="223.41"/><line class="cls-5" x1="574.11" y1="223.41" x2="535.38" y2="223.41"/><line class="cls-5" x1="596.35" y1="162.43" x2="596.35" y2="201.17"/><line class="cls-5" x1="596.35" y1="245.64" x2="596.35" y2="284.38"/></g><g class="cls-2"><path class="cls-3" d="M566.77,79.77c-3.17,5.31-4.7,10.77-2.82,16.86,3.91,12.6,17.48,20,18.39,33.47.18,2.65-.31,6.82-2.47,8.72s-5.52,1.41-8.44,1.48a10.29,10.29,0,0,1-2.33-.32.68.68,0,0,0-.86.59c0,2.26,4.57,1.75,6.77,1.64.41,0,.43.11,0,.24a22.8,22.8,0,0,1-3.59,1,2.69,2.69,0,0,0-2.19,2.09c-.15.39.08.64.49.57a18.14,18.14,0,0,0,2.18-.46c.56-.18,9.27-2.79,9.24-2.55a3.69,3.69,0,0,0,2.23,3.91c.36.2.59,0,.49-.38-.2-.86-.38-1.7-.62-2.52-1.12-4,4.22-2.24,6.42-4.08.32-.26.17-.48-.24-.41a7.56,7.56,0,0,1-2.72.13,3.16,3.16,0,0,1-2.59-2,3.85,3.85,0,0,1,1.24-3.49,14.49,14.49,0,0,0,2.51-2.93,8.37,8.37,0,0,0,.48-4.25,8.71,8.71,0,0,1,.41-4.25c.59-1.31,2.13-2.32,3.48-1.8,2.72,1,5.1,9.71,5.55,12.34.88,5-.72,9.39-6.07,9.91a19.52,19.52,0,0,1-5.43-.43c-.4-.08-.39-.09,0,.12,1.25.73,1.81,2.53,4,2.22.41-.06.43,0,.08.22-1.24.77-2.43,1.65-3.62,2.52-.33.24-.27.38.13.29,2.38-.5,4.8-1.23,7.17-1.76,3.6-.8,4.07.91,5.84,3.87.21.35.5.32.64-.07a26.27,26.27,0,0,0,1.33-4.48,3.22,3.22,0,0,1,.54-1.34,6,6,0,0,1,1.8-1.45c1.05-.56-.3-1-1.8-1.26a1.2,1.2,0,0,1-.9-.85,11.1,11.1,0,0,1-.31-4.53c.71-4.3,3-8.71.84-13-.86-1.7,6.93-1.65,7.82-1.08s1.64,1.1,2.47,1.64a9.33,9.33,0,0,0,1.45.8c4.9,2,11,3.7,16.6,3.13.41,0,.49-.32.18-.58-2.19-1.8-9.16-7.16-7.09-8.56a1.85,1.85,0,0,0,.8-1c.08-.35.2-.75.31-1.08a1.52,1.52,0,0,0-.17-1.28c-2.47-3.26-5.55-6.12-7.83-9.69-2.43-3.81-4.5-7.83-6.83-11.7s-5.28-9.3-9.34-11.8c-1.79-1.1-3.59-1-5.23-2.19-1.92-1.41-3.49-4.77-4.68-6.79-1.63-2.79-3.06-5.87-2.89-9.1a7.38,7.38,0,0,1,10.52-6.46,2.81,2.81,0,0,0,.86.23,1.69,1.69,0,0,0,.88,0c.08-.07,0-.41-.27-.76a8.24,8.24,0,0,0-1.65-2.18,25.6,25.6,0,0,0-3.62-2.19,5.19,5.19,0,0,1-.74-.46.47.47,0,0,0-.1-.1l-.18-.15a2,2,0,0,1-.36-.7c-.06-.2-.12-.38-.19-.55-.23-.55-.35-1.28-.77-1.59a11.38,11.38,0,0,0-14.8,1c-3.31,3.19-4.87,7.8-5.61,12.33-.55,3.34-.49,6.8-1.14,10.11C569.77,75.61,568.37,77.08,566.77,79.77Z"/><circle class="cls-4" cx="596.35" cy="59.49" r="41.6"/><circle class="cls-5" cx="596.35" cy="59.49" r="29.91"/><line class="cls-5" x1="657.32" y1="59.49" x2="618.59" y2="59.49"/><line class="cls-5" x1="574.11" y1="59.49" x2="535.38" y2="59.49"/><line class="cls-5" x1="596.35" y1="-1.48" x2="596.35" y2="37.26"/><line class="cls-5" x1="596.35" y1="81.73" x2="596.35" y2="120.47"/></g><g class="cls-2"><path class="cls-3" d="M218.48,72.54c-.65-3.31-.59-6.77-1.14-10.1-.75-4.54-2.3-9.15-5.61-12.33a11.38,11.38,0,0,0-14.8-1c-.42.31-.54,1-.77,1.59-.07.18-.13.36-.19.55a2.07,2.07,0,0,1-.36.71l-.18.15a.43.43,0,0,0-.1.09,4.9,4.9,0,0,1-.74.47A25.6,25.6,0,0,0,191,54.88a7.74,7.74,0,0,0-1.65,2.18c-.22.35-.35.68-.27.75a1.65,1.65,0,0,0,.88,0,3.52,3.52,0,0,0,.86-.23,7.38,7.38,0,0,1,10.52,6.46c.17,3.22-1.26,6.31-2.9,9.09-1.18,2-2.75,5.38-4.67,6.79-1.65,1.22-3.44,1.09-5.23,2.19-4.06,2.51-6.95,7.85-9.34,11.8s-4.4,7.9-6.83,11.71c-2.28,3.56-5.36,6.42-7.83,9.69a1.51,1.51,0,0,0-.17,1.28c.11.33.23.73.31,1.07a1.88,1.88,0,0,0,.79,1c2.08,1.4-4.89,6.76-7.08,8.56-.31.27-.23.54.18.58,5.55.58,11.7-1.16,16.6-3.13a8.12,8.12,0,0,0,1.44-.8c.84-.53,1.65-1.11,2.48-1.64s8.68-.61,7.82,1.09c-2.15,4.27.13,8.69.84,13a11.1,11.1,0,0,1-.31,4.53,1.21,1.21,0,0,1-.9.85c-1.5.27-2.85.7-1.8,1.26a6,6,0,0,1,1.8,1.44,3.26,3.26,0,0,1,.54,1.35,27.17,27.17,0,0,0,1.32,4.48c.15.38.44.42.65.06,1.77-3,2.23-4.67,5.84-3.86,2.37.53,4.79,1.25,7.17,1.75.4.09.46,0,.13-.28-1.19-.87-2.38-1.75-3.63-2.53-.35-.22-.32-.27.09-.22,2.14.31,2.69-1.48,3.95-2.21.35-.21.36-.2,0-.13a19.91,19.91,0,0,1-5.43.44c-5.36-.52-6.95-4.89-6.07-9.92.45-2.62,2.83-11.29,5.55-12.34a3,3,0,0,1,3.48,1.8,8.74,8.74,0,0,1,.41,4.26,8.32,8.32,0,0,0,.48,4.24,14,14,0,0,0,2.51,2.93,3.89,3.89,0,0,1,1.24,3.5,3.19,3.19,0,0,1-2.59,2,7.79,7.79,0,0,1-2.72-.13c-.41-.08-.56.14-.24.41,2.2,1.84,7.54.1,6.41,4.08-.23.82-.41,1.66-.61,2.51-.1.4.13.59.49.39a3.71,3.71,0,0,0,2.23-3.92c0-.23,8.68,2.37,9.24,2.55a16.35,16.35,0,0,0,2.18.47c.4.07.64-.19.49-.57a2.69,2.69,0,0,0-2.19-2.1,22.76,22.76,0,0,1-3.59-1c-.39-.14-.37-.26,0-.24,2.19.11,6.76.62,6.77-1.64a.69.69,0,0,0-.86-.6,10.29,10.29,0,0,1-2.33.32c-2.92-.06-6.23.46-8.44-1.48s-2.65-6.06-2.47-8.71c.91-13.52,14.48-20.87,18.38-33.47,1.89-6.09.36-11.55-2.81-16.87C220.48,77.09,219.08,75.62,218.48,72.54Z"/><circle class="cls-4" cx="192.5" cy="59.5" r="41.6"/><circle class="cls-5" cx="192.5" cy="59.5" r="29.91"/><line class="cls-5" x1="131.52" y1="59.5" x2="170.26" y2="59.5"/><line class="cls-5" x1="214.73" y1="59.5" x2="253.47" y2="59.5"/><line class="cls-5" x1="192.5" y1="-1.48" x2="192.5" y2="37.26"/><line class="cls-5" x1="192.5" y1="81.73" x2="192.5" y2="120.47"/></g><g class="cls-2"><path class="cls-3" d="M29.61,79.66C26.44,85,24.9,90.44,26.79,96.53c3.91,12.6,17.47,20,18.38,33.47.18,2.65-.31,6.82-2.47,8.72s-5.52,1.41-8.43,1.48a11.09,11.09,0,0,1-2.34-.33.7.7,0,0,0-.86.6c0,2.26,4.58,1.75,6.77,1.64.42,0,.44.1,0,.24a22.62,22.62,0,0,1-3.6,1,2.7,2.7,0,0,0-2.19,2.09c-.14.38.09.64.5.57a16.2,16.2,0,0,0,2.17-.47c.56-.18,9.28-2.78,9.25-2.55a3.7,3.7,0,0,0,2.23,3.92c.35.2.58,0,.49-.39-.2-.85-.39-1.69-.62-2.51-1.12-4,4.21-2.24,6.42-4.08.31-.27.16-.49-.24-.41a7.57,7.57,0,0,1-2.72.13,3.19,3.19,0,0,1-2.6-2,3.93,3.93,0,0,1,1.24-3.5,13.68,13.68,0,0,0,2.51-2.93,8.21,8.21,0,0,0,.48-4.24,8.94,8.94,0,0,1,.41-4.25c.6-1.32,2.14-2.32,3.49-1.8,2.71,1,5.09,9.71,5.55,12.33.88,5-.72,9.4-6.07,9.92a19.1,19.1,0,0,1-5.43-.44c-.41-.07-.4-.08,0,.13,1.25.73,1.8,2.52,3.94,2.22.41-.06.44,0,.09.21-1.25.78-2.43,1.66-3.62,2.53-.33.24-.28.37.12.29,2.38-.51,4.8-1.23,7.18-1.76,3.6-.81,4.06.9,5.84,3.87.21.35.5.32.64-.07a26.27,26.27,0,0,0,1.33-4.48,3.28,3.28,0,0,1,.53-1.34,5.89,5.89,0,0,1,1.8-1.45c1.06-.56-.3-1-1.8-1.26a1.23,1.23,0,0,1-.9-.85,11.1,11.1,0,0,1-.31-4.53c.72-4.3,3-8.72.85-13-.86-1.7,6.93-1.65,7.81-1.08s1.65,1.1,2.48,1.63a9.3,9.3,0,0,0,1.44.81c4.9,2,11,3.7,16.61,3.13.4,0,.49-.32.17-.58-2.19-1.81-9.16-7.17-7.08-8.56a1.9,1.9,0,0,0,.79-1c.08-.34.2-.74.31-1.07a1.52,1.52,0,0,0-.17-1.28c-2.46-3.26-5.55-6.12-7.82-9.69-2.43-3.81-4.5-7.84-6.84-11.71S67.24,84.53,63.17,82c-1.79-1.11-3.58-1-5.23-2.2C56,78.42,54.46,75.07,53.27,73c-1.63-2.78-3.06-5.87-2.89-9.09A7.38,7.38,0,0,1,60.9,57.49a3.4,3.4,0,0,0,.86.23,1.76,1.76,0,0,0,.87,0c.08-.08-.05-.41-.26-.76a8.13,8.13,0,0,0-1.65-2.18,26.29,26.29,0,0,0-3.63-2.19,4.6,4.6,0,0,1-.73-.47l-.1-.09-.19-.15a1.84,1.84,0,0,1-.35-.71,4.3,4.3,0,0,0-.2-.54c-.22-.55-.34-1.29-.77-1.59A11.38,11.38,0,0,0,40,50c-3.31,3.19-4.86,7.8-5.6,12.33-.55,3.34-.49,6.8-1.14,10.11C32.61,75.51,31.21,77,29.61,79.66Z"/><circle class="cls-4" cx="59.19" cy="59.39" r="41.6"/><circle class="cls-5" cx="59.18" cy="59.39" r="29.91"/><line class="cls-5" x1="120.16" y1="59.39" x2="81.42" y2="59.39"/><line class="cls-5" x1="36.95" y1="59.39" x2="-1.79" y2="59.39"/><line class="cls-5" x1="59.19" y1="-1.58" x2="59.19" y2="37.15"/><line class="cls-5" x1="59.19" y1="81.63" x2="59.19" y2="120.36"/></g></g></svg>