<svg xmlns="http://www.w3.org/2000/svg" viewBox="0 0 792 612"><defs><style>.cls-1{fill:#ffdc4d;}.cls-2{opacity:0.45;}.cls-3{opacity:0.25;}.cls-4{fill:#817751;}.cls-5,.cls-6{fill:none;stroke:#817751;stroke-miterlimit:10;}.cls-5{stroke-width:3.48px;}.cls-6{stroke-width:2.5px;}</style></defs><g id="Amusement_park" data-name="Amusement park"><rect class="cls-1" x="-6.05" y="-11.92" width="804.17" height="634.24"/><g class="cls-2"><g class="cls-3"><path class="cls-4" d="M76,45.76c-.47-2.39-.43-4.9-.83-7.31-.54-3.28-1.66-6.62-4.06-8.93a8.24,8.24,0,0,0-10.71-.7c-.31.22-.39.75-.56,1.15a3.54,3.54,0,0,0-.14.39,1.31,1.31,0,0,1-.26.51l-.13.11a.46.46,0,0,0-.07.07,3.84,3.84,0,0,1-.54.34A19,19,0,0,0,56.08,33a5.91,5.91,0,0,0-1.19,1.58c-.16.26-.25.5-.2.55a1.24,1.24,0,0,0,.64,0,2.11,2.11,0,0,0,.62-.17,5.35,5.35,0,0,1,7.62,4.68,12.15,12.15,0,0,1-2.1,6.58c-.86,1.47-2,3.9-3.38,4.92-1.19.88-2.49.79-3.79,1.59-2.94,1.81-5,5.67-6.76,8.54S44.35,67,42.59,69.72c-1.64,2.58-3.87,4.65-5.66,7a1.09,1.09,0,0,0-.12.93c.08.24.16.53.22.78a1.36,1.36,0,0,0,.58.72c1.5,1-3.55,4.89-5.13,6.19-.23.19-.17.39.13.42,4,.42,8.47-.84,12-2.26a6.75,6.75,0,0,0,1-.59c.6-.38,1.19-.8,1.79-1.18s6.28-.45,5.66.79c-1.56,3.09.09,6.29.61,9.4a8.13,8.13,0,0,1-.22,3.28.87.87,0,0,1-.65.61c-1.09.2-2.07.51-1.31.91a4.48,4.48,0,0,1,1.31,1,2.4,2.4,0,0,1,.38,1,21,21,0,0,0,1,3.25c.11.28.32.3.47,0,1.29-2.14,1.62-3.38,4.23-2.79,1.72.38,3.47.9,5.19,1.27.29.06.33,0,.09-.21-.86-.63-1.72-1.27-2.62-1.83-.25-.16-.23-.2.06-.15,1.55.22,2-1.08,2.86-1.61.25-.15.26-.15,0-.09a14.08,14.08,0,0,1-3.93.31c-3.88-.37-5-3.53-4.4-7.17.33-1.9,2.06-8.18,4-8.93a2.14,2.14,0,0,1,2.52,1.3,6.28,6.28,0,0,1,.3,3.08,6,6,0,0,0,.35,3.07,9.88,9.88,0,0,0,1.82,2.12A2.81,2.81,0,0,1,66,92.94a2.29,2.29,0,0,1-1.88,1.48,5.4,5.4,0,0,1-2-.1c-.3,0-.41.11-.18.3,1.6,1.33,5.46.07,4.65,2.95-.17.6-.31,1.2-.45,1.82-.07.29.1.43.36.28a2.66,2.66,0,0,0,1.61-2.83c0-.17,6.29,1.71,6.69,1.84a11.54,11.54,0,0,0,1.58.34c.29,0,.46-.13.36-.41a2,2,0,0,0-1.59-1.52,15.66,15.66,0,0,1-2.6-.72c-.28-.1-.27-.19,0-.17,1.59.08,4.89.45,4.9-1.19a.5.5,0,0,0-.62-.43,7,7,0,0,1-1.69.23c-2.11,0-4.51.33-6.11-1.07s-1.92-4.39-1.79-6.31C68,77.65,77.81,72.33,80.64,63.2c1.37-4.4.26-8.36-2-12.21C77.44,49.05,76.43,48,76,45.76Z"/></g><g class="cls-3"><path class="cls-4" d="M269.43,45.76c-.47-2.39-.43-4.9-.82-7.31-.54-3.28-1.67-6.62-4.06-8.93a8.25,8.25,0,0,0-10.72-.7c-.3.22-.39.75-.55,1.15a2.24,2.24,0,0,0-.14.39,1.47,1.47,0,0,1-.26.51l-.14.11-.07.07a3,3,0,0,1-.53.34A19,19,0,0,0,249.52,33a5.94,5.94,0,0,0-1.2,1.58c-.15.26-.25.5-.19.55a1.2,1.2,0,0,0,.63,0,2.26,2.26,0,0,0,.63-.17A5.33,5.33,0,0,1,257,39.62a12.06,12.06,0,0,1-2.09,6.58c-.86,1.47-2,3.9-3.38,4.92-1.2.88-2.49.79-3.79,1.59-2.94,1.81-5,5.67-6.76,8.54S237.79,67,236,69.72c-1.65,2.58-3.88,4.65-5.67,7a1.16,1.16,0,0,0-.12.93c.08.24.17.53.23.78a1.34,1.34,0,0,0,.57.72c1.51,1-3.54,4.89-5.13,6.19-.23.19-.16.39.13.42,4,.42,8.47-.84,12-2.26a5.93,5.93,0,0,0,1-.59c.61-.38,1.19-.8,1.8-1.18s6.28-.45,5.66.79c-1.56,3.09.09,6.29.61,9.4a8,8,0,0,1-.23,3.28.84.84,0,0,1-.65.61c-1.08.2-2.07.51-1.3.91a4.56,4.56,0,0,1,1.3,1,2.42,2.42,0,0,1,.39,1,19,19,0,0,0,1,3.25c.1.28.31.3.46,0,1.29-2.14,1.62-3.38,4.23-2.79,1.72.38,3.47.9,5.2,1.27.29.06.33,0,.09-.21-.87-.63-1.72-1.27-2.63-1.83-.25-.16-.23-.2.07-.15,1.55.22,1.95-1.08,2.85-1.61.26-.15.27-.15,0-.09a14.05,14.05,0,0,1-3.93.31c-3.87-.37-5-3.53-4.39-7.17.33-1.9,2.05-8.18,4-8.93a2.14,2.14,0,0,1,2.52,1.3,6.52,6.52,0,0,1,.3,3.08,6,6,0,0,0,.34,3.07,10.17,10.17,0,0,0,1.82,2.12,2.81,2.81,0,0,1,.9,2.53,2.29,2.29,0,0,1-1.88,1.48,5.47,5.47,0,0,1-2-.1c-.29,0-.4.11-.17.3,1.59,1.33,5.46.07,4.64,2.95-.16.6-.3,1.2-.44,1.82-.07.29.09.43.35.28a2.66,2.66,0,0,0,1.61-2.83c0-.17,6.29,1.71,6.7,1.84a11.39,11.39,0,0,0,1.57.34c.3,0,.46-.13.36-.41a2,2,0,0,0-1.58-1.52,16,16,0,0,1-2.61-.72c-.28-.1-.26-.19,0-.17,1.59.08,4.9.45,4.91-1.19a.51.51,0,0,0-.63-.43,7,7,0,0,1-1.69.23c-2.11,0-4.51.33-6.1-1.07s-1.92-4.39-1.79-6.31c.66-9.78,10.48-15.1,13.31-24.23,1.36-4.4.25-8.36-2-12.21C270.88,49.05,269.87,48,269.43,45.76Z"/></g><g class="cls-3"><path class="cls-4" d="M460.78,45.76c-.46-2.39-.42-4.9-.82-7.31-.54-3.28-1.66-6.62-4.06-8.93a8.24,8.24,0,0,0-10.71-.7c-.31.22-.39.75-.56,1.15a3.54,3.54,0,0,0-.14.39,1.31,1.31,0,0,1-.26.51l-.13.11a.46.46,0,0,0-.07.07,3.84,3.84,0,0,1-.54.34A19,19,0,0,0,440.87,33a5.91,5.91,0,0,0-1.19,1.58c-.16.26-.25.5-.2.55a1.24,1.24,0,0,0,.64,0,2.19,2.19,0,0,0,.62-.17,5.35,5.35,0,0,1,7.62,4.68,12.15,12.15,0,0,1-2.1,6.58c-.86,1.47-2,3.9-3.38,4.92-1.19.88-2.49.79-3.79,1.59-2.94,1.81-5,5.67-6.76,8.54s-3.19,5.71-4.95,8.47c-1.64,2.58-3.88,4.65-5.66,7a1.09,1.09,0,0,0-.12.93c.08.24.16.53.22.78a1.39,1.39,0,0,0,.57.72c1.51,1-3.54,4.89-5.12,6.19-.23.19-.17.39.13.42,4,.42,8.47-.84,12-2.26a6.75,6.75,0,0,0,1-.59c.6-.38,1.19-.8,1.79-1.18s6.28-.45,5.66.79c-1.56,3.09.09,6.29.61,9.4a8.13,8.13,0,0,1-.22,3.28.87.87,0,0,1-.65.61c-1.09.2-2.07.51-1.31.91a4.29,4.29,0,0,1,1.3,1,2.29,2.29,0,0,1,.39,1,19.93,19.93,0,0,0,1,3.25c.1.28.32.3.47,0,1.28-2.14,1.62-3.38,4.23-2.79,1.72.38,3.47.9,5.19,1.27.29.06.33,0,.09-.21-.86-.63-1.72-1.27-2.62-1.83-.26-.16-.23-.2.06-.15,1.55.22,1.95-1.08,2.86-1.61.25-.15.26-.15,0-.09a14.08,14.08,0,0,1-3.93.31c-3.88-.37-5-3.53-4.4-7.17.33-1.9,2.06-8.18,4-8.93a2.14,2.14,0,0,1,2.52,1.3,6.28,6.28,0,0,1,.3,3.08,5.91,5.91,0,0,0,.35,3.07,9.88,9.88,0,0,0,1.82,2.12,2.81,2.81,0,0,1,.89,2.53,2.29,2.29,0,0,1-1.88,1.48,5.47,5.47,0,0,1-2-.1c-.29,0-.4.11-.17.3,1.6,1.33,5.46.07,4.65,2.95-.17.6-.31,1.2-.45,1.82-.07.29.1.43.36.28A2.68,2.68,0,0,0,453,96.84c0-.17,6.28,1.71,6.69,1.84a11.54,11.54,0,0,0,1.58.34c.29,0,.46-.13.36-.41A2,2,0,0,0,460,97.09a15.66,15.66,0,0,1-2.6-.72c-.29-.1-.27-.19,0-.17,1.59.08,4.89.45,4.9-1.19a.5.5,0,0,0-.62-.43,7,7,0,0,1-1.69.23c-2.11,0-4.51.33-6.11-1.07s-1.92-4.39-1.79-6.31c.66-9.78,10.48-15.1,13.31-24.23,1.36-4.4.26-8.36-2-12.21C462.23,49.05,461.22,48,460.78,45.76Z"/></g><g class="cls-3"><path class="cls-4" d="M654.22,45.76c-.47-2.39-.43-4.9-.82-7.31-.54-3.28-1.67-6.62-4.06-8.93a8.25,8.25,0,0,0-10.72-.7c-.3.22-.39.75-.56,1.15a3.56,3.56,0,0,0-.13.39,1.47,1.47,0,0,1-.26.51l-.14.11-.07.07a3,3,0,0,1-.53.34A19,19,0,0,0,634.31,33a5.94,5.94,0,0,0-1.2,1.58c-.16.26-.25.5-.19.55a1.2,1.2,0,0,0,.63,0,2.11,2.11,0,0,0,.62-.17,5.34,5.34,0,0,1,7.62,4.68,12.06,12.06,0,0,1-2.09,6.58c-.86,1.47-2,3.9-3.38,4.92-1.2.88-2.49.79-3.79,1.59-2.95,1.81-5,5.67-6.76,8.54s-3.19,5.71-4.95,8.47c-1.65,2.58-3.88,4.65-5.67,7a1.13,1.13,0,0,0-.12.93c.08.24.17.53.23.78a1.34,1.34,0,0,0,.57.72c1.5,1-3.54,4.89-5.13,6.19-.23.19-.16.39.13.42,4,.42,8.47-.84,12-2.26a5.93,5.93,0,0,0,1-.59c.61-.38,1.19-.8,1.8-1.18s6.28-.45,5.66.79c-1.56,3.09.09,6.29.61,9.4a8,8,0,0,1-.23,3.28.86.86,0,0,1-.65.61c-1.08.2-2.07.51-1.3.91a4.56,4.56,0,0,1,1.3,1,2.42,2.42,0,0,1,.39,1,19,19,0,0,0,1,3.25c.1.28.31.3.46,0,1.29-2.14,1.62-3.38,4.23-2.79,1.72.38,3.47.9,5.19,1.27.3.06.34,0,.1-.21-.87-.63-1.72-1.27-2.63-1.83-.25-.16-.23-.2.07-.15,1.55.22,1.95-1.08,2.85-1.61.26-.15.27-.15,0-.09a14.05,14.05,0,0,1-3.93.31c-3.87-.37-5-3.53-4.39-7.17.33-1.9,2-8.18,4-8.93a2.14,2.14,0,0,1,2.52,1.3,6.52,6.52,0,0,1,.3,3.08,6,6,0,0,0,.34,3.07,10.17,10.17,0,0,0,1.82,2.12,2.84,2.84,0,0,1,.9,2.53,2.29,2.29,0,0,1-1.88,1.48,5.46,5.46,0,0,1-2-.1c-.29,0-.4.11-.17.3,1.59,1.33,5.46.07,4.64,2.95-.17.6-.3,1.2-.44,1.82-.07.29.09.43.35.28a2.66,2.66,0,0,0,1.61-2.83c0-.17,6.29,1.71,6.7,1.84a11.39,11.39,0,0,0,1.57.34c.3,0,.46-.13.36-.41a2,2,0,0,0-1.59-1.52,15.93,15.93,0,0,1-2.6-.72c-.28-.1-.26-.19,0-.17,1.59.08,4.9.45,4.91-1.19a.51.51,0,0,0-.63-.43,7,7,0,0,1-1.69.23c-2.11,0-4.51.33-6.1-1.07s-1.92-4.39-1.79-6.31c.66-9.78,10.48-15.1,13.3-24.23,1.37-4.4.26-8.36-2-12.21C655.67,49.05,654.66,48,654.22,45.76Z"/></g><g class="cls-3"><path class="cls-4" d="M170.13,143.73c-.46-2.4-.42-4.9-.82-7.32-.54-3.28-1.66-6.62-4.06-8.92a8.24,8.24,0,0,0-10.71-.71c-.31.23-.39.76-.56,1.15,0,.13-.1.26-.14.4a1.31,1.31,0,0,1-.26.51l-.13.11-.07.07a5.16,5.16,0,0,1-.54.34,18,18,0,0,0-2.62,1.58,5.61,5.61,0,0,0-1.19,1.58c-.16.25-.25.49-.2.55a1.36,1.36,0,0,0,.64,0,2.46,2.46,0,0,0,.62-.17,5.34,5.34,0,0,1,7.62,4.67,12.19,12.19,0,0,1-2.1,6.59c-.86,1.47-2,3.89-3.38,4.91-1.19.88-2.49.79-3.79,1.59-2.94,1.81-5,5.68-6.76,8.54s-3.19,5.72-5,8.48c-1.64,2.58-3.87,4.65-5.66,7a1.08,1.08,0,0,0-.12.93c.08.24.16.52.22.77a1.33,1.33,0,0,0,.58.72c1.5,1-3.55,4.89-5.13,6.2-.23.19-.17.39.13.42,4,.41,8.47-.84,12-2.27a7.62,7.62,0,0,0,1-.58c.6-.38,1.19-.8,1.79-1.18s6.28-.45,5.66.78c-1.56,3.09.09,6.29.61,9.4a8.12,8.12,0,0,1-.22,3.28.9.9,0,0,1-.65.62c-1.09.2-2.07.51-1.31.91a4.18,4.18,0,0,1,1.31,1.05,2.35,2.35,0,0,1,.38,1,20.85,20.85,0,0,0,1,3.24c.11.28.32.31.47,0,1.29-2.14,1.62-3.38,4.23-2.8,1.72.39,3.47.91,5.19,1.27.29.07.33,0,.09-.21-.86-.62-1.72-1.26-2.62-1.82-.25-.16-.23-.2.06-.16,1.55.22,2-1.07,2.86-1.6.25-.16.26-.15,0-.1a13.72,13.72,0,0,1-3.93.32c-3.88-.38-5-3.54-4.4-7.18.33-1.9,2.06-8.17,4-8.93a2.15,2.15,0,0,1,2.52,1.3,6.28,6.28,0,0,1,.3,3.08,6,6,0,0,0,.35,3.07,10.18,10.18,0,0,0,1.82,2.13,2.81,2.81,0,0,1,.89,2.53,2.3,2.3,0,0,1-1.88,1.47,5.46,5.46,0,0,1-2-.09c-.29-.06-.4.1-.17.3,1.6,1.33,5.46.07,4.65,2.95-.17.59-.31,1.2-.45,1.82-.07.29.1.42.36.28a2.67,2.67,0,0,0,1.61-2.84c0-.17,6.29,1.72,6.69,1.85a11.54,11.54,0,0,0,1.58.34c.29,0,.46-.14.36-.42a2,2,0,0,0-1.59-1.51,16.69,16.69,0,0,1-2.6-.72c-.28-.1-.27-.19,0-.18,1.59.08,4.89.45,4.9-1.18a.5.5,0,0,0-.62-.43,8.18,8.18,0,0,1-1.69.23c-2.11-.05-4.51.33-6.11-1.07s-1.92-4.39-1.79-6.31c.66-9.78,10.48-15.11,13.31-24.23,1.37-4.41.26-8.36-2-12.21C171.58,147,170.57,146,170.13,143.73Z"/></g><g class="cls-3"><path class="cls-4" d="M363.57,143.73c-.47-2.4-.43-4.9-.82-7.32-.54-3.28-1.67-6.62-4.06-8.92a8.25,8.25,0,0,0-10.72-.71c-.3.23-.39.76-.55,1.15a2.7,2.7,0,0,0-.14.4,1.47,1.47,0,0,1-.26.51l-.14.11-.07.07a3.81,3.81,0,0,1-.53.34,18,18,0,0,0-2.62,1.58,5.64,5.64,0,0,0-1.2,1.58c-.16.25-.25.49-.19.55a1.33,1.33,0,0,0,.63,0,2.66,2.66,0,0,0,.63-.17,5.33,5.33,0,0,1,7.61,4.67,12.09,12.09,0,0,1-2.09,6.59c-.86,1.47-2,3.89-3.38,4.91-1.2.88-2.49.79-3.79,1.59-2.94,1.81-5,5.68-6.76,8.54s-3.19,5.72-4.95,8.48c-1.65,2.58-3.88,4.65-5.67,7a1.15,1.15,0,0,0-.12.93c.08.24.17.52.23.77a1.31,1.31,0,0,0,.57.72c1.5,1-3.54,4.89-5.13,6.2-.23.19-.16.39.13.42,4,.41,8.47-.84,12-2.27a6.59,6.59,0,0,0,1-.58c.61-.38,1.19-.8,1.8-1.18s6.28-.45,5.66.78c-1.56,3.09.09,6.29.61,9.4a7.93,7.93,0,0,1-.23,3.28.87.87,0,0,1-.65.62c-1.08.2-2.07.51-1.3.91a4.24,4.24,0,0,1,1.3,1.05,2.36,2.36,0,0,1,.39,1,18.88,18.88,0,0,0,1,3.24c.1.28.31.31.46,0,1.29-2.14,1.62-3.38,4.23-2.8,1.72.39,3.47.91,5.19,1.27.3.07.34,0,.1-.21-.87-.62-1.72-1.26-2.63-1.82-.25-.16-.23-.2.07-.16,1.55.22,1.95-1.07,2.85-1.6.26-.16.27-.15,0-.1a13.7,13.7,0,0,1-3.93.32c-3.87-.38-5-3.54-4.39-7.18.33-1.9,2.05-8.17,4-8.93a2.15,2.15,0,0,1,2.52,1.3,6.52,6.52,0,0,1,.3,3.08,6,6,0,0,0,.34,3.07,10.49,10.49,0,0,0,1.82,2.13,2.81,2.81,0,0,1,.9,2.53,2.3,2.3,0,0,1-1.88,1.47,5.45,5.45,0,0,1-2-.09c-.29-.06-.4.1-.17.3,1.59,1.33,5.46.07,4.64,2.95-.17.59-.3,1.2-.44,1.82-.07.29.09.42.35.28a2.67,2.67,0,0,0,1.61-2.84c0-.17,6.29,1.72,6.7,1.85A11.39,11.39,0,0,0,364,197c.3,0,.46-.14.36-.42a1.94,1.94,0,0,0-1.58-1.51,17.12,17.12,0,0,1-2.61-.72c-.28-.1-.26-.19,0-.18,1.59.08,4.9.45,4.91-1.18a.51.51,0,0,0-.63-.43,8.09,8.09,0,0,1-1.69.23c-2.11-.05-4.51.33-6.1-1.07s-1.92-4.39-1.79-6.31c.66-9.78,10.48-15.11,13.31-24.23,1.36-4.41.25-8.36-2-12.21C365,147,364,146,363.57,143.73Z"/></g><g class="cls-3"><path class="cls-4" d="M554.92,143.73c-.47-2.4-.42-4.9-.82-7.32-.54-3.28-1.66-6.62-4.06-8.92a8.24,8.24,0,0,0-10.71-.71c-.31.23-.4.76-.56,1.15,0,.13-.1.26-.14.4a1.31,1.31,0,0,1-.26.51l-.13.11-.07.07a5.16,5.16,0,0,1-.54.34,18,18,0,0,0-2.62,1.58,5.61,5.61,0,0,0-1.19,1.58c-.16.25-.25.49-.2.55a1.36,1.36,0,0,0,.64,0,2.58,2.58,0,0,0,.62-.17,5.34,5.34,0,0,1,7.62,4.67,12.19,12.19,0,0,1-2.1,6.59c-.86,1.47-2,3.89-3.38,4.91-1.19.88-2.49.79-3.79,1.59-2.94,1.81-5,5.68-6.76,8.54s-3.19,5.72-5,8.48c-1.64,2.58-3.88,4.65-5.66,7a1.08,1.08,0,0,0-.12.93c.08.24.16.52.22.77a1.35,1.35,0,0,0,.57.72c1.51,1-3.54,4.89-5.12,6.2-.23.19-.17.39.13.42,4,.41,8.47-.84,12-2.27a7.62,7.62,0,0,0,1-.58c.6-.38,1.19-.8,1.79-1.18s6.28-.45,5.66.78c-1.56,3.09.09,6.29.61,9.4a8.12,8.12,0,0,1-.22,3.28.9.9,0,0,1-.65.62c-1.09.2-2.07.51-1.31.91a4,4,0,0,1,1.3,1.05,2.24,2.24,0,0,1,.39,1,19.81,19.81,0,0,0,1,3.24c.1.28.31.31.47,0,1.28-2.14,1.62-3.38,4.23-2.8,1.72.39,3.47.91,5.19,1.27.29.07.33,0,.09-.21-.86-.62-1.72-1.26-2.62-1.82-.26-.16-.23-.2.06-.16,1.55.22,2-1.07,2.86-1.6.25-.16.26-.15,0-.1a13.72,13.72,0,0,1-3.93.32c-3.88-.38-5-3.54-4.4-7.18.33-1.9,2.06-8.17,4-8.93a2.15,2.15,0,0,1,2.52,1.3,6.28,6.28,0,0,1,.3,3.08,5.9,5.9,0,0,0,.35,3.07,9.89,9.89,0,0,0,1.82,2.13,2.81,2.81,0,0,1,.89,2.53,2.3,2.3,0,0,1-1.88,1.47,5.46,5.46,0,0,1-2-.09c-.29-.06-.4.1-.17.3,1.6,1.33,5.46.07,4.65,2.95-.17.59-.31,1.2-.45,1.82-.07.29.1.42.36.28a2.68,2.68,0,0,0,1.61-2.84c0-.17,6.28,1.72,6.69,1.85a11.54,11.54,0,0,0,1.58.34c.29,0,.46-.14.35-.42a1.94,1.94,0,0,0-1.58-1.51,16.69,16.69,0,0,1-2.6-.72c-.29-.1-.27-.19,0-.18,1.59.08,4.89.45,4.9-1.18a.5.5,0,0,0-.62-.43,8.27,8.27,0,0,1-1.69.23c-2.11-.05-4.51.33-6.11-1.07s-1.92-4.39-1.79-6.31c.66-9.78,10.48-15.11,13.31-24.23,1.36-4.41.26-8.36-2-12.21C556.37,147,555.36,146,554.92,143.73Z"/></g><g class="cls-3"><path class="cls-4" d="M748.36,143.73c-.47-2.4-.43-4.9-.82-7.32-.54-3.28-1.67-6.62-4.06-8.92a8.25,8.25,0,0,0-10.72-.71c-.3.23-.39.76-.56,1.15-.05.13-.09.26-.13.4a1.47,1.47,0,0,1-.26.51l-.14.11-.07.07a4.62,4.62,0,0,1-.53.34,18,18,0,0,0-2.62,1.58,5.64,5.64,0,0,0-1.2,1.58c-.16.25-.25.49-.19.55a1.33,1.33,0,0,0,.63,0,2.46,2.46,0,0,0,.62-.17,5.34,5.34,0,0,1,7.62,4.67,12.09,12.09,0,0,1-2.09,6.59c-.86,1.47-2,3.89-3.38,4.91-1.2.88-2.49.79-3.79,1.59-2.95,1.81-5,5.68-6.76,8.54s-3.19,5.72-4.95,8.48c-1.65,2.58-3.88,4.65-5.67,7a1.12,1.12,0,0,0-.12.93c.08.24.17.52.23.77a1.31,1.31,0,0,0,.57.72c1.5,1-3.54,4.89-5.13,6.2-.23.19-.16.39.13.42,4,.41,8.47-.84,12-2.27a6.59,6.59,0,0,0,1-.58c.61-.38,1.19-.8,1.8-1.18s6.28-.45,5.66.78c-1.56,3.09.09,6.29.61,9.4a7.93,7.93,0,0,1-.23,3.28.89.89,0,0,1-.65.62c-1.08.2-2.07.51-1.3.91a4.24,4.24,0,0,1,1.3,1.05,2.36,2.36,0,0,1,.39,1,18.88,18.88,0,0,0,1,3.24c.1.28.31.31.46,0,1.29-2.14,1.62-3.38,4.23-2.8,1.72.39,3.47.91,5.19,1.27.3.07.34,0,.1-.21-.87-.62-1.72-1.26-2.63-1.82-.25-.16-.23-.2.07-.16,1.55.22,2-1.07,2.85-1.6.26-.16.27-.15,0-.1a13.7,13.7,0,0,1-3.93.32c-3.87-.38-5-3.54-4.39-7.18.33-1.9,2-8.17,4-8.93a2.15,2.15,0,0,1,2.52,1.3,6.52,6.52,0,0,1,.3,3.08,6,6,0,0,0,.34,3.07,10.49,10.49,0,0,0,1.82,2.13,2.84,2.84,0,0,1,.9,2.53,2.3,2.3,0,0,1-1.88,1.47,5.45,5.45,0,0,1-2-.09c-.29-.06-.4.1-.17.3,1.59,1.33,5.46.07,4.64,2.95-.17.59-.3,1.2-.45,1.82-.06.29.1.42.36.28a2.67,2.67,0,0,0,1.61-2.84c0-.17,6.29,1.72,6.7,1.85a11.39,11.39,0,0,0,1.57.34c.3,0,.46-.14.36-.42a1.94,1.94,0,0,0-1.59-1.51,17,17,0,0,1-2.6-.72c-.28-.1-.26-.19,0-.18,1.59.08,4.9.45,4.91-1.18a.51.51,0,0,0-.63-.43,8.09,8.09,0,0,1-1.69.23c-2.11-.05-4.51.33-6.1-1.07s-1.92-4.39-1.79-6.31c.66-9.78,10.48-15.11,13.3-24.23,1.37-4.41.26-8.36-2-12.21C749.81,147,748.8,146,748.36,143.73Z"/></g><g class="cls-3"><path class="cls-4" d="M76,243.32c-.47-2.39-.43-4.9-.83-7.31-.54-3.28-1.66-6.62-4.06-8.93a8.24,8.24,0,0,0-10.71-.7c-.31.22-.39.75-.56,1.15-.05.13-.1.26-.14.4a1.31,1.31,0,0,1-.26.51l-.13.1-.07.07a3.84,3.84,0,0,1-.54.34,18.09,18.09,0,0,0-2.62,1.59,5.61,5.61,0,0,0-1.19,1.58c-.16.25-.25.49-.2.54a1.13,1.13,0,0,0,.64,0,2.45,2.45,0,0,0,.62-.16,5.34,5.34,0,0,1,7.62,4.67,12.19,12.19,0,0,1-2.1,6.59c-.86,1.46-2,3.89-3.38,4.91-1.19.88-2.49.79-3.79,1.59-2.94,1.81-5,5.67-6.76,8.54s-3.19,5.71-4.95,8.47c-1.64,2.58-3.87,4.65-5.66,7a1.09,1.09,0,0,0-.12.93c.08.24.16.53.22.78a1.36,1.36,0,0,0,.58.72c1.5,1-3.55,4.89-5.13,6.2-.23.18-.17.38.13.41,4,.42,8.47-.84,12-2.26a7.62,7.62,0,0,0,1-.58l1.79-1.19c.65-.41,6.28-.45,5.66.79-1.56,3.09.09,6.29.61,9.4a8.12,8.12,0,0,1-.22,3.28.87.87,0,0,1-.65.61c-1.09.2-2.07.51-1.31.92a4.31,4.31,0,0,1,1.31,1,2.4,2.4,0,0,1,.38,1,20.65,20.65,0,0,0,1,3.25c.11.28.32.3.47.05,1.29-2.15,1.62-3.39,4.23-2.8,1.72.38,3.47.91,5.19,1.27.29.06.33,0,.09-.21-.86-.63-1.72-1.26-2.62-1.83-.25-.15-.23-.19.06-.15,1.55.22,2-1.08,2.86-1.61.25-.15.26-.14,0-.09a14.48,14.48,0,0,1-3.93.32c-3.88-.38-5-3.54-4.4-7.18.33-1.9,2.06-8.18,4-8.93a2.14,2.14,0,0,1,2.52,1.3,6.28,6.28,0,0,1,.3,3.08,6,6,0,0,0,.35,3.07A9.88,9.88,0,0,0,65.13,288,2.81,2.81,0,0,1,66,290.5,2.29,2.29,0,0,1,64.14,292a5.63,5.63,0,0,1-2-.09c-.3-.06-.41.1-.18.29,1.6,1.34,5.46.07,4.65,3-.17.59-.31,1.2-.45,1.82-.07.29.1.42.36.28a2.68,2.68,0,0,0,1.61-2.84c0-.17,6.29,1.72,6.69,1.85a13.3,13.3,0,0,0,1.58.33c.29.05.46-.13.36-.41a2,2,0,0,0-1.59-1.51,16.69,16.69,0,0,1-2.6-.72c-.28-.1-.27-.19,0-.18,1.59.08,4.89.45,4.9-1.19a.5.5,0,0,0-.62-.43,7.57,7.57,0,0,1-1.69.24c-2.11-.05-4.51.32-6.11-1.08s-1.92-4.39-1.79-6.31c.66-9.78,10.48-15.1,13.31-24.22,1.37-4.41.26-8.36-2-12.21C77.44,246.61,76.43,245.55,76,243.32Z"/></g><g class="cls-3"><path class="cls-4" d="M269.43,243.32c-.47-2.39-.43-4.9-.82-7.31-.54-3.28-1.67-6.62-4.06-8.93a8.25,8.25,0,0,0-10.72-.7c-.3.22-.39.75-.55,1.15a2.7,2.7,0,0,0-.14.4,1.47,1.47,0,0,1-.26.51l-.14.1-.07.07a3,3,0,0,1-.53.34,18.09,18.09,0,0,0-2.62,1.59,5.64,5.64,0,0,0-1.2,1.58c-.15.25-.25.49-.19.54a1.1,1.1,0,0,0,.63,0,2.65,2.65,0,0,0,.63-.16,5.33,5.33,0,0,1,7.61,4.67,12.09,12.09,0,0,1-2.09,6.59c-.86,1.46-2,3.89-3.38,4.91-1.2.88-2.49.79-3.79,1.59-2.94,1.81-5,5.67-6.76,8.54s-3.19,5.71-4.95,8.47c-1.65,2.58-3.88,4.65-5.67,7a1.16,1.16,0,0,0-.12.93c.08.24.17.53.23.78a1.34,1.34,0,0,0,.57.72c1.51,1-3.54,4.89-5.13,6.2-.23.18-.16.38.13.41,4,.42,8.47-.84,12-2.26a6.59,6.59,0,0,0,1-.58c.61-.39,1.19-.8,1.8-1.19s6.28-.45,5.66.79c-1.56,3.09.09,6.29.61,9.4a7.93,7.93,0,0,1-.23,3.28.84.84,0,0,1-.65.61c-1.08.2-2.07.51-1.3.92a4.38,4.38,0,0,1,1.3,1,2.42,2.42,0,0,1,.39,1,18.72,18.72,0,0,0,1,3.25c.1.28.31.3.46.05,1.29-2.15,1.62-3.39,4.23-2.8,1.72.38,3.47.91,5.2,1.27.29.06.33,0,.09-.21-.87-.63-1.72-1.26-2.63-1.83-.25-.15-.23-.19.07-.15,1.55.22,1.95-1.08,2.85-1.61.26-.15.27-.14,0-.09a14.45,14.45,0,0,1-3.93.32c-3.87-.38-5-3.54-4.39-7.18.33-1.9,2.05-8.18,4-8.93a2.14,2.14,0,0,1,2.52,1.3,6.52,6.52,0,0,1,.3,3.08,6,6,0,0,0,.34,3.07,10.17,10.17,0,0,0,1.82,2.12,2.81,2.81,0,0,1,.9,2.53,2.29,2.29,0,0,1-1.88,1.48,5.7,5.7,0,0,1-2-.09c-.29-.06-.4.1-.17.29,1.59,1.34,5.46.07,4.64,3-.16.59-.3,1.2-.44,1.82-.07.29.09.42.35.28a2.68,2.68,0,0,0,1.61-2.84c0-.17,6.29,1.72,6.7,1.85a13.12,13.12,0,0,0,1.57.33c.3.05.46-.13.36-.41a1.94,1.94,0,0,0-1.58-1.51,17.12,17.12,0,0,1-2.61-.72c-.28-.1-.26-.19,0-.18,1.59.08,4.9.45,4.91-1.19a.51.51,0,0,0-.63-.43,7.49,7.49,0,0,1-1.69.24c-2.11-.05-4.51.32-6.1-1.08s-1.92-4.39-1.79-6.31c.66-9.78,10.48-15.1,13.31-24.22,1.36-4.41.25-8.36-2-12.21C270.88,246.61,269.87,245.55,269.43,243.32Z"/></g><g class="cls-3"><path class="cls-4" d="M460.78,243.32c-.46-2.39-.42-4.9-.82-7.31-.54-3.28-1.66-6.62-4.06-8.93a8.24,8.24,0,0,0-10.71-.7c-.31.22-.39.75-.56,1.15-.05.13-.1.26-.14.4a1.31,1.31,0,0,1-.26.51l-.13.1-.07.07a3.84,3.84,0,0,1-.54.34,18.09,18.09,0,0,0-2.62,1.59,5.61,5.61,0,0,0-1.19,1.58c-.16.25-.25.49-.2.54a1.13,1.13,0,0,0,.64,0,2.57,2.57,0,0,0,.62-.16,5.34,5.34,0,0,1,7.62,4.67,12.19,12.19,0,0,1-2.1,6.59c-.86,1.46-2,3.89-3.38,4.91-1.19.88-2.49.79-3.79,1.59-2.94,1.81-5,5.67-6.76,8.54s-3.19,5.71-4.95,8.47c-1.64,2.58-3.88,4.65-5.66,7a1.09,1.09,0,0,0-.12.93c.08.24.16.53.22.78a1.39,1.39,0,0,0,.57.72c1.51,1-3.54,4.89-5.12,6.2-.23.18-.17.38.13.41,4,.42,8.47-.84,12-2.26a7.62,7.62,0,0,0,1-.58l1.79-1.19c.64-.41,6.28-.45,5.66.79-1.56,3.09.09,6.29.61,9.4a8.12,8.12,0,0,1-.22,3.28.87.87,0,0,1-.65.61c-1.09.2-2.07.51-1.31.92a4.13,4.13,0,0,1,1.3,1,2.29,2.29,0,0,1,.39,1,19.64,19.64,0,0,0,1,3.25c.1.28.32.3.47.05,1.28-2.15,1.62-3.39,4.23-2.8,1.72.38,3.47.91,5.19,1.27.29.06.33,0,.09-.21-.86-.63-1.72-1.26-2.62-1.83-.26-.15-.23-.19.06-.15,1.55.22,1.95-1.08,2.86-1.61.25-.15.26-.14,0-.09a14.48,14.48,0,0,1-3.93.32c-3.88-.38-5-3.54-4.4-7.18.33-1.9,2.06-8.18,4-8.93a2.14,2.14,0,0,1,2.52,1.3,6.28,6.28,0,0,1,.3,3.08,5.9,5.9,0,0,0,.35,3.07,9.88,9.88,0,0,0,1.82,2.12,2.81,2.81,0,0,1,.89,2.53,2.29,2.29,0,0,1-1.88,1.48,5.7,5.7,0,0,1-2-.09c-.29-.06-.4.1-.17.29,1.6,1.34,5.46.07,4.65,3-.17.59-.31,1.2-.45,1.82-.07.29.1.42.36.28A2.69,2.69,0,0,0,453,294.4c0-.17,6.28,1.72,6.69,1.85a13.3,13.3,0,0,0,1.58.33c.29.05.46-.13.36-.41a2,2,0,0,0-1.59-1.51,16.69,16.69,0,0,1-2.6-.72c-.29-.1-.27-.19,0-.18,1.59.08,4.89.45,4.9-1.19a.5.5,0,0,0-.62-.43,7.57,7.57,0,0,1-1.69.24c-2.11-.05-4.51.32-6.11-1.08s-1.92-4.39-1.79-6.31c.66-9.78,10.48-15.1,13.31-24.22,1.36-4.41.26-8.36-2-12.21C462.23,246.61,461.22,245.55,460.78,243.32Z"/></g><g class="cls-3"><path class="cls-4" d="M654.22,243.32c-.47-2.39-.43-4.9-.82-7.31-.54-3.28-1.67-6.62-4.06-8.93a8.25,8.25,0,0,0-10.72-.7c-.3.22-.39.75-.56,1.15,0,.13-.09.26-.13.4a1.47,1.47,0,0,1-.26.51l-.14.1-.07.07a3,3,0,0,1-.53.34,18.09,18.09,0,0,0-2.62,1.59,5.64,5.64,0,0,0-1.2,1.58c-.16.25-.25.49-.19.54a1.1,1.1,0,0,0,.63,0,2.45,2.45,0,0,0,.62-.16,5.34,5.34,0,0,1,7.62,4.67,12.09,12.09,0,0,1-2.09,6.59c-.86,1.46-2,3.89-3.38,4.91-1.2.88-2.49.79-3.79,1.59-2.95,1.81-5,5.67-6.76,8.54s-3.19,5.71-4.95,8.47c-1.65,2.58-3.88,4.65-5.67,7a1.13,1.13,0,0,0-.12.93c.08.24.17.53.23.78a1.34,1.34,0,0,0,.57.72c1.5,1-3.54,4.89-5.13,6.2-.23.18-.16.38.13.41,4,.42,8.47-.84,12-2.26a6.59,6.59,0,0,0,1-.58c.61-.39,1.19-.8,1.8-1.19s6.28-.45,5.66.79c-1.56,3.09.09,6.29.61,9.4a7.93,7.93,0,0,1-.23,3.28.86.86,0,0,1-.65.61c-1.08.2-2.07.51-1.3.92a4.38,4.38,0,0,1,1.3,1,2.42,2.42,0,0,1,.39,1,18.72,18.72,0,0,0,1,3.25c.1.28.31.3.46.05,1.29-2.15,1.62-3.39,4.23-2.8,1.72.38,3.47.91,5.19,1.27.3.06.34,0,.1-.21-.87-.63-1.72-1.26-2.63-1.83-.25-.15-.23-.19.07-.15,1.55.22,1.95-1.08,2.85-1.61.26-.15.27-.14,0-.09a14.45,14.45,0,0,1-3.93.32c-3.87-.38-5-3.54-4.39-7.18.33-1.9,2-8.18,4-8.93a2.14,2.14,0,0,1,2.52,1.3,6.52,6.52,0,0,1,.3,3.08,6,6,0,0,0,.34,3.07,10.17,10.17,0,0,0,1.82,2.12,2.84,2.84,0,0,1,.9,2.53,2.29,2.29,0,0,1-1.88,1.48,5.69,5.69,0,0,1-2-.09c-.29-.06-.4.1-.17.29,1.59,1.34,5.46.07,4.64,3-.17.59-.3,1.2-.44,1.82-.07.29.09.42.35.28a2.68,2.68,0,0,0,1.61-2.84c0-.17,6.29,1.72,6.7,1.85a13.12,13.12,0,0,0,1.57.33c.3.05.46-.13.36-.41a1.94,1.94,0,0,0-1.59-1.51,17,17,0,0,1-2.6-.72c-.28-.1-.26-.19,0-.18,1.59.08,4.9.45,4.91-1.19a.51.51,0,0,0-.63-.43,7.49,7.49,0,0,1-1.69.24c-2.11-.05-4.51.32-6.1-1.08s-1.92-4.39-1.79-6.31c.66-9.78,10.48-15.1,13.3-24.22,1.37-4.41.26-8.36-2-12.21C655.67,246.61,654.66,245.55,654.22,243.32Z"/></g><g class="cls-3"><path class="cls-4" d="M170.13,341.29c-.46-2.39-.42-4.9-.82-7.31-.54-3.29-1.66-6.62-4.06-8.93a8.25,8.25,0,0,0-10.71-.71c-.31.23-.39.76-.56,1.16a3.54,3.54,0,0,0-.14.39,1.31,1.31,0,0,1-.26.51l-.13.11-.07.07a3.84,3.84,0,0,1-.54.34,19,19,0,0,0-2.62,1.58,5.76,5.76,0,0,0-1.19,1.58c-.16.25-.25.5-.2.55a1.24,1.24,0,0,0,.64,0,2.46,2.46,0,0,0,.62-.17,5.35,5.35,0,0,1,7.62,4.68,12.15,12.15,0,0,1-2.1,6.58c-.86,1.47-2,3.89-3.38,4.92-1.19.88-2.49.79-3.79,1.58-2.94,1.81-5,5.68-6.76,8.54s-3.19,5.72-5,8.48c-1.64,2.58-3.87,4.65-5.66,7a1.09,1.09,0,0,0-.12.93c.08.24.16.53.22.77a1.33,1.33,0,0,0,.58.72c1.5,1-3.55,4.9-5.13,6.2-.23.19-.17.39.13.42,4,.42,8.47-.84,12-2.27a6,6,0,0,0,1-.58c.6-.38,1.19-.8,1.79-1.18s6.28-.45,5.66.78c-1.56,3.1.09,6.29.61,9.41a8.07,8.07,0,0,1-.22,3.27.89.89,0,0,1-.65.62c-1.09.2-2.07.51-1.31.91a4.32,4.32,0,0,1,1.31,1.05,2.4,2.4,0,0,1,.38,1,20.53,20.53,0,0,0,1,3.24c.11.28.32.31.47.05,1.29-2.14,1.62-3.38,4.23-2.8,1.72.39,3.47.91,5.19,1.28.29.06.33,0,.09-.21-.86-.63-1.72-1.27-2.62-1.83-.25-.16-.23-.2.06-.16,1.55.22,2-1.07,2.86-1.6.25-.15.26-.15,0-.09a14.08,14.08,0,0,1-3.93.31c-3.88-.38-5-3.54-4.4-7.18.33-1.89,2.06-8.17,4-8.93a2.15,2.15,0,0,1,2.52,1.31,6.27,6.27,0,0,1,.3,3.08,6,6,0,0,0,.35,3.07,10.13,10.13,0,0,0,1.82,2.12,2.81,2.81,0,0,1,.89,2.53,2.31,2.31,0,0,1-1.88,1.48,5.47,5.47,0,0,1-2-.1c-.29-.05-.4.11-.17.3,1.6,1.33,5.46.07,4.65,3-.17.6-.31,1.2-.45,1.82-.07.29.1.43.36.28a2.66,2.66,0,0,0,1.61-2.83c0-.17,6.29,1.71,6.69,1.84a11.54,11.54,0,0,0,1.58.34c.29.05.46-.13.36-.41a2,2,0,0,0-1.59-1.52,15.66,15.66,0,0,1-2.6-.72c-.28-.1-.27-.19,0-.17,1.59.08,4.89.45,4.9-1.19a.5.5,0,0,0-.62-.43,8.18,8.18,0,0,1-1.69.23c-2.11,0-4.51.33-6.11-1.07s-1.92-4.39-1.79-6.31c.66-9.78,10.48-15.11,13.31-24.23,1.37-4.41.26-8.36-2-12.21C171.58,344.58,170.57,343.52,170.13,341.29Z"/></g><g class="cls-3"><path class="cls-4" d="M363.57,341.29c-.47-2.39-.43-4.9-.82-7.31-.54-3.29-1.67-6.62-4.06-8.93a8.26,8.26,0,0,0-10.72-.71c-.3.23-.39.76-.55,1.16a2.24,2.24,0,0,0-.14.39,1.47,1.47,0,0,1-.26.51l-.14.11-.07.07a3,3,0,0,1-.53.34,19,19,0,0,0-2.62,1.58,5.79,5.79,0,0,0-1.2,1.58c-.16.25-.25.5-.19.55a1.2,1.2,0,0,0,.63,0,2.66,2.66,0,0,0,.63-.17,5.33,5.33,0,0,1,7.61,4.68,12.06,12.06,0,0,1-2.09,6.58c-.86,1.47-2,3.89-3.38,4.92-1.2.88-2.49.79-3.79,1.58-2.94,1.81-5,5.68-6.76,8.54s-3.19,5.72-4.95,8.48c-1.65,2.58-3.88,4.65-5.67,7a1.16,1.16,0,0,0-.12.93c.08.24.17.53.23.77a1.31,1.31,0,0,0,.57.72c1.5,1-3.54,4.9-5.13,6.2-.23.19-.16.39.13.42,4,.42,8.47-.84,12-2.27a5.31,5.31,0,0,0,1-.58c.61-.38,1.19-.8,1.8-1.18s6.28-.45,5.66.78c-1.56,3.1.09,6.29.61,9.41a7.89,7.89,0,0,1-.23,3.27.86.86,0,0,1-.65.62c-1.08.2-2.07.51-1.3.91a4.39,4.39,0,0,1,1.3,1.05,2.42,2.42,0,0,1,.39,1,18.61,18.61,0,0,0,1,3.24c.1.28.31.31.46.05,1.29-2.14,1.62-3.38,4.23-2.8,1.72.39,3.47.91,5.19,1.28.3.06.34,0,.1-.21-.87-.63-1.72-1.27-2.63-1.83-.25-.16-.23-.2.07-.16,1.55.22,1.95-1.07,2.85-1.6.26-.15.27-.15,0-.09a14.05,14.05,0,0,1-3.93.31c-3.87-.38-5-3.54-4.39-7.18.33-1.89,2.05-8.17,4-8.93a2.16,2.16,0,0,1,2.52,1.31,6.51,6.51,0,0,1,.3,3.08,6,6,0,0,0,.34,3.07,10.43,10.43,0,0,0,1.82,2.12,2.81,2.81,0,0,1,.9,2.53,2.31,2.31,0,0,1-1.88,1.48,5.46,5.46,0,0,1-2-.1c-.29-.05-.4.11-.17.3,1.59,1.33,5.46.07,4.64,3-.17.6-.3,1.2-.44,1.82-.07.29.09.43.35.28a2.66,2.66,0,0,0,1.61-2.83c0-.17,6.29,1.71,6.7,1.84a11.39,11.39,0,0,0,1.57.34c.3.05.46-.13.36-.41a2,2,0,0,0-1.58-1.52,16,16,0,0,1-2.61-.72c-.28-.1-.26-.19,0-.17,1.59.08,4.9.45,4.91-1.19a.51.51,0,0,0-.63-.43,8.09,8.09,0,0,1-1.69.23c-2.11,0-4.51.33-6.1-1.07s-1.92-4.39-1.79-6.31c.66-9.78,10.48-15.11,13.31-24.23,1.36-4.41.25-8.36-2-12.21C365,344.58,364,343.52,363.57,341.29Z"/></g><g class="cls-3"><path class="cls-4" d="M554.92,341.29c-.47-2.39-.42-4.9-.82-7.31-.54-3.29-1.66-6.62-4.06-8.93a8.25,8.25,0,0,0-10.71-.71c-.31.23-.4.76-.56,1.16a3.54,3.54,0,0,0-.14.39,1.31,1.31,0,0,1-.26.51l-.13.11-.07.07a3.84,3.84,0,0,1-.54.34A19,19,0,0,0,535,328.5a5.76,5.76,0,0,0-1.19,1.58c-.16.25-.25.5-.2.55a1.24,1.24,0,0,0,.64,0,2.58,2.58,0,0,0,.62-.17,5.35,5.35,0,0,1,7.62,4.68,12.15,12.15,0,0,1-2.1,6.58c-.86,1.47-2,3.89-3.38,4.92-1.19.88-2.49.79-3.79,1.58-2.94,1.81-5,5.68-6.76,8.54s-3.19,5.72-5,8.48c-1.64,2.58-3.88,4.65-5.66,7a1.09,1.09,0,0,0-.12.93c.08.24.16.53.22.77a1.35,1.35,0,0,0,.57.72c1.51,1-3.54,4.9-5.12,6.2-.23.19-.17.39.13.42,4,.42,8.47-.84,12-2.27a6,6,0,0,0,1-.58c.6-.38,1.19-.8,1.79-1.18s6.28-.45,5.66.78c-1.56,3.1.09,6.29.61,9.41a8.07,8.07,0,0,1-.22,3.27.89.89,0,0,1-.65.62c-1.09.2-2.07.51-1.31.91a4.15,4.15,0,0,1,1.3,1.05,2.29,2.29,0,0,1,.39,1,19.52,19.52,0,0,0,1,3.24c.1.28.31.31.47.05,1.28-2.14,1.62-3.38,4.23-2.8,1.72.39,3.47.91,5.19,1.28.29.06.33,0,.09-.21-.86-.63-1.72-1.27-2.62-1.83-.26-.16-.23-.2.06-.16,1.55.22,2-1.07,2.86-1.6.25-.15.26-.15,0-.09a14.08,14.08,0,0,1-3.93.31c-3.88-.38-5-3.54-4.4-7.18.33-1.89,2.06-8.17,4-8.93a2.15,2.15,0,0,1,2.52,1.31,6.27,6.27,0,0,1,.3,3.08,5.91,5.91,0,0,0,.35,3.07,9.84,9.84,0,0,0,1.82,2.12,2.81,2.81,0,0,1,.89,2.53,2.31,2.31,0,0,1-1.88,1.48,5.47,5.47,0,0,1-2-.1c-.29-.05-.4.11-.17.3,1.6,1.33,5.46.07,4.65,3-.17.6-.31,1.2-.45,1.82-.07.29.1.43.36.28a2.68,2.68,0,0,0,1.61-2.83c0-.17,6.28,1.71,6.69,1.84a11.54,11.54,0,0,0,1.58.34c.29.05.46-.13.35-.41a2,2,0,0,0-1.58-1.52,15.66,15.66,0,0,1-2.6-.72c-.29-.1-.27-.19,0-.17,1.59.08,4.89.45,4.9-1.19a.5.5,0,0,0-.62-.43,8.27,8.27,0,0,1-1.69.23c-2.11,0-4.51.33-6.11-1.07s-1.92-4.39-1.79-6.31c.66-9.78,10.48-15.11,13.31-24.23,1.36-4.41.26-8.36-2-12.21C556.37,344.58,555.36,343.52,554.92,341.29Z"/></g><g class="cls-3"><path class="cls-4" d="M748.36,341.29c-.47-2.39-.43-4.9-.82-7.31-.54-3.29-1.67-6.62-4.06-8.93a8.26,8.26,0,0,0-10.72-.71c-.3.23-.39.76-.56,1.16a3.56,3.56,0,0,0-.13.39,1.47,1.47,0,0,1-.26.51l-.14.11-.07.07a3.52,3.52,0,0,1-.53.34,19,19,0,0,0-2.62,1.58,5.79,5.79,0,0,0-1.2,1.58c-.16.25-.25.5-.19.55a1.2,1.2,0,0,0,.63,0,2.46,2.46,0,0,0,.62-.17,5.34,5.34,0,0,1,7.62,4.68,12.06,12.06,0,0,1-2.09,6.58c-.86,1.47-2,3.89-3.38,4.92-1.2.88-2.49.79-3.79,1.58-2.95,1.81-5,5.68-6.76,8.54s-3.19,5.72-4.95,8.48c-1.65,2.58-3.88,4.65-5.67,7a1.13,1.13,0,0,0-.12.93c.08.24.17.53.23.77a1.31,1.31,0,0,0,.57.72c1.5,1-3.54,4.9-5.13,6.2-.23.19-.16.39.13.42,4,.42,8.47-.84,12-2.27a5.31,5.31,0,0,0,1-.58c.61-.38,1.19-.8,1.8-1.18s6.28-.45,5.66.78c-1.56,3.1.09,6.29.61,9.41a7.89,7.89,0,0,1-.23,3.27.87.87,0,0,1-.65.62c-1.08.2-2.07.51-1.3.91a4.39,4.39,0,0,1,1.3,1.05,2.42,2.42,0,0,1,.39,1,18.61,18.61,0,0,0,1,3.24c.1.28.31.31.46.05,1.29-2.14,1.62-3.38,4.23-2.8,1.72.39,3.47.91,5.19,1.28.3.06.34,0,.1-.21-.87-.63-1.72-1.27-2.63-1.83-.25-.16-.23-.2.07-.16,1.55.22,2-1.07,2.85-1.6.26-.15.27-.15,0-.09a14.05,14.05,0,0,1-3.93.31c-3.87-.38-5-3.54-4.39-7.18.33-1.89,2-8.17,4-8.93a2.16,2.16,0,0,1,2.52,1.31,6.51,6.51,0,0,1,.3,3.08,6,6,0,0,0,.34,3.07,10.43,10.43,0,0,0,1.82,2.12,2.84,2.84,0,0,1,.9,2.53,2.31,2.31,0,0,1-1.88,1.48,5.46,5.46,0,0,1-2-.1c-.29-.05-.4.11-.17.3,1.59,1.33,5.46.07,4.64,3-.17.6-.3,1.2-.45,1.82-.06.29.1.43.36.28a2.66,2.66,0,0,0,1.61-2.83c0-.17,6.29,1.71,6.7,1.84a11.39,11.39,0,0,0,1.57.34c.3.05.46-.13.36-.41a2,2,0,0,0-1.59-1.52,15.93,15.93,0,0,1-2.6-.72c-.28-.1-.26-.19,0-.17,1.59.08,4.9.45,4.91-1.19a.51.51,0,0,0-.63-.43,8.09,8.09,0,0,1-1.69.23c-2.11,0-4.51.33-6.1-1.07s-1.92-4.39-1.79-6.31c.66-9.78,10.48-15.11,13.3-24.23,1.37-4.41.26-8.36-2-12.21C749.81,344.58,748.8,343.52,748.36,341.29Z"/></g><g class="cls-3"><path class="cls-4" d="M76,436.74c-.47-2.39-.43-4.9-.83-7.31-.54-3.28-1.66-6.62-4.06-8.93a8.24,8.24,0,0,0-10.71-.7c-.31.22-.39.75-.56,1.15a3.54,3.54,0,0,0-.14.39,1.24,1.24,0,0,1-.26.51l-.13.11-.07.07a3.84,3.84,0,0,1-.54.34A19,19,0,0,0,56.08,424a5.91,5.91,0,0,0-1.19,1.58c-.16.26-.25.5-.2.55a1.24,1.24,0,0,0,.64,0,2.45,2.45,0,0,0,.62-.16,5.34,5.34,0,0,1,7.62,4.67,12.15,12.15,0,0,1-2.1,6.58c-.86,1.47-2,3.9-3.38,4.92-1.19.88-2.49.79-3.79,1.59-2.94,1.81-5,5.67-6.76,8.54s-3.19,5.71-4.95,8.47c-1.64,2.58-3.87,4.65-5.66,7a1.09,1.09,0,0,0-.12.93c.08.24.16.53.22.78a1.36,1.36,0,0,0,.58.72c1.5,1-3.55,4.89-5.13,6.19-.23.19-.17.39.13.42,4,.42,8.47-.84,12-2.26a7.62,7.62,0,0,0,1-.58c.6-.39,1.19-.81,1.79-1.19s6.28-.45,5.66.79c-1.56,3.09.09,6.29.61,9.4a8.13,8.13,0,0,1-.22,3.28.87.87,0,0,1-.65.61c-1.09.2-2.07.51-1.31.91a4.48,4.48,0,0,1,1.31,1.05,2.4,2.4,0,0,1,.38,1,21,21,0,0,0,1,3.25c.11.28.32.3.47,0,1.29-2.14,1.62-3.38,4.23-2.79,1.72.38,3.47.9,5.19,1.27.29.06.33,0,.09-.21-.86-.63-1.72-1.27-2.62-1.83-.25-.16-.23-.2.06-.15,1.55.22,2-1.08,2.86-1.61.25-.15.26-.15,0-.09a14.08,14.08,0,0,1-3.93.31c-3.88-.37-5-3.53-4.4-7.17.33-1.9,2.06-8.18,4-8.93a2.14,2.14,0,0,1,2.52,1.3,6.28,6.28,0,0,1,.3,3.08,6,6,0,0,0,.35,3.07,9.88,9.88,0,0,0,1.82,2.12,2.81,2.81,0,0,1,.89,2.53,2.29,2.29,0,0,1-1.88,1.48,5.4,5.4,0,0,1-2-.1c-.3-.05-.41.11-.18.3,1.6,1.33,5.46.07,4.65,2.95-.17.6-.31,1.2-.45,1.82-.07.29.1.43.36.28a2.66,2.66,0,0,0,1.61-2.83c0-.17,6.29,1.71,6.69,1.84a11.54,11.54,0,0,0,1.58.34c.29.05.46-.13.36-.41a2,2,0,0,0-1.59-1.52,15.66,15.66,0,0,1-2.6-.72c-.28-.1-.27-.19,0-.17,1.59.08,4.89.45,4.9-1.19a.5.5,0,0,0-.62-.43,7,7,0,0,1-1.69.23c-2.11,0-4.51.33-6.11-1.07s-1.92-4.39-1.79-6.31c.66-9.78,10.48-15.1,13.31-24.23,1.37-4.4.26-8.36-2-12.2C77.44,440,76.43,439,76,436.74Z"/></g><g class="cls-3"><path class="cls-4" d="M269.43,436.74c-.47-2.39-.43-4.9-.82-7.31-.54-3.28-1.67-6.62-4.06-8.93a8.25,8.25,0,0,0-10.72-.7c-.3.22-.39.75-.55,1.15a2.24,2.24,0,0,0-.14.39,1.37,1.37,0,0,1-.26.51l-.14.11-.07.07a3,3,0,0,1-.53.34,19,19,0,0,0-2.62,1.58,5.94,5.94,0,0,0-1.2,1.58c-.15.26-.25.5-.19.55a1.2,1.2,0,0,0,.63,0,2.65,2.65,0,0,0,.63-.16A5.33,5.33,0,0,1,257,430.6a12.06,12.06,0,0,1-2.09,6.58c-.86,1.47-2,3.9-3.38,4.92-1.2.88-2.49.79-3.79,1.59-2.94,1.81-5,5.67-6.76,8.54s-3.19,5.71-4.95,8.47c-1.65,2.58-3.88,4.65-5.67,7a1.16,1.16,0,0,0-.12.93c.08.24.17.53.23.78a1.34,1.34,0,0,0,.57.72c1.51,1-3.54,4.89-5.13,6.19-.23.19-.16.39.13.42,4,.42,8.47-.84,12-2.26a6.59,6.59,0,0,0,1-.58c.61-.39,1.19-.81,1.8-1.19s6.28-.45,5.66.79c-1.56,3.09.09,6.29.61,9.4a8,8,0,0,1-.23,3.28.84.84,0,0,1-.65.61c-1.08.2-2.07.51-1.3.91a4.56,4.56,0,0,1,1.3,1.05,2.42,2.42,0,0,1,.39,1,19,19,0,0,0,1,3.25c.1.28.31.3.46,0,1.29-2.14,1.62-3.38,4.23-2.79,1.72.38,3.47.9,5.2,1.27.29.06.33,0,.09-.21-.87-.63-1.72-1.27-2.63-1.83-.25-.16-.23-.2.07-.15,1.55.22,1.95-1.08,2.85-1.61.26-.15.27-.15,0-.09a14.05,14.05,0,0,1-3.93.31c-3.87-.37-5-3.53-4.39-7.17.33-1.9,2.05-8.18,4-8.93a2.14,2.14,0,0,1,2.52,1.3,6.52,6.52,0,0,1,.3,3.08,6,6,0,0,0,.34,3.07,10.17,10.17,0,0,0,1.82,2.12,2.81,2.81,0,0,1,.9,2.53,2.29,2.29,0,0,1-1.88,1.48,5.47,5.47,0,0,1-2-.1c-.29-.05-.4.11-.17.3,1.59,1.33,5.46.07,4.64,2.95-.16.6-.3,1.2-.44,1.82-.07.29.09.43.35.28a2.66,2.66,0,0,0,1.61-2.83c0-.17,6.29,1.71,6.7,1.84a11.39,11.39,0,0,0,1.57.34c.3.05.46-.13.36-.41a2,2,0,0,0-1.58-1.52,16,16,0,0,1-2.61-.72c-.28-.1-.26-.19,0-.17,1.59.08,4.9.45,4.91-1.19a.51.51,0,0,0-.63-.43,7,7,0,0,1-1.69.23c-2.11,0-4.51.33-6.1-1.07s-1.92-4.39-1.79-6.31c.66-9.78,10.48-15.1,13.31-24.23,1.36-4.4.25-8.36-2-12.2C270.88,440,269.87,439,269.43,436.74Z"/></g><g class="cls-3"><path class="cls-4" d="M460.78,436.74c-.46-2.39-.42-4.9-.82-7.31-.54-3.28-1.66-6.62-4.06-8.93a8.24,8.24,0,0,0-10.71-.7c-.31.22-.39.75-.56,1.15a3.54,3.54,0,0,0-.14.39,1.24,1.24,0,0,1-.26.51l-.13.11L444,422a3.84,3.84,0,0,1-.54.34,19,19,0,0,0-2.62,1.58,5.91,5.91,0,0,0-1.19,1.58c-.16.26-.25.5-.2.55a1.24,1.24,0,0,0,.64,0,2.57,2.57,0,0,0,.62-.16,5.34,5.34,0,0,1,7.62,4.67,12.15,12.15,0,0,1-2.1,6.58c-.86,1.47-2,3.9-3.38,4.92-1.19.88-2.49.79-3.79,1.59-2.94,1.81-5,5.67-6.76,8.54s-3.19,5.71-4.95,8.47c-1.64,2.58-3.88,4.65-5.66,7a1.09,1.09,0,0,0-.12.93c.08.24.16.53.22.78a1.39,1.39,0,0,0,.57.72c1.51,1-3.54,4.89-5.12,6.19-.23.19-.17.39.13.42,4,.42,8.47-.84,12-2.26a7.62,7.62,0,0,0,1-.58c.6-.39,1.19-.81,1.79-1.19s6.28-.45,5.66.79c-1.56,3.09.09,6.29.61,9.4a8.13,8.13,0,0,1-.22,3.28.87.87,0,0,1-.65.61c-1.09.2-2.07.51-1.31.91a4.29,4.29,0,0,1,1.3,1.05,2.29,2.29,0,0,1,.39,1,19.93,19.93,0,0,0,1,3.25c.1.28.32.3.47,0,1.28-2.14,1.62-3.38,4.23-2.79,1.72.38,3.47.9,5.19,1.27.29.06.33,0,.09-.21-.86-.63-1.72-1.27-2.62-1.83-.26-.16-.23-.2.06-.15,1.55.22,1.95-1.08,2.86-1.61.25-.15.26-.15,0-.09a14.08,14.08,0,0,1-3.93.31c-3.88-.37-5-3.53-4.4-7.17.33-1.9,2.06-8.18,4-8.93a2.14,2.14,0,0,1,2.52,1.3,6.28,6.28,0,0,1,.3,3.08,5.91,5.91,0,0,0,.35,3.07,9.88,9.88,0,0,0,1.82,2.12,2.81,2.81,0,0,1,.89,2.53,2.29,2.29,0,0,1-1.88,1.48,5.47,5.47,0,0,1-2-.1c-.29-.05-.4.11-.17.3,1.6,1.33,5.46.07,4.65,2.95-.17.6-.31,1.2-.45,1.82-.07.29.1.43.36.28a2.68,2.68,0,0,0,1.61-2.83c0-.17,6.28,1.71,6.69,1.84a11.54,11.54,0,0,0,1.58.34c.29.05.46-.13.36-.41a2,2,0,0,0-1.59-1.52,15.66,15.66,0,0,1-2.6-.72c-.29-.1-.27-.19,0-.17,1.59.08,4.89.45,4.9-1.19a.5.5,0,0,0-.62-.43,7,7,0,0,1-1.69.23c-2.11,0-4.51.33-6.11-1.07s-1.92-4.39-1.79-6.31c.66-9.78,10.48-15.1,13.31-24.23,1.36-4.4.26-8.36-2-12.2C462.23,440,461.22,439,460.78,436.74Z"/></g><g class="cls-3"><path class="cls-4" d="M654.22,436.74c-.47-2.39-.43-4.9-.82-7.31-.54-3.28-1.67-6.62-4.06-8.93a8.25,8.25,0,0,0-10.72-.7c-.3.22-.39.75-.56,1.15a3.56,3.56,0,0,0-.13.39,1.37,1.37,0,0,1-.26.51l-.14.11-.07.07a3,3,0,0,1-.53.34,19,19,0,0,0-2.62,1.58,5.94,5.94,0,0,0-1.2,1.58c-.16.26-.25.5-.19.55a1.2,1.2,0,0,0,.63,0,2.45,2.45,0,0,0,.62-.16,5.34,5.34,0,0,1,7.62,4.67,12.06,12.06,0,0,1-2.09,6.58c-.86,1.47-2,3.9-3.38,4.92-1.2.88-2.49.79-3.79,1.59-2.95,1.81-5,5.67-6.76,8.54s-3.19,5.71-4.95,8.47c-1.65,2.58-3.88,4.65-5.67,7a1.13,1.13,0,0,0-.12.93c.08.24.17.53.23.78a1.34,1.34,0,0,0,.57.72c1.5,1-3.54,4.89-5.13,6.19-.23.19-.16.39.13.42,4,.42,8.47-.84,12-2.26a6.59,6.59,0,0,0,1-.58c.61-.39,1.19-.81,1.8-1.19s6.28-.45,5.66.79c-1.56,3.09.09,6.29.61,9.4a8,8,0,0,1-.23,3.28.86.86,0,0,1-.65.61c-1.08.2-2.07.51-1.3.91a4.56,4.56,0,0,1,1.3,1.05,2.42,2.42,0,0,1,.39,1,19,19,0,0,0,1,3.25c.1.28.31.3.46,0,1.29-2.14,1.62-3.38,4.23-2.79,1.72.38,3.47.9,5.19,1.27.3.06.34,0,.1-.21-.87-.63-1.72-1.27-2.63-1.83-.25-.16-.23-.2.07-.15,1.55.22,1.95-1.08,2.85-1.61.26-.15.27-.15,0-.09a14.05,14.05,0,0,1-3.93.31c-3.87-.37-5-3.53-4.39-7.17.33-1.9,2-8.18,4-8.93a2.14,2.14,0,0,1,2.52,1.3,6.52,6.52,0,0,1,.3,3.08,6,6,0,0,0,.34,3.07,10.17,10.17,0,0,0,1.82,2.12,2.84,2.84,0,0,1,.9,2.53,2.29,2.29,0,0,1-1.88,1.48,5.46,5.46,0,0,1-2-.1c-.29-.05-.4.11-.17.3,1.59,1.33,5.46.07,4.64,2.95-.17.6-.3,1.2-.44,1.82-.07.29.09.43.35.28a2.66,2.66,0,0,0,1.61-2.83c0-.17,6.29,1.71,6.7,1.84a11.39,11.39,0,0,0,1.57.34c.3.05.46-.13.36-.41a2,2,0,0,0-1.59-1.52,15.93,15.93,0,0,1-2.6-.72c-.28-.1-.26-.19,0-.17,1.59.08,4.9.45,4.91-1.19a.51.51,0,0,0-.63-.43,7,7,0,0,1-1.69.23c-2.11,0-4.51.33-6.1-1.07s-1.92-4.39-1.79-6.31c.66-9.78,10.48-15.1,13.3-24.23,1.37-4.4.26-8.36-2-12.2C655.67,440,654.66,439,654.22,436.74Z"/></g><g class="cls-3"><path class="cls-4" d="M170.13,534.71c-.46-2.4-.42-4.9-.82-7.32-.54-3.28-1.66-6.61-4.06-8.92a8.24,8.24,0,0,0-10.71-.71c-.31.23-.39.76-.56,1.15,0,.13-.1.26-.14.4a1.31,1.31,0,0,1-.26.51l-.13.11-.07.07a5.16,5.16,0,0,1-.54.34,18,18,0,0,0-2.62,1.58A5.61,5.61,0,0,0,149,523.5c-.16.25-.25.49-.2.55a1.36,1.36,0,0,0,.64,0,2.46,2.46,0,0,0,.62-.17,5.35,5.35,0,0,1,7.62,4.68,12.18,12.18,0,0,1-2.1,6.58c-.86,1.47-2,3.89-3.38,4.91-1.19.88-2.49.79-3.79,1.59-2.94,1.81-5,5.68-6.76,8.54s-3.19,5.72-5,8.48c-1.64,2.58-3.87,4.65-5.66,7a1.08,1.08,0,0,0-.12.93c.08.24.16.52.22.77a1.33,1.33,0,0,0,.58.72c1.5,1-3.55,4.89-5.13,6.2-.23.19-.17.39.13.42,4,.41,8.47-.84,12-2.27a7.62,7.62,0,0,0,1-.58c.6-.38,1.19-.8,1.79-1.18s6.28-.45,5.66.78c-1.56,3.09.09,6.29.61,9.4a8.1,8.1,0,0,1-.22,3.28.9.9,0,0,1-.65.62c-1.09.2-2.07.51-1.31.91a4.32,4.32,0,0,1,1.31,1.05,2.35,2.35,0,0,1,.38,1,20.85,20.85,0,0,0,1,3.24c.11.28.32.31.47,0,1.29-2.14,1.62-3.38,4.23-2.8,1.72.39,3.47.91,5.19,1.27.29.07.33,0,.09-.21-.86-.62-1.72-1.26-2.62-1.82-.25-.16-.23-.2.06-.16,1.55.22,2-1.07,2.86-1.6.25-.15.26-.15,0-.09a14.08,14.08,0,0,1-3.93.31c-3.88-.38-5-3.54-4.4-7.18.33-1.9,2.06-8.17,4-8.93a2.15,2.15,0,0,1,2.52,1.3,6.28,6.28,0,0,1,.3,3.08,6,6,0,0,0,.35,3.07,9.93,9.93,0,0,0,1.82,2.13,2.81,2.81,0,0,1,.89,2.53,2.3,2.3,0,0,1-1.88,1.47,5.46,5.46,0,0,1-2-.09c-.29-.06-.4.1-.17.3,1.6,1.33,5.46.07,4.65,2.95-.17.59-.31,1.2-.45,1.82-.07.29.1.43.36.28a2.67,2.67,0,0,0,1.61-2.84c0-.17,6.29,1.72,6.69,1.85a11.54,11.54,0,0,0,1.58.34c.29,0,.46-.14.36-.42a2,2,0,0,0-1.59-1.51,16.69,16.69,0,0,1-2.6-.72c-.28-.1-.27-.19,0-.18,1.59.08,4.89.45,4.9-1.18a.5.5,0,0,0-.62-.43,8.18,8.18,0,0,1-1.69.23c-2.11,0-4.51.33-6.11-1.07s-1.92-4.39-1.79-6.31c.66-9.78,10.48-15.11,13.31-24.23,1.37-4.41.26-8.36-2-12.21C171.58,538,170.57,536.93,170.13,534.71Z"/></g><g class="cls-3"><path class="cls-4" d="M363.57,534.71c-.47-2.4-.43-4.9-.82-7.32-.54-3.28-1.67-6.61-4.06-8.92a8.25,8.25,0,0,0-10.72-.71c-.3.23-.39.76-.55,1.15a2.7,2.7,0,0,0-.14.4,1.47,1.47,0,0,1-.26.51l-.14.11-.07.07a3.81,3.81,0,0,1-.53.34,18,18,0,0,0-2.62,1.58,5.64,5.64,0,0,0-1.2,1.58c-.16.25-.25.49-.19.55a1.33,1.33,0,0,0,.63,0,2.66,2.66,0,0,0,.63-.17,5.33,5.33,0,0,1,7.61,4.68c.13,2.33-.91,4.56-2.09,6.58-.86,1.47-2,3.89-3.38,4.91-1.2.88-2.49.79-3.79,1.59-2.94,1.81-5,5.68-6.76,8.54s-3.19,5.72-4.95,8.48c-1.65,2.58-3.88,4.65-5.67,7a1.16,1.16,0,0,0-.12.93c.08.24.17.52.23.77a1.31,1.31,0,0,0,.57.72c1.5,1-3.54,4.89-5.13,6.2-.23.19-.16.39.13.42,4,.41,8.47-.84,12-2.27a6.59,6.59,0,0,0,1-.58c.61-.38,1.19-.8,1.8-1.18s6.28-.45,5.66.78c-1.56,3.09.09,6.29.61,9.4a7.92,7.92,0,0,1-.23,3.28.87.87,0,0,1-.65.62c-1.08.2-2.07.51-1.3.91a4.39,4.39,0,0,1,1.3,1.05,2.36,2.36,0,0,1,.39,1,18.88,18.88,0,0,0,1,3.24c.1.28.31.31.46,0,1.29-2.14,1.62-3.38,4.23-2.8,1.72.39,3.47.91,5.19,1.27.3.07.34,0,.1-.21-.87-.62-1.72-1.26-2.63-1.82-.25-.16-.23-.2.07-.16,1.55.22,1.95-1.07,2.85-1.6.26-.15.27-.15,0-.09a14.05,14.05,0,0,1-3.93.31c-3.87-.38-5-3.54-4.39-7.18.33-1.9,2.05-8.17,4-8.93a2.15,2.15,0,0,1,2.52,1.3,6.52,6.52,0,0,1,.3,3.08,6,6,0,0,0,.34,3.07,10.22,10.22,0,0,0,1.82,2.13,2.81,2.81,0,0,1,.9,2.53,2.3,2.3,0,0,1-1.88,1.47,5.45,5.45,0,0,1-2-.09c-.29-.06-.4.1-.17.3,1.59,1.33,5.46.07,4.64,2.95-.17.59-.3,1.2-.44,1.82-.07.29.09.43.35.28a2.67,2.67,0,0,0,1.61-2.84c0-.17,6.29,1.72,6.7,1.85A11.39,11.39,0,0,0,364,588c.3,0,.46-.14.36-.42a1.94,1.94,0,0,0-1.58-1.51,17.12,17.12,0,0,1-2.61-.72c-.28-.1-.26-.19,0-.18,1.59.08,4.9.45,4.91-1.18a.51.51,0,0,0-.63-.43,8.09,8.09,0,0,1-1.69.23c-2.11,0-4.51.33-6.1-1.07s-1.92-4.39-1.79-6.31c.66-9.78,10.48-15.11,13.31-24.23,1.36-4.41.25-8.36-2-12.21C365,538,364,536.93,363.57,534.71Z"/></g><g class="cls-3"><path class="cls-4" d="M554.92,534.71c-.47-2.4-.42-4.9-.82-7.32-.54-3.28-1.66-6.61-4.06-8.92a8.24,8.24,0,0,0-10.71-.71c-.31.23-.4.76-.56,1.15,0,.13-.1.26-.14.4a1.31,1.31,0,0,1-.26.51l-.13.11-.07.07a5.16,5.16,0,0,1-.54.34,18,18,0,0,0-2.62,1.58,5.61,5.61,0,0,0-1.19,1.58c-.16.25-.25.49-.2.55a1.36,1.36,0,0,0,.64,0,2.58,2.58,0,0,0,.62-.17,5.35,5.35,0,0,1,7.62,4.68,12.18,12.18,0,0,1-2.1,6.58c-.86,1.47-2,3.89-3.38,4.91-1.19.88-2.49.79-3.79,1.59-2.94,1.81-5,5.68-6.76,8.54s-3.19,5.72-5,8.48c-1.64,2.58-3.88,4.65-5.66,7a1.08,1.08,0,0,0-.12.93c.08.24.16.52.22.77a1.35,1.35,0,0,0,.57.72c1.51,1-3.54,4.89-5.12,6.2-.23.19-.17.39.13.42,4,.41,8.47-.84,12-2.27a7.62,7.62,0,0,0,1-.58c.6-.38,1.19-.8,1.79-1.18s6.28-.45,5.66.78c-1.56,3.09.09,6.29.61,9.4a8.1,8.1,0,0,1-.22,3.28.9.9,0,0,1-.65.62c-1.09.2-2.07.51-1.31.91a4.15,4.15,0,0,1,1.3,1.05,2.24,2.24,0,0,1,.39,1,19.81,19.81,0,0,0,1,3.24c.1.28.31.31.47,0,1.28-2.14,1.62-3.38,4.23-2.8,1.72.39,3.47.91,5.19,1.27.29.07.33,0,.09-.21-.86-.62-1.72-1.26-2.62-1.82-.26-.16-.23-.2.06-.16,1.55.22,2-1.07,2.86-1.6.25-.15.26-.15,0-.09a14.08,14.08,0,0,1-3.93.31c-3.88-.38-5-3.54-4.4-7.18.33-1.9,2.06-8.17,4-8.93a2.15,2.15,0,0,1,2.52,1.3,6.28,6.28,0,0,1,.3,3.08,5.9,5.9,0,0,0,.35,3.07,9.66,9.66,0,0,0,1.82,2.13,2.81,2.81,0,0,1,.89,2.53,2.3,2.3,0,0,1-1.88,1.47,5.46,5.46,0,0,1-2-.09c-.29-.06-.4.1-.17.3,1.6,1.33,5.46.07,4.65,2.95-.17.59-.31,1.2-.45,1.82-.07.29.1.43.36.28a2.68,2.68,0,0,0,1.61-2.84c0-.17,6.28,1.72,6.69,1.85a11.54,11.54,0,0,0,1.58.34c.29,0,.46-.14.35-.42a1.94,1.94,0,0,0-1.58-1.51,16.69,16.69,0,0,1-2.6-.72c-.29-.1-.27-.19,0-.18,1.59.08,4.89.45,4.9-1.18a.5.5,0,0,0-.62-.43,8.27,8.27,0,0,1-1.69.23c-2.11,0-4.51.33-6.11-1.07s-1.92-4.39-1.79-6.31c.66-9.78,10.48-15.11,13.31-24.23,1.36-4.41.26-8.36-2-12.21C556.37,538,555.36,536.93,554.92,534.71Z"/></g><g class="cls-3"><path class="cls-4" d="M748.36,534.71c-.47-2.4-.43-4.9-.82-7.32-.54-3.28-1.67-6.61-4.06-8.92a8.25,8.25,0,0,0-10.72-.71c-.3.23-.39.76-.56,1.15-.05.13-.09.26-.13.4a1.47,1.47,0,0,1-.26.51l-.14.11-.07.07a4.62,4.62,0,0,1-.53.34,18,18,0,0,0-2.62,1.58,5.64,5.64,0,0,0-1.2,1.58c-.16.25-.25.49-.19.55a1.33,1.33,0,0,0,.63,0,2.46,2.46,0,0,0,.62-.17,5.34,5.34,0,0,1,7.62,4.68c.13,2.33-.91,4.56-2.09,6.58-.86,1.47-2,3.89-3.38,4.91-1.2.88-2.49.79-3.79,1.59-2.95,1.81-5,5.68-6.76,8.54s-3.19,5.72-4.95,8.48c-1.65,2.58-3.88,4.65-5.67,7a1.12,1.12,0,0,0-.12.93c.08.24.17.52.23.77a1.31,1.31,0,0,0,.57.72c1.5,1-3.54,4.89-5.13,6.2-.23.19-.16.39.13.42,4,.41,8.47-.84,12-2.27a6.59,6.59,0,0,0,1-.58c.61-.38,1.19-.8,1.8-1.18s6.28-.45,5.66.78c-1.56,3.09.09,6.29.61,9.4a7.92,7.92,0,0,1-.23,3.28.89.89,0,0,1-.65.62c-1.08.2-2.07.51-1.3.91a4.39,4.39,0,0,1,1.3,1.05,2.36,2.36,0,0,1,.39,1,18.88,18.88,0,0,0,1,3.24c.1.28.31.31.46,0,1.29-2.14,1.62-3.38,4.23-2.8,1.72.39,3.47.91,5.19,1.27.3.07.34,0,.1-.21-.87-.62-1.72-1.26-2.63-1.82-.25-.16-.23-.2.07-.16,1.55.22,2-1.07,2.85-1.6.26-.15.27-.15,0-.09a14.05,14.05,0,0,1-3.93.31c-3.87-.38-5-3.54-4.39-7.18.33-1.9,2-8.17,4-8.93a2.15,2.15,0,0,1,2.52,1.3,6.52,6.52,0,0,1,.3,3.08,6,6,0,0,0,.34,3.07,10.22,10.22,0,0,0,1.82,2.13,2.84,2.84,0,0,1,.9,2.53,2.3,2.3,0,0,1-1.88,1.47,5.45,5.45,0,0,1-2-.09c-.29-.06-.4.1-.17.3,1.59,1.33,5.46.07,4.64,2.95-.17.59-.3,1.2-.45,1.82-.06.29.1.43.36.28a2.67,2.67,0,0,0,1.61-2.84c0-.17,6.29,1.72,6.7,1.85a11.39,11.39,0,0,0,1.57.34c.3,0,.46-.14.36-.42a1.94,1.94,0,0,0-1.59-1.51,17,17,0,0,1-2.6-.72c-.28-.1-.26-.19,0-.18,1.59.08,4.9.45,4.91-1.18a.51.51,0,0,0-.63-.43,8.09,8.09,0,0,1-1.69.23c-2.11,0-4.51.33-6.1-1.07s-1.92-4.39-1.79-6.31c.66-9.78,10.48-15.11,13.3-24.23,1.37-4.41.26-8.36-2-12.21C749.81,538,748.8,536.93,748.36,534.71Z"/></g><g class="cls-3"><circle class="cls-5" cx="154.75" cy="64.7" r="25.61"/><circle class="cls-6" cx="154.75" cy="64.7" r="18.41"/><line class="cls-6" x1="117.22" y1="64.7" x2="141.07" y2="64.7"/><line class="cls-6" x1="168.44" y1="64.7" x2="192.28" y2="64.7"/><line class="cls-6" x1="154.75" y1="27.17" x2="154.75" y2="51.01"/><line class="cls-6" x1="154.75" y1="78.38" x2="154.75" y2="102.22"/></g><g class="cls-3"><circle class="cls-5" cx="348.19" cy="64.7" r="25.61"/><circle class="cls-6" cx="348.19" cy="64.7" r="18.41"/><line class="cls-6" x1="310.66" y1="64.7" x2="334.5" y2="64.7"/><line class="cls-6" x1="361.87" y1="64.7" x2="385.71" y2="64.7"/><line class="cls-6" x1="348.19" y1="27.17" x2="348.19" y2="51.01"/><line class="cls-6" x1="348.19" y1="78.38" x2="348.19" y2="102.22"/></g><g class="cls-3"><circle class="cls-5" cx="539.54" cy="64.7" r="25.61"/><circle class="cls-6" cx="539.54" cy="64.7" r="18.41"/><line class="cls-6" x1="502.01" y1="64.7" x2="525.85" y2="64.7"/><line class="cls-6" x1="553.22" y1="64.7" x2="577.07" y2="64.7"/><line class="cls-6" x1="539.54" y1="27.17" x2="539.54" y2="51.01"/><line class="cls-6" x1="539.54" y1="78.38" x2="539.54" y2="102.22"/></g><g class="cls-3"><circle class="cls-5" cx="732.98" cy="64.7" r="25.61"/><circle class="cls-6" cx="732.98" cy="64.7" r="18.41"/><line class="cls-6" x1="695.45" y1="64.7" x2="719.29" y2="64.7"/><line class="cls-6" x1="746.66" y1="64.7" x2="770.5" y2="64.7"/><line class="cls-6" x1="732.98" y1="27.17" x2="732.98" y2="51.01"/><line class="cls-6" x1="732.98" y1="78.38" x2="732.98" y2="102.22"/></g><g class="cls-3"><circle class="cls-5" cx="248.89" cy="162.66" r="25.61"/><circle class="cls-6" cx="248.89" cy="162.66" r="18.41"/><line class="cls-6" x1="211.36" y1="162.66" x2="235.2" y2="162.66"/><line class="cls-6" x1="262.58" y1="162.66" x2="286.42" y2="162.66"/><line class="cls-6" x1="248.89" y1="125.13" x2="248.89" y2="148.98"/><line class="cls-6" x1="248.89" y1="176.35" x2="248.89" y2="200.19"/></g><g class="cls-3"><circle class="cls-5" cx="442.33" cy="162.66" r="25.61"/><circle class="cls-6" cx="442.33" cy="162.66" r="18.41"/><line class="cls-6" x1="404.8" y1="162.66" x2="428.64" y2="162.66"/><line class="cls-6" x1="456.01" y1="162.66" x2="479.85" y2="162.66"/><line class="cls-6" x1="442.33" y1="125.13" x2="442.33" y2="148.98"/><line class="cls-6" x1="442.33" y1="176.35" x2="442.33" y2="200.19"/></g><g class="cls-3"><circle class="cls-5" cx="633.68" cy="162.66" r="25.61"/><circle class="cls-6" cx="633.68" cy="162.66" r="18.41"/><line class="cls-6" x1="596.15" y1="162.66" x2="619.99" y2="162.66"/><line class="cls-6" x1="647.36" y1="162.66" x2="671.21" y2="162.66"/><line class="cls-6" x1="633.68" y1="125.13" x2="633.68" y2="148.98"/><line class="cls-6" x1="633.68" y1="176.35" x2="633.68" y2="200.19"/></g><g class="cls-3"><circle class="cls-5" cx="59.21" cy="162.66" r="25.61"/><circle class="cls-6" cx="59.22" cy="162.66" r="18.41"/><line class="cls-6" x1="21.69" y1="162.66" x2="45.53" y2="162.66"/><line class="cls-6" x1="72.9" y1="162.66" x2="96.74" y2="162.66"/><line class="cls-6" x1="59.21" y1="125.13" x2="59.21" y2="148.98"/><line class="cls-6" x1="59.21" y1="176.35" x2="59.21" y2="200.19"/></g><g class="cls-3"><circle class="cls-5" cx="154.75" cy="262.26" r="25.61"/><circle class="cls-6" cx="154.75" cy="262.26" r="18.41"/><line class="cls-6" x1="117.22" y1="262.26" x2="141.07" y2="262.26"/><line class="cls-6" x1="168.44" y1="262.26" x2="192.28" y2="262.26"/><line class="cls-6" x1="154.75" y1="224.73" x2="154.75" y2="248.57"/><line class="cls-6" x1="154.75" y1="275.94" x2="154.75" y2="299.78"/></g><g class="cls-3"><circle class="cls-5" cx="348.19" cy="262.26" r="25.61"/><circle class="cls-6" cx="348.19" cy="262.26" r="18.41"/><line class="cls-6" x1="310.66" y1="262.26" x2="334.5" y2="262.26"/><line class="cls-6" x1="361.87" y1="262.26" x2="385.71" y2="262.26"/><line class="cls-6" x1="348.19" y1="224.73" x2="348.19" y2="248.57"/><line class="cls-6" x1="348.19" y1="275.94" x2="348.19" y2="299.78"/></g><g class="cls-3"><circle class="cls-5" cx="539.54" cy="262.26" r="25.61"/><circle class="cls-6" cx="539.54" cy="262.26" r="18.41"/><line class="cls-6" x1="502.01" y1="262.26" x2="525.85" y2="262.26"/><line class="cls-6" x1="553.22" y1="262.26" x2="577.07" y2="262.26"/><line class="cls-6" x1="539.54" y1="224.73" x2="539.54" y2="248.57"/><line class="cls-6" x1="539.54" y1="275.94" x2="539.54" y2="299.78"/></g><g class="cls-3"><circle class="cls-5" cx="732.98" cy="262.26" r="25.61"/><circle class="cls-6" cx="732.98" cy="262.26" r="18.41"/><line class="cls-6" x1="695.45" y1="262.26" x2="719.29" y2="262.26"/><line class="cls-6" x1="746.66" y1="262.26" x2="770.5" y2="262.26"/><line class="cls-6" x1="732.98" y1="224.73" x2="732.98" y2="248.57"/><line class="cls-6" x1="732.98" y1="275.94" x2="732.98" y2="299.78"/></g><g class="cls-3"><circle class="cls-5" cx="248.89" cy="360.22" r="25.61"/><circle class="cls-6" cx="248.89" cy="360.22" r="18.41"/><line class="cls-6" x1="211.36" y1="360.22" x2="235.2" y2="360.22"/><line class="cls-6" x1="262.58" y1="360.22" x2="286.42" y2="360.22"/><line class="cls-6" x1="248.89" y1="322.7" x2="248.89" y2="346.54"/><line class="cls-6" x1="248.89" y1="373.91" x2="248.89" y2="397.75"/></g><g class="cls-3"><circle class="cls-5" cx="442.33" cy="360.22" r="25.61"/><circle class="cls-6" cx="442.33" cy="360.22" r="18.41"/><line class="cls-6" x1="404.8" y1="360.22" x2="428.64" y2="360.22"/><line class="cls-6" x1="456.01" y1="360.22" x2="479.85" y2="360.22"/><line class="cls-6" x1="442.33" y1="322.7" x2="442.33" y2="346.54"/><line class="cls-6" x1="442.33" y1="373.91" x2="442.33" y2="397.75"/></g><g class="cls-3"><circle class="cls-5" cx="633.68" cy="360.22" r="25.61"/><circle class="cls-6" cx="633.68" cy="360.22" r="18.41"/><line class="cls-6" x1="596.15" y1="360.22" x2="619.99" y2="360.22"/><line class="cls-6" x1="647.36" y1="360.22" x2="671.21" y2="360.22"/><line class="cls-6" x1="633.68" y1="322.7" x2="633.68" y2="346.54"/><line class="cls-6" x1="633.68" y1="373.91" x2="633.68" y2="397.75"/></g><g class="cls-3"><circle class="cls-5" cx="59.21" cy="360.22" r="25.61"/><circle class="cls-6" cx="59.22" cy="360.22" r="18.41"/><line class="cls-6" x1="21.69" y1="360.22" x2="45.53" y2="360.22"/><line class="cls-6" x1="72.9" y1="360.22" x2="96.74" y2="360.22"/><line class="cls-6" x1="59.21" y1="322.7" x2="59.21" y2="346.54"/><line class="cls-6" x1="59.21" y1="373.91" x2="59.21" y2="397.75"/></g><g class="cls-3"><circle class="cls-5" cx="154.75" cy="455.68" r="25.61"/><circle class="cls-6" cx="154.75" cy="455.68" r="18.41"/><line class="cls-6" x1="117.22" y1="455.68" x2="141.07" y2="455.68"/><line class="cls-6" x1="168.44" y1="455.68" x2="192.28" y2="455.68"/><line class="cls-6" x1="154.75" y1="418.15" x2="154.75" y2="441.99"/><line class="cls-6" x1="154.75" y1="469.36" x2="154.75" y2="493.2"/></g><g class="cls-3"><circle class="cls-5" cx="348.19" cy="455.68" r="25.61"/><circle class="cls-6" cx="348.19" cy="455.68" r="18.41"/><line class="cls-6" x1="310.66" y1="455.68" x2="334.5" y2="455.68"/><line class="cls-6" x1="361.87" y1="455.68" x2="385.71" y2="455.68"/><line class="cls-6" x1="348.19" y1="418.15" x2="348.19" y2="441.99"/><line class="cls-6" x1="348.19" y1="469.36" x2="348.19" y2="493.2"/></g><g class="cls-3"><circle class="cls-5" cx="539.54" cy="455.68" r="25.61"/><circle class="cls-6" cx="539.54" cy="455.68" r="18.41"/><line class="cls-6" x1="502.01" y1="455.68" x2="525.85" y2="455.68"/><line class="cls-6" x1="553.22" y1="455.68" x2="577.07" y2="455.68"/><line class="cls-6" x1="539.54" y1="418.15" x2="539.54" y2="441.99"/><line class="cls-6" x1="539.54" y1="469.36" x2="539.54" y2="493.2"/></g><g class="cls-3"><circle class="cls-5" cx="732.98" cy="455.68" r="25.61"/><circle class="cls-6" cx="732.98" cy="455.68" r="18.41"/><line class="cls-6" x1="695.45" y1="455.68" x2="719.29" y2="455.68"/><line class="cls-6" x1="746.66" y1="455.68" x2="770.5" y2="455.68"/><line class="cls-6" x1="732.98" y1="418.15" x2="732.98" y2="441.99"/><line class="cls-6" x1="732.98" y1="469.36" x2="732.98" y2="493.2"/></g><g class="cls-3"><circle class="cls-5" cx="248.89" cy="553.64" r="25.61"/><circle class="cls-6" cx="248.89" cy="553.64" r="18.41"/><line class="cls-6" x1="211.36" y1="553.64" x2="235.2" y2="553.64"/><line class="cls-6" x1="262.58" y1="553.64" x2="286.42" y2="553.64"/><line class="cls-6" x1="248.89" y1="516.11" x2="248.89" y2="539.96"/><line class="cls-6" x1="248.89" y1="567.33" x2="248.89" y2="591.17"/></g><g class="cls-3"><circle class="cls-5" cx="442.33" cy="553.64" r="25.61"/><circle class="cls-6" cx="442.33" cy="553.64" r="18.41"/><line class="cls-6" x1="404.8" y1="553.64" x2="428.64" y2="553.64"/><line class="cls-6" x1="456.01" y1="553.64" x2="479.85" y2="553.64"/><line class="cls-6" x1="442.33" y1="516.11" x2="442.33" y2="539.96"/><line class="cls-6" x1="442.33" y1="567.33" x2="442.33" y2="591.17"/></g><g class="cls-3"><circle class="cls-5" cx="633.68" cy="553.64" r="25.61"/><circle class="cls-6" cx="633.68" cy="553.64" r="18.41"/><line class="cls-6" x1="596.15" y1="553.64" x2="619.99" y2="553.64"/><line class="cls-6" x1="647.36" y1="553.64" x2="671.21" y2="553.64"/><line class="cls-6" x1="633.68" y1="516.11" x2="633.68" y2="539.96"/><line class="cls-6" x1="633.68" y1="567.33" x2="633.68" y2="591.17"/></g><g class="cls-3"><circle class="cls-5" cx="59.21" cy="553.64" r="25.61"/><circle class="cls-6" cx="59.22" cy="553.64" r="18.41"/><line class="cls-6" x1="21.69" y1="553.64" x2="45.53" y2="553.64"/><line class="cls-6" x1="72.9" y1="553.64" x2="96.74" y2="553.64"/><line class="cls-6" x1="59.21" y1="516.11" x2="59.21" y2="539.96"/><line class="cls-6" x1="59.21" y1="567.33" x2="59.21" y2="591.17"/></g></g></g></svg>