<svg id="Layer_1" data-name="Layer 1" xmlns="http://www.w3.org/2000/svg" viewBox="0 0 559 559"><defs><style>.cls-1{fill:#acacaf;}.cls-2{fill:#282827;}.cls-3{fill:#e25988;}.cls-4{fill:#d0d2d3;}.cls-5{fill:#0c1126;}.cls-6{fill:#e2e2e2;}.cls-7{fill:#231f20;}.cls-8{fill:#6dcbdc;}.cls-9{fill:#9c732a;}.cls-10{fill:#d78e28;}.cls-11{fill:#818282;}.cls-12{fill:#e0e0e0;}.cls-13{fill:#e22e57;}.cls-14{fill:#fff;}.cls-15{fill:#424243;}.cls-16{fill:#e5e5e4;}</style></defs><path class="cls-1" d="M225.58,236.64s-29.66-24.5-37.33-66.1c-14.67-42.63-49.67-49.91-66.67-27-7,57.51,8.89,105,10.45,108.15S225.58,236.64,225.58,236.64Z"/><path class="cls-2" d="M208.58,371a13.8,13.8,0,0,1-3.61.92c11,1.36,20.61,2.08,20.61,2.08l-11.09-7A14.71,14.71,0,0,1,208.58,371Z"/><path class="cls-2" d="M208.58,371a14.71,14.71,0,0,0,5.91-4L187.21,349.9c1,9.34,5.42,18.59,12.26,21.32l5.5.72A13.8,13.8,0,0,0,208.58,371Z"/><path class="cls-3" d="M234.92,388.49s.64,3.84.19,4.68a27.61,27.61,0,0,0-1.2,3.55s-2.58,2.84-2.38,5c.14,1.51-1.2,3.85-2.17,5.33a35.9,35.9,0,0,1,4.14,1.07,3.88,3.88,0,0,1,.8-2.05c2-2.61,3.08-2.74,3.08-2.74a5.7,5.7,0,0,0,.59-1.47c.06-.49,1-2.62,1.31-2.68s.16-5.26.16-5.26l.35-4.49Z"/><path class="cls-3" d="M244,413.9c-.52-1.13-1.89-1.53-3.11-1.81a14.72,14.72,0,0,1-4.44-1.53c-1.28-.55-2.65-1.33-2.78-2.86a19,19,0,0,1-4.18-.88c-4.24,4.84-11.56,1.18-17,3.2a3.8,3.8,0,0,1,2,4.57c3-.16,10.84.53,10.55,4.57a13.09,13.09,0,0,0,5.38-1.06,31.75,31.75,0,0,1,3.42-2.07c2.92-1,5.74,1,8.45,1.77a1.33,1.33,0,0,0,.81.05c.42-.15.6-.64.73-1.07A4.1,4.1,0,0,0,244,413.9Z"/><path class="cls-4" d="M243.59,413.24c4.26,3.22,4.71,5.83,4.71,5.83s-3.91-.95-6.23-1.2C244.23,417.5,243.59,413.24,243.59,413.24Z"/><path class="cls-4" d="M212.82,409.63c-3.74-1.15-5.47,3.42-8.1,5.09a22.61,22.61,0,0,0,9.55-.13,1.1,1.1,0,0,0,.66-.33,1,1,0,0,0,.1-.87,7.31,7.31,0,0,0-2.12-3.89"/><path class="cls-4" d="M220.87,414.76c-4.35.24-4.06,5.15-6,7.87a25.55,25.55,0,0,0,11.73-2.89c.33-.17.68-.37.73-.7s-.33-.82-.7-1.17a13.85,13.85,0,0,0-5.75-3.26"/><path class="cls-5" d="M222.49,370a.52.52,0,0,0-.47.77c2.17,3.94,11.79,21.21,13.56,21.21a12.06,12.06,0,0,0,4.08-.89S264.58,375,260.58,373C257,371.21,228,370.22,222.49,370Z"/><path class="cls-1" d="M362.78,386.22c34.64-3.34,64-9.61,79.68-15.13,0,0-27.61-25.88-64.46-55"/><path class="cls-2" d="M143.72,244.65c-2.23.63-4.19,1.2-5.82,1.7,2.11,0,4.23-.12,6.33-.28A3,3,0,0,1,143.72,244.65Z"/><path class="cls-2" d="M151.06,245.26l-.22.16.28,0Z"/><path class="cls-6" d="M188.52,340c1.72-4.7,5.06-7.64,10-7.14.66-31.87-.38-63.6-5.28-94.74l-.3.05c-9.54,2.54-19.05,5.73-27.89,6.18a2.63,2.63,0,0,1-2.71,1.24l-.35-.05a2.43,2.43,0,0,1-2.41,1.93,2.31,2.31,0,0,1-1.67-.66,2.56,2.56,0,0,1-.57.06,2.38,2.38,0,0,1-2.25-1.5l-.26,0a2.33,2.33,0,0,1-1.49.51c-.12,0-.24,0-.35,0a2.36,2.36,0,0,1-2.16,1.29,2.31,2.31,0,0,1-2-1.12q-2.9.24-5.81.28c-3.22,1.06-5.07,1.74-5.07,1.74-7.53,61.61,17.48,97.88,55.73,118.1C189,359.59,186.93,348.65,188.52,340Z"/><path class="cls-6" d="M197.58,359q.64-13.08.95-26.14c-5.42-.5-9.07,2.44-10.95,7.14-1.72,8.63.53,19.57,5.61,26.17.63.3,1.25.62,1.89.92A13.26,13.26,0,0,0,197.58,359Z"/><path class="cls-2" d="M230.45,236.14a99.54,99.54,0,0,0-21.15-2c.41.3.81.62,1.21,1a103.5,103.5,0,0,0-17.75,3v0l.81-.12-.81.12c5.34,31.14,6.47,62.87,5.76,94.74.34,0,.69.08,1.05.14-.36-.06-.71-.11-1.05-.14q-.3,13.06-.95,26.14a13.26,13.26,0,0,1-2.5,8.09c3.57,1.66,7.25,3.21,11,4.65a14,14,0,0,0,2.49-.74c18-7,5-31-9-39,14,8,27,32,9,39a14,14,0,0,1-2.49.74c46.72,18,107.12,19.23,156.68,14.46L378,316.11C331.14,279.11,269.36,236.91,230.45,236.14Z"/><path class="cls-2" d="M192.76,238.11l-.32.08.33-.05Z"/><path class="cls-3" d="M289.11,402a1.82,1.82,0,0,0-1.78,2.32,7.86,7.86,0,0,1,.49,3.09,27.32,27.32,0,0,0-.59,4c-.44,1.61-2.38,4.17-1.7,6.83a8.64,8.64,0,0,1-.53,4.45,1.82,1.82,0,0,0,1.62,2.36l.85.06a1.82,1.82,0,0,0,1.9-1.41,6.27,6.27,0,0,1,.37-1,10.16,10.16,0,0,1,2.54-3.61,2.62,2.62,0,0,0,.82-2.13c0-.59.58-3.29.94-3.44s-.79-5.36-1-6.1l0-.18-.4-3.65a1.82,1.82,0,0,0-1.79-1.62Z"/><path class="cls-3" d="M302.84,429.72c-.86-1.21-2.56-1.38-4-1.44a17.38,17.38,0,0,1-5.54-.81,5.48,5.48,0,0,1-3.52-1.89,1.74,1.74,0,0,0-1.52-.77,21.55,21.55,0,0,1-3.94-.18c-2,3.78-6.56,4.56-10.58,5.16a42.1,42.1,0,0,0-5.31,1,1.81,1.81,0,0,0-.92,2.86,4.38,4.38,0,0,1,.89,1.64,1.85,1.85,0,0,0,2.06,1.35c3.2-.39,9-.81,11,2.12a1.86,1.86,0,0,0,2.08.86,12.18,12.18,0,0,0,4.37-2c1.26-1,2.18-2.37,3.55-3.18,3.2-1.86,6.94-.15,10.29.19a1.6,1.6,0,0,0,1-.12,1.8,1.8,0,0,0,.61-1.42A5,5,0,0,0,302.84,429.72Z"/><path class="cls-4" d="M305.65,431.12a1.89,1.89,0,0,1-1.09,3.58C301.35,434.46,302.85,429.39,305.65,431.12Z"/><path class="cls-4" d="M265.35,431.62a4.46,4.46,0,0,0-3.67,1.26,14.19,14.19,0,0,0-2.51,3.52,1.83,1.83,0,0,0,1.85,2.73,26.78,26.78,0,0,0,7.13-2,1.35,1.35,0,0,0,.7-.54,1.25,1.25,0,0,0-.07-1,8.69,8.69,0,0,0-3.36-4.09"/><path class="cls-4" d="M275.92,435.85c-3.19.78-4,3.69-4.3,6.51-.06.42-.11.84-.18,1.26a1.83,1.83,0,0,0,2.35,2,31.86,31.86,0,0,0,9.95-5.23c.36-.28.72-.59.7-1s-.56-.88-1.08-1.21a16.31,16.31,0,0,0-7.46-2.55"/><path class="cls-7" d="M160,155c-2.62-1-5.48-1.69-8-.11a15,15,0,0,0-3.34,3.07c-1.18,1.36-3.09,3.11-5.05,2.84-.63-.08-.9.88-.27,1,3.82.51,5.88-3.51,8.45-5.52a5.81,5.81,0,0,1,3.42-1.34,11.77,11.77,0,0,1,4.55,1c.6.24.86-.73.26-1Z"/><path class="cls-8" d="M150.44,158.31c-2.18,3.28,3,10,6.85,8.68,1.78-.55,8.76-2.51,5-8.41C159.09,154.4,154.58,152.78,150.44,158.31Z"/><path class="cls-7" d="M150.12,158.12c-1.5,2.35.14,5.49,1.83,7.25a6.82,6.82,0,0,0,3.46,2.08,5.54,5.54,0,0,0,2.9-.39c2-.66,4.24-1.7,5.11-3.72,1.26-2.93-1.29-6.06-3.54-7.65a6.31,6.31,0,0,0-4.76-1.2,8.6,8.6,0,0,0-5,3.63c-.3.39.35.76.64.38a8.16,8.16,0,0,1,4.14-3.19,5.2,5.2,0,0,1,3.91.59c2.15,1.22,4.83,4.06,4.06,6.76-.53,1.85-2.55,2.87-4.21,3.48a9,9,0,0,1-2.19.64,4.71,4.71,0,0,1-3.2-1.22c-1.82-1.47-4-4.71-2.51-7.06C151,158.09,150.37,157.72,150.12,158.12Z"/><path class="cls-7" d="M158.92,155.93a10.89,10.89,0,0,1,3.14,3.31,4.83,4.83,0,0,1-.23,4.74c-2,3.37-6.11,3.32-9.55,3.13-.64,0-.64,1,0,1a17.34,17.34,0,0,0,6.34-.44,7.26,7.26,0,0,0,4.17-3.34,5.83,5.83,0,0,0,.36-5.1,10.57,10.57,0,0,0-3.53-4c-.5-.39-1.21.32-.7.71Z"/><path class="cls-7" d="M163.49,163a6,6,0,0,1,4.61-3.72.52.52,0,0,0,.5-.5c0-.25-.23-.54-.5-.5a7,7,0,0,0-5.57,4.46.49.49,0,0,0,.35.61.5.5,0,0,0,.61-.35Z"/><path class="cls-7" d="M168,158.4c-3.44-1.65-6.85-4-10.75-4.4a6.34,6.34,0,0,0-4.23,1,23.81,23.81,0,0,0-3.16,2.87,7.94,7.94,0,0,1-4.18,2.48c-.64.09-.37,1.06.26,1,2.86-.44,4.59-2.88,6.61-4.67a5.79,5.79,0,0,1,3.69-1.7,12.33,12.33,0,0,1,5.41,1.35c2,.9,3.87,2,5.84,2.94.58.28,1.09-.58.51-.86Z"/><path class="cls-7" d="M160.28,156.05a10.65,10.65,0,0,1,2.91,4.41.51.51,0,0,0,.84.22,5.84,5.84,0,0,1,2.18-1.4c.49-.17.46-1.05-.13-1a2.9,2.9,0,0,1-3.21-1.53l-.73.57,2.62,1.33.39-.91c-2.88-1.14-5.71-3.75-9-3.36-2.69.31-4.31,3-7,3.34-.63.07-.64,1.07,0,1a7.53,7.53,0,0,0,3.46-1.48,9.46,9.46,0,0,1,3.33-1.83,7.28,7.28,0,0,1,4.53,1.08c1.46.75,2.85,1.6,4.38,2.21.53.21.89-.66.39-.91l-2.63-1.34c-.34-.17-.91.13-.73.57a3.82,3.82,0,0,0,4.17,2.26l-.14-1a6.77,6.77,0,0,0-2.62,1.66l.84.22a11.71,11.71,0,0,0-3.17-4.86c-.48-.43-1.19.28-.71.71Z"/><path class="cls-7" d="M163.8,159.71a.5.5,0,0,0,0-1,.5.5,0,0,0,0,1Z"/><path class="cls-7" d="M163,161.94a.5.5,0,0,0,0-1,.5.5,0,0,0,0,1Z"/><path class="cls-7" d="M121.44,157.88c.7-.63,1.67-1.49,2.7-1.41a2.91,2.91,0,0,1,1.85,1.28c.75.91,1.3,2,2.11,2.84s1.76,1.54,2.87,1.14c.6-.22.34-1.19-.27-1-1.19.43-2.28-1.27-2.82-2.08a11.26,11.26,0,0,0-2-2.46,2.84,2.84,0,0,0-2.27-.72,5.92,5.92,0,0,0-2.9,1.67c-.48.43.23,1.13.71.71Z"/><path class="cls-8" d="M126.71,159.22c1.16,2-.55,8.44-3.27,7.88-1-.3-4.72-1.3-3.36-6.51C121.43,156.41,124,154.3,126.71,159.22Z"/><path class="cls-7" d="M126.39,159.41a3.9,3.9,0,0,1,.3,2.11,9.52,9.52,0,0,1-.59,2.69c-.41,1.1-1.33,2.91-2.78,2.46a4.41,4.41,0,0,1-2.73-2c-1-2-.17-4.6.93-6.36.45-.72,1.17-1.62,2.13-1.52,1.29.13,2.17,1.67,2.74,2.66.23.42.88,0,.64-.38a5.92,5.92,0,0,0-2.8-2.91,2.46,2.46,0,0,0-2.54.72,8.55,8.55,0,0,0-1.86,3.31,7,7,0,0,0-.26,3.89,4.76,4.76,0,0,0,3.19,3.23,2.33,2.33,0,0,0,1.85,0,4,4,0,0,0,1.77-1.92,9.84,9.84,0,0,0,1-3.44A4.91,4.91,0,0,0,127,159,.37.37,0,0,0,126.39,159.41Z"/><path class="cls-7" d="M121,157.31a11.27,11.27,0,0,0-1.51,3.57,7.28,7.28,0,0,0,.42,4.1,5.13,5.13,0,0,0,2.11,2.55,5.9,5.9,0,0,0,4.2.17c.63-.14.36-1.1-.27-1a4.72,4.72,0,0,1-3.6-.17,4.36,4.36,0,0,1-1.63-2.27c-.82-2.31,0-4.47,1.14-6.49a.5.5,0,0,0-.86-.5Z"/><path class="cls-7" d="M120.6,164.17c-.63-1.52-1.81-3.29-3.64-3.36a.51.51,0,0,0-.5.5.51.51,0,0,0,.5.5h.13l.21,0,.22.07h0l.1.05a3.18,3.18,0,0,1,.4.23l.1.08c-.09-.07,0,0,0,0l.2.18a3.88,3.88,0,0,1,.39.42s.09.12,0,0l.08.12.17.24a7.94,7.94,0,0,1,.58,1.11.51.51,0,0,0,.62.35.5.5,0,0,0,.35-.61Z"/><path class="cls-7" d="M117.51,161.67c1.15-1.25,2.17-2.64,3.43-3.78.92-.82,2.25-1.72,3.43-.88,1.81,1.31,2.57,4.36,5.1,4.58.64,0,.63-1,0-1-1.17-.1-2-1.46-2.64-2.3a6.4,6.4,0,0,0-2.66-2.5c-1.36-.48-2.74.37-3.74,1.22a46.93,46.93,0,0,0-3.63,4c-.44.47.27,1.18.71.71Z"/><path class="cls-7" d="M120.25,157.56a12.86,12.86,0,0,0-1.25,4.68l.85-.36a4,4,0,0,0-1.68-1.23l-.13,1c1.43,0,2.14-1.28,2.28-2.53.06-.43-.58-.66-.85-.36l-1.28,1.45a.5.5,0,0,0,.71.7,28.14,28.14,0,0,0,2.12-2.38c.53-.6,1.37-1.56,2.27-1.43s1.38.87,1.92,1.34a3.48,3.48,0,0,0,2.23,1.1.5.5,0,0,0,0-1c-.86,0-1.53-.82-2.13-1.35a3.33,3.33,0,0,0-2.28-1.1,4.09,4.09,0,0,0-2.54,1.53c-.78.85-1.44,1.81-2.3,2.59l.71.7,1.28-1.44-.86-.35c-.08.71-.45,1.54-1.28,1.53-.6,0-.64.79-.13,1a3.16,3.16,0,0,1,1.24,1c.3.36.81,0,.85-.35a11.68,11.68,0,0,1,1.11-4.18c.29-.57-.57-1.08-.86-.5Z"/><path class="cls-7" d="M119.31,161.79a.5.5,0,0,0,0-1,.5.5,0,0,0,0,1Z"/><path class="cls-7" d="M118.71,161.2a.5.5,0,0,0,0-1,.5.5,0,0,0,0,1Z"/><path class="cls-7" d="M118.36,161.29a.5.5,0,0,0,0-1,.5.5,0,0,0,0,1Z"/><path class="cls-7" d="M120,163.61a.5.5,0,0,0,0-1,.5.5,0,0,0,0,1Z"/><path class="cls-9" d="M126.34,187.77c8.81,1,21-.44,20.15-6.53S126.34,187.77,126.34,187.77Z"/><path class="cls-10" d="M147.57,177.23s-6.49-14.24-20.77-6.75c-8.32,8.7-6.61,16.77-6.61,16.77,1.89,3.07,12.07-1.57,12.07-1.57S148.25,186.26,147.57,177.23Z"/><path class="cls-11" d="M366.07,363c41.25,6,75.39,9.06,75.39,9.06s-24.22-24-57.89-51.86"/><path class="cls-2" d="M366.07,363c-58.81-8.55-132.08-23-141.49-43-16-34,31-79,31-79,40.69,12.15,90.27,48,128,79.21"/><path class="cls-2" d="M275.49,386a.52.52,0,0,0-.47.77c2.17,3.94,11.79,21.21,13.56,21.21a12.06,12.06,0,0,0,4.08-.89S317.58,391,313.58,389C310,387.21,281,386.22,275.49,386Z"/><polygon class="cls-6" points="197.36 345.87 215.43 375.2 195.08 367.11 197.36 345.87"/><path class="cls-12" d="M383.36,319.24l8,6.67S378.58,364,376.58,364s-11.44-1.45-11.44-1.45Z"/><path class="cls-13" d="M153,245.9s-2.31,12.31,4.92,18.38c5.06-.6,5.71-1.86,5.71-1.86s3.54-8.51,2-10.1-3.73-8.25-4.68-7.94S154.6,244.33,153,245.9Z"/><path class="cls-13" d="M157.63,262.69s-.87,36.21,1.38,39c3.86,9.71,12,22.05,16.2,24.7,4.46-6.41,2.77-14.3,2.77-14.3-8.14-24.39-15.28-48.86-15.37-49.85S157.63,262.69,157.63,262.69Z"/><path class="cls-14" d="M128.25,240.24s21.08,5.54,24.33,5.66C151.28,257,150.37,258,150.37,258s-17.78-6.11-18.89-7.56S128.25,240.24,128.25,240.24Z"/><path class="cls-14" d="M213.36,224.68s-49.38,19.06-51.78,19.7c4.76,5.64,5.78,11.64,8.85,11.64s53.15-21.56,53.15-21.56Z"/><path class="cls-15" d="M213.58,224.68s-19.22,6.45-21.11,8.89S179.58,349,213.58,371c-9-44,4-82,4-82l-17-6c18,0,18-4,18-4l5-44.56Z"/><path class="cls-15" d="M127.77,238.1l8.55,3.85S166.83,342.81,162,344.45s-30.36-41.25-29.32-49.22l6.3-2.29c-3.15-2.39-9.53-4.19-9.54-6.23S126.33,241.19,127.77,238.1Z"/><path class="cls-2" d="M127.36,236.86c-39.58,3.23-82.1,17.23-78.83,26a3.12,3.12,0,0,0,.94,1.22l78.22-25.89A3.07,3.07,0,0,1,127.36,236.86Z"/><path class="cls-15" d="M129,238c-38.17,3.17-78.9,14.78-79.7,27.42,19.44,7.58,56,10.58,79.72,3.23A137.67,137.67,0,0,1,129,238Z"/><path class="cls-11" d="M151.67,362.16a230.8,230.8,0,0,0,11.4-40.88c2.81-14.86,4.33-29.51,4.17-40.95-.24-15.9-3.73-25.57-11.57-20.91A56.82,56.82,0,0,1,141.4,265"/><path class="cls-2" d="M151.67,362.16c-5.37,13.51-11.81,23.76-18.79,26.86C71.32,351.17,46.25,265.15,46.25,265.15l3.22-1.07c8.14,6.86,61.21,8.95,91.93.87"/><path class="cls-16" d="M126.25,267.91c3,13.11,16.44,113.22,14.22,114.66,5.78-7.55,11.41-21.11,11.41-21.11L142.25,265Z"/></svg>