<svg id="Layer_1" data-name="Layer 1" xmlns="http://www.w3.org/2000/svg" viewBox="0 0 559 559"><defs><style>.cls-1{fill:#adacaf;}.cls-2{fill:#282828;}.cls-3{fill:#e35a89;}.cls-4{fill:#d1d3d4;}.cls-5{fill:#0d1127;}.cls-6{fill:#e2e2e2;}.cls-7{fill:#231f20;}.cls-8{fill:#6dccdd;}.cls-9{fill:#9d732a;}.cls-10{fill:#d78e28;}.cls-11{fill:#828282;}.cls-12{fill:#e0e0e0;}.cls-13{fill:#e32e57;}.cls-14{fill:#fff;}.cls-15{fill:#434343;}</style></defs><g id="Layer_1-2" data-name="Layer 1"><path class="cls-1" d="M132,251.68c-1.55-3.15-17.44-50.64-10.44-108.15,17-22.92,52-15.64,66.67,27,7.66,41.59,37.33,66.09,37.33,66.09S133.57,254.83,132,251.68Z"/><path class="cls-2" d="M214.48,367l11.1,7s-9.62-.72-20.62-2.08a13.76,13.76,0,0,0,3.62-.92A14.66,14.66,0,0,0,214.48,367Z"/><path class="cls-2" d="M199.43,371.2c-8-1.11-16.09-2.54-21.37-4.27-3.32.39-24-37.86-24-37.86l33.11,20.81C188.17,359.22,192.63,368.47,199.43,371.2Z"/><path class="cls-2" d="M204.92,371.92c-1.8-.22-3.64-.46-5.49-.72-6.84-2.73-11.26-12-12.26-21.32L214.48,367a14.66,14.66,0,0,1-5.9,4A14,14,0,0,1,204.92,371.92Z"/><path class="cls-3" d="M239.79,389.51l-.35,4.5s.15,5.19-.16,5.25a6.92,6.92,0,0,0-1.31,2.68,6.13,6.13,0,0,1-.6,1.48s-1.12.12-3.07,2.73a3.86,3.86,0,0,0-.8,2,39.29,39.29,0,0,0-4.14-1.07c1-1.47,2.31-3.82,2.17-5.32-.2-2.22,2.37-5.06,2.37-5.06a29.69,29.69,0,0,1,1.21-3.55c.45-.84-.19-4.68-.19-4.68Z"/><path class="cls-3" d="M243.84,416.76c-.13.43-.31.92-.73,1.07a1.32,1.32,0,0,1-.81-.05c-2.71-.76-5.53-2.76-8.46-1.76a28.94,28.94,0,0,0-3.41,2.07,13.24,13.24,0,0,1-5.38,1.05c.28-4-7.55-4.72-10.55-4.57a3.8,3.8,0,0,0-2-4.57c5.44-2,12.76,1.64,17-3.2a18.54,18.54,0,0,0,4.17.88c.14,1.54,1.5,2.31,2.79,2.86a14.63,14.63,0,0,0,4.44,1.53c1.22.28,2.59.69,3.11,1.82A4.23,4.23,0,0,1,243.84,416.76Z"/><path class="cls-4" d="M242.07,417.86a59.87,59.87,0,0,1,6.22,1.2s-.44-2.62-4.7-5.83C243.59,413.23,244.23,417.48,242.07,417.86Z"/><path class="cls-4" d="M212.9,409.49a7.26,7.26,0,0,1,2.13,3.88,1,1,0,0,1-.1.87,1.13,1.13,0,0,1-.66.33,22.61,22.61,0,0,1-9.55.14c2.63-1.68,4.36-6.25,8.1-5.09"/><path class="cls-4" d="M220.88,414.59a13.79,13.79,0,0,1,5.74,3.27c.38.35.76.83.71,1.16s-.4.53-.73.7a25.6,25.6,0,0,1-11.73,2.9c1.94-2.73,1.64-7.64,6-7.88"/><path class="cls-5" d="M260.58,373c4,2-20.92,18.12-20.92,18.12a12.17,12.17,0,0,1-4.08.88c-1.77,0-11.41-17.27-13.56-21.24a.5.5,0,0,1-.07-.27.51.51,0,0,1,.53-.49C228,370.2,257,371.19,260.58,373Z"/><path class="cls-1" d="M378,316.08c36.84,29.11,64.46,55,64.46,55-15.69,5.52-45,11.78-79.69,15.12"/><path class="cls-2" d="M144.23,246.06q-3.16.27-6.33.27c1.63-.49,3.59-1.07,5.82-1.69A3,3,0,0,0,144.23,246.06Z"/><path class="cls-2" d="M151.12,245.41h-.28l.22-.17Z"/><path class="cls-6" d="M193.62,366.11c-38.25-20.21-63.26-56.49-55.73-118.1,0,0,1.85-.68,5.07-1.74,1.94,0,3.88-.12,5.8-.27a2.39,2.39,0,0,0,.89.81,2.46,2.46,0,0,0,3.33-1,2,2,0,0,0,.35,0,2.35,2.35,0,0,0,1.49-.5h.26a2.36,2.36,0,0,0,2.25,1.51,2.78,2.78,0,0,0,.57-.07,2.31,2.31,0,0,0,1.67.66,2.42,2.42,0,0,0,2.41-1.93l.35,0a2.63,2.63,0,0,0,2.71-1.23c8.84-.46,18.35-3.65,27.89-6.19h.3c4.9,31.14,5.94,62.88,5.28,94.75-4.93-.5-8.27,2.43-10,7.13C186.93,348.63,189,359.57,193.62,366.11Z"/><path class="cls-6" d="M195.08,367.09c-.64-.3-1.26-.61-1.89-.92-5.08-6.6-7.34-17.54-5.61-26.17,1.88-4.7,5.53-7.63,10.95-7.13q-.32,13-.95,26.13A13.24,13.24,0,0,1,195.08,367.09Z"/><path class="cls-2" d="M378,316.09,362.77,386.2c-49.6,4.8-110,3.54-156.69-14.45a15.62,15.62,0,0,0,2.5-.75c18-7,5-31-9-39,14,8,27,32,9,39a15.62,15.62,0,0,1-2.5.75c-3.75-1.45-7.44-3-11-4.66a13.24,13.24,0,0,0,2.5-8.09q.64-13.12.95-26.13c.34,0,.69.07,1.05.13a6.54,6.54,0,0,0-1.05-.13c.71-31.87-.42-63.61-5.77-94.75l.82-.12-.82.12h0a103.67,103.67,0,0,1,17.75-3,13.72,13.72,0,0,0-1.22-1,99.58,99.58,0,0,1,21.16,2C269.36,236.89,331.17,279.09,378,316.09Z"/><path class="cls-2" d="M192.76,238.17h-.32l.32-.08Z"/><path class="cls-3" d="M290.87,402a1.82,1.82,0,0,1,1.77,1.58l.4,3.65a.54.54,0,0,0,0,.18c.21.74,1.36,6,1,6.11s-.94,2.85-.94,3.43a2.66,2.66,0,0,1-.82,2.13,10.3,10.3,0,0,0-2.54,3.61,5,5,0,0,0-.37,1,1.85,1.85,0,0,1-1.9,1.42l-.85-.07a2.36,2.36,0,0,1-.45-.08,1.81,1.81,0,0,1-1.17-2.28,8.64,8.64,0,0,0,.53-4.44c-.68-2.66,1.25-5.22,1.69-6.84a29.92,29.92,0,0,1,.6-4,8.06,8.06,0,0,0-.49-3.08,1.88,1.88,0,0,1-.07-.53,1.81,1.81,0,0,1,1.85-1.79Z"/><path class="cls-3" d="M303.37,433.08a1.77,1.77,0,0,1-.62,1.41,1.57,1.57,0,0,1-1,.13c-3.35-.34-7.1-2.06-10.3-.2-1.36.81-2.28,2.18-3.54,3.18a12.23,12.23,0,0,1-4.37,2,1.84,1.84,0,0,1-2.08-.85c-2-2.94-7.8-2.52-11-2.12a1.86,1.86,0,0,1-2.06-1.36,4.68,4.68,0,0,0-.89-1.64,1.74,1.74,0,0,1-.32-.62,1.82,1.82,0,0,1,1.24-2.24,41.74,41.74,0,0,1,5.31-1c4-.6,8.58-1.37,10.58-5.16a21.59,21.59,0,0,0,3.94.19,1.71,1.71,0,0,1,1.52.76,5.36,5.36,0,0,0,3.52,1.89,17.06,17.06,0,0,0,5.54.81c1.44.06,3.13.23,4,1.44A5,5,0,0,1,303.37,433.08Z"/><path class="cls-4" d="M304.56,434.69a1.89,1.89,0,0,0,1.09-3.59C302.85,429.38,301.35,434.44,304.56,434.69Z"/><path class="cls-4" d="M265.42,431.5a8.54,8.54,0,0,1,3.35,4.08,1.29,1.29,0,0,1,.08,1,1.42,1.42,0,0,1-.7.53,26.74,26.74,0,0,1-7.13,2,1.84,1.84,0,0,1-1.86-2.73,14.36,14.36,0,0,1,2.52-3.51,4.42,4.42,0,0,1,3.67-1.26"/><path class="cls-4" d="M275.9,435.61a16.58,16.58,0,0,1,7.46,2.55c.52.33,1.06.79,1.08,1.21s-.35.73-.7,1a31.85,31.85,0,0,1-9.95,5.23,1.75,1.75,0,0,1-.79.06,1.83,1.83,0,0,1-1.56-2.06c.06-.42.12-.84.17-1.26.3-2.81,1.12-5.73,4.3-6.51"/><path class="cls-7" d="M159.68,155.93c.6.2.86-.76.27-1-2.6-1-5.46-1.68-8-.11a15.52,15.52,0,0,0-3.35,3.07c-1.13,1.36-3,3.11-5,2.85-.63-.05-.9.92-.27,1,3.82.48,5.87-3.52,8.45-5.52a5.84,5.84,0,0,1,3.41-1.34,11.92,11.92,0,0,1,4.55,1.06Z"/><path class="cls-8" d="M162.29,158.56c3.76,5.9-3.22,7.86-5,8.41-3.85,1.32-9-5.4-6.85-8.68C154.58,152.76,159.09,154.38,162.29,158.56Z"/><path class="cls-7" d="M150.07,158.1c-1.7,2.66.56,6.3,2.67,8a5.6,5.6,0,0,0,3.57,1.4,8.86,8.86,0,0,0,2.63-.72c2-.75,4.28-2,4.69-4.31a5.73,5.73,0,0,0-1.1-4.12,10.21,10.21,0,0,0-3.76-3.33,5.79,5.79,0,0,0-4.32-.41,9.21,9.21,0,0,0-4.38,3.48c-.29.37.36.75.65.37a7.8,7.8,0,0,1,4.62-3.3,5.68,5.68,0,0,1,4.3,1.28c1.89,1.44,4.32,4.37,2.89,6.89-.9,1.62-2.83,2.44-4.5,3a4.82,4.82,0,0,1-2.46.38,6,6,0,0,1-3-1.79c-1.49-1.52-3.14-4.35-1.81-6.44C151,158.08,150.37,157.7,150.07,158.1Z"/><path class="cls-7" d="M159.62,155.21c-.5-.39-1.21.31-.71.7a10.79,10.79,0,0,1,3.19,3.4,4.81,4.81,0,0,1-.27,4.65c-2,3.37-6.11,3.33-9.55,3.13a.5.5,0,0,0,0,1,17.16,17.16,0,0,0,6.34-.44,7.33,7.33,0,0,0,4.17-3.34,5.83,5.83,0,0,0,.36-5.1,10.55,10.55,0,0,0-3.53-4Z"/><path class="cls-7" d="M162.53,162.74h0a.49.49,0,0,0,.35.6.52.52,0,0,0,.61-.35,6,6,0,0,1,4.61-3.72.52.52,0,0,0,.5-.5.5.5,0,0,0-.5-.5,7.07,7.07,0,0,0-5.57,4.46Z"/><path class="cls-7" d="M167.56,159.26c.58.27,1.08-.59.5-.87-2.06-1-4-2.15-6.13-3.07a13.6,13.6,0,0,0-5.34-1.36,6.33,6.33,0,0,0-4,1.4c-2.24,1.71-3.89,4.53-6.89,5-.63.14-.36,1.1.27,1a7.83,7.83,0,0,0,4-2.16c1-.94,1.91-2,3-2.89a5.51,5.51,0,0,1,4-1.31,14.7,14.7,0,0,1,5.34,1.61c1.75.84,3.43,1.8,5.18,2.64Z"/><path class="cls-7" d="M161,155.35c-.47-.43-1.18.28-.7.71a10.53,10.53,0,0,1,2.91,4.42.55.55,0,0,0,.12.21.5.5,0,0,0,.71,0,5.64,5.64,0,0,1,2.19-1.4c.49-.19.46-1.06-.14-1a2.87,2.87,0,0,1-3.2-1.52l-.74.56,2.63,1.33.38-.91c-2.88-1.14-5.72-3.75-9-3.36-2.72.34-4.34,3-7,3.34-.63.07-.64,1.07,0,1a7.49,7.49,0,0,0,3.46-1.48,9.51,9.51,0,0,1,3.33-1.82,7.21,7.21,0,0,1,4.52,1.08c1.47.74,2.86,1.6,4.39,2.21.53.21.88-.67.38-.92l-2.62-1.33c-.35-.18-.91.12-.73.56a3.81,3.81,0,0,0,4.16,2.26l-.13-1a7,7,0,0,0-2.62,1.66l.83.22a11.68,11.68,0,0,0-3.17-4.86Z"/><path class="cls-7" d="M164.3,159.2a.5.5,0,1,0-.5.5A.5.5,0,0,0,164.3,159.2Z"/><path class="cls-7" d="M163.45,161.42a.5.5,0,1,0-.5.5A.5.5,0,0,0,163.45,161.42Z"/><path class="cls-7" d="M120.75,157.19c-.48.43.23,1.14.71.71.7-.63,1.7-1.49,2.7-1.41a2.88,2.88,0,0,1,1.84,1.28c.76.92,1.4,2.08,2.12,2.85s1.76,1.53,2.86,1.13c.61-.26.35-1.22-.26-1-1.19.42-2.28-1.28-2.82-2.09a11.23,11.23,0,0,0-2-2.45,2.85,2.85,0,0,0-2.27-.73,6,6,0,0,0-2.9,1.67Z"/><path class="cls-8" d="M120.08,160.58c-1.36,5.2,2.36,6.21,3.36,6.5,2.71.56,4.43-5.88,3.27-7.88C123.94,154.28,121.43,156.39,120.08,160.58Z"/><path class="cls-7" d="M126.61,158.85a.37.37,0,0,0-.26.47,4.22,4.22,0,0,1,.27,2.48,8.94,8.94,0,0,1-.83,3,3.66,3.66,0,0,1-1.43,1.75,1.57,1.57,0,0,1-1.37,0,4,4,0,0,1-2.66-2.5,5.92,5.92,0,0,1,0-3.26,8.17,8.17,0,0,1,1.55-3.17,1.93,1.93,0,0,1,2-.84c1.14.34,1.9,1.6,2.45,2.6a.39.39,0,0,0,.44.12.38.38,0,0,0,.21-.5c-.68-1.19-1.67-2.74-3.15-3a2.9,2.9,0,0,0-2.72,1.44,9.27,9.27,0,0,0-1.61,3.76,6,6,0,0,0,.26,3.49,5,5,0,0,0,3.28,2.67c1.82.57,3-1.25,3.62-2.7a9.91,9.91,0,0,0,.72-3.13A4.43,4.43,0,0,0,127,159,.37.37,0,0,0,126.61,158.85Z"/><path class="cls-7" d="M121.87,157.86a.5.5,0,0,0-.86-.51,11.05,11.05,0,0,0-1.52,3.65,7.19,7.19,0,0,0,.43,4,5.11,5.11,0,0,0,2.18,2.6,6,6,0,0,0,4.13.12.52.52,0,0,0-.27-1,4.69,4.69,0,0,1-3.6-.17,4.36,4.36,0,0,1-1.63-2.26c-.86-2.32,0-4.49,1.14-6.49Z"/><path class="cls-7" d="M119.71,164.57a.53.53,0,0,0,.62.35.51.51,0,0,0,.35-.62C120,162.78,118.87,161,117,161a.5.5,0,0,0-.5.5.52.52,0,0,0,.5.5h.33l.21.07h0l.1,0a3.26,3.26,0,0,1,.4.24l.08.06h.06a1.54,1.54,0,0,1,.19.17,3.69,3.69,0,0,1,.38.41h0l.09.11.17.25a6.5,6.5,0,0,1,.58,1.11Z"/><path class="cls-7" d="M116.8,160.94c-.44.47.27,1.18.71.71,1.15-1.25,2.16-2.64,3.43-3.78.92-.82,2.25-1.72,3.43-.87,1.81,1.3,2.57,4.36,5.1,4.57.64.06.63-.94,0-1-1.19-.1-2-1.5-2.68-2.35a6.38,6.38,0,0,0-2.62-2.45c-1.39-.48-2.8.4-3.8,1.28a48.67,48.67,0,0,0-3.57,3.89Z"/><path class="cls-7" d="M121.07,158c.29-.58-.58-1.08-.86-.51a12.91,12.91,0,0,0-1.25,4.68l.85-.36a3.93,3.93,0,0,0-1.68-1.22l-.13,1c1.43,0,2.13-1.28,2.28-2.53a.48.48,0,0,0-.14-.34.5.5,0,0,0-.71,0l-1.28,1.44a.5.5,0,0,0,0,.65.49.49,0,0,0,.7.06A29.66,29.66,0,0,0,121,158.4c.52-.58,1.4-1.49,2.22-1.38s1.44.9,2,1.38a3.48,3.48,0,0,0,2.19,1.06.5.5,0,0,0,0-1c-.86,0-1.53-.82-2.13-1.35A3.33,3.33,0,0,0,123,156a4,4,0,0,0-2.54,1.54c-.78.84-1.44,1.81-2.3,2.58l.7.71,1.29-1.45-.86-.35c-.08.72-.45,1.53-1.28,1.53-.6,0-.63.81-.14,1a3,3,0,0,1,1.24,1,.51.51,0,0,0,.86-.35,11.63,11.63,0,0,1,1.11-4.17Z"/><path class="cls-7" d="M119.81,161.27a.5.5,0,1,0-.5.5A.5.5,0,0,0,119.81,161.27Z"/><path class="cls-7" d="M119.21,160.69a.5.5,0,1,0-.5.5A.5.5,0,0,0,119.21,160.69Z"/><path class="cls-7" d="M118.86,160.78a.5.5,0,1,0-.5.5A.5.5,0,0,0,118.86,160.78Z"/><path class="cls-7" d="M120.5,163.09a.5.5,0,1,0-.5.5A.5.5,0,0,0,120.5,163.09Z"/><path class="cls-9" d="M146.49,181.23c.85,6.08-11.35,7.52-20.15,6.52C126.34,187.75,145.64,175.15,146.49,181.23Z"/><path class="cls-10" d="M132.25,185.67s-10.17,4.63-12.06,1.56c0,0-1.71-8.06,6.61-16.77,14.28-7.49,20.77,6.75,20.77,6.75C148.24,186.24,132.25,185.67,132.25,185.67Z"/><path class="cls-11" d="M383.57,320.22c33.67,27.78,57.89,51.85,57.89,51.85S407.32,369,366.07,363"/><path class="cls-2" d="M383.58,320.22c-37.73-31.17-87.32-67.07-128-79.22,0,0-47,45-31,79,9.4,20,82.68,34.46,141.49,43"/><path class="cls-2" d="M313.58,389c4,2-20.92,18.12-20.92,18.12a12.17,12.17,0,0,1-4.08.88c-1.77,0-11.41-17.27-13.56-21.24a.5.5,0,0,1-.07-.27.51.51,0,0,1,.53-.49C281,386.2,310,387.19,313.58,389Z"/><polygon class="cls-6" points="195.08 367.09 215.43 375.19 197.36 345.85 195.08 367.09"/><path class="cls-12" d="M365.17,362.56s9.41,1.44,11.41,1.44,14.78-38.11,14.78-38.11l-8-6.67Z"/><path class="cls-13" d="M161,244.36c1-.31,3.13,6.34,4.68,7.94s-2,10.11-2,10.11-.64,1.26-5.7,1.85c-7.23-6.06-4.92-18.38-4.92-18.38C154.6,244.31,160,244.67,161,244.36Z"/><path class="cls-13" d="M162.61,262.21c.08,1,7.23,25.47,15.37,49.85,0,0,1.69,7.89-2.77,14.3-4.2-2.64-12.35-15-16.2-24.69-2.25-2.79-1.38-39-1.38-39S162.53,261.22,162.61,262.21Z"/><path class="cls-14" d="M131.48,250.44c1.11,1.45,18.89,7.56,18.89,7.56s.91-1,2.21-12.12c-3.25-.12-24.33-5.66-24.33-5.66S130.37,249,131.48,250.44Z"/><path class="cls-14" d="M223.58,234.44S173.5,256,170.43,256s-4.09-6-8.85-11.64c2.4-.64,51.78-19.69,51.78-19.69Z"/><path class="cls-15" d="M223.58,234.44l-5,44.56s0,4-18,4l17,6s-13,38-4,82c-34-22-23-135-21.11-137.44s21.11-8.89,21.11-8.89Z"/><path class="cls-15" d="M129.43,286.69c0,2.05,6.4,3.84,9.55,6.23l-6.31,2.29c-1,8,24.5,50.86,29.33,49.22s-25.68-102.5-25.68-102.5l-8.55-3.85C126.32,241.17,129.42,284.64,129.43,286.69Z"/></g></svg>