<svg id="Layer_1" data-name="Layer 1" xmlns="http://www.w3.org/2000/svg" viewBox="0 0 559 559"><defs><style>.cls-1,.cls-18{fill:#282827;}.cls-2{fill:#e25988;}.cls-3{fill:silver;}.cls-4{fill:#acacaf;}.cls-5{fill:#e2e2e2;}.cls-6{fill:#231f20;}.cls-7{fill:#6dcbdc;}.cls-8{fill:#9c732a;}.cls-9{fill:#d78e28;}.cls-10{fill:#e22e57;}.cls-11{fill:#fff;}.cls-12{fill:#424243;}.cls-13{fill:#211a2f;}.cls-14{fill:#27252d;}.cls-15{fill:#232323;}.cls-16{fill:#f2f2f2;}.cls-17{fill:#edeced;}.cls-18{stroke:#231f20;stroke-miterlimit:10;}</style></defs><path class="cls-1" d="M245.89,357.59c-.37-.13-.71.1-.62.41,1,3.55,5.47,19.12,7.09,19.67a14.08,14.08,0,0,0,3.93.62s26.71-4,23.56-6.7C277,369.14,250.86,359.43,245.89,357.59Z"/><path class="cls-2" d="M250.63,374.9s-1.47,4.74-2.5,5.45a33.74,33.74,0,0,0-3.34,3.17s-4.25,1.58-5,3.81-5.78,4.41-5.78,4.41-9.88-11.83-17.14-.1c-.47,3.08,2.46,6.19,2.46,6.19s2.25-5.67,2.93-5.36c1.32-1.22,5.06-1.8,5.79,3s8.37,8.84,8.37,8.84a7.45,7.45,0,0,0,3.18-.78c1.1-.73.68,1.2.68,1.2s-.55,1.33-.24,1.94c2.18-1.29,5,.24,4.08,1.88.37,1.28,1.5,1.13,2.15.41s1.18-4.64.3-5.12c-.37-.72-1.15-2.53-1.15-2.53s-5.58-4.16-6.06-4-1.91-3.27,1.41-4.61,4.63-.86,4.63-.86a6,6,0,0,0,1.43-1.07c.32-.44,2.58-2,3-1.92s3.31-5.42,3.31-5.42l3.38-5Z"/><path class="cls-2" d="M228.22,395.81a10.16,10.16,0,0,1-4.39-1.44c-2-1.29-9.93-2.69-9.86,4.79,2-1.4,4.05-1.91,4.65.61,6.11-6.3,9.44,4.65,17.24,4C231.44,400.5,228.32,398.27,228.22,395.81Z"/><path class="cls-3" d="M214.47,398.11s-.18,4.59,2.52,6.78a7.2,7.2,0,0,0,1.47-5.51S217.4,396.05,214.47,398.11Z"/><path class="cls-3" d="M217,391.92s-.18,4.6,2.52,6.79a7.22,7.22,0,0,0,1.47-5.52S219.94,389.86,217,391.92Z"/><path class="cls-3" d="M240,406.29a4.82,4.82,0,0,1-3,4.49c5,.47,7.34-1.81,7.34-1.81S245.19,405.59,240,406.29Z"/><path class="cls-1" d="M307.59,374.84c-.38-.08-.68.2-.54.5,1.51,3.36,8.24,18.09,9.91,18.4a14.21,14.21,0,0,0,4,0s25.82-7.91,22.31-10.11C340.08,381.67,312.79,375.92,307.59,374.84Z"/><path class="cls-2" d="M314.85,391.26s-.76,4.9-1.67,5.75a34.62,34.62,0,0,0-2.83,3.64s-4,2.19-4.43,4.51-5.07,5.21-5.07,5.21-11.51-10.23-17,2.44c0,3.12,3.34,5.76,3.34,5.76s1.39-5.95,2.11-5.74c1.13-1.4,4.74-2.52,6.18,2.12s9.58,7.51,9.58,7.51a7.51,7.51,0,0,0,3-1.24c1-.89.85,1.08.85,1.08s-.35,1.4,0,2c2-1.6,5-.5,4.31,1.25.56,1.22,1.65.91,2.18.09s.49-4.75-.45-5.1c-.48-.66-1.51-2.33-1.51-2.33s-6.14-3.3-6.58-3.06-2.38-2.95.71-4.76,4.45-1.54,4.45-1.54a6.09,6.09,0,0,0,1.26-1.27c.25-.48,2.25-2.39,2.68-2.34s2.48-5.85,2.48-5.85l2.6-5.41Z"/><path class="cls-2" d="M295.77,415.25a10.12,10.12,0,0,1-4.55-.78c-2.12-1-10.22-1.19-9.05,6.2,1.8-1.68,3.72-2.49,4.7-.08,5.1-7.14,10,3.2,17.63,1.42C299.65,419.41,296.23,417.67,295.77,415.25Z"/><path class="cls-3" d="M282.52,419.56s.49,4.57,3.49,6.33a7.2,7.2,0,0,0,.64-5.66S285.1,417.09,282.52,419.56Z"/><path class="cls-3" d="M284.12,413.06s.5,4.57,3.49,6.34a7.22,7.22,0,0,0,.64-5.67S286.7,410.59,284.12,413.06Z"/><path class="cls-3" d="M308.93,423.88a4.84,4.84,0,0,1-2.26,4.88c5-.27,7-2.88,7-2.88S314,422.42,308.93,423.88Z"/><path class="cls-4" d="M121.26,191.67c-12-9.51-68.81-53.76-97.92-58.23a2.91,2.91,0,0,0-3.09,4c4.11,9.69,16.61,32.63,45.35,40.25,0,0-25-5.42-29-4.84,2.88,12.72,12.24,21.45,49.05,31.21,0,0-17.83-4.46-34.8-3,7.63,11.7,5.14,13.34,44.55,20.74C105.52,212.48,113.05,201.92,121.26,191.67Z"/><path class="cls-1" d="M211.66,277.55s-24.91-38.79-50-58.35c-2.42-2.68-15-5.88-38.15-25.73l-2.24-1.8c-8.21,10.25-15.74,20.81-25.87,30.18l3,.57s-31.1,1.54-32.65,4.8c6.14,14.25,28.49,15,50.25,11.82,0,0-27.55,5.06-31.92,9.74,6.11,7.19,12.77,11.26,48.1,4.05,0,0-21.18,7.16-23.43,12.54,9.4,15.8,23.08,5.71,36.93,3.67,0,0-10.59,3.58-16.79,9.55,7.82,12,8.79,4.77,36.2-1.28,0,0-18.77,9.83-21.16,14.23,10.36,8.58,24.62,2.45,36.9-3.4,0,0-16.5,11.52-13,15l24.59-4.62s-10.16,6.54-10.71,9.66c4.42,9.46,14.43,1.92,23.62-2,0,0,18.63-6.22,14.12-2.52-1.55,3.25,1.72,7.15,8.23,7.88S211.66,277.55,211.66,277.55Z"/><path class="cls-4" d="M288.39,233.7s-30.48-23.48-39.55-64.79c-16.09-42.12-51.32-48.22-67.54-24.78-5.05,57.72,12.43,104.67,14.09,107.74S288.39,233.7,288.39,233.7Z"/><path class="cls-1" d="M275.93,368.58a14,14,0,0,1-3.58,1C283.43,370.61,293,371,293,371l-11.32-6.59A14.68,14.68,0,0,1,275.93,368.58Z"/><path class="cls-1" d="M275.93,368.58a14.68,14.68,0,0,0,5.77-4.17l-27.84-16.22c1.28,9.3,6.05,18.4,13,20.9,1.86.19,3.71.37,5.52.53A14,14,0,0,0,275.93,368.58Z"/><path class="cls-4" d="M430.55,378.57c34.51-4.51,63.63-11.76,79.13-17.81,0,0-28.48-24.94-66.28-52.77"/><path class="cls-1" d="M206.84,244.48c-2.21.7-4.14,1.34-5.76,1.88q3.16-.15,6.32-.48A3.11,3.11,0,0,1,206.84,244.48Z"/><path class="cls-1" d="M214.2,244.83,214,245l.28,0Z"/><path class="cls-5" d="M254.83,338.27c1.56-4.75,4.8-7.8,9.78-7.47-.42-31.87-2.53-63.55-8.47-94.51l-.3.06c-9.45,2.86-18.85,6.37-27.67,7.13a2.63,2.63,0,0,1-2.66,1.32l-.36,0a2.42,2.42,0,0,1-2.34,2,2.38,2.38,0,0,1-1.7-.6,2.44,2.44,0,0,1-.56.08,2.36,2.36,0,0,1-2.3-1.42l-.26,0a2.34,2.34,0,0,1-1.47.56l-.36,0a2.44,2.44,0,0,1-4.2.31q-2.88.33-5.79.47c-3.19,1.17-5,1.91-5,1.91-5.45,61.83,20.78,97.24,59.68,116.16C256,357.82,253.54,347,254.83,338.27Z"/><path class="cls-5" d="M264.53,357q.2-13.09.06-26.16c-5.43-.31-9,2.74-10.69,7.5-1.44,8.69,1.18,19.55,6.48,26,.64.29,1.27.58,1.92.85A13.16,13.16,0,0,0,264.53,357Z"/><path class="cls-1" d="M293.23,233a100,100,0,0,0-21.21-1.3c.42.29.84.6,1.25.92a103,103,0,0,0-17.64,3.62v0l.81-.15-.81.15c6.39,30.94,8.6,62.62,8.95,94.49.35,0,.7.06,1.06.1-.36,0-.71-.08-1.06-.1q.15,13.06-.06,26.16a13.16,13.16,0,0,1-2.23,8.16c3.62,1.55,7.35,3,11.16,4.29a14.07,14.07,0,0,0,2.47-.83c17.75-7.61,3.95-31.15-10.31-38.68,14.26,7.53,28.06,31.07,10.31,38.68a14.07,14.07,0,0,1-2.47.83c47.31,16.4,107.71,15.6,157.09,9.16L443.4,308C395.32,272.59,332.15,232.5,293.23,233Z"/><path class="cls-1" d="M255.63,236.28l-.32.09.33-.06Z"/><path class="cls-6" d="M220.11,154.32c-2.66-.95-5.55-1.51-8,.16a15.41,15.41,0,0,0-3.23,3.17c-1.19,1.47-3,3.21-5.07,3-.64-.06-.63.94,0,1,1.86.19,3.52-1,4.79-2.22s2.14-2.59,3.45-3.67a5.78,5.78,0,0,1,3.28-1.38,12,12,0,0,1,4.56.9c.61.22.87-.75.26-1Z"/><path class="cls-7" d="M210.64,158c-2.07,3.35,3.32,9.92,7.14,8.43,1.77-.61,8.67-2.8,4.68-8.56C219.16,153.75,214.6,152.28,210.64,158Z"/><path class="cls-6" d="M210.32,157.77c-1.43,2.42.34,5.52,2.11,7.23a6.81,6.81,0,0,0,3.54,1.93,5.61,5.61,0,0,0,2.9-.53c2-.73,4.19-1.87,4.95-4,1.09-3-1.63-6-3.95-7.5a6.21,6.21,0,0,0-4.77-.95,8.67,8.67,0,0,0-4.78,3.77c-.28.39.37.77.65.38a8.15,8.15,0,0,1,3.93-3.31,5.08,5.08,0,0,1,3.84.33c2.23,1.09,5.07,3.83,4.5,6.58-.4,1.93-2.42,3.05-4.09,3.74a8.58,8.58,0,0,1-2.18.72,4.64,4.64,0,0,1-3.22-1.07c-1.88-1.39-4.2-4.6-2.78-7A.38.38,0,0,0,210.32,157.77Z"/><path class="cls-6" d="M219.12,155.36a9.82,9.82,0,0,1,3.31,3.41,4.87,4.87,0,0,1-.29,4.61c-1.93,3.3-5.95,3.38-9.35,3.3a.5.5,0,0,0,0,1,17.31,17.31,0,0,0,6.33-.64,7.27,7.27,0,0,0,4.06-3.47,5.88,5.88,0,0,0,.19-5.14,10.78,10.78,0,0,0-3.74-3.94c-.52-.37-1,.49-.51.87Z"/><path class="cls-6" d="M223.84,162.24a6,6,0,0,1,4.6-3.91.5.5,0,0,0-.26-1,7.06,7.06,0,0,0-5.3,4.61.5.5,0,0,0,.35.62.5.5,0,0,0,.61-.35Z"/><path class="cls-6" d="M228.21,157.46c-3.49-1.53-7-3.81-10.89-4a6.32,6.32,0,0,0-4.19,1.16,23.29,23.29,0,0,0-3.07,3,7.79,7.79,0,0,1-4.09,2.62c-.63.12-.37,1.09.26,1,2.85-.54,4.5-3,6.46-4.89a5.86,5.86,0,0,1,3.62-1.83,12.39,12.39,0,0,1,5.38,1.13c2.05.83,4,1.89,6,2.77.59.26,1.1-.6.51-.86Z"/><path class="cls-6" d="M220.39,155.35a10.63,10.63,0,0,1,3.06,4.31.51.51,0,0,0,.84.22,5.76,5.76,0,0,1,2.13-1.48.5.5,0,0,0-.27-1A2.84,2.84,0,0,1,223,155.9l-.68.68,2.66,1.24.39-.91c-3-1.06-5.92-3.61-9.24-3-2.65.45-4.18,3.18-6.85,3.57-.64.1-.37,1.06.26,1a7.49,7.49,0,0,0,3.35-1.62,9.19,9.19,0,0,1,3.2-1.89,7.06,7.06,0,0,1,4.46.86c1.52.71,3,1.55,4.55,2.11.53.19.9-.67.39-.91l-2.67-1.24a.5.5,0,0,0-.68.68,3.86,3.86,0,0,0,4.31,2l-.27-1a6.91,6.91,0,0,0-2.57,1.73l.84.22a11.67,11.67,0,0,0-3.33-4.75c-.49-.41-1.2.29-.7.71Z"/><path class="cls-6" d="M224,158.91a.5.5,0,0,0,0-1,.5.5,0,0,0,0,1Z"/><path class="cls-6" d="M223.26,161.16a.5.5,0,0,0,0-1,.5.5,0,0,0,0,1Z"/><path class="cls-6" d="M181.63,158.51a4.2,4.2,0,0,1,2.63-1.51,2.82,2.82,0,0,1,1.91,1.21c.8.9,1.39,2,2.24,2.8s1.79,1.45,2.87,1c.59-.23.33-1.2-.27-1-1.18.47-2.32-1.18-2.9-2a11.09,11.09,0,0,0-2.08-2.4,2.86,2.86,0,0,0-2.3-.64,5.88,5.88,0,0,0-2.81,1.76c-.46.44.24,1.15.71.7Z"/><path class="cls-7" d="M187,159.67c1.23,1.93-.27,8.45-3,8-1-.26-4.77-1.14-3.58-6.39C181.59,157,184,154.84,187,159.67Z"/><path class="cls-6" d="M186.63,159.85a3.82,3.82,0,0,1,.38,2.08,9.08,9.08,0,0,1-.5,2.73c-.37,1.11-1.22,3-2.68,2.57a4.37,4.37,0,0,1-2.8-1.95c-1.09-1.94-.33-4.6.71-6.4.43-.73,1.12-1.64,2.07-1.58,1.29.09,2.23,1.59,2.82,2.55.25.42.9,0,.65-.37a5.87,5.87,0,0,0-2.92-2.83,2.44,2.44,0,0,0-2.5.81,8.4,8.4,0,0,0-1.74,3.35,7,7,0,0,0-.13,3.93,4.75,4.75,0,0,0,3.28,3.1,2.37,2.37,0,0,0,1.83,0,4,4,0,0,0,1.73-2,10.12,10.12,0,0,0,.9-3.46,4.87,4.87,0,0,0-.45-2.94C187,159.07,186.38,159.44,186.63,159.85Z"/><path class="cls-6" d="M181.2,157.93a11.49,11.49,0,0,0-1.39,3.65,7.15,7.15,0,0,0,.52,4,5.2,5.2,0,0,0,2.13,2.52,5.83,5.83,0,0,0,4.29.08.5.5,0,0,0-.27-1,4.7,4.7,0,0,1-3.61,0,4.43,4.43,0,0,1-1.74-2.27c-.87-2.26-.16-4.43.94-6.45.3-.57-.56-1.07-.87-.51Z"/><path class="cls-6" d="M181,164.71c-.66-1.45-1.92-3.12-3.69-3.12a.51.51,0,0,0-.5.5.51.51,0,0,0,.5.5h.22c.11,0-.09,0,0,0l.11,0,.21.06.11,0c.05,0,.1,0,0,0a2.86,2.86,0,0,1,.42.24l.21.14,0,0,.11.1a4.89,4.89,0,0,1,.39.4l.1.11.07.09.06.09.09.12a7.57,7.57,0,0,1,.66,1.18.51.51,0,0,0,.68.18.52.52,0,0,0,.18-.69Z"/><path class="cls-6" d="M177.83,162.43c1.09-1.26,2-2.65,3.23-3.82.88-.85,2.19-1.88,3.42-1.11,1.91,1.2,2.74,4.31,5.3,4.44.64,0,.64-1,0-1-1.22-.06-2.11-1.44-2.8-2.29a6.14,6.14,0,0,0-2.71-2.34c-1.36-.4-2.7.48-3.66,1.36a48,48,0,0,0-3.49,4.05c-.41.49.29,1.2.71.71Z"/><path class="cls-6" d="M180.45,158.21a13.13,13.13,0,0,0-1.1,4.71l.86-.35a4.15,4.15,0,0,0-1.72-1.18l-.13,1c1.42,0,2.1-1.32,2.21-2.59a.5.5,0,0,0-.85-.35l-1.23,1.49c-.41.48.23,1.16.7.7a28.28,28.28,0,0,0,2.05-2.45c.5-.61,1.31-1.61,2.21-1.52s1.41.81,2,1.27a3.53,3.53,0,0,0,2.26,1c.64,0,.64-1,0-1-.87,0-1.56-.75-2.17-1.26a3.37,3.37,0,0,0-2.32-1,4,4,0,0,0-2.49,1.61c-.75.87-1.38,1.85-2.21,2.66l.7.7,1.24-1.48-.86-.36c-.06.71-.38,1.58-1.21,1.59a.51.51,0,0,0-.14,1,3,3,0,0,1,1.28.92.5.5,0,0,0,.85-.36,12,12,0,0,1,1-4.21c.27-.58-.59-1.09-.86-.5Z"/><path class="cls-6" d="M179.63,162.48a.5.5,0,0,0,0-1,.5.5,0,0,0,0,1Z"/><path class="cls-6" d="M179,161.92a.5.5,0,0,0,0-1,.5.5,0,0,0,0,1Z"/><path class="cls-6" d="M178.66,162a.5.5,0,0,0,0-1,.5.5,0,0,0,0,1Z"/><path class="cls-6" d="M180.38,164.27a.5.5,0,0,0,0-1,.5.5,0,0,0,0,1Z"/><path class="cls-8" d="M187.55,188.21c8.84.72,21-1.15,19.92-7.2S187.55,188.21,187.55,188.21Z"/><path class="cls-9" d="M208.41,177s-7-14-21-6.05c-8,9-6,17-6,17,2,3,12-2,12-2S209.39,186,208.41,177Z"/><polygon class="cls-5" points="263.87 343.82 282.92 372.53 262.3 365.13 263.87 343.82"/><path class="cls-10" d="M216.17,245.41s-1.89,12.38,5.53,18.2c5-.77,5.64-2.05,5.64-2.05s3.26-8.62,1.64-10.16-4-8.12-4.95-7.78S217.71,243.78,216.17,245.41Z"/><path class="cls-10" d="M221.35,262s.35,36.22,2.7,39c4.18,9.57,12.69,21.63,17,24.13,4.24-6.56,2.29-14.38,2.29-14.38-9-24.1-16.93-48.32-17.05-49.31S221.35,262,221.35,262Z"/><path class="cls-11" d="M191.23,240.59s21.26,4.82,24.51,4.83c-.92,11.16-1.8,12.19-1.8,12.19s-18-5.51-19.14-6.92S191.23,240.59,191.23,240.59Z"/><path class="cls-11" d="M275.77,222.17s-48.71,20.71-51.09,21.43c4.95,5.47,6.17,11.43,9.24,11.33s52.39-23.34,52.39-23.34Z"/><path class="cls-12" d="M276,222.16s-19,7.09-20.8,9.6-9,115.81,25.74,136.65c-10.48-43.67,1.23-82.09,1.23-82.09L265,280.9c18-.61,17.86-4.61,17.86-4.61l3.49-44.7Z"/><path class="cls-12" d="M190.68,238.46l8.68,3.56s33.89,99.78,29.12,101.58-31.73-40.2-31-48.21l6.22-2.49c-3.22-2.29-9.67-3.87-9.75-5.91S189.34,241.6,190.68,238.46Z"/><path class="cls-13" d="M455.42,182.42c2.4-.66,6-2,10.71-3.67a52.9,52.9,0,0,1-21-4C448.06,177,452.46,180.24,455.42,182.42Z"/><path class="cls-1" d="M455.36,182.43c-1.81.27-2.88.45-2.88.45s.95-.22,2.59-.67c-3-2.18-5.91-4.37-8.82-6.61A34.76,34.76,0,0,1,437,170c-17.94-14.66-36.85-27.18-53.84-41.87-2.76,3.1-4.89,5.69-5.19,6.61-6.49,19.55-14.76,35.26-23,46.54-2.39,3.28-31.17,32-46.65,38.33a9.68,9.68,0,0,0-2.52,1.52c-20.79,17.21-25,22.88-25,22.88,72.43,20.13,100.84,28,100.84,28,7.55-6.4,16.3-7.69-8.19-19,31.29,10.29,32.26,10.15,43.46-1.42-10.67-6.8-27-14.89-27-14.89,36.41,4.58,40.86,7.89,48.18-3.11-5.89-4.74-27.4-10.86-27.4-10.86,45.15,3.29,39.72.12,46.06-10.74-9.21-2.57-32.66-6.12-32.66-6.12,29.65-1.16,44.14-2.38,52.55-6.67C470.12,193.26,462.76,187.87,455.36,182.43Z"/><path class="cls-14" d="M455.36,182.43c7.4,5.44,14.76,10.83,21.29,16.8,7.27-3.72,10-9.72,14-20C479.42,179,462.14,181.4,455.36,182.43Z"/><path class="cls-15" d="M406.77,104.29c-3.65,3.37-6.5,6.18-8.82,8.34-1.4,1.3-9.34,9.42-14.8,15.53,17,14.69,35.9,27.21,53.84,41.87,8,6.76,18.37,9.16,29.14,8.72a144.37,144.37,0,0,0,21.36-9.47C458.64,147.77,430.9,128.65,406.77,104.29Z"/><path class="cls-4" d="M548.6,26.55l-4.47.93c-84,31.63-119.86,60.64-137.36,76.81,24.13,24.36,51.87,43.48,80.72,65,13.72-7.59,26.86-18.59,29.52-33.6-15.85,5.25-49.66,13.25-49.66,13.25C536.08,110.05,540,89.62,535,75.48c-25.49,15.65-82,49.76-82,49.76C534.64,57.5,546.91,62,548.6,26.55Z"/><path class="cls-16" d="M491.89,166.18c-30.86-25-79.74-66.8-79.74-66.8l-9.27,8.77,78.41,63.61Z"/><path class="cls-17" d="M113.33,185.52c-2.89,3.54-23.78,33.37-25.29,34.87,3.5,1.33,10.4,2,10.4,2l22.82-30.75Z"/><line class="cls-18" x1="182.01" y1="153.05" x2="188.01" y2="157.05"/><line class="cls-18" x1="224.51" y1="148.55" x2="206.51" y2="156.55"/></svg>