<svg id="Layer_1" data-name="Layer 1" xmlns="http://www.w3.org/2000/svg" viewBox="0 0 559 559"><defs><style>.cls-1,.cls-18{fill:#282827;}.cls-2{fill:#e25988;}.cls-3{fill:silver;}.cls-4{fill:#acacaf;}.cls-5{fill:#e2e2e2;}.cls-6{fill:#231f20;}.cls-7{fill:#6dcbdc;}.cls-8{fill:#9c732a;}.cls-9{fill:#d78e28;}.cls-10{fill:#e22e57;}.cls-11{fill:#fff;}.cls-12{fill:#424243;}.cls-13{fill:#211a2f;}.cls-14{fill:#27252d;}.cls-15{fill:#232323;}.cls-16{fill:#f2f2f2;}.cls-17{fill:#edeced;}.cls-18{stroke:#231f20;stroke-miterlimit:10;}</style></defs><path class="cls-1" d="M156,360.69c-.3-.24-.7-.13-.72.2-.17,3.68-.83,19.86.53,20.9a14.2,14.2,0,0,0,3.53,1.83s26.61,4.62,24.47,1.07C181.87,381.47,160.13,364,156,360.69Z"/><path class="cls-2" d="M155,378.62s-2.89,4-4.09,4.38a33.54,33.54,0,0,0-4.17,2s-4.53.15-6,2-6.88,2.35-6.88,2.35-5.64-14.33-16.24-5.49c-1.42,2.77.38,6.65.38,6.65s3.93-4.68,4.48-4.17c1.64-.74,5.37-.11,4.55,4.69s5.14,11,5.14,11a7.52,7.52,0,0,0,3.27.27c1.27-.35.27,1.35.27,1.35s-.94,1.09-.85,1.77c2.48-.54,4.68,1.81,3.29,3.07-.06,1.33,1.06,1.55,1.9,1.06s2.59-4,1.91-4.75c-.13-.81-.3-2.77-.3-2.77s-4-5.71-4.49-5.7-.78-3.7,2.8-3.93,4.66.65,4.66.65a6.65,6.65,0,0,0,1.7-.56c.44-.32,3.09-1.12,3.45-.88s4.85-4.1,4.85-4.1l4.77-3.65Z"/><path class="cls-2" d="M127.17,391.38a10,10,0,0,1-3.71-2.75c-1.45-1.84-8.58-5.68-10.87,1.44,2.36-.69,4.44-.53,4.22,2.05,7.79-4.05,7.49,7.38,15.09,9.24C128.74,396.85,126.48,393.75,127.17,391.38Z"/><path class="cls-3" d="M113.4,389.23s-1.62,4.3.25,7.23a7.19,7.19,0,0,0,3.13-4.76S116.82,388.2,113.4,389.23Z"/><path class="cls-3" d="M117.76,384.16s-1.62,4.3.25,7.24a7.21,7.21,0,0,0,3.14-4.77S121.19,383.13,117.76,384.16Z"/><path class="cls-3" d="M135,405a4.81,4.81,0,0,1-4.22,3.32c4.56,2,7.54.6,7.54.6S140.18,406,135,405Z"/><path class="cls-1" d="M209.1,396.53c-.33-.19-.71,0-.67.3.37,3.66,2.11,19.77,3.6,20.59a14.36,14.36,0,0,0,3.77,1.29s27,.64,24.36-2.56C237.77,413.26,213.69,399.2,209.1,396.53Z"/><path class="cls-2" d="M210.8,414.4s-2.26,4.42-3.39,4.93a34.16,34.16,0,0,0-3.84,2.56s-4.46.82-5.62,2.88-6.45,3.35-6.45,3.35-7.7-13.35-16.87-3c-1,3,1.36,6.52,1.36,6.52s3.19-5.2,3.81-4.78c1.51-1,5.29-.9,5.19,4s6.72,10.15,6.72,10.15a7.45,7.45,0,0,0,3.27-.22c1.21-.53.47,1.29.47,1.29s-.78,1.22-.58,1.88c2.37-.9,4.9,1.09,3.7,2.55.15,1.33,1.28,1.37,2,.77s2-4.36,1.18-5c-.24-.78-.7-2.69-.7-2.69s-4.78-5.07-5.28-5-1.32-3.55,2.18-4.3,4.71-.05,4.71-.05a6.47,6.47,0,0,0,1.6-.81c.39-.38,2.89-1.55,3.28-1.37s4.19-4.78,4.19-4.78l4.18-4.31Z"/><path class="cls-2" d="M185.14,431.14a10.1,10.1,0,0,1-4.08-2.17c-1.7-1.61-9.32-4.35-10.54,3,2.24-1,4.32-1.19,4.48,1.4,7.1-5.16,8.5,6.2,16.29,6.91C187.5,436.32,184.81,433.59,185.14,431.14Z"/><path class="cls-3" d="M171.2,431.05s-1,4.49,1.31,7.12a7.21,7.21,0,0,0,2.4-5.18S174.43,429.52,171.2,431.05Z"/><path class="cls-3" d="M174.77,425.39s-1,4.5,1.31,7.12a7.21,7.21,0,0,0,2.4-5.18S178,423.87,174.77,425.39Z"/><path class="cls-3" d="M194.9,443.49a4.81,4.81,0,0,1-3.69,3.91c4.81,1.32,7.55-.52,7.55-.52S200.17,443.7,194.9,443.49Z"/><path class="cls-4" d="M90.08,163.93c-8.34-12.8-48.34-72.72-74.55-86.16a2.92,2.92,0,0,0-4.2,2.86c.83,10.49,5.46,36.2,30.33,52.5,0,0-22.07-13-26-13.74-1.28,13,4.86,24.21,36.71,45.08,0,0-15.52-9.85-32.09-13.8C23.83,164.17,21,165,56,184.4,68.57,178.71,79.05,171.07,90.08,163.93Z"/><path class="cls-1" d="M148.76,273.94s-11.39-44.66-29-71.15c-1.44-3.3-12.39-10.31-28.08-36.45,0,0-.54-.86-1.55-2.41-11,7.14-21.51,14.78-34.08,20.47l2.72,1.51s-30-8.36-32.49-5.75c1.32,15.46,22.29,23.24,44,27.07,0,0-27.74-3.89-33.36-.83,3.53,8.75,8.56,14.72,44.36,19,0,0-22.36.1-26.19,4.5,3.93,18,20.1,12.7,33.88,15.14,0,0-11.18.05-18.94,3.75,3.64,13.85,6.83,7.31,34.75,10.22,0,0-20.91,3.4-24.56,6.82,7.12,11.41,22.58,10.09,36.08,8.42,0,0-19.29,5.72-17,10.18L124,287.83s-11.7,3-13.21,5.79C112,304,123.84,300,133.8,299.17c0,0,19.64,0,14.19,2.06-2.49,2.6-.62,7.34,5.33,10.08S148.76,273.94,148.76,273.94Z"/><path class="cls-4" d="M235.4,256.54s-21.51-31.9-17.08-74c-2-45.05-33.49-61.94-56.27-44.82C139,190.93,140.82,241,141.43,244.44S235.4,256.54,235.4,256.54Z"/><path class="cls-1" d="M181,380.6a14.27,14.27,0,0,1-3.73-.14c10.21,4.43,19.19,7.83,19.19,7.83l-8.67-9.83A14.72,14.72,0,0,1,181,380.6Z"/><path class="cls-1" d="M181,380.6a14.72,14.72,0,0,0,6.79-2.14l-21.3-24.17c-1.71,9.23-.07,19.37,5.72,23.92,1.7.77,3.4,1.52,5.06,2.25A14.27,14.27,0,0,0,181,380.6Z"/><path class="cls-4" d="M324.6,438.86c34.17,6.61,64.1,8.92,80.71,8.07,0,0-19.15-32.65-46.25-71"/><path class="cls-1" d="M154.62,241c-2.31,0-4.35,0-6.06,0q3.06.86,6.15,1.53A3.17,3.17,0,0,1,154.62,241Z"/><path class="cls-1" d="M161.49,243.69l-.26.1.29.05Z"/><path class="cls-5" d="M170.57,345.18c3-4,7-5.88,11.64-4,9.66-30.37,17.65-61.11,21.78-92.36l-.31,0c-9.87-.26-19.89.1-28.5-2a2.62,2.62,0,0,1-2.94.41l-.33-.14a2.42,2.42,0,0,1-2.85,1.16,2.37,2.37,0,0,1-1.43-1.1,2.78,2.78,0,0,1-.55-.1,2.38,2.38,0,0,1-1.74-2.08l-.26,0a2.32,2.32,0,0,1-1.57.06,1.62,1.62,0,0,1-.33-.13,2.36,2.36,0,0,1-2.44.63,2.33,2.33,0,0,1-1.65-1.65c-1.89-.4-3.77-.87-5.64-1.39-3.39.11-5.36.24-5.36.24-24.68,56.95-11,98.83,20,129.05C165.49,364.09,166.61,353,170.57,345.18Z"/><path class="cls-5" d="M173.88,366q4.32-12.35,8.31-24.79c-5.05-2-9.38-.24-12.52,3.74-4.1,7.79-5,18.92-2,26.69.51.47,1,.94,1.55,1.41A13.24,13.24,0,0,0,173.88,366Z"/><path class="cls-1" d="M240.21,257.44a99.16,99.16,0,0,0-19.71-7.92c.3.41.6.83.89,1.26a102.86,102.86,0,0,0-17.88-2.13v0l.81.12-.81-.12c-3.7,31.38-11.6,62.14-21.32,92.5.32.12.65.27,1,.42-.33-.15-.66-.3-1-.42q-4,12.44-8.31,24.79a13.24,13.24,0,0,1-4.69,7c2.95,2.61,6,5.13,9.24,7.59a15.08,15.08,0,0,0,2.6,0c19.25-1.62,13.58-28.32,2.42-40,11.16,11.63,16.83,38.33-2.42,40a15.08,15.08,0,0,1-2.6,0c39.71,30.49,97.28,48.79,146.17,58.25l34.46-62.92C324.61,327.17,277.31,269.2,240.21,257.44Z"/><path class="cls-1" d="M203.51,248.65l-.33,0,.33.05Z"/><path class="cls-6" d="M195.74,159.73c-2.35-1.82-5-3.31-8-2.37a23.24,23.24,0,0,0-4.35,2.24c-1.44.81-3.49,1.71-5.12,1-.59-.26-1.1.6-.51.86,3.27,1.48,6.32-1.37,9.09-2.66a6.35,6.35,0,0,1,3.87-.64,10.67,10.67,0,0,1,4.32,2.31c.51.39,1.22-.31.71-.71Z"/><path class="cls-7" d="M185.53,160.13c-3,2.53,0,10.47,4.11,10.26,1.87,0,9.11.08,7.14-6.65C194.94,158.83,191.07,156,185.53,160.13Z"/><path class="cls-6" d="M185.26,159.87c-2.11,1.83-1.38,5.34-.26,7.5a6.73,6.73,0,0,0,2.75,3,5.44,5.44,0,0,0,2.85.42c2-.07,4.4-.4,5.83-2,2.14-2.36.72-6.05-.93-8.25a6.42,6.42,0,0,0-4.22-2.71,8.43,8.43,0,0,0-5.94,2c-.39.28,0,.94.38.65a8.28,8.28,0,0,1,4.91-1.94,5.17,5.17,0,0,1,3.66,1.73c1.7,1.79,3.45,5.3,1.88,7.66-1,1.56-3.25,1.94-5,2.06a8.84,8.84,0,0,1-2.24,0,4.69,4.69,0,0,1-2.74-2.06c-1.34-1.93-2.53-5.67-.41-7.51C186.16,160.08,185.63,159.55,185.26,159.87Z"/><path class="cls-6" d="M194.34,160.27a9.49,9.49,0,0,1,2.14,4.55,4.91,4.91,0,0,1-1.7,4.05c-2.86,2.59-6.78,1.37-10,.22-.6-.22-.87.75-.26,1a17,17,0,0,0,6.32,1.38,7.32,7.32,0,0,0,4.77-2,5.88,5.88,0,0,0,1.87-4.53,10.24,10.24,0,0,0-2.29-5.16c-.37-.52-1.24,0-.86.51Z"/><path class="cls-6" d="M196.64,168.44a6.06,6.06,0,0,1,5.56-2.35.51.51,0,0,0,.61-.35.5.5,0,0,0-.35-.62,7,7,0,0,0-6.52,2.61.5.5,0,0,0,.7.71Z"/><path class="cls-6" d="M202.33,165.18c-2.66-2.4-5.08-5.39-8.37-7a6.84,6.84,0,0,0-4.37-.67,15.86,15.86,0,0,0-4.15,1.83,8.27,8.27,0,0,1-5.07,1.38c-.64-.08-.63.92,0,1,3.11.42,5.52-1.77,8.22-2.86a5.61,5.61,0,0,1,4.33,0,14.73,14.73,0,0,1,4.29,2.87c1.52,1.34,2.91,2.8,4.41,4.16.48.43,1.19-.28.71-.71Z"/><path class="cls-6" d="M195.61,160.76a10.69,10.69,0,0,1,1.54,5.06.5.5,0,0,0,.75.43,5.87,5.87,0,0,1,2.49-.72c.53,0,.72-.88.13-1a2.87,2.87,0,0,1-2.63-2.38l-.86.36,2.14,2,.71-.71c-2.31-1.81-4-4.53-6.88-5.6a6.17,6.17,0,0,0-4.11.14c-1.43.46-2.88,1.11-4.41.84-.63-.11-.9.86-.27,1a8.06,8.06,0,0,0,4-.53c1.34-.45,2.76-1,4.18-.57a9,9,0,0,1,3.52,2.39,43,43,0,0,0,3.26,3.07c.49.38,1.19-.25.71-.71l-2.14-2c-.29-.28-.9-.1-.85.35a3.83,3.83,0,0,0,3.36,3.35l.14-1a7,7,0,0,0-3,.86l.75.43a11.83,11.83,0,0,0-1.67-5.56c-.34-.55-1.2,0-.87.5Z"/><path class="cls-6" d="M198.09,165.29a.5.5,0,0,0,0-1,.5.5,0,0,0,0,1Z"/><path class="cls-6" d="M196.65,167.18a.5.5,0,0,0,0-1,.5.5,0,0,0,0,1Z"/><path class="cls-6" d="M157.85,151.49c1.14-.54,2.74-1.18,3.71,0s1.19,3.13,1.92,4.57c.47.93,1.26,1.94,2.42,1.86.63,0,.64-1,0-1-1,.07-1.54-1.22-1.83-2s-.55-1.76-.91-2.62c-.53-1.28-1.38-2.45-2.89-2.49a6.54,6.54,0,0,0-2.92.82c-.58.28-.08,1.14.5.86Z"/><path class="cls-7" d="M162.51,154.28c.56,2.23-2.92,7.94-5.36,6.63-.84-.55-4.16-2.58-1.38-7.19C158.25,150.09,161.26,148.78,162.51,154.28Z"/><path class="cls-6" d="M162.15,154.38a3.93,3.93,0,0,1-.34,2.18,9.45,9.45,0,0,1-1.39,2.45,4.82,4.82,0,0,1-1.88,1.59,1.49,1.49,0,0,1-1.52-.22,4.06,4.06,0,0,1-2-3.48,6.4,6.4,0,0,1,1.37-3.47,7.91,7.91,0,0,1,2.09-2.07,1.85,1.85,0,0,1,2.06-.15c1,.68,1.32,2.1,1.57,3.17.11.47.83.27.72-.2-.42-1.81-1.51-4.64-3.91-3.85a5.78,5.78,0,0,0-2.41,1.77,8.81,8.81,0,0,0-2.09,3.73,4.57,4.57,0,0,0,.27,3.11,5.19,5.19,0,0,0,1.52,1.8,2.64,2.64,0,0,0,1.77.74,3.79,3.79,0,0,0,2.34-1.27,9.71,9.71,0,0,0,2-3,5,5,0,0,0,.51-3C162.76,153.71,162,153.91,162.15,154.38Z"/><path class="cls-6" d="M157.58,150.85a11.22,11.22,0,0,0-2.44,3,7.19,7.19,0,0,0-.75,4.2,4.8,4.8,0,0,0,1.6,3.2,6.34,6.34,0,0,0,3.67,1.07c.64.05.64-.95,0-1a5.15,5.15,0,0,1-3.15-.93,4.1,4.1,0,0,1-1.17-2.84c-.15-2.48,1.23-4.35,2.95-6,.47-.44-.24-1.14-.71-.7Z"/><path class="cls-6" d="M155.25,157.29c-.17-1.65-.81-3.66-2.55-4.24a.5.5,0,1,0-.26,1l.11,0c-.06,0,0,0,0,0l.2.1.17.12,0,0,.08.07a3.59,3.59,0,0,1,.32.35l0,0a.86.86,0,0,0,.07.1l.14.23a3.08,3.08,0,0,1,.22.45,3.73,3.73,0,0,1,.18.51,6.2,6.2,0,0,1,.25,1.24.51.51,0,0,0,.5.5.5.5,0,0,0,.5-.5Z"/><path class="cls-6" d="M153,154a51.12,51.12,0,0,1,4.43-2.68c1.14-.54,2.64-1,3.5.23,1.3,1.78,1.23,4.86,3.56,5.77.6.23.86-.73.26-1-1.08-.43-1.5-2-1.87-3a6.7,6.7,0,0,0-1.73-3.07c-1.14-.9-2.69-.54-3.91,0a43.52,43.52,0,0,0-4.74,2.82.5.5,0,0,0,.5.87Z"/><path class="cls-6" d="M156.78,150.87a13.07,13.07,0,0,0-2.52,4.13l.92-.12a4,4,0,0,0-1.27-1.65l-.39.92a2.44,2.44,0,0,0,2.86-1.67c.18-.42-.22-1-.69-.69l-1.64,1a.5.5,0,0,0,.51.87c1.06-.51,2-1.26,3-1.85.7-.42,1.78-1,2.54-.41a6.52,6.52,0,0,1,1.3,1.81,3.39,3.39,0,0,0,1.76,1.56.5.5,0,0,0,.26-1c-.75-.23-1.16-1.09-1.54-1.72a4,4,0,0,0-1.7-1.78,3.53,3.53,0,0,0-2.93.53c-1.09.61-2,1.43-3.18,2l.51.87,1.64-1-.69-.69c-.3.7-.86,1.49-1.72,1.21-.58-.18-.81.6-.39.92a3,3,0,0,1,.91,1.29c.2.44.78.22.92-.12a11.55,11.55,0,0,1,2.25-3.69c.44-.47-.26-1.18-.7-.71Z"/><path class="cls-6" d="M154.83,154.67a.5.5,0,0,0,0-1,.5.5,0,0,0,0,1Z"/><path class="cls-6" d="M154.43,153.94a.5.5,0,0,0,0-1,.5.5,0,0,0,0,1Z"/><path class="cls-6" d="M154.06,153.93a.5.5,0,0,0,0-1,.5.5,0,0,0,0,1Z"/><path class="cls-6" d="M155,156.61a.5.5,0,0,0,0-1,.5.5,0,0,0,0,1Z"/><path class="cls-8" d="M154.07,181.56c8.16,3.47,20.26,5.52,21.17-.55S154.07,181.56,154.07,181.56Z"/><path class="cls-9" d="M177.42,177.46s-2.19-15.49-18-12.36c-10.44,6-11.09,14.22-11.09,14.22,1,3.48,12,1.91,12,1.91S175.51,186.32,177.42,177.46Z"/><polygon class="cls-5" points="177.39 353.3 186.42 386.55 169.19 373.02 177.39 353.3"/><path class="cls-10" d="M163.18,244.86s-5.7,11.16-.49,19c5,.87,6-.16,6-.16s5.81-7.16,4.76-9.13-1.24-9-2.24-8.94S165.16,243.81,163.18,244.86Z"/><path class="cls-10" d="M162.86,262.27s-11.1,34.48-9.73,37.82c.94,10.4,5.21,24.53,8.53,28.27,6.1-4.88,6.71-12.92,6.71-12.92-.9-25.7-.81-51.19-.62-52.17S162.86,262.27,162.86,262.27Z"/><path class="cls-11" d="M141,232.42s18.65,11.28,21.73,12.32c-4.39,10.3-5.55,11-5.55,11s-15.32-10.9-16-12.6S141,232.42,141,232.42Z"/><path class="cls-11" d="M227.07,241.61s-52.75,4.29-55.24,4.22c3,6.76,2.25,12.8,5.19,13.67s57.08-5.61,57.08-5.61Z"/><path class="cls-12" d="M227.28,241.68s-20.26.73-22.76,2.54S159.45,351.28,185.83,382c3.83-44.74,27.06-77.5,27.06-77.5l-14.6-10.57c17.26,5.1,18.4,1.26,18.4,1.26l17.41-41.31Z"/><path class="cls-12" d="M141.18,230.23l7.12,6.12s.68,105.37-4.41,105.57-17.43-48.16-14.18-55.51l6.69-.41c-2.34-3.18-8-6.72-7.39-8.68S138.92,232.78,141.18,230.23Z"/><path class="cls-13" d="M410.09,260.57c2.48.14,6.29,0,11.32-.1a52.52,52.52,0,0,1-18.65-10.41C404.82,253.11,408,257.57,410.09,260.57Z"/><path class="cls-1" d="M410,260.56l-2.87-.48s1,.09,2.66.19c-2.12-3-4.23-6-6.29-9.06a35,35,0,0,1-7-8.21c-12.4-19.57-26.4-37.42-37.88-56.71-3.6,2.07-6.43,3.85-7,4.63-12.33,16.5-25.13,28.8-36.49,36.92-3.3,2.36-39.66,20.52-56.35,21.65a9.8,9.8,0,0,0-2.87.65C230.75,259.91,225,264,225,264c62.38,42,86.87,58.37,86.87,58.37,9.18-3.7,17.89-2.16-1.79-20.6,26.44,19.64,27.41,19.81,41.69,12.37-8-9.82-20.92-22.65-20.92-22.65,33.1,15.83,36.28,20.38,46.7,12.25-4.09-6.36-22.58-19-22.58-19,41.81,17.37,37.66,12.65,47.1,4.35C394.09,283.74,373,273,373,273c28.5,8.25,42.64,11.66,52,10.24C420.61,275.5,415.33,268.07,410,260.56Z"/><path class="cls-14" d="M410,260.56c5.3,7.51,10.58,14.94,14.9,22.66,8.07-1.23,12.55-6.07,19.6-14.53C433.94,264.9,416.79,261.73,410,260.56Z"/><path class="cls-15" d="M388.57,171.08c-4.52,2-8.11,3.82-11,5.14-1.74.79-11.85,6-18.95,10.07,11.48,19.29,25.48,37.14,37.88,56.71,5.49,8.95,14.54,14.49,24.9,17.47a145,145,0,0,0,23.25-2.24C424.07,228.71,403.79,201.81,388.57,171.08Z"/><path class="cls-4" d="M547.68,142.06l-4.53-.52c-89.65,3.52-132.87,19.73-154.58,29.54,15.22,30.73,35.5,57.63,56.09,87.15,15.42-2.88,31.36-9.18,38.62-22.57-16.7,0-51.31-3.1-51.31-3.1,77.49-15.21,87.68-33.35,87.34-48.37-29.12,6.81-93.53,21.35-93.53,21.35C524.67,167,534.89,175.18,547.68,142.06Z"/><path class="cls-16" d="M449.82,256.67c-21.41-33.44-54.6-88.54-54.6-88.54l-11.56,5.39L438,258.62Z"/><path class="cls-17" d="M84.49,155.58c-3.85,2.46-33.09,24.18-35,25.12,2.89,2.36,9.22,5.21,9.22,5.21l31.36-22Z"/><line class="cls-18" x1="158.52" y1="147.03" x2="165.72" y2="147.54"/><line class="cls-18" x1="203.12" y1="160.89" x2="186.58" y2="150.18"/></svg>