<svg id="Layer_1" data-name="Layer 1" xmlns="http://www.w3.org/2000/svg" viewBox="0 0 559 559"><defs><style>.cls-1,.cls-18{fill:#282827;}.cls-2{fill:#e25988;}.cls-3{fill:silver;}.cls-4{fill:#acacaf;}.cls-5{fill:#e2e2e2;}.cls-6{fill:#231f20;}.cls-7{fill:#6dcbdc;}.cls-8{fill:#9c732a;}.cls-9{fill:#d78e28;}.cls-10{fill:#e22e57;}.cls-11{fill:#fff;}.cls-12{fill:#424243;}.cls-13{fill:#211a2f;}.cls-14{fill:#27252d;}.cls-15{fill:#232323;}.cls-16{fill:#f2f2f2;}.cls-17{fill:#edeced;}.cls-18{stroke:#231f20;stroke-miterlimit:10;}</style></defs><path class="cls-1" d="M401.76,360.22c.31-.24.7-.13.72.2.17,3.68.83,19.86-.52,20.89a14,14,0,0,1-3.54,1.83s-26.6,4.63-24.47,1.08C375.88,381,397.62,363.54,401.76,360.22Z"/><path class="cls-2" d="M402.72,378.14s2.89,4,4.09,4.38a35.1,35.1,0,0,1,4.17,2s4.54.16,6,2,6.88,2.35,6.88,2.35,5.64-14.34,16.23-5.49c1.42,2.77-.38,6.64-.38,6.64s-3.93-4.67-4.47-4.16c-1.64-.74-5.37-.11-4.55,4.68s-5.15,11-5.15,11a7.38,7.38,0,0,1-3.26.26c-1.28-.34-.28,1.36-.28,1.36s.95,1.09.85,1.77c-2.48-.54-4.68,1.8-3.29,3.06.06,1.34-1.06,1.56-1.9,1.07s-2.58-4-1.9-4.76c.12-.8.29-2.76.29-2.76s4-5.72,4.49-5.7.78-3.71-2.79-3.93-4.67.65-4.67.65a6.24,6.24,0,0,1-1.69-.57c-.45-.31-3.09-1.11-3.45-.87s-4.86-4.1-4.86-4.1l-4.77-3.65Z"/><path class="cls-2" d="M430.58,390.91a10.16,10.16,0,0,0,3.71-2.75c1.45-1.84,8.58-5.68,10.87,1.44-2.36-.69-4.44-.54-4.22,2-7.78-4.05-7.48,7.39-15.09,9.25C429,396.38,431.27,393.28,430.58,390.91Z"/><path class="cls-3" d="M444.36,388.76s1.62,4.3-.25,7.23a7.21,7.21,0,0,1-3.14-4.77S440.93,387.73,444.36,388.76Z"/><path class="cls-3" d="M440,383.69s1.62,4.3-.25,7.23a7.18,7.18,0,0,1-3.13-4.77S436.56,382.66,440,383.69Z"/><path class="cls-3" d="M422.75,404.57a4.83,4.83,0,0,0,4.23,3.32c-4.56,2-7.54.6-7.54.6S417.57,405.55,422.75,404.57Z"/><path class="cls-1" d="M348.65,396.06c.33-.2.71,0,.68.3-.38,3.66-2.11,19.77-3.61,20.59a14.14,14.14,0,0,1-3.77,1.28s-27,.65-24.36-2.55C320,412.78,344.06,398.72,348.65,396.06Z"/><path class="cls-2" d="M347,413.93s2.26,4.41,3.39,4.93a34.46,34.46,0,0,1,3.84,2.55s4.46.83,5.62,2.89,6.46,3.35,6.46,3.35,7.69-13.35,16.86-3c1,2.95-1.35,6.52-1.35,6.52s-3.2-5.21-3.81-4.78c-1.51-1-5.3-.9-5.2,4S366,440.45,366,440.45a7.41,7.41,0,0,1-3.26-.22c-1.21-.53-.47,1.3-.47,1.3s.77,1.22.57,1.88c-2.37-.9-4.89,1.09-3.7,2.54-.14,1.34-1.28,1.38-2,.78s-2-4.36-1.18-5c.25-.77.7-2.69.7-2.69s4.78-5.06,5.28-5,1.32-3.55-2.18-4.3-4.71,0-4.71,0a6.29,6.29,0,0,1-1.59-.81c-.39-.38-2.89-1.56-3.29-1.37s-4.19-4.78-4.19-4.78l-4.18-4.31Z"/><path class="cls-2" d="M372.62,430.67a10,10,0,0,0,4.07-2.17c1.7-1.61,9.33-4.35,10.54,3-2.23-1-4.31-1.18-4.48,1.41-7.1-5.16-8.49,6.2-16.29,6.91C370.25,435.85,372.94,433.11,372.62,430.67Z"/><path class="cls-3" d="M386.55,430.58s1,4.49-1.31,7.11a7.18,7.18,0,0,1-2.4-5.17S383.32,429.05,386.55,430.58Z"/><path class="cls-3" d="M383,424.92s1,4.49-1.32,7.11a7.19,7.19,0,0,1-2.39-5.17S379.75,423.39,383,424.92Z"/><path class="cls-3" d="M362.85,443a4.83,4.83,0,0,0,3.69,3.91c-4.81,1.32-7.55-.52-7.55-.52S357.58,443.22,362.85,443Z"/><path class="cls-4" d="M467.68,163.46C476,150.66,516,90.73,542.22,77.3a2.92,2.92,0,0,1,4.21,2.86c-.84,10.49-5.47,36.2-30.34,52.49,0,0,22.07-13,26-13.74,1.28,13-4.86,24.22-36.71,45.09,0,0,15.52-9.86,32.09-13.8-3.55,13.5-.67,14.28-35.73,33.73C489.18,178.23,478.7,170.59,467.68,163.46Z"/><path class="cls-1" d="M409,273.47S420.38,228.8,438,202.32c1.45-3.3,12.39-10.32,28.08-36.45,0,0,.55-.86,1.56-2.41,11,7.13,21.5,14.77,34.07,20.47l-2.72,1.5s30-8.35,32.5-5.75c-1.33,15.47-22.3,23.24-44,27.08,0,0,27.75-3.9,33.37-.83-3.53,8.75-8.57,14.72-44.37,19,0,0,22.36.11,26.19,4.51-3.93,18-20.1,12.69-33.88,15.13,0,0,11.18.06,18.94,3.76-3.64,13.85-6.83,7.3-34.75,10.21,0,0,20.91,3.41,24.57,6.83-7.12,11.41-22.59,10.09-36.09,8.41,0,0,19.29,5.73,17,10.19l-24.8,3.37s11.71,3,13.21,5.79c-1.21,10.37-13.08,6.38-23.05,5.54,0,0-19.64,0-14.19,2.07,2.49,2.6.62,7.33-5.32,10.08S409,273.47,409,273.47Z"/><path class="cls-4" d="M322.35,256.06s21.51-31.89,17.08-74c2-45,33.49-61.94,56.27-44.81,23,53.17,21.23,103.24,20.63,106.68S322.35,256.06,322.35,256.06Z"/><path class="cls-1" d="M376.72,380.12a13.44,13.44,0,0,0,3.73-.14c-10.21,4.44-19.18,7.84-19.18,7.84l8.66-9.83A14.76,14.76,0,0,0,376.72,380.12Z"/><path class="cls-1" d="M376.72,380.12a14.76,14.76,0,0,1-6.79-2.13l21.3-24.17c1.72,9.23.07,19.36-5.72,23.92-1.69.77-3.39,1.52-5.06,2.24A13.44,13.44,0,0,1,376.72,380.12Z"/><path class="cls-4" d="M233.15,438.39c-34.17,6.61-64.09,8.91-80.7,8.06,0,0,19.15-32.64,46.24-71"/><path class="cls-1" d="M403.13,240.56c2.32,0,4.35,0,6.06,0q-3.06.86-6.15,1.53A3.08,3.08,0,0,0,403.13,240.56Z"/><path class="cls-1" d="M396.26,243.22l.26.1-.28.05C396.24,243.32,396.26,243.27,396.26,243.22Z"/><path class="cls-5" d="M387.18,344.71c-3-4-7-5.88-11.64-4-9.65-30.38-17.65-61.11-21.77-92.36l.3,0c9.87-.27,19.9.1,28.5-2a2.62,2.62,0,0,0,2.95.42l.32-.15a2.44,2.44,0,0,0,2.86,1.17,2.33,2.33,0,0,0,1.42-1.11,3,3,0,0,0,.56-.09,2.37,2.37,0,0,0,1.73-2.09l.26,0a2.34,2.34,0,0,0,1.58.07l.32-.13A2.38,2.38,0,0,0,397,245a2.34,2.34,0,0,0,1.65-1.66q2.85-.6,5.64-1.38c3.4.1,5.36.23,5.36.23,24.68,57,11,98.83-20,129C392.27,363.62,391.15,352.54,387.18,344.71Z"/><path class="cls-5" d="M383.87,365.5q-4.32-12.36-8.31-24.8c5.05-2,9.38-.23,12.52,3.75,4.1,7.79,5,18.92,2,26.68-.52.47-1,.95-1.56,1.42A13.3,13.3,0,0,1,383.87,365.5Z"/><path class="cls-1" d="M317.54,257A99.63,99.63,0,0,1,337.26,249c-.31.41-.61.83-.9,1.27a103.09,103.09,0,0,1,17.88-2.13v0l-.82.11.82-.11c3.69,31.38,11.59,62.14,21.31,92.49-.32.13-.65.27-1,.43.32-.16.65-.3,1-.43q4,12.45,8.31,24.8a13.3,13.3,0,0,0,4.69,7.05c-2.95,2.61-6,5.13-9.23,7.58a14.24,14.24,0,0,1-2.61,0c-19.24-1.61-13.58-28.31-2.42-39.95-11.16,11.64-16.82,38.34,2.42,39.95a14.24,14.24,0,0,0,2.61,0c-39.72,30.5-97.29,48.79-146.18,58.26l-34.46-62.93C233.14,326.7,280.44,268.73,317.54,257Z"/><path class="cls-1" d="M354.24,248.18l.33,0-.32.05Z"/><path class="cls-6" d="M362.72,160a10.82,10.82,0,0,1,4.25-2.3,6.21,6.21,0,0,1,3.94.63c2.77,1.29,5.82,4.13,9.09,2.66.59-.26.08-1.12-.5-.86-1.64.73-3.69-.16-5.13-1a22.9,22.9,0,0,0-4.34-2.25c-3-.93-5.67.55-8,2.38-.5.39.21,1.1.71.71Z"/><path class="cls-7" d="M372.22,159.66c3,2.53,0,10.47-4.11,10.26-1.87,0-9.11.07-7.14-6.65C362.82,158.36,366.68,155.53,372.22,159.66Z"/><path class="cls-6" d="M372,159.93c1.87,1.62,1.1,4.81.09,6.69a5.89,5.89,0,0,1-2.47,2.61,4.9,4.9,0,0,1-2.43.3c-1.73-.06-3.8-.3-5.11-1.56-2.07-2-.68-5.36.7-7.31a5.76,5.76,0,0,1,3.86-2.58c2-.25,3.88.77,5.43,1.91.39.28.77-.37.38-.65a8.77,8.77,0,0,0-5.42-2,5.93,5.93,0,0,0-4,1.85c-2,2-3.78,5.81-2.18,8.51,1.14,1.91,3.6,2.44,5.65,2.58a8.24,8.24,0,0,0,2.67-.06,5.56,5.56,0,0,0,3-2.36c1.53-2.21,2.67-6.36.29-8.42C372.13,159.08,371.59,159.61,372,159.93Z"/><path class="cls-6" d="M362.55,159.29a10.46,10.46,0,0,0-2.28,5.06,5.85,5.85,0,0,0,1.87,4.63,7.28,7.28,0,0,0,4.65,2,16.65,16.65,0,0,0,6.44-1.37c.6-.21.34-1.18-.27-1-3.21,1.15-7.12,2.36-10-.23a4.89,4.89,0,0,1-1.7-4,9.61,9.61,0,0,1,2.14-4.56c.38-.52-.49-1-.86-.5Z"/><path class="cls-6" d="M361.82,167.26a7,7,0,0,0-6.53-2.61.49.49,0,0,0-.35.61.5.5,0,0,0,.61.35,6.05,6.05,0,0,1,5.56,2.36.51.51,0,0,0,.71,0,.52.52,0,0,0,0-.71Z"/><path class="cls-6" d="M356.13,165.42c2.58-2.33,4.92-5.22,8.09-6.77a5.71,5.71,0,0,1,4.43-.41,29.73,29.73,0,0,1,4,2,8.2,8.2,0,0,0,4.78,1.09c.62-.08.63-1.08,0-1-3.24.43-5.71-2.16-8.63-3.06-3.29-1-6.32,1.05-8.71,3.12-1.6,1.4-3.05,2.94-4.63,4.36-.48.43.23,1.14.71.71Z"/><path class="cls-6" d="M361.27,159.79a11.83,11.83,0,0,0-1.67,5.56l.76-.43a7,7,0,0,0-3-.86l.13,1a3.84,3.84,0,0,0,3.37-3.34c0-.46-.57-.63-.86-.35l-2.14,2c-.48.45.22,1.09.71.71a39.52,39.52,0,0,0,3.19-3,9.31,9.31,0,0,1,3.59-2.46,6.77,6.77,0,0,1,4.1.55,8.27,8.27,0,0,0,4.08.56c.64-.11.37-1.08-.26-1-1.5.26-2.93-.36-4.33-.82a6.25,6.25,0,0,0-4.2-.16c-2.83,1.07-4.56,3.79-6.88,5.6l.71.71,2.14-2-.85-.35a2.91,2.91,0,0,1-2.64,2.38c-.58.1-.4.95.14,1a5.87,5.87,0,0,1,2.48.72.5.5,0,0,0,.75-.43,10.66,10.66,0,0,1,1.54-5.06c.34-.55-.53-1-.87-.5Z"/><path class="cls-6" d="M359.66,164.81a.5.5,0,0,0,0-1,.5.5,0,0,0,0,1Z"/><path class="cls-6" d="M361.1,166.71a.5.5,0,0,0,0-1,.5.5,0,0,0,0,1Z"/><path class="cls-6" d="M400.41,150.16c-1.34-.64-3.12-1.31-4.46-.31s-1.65,2.74-2.11,4.16c-.27.84-.87,2.49-2,2.41-.64,0-.64,1,0,1,2.12.15,2.8-2.77,3.31-4.29.35-1,.84-2.61,2.13-2.78a4.9,4.9,0,0,1,2.6.67c.58.28,1.09-.59.51-.86Z"/><path class="cls-7" d="M395.24,153.81c-.56,2.22,2.92,7.94,5.37,6.63.84-.55,4.16-2.58,1.38-7.19C399.51,149.62,396.49,148.3,395.24,153.81Z"/><path class="cls-6" d="M394.88,153.71a4.61,4.61,0,0,0,.36,2.64,10.64,10.64,0,0,0,1.63,2.81,5.12,5.12,0,0,0,2.26,1.73,2.19,2.19,0,0,0,2-.36,4.81,4.81,0,0,0,2.29-4.31,7.5,7.5,0,0,0-1.65-3.87,7.79,7.79,0,0,0-2.38-2.23,2.49,2.49,0,0,0-2.64,0,5.85,5.85,0,0,0-1.89,3.6c-.11.47.61.67.72.2.33-1.43,1.15-4.08,3.14-3.28a5.63,5.63,0,0,1,2.05,1.67,7.73,7.73,0,0,1,1.81,3.35,3.94,3.94,0,0,1-1.55,4,2,2,0,0,1-1.37.57,3.37,3.37,0,0,1-1.89-1.18,9.13,9.13,0,0,1-1.73-2.68,4.28,4.28,0,0,1-.46-2.48C395.71,153.44,395,153.24,394.88,153.71Z"/><path class="cls-6" d="M399.47,151.08c1.72,1.61,3.09,3.48,2.94,6a4.19,4.19,0,0,1-1.1,2.78,5,5,0,0,1-3.22,1c-.64,0-.64,1,0,1a6.31,6.31,0,0,0,3.67-1.07,4.83,4.83,0,0,0,1.6-3.2,7.11,7.11,0,0,0-.75-4.2,11.43,11.43,0,0,0-2.44-3c-.47-.44-1.17.27-.7.71Z"/><path class="cls-6" d="M403.5,156.82a6.58,6.58,0,0,1,.24-1.22,4.06,4.06,0,0,1,.41-1,4.36,4.36,0,0,1,.26-.39s0,0,0-.06l.09-.1.16-.15.09-.09,0,0s0,0,.05,0l.11-.07.18-.1s.13-.05,0,0l.11,0a.51.51,0,0,0,.35-.62.49.49,0,0,0-.61-.34c-1.74.58-2.38,2.59-2.55,4.24a.5.5,0,0,0,.5.5.51.51,0,0,0,.5-.5Z"/><path class="cls-6" d="M405.25,152.68a42.11,42.11,0,0,0-4.75-2.82c-1.21-.53-2.77-.88-3.9,0a6.63,6.63,0,0,0-1.74,3.07c-.37,1-.78,2.53-1.87,3-.59.23-.33,1.2.27,1,2.33-.91,2.25-4,3.55-5.77.86-1.18,2.36-.77,3.5-.24,1.57.74,2.95,1.8,4.43,2.68a.5.5,0,0,0,.51-.86Z"/><path class="cls-6" d="M400.27,151.1a11.88,11.88,0,0,1,2.26,3.69c.13.35.72.56.91.12a3.17,3.17,0,0,1,.91-1.29c.42-.31.2-1.1-.39-.91-.86.27-1.42-.51-1.72-1.21l-.68.68,1.64,1,.5-.86c-1.13-.54-2.09-1.35-3.18-2a3.53,3.53,0,0,0-2.93-.53,4,4,0,0,0-1.7,1.78c-.38.63-.78,1.49-1.54,1.72s-.35,1.15.27,1a3.26,3.26,0,0,0,1.72-1.51,7.25,7.25,0,0,1,1.33-1.86c.75-.56,1.79,0,2.48.38,1,.6,2,1.37,3.05,1.88a.5.5,0,0,0,.5-.86l-1.64-1c-.47-.29-.86.26-.68.68a2.44,2.44,0,0,0,2.85,1.68l-.39-.92a4.1,4.1,0,0,0-1.26,1.65l.91.12A13,13,0,0,0,401,150.4c-.44-.47-1.15.23-.71.7Z"/><path class="cls-6" d="M402.92,154.2a.5.5,0,0,0,0-1,.5.5,0,0,0,0,1Z"/><path class="cls-6" d="M403.33,153.47a.5.5,0,0,0,0-1,.5.5,0,0,0,0,1Z"/><path class="cls-6" d="M403.69,153.45a.5.5,0,0,0,0-1,.5.5,0,0,0,0,1Z"/><path class="cls-6" d="M402.78,156.14a.5.5,0,0,0,0-1,.5.5,0,0,0,0,1Z"/><path class="cls-8" d="M403.68,181.09c-8.16,3.47-20.26,5.52-21.17-.55S403.68,181.09,403.68,181.09Z"/><path class="cls-9" d="M380.33,177s2.19-15.5,18-12.36c10.45,6,11.09,14.21,11.09,14.21-.94,3.48-12,1.92-12,1.92S382.25,185.84,380.33,177Z"/><polygon class="cls-5" points="380.36 352.83 371.34 386.08 388.56 372.55 380.36 352.83"/><path class="cls-10" d="M394.57,244.39s5.7,11.15.49,19c-5,.86-6-.16-6-.16s-5.81-7.16-4.75-9.13,1.24-9,2.24-9S392.6,243.33,394.57,244.39Z"/><path class="cls-10" d="M394.9,261.8s11.09,34.48,9.73,37.82c-.95,10.4-5.22,24.53-8.54,28.27C390,323,389.38,315,389.38,315c.9-25.69.82-51.18.62-52.16S394.9,261.8,394.9,261.8Z"/><path class="cls-11" d="M416.71,232S398.06,243.23,395,244.27c4.4,10.29,5.55,11,5.55,11s15.32-10.89,16-12.59S416.71,232,416.71,232Z"/><path class="cls-11" d="M330.68,241.14s52.76,4.28,55.24,4.22c-3,6.75-2.25,12.8-5.19,13.67s-57.08-5.62-57.08-5.62Z"/><path class="cls-12" d="M330.47,241.2s20.26.74,22.77,2.55,45.06,107.06,18.69,137.79C368.09,336.79,344.86,304,344.86,304l14.6-10.57c-17.26,5.1-18.39,1.27-18.39,1.27l-17.42-41.32Z"/><path class="cls-12" d="M416.57,229.76l-7.11,6.12s-.69,105.37,4.41,105.57,17.43-48.16,14.18-55.51l-6.7-.41c2.35-3.18,8-6.72,7.39-8.68S418.83,232.31,416.57,229.76Z"/><path class="cls-13" d="M147.67,260.1c-2.49.14-6.3,0-11.32-.11A52.7,52.7,0,0,0,155,249.59C152.94,252.64,149.79,257.1,147.67,260.1Z"/><path class="cls-1" d="M147.72,260.09c1.8-.31,2.88-.48,2.88-.48s-1,.09-2.67.18c2.12-3,4.23-6,6.29-9.05a35.23,35.23,0,0,0,7-8.21c12.4-19.57,26.39-37.42,37.87-56.71,3.6,2.06,6.44,3.85,7,4.62,12.32,16.51,25.13,28.81,36.48,36.93,3.3,2.35,39.66,20.52,56.35,21.65a9.56,9.56,0,0,1,2.88.65c25.16,9.77,30.95,13.82,30.95,13.82-62.38,41.95-86.86,58.36-86.86,58.36-9.19-3.69-17.89-2.15,1.78-20.59-26.44,19.64-27.41,19.81-41.69,12.36C214,303.81,227,291,227,291c-33.1,15.83-36.28,20.39-46.7,12.26,4.1-6.36,22.58-19,22.58-19-41.8,17.37-37.65,12.65-47.1,4.35,7.93-5.35,29.06-16.12,29.06-16.12-28.49,8.26-42.63,11.67-52,10.25A261,261,0,0,1,147.72,260.09Z"/><path class="cls-14" d="M147.72,260.09a261,261,0,0,0-14.9,22.66c-8.07-1.23-12.55-6.07-19.59-14.53C123.81,264.43,141,261.26,147.72,260.09Z"/><path class="cls-15" d="M169.18,170.61c4.53,2,8.12,3.81,11,5.13,1.74.8,11.84,6,18.94,10.08-11.48,19.29-25.47,37.14-37.87,56.71-5.5,8.95-14.54,14.48-24.9,17.46a142.82,142.82,0,0,1-23.26-2.24C133.68,228.24,154,201.34,169.18,170.61Z"/><path class="cls-4" d="M10.07,141.59l4.53-.53c89.66,3.52,132.87,19.73,154.58,29.55-15.21,30.73-35.5,57.63-56.09,87.14-15.42-2.87-31.35-9.17-38.62-22.57,16.7,0,51.31-3.09,51.31-3.09-77.48-15.21-87.67-33.35-87.34-48.37C67.57,190.53,132,205.06,132,205.06,33.08,166.56,22.86,174.71,10.07,141.59Z"/><path class="cls-16" d="M107.93,256.19c21.41-33.43,54.6-88.54,54.6-88.54l11.56,5.4-54.34,85.1Z"/><path class="cls-17" d="M473.26,155.11c3.86,2.46,33.1,24.17,35,25.12-2.9,2.36-9.23,5.2-9.23,5.2l-31.35-22Z"/><line class="cls-18" x1="399.23" y1="146.55" x2="392.04" y2="147.07"/><line class="cls-18" x1="354.64" y1="160.42" x2="371.17" y2="149.71"/></svg>