<svg id="Layer_1" data-name="Layer 1" xmlns="http://www.w3.org/2000/svg" viewBox="0 0 559 559"><defs><style>.cls-1{fill:#acacaf;}.cls-2{fill:#282827;}.cls-3{fill:#e25988;}.cls-4{fill:#d0d2d3;}.cls-5{fill:#0c1126;}.cls-6{fill:#e2e2e2;}.cls-7{fill:#231f20;}.cls-8{fill:#6dcbdc;}.cls-9{fill:#9c732a;}.cls-10{fill:#d78e28;}.cls-11{fill:#818282;}.cls-12{fill:#e0e0e0;}.cls-13{fill:#e22e57;}.cls-14{fill:#fff;}.cls-15{fill:#424243;}.cls-16{fill:#e5e5e4;}</style></defs><path class="cls-1" d="M316,236.44s29.66-24.5,37.33-66.09C368,127.71,403,120.43,420,143.31c7,57.51-8.89,105-10.45,108.15S316,236.44,316,236.44Z"/><path class="cls-2" d="M333,370.82a13.8,13.8,0,0,0,3.61.92c-11,1.36-20.61,2.08-20.61,2.08l11.09-7A14.7,14.7,0,0,0,333,370.82Z"/><path class="cls-2" d="M333,370.82a14.7,14.7,0,0,1-5.91-4l27.27-17.15c-1,9.34-5.42,18.59-12.25,21.32-1.85.26-3.69.5-5.5.72A13.8,13.8,0,0,1,333,370.82Z"/><path class="cls-3" d="M306.62,388.29s-.63,3.85-.18,4.68a29.91,29.91,0,0,1,1.2,3.55s2.58,2.84,2.37,5.06c-.13,1.51,1.21,3.85,2.18,5.32a39.85,39.85,0,0,0-4.14,1.07,3.9,3.9,0,0,0-.81-2.05c-1.95-2.61-3.07-2.73-3.07-2.73a5.86,5.86,0,0,1-.59-1.47c-.06-.49-1-2.63-1.31-2.69s-.17-5.25-.17-5.25l-.34-4.5Z"/><path class="cls-3" d="M297.54,413.71c.52-1.13,1.89-1.54,3.1-1.82a14.53,14.53,0,0,0,4.44-1.53c1.29-.55,2.66-1.32,2.79-2.86a18.4,18.4,0,0,0,4.18-.88c4.24,4.85,11.55,1.18,17,3.2a3.82,3.82,0,0,0-2,4.57c-3-.15-10.83.53-10.55,4.57a13.23,13.23,0,0,1-5.37-1c-1.19-.62-2.17-1.62-3.42-2.07-2.93-1-5.74,1-8.45,1.76a1.29,1.29,0,0,1-.82,0c-.42-.15-.59-.64-.72-1.07A4.08,4.08,0,0,1,297.54,413.71Z"/><path class="cls-4" d="M298,413.05c-4.26,3.21-4.71,5.83-4.71,5.83a60.7,60.7,0,0,1,6.22-1.2C297.31,417.31,298,413.05,298,413.05Z"/><path class="cls-4" d="M328.73,409.44c3.74-1.16,5.47,3.41,8.09,5.09a22.56,22.56,0,0,1-9.54-.14,1.16,1.16,0,0,1-.67-.33,1.1,1.1,0,0,1-.1-.86,7.32,7.32,0,0,1,2.13-3.89"/><path class="cls-4" d="M320.68,414.57c4.35.23,4.06,5.14,6,7.87a25.56,25.56,0,0,1-11.72-2.9c-.34-.17-.69-.37-.73-.7s.33-.81.7-1.16a14,14,0,0,1,5.75-3.27"/><path class="cls-5" d="M319.06,369.85a.51.51,0,0,1,.47.76c-2.17,3.94-11.79,21.21-13.56,21.21a12.17,12.17,0,0,1-4.08-.88S277,374.82,281,372.82C284.58,371,313.55,370,319.06,369.85Z"/><path class="cls-1" d="M178.77,386c-34.64-3.33-64-9.6-79.68-15.12,0,0,27.61-25.89,64.46-55"/><path class="cls-2" d="M397.83,244.46c2.23.62,4.19,1.2,5.82,1.69q-3.18,0-6.33-.27A3.12,3.12,0,0,0,397.83,244.46Z"/><path class="cls-2" d="M390.49,245.06l.22.17-.29,0A.54.54,0,0,0,390.49,245.06Z"/><path class="cls-6" d="M353,339.82c-1.72-4.7-5.06-7.63-10-7.13-.65-31.87.39-63.61,5.28-94.75l.3.05c9.55,2.54,19.06,5.73,27.9,6.19a2.61,2.61,0,0,0,2.7,1.23l.35,0a2.45,2.45,0,0,0,2.41,1.93,2.34,2.34,0,0,0,1.68-.66,2.52,2.52,0,0,0,.56.07,2.38,2.38,0,0,0,2.26-1.51l.26,0a2.33,2.33,0,0,0,1.49.51,2,2,0,0,0,.35,0A2.35,2.35,0,0,0,390.7,247a2.3,2.3,0,0,0,2.05-1.11q2.89.23,5.8.27c3.23,1.06,5.08,1.74,5.08,1.74,7.53,61.61-17.49,97.89-55.73,118.1C352.55,359.39,354.61,348.45,353,339.82Z"/><path class="cls-6" d="M344,358.82q-.64-13.06-1-26.13c5.42-.5,9.07,2.43,11,7.13,1.72,8.63-.53,19.57-5.61,26.17-.63.31-1.25.62-1.89.92A13.26,13.26,0,0,1,344,358.82Z"/><path class="cls-2" d="M311.1,236a98.88,98.88,0,0,1,21.15-2c-.41.31-.81.62-1.21,1a103.47,103.47,0,0,1,17.75,3v0l-.81-.12.81.12c-5.34,31.14-6.48,62.88-5.76,94.75-.35,0-.7.07-1,.13.35-.06.7-.1,1-.13q.28,13.05,1,26.13a13.26,13.26,0,0,0,2.5,8.09c-3.57,1.67-7.25,3.21-11,4.66a14.92,14.92,0,0,1-2.49-.75c-18-7-5-31,9-39-14,8-27,32-9,39a14.92,14.92,0,0,0,2.49.75c-46.73,18-107.12,19.23-156.69,14.45l-15.22-70.11C210.4,278.91,272.19,236.71,311.1,236Z"/><path class="cls-2" d="M348.79,237.91l.32.08-.33-.05Z"/><path class="cls-3" d="M252.44,401.8a1.82,1.82,0,0,1,1.78,2.32,7.79,7.79,0,0,0-.49,3.08,29.14,29.14,0,0,1,.59,4c.44,1.62,2.37,4.18,1.7,6.84a8.74,8.74,0,0,0,.52,4.45,1.8,1.8,0,0,1-1.61,2.35l-.85.07a1.82,1.82,0,0,1-1.9-1.42,6.17,6.17,0,0,0-.37-1,10.24,10.24,0,0,0-2.54-3.62,2.64,2.64,0,0,1-.83-2.13c.05-.58-.57-3.29-.93-3.43s.79-5.36,1-6.1l0-.19.4-3.64a1.82,1.82,0,0,1,1.79-1.63Z"/><path class="cls-3" d="M238.71,429.52c.86-1.2,2.56-1.38,4-1.43a17.35,17.35,0,0,0,5.54-.82,5.34,5.34,0,0,0,3.52-1.89,1.76,1.76,0,0,1,1.53-.76,21.55,21.55,0,0,0,3.94-.19c2,3.79,6.56,4.56,10.58,5.16a42.1,42.1,0,0,1,5.31,1,1.82,1.82,0,0,1,.92,2.86,4.54,4.54,0,0,0-.89,1.64,1.86,1.86,0,0,1-2.06,1.36c-3.21-.39-9-.82-11,2.12a1.84,1.84,0,0,1-2.08.85,12.1,12.1,0,0,1-4.37-2c-1.27-1-2.19-2.37-3.55-3.18-3.2-1.86-6.94-.14-10.29.2a1.61,1.61,0,0,1-1-.13,1.73,1.73,0,0,1-.61-1.41A4.94,4.94,0,0,1,238.71,429.52Z"/><path class="cls-4" d="M235.9,430.93a1.89,1.89,0,0,0,1.09,3.58C240.2,434.26,238.7,429.2,235.9,430.93Z"/><path class="cls-4" d="M276.2,431.43a4.48,4.48,0,0,1,3.67,1.26,14,14,0,0,1,2.51,3.52,1.83,1.83,0,0,1-1.86,2.72,26.82,26.82,0,0,1-7.12-2,1.3,1.3,0,0,1-.7-.53,1.27,1.27,0,0,1,.07-1,8.75,8.75,0,0,1,3.35-4.08"/><path class="cls-4" d="M265.63,435.65c3.18.79,4,3.7,4.3,6.52.06.41.11.83.18,1.25a1.83,1.83,0,0,1-2.35,2,31.8,31.8,0,0,1-10-5.23c-.35-.27-.71-.58-.7-1s.57-.88,1.09-1.21a16.55,16.55,0,0,1,7.45-2.55"/><path class="cls-7" d="M381.8,155.76a11.78,11.78,0,0,1,4.55-1.06,5.93,5.93,0,0,1,3.42,1.34c2.57,2,4.63,6,8.44,5.52.64-.08.37-1.05-.26-1-2,.26-3.87-1.49-5.05-2.85a15.47,15.47,0,0,0-3.34-3.07c-2.55-1.57-5.4-.92-8,.11-.6.24-.34,1.2.26,1Z"/><path class="cls-8" d="M391.11,158.12c2.18,3.27-3,10-6.85,8.67-1.79-.55-8.76-2.51-5-8.41C382.46,154.2,387,152.58,391.11,158.12Z"/><path class="cls-7" d="M390.78,158.31c1.33,2.08-.31,4.92-1.81,6.43a6,6,0,0,1-3,1.8,4.81,4.81,0,0,1-2.45-.39c-1.67-.55-3.6-1.38-4.51-3-1.42-2.52,1-5.44,2.9-6.89a5.72,5.72,0,0,1,4.29-1.28,7.71,7.71,0,0,1,4.62,3.31c.29.38.94,0,.65-.38a9.14,9.14,0,0,0-4.38-3.48,5.82,5.82,0,0,0-4.31.41A10.27,10.27,0,0,0,379,158.2a5.73,5.73,0,0,0-1.1,4.11c.42,2.29,2.72,3.56,4.7,4.31a8.66,8.66,0,0,0,2.62.72,5.57,5.57,0,0,0,3.57-1.4c2.11-1.7,4.38-5.34,2.67-8C391.17,157.52,390.52,157.9,390.78,158.31Z"/><path class="cls-7" d="M381.93,155a10.54,10.54,0,0,0-3.53,4,5.83,5.83,0,0,0,.36,5.1,7.24,7.24,0,0,0,4.17,3.35,17.34,17.34,0,0,0,6.34.43c.64,0,.64-1,0-1-3.45.2-7.56.24-9.56-3.13a4.84,4.84,0,0,1-.26-4.65,10.62,10.62,0,0,1,3.18-3.39c.51-.4-.2-1.1-.7-.71Z"/><path class="cls-7" d="M379,162.56a7.07,7.07,0,0,0-5.58-4.46.5.5,0,0,0,0,1,6,6,0,0,1,4.62,3.73.51.51,0,0,0,.61.34.5.5,0,0,0,.35-.61Z"/><path class="cls-7" d="M374.06,159.07c1.74-.84,3.42-1.8,5.17-2.63a14.65,14.65,0,0,1,5.34-1.66,5.55,5.55,0,0,1,4,1.31c1.09.88,2,1.95,3,2.89a7.85,7.85,0,0,0,4,2.16c.62.1.9-.86.26-1-3-.46-4.65-3.29-6.88-5a6.34,6.34,0,0,0-4-1.4,13.54,13.54,0,0,0-5.35,1.37c-2.09.91-4.07,2.07-6.13,3.06-.58.28-.07,1.15.51.87Z"/><path class="cls-7" d="M380.56,155.14a11.84,11.84,0,0,0-3.17,4.86l.84-.22a7,7,0,0,0-2.63-1.66l-.13,1a3.84,3.84,0,0,0,4.17-2.27c.18-.44-.39-.74-.73-.56l-2.63,1.33c-.49.26-.14,1.13.39.92,1.53-.61,2.92-1.47,4.38-2.21a7.22,7.22,0,0,1,4.53-1.08,9.31,9.31,0,0,1,3.33,1.83,7.62,7.62,0,0,0,3.46,1.47c.64.07.63-.93,0-1-2.67-.3-4.29-3-7-3.34-3.29-.39-6.13,2.22-9,3.36l.39.92,2.62-1.34-.73-.56a2.9,2.9,0,0,1-3.21,1.53c-.59-.07-.63.8-.13,1a5.79,5.79,0,0,1,2.18,1.4.51.51,0,0,0,.84-.22,10.68,10.68,0,0,1,2.91-4.42c.48-.43-.23-1.13-.71-.71Z"/><path class="cls-7" d="M377.75,159.52a.5.5,0,0,0,0-1,.5.5,0,0,0,0,1Z"/><path class="cls-7" d="M378.59,161.74a.5.5,0,0,0,0-1,.5.5,0,0,0,0,1Z"/><path class="cls-7" d="M420.82,157a6,6,0,0,0-2.9-1.67,2.88,2.88,0,0,0-2.27.73,11.14,11.14,0,0,0-2,2.45c-.54.81-1.64,2.52-2.82,2.09-.61-.22-.87.75-.27,1,1.11.4,2.15-.36,2.87-1.13s1.36-1.93,2.11-2.85a3,3,0,0,1,1.85-1.28c1-.08,2,.78,2.7,1.41.48.43,1.19-.28.71-.71Z"/><path class="cls-8" d="M414.84,159c-1.17,2,.55,8.43,3.27,7.87,1-.29,4.72-1.3,3.36-6.5C420.12,156.21,417.6,154.1,414.84,159Z"/><path class="cls-7" d="M414.52,158.84a4.46,4.46,0,0,0-.41,2.52,10.2,10.2,0,0,0,.73,3.13c.59,1.46,1.8,3.27,3.62,2.7a5,5,0,0,0,3.28-2.67A5.94,5.94,0,0,0,422,161a9.45,9.45,0,0,0-1.6-3.76,2.89,2.89,0,0,0-2.73-1.43c-1.48.25-2.47,1.8-3.14,3a.37.37,0,0,0,.64.37c.55-1,1.31-2.26,2.46-2.6a1.92,1.92,0,0,1,2,.84,8.19,8.19,0,0,1,1.56,3.17,6,6,0,0,1,0,3.26,4,4,0,0,1-2.65,2.5,1.63,1.63,0,0,1-1.38,0,3.78,3.78,0,0,1-1.43-1.75,9.27,9.27,0,0,1-.83-3,4.29,4.29,0,0,1,.27-2.48A.37.37,0,0,0,414.52,158.84Z"/><path class="cls-7" d="M419.67,157.62c1.19,2,2,4.17,1.15,6.49a4.39,4.39,0,0,1-1.63,2.26,4.7,4.7,0,0,1-3.61.17c-.62-.14-.89.83-.26,1a6,6,0,0,0,4.12-.12,5,5,0,0,0,2.18-2.6,7.18,7.18,0,0,0,.44-4,11.14,11.14,0,0,0-1.52-3.65.5.5,0,0,0-.87.51Z"/><path class="cls-7" d="M421.91,164.24a7.05,7.05,0,0,1,.59-1.11l.17-.25.08-.11,0-.05c.12-.14.25-.28.38-.41l.19-.17.07,0,.08-.06a2.65,2.65,0,0,1,.4-.24l.1,0c-.12.06,0,0,0,0l.2-.07.21,0c.1,0-.11,0,0,0h.12a.5.5,0,1,0,0-1c-1.83.06-3,1.83-3.64,3.35a.51.51,0,0,0,.35.62.51.51,0,0,0,.61-.35Z"/><path class="cls-7" d="M424.75,160.76a50.62,50.62,0,0,0-3.57-3.89c-1-.87-2.42-1.76-3.8-1.28a6.25,6.25,0,0,0-2.62,2.45c-.65.85-1.49,2.25-2.68,2.35-.64.06-.64,1.06,0,1,2.53-.21,3.28-3.27,5.1-4.57,1.18-.85,2.51.05,3.43.88,1.26,1.14,2.27,2.52,3.43,3.77.44.47,1.14-.24.71-.71Z"/><path class="cls-7" d="M420.44,157.87a11.57,11.57,0,0,1,1.11,4.17c0,.39.54.72.85.35a3.27,3.27,0,0,1,1.24-1c.5-.19.47-1-.13-1-.83,0-1.2-.81-1.29-1.53l-.85.35,1.28,1.45.71-.71c-.86-.77-1.52-1.74-2.31-2.58a4,4,0,0,0-2.54-1.53,3.31,3.31,0,0,0-2.28,1.1c-.59.52-1.26,1.33-2.12,1.34a.5.5,0,0,0,0,1,3.46,3.46,0,0,0,2.18-1.05c.56-.49,1.19-1.28,2-1.39s1.7.8,2.22,1.38a31.49,31.49,0,0,0,2.17,2.44.5.5,0,0,0,.71-.71l-1.28-1.44a.51.51,0,0,0-.86.35c.15,1.25.86,2.56,2.29,2.53l-.13-1a4.13,4.13,0,0,0-1.69,1.23l.86.35a13.17,13.17,0,0,0-1.25-4.68c-.29-.57-1.15-.07-.86.51Z"/><path class="cls-7" d="M422.24,161.59a.5.5,0,0,0,0-1,.5.5,0,0,0,0,1Z"/><path class="cls-7" d="M422.83,161a.5.5,0,0,0,0-1,.5.5,0,0,0,0,1Z"/><path class="cls-7" d="M423.19,161.1a.5.5,0,0,0,0-1,.5.5,0,0,0,0,1Z"/><path class="cls-7" d="M421.55,163.41a.5.5,0,0,0,0-1,.5.5,0,0,0,0,1Z"/><path class="cls-9" d="M415.21,187.57c-8.81,1-21-.43-20.15-6.52S415.21,187.57,415.21,187.57Z"/><path class="cls-10" d="M394,177s6.49-14.24,20.77-6.75c8.32,8.71,6.61,16.77,6.61,16.77-1.89,3.07-12.07-1.56-12.07-1.56S393.3,186.06,394,177Z"/><path class="cls-11" d="M175.48,362.83c-41.25,6-75.39,9.07-75.39,9.07s24.22-24,57.89-51.86"/><path class="cls-2" d="M175.48,362.83c58.81-8.54,132.08-23,141.49-43,16-34-31-79-31-79C245.28,253,195.7,288.88,158,320"/><path class="cls-2" d="M266.06,385.85a.51.51,0,0,1,.47.76c-2.17,3.94-11.79,21.21-13.56,21.21a12.17,12.17,0,0,1-4.08-.88S224,390.82,228,388.82C231.58,387,260.55,386,266.06,385.85Z"/><polygon class="cls-6" points="344.19 345.67 326.11 375.01 346.47 366.91 344.19 345.67"/><path class="cls-12" d="M158.19,319l-8,6.67S163,363.82,165,363.82s11.44-1.44,11.44-1.44Z"/><path class="cls-13" d="M388.54,245.7s2.31,12.32-4.92,18.38c-5.07-.59-5.71-1.85-5.71-1.85s-3.54-8.51-2-10.11,3.73-8.25,4.68-7.94S386.94,244.13,388.54,245.7Z"/><path class="cls-13" d="M383.92,262.49s.87,36.21-1.38,39c-3.86,9.7-12,22.05-16.2,24.69-4.46-6.41-2.78-14.29-2.78-14.29,8.15-24.39,15.29-48.86,15.38-49.86S383.92,262.49,383.92,262.49Z"/><path class="cls-14" d="M413.3,240s-21.09,5.54-24.33,5.66c1.29,11.12,2.2,12.12,2.2,12.12s17.78-6.11,18.9-7.55S413.3,240,413.3,240Z"/><path class="cls-14" d="M328.19,224.49s49.38,19,51.78,19.69c-4.76,5.64-5.78,11.64-8.85,11.64S318,234.27,318,234.27Z"/><path class="cls-15" d="M328,224.49s19.22,6.44,21.11,8.89S362,348.82,328,370.82c9-44-4-82-4-82l17-6c-18,0-18-4-18-4l-5-44.55Z"/><path class="cls-15" d="M413.78,237.9l-8.55,3.86s-30.52,100.85-25.68,102.49S409.9,303,408.87,295l-6.3-2.28c3.15-2.39,9.53-4.19,9.54-6.23S415.22,241,413.78,237.9Z"/><path class="cls-2" d="M414.18,236.66c39.59,3.23,82.11,17.23,78.84,26a3.15,3.15,0,0,1-.95,1.23L413.86,238A2.94,2.94,0,0,0,414.18,236.66Z"/><path class="cls-15" d="M412.58,237.81c38.16,3.17,78.9,14.77,79.7,27.41-19.44,7.59-56,10.58-79.72,3.23A137.57,137.57,0,0,0,412.58,237.81Z"/><path class="cls-11" d="M389.88,362a231.15,231.15,0,0,1-11.4-40.89c-2.81-14.85-4.34-29.51-4.17-40.95.23-15.89,3.73-25.57,11.57-20.91a56.67,56.67,0,0,0,14.27,5.53"/><path class="cls-2" d="M389.88,362c5.37,13.5,11.81,23.76,18.79,26.85C470.22,351,495.3,265,495.3,265l-3.23-1.06c-8.13,6.86-61.21,8.94-91.92.86"/><path class="cls-16" d="M415.3,267.71c-3,13.11-16.45,113.22-14.22,114.67-5.78-7.56-11.41-21.11-11.41-21.11l9.63-96.45Z"/></svg>