<svg id="Layer_1" data-name="Layer 1" xmlns="http://www.w3.org/2000/svg" viewBox="0 0 559 559"><defs><style>.cls-1{fill:#acacaf;}.cls-2{fill:#282827;}.cls-3{fill:#e2e2e2;}.cls-4{fill:#231f20;}.cls-5{fill:#6dcbdc;}.cls-6{fill:#9c732a;}.cls-7{fill:#d78e28;}.cls-8{fill:#818282;}.cls-9{fill:#e0e0e0;}.cls-10{fill:#e22e57;}.cls-11{fill:#fff;}.cls-12{fill:#424243;}</style></defs><path class="cls-1" d="M310.07,260.62s33.54-18.84,48.47-58.41c22-39.36,57.74-40.31,70.4-14.74-3.32,57.84-27.38,101.75-29.48,104.58S310.07,260.62,310.07,260.62Z"/><path class="cls-2" d="M333.59,391a13.69,13.69,0,0,0,3.61.92c-11,1.36-20.61,2.08-20.61,2.08l11.09-7A14.69,14.69,0,0,0,333.59,391Z"/><path class="cls-2" d="M333.59,391a14.69,14.69,0,0,1-5.91-4L355,369.91c-1,9.34-5.42,18.59-12.26,21.32-1.85.26-3.69.5-5.5.72A14,14,0,0,1,333.59,391Z"/><path class="cls-1" d="M179.39,406.23c-34.64-3.34-64-9.6-79.68-15.12,0,0,27.61-25.89,64.46-55"/><path class="cls-2" d="M398.45,264.67c2.23.62,4.19,1.2,5.82,1.69-2.11,0-4.23-.12-6.33-.27A3,3,0,0,0,398.45,264.67Z"/><path class="cls-2" d="M391.11,265.27l.22.17h-.28Z"/><path class="cls-3" d="M353.65,360c-1.72-4.7-5.06-7.63-10-7.13-.66-31.87.38-63.61,5.28-94.75h.3c9.54,2.54,19,5.73,27.89,6.19a2.63,2.63,0,0,0,2.71,1.23l.35-.05a2.42,2.42,0,0,0,2.41,1.93,2.31,2.31,0,0,0,1.67-.66,2.78,2.78,0,0,0,.57.07,2.38,2.38,0,0,0,2.25-1.51h.26a2.35,2.35,0,0,0,1.49.5h.35a2.36,2.36,0,0,0,2.16,1.29,2.31,2.31,0,0,0,2.05-1.11c1.93.15,3.86.24,5.81.27,3.22,1.06,5.07,1.74,5.07,1.74,7.53,61.61-17.48,97.89-55.73,118.1C353.17,379.6,355.24,368.66,353.65,360Z"/><path class="cls-3" d="M344.59,379q-.64-13.06-.95-26.13c5.42-.5,9.07,2.43,10.95,7.13,1.72,8.63-.53,19.57-5.61,26.17-.63.31-1.25.62-1.89.92A13.24,13.24,0,0,1,344.59,379Z"/><path class="cls-2" d="M311.72,256.16a99.49,99.49,0,0,1,21.15-2,13.62,13.62,0,0,0-1.21,1,103.67,103.67,0,0,1,17.75,3h0l-.81-.12.81.12c-5.34,31.14-6.47,62.88-5.76,94.75a6.54,6.54,0,0,0-1,.13c.36-.06.71-.1,1-.13q.3,13.05,1,26.13a13.24,13.24,0,0,0,2.5,8.09c-3.57,1.67-7.25,3.21-11,4.66a15.51,15.51,0,0,1-2.49-.75c-18-7-5-31,9-39-14,8-27,32-9,39a15.51,15.51,0,0,0,2.49.75c-46.74,18-107.1,19.21-156.7,14.44l-15.23-70.11C211,299.12,272.81,256.92,311.72,256.16Z"/><path class="cls-2" d="M349.41,258.12l.32.08h-.33Z"/><path class="cls-4" d="M389.17,192.94a11.85,11.85,0,0,1,4.67-.24,5.86,5.86,0,0,1,3.12,1.93c2.18,2.42,3.49,6.72,7.34,6.93.63,0,.54-1-.09-1-2-.1-3.54-2.16-4.46-3.7a15.42,15.42,0,0,0-2.74-3.62c-2.23-2-5.16-1.86-7.9-1.31-.62.13-.54,1.12.08,1Z"/><path class="cls-5" d="M397.92,196.88c1.56,3.61-4.73,9.31-8.28,7.32-1.66-.86-8.18-4-3.43-9.16C390.1,191.49,394.83,190.7,397.92,196.88Z"/><path class="cls-4" d="M397.57,197c.94,2.3-1.19,4.8-2.93,6a5.9,5.9,0,0,1-3.27,1.23,4.84,4.84,0,0,1-2.36-.81c-1.54-.84-3.29-2-3.89-3.75-1-2.74,1.95-5.19,4.06-6.27a5.79,5.79,0,0,1,4.46-.5,7.76,7.76,0,0,1,4,4.07c.22.42.93.17.7-.25a9.16,9.16,0,0,0-3.68-4.2,5.81,5.81,0,0,0-4.33-.37,10.59,10.59,0,0,0-4.3,2.61,5.74,5.74,0,0,0-1.8,3.86c0,2.32,2,4,3.85,5.08a8.64,8.64,0,0,0,2.45,1.17,5.57,5.57,0,0,0,3.76-.74c2.38-1.3,5.26-4.48,4.05-7.4C398.09,196.3,397.39,196.56,397.57,197Z"/><path class="cls-4" d="M389.43,192.21a10.65,10.65,0,0,0-4.18,3.31,5.83,5.83,0,0,0-.55,5.09,7.29,7.29,0,0,0,3.51,4,17.32,17.32,0,0,0,6.16,1.55.5.5,0,0,0,.18-1c-3.42-.42-7.49-1.11-8.86-4.78a4.86,4.86,0,0,1,.57-4.62A10.53,10.53,0,0,1,390,193c.57-.31,0-1.12-.57-.83Z"/><path class="cls-4" d="M385.23,199.11a7.07,7.07,0,0,0-4.69-5.38.5.5,0,0,0-.58.4.51.51,0,0,0,.4.58,6,6,0,0,1,3.88,4.48.51.51,0,0,0,.54.45.48.48,0,0,0,.45-.52Z"/><path class="cls-4" d="M381,194.79c1.86-.52,3.7-1.16,5.57-1.68a14.79,14.79,0,0,1,5.53-.67,5.57,5.57,0,0,1,3.71,2c.92,1.06,1.62,2.28,2.44,3.38a7.85,7.85,0,0,0,3.55,2.84c.6.21,1-.69.43-.94-2.87-1-4-4.06-5.88-6.14a6.29,6.29,0,0,0-3.69-2.09,13.56,13.56,0,0,0-5.49.39c-2.23.53-4.39,1.32-6.59,1.93-.62.17-.27,1.11.35.95Z"/><path class="cls-4" d="M388.06,192.08a11.84,11.84,0,0,0-4,4.22l.87-.07a7.08,7.08,0,0,0-2.29-2.1l-.31,1a3.84,3.84,0,0,0,4.51-1.49c.25-.4-.25-.8-.62-.68l-2.83.84c-.52.16-.34,1.09.22,1,1.62-.33,3.14-.92,4.71-1.39a7.2,7.2,0,0,1,4.65-.26,9.31,9.31,0,0,1,2.95,2.38,7.54,7.54,0,0,0,3.14,2.07c.62.18.79-.8.18-1-2.57-.77-3.68-3.72-6.3-4.53-3.17-1-6.41,1.09-9.45,1.71l.22,1,2.82-.85-.62-.68a2.91,2.91,0,0,1-3.43.93c-.57-.17-.77.68-.31,1a5.65,5.65,0,0,1,1.9,1.77.5.5,0,0,0,.71.11.43.43,0,0,0,.15-.18,10.72,10.72,0,0,1,3.65-3.83c.55-.34,0-1.17-.57-.83Z"/><path class="cls-4" d="M384.52,195.89a.5.5,0,0,0,.58-.4.49.49,0,0,0-.4-.58.5.5,0,1,0-.18,1Z"/><path class="cls-4" d="M334.15,176.92a.5.5,0,1,0-.4-.58A.5.5,0,0,0,334.15,176.92Z"/><path class="cls-4" d="M333.14,178.77a.5.5,0,0,0,.59-.4.5.5,0,1,0-1-.18A.5.5,0,0,0,333.14,178.77Z"/><path class="cls-4" d="M385,198.27a.5.5,0,0,0,.58-.4.51.51,0,0,0-.41-.58.5.5,0,1,0-.17,1Z"/><path class="cls-4" d="M427.36,201a6,6,0,0,0-2.56-2.15,2.81,2.81,0,0,0-2.36.31,11.24,11.24,0,0,0-2.4,2.06c-.68.7-2.05,2.18-3.15,1.55-.56-.32-1,.59-.44.94,1,.59,2.18,0,3-.6s1.68-1.66,2.58-2.43a2.93,2.93,0,0,1,2.05-.93c1,.09,1.83,1.12,2.41,1.86.4.51,1.22-.06.82-.57Z"/><path class="cls-5" d="M421.11,202c-1.49,1.76-1,8.4,1.82,8.34,1-.11,4.88-.45,4.46-5.8C426.81,200.15,424.7,197.63,421.11,202Z"/><path class="cls-4" d="M420.83,201.75a4.44,4.44,0,0,0-.84,2.41,9.82,9.82,0,0,0,.15,3.2c.32,1.54,1.19,3.54,3.08,3.3a5,5,0,0,0,3.71-2,6,6,0,0,0,.87-3.39,9.36,9.36,0,0,0-.92-4,2.88,2.88,0,0,0-2.43-1.89c-1.49,0-2.75,1.33-3.62,2.4a.36.36,0,0,0,.07.52.37.37,0,0,0,.49-.05c.72-.88,1.69-2,2.89-2.12a1.91,1.91,0,0,1,1.81,1.18,8.29,8.29,0,0,1,1,3.4,6.06,6.06,0,0,1-.53,3.22,4,4,0,0,1-3.06,2,1.62,1.62,0,0,1-1.35-.25,3.81,3.81,0,0,1-1.11-2,9.2,9.2,0,0,1-.28-3.09,4.34,4.34,0,0,1,.7-2.4.37.37,0,1,0-.61-.42Z"/><path class="cls-4" d="M426.12,201.46c.81,2.18,1.23,4.46,0,6.59a4.32,4.32,0,0,1-2,1.94,4.69,4.69,0,0,1-3.57-.48c-.6-.25-1,.66-.45.94a6,6,0,0,0,4.08.61,5,5,0,0,0,2.61-2.17A7.14,7.14,0,0,0,427.9,205a11.2,11.2,0,0,0-.85-3.86.5.5,0,0,0-.94.35Z"/><path class="cls-4" d="M427.14,208.37a9.44,9.44,0,0,1,.78-1l.21-.21.1-.1h0a4.84,4.84,0,0,1,.46-.33l.21-.13H429l.09-.05a3.29,3.29,0,0,1,.44-.16l.11,0h0l.22,0,.19,0h0l.12,0a.5.5,0,1,0,.18-1c-1.81-.27-3.28,1.27-4.18,2.65a.5.5,0,1,0,.9.43Z"/><path class="cls-4" d="M430.55,205.48a50.66,50.66,0,0,0-2.82-4.46c-.83-1-2.06-2.16-3.52-1.93a6.27,6.27,0,0,0-3,1.94c-.78.72-1.86,1.95-3.05,1.84-.63-.05-.82.93-.18,1,2.53.24,3.82-2.63,5.83-3.59,1.31-.63,2.46.49,3.22,1.48,1,1.33,1.8,2.88,2.71,4.31C430.08,206.59,430.9,206,430.55,205.48Z"/><path class="cls-4" d="M426.83,201.84a11.77,11.77,0,0,1,.35,4.3c-.07.39.41.8.77.5a3.44,3.44,0,0,1,1.4-.77c.53-.09.64-.9,0-1-.82-.15-1-1-1-1.74l-.91.2,1,1.65.82-.57a34.16,34.16,0,0,1-1.8-2.95,4.09,4.09,0,0,0-2.23-2,3.34,3.34,0,0,0-2.44.68c-.68.41-1.49,1.09-2.34.94a.5.5,0,0,0-.58.41.51.51,0,0,0,.41.58,3.45,3.45,0,0,0,2.34-.66c.63-.37,1.39-1,2.21-1s1.53,1.09,1.94,1.75a30.63,30.63,0,0,0,1.71,2.79.5.5,0,0,0,.82-.57l-1-1.65c-.21-.35-.88-.24-.9.19-.09,1.26.38,2.67,1.79,2.9l.05-1a4.1,4.1,0,0,0-1.87.91l.78.5a13.12,13.12,0,0,0-.4-4.83c-.19-.61-1.12-.27-.94.35Z"/><path class="cls-4" d="M427.94,205.82a.5.5,0,1,0-.41-.58A.51.51,0,0,0,427.94,205.82Z"/><path class="cls-4" d="M428.63,205.36a.5.5,0,0,0,.18-1,.51.51,0,0,0-.58.41A.5.5,0,0,0,428.63,205.36Z"/><path class="cls-4" d="M429,205.51a.5.5,0,0,0,.58-.4.49.49,0,0,0-.4-.58.5.5,0,1,0-.18,1Z"/><path class="cls-4" d="M426.94,207.49a.5.5,0,1,0-.41-.58A.5.5,0,0,0,426.94,207.49Z"/><path class="cls-6" d="M416.41,230.14c-8.85-.58-20.59-4.16-18.67-10S416.41,230.14,416.41,230.14Z"/><path class="cls-7" d="M397.39,216s8.91-12.86,21.63-2.95c6.65,10,3.53,17.67,3.53,17.67-2.4,2.69-11.6-3.67-11.6-3.67S395.11,224.77,397.39,216Z"/><path class="cls-8" d="M176.1,383c-41.25,6-75.39,9.07-75.39,9.07S124.93,368,158.6,340.21"/><path class="cls-2" d="M176.1,383c58.81-8.54,132.08-23,141.49-43,16-34-31-79-31-79-40.69,12.15-90.27,48-128,79.22"/><polygon class="cls-3" points="344.81 365.88 326.74 395.22 347.09 387.12 344.81 365.88"/><path class="cls-9" d="M158.81,339.25l-8,6.67S163.59,384,165.59,384,177,382.59,177,382.59Z"/><path class="cls-10" d="M389.16,265.91s2.31,12.32-4.92,18.38c-5.06-.59-5.71-1.85-5.71-1.85s-3.54-8.51-2-10.11,3.73-8.25,4.68-7.94S387.57,264.34,389.16,265.91Z"/><path class="cls-10" d="M384.54,282.7s.87,36.21-1.38,39c-3.86,9.7-12,22-16.2,24.69-4.46-6.41-2.77-14.29-2.77-14.29,8.14-24.39,15.28-48.86,15.37-49.86S384.54,282.7,384.54,282.7Z"/><path class="cls-11" d="M413.92,260.25s-21.09,5.54-24.33,5.66C390.89,277,391.8,278,391.8,278s17.78-6.11,18.89-7.55S413.92,260.25,413.92,260.25Z"/><path class="cls-11" d="M328.81,244.7s49.38,19.05,51.78,19.69C375.83,270,374.81,276,371.74,276s-53.15-21.55-53.15-21.55Z"/><path class="cls-12" d="M328.59,244.7s19.22,6.44,21.11,8.89S362.59,369,328.59,391c9-44-4-82-4-82l17-6c-18,0-18-4-18-4l-5-44.55Z"/><path class="cls-12" d="M414.4,258.11,405.85,262s-30.51,100.86-25.68,102.5,30.36-41.25,29.32-49.22l-6.3-2.28c3.15-2.4,9.53-4.19,9.54-6.23S415.84,261.2,414.4,258.11Z"/></svg>