<svg id="Layer_1" data-name="Layer 1" xmlns="http://www.w3.org/2000/svg" viewBox="0 0 559 559"><defs><style>.cls-1,.cls-18{fill:#282827;}.cls-2{fill:#e25988;}.cls-3{fill:silver;}.cls-4{fill:#acacaf;}.cls-5{fill:#e2e2e2;}.cls-6{fill:#231f20;}.cls-7{fill:#6dcbdc;}.cls-8{fill:#9c732a;}.cls-9{fill:#d78e28;}.cls-10{fill:#e22e57;}.cls-11{fill:#fff;}.cls-12{fill:#424243;}.cls-13{fill:#211a2f;}.cls-14{fill:#27252d;}.cls-15{fill:#232323;}.cls-16{fill:#f2f2f2;}.cls-17{fill:#edeced;}.cls-18{stroke:#231f20;stroke-miterlimit:10;}</style></defs><path class="cls-1" d="M317.92,357.86c.37-.14.71.09.62.41-1,3.54-5.48,19.11-7.09,19.66a14.08,14.08,0,0,1-3.93.62s-26.71-4-23.56-6.7C286.8,369.41,312.94,359.69,317.92,357.86Z"/><path class="cls-2" d="M313.18,375.17s1.46,4.74,2.49,5.44a34.75,34.75,0,0,1,3.34,3.18s4.26,1.58,5,3.8,5.79,4.41,5.79,4.41,9.88-11.82,17.14-.09c.47,3.08-2.46,6.19-2.46,6.19s-2.25-5.68-2.93-5.37c-1.32-1.22-5.06-1.8-5.8,3s-8.36,8.84-8.36,8.84a7.45,7.45,0,0,1-3.18-.78c-1.1-.73-.69,1.2-.69,1.2s.56,1.34.25,1.95c-2.18-1.3-5,.24-4.08,1.87-.37,1.29-1.5,1.14-2.15.41s-1.18-4.63-.3-5.11c.37-.72,1.15-2.53,1.15-2.53s5.58-4.17,6.05-4,1.92-3.27-1.41-4.61-4.62-.86-4.62-.86a6.33,6.33,0,0,1-1.44-1.07c-.32-.44-2.58-2-3-1.92s-3.31-5.43-3.31-5.43l-3.37-5Z"/><path class="cls-2" d="M335.59,396.07a10.1,10.1,0,0,0,4.38-1.44c2-1.29,9.94-2.68,9.87,4.79-2-1.39-4-1.9-4.66.62-6.1-6.31-9.43,4.64-17.23,4C332.37,400.76,335.49,398.54,335.59,396.07Z"/><path class="cls-3" d="M349.33,398.38s.19,4.59-2.51,6.78a7.2,7.2,0,0,1-1.47-5.51S346.41,396.32,349.33,398.38Z"/><path class="cls-3" d="M346.79,392.19s.18,4.59-2.52,6.78a7.2,7.2,0,0,1-1.47-5.51S343.87,390.13,346.79,392.19Z"/><path class="cls-3" d="M323.85,406.56a4.8,4.8,0,0,0,3,4.48c-5,.48-7.35-1.81-7.35-1.81S318.62,405.85,323.85,406.56Z"/><path class="cls-1" d="M256.21,375.11c.38-.08.69.19.55.49-1.51,3.36-8.24,18.1-9.92,18.4a14,14,0,0,1-4,0s-25.82-7.91-22.3-10.12C223.73,381.93,251,376.19,256.21,375.11Z"/><path class="cls-2" d="M249,391.52s.75,4.91,1.67,5.76a34.79,34.79,0,0,1,2.83,3.63s4,2.19,4.42,4.51,5.08,5.22,5.08,5.22,11.51-10.24,17,2.44c0,3.11-3.35,5.75-3.35,5.75s-1.38-5.94-2.1-5.73c-1.13-1.4-4.74-2.53-6.18,2.12s-9.58,7.5-9.58,7.5a7.35,7.35,0,0,1-3-1.24c-1-.88-.85,1.08-.85,1.08s.35,1.41-.05,2c-2-1.61-5-.51-4.31,1.25-.56,1.21-1.65.9-2.19.09s-.48-4.76.46-5.11c.47-.65,1.51-2.33,1.51-2.33s6.14-3.3,6.58-3.05,2.37-2.95-.71-4.77-4.45-1.53-4.45-1.53a6.36,6.36,0,0,1-1.26-1.27c-.25-.49-2.25-2.39-2.68-2.34s-2.48-5.86-2.48-5.86l-2.6-5.41Z"/><path class="cls-2" d="M268,415.51a10.2,10.2,0,0,0,4.55-.77c2.12-1,10.22-1.19,9.05,6.19-1.8-1.68-3.73-2.48-4.7-.08-5.11-7.13-10,3.2-17.63,1.42C264.16,419.68,267.58,417.93,268,415.51Z"/><path class="cls-3" d="M281.29,419.82s-.5,4.57-3.49,6.34a7.22,7.22,0,0,1-.64-5.67S278.7,417.35,281.29,419.82Z"/><path class="cls-3" d="M279.69,413.33s-.5,4.57-3.49,6.33a7.22,7.22,0,0,1-.64-5.67S277.1,410.86,279.69,413.33Z"/><path class="cls-3" d="M254.88,424.15a4.8,4.8,0,0,0,2.26,4.87c-5-.27-7-2.87-7-2.87S249.81,422.68,254.88,424.15Z"/><path class="cls-4" d="M442.55,191.94c11.95-9.52,68.81-53.76,97.91-58.24a2.91,2.91,0,0,1,3.09,4c-4.1,9.69-16.6,32.63-45.34,40.24,0,0,25.05-5.41,29-4.83-2.88,12.71-12.25,21.44-49.05,31.2,0,0,17.83-4.46,34.8-3-7.64,11.69-5.15,13.34-44.55,20.73C458.29,212.74,450.75,202.19,442.55,191.94Z"/><path class="cls-1" d="M352.15,277.82s24.9-38.8,50-58.35c2.42-2.68,15-5.88,38.15-25.73,0,0,.79-.65,2.24-1.8,8.2,10.25,15.74,20.8,25.87,30.17l-3.05.57s31.1,1.54,32.64,4.8c-6.13,14.26-28.48,15-50.25,11.82,0,0,27.56,5.06,31.93,9.74-6.11,7.19-12.78,11.27-48.1,4.06,0,0,21.18,7.15,23.42,12.54-9.39,15.8-23.07,5.7-36.92,3.67,0,0,10.59,3.58,16.79,9.54-7.83,12-8.79,4.77-36.2-1.27,0,0,18.77,9.83,21.16,14.22-10.36,8.59-24.62,2.45-36.9-3.4,0,0,16.5,11.52,12.95,15.05l-24.59-4.63s10.16,6.55,10.71,9.66c-4.42,9.46-14.43,1.93-23.62-2,0,0-18.63-6.21-14.12-2.52,1.54,3.26-1.72,7.16-8.23,7.89S352.15,277.82,352.15,277.82Z"/><path class="cls-4" d="M275.42,234S305.9,210.48,315,169.17c16.09-42.12,51.32-48.21,67.54-24.77,5.05,57.71-12.43,104.67-14.09,107.73S275.42,234,275.42,234Z"/><path class="cls-1" d="M287.88,368.84a13.84,13.84,0,0,0,3.58,1c-11.08,1-20.67,1.39-20.67,1.39l11.32-6.6A14.68,14.68,0,0,0,287.88,368.84Z"/><path class="cls-1" d="M287.88,368.84a14.68,14.68,0,0,1-5.77-4.17L310,348.46c-1.29,9.3-6.05,18.4-13,20.89-1.86.2-3.71.37-5.52.53A13.84,13.84,0,0,1,287.88,368.84Z"/><path class="cls-4" d="M133.26,378.83c-34.51-4.5-63.63-11.76-79.13-17.8,0,0,28.47-24.94,66.28-52.78"/><path class="cls-1" d="M357,244.74c2.21.7,4.14,1.34,5.76,1.89-2.12-.1-4.22-.26-6.32-.49A3,3,0,0,0,357,244.74Z"/><path class="cls-1" d="M349.61,245.1l.22.17-.29-.05A.75.75,0,0,0,349.61,245.1Z"/><path class="cls-5" d="M309,338.54c-1.56-4.76-4.81-7.8-9.78-7.47.42-31.87,2.53-63.56,8.47-94.51l.3.05c9.45,2.86,18.85,6.38,27.67,7.13a2.61,2.61,0,0,0,2.66,1.32l.35,0a2.45,2.45,0,0,0,2.35,2,2.4,2.4,0,0,1,2.26-.52,2.38,2.38,0,0,0,2.3-1.43l.26,0a2.28,2.28,0,0,0,1.47.56,2,2,0,0,0,.35,0,2.36,2.36,0,0,0,2.12,1.36,2.33,2.33,0,0,0,2.09-1c1.92.22,3.85.37,5.79.47,3.18,1.16,5,1.91,5,1.91,5.44,61.83-20.78,97.24-59.69,116.15C307.84,358.08,310.27,347.22,309,338.54Z"/><path class="cls-5" d="M299.28,357.22c-.13-8.72-.17-17.44-.07-26.15,5.43-.32,9,2.74,10.7,7.5,1.44,8.68-1.19,19.54-6.48,26l-1.92.85A13.19,13.19,0,0,1,299.28,357.22Z"/><path class="cls-1" d="M270.57,233.31a99.45,99.45,0,0,1,21.21-1.3c-.42.29-.83.59-1.24.91a103.93,103.93,0,0,1,17.64,3.62v0l-.81-.15.81.15c-6.39,30.94-8.6,62.63-9,94.5-.34,0-.69.05-1,.1.36-.05.71-.08,1-.1-.1,8.71-.06,17.43.07,26.15a13.19,13.19,0,0,0,2.23,8.17c-3.63,1.55-7.36,3-11.16,4.28a14.07,14.07,0,0,1-2.47-.83c-17.76-7.6-3.95-31.15,10.31-38.67-14.26,7.52-28.07,31.07-10.31,38.67a14.07,14.07,0,0,0,2.47.83c-47.31,16.41-107.71,15.61-157.09,9.16l-12.85-70.58C168.49,272.85,231.66,232.76,270.57,233.31Z"/><path class="cls-1" d="M308.18,236.54l.32.09-.33-.06Z"/><path class="cls-6" d="M344,155.55a11.76,11.76,0,0,1,4.49-.9A5.69,5.69,0,0,1,351.8,156c1.29,1.05,2.19,2.44,3.37,3.59s3,2.49,4.86,2.3c.64-.07.64-1.07,0-1-2,.21-3.87-1.53-5.07-3a15.36,15.36,0,0,0-3.22-3.17c-2.49-1.67-5.39-1.1-8.05-.16-.6.22-.34,1.18.27,1Z"/><path class="cls-7" d="M353.17,158.22c2.06,3.35-3.33,9.93-7.14,8.44-1.77-.61-8.67-2.81-4.68-8.57C344.65,154,349.21,152.55,353.17,158.22Z"/><path class="cls-6" d="M352.84,158.41c1.26,2.13-.5,4.91-2,6.37a5.87,5.87,0,0,1-3.17,1.69,5,5,0,0,1-2.42-.5c-1.67-.62-3.64-1.56-4.42-3.27-1.2-2.61,1.39-5.44,3.4-6.76a5.55,5.55,0,0,1,4.19-1,7.78,7.78,0,0,1,4.46,3.45c.28.39.93,0,.65-.38a9.26,9.26,0,0,0-4.18-3.58,5.75,5.75,0,0,0-4.31.19,10.44,10.44,0,0,0-3.86,3.12,5.73,5.73,0,0,0-1.35,4.15c.31,2.31,2.54,3.68,4.51,4.5a9.28,9.28,0,0,0,2.6.83,5.47,5.47,0,0,0,3.64-1.27c2.18-1.64,4.57-5.19,2.95-7.94A.38.38,0,0,0,352.84,158.41Z"/><path class="cls-6" d="M344.18,154.76a10.71,10.71,0,0,0-3.74,3.94,5.82,5.82,0,0,0,.19,5.13,7.24,7.24,0,0,0,4.06,3.47A17.05,17.05,0,0,0,351,168a.5.5,0,0,0,0-1c-3.39.08-7.41,0-9.34-3.31a4.84,4.84,0,0,1-.29-4.61,9.91,9.91,0,0,1,3.31-3.41c.51-.37,0-1.24-.51-.86Z"/><path class="cls-6" d="M340.93,162.24a7,7,0,0,0-5.3-4.61.52.52,0,0,0-.62.35.5.5,0,0,0,.35.61A6.07,6.07,0,0,1,340,162.5a.5.5,0,1,0,1-.26Z"/><path class="cls-6" d="M336.11,158.59c1.77-.78,3.48-1.69,5.26-2.46a15,15,0,0,1,5.39-1.46,5.53,5.53,0,0,1,3.93,1.45c1.05.92,1.93,2,2.94,3a7.83,7.83,0,0,0,3.94,2.29c.63.12.9-.84.27-1-3-.57-4.52-3.48-6.72-5.26a6.42,6.42,0,0,0-3.9-1.51,13.42,13.42,0,0,0-5.46,1.22c-2.1.85-4.09,1.93-6.16,2.83-.59.26-.08,1.12.51.87Z"/><path class="cls-6" d="M342.71,154.91a11.74,11.74,0,0,0-3.32,4.75l.83-.22a6.78,6.78,0,0,0-2.57-1.74l-.26,1a3.83,3.83,0,0,0,4.31-2A.5.5,0,0,0,341,156l-2.67,1.25c-.51.23-.15,1.1.39.91,1.54-.56,3-1.37,4.45-2.07a7.26,7.26,0,0,1,4.56-.91,9,9,0,0,1,3.14,1.85,7.58,7.58,0,0,0,3.4,1.66c.63.09.9-.87.27-1-2.67-.4-4.2-3.12-6.85-3.58-3.32-.56-6.3,2-9.24,3l.39.92,2.66-1.25-.68-.68a2.85,2.85,0,0,1-3.19,1.54.5.5,0,0,0-.26,1,5.87,5.87,0,0,1,2.13,1.49.51.51,0,0,0,.83-.23,10.74,10.74,0,0,1,3.07-4.31c.49-.41-.22-1.11-.71-.7Z"/><path class="cls-6" d="M339.78,159.17a.5.5,0,0,0,0-1,.5.5,0,0,0,0,1Z"/><path class="cls-6" d="M340.55,161.42a.5.5,0,0,0,0-1,.5.5,0,0,0,0,1Z"/><path class="cls-6" d="M382.88,158.07a6,6,0,0,0-2.81-1.76,2.85,2.85,0,0,0-2.3.65,11.27,11.27,0,0,0-2.07,2.39c-.58.81-1.72,2.45-2.91,2-.59-.23-.85.73-.26,1,1.07.42,2.13-.29,2.87-1s1.44-1.91,2.23-2.81a2.9,2.9,0,0,1,1.92-1.21,4.24,4.24,0,0,1,2.63,1.52c.46.44,1.17-.26.7-.71Z"/><path class="cls-7" d="M376.85,159.93c-1.23,1.93.27,8.45,3,8,1-.26,4.77-1.14,3.58-6.38C382.22,157.3,379.78,155.1,376.85,159.93Z"/><path class="cls-6" d="M376.53,159.74a4.53,4.53,0,0,0-.48,2.54,10.06,10.06,0,0,0,.62,3.12c.55,1.49,1.7,3.32,3.54,2.81a5,5,0,0,0,3.35-2.54,6,6,0,0,0,.38-3.44,9.3,9.3,0,0,0-1.48-3.86,2.92,2.92,0,0,0-2.64-1.54c-1.51.19-2.56,1.72-3.29,2.91-.25.41.39.79.65.38.58-1,1.38-2.2,2.53-2.51a1.94,1.94,0,0,1,2,.93,8.32,8.32,0,0,1,1.44,3.21A6,6,0,0,1,383,165a4.05,4.05,0,0,1-2.76,2.38,1.55,1.55,0,0,1-1.36,0,3.79,3.79,0,0,1-1.37-1.83,9.23,9.23,0,0,1-.72-3,4.17,4.17,0,0,1,.37-2.44C377.43,159.71,376.78,159.33,376.53,159.74Z"/><path class="cls-6" d="M381.74,158.7c1.1,2,1.8,4.19.94,6.46a4.43,4.43,0,0,1-1.74,2.27,4.75,4.75,0,0,1-3.61,0,.5.5,0,0,0-.27,1,5.78,5.78,0,0,0,4.29-.09,5.16,5.16,0,0,0,2.13-2.52,7.2,7.2,0,0,0,.52-4,11.19,11.19,0,0,0-1.4-3.65c-.3-.57-1.17-.07-.86.5Z"/><path class="cls-6" d="M383.7,165.48a7.18,7.18,0,0,1,.64-1.15l.18-.25.05-.06.09-.11a5.29,5.29,0,0,1,.41-.41l.1-.09s.11-.09.06-.06.06,0,.07,0l.11-.07c.13-.09.28-.15.42-.23s-.08,0,0,0l.11,0,.21-.06.11,0c.11,0,0,0,0,0h.23a.5.5,0,0,0,.5-.5.51.51,0,0,0-.5-.5c-1.76,0-3,1.67-3.68,3.13a.51.51,0,0,0,.18.68.49.49,0,0,0,.68-.18Z"/><path class="cls-6" d="M386.68,162a44.87,44.87,0,0,0-3.48-4.06c-1-.88-2.3-1.75-3.66-1.36a6.14,6.14,0,0,0-2.71,2.34c-.69.85-1.58,2.23-2.8,2.29-.64,0-.64,1,0,1,2.56-.13,3.39-3.24,5.3-4.44,1.23-.77,2.54.26,3.41,1.12,1.2,1.17,2.14,2.56,3.24,3.82.42.48,1.12-.23.7-.71Z"/><path class="cls-6" d="M382.49,159a11.71,11.71,0,0,1,1,4.21.5.5,0,0,0,.85.35,3.13,3.13,0,0,1,1.27-.92.5.5,0,0,0-.13-1c-.83,0-1.15-.89-1.21-1.59l-.86.35,1.24,1.49.7-.71c-.83-.8-1.46-1.79-2.21-2.66a4,4,0,0,0-2.5-1.6,3.34,3.34,0,0,0-2.31,1c-.61.51-1.31,1.28-2.17,1.26a.5.5,0,0,0,0,1,3.46,3.46,0,0,0,2.21-1c.58-.47,1.23-1.23,2-1.31s1.67.87,2.17,1.47a31.23,31.23,0,0,0,2.09,2.51c.47.45,1.11-.22.7-.71l-1.23-1.49a.5.5,0,0,0-.85.36c.1,1.26.79,2.57,2.21,2.59l-.13-1a4.07,4.07,0,0,0-1.72,1.17l.86.36a13.23,13.23,0,0,0-1.1-4.72c-.27-.58-1.13-.07-.87.51Z"/><path class="cls-6" d="M384.18,162.75a.5.5,0,0,0,0-1,.5.5,0,0,0,0,1Z"/><path class="cls-6" d="M384.79,162.18a.5.5,0,0,0,0-1,.5.5,0,0,0,0,1Z"/><path class="cls-6" d="M385.14,162.28a.5.5,0,0,0,0-1,.5.5,0,0,0,0,1Z"/><path class="cls-6" d="M383.43,164.54a.5.5,0,0,0,0-1,.5.5,0,0,0,0,1Z"/><path class="cls-8" d="M376.26,188.48c-8.84.72-21-1.15-19.92-7.21S376.26,188.48,376.26,188.48Z"/><path class="cls-9" d="M355.39,177.22s7-14,21-6c8,9,6,17,6,17-2,3-12-2-12-2S354.42,186.23,355.39,177.22Z"/><polygon class="cls-5" points="299.94 344.09 280.89 372.79 301.51 365.39 299.94 344.09"/><path class="cls-10" d="M347.64,245.67s1.89,12.39-5.54,18.2c-5-.76-5.64-2-5.64-2s-3.25-8.63-1.63-10.17,4-8.12,4.95-7.78S346.1,244.05,347.64,245.67Z"/><path class="cls-10" d="M342.46,262.29s-.36,36.22-2.7,39c-4.18,9.57-12.69,21.63-17,24.13-4.25-6.55-2.29-14.38-2.29-14.38,9-24.09,16.92-48.31,17-49.31S342.46,262.29,342.46,262.29Z"/><path class="cls-11" d="M372.58,240.85s-21.26,4.82-24.51,4.83c.92,11.16,1.8,12.19,1.8,12.19s18-5.51,19.13-6.91S372.58,240.85,372.58,240.85Z"/><path class="cls-11" d="M288,222.43s48.71,20.71,51.09,21.43c-4.95,5.48-6.17,11.44-9.24,11.34s-52.4-23.34-52.4-23.34Z"/><path class="cls-12" d="M287.82,222.42s19,7.09,20.8,9.6,9,115.81-25.74,136.65c10.48-43.67-1.23-82.08-1.23-82.08l17.19-5.43c-18-.6-17.85-4.6-17.85-4.6l-3.5-44.7Z"/><path class="cls-12" d="M373.13,238.73l-8.68,3.56s-33.89,99.77-29.12,101.57,31.73-40.2,31-48.2l-6.23-2.5c3.23-2.28,9.68-3.86,9.75-5.9S374.47,241.86,373.13,238.73Z"/><path class="cls-13" d="M108.39,182.68c-2.4-.65-6-2-10.71-3.67a52.55,52.55,0,0,0,21-4C115.74,177.26,111.35,180.5,108.39,182.68Z"/><path class="cls-1" d="M108.44,182.69c1.81.27,2.89.45,2.89.45s-1-.22-2.59-.67c3-2.17,5.91-4.36,8.82-6.61a34.76,34.76,0,0,0,9.26-5.57c17.94-14.65,36.85-27.18,53.84-41.86,2.76,3.1,4.88,5.68,5.19,6.6,6.49,19.55,14.76,35.26,23,46.55,2.39,3.28,31.17,32,46.64,38.32a9.77,9.77,0,0,1,2.53,1.53c20.79,17.2,25,22.88,25,22.88-72.43,20.13-100.84,28-100.84,28-7.55-6.4-16.3-7.68,8.19-19-31.29,10.29-32.26,10.15-43.46-1.43,10.67-6.79,27-14.89,27-14.89-36.41,4.58-40.86,7.9-48.18-3.1,5.89-4.74,27.4-10.87,27.4-10.87-45.15,3.3-39.72.12-46.07-10.73,9.22-2.58,32.66-6.12,32.66-6.12-29.64-1.16-44.13-2.38-52.54-6.68C93.69,193.53,101.05,188.14,108.44,182.69Z"/><path class="cls-14" d="M108.44,182.69c-7.39,5.45-14.75,10.84-21.28,16.8-7.27-3.71-10-9.72-14-20C84.39,179.26,101.66,181.67,108.44,182.69Z"/><path class="cls-15" d="M157,104.55c3.65,3.37,6.5,6.18,8.81,8.34,1.4,1.3,9.35,9.42,14.81,15.54-17,14.68-35.9,27.21-53.84,41.86-8,6.76-18.37,9.16-29.14,8.72a144.23,144.23,0,0,1-21.36-9.46C105.17,148,132.9,128.91,157,104.55Z"/><path class="cls-4" d="M15.21,26.82l4.47.92c84,31.63,119.85,60.65,137.36,76.81-24.14,24.36-51.87,43.49-80.72,65C62.59,162,49.46,151,46.79,136c15.86,5.24,49.67,13.25,49.67,13.25C27.73,110.32,23.78,89.89,28.84,75.74c25.49,15.66,82,49.76,82,49.76C29.17,57.77,16.9,62.27,15.21,26.82Z"/><path class="cls-16" d="M71.92,166.44c30.86-25,79.74-66.79,79.74-66.79l9.27,8.76L82.51,172Z"/><path class="cls-17" d="M450.48,185.78c2.88,3.54,23.78,33.38,25.28,34.87-3.49,1.33-10.39,2-10.39,2l-22.82-30.74Z"/><line class="cls-18" x1="381.8" y1="153.31" x2="375.8" y2="157.31"/><line class="cls-18" x1="339.3" y1="148.81" x2="357.3" y2="156.81"/></svg>