<svg id="Layer_1" data-name="Layer 1" xmlns="http://www.w3.org/2000/svg" viewBox="0 0 559 559"><defs><style>.cls-1{fill:#adacaf;}.cls-2{fill:#282828;}.cls-3{fill:#e35a89;}.cls-4{fill:#d1d3d4;}.cls-5{fill:#0d1127;}.cls-6{fill:#e2e2e2;}.cls-7{fill:#231f20;}.cls-8{fill:#6dccdd;}.cls-9{fill:#9d732a;}.cls-10{fill:#d78e28;}.cls-11{fill:#828282;}.cls-12{fill:#e0e0e0;}.cls-13{fill:#e32e57;}.cls-14{fill:#fff;}.cls-15{fill:#434343;}</style></defs><g id="Layer_1-2" data-name="Layer 1"><path class="cls-1" d="M316.59,236.62s29.67-24.5,37.33-66.09c14.67-42.64,49.67-49.92,66.67-27,7,57.51-8.89,105-10.44,108.15S316.59,236.62,316.59,236.62Z"/><path class="cls-2" d="M333.59,371a13.76,13.76,0,0,0,3.62.92c-11,1.36-20.62,2.08-20.62,2.08l11.1-7A14.66,14.66,0,0,0,333.59,371Z"/><path class="cls-2" d="M355,349.88l33.11-20.81s-20.68,38.25-24,37.86c-5.28,1.73-13.36,3.16-21.37,4.27C349.54,368.47,354,359.22,355,349.88Z"/><path class="cls-2" d="M333.59,371a14.66,14.66,0,0,1-5.9-4L355,349.88c-1,9.34-5.42,18.59-12.26,21.32-1.85.26-3.69.5-5.49.72A14,14,0,0,1,333.59,371Z"/><path class="cls-3" d="M307.25,388.47s-.64,3.84-.19,4.68a29.69,29.69,0,0,1,1.21,3.55s2.57,2.84,2.37,5.06c-.14,1.5,1.21,3.85,2.17,5.32a39.29,39.29,0,0,0-4.14,1.07,3.86,3.86,0,0,0-.8-2c-1.95-2.61-3.07-2.73-3.07-2.73a6.13,6.13,0,0,1-.6-1.48,6.92,6.92,0,0,0-1.31-2.68c-.31-.06-.16-5.25-.16-5.25l-.35-4.5Z"/><path class="cls-3" d="M298.16,413.89c.52-1.13,1.89-1.54,3.11-1.82a14.63,14.63,0,0,0,4.44-1.53c1.29-.55,2.65-1.32,2.79-2.86a18.54,18.54,0,0,0,4.17-.88c4.24,4.84,11.56,1.18,17,3.2a3.8,3.8,0,0,0-2,4.57c-3-.15-10.83.53-10.55,4.57a13.24,13.24,0,0,1-5.38-1.05,28.94,28.94,0,0,0-3.41-2.07c-2.93-1-5.75,1-8.46,1.76a1.32,1.32,0,0,1-.81.05c-.42-.15-.6-.64-.73-1.07A4.23,4.23,0,0,1,298.16,413.89Z"/><path class="cls-4" d="M298.58,413.23c-4.26,3.21-4.7,5.83-4.7,5.83a59.87,59.87,0,0,1,6.22-1.2C297.94,417.48,298.58,413.23,298.58,413.23Z"/><path class="cls-4" d="M329.35,409.62c3.74-1.16,5.47,3.41,8.1,5.09a22.61,22.61,0,0,1-9.55-.14,1.13,1.13,0,0,1-.66-.33,1,1,0,0,1-.1-.87,7.26,7.26,0,0,1,2.13-3.88"/><path class="cls-4" d="M321.3,414.74c4.36.24,4.06,5.15,6,7.88a25.6,25.6,0,0,1-11.73-2.9c-.33-.17-.68-.37-.73-.7s.33-.81.71-1.16a13.79,13.79,0,0,1,5.74-3.27"/><path class="cls-5" d="M319.69,370a.51.51,0,0,1,.53.49.5.5,0,0,1-.07.27c-2.15,4-11.79,21.24-13.56,21.24a12.17,12.17,0,0,1-4.08-.88S277.59,375,281.59,373C285.21,371.19,314.17,370.2,319.69,370Z"/><path class="cls-1" d="M179.4,386.2c-34.65-3.34-64-9.6-79.69-15.12,0,0,27.62-25.89,64.46-55"/><path class="cls-2" d="M398.45,244.64c2.23.62,4.19,1.2,5.82,1.69q-3.16,0-6.33-.27A3,3,0,0,0,398.45,244.64Z"/><path class="cls-2" d="M391.11,245.24l.22.17h-.28Z"/><path class="cls-6" d="M353.66,340c-1.73-4.7-5.07-7.63-10-7.13-.66-31.87.38-63.61,5.28-94.75h.3c9.54,2.54,19.05,5.73,27.89,6.19a2.63,2.63,0,0,0,2.71,1.23l.35,0a2.42,2.42,0,0,0,2.41,1.93,2.31,2.31,0,0,0,1.67-.66,2.78,2.78,0,0,0,.57.07,2.36,2.36,0,0,0,2.25-1.51h.26a2.35,2.35,0,0,0,1.49.5,2,2,0,0,0,.35,0,2.46,2.46,0,0,0,3.33,1,2.39,2.39,0,0,0,.89-.81c1.92.15,3.86.24,5.8.27,3.22,1.06,5.07,1.74,5.07,1.74,7.53,61.61-17.48,97.89-55.73,118.1C353.17,359.57,355.24,348.63,353.66,340Z"/><path class="cls-6" d="M344.59,359q-.64-13.08-.95-26.13c5.42-.5,9.07,2.43,10.95,7.13,1.73,8.63-.53,19.57-5.61,26.17-.63.31-1.25.62-1.89.92A13.24,13.24,0,0,1,344.59,359Z"/><path class="cls-2" d="M311.72,236.12a99.58,99.58,0,0,1,21.16-2,13.72,13.72,0,0,0-1.22,1,103.67,103.67,0,0,1,17.75,3h0l-.82-.12.82.12c-5.35,31.14-6.48,62.88-5.77,94.75a6.54,6.54,0,0,0-1.05.13c.36-.06.71-.1,1.05-.13q.3,13,.95,26.13a13.24,13.24,0,0,0,2.5,8.09c-3.56,1.67-7.25,3.21-11,4.66a15.62,15.62,0,0,1-2.5-.75c-18-7-5-31,9-39-14,8-27,32-9,39a15.62,15.62,0,0,0,2.5.75C289.36,389.74,229,391,179.4,386.2l-15.23-70.11C211,279.09,272.81,236.89,311.72,236.12Z"/><path class="cls-2" d="M349.41,238.09l.32.08h-.32Z"/><path class="cls-3" d="M253.06,402a1.81,1.81,0,0,1,1.85,1.79,1.88,1.88,0,0,1-.07.53,8.06,8.06,0,0,0-.49,3.08,29.92,29.92,0,0,1,.6,4c.44,1.62,2.37,4.18,1.69,6.84a8.64,8.64,0,0,0,.53,4.44A1.81,1.81,0,0,1,256,425a2.36,2.36,0,0,1-.45.08l-.85.07a1.85,1.85,0,0,1-1.9-1.42,5,5,0,0,0-.37-1,10.3,10.3,0,0,0-2.54-3.61,2.66,2.66,0,0,1-.82-2.13c0-.58-.58-3.29-.94-3.43s.79-5.37,1-6.11a.54.54,0,0,0,0-.18l.4-3.65A1.82,1.82,0,0,1,251.3,402Z"/><path class="cls-3" d="M239.33,429.7c.87-1.21,2.56-1.38,4-1.44a17.06,17.06,0,0,0,5.54-.81,5.36,5.36,0,0,0,3.52-1.89,1.71,1.71,0,0,1,1.52-.76,21.59,21.59,0,0,0,3.94-.19c2,3.79,6.57,4.56,10.58,5.16a41.74,41.74,0,0,1,5.31,1A1.82,1.82,0,0,1,275,433a1.74,1.74,0,0,1-.32.62,4.68,4.68,0,0,0-.89,1.64,1.86,1.86,0,0,1-2.06,1.36c-3.2-.4-9-.82-11,2.12a1.84,1.84,0,0,1-2.08.85,12.23,12.23,0,0,1-4.37-2c-1.26-1-2.18-2.37-3.54-3.18-3.2-1.86-6.95-.14-10.3.2a1.57,1.57,0,0,1-1-.13,1.77,1.77,0,0,1-.62-1.41A5,5,0,0,1,239.33,429.7Z"/><path class="cls-4" d="M236.52,431.1a1.89,1.89,0,0,0,1.09,3.59C240.82,434.44,239.32,429.38,236.52,431.1Z"/><path class="cls-4" d="M276.82,431.61a4.42,4.42,0,0,1,3.67,1.26,14.36,14.36,0,0,1,2.52,3.51,1.84,1.84,0,0,1-1.86,2.73,26.74,26.74,0,0,1-7.13-2,1.42,1.42,0,0,1-.7-.53,1.29,1.29,0,0,1,.08-1,8.54,8.54,0,0,1,3.35-4.08"/><path class="cls-4" d="M266.26,435.83c3.18.78,4,3.7,4.3,6.51.05.42.11.84.17,1.26a1.83,1.83,0,0,1-1.56,2.06,1.75,1.75,0,0,1-.79-.06,31.85,31.85,0,0,1-9.95-5.23c-.35-.27-.72-.58-.7-1s.56-.88,1.08-1.21a16.58,16.58,0,0,1,7.46-2.55"/><path class="cls-7" d="M382.43,155.94a11.92,11.92,0,0,1,4.55-1.06,5.84,5.84,0,0,1,3.41,1.34c2.58,2,4.63,6,8.45,5.52.63-.08.36-1.05-.27-1-2,.26-3.87-1.49-5-2.85a15.52,15.52,0,0,0-3.35-3.07c-2.54-1.57-5.4-.92-8,.11-.59.24-.33,1.2.27,1Z"/><path class="cls-8" d="M391.73,158.29c2.18,3.28-3,10-6.85,8.68-1.78-.55-8.76-2.51-5-8.41C383.08,154.38,387.59,152.76,391.73,158.29Z"/><path class="cls-7" d="M391.41,158.48c1.33,2.09-.32,4.92-1.81,6.44a6,6,0,0,1-3,1.79,4.82,4.82,0,0,1-2.46-.38c-1.67-.56-3.6-1.38-4.5-3-1.43-2.52,1-5.45,2.89-6.89a5.68,5.68,0,0,1,4.3-1.28,7.8,7.8,0,0,1,4.62,3.3c.29.38.94,0,.65-.37a9.21,9.21,0,0,0-4.38-3.48,5.79,5.79,0,0,0-4.32.41,10.21,10.21,0,0,0-3.76,3.33,5.73,5.73,0,0,0-1.1,4.12c.41,2.28,2.71,3.56,4.69,4.31a8.86,8.86,0,0,0,2.63.72,5.6,5.6,0,0,0,3.57-1.4c2.11-1.7,4.37-5.34,2.67-8C391.8,157.7,391.15,158.08,391.41,158.48Z"/><path class="cls-7" d="M382.55,155.21a10.55,10.55,0,0,0-3.53,4,5.83,5.83,0,0,0,.36,5.1,7.33,7.33,0,0,0,4.17,3.34,17.16,17.16,0,0,0,6.34.44.5.5,0,0,0,0-1c-3.44.2-7.56.24-9.55-3.13a4.81,4.81,0,0,1-.27-4.65,10.79,10.79,0,0,1,3.19-3.4c.5-.39-.21-1.09-.71-.7Z"/><path class="cls-7" d="M379.64,162.74a7.07,7.07,0,0,0-5.57-4.46.5.5,0,0,0-.5.5.52.52,0,0,0,.5.5,6,6,0,0,1,4.61,3.72.52.52,0,0,0,.61.35.49.49,0,0,0,.35-.6Z"/><path class="cls-7" d="M374.68,159.25c1.75-.84,3.43-1.8,5.18-2.64A14.7,14.7,0,0,1,385.2,155a5.51,5.51,0,0,1,4,1.31c1.09.88,2,1.95,3,2.89a7.83,7.83,0,0,0,4,2.16c.63.1.9-.86.27-1-3-.47-4.65-3.29-6.89-5a6.33,6.33,0,0,0-4-1.4,13.6,13.6,0,0,0-5.34,1.36c-2.1.92-4.07,2.08-6.13,3.07-.58.28-.08,1.14.5.87Z"/><path class="cls-7" d="M381.19,155.32a11.68,11.68,0,0,0-3.17,4.86l.83-.22a7,7,0,0,0-2.62-1.66l-.13,1a3.81,3.81,0,0,0,4.16-2.26c.18-.44-.38-.74-.73-.56l-2.62,1.33c-.5.25-.15,1.13.38.92,1.53-.61,2.92-1.47,4.39-2.21a7.21,7.21,0,0,1,4.52-1.08,9.51,9.51,0,0,1,3.33,1.82,7.49,7.49,0,0,0,3.46,1.48c.64.07.63-.93,0-1-2.66-.3-4.28-3-7-3.34-3.28-.39-6.12,2.22-9,3.36l.38.91,2.63-1.33-.74-.56a2.87,2.87,0,0,1-3.2,1.52c-.6-.06-.63.81-.14,1a5.64,5.64,0,0,1,2.19,1.4.5.5,0,0,0,.71,0,.55.55,0,0,0,.12-.21,10.53,10.53,0,0,1,2.91-4.42c.48-.43-.23-1.14-.7-.71Z"/><path class="cls-7" d="M378.37,159.7a.5.5,0,1,0-.5-.5A.5.5,0,0,0,378.37,159.7Z"/><path class="cls-7" d="M379.22,161.92a.5.5,0,1,0-.5-.5A.5.5,0,0,0,379.22,161.92Z"/><path class="cls-7" d="M421.44,157.15a6,6,0,0,0-2.9-1.67,2.85,2.85,0,0,0-2.27.73,11.23,11.23,0,0,0-2,2.45c-.54.81-1.63,2.51-2.82,2.09-.61-.22-.87.74-.26,1,1.1.4,2.14-.36,2.86-1.13s1.36-1.93,2.12-2.85a2.88,2.88,0,0,1,1.84-1.28c1-.08,2,.78,2.7,1.41.48.43,1.19-.28.71-.71Z"/><path class="cls-8" d="M415.46,159.2c-1.16,2,.56,8.44,3.27,7.88,1-.29,4.72-1.3,3.36-6.5C420.74,156.39,418.23,154.28,415.46,159.2Z"/><path class="cls-7" d="M415.14,159a4.43,4.43,0,0,0-.4,2.53,9.91,9.91,0,0,0,.72,3.13c.6,1.45,1.8,3.27,3.62,2.7a5,5,0,0,0,3.28-2.67,6,6,0,0,0,.26-3.49,9.27,9.27,0,0,0-1.61-3.76,2.9,2.9,0,0,0-2.72-1.44c-1.48.26-2.47,1.81-3.15,3a.38.38,0,0,0,.21.5.39.39,0,0,0,.44-.12c.55-1,1.31-2.26,2.45-2.6a1.93,1.93,0,0,1,2,.84,8.17,8.17,0,0,1,1.55,3.17,5.92,5.92,0,0,1,0,3.26,4,4,0,0,1-2.66,2.5,1.57,1.57,0,0,1-1.37,0,3.66,3.66,0,0,1-1.43-1.75,8.94,8.94,0,0,1-.83-3,4.22,4.22,0,0,1,.27-2.48.37.37,0,0,0-.26-.47A.37.37,0,0,0,415.14,159Z"/><path class="cls-7" d="M420.3,157.8c1.18,2,2,4.17,1.14,6.49a4.36,4.36,0,0,1-1.63,2.26,4.69,4.69,0,0,1-3.6.17.52.52,0,0,0-.27,1,6,6,0,0,0,4.13-.12,5.11,5.11,0,0,0,2.18-2.6,7.19,7.19,0,0,0,.43-4,11.05,11.05,0,0,0-1.52-3.65.5.5,0,0,0-.86.51Z"/><path class="cls-7" d="M422.54,164.42a6.5,6.5,0,0,1,.58-1.11l.17-.25.09-.11h0a3.69,3.69,0,0,1,.38-.41,1.54,1.54,0,0,1,.19-.17H424l.08-.06a3.26,3.26,0,0,1,.4-.24l.1,0h0l.21-.07h.33a.52.52,0,0,0,.5-.5.5.5,0,0,0-.5-.5c-1.83.06-3,1.83-3.64,3.35a.51.51,0,0,0,.35.62.53.53,0,0,0,.62-.35Z"/><path class="cls-7" d="M425.37,160.94a48.67,48.67,0,0,0-3.57-3.89c-1-.88-2.41-1.76-3.8-1.28a6.38,6.38,0,0,0-2.62,2.45c-.64.85-1.49,2.25-2.68,2.35-.63.06-.64,1.06,0,1,2.53-.21,3.29-3.27,5.1-4.57,1.18-.85,2.51.05,3.43.87,1.27,1.14,2.28,2.53,3.43,3.78.44.47,1.15-.24.71-.71Z"/><path class="cls-7" d="M421.06,158.05a11.63,11.63,0,0,1,1.11,4.17.51.51,0,0,0,.86.35,3,3,0,0,1,1.24-1c.49-.19.46-1-.14-1-.83,0-1.2-.81-1.28-1.53l-.86.35,1.29,1.45.7-.71c-.86-.77-1.52-1.74-2.3-2.58a4,4,0,0,0-2.54-1.54,3.33,3.33,0,0,0-2.28,1.1c-.6.53-1.27,1.34-2.13,1.35a.5.5,0,0,0,0,1,3.48,3.48,0,0,0,2.19-1.06c.56-.48,1.18-1.27,2-1.38s1.7.8,2.22,1.38a29.66,29.66,0,0,0,2.18,2.44.49.49,0,0,0,.7-.06.5.5,0,0,0,0-.65l-1.28-1.44a.5.5,0,0,0-.71,0,.48.48,0,0,0-.14.34c.15,1.25.85,2.56,2.28,2.53l-.13-1a3.93,3.93,0,0,0-1.68,1.22l.85.36a12.91,12.91,0,0,0-1.25-4.68c-.28-.57-1.15-.07-.86.51Z"/><path class="cls-7" d="M422.86,161.77a.5.5,0,1,0-.5-.5A.5.5,0,0,0,422.86,161.77Z"/><path class="cls-7" d="M423.46,161.19a.5.5,0,1,0-.5-.5A.5.5,0,0,0,423.46,161.19Z"/><path class="cls-7" d="M423.81,161.28a.5.5,0,1,0-.5-.5A.5.5,0,0,0,423.81,161.28Z"/><path class="cls-7" d="M422.17,163.59a.5.5,0,1,0-.5-.5A.5.5,0,0,0,422.17,163.59Z"/><path class="cls-9" d="M415.83,187.75c-8.8,1-21-.44-20.15-6.52S415.83,187.75,415.83,187.75Z"/><path class="cls-10" d="M394.6,177.21s6.49-14.24,20.77-6.75c8.32,8.71,6.61,16.77,6.61,16.77-1.89,3.07-12.06-1.56-12.06-1.56S393.93,186.24,394.6,177.21Z"/><path class="cls-11" d="M176.1,363c-41.25,6-75.39,9.07-75.39,9.07S124.93,348,158.6,320.22"/><path class="cls-2" d="M176.1,363c58.81-8.54,132.09-23,141.49-43,16-34-31-79-31-79-40.68,12.15-90.27,48.05-128,79.22"/><path class="cls-2" d="M266.69,386a.51.51,0,0,1,.53.49.5.5,0,0,1-.07.27c-2.15,4-11.79,21.24-13.56,21.24a12.17,12.17,0,0,1-4.08-.88S224.59,391,228.59,389C232.21,387.19,261.17,386.2,266.69,386Z"/><polygon class="cls-6" points="344.81 345.85 326.74 375.19 347.09 367.09 344.81 345.85"/><path class="cls-12" d="M158.81,319.22l-8,6.67S163.59,364,165.59,364,177,362.56,177,362.56Z"/><path class="cls-13" d="M389.16,245.88s2.31,12.32-4.92,18.38c-5.06-.59-5.7-1.85-5.7-1.85s-3.55-8.51-2-10.11,3.73-8.25,4.68-7.94S387.57,244.31,389.16,245.88Z"/><path class="cls-13" d="M384.54,262.67s.87,36.21-1.38,39c-3.85,9.7-12,22.05-16.2,24.69-4.46-6.41-2.77-14.3-2.77-14.3,8.14-24.38,15.29-48.86,15.37-49.85S384.54,262.67,384.54,262.67Z"/><path class="cls-14" d="M413.92,240.22s-21.08,5.54-24.33,5.66C390.89,257,391.8,258,391.8,258s17.78-6.11,18.89-7.56S413.92,240.22,413.92,240.22Z"/><path class="cls-14" d="M328.81,224.67s49.38,19.05,51.78,19.69C375.83,250,374.81,256,371.74,256s-53.15-21.56-53.15-21.56Z"/><path class="cls-15" d="M328.59,224.67s19.22,6.44,21.11,8.89S362.59,349,328.59,371c9-44-4-82-4-82l17-6c-18,0-18-4-18-4l-5-44.56Z"/><path class="cls-15" d="M414.4,238.08l-8.55,3.85s-30.51,100.86-25.68,102.5,30.36-41.25,29.33-49.22l-6.31-2.29c3.15-2.39,9.54-4.18,9.55-6.23S415.85,241.17,414.4,238.08Z"/></g></svg>