<svg id="Layer_1" data-name="Layer 1" xmlns="http://www.w3.org/2000/svg" viewBox="0 0 559 559"><defs><style>.cls-1{fill:#acacaf;}.cls-2{fill:#282827;}.cls-3{fill:#e25988;}.cls-4{fill:#d0d2d3;}.cls-5{fill:#0c1126;}.cls-6{fill:#e2e2e2;}.cls-7{fill:#231f20;}.cls-8{fill:#6dcbdc;}.cls-9{fill:#9c732a;}.cls-10{fill:#d78e28;}.cls-11{fill:#818282;}.cls-12{fill:#e0e0e0;}.cls-13{fill:#e22e57;}.cls-14{fill:#fff;}.cls-15{fill:#424243;}</style></defs><path class="cls-1" d="M316.59,236.65s29.66-24.5,37.33-66.09c14.67-42.64,49.67-49.92,66.67-27,7,57.51-8.89,105-10.45,108.15S316.59,236.65,316.59,236.65Z"/><path class="cls-2" d="M333.59,371a13.8,13.8,0,0,0,3.61.92c-11,1.36-20.61,2.08-20.61,2.08l11.09-7A14.7,14.7,0,0,0,333.59,371Z"/><path class="cls-2" d="M333.59,371a14.7,14.7,0,0,1-5.91-4L355,349.91c-1,9.34-5.42,18.59-12.26,21.32-1.85.26-3.69.5-5.5.72A13.8,13.8,0,0,1,333.59,371Z"/><path class="cls-3" d="M307.25,388.5s-.64,3.85-.19,4.68a28.14,28.14,0,0,1,1.2,3.55s2.58,2.84,2.38,5.06c-.14,1.51,1.2,3.85,2.17,5.32a38.06,38.06,0,0,0-4.14,1.07,3.88,3.88,0,0,0-.8-2.05c-2-2.61-3.08-2.73-3.08-2.73a5.86,5.86,0,0,1-.59-1.47c-.06-.5-1-2.63-1.31-2.69s-.16-5.25-.16-5.25l-.35-4.5Z"/><path class="cls-3" d="M298.16,413.92c.52-1.13,1.89-1.54,3.11-1.82a14.72,14.72,0,0,0,4.44-1.53c1.28-.55,2.65-1.32,2.78-2.86a18.4,18.4,0,0,0,4.18-.88c4.24,4.84,11.56,1.18,17,3.2a3.81,3.81,0,0,0-2,4.57c-3-.15-10.84.53-10.55,4.57a13.24,13.24,0,0,1-5.38-1.05,28.82,28.82,0,0,0-3.42-2.07c-2.92-1-5.74,1-8.45,1.76a1.26,1.26,0,0,1-.81.05c-.42-.15-.6-.64-.73-1.07A4.08,4.08,0,0,1,298.16,413.92Z"/><path class="cls-4" d="M298.58,413.26c-4.26,3.21-4.71,5.83-4.71,5.83a61.11,61.11,0,0,1,6.23-1.2C297.94,417.51,298.58,413.26,298.58,413.26Z"/><path class="cls-4" d="M329.35,409.65c3.74-1.16,5.47,3.41,8.1,5.09a22.61,22.61,0,0,1-9.55-.14,1.1,1.1,0,0,1-.66-.33,1,1,0,0,1-.1-.87,7.24,7.24,0,0,1,2.12-3.88"/><path class="cls-4" d="M321.3,414.77c4.35.24,4.06,5.15,6,7.88a25.57,25.57,0,0,1-11.73-2.9c-.33-.17-.68-.37-.73-.7s.33-.81.7-1.16a13.87,13.87,0,0,1,5.75-3.27"/><path class="cls-5" d="M319.68,370.06a.51.51,0,0,1,.47.76C318,374.76,308.36,392,306.59,392a12.17,12.17,0,0,1-4.08-.88S277.59,375,281.59,373C285.21,371.22,314.17,370.23,319.68,370.06Z"/><path class="cls-1" d="M179.39,386.23c-34.64-3.34-64-9.6-79.68-15.12,0,0,27.61-25.89,64.46-55"/><path class="cls-2" d="M398.45,244.67c2.23.62,4.19,1.2,5.82,1.69-2.11,0-4.23-.12-6.33-.27A3,3,0,0,0,398.45,244.67Z"/><path class="cls-2" d="M391.11,245.27l.22.17-.28,0Z"/><path class="cls-6" d="M353.65,340c-1.72-4.7-5.06-7.63-10-7.13-.66-31.87.38-63.61,5.28-94.75l.3,0c9.54,2.54,19.05,5.73,27.89,6.19a2.62,2.62,0,0,0,2.71,1.23l.35-.05a2.43,2.43,0,0,0,2.41,1.93,2.31,2.31,0,0,0,1.67-.66,2.54,2.54,0,0,0,.57.07,2.37,2.37,0,0,0,2.25-1.51l.26,0a2.33,2.33,0,0,0,1.49.5,2,2,0,0,0,.35,0,2.36,2.36,0,0,0,2.16,1.29,2.32,2.32,0,0,0,2.05-1.11q2.89.22,5.81.27c3.22,1.06,5.07,1.74,5.07,1.74,7.53,61.61-17.48,97.89-55.73,118.1C353.17,359.6,355.24,348.66,353.65,340Z"/><path class="cls-6" d="M344.59,359q-.64-13.06-.95-26.13c5.42-.5,9.07,2.43,10.95,7.13,1.72,8.63-.53,19.57-5.61,26.17-.63.31-1.25.62-1.89.92A13.26,13.26,0,0,1,344.59,359Z"/><path class="cls-2" d="M311.72,236.16a98.88,98.88,0,0,1,21.15-2c-.41.31-.81.62-1.21,1a103.47,103.47,0,0,1,17.75,3v0l-.81-.12.81.12c-5.34,31.14-6.47,62.88-5.76,94.75-.34,0-.69.07-1.05.13.36-.06.71-.1,1.05-.13q.3,13.05.95,26.13a13.26,13.26,0,0,0,2.5,8.09c-3.57,1.67-7.25,3.21-11,4.66a14.92,14.92,0,0,1-2.49-.75c-18-7-5-31,9-39-14,8-27,32-9,39a14.92,14.92,0,0,0,2.49.75C289.36,389.77,229,391,179.4,386.23l-15.23-70.11C211,279.12,272.81,236.92,311.72,236.16Z"/><path class="cls-2" d="M349.41,238.12l.32.08-.33,0Z"/><path class="cls-3" d="M253.06,402a1.82,1.82,0,0,1,1.78,2.32,7.79,7.79,0,0,0-.49,3.08,27.71,27.71,0,0,1,.59,4c.44,1.62,2.38,4.18,1.7,6.84a8.61,8.61,0,0,0,.53,4.44,1.82,1.82,0,0,1-1.62,2.36l-.85.07a1.84,1.84,0,0,1-1.9-1.42,6.17,6.17,0,0,0-.37-1,10.24,10.24,0,0,0-2.54-3.62,2.6,2.6,0,0,1-.82-2.13c0-.58-.58-3.29-.94-3.43s.79-5.37,1-6.11l0-.18.4-3.64A1.82,1.82,0,0,1,251.3,402Z"/><path class="cls-3" d="M239.33,429.73c.86-1.2,2.56-1.38,4-1.44a17.1,17.1,0,0,0,5.54-.81,5.39,5.39,0,0,0,3.52-1.89,1.71,1.71,0,0,1,1.52-.76,21.55,21.55,0,0,0,3.94-.19c2,3.79,6.56,4.56,10.58,5.16a42.1,42.1,0,0,1,5.31,1,1.81,1.81,0,0,1,.92,2.86,4.54,4.54,0,0,0-.89,1.64,1.86,1.86,0,0,1-2.06,1.36c-3.2-.39-9-.82-11,2.12a1.84,1.84,0,0,1-2.08.85,12.18,12.18,0,0,1-4.37-2c-1.26-1-2.18-2.37-3.55-3.18-3.2-1.86-6.94-.14-10.29.2a1.61,1.61,0,0,1-1-.13,1.79,1.79,0,0,1-.61-1.41A5,5,0,0,1,239.33,429.73Z"/><path class="cls-4" d="M236.52,431.14a1.89,1.89,0,0,0,1.09,3.58C240.82,434.47,239.32,429.41,236.52,431.14Z"/><path class="cls-4" d="M276.82,431.64a4.46,4.46,0,0,1,3.67,1.26,14,14,0,0,1,2.51,3.51,1.83,1.83,0,0,1-1.85,2.73,26.78,26.78,0,0,1-7.13-2,1.33,1.33,0,0,1-.7-.53,1.27,1.27,0,0,1,.07-1,8.66,8.66,0,0,1,3.36-4.08"/><path class="cls-4" d="M266.25,435.86c3.19.78,4,3.7,4.3,6.52.06.41.11.83.18,1.25a1.83,1.83,0,0,1-2.35,2,31.86,31.86,0,0,1-9.95-5.23c-.36-.27-.72-.58-.7-1s.56-.88,1.08-1.21a16.55,16.55,0,0,1,7.46-2.55"/><path class="cls-7" d="M382.42,156a11.78,11.78,0,0,1,4.55-1.06,5.87,5.87,0,0,1,3.42,1.34c2.57,2,4.63,6,8.45,5.52.63-.08.36-1.05-.27-1-2,.26-3.87-1.49-5.05-2.85a15.24,15.24,0,0,0-3.34-3.07c-2.54-1.57-5.4-.92-8,.11-.59.24-.34,1.2.26,1Z"/><path class="cls-8" d="M391.73,158.33c2.18,3.27-3,10-6.85,8.67-1.78-.55-8.76-2.51-5-8.41C383.08,154.41,387.59,152.79,391.73,158.33Z"/><path class="cls-7" d="M391.41,158.51c1.33,2.09-.32,4.93-1.82,6.44a5.93,5.93,0,0,1-3,1.79,4.73,4.73,0,0,1-2.46-.38c-1.67-.55-3.6-1.38-4.5-3-1.43-2.52,1-5.45,2.89-6.89a5.75,5.75,0,0,1,4.3-1.28,7.79,7.79,0,0,1,4.62,3.3c.29.38.94,0,.64-.37a9.16,9.16,0,0,0-4.37-3.48,5.79,5.79,0,0,0-4.32.41,10.41,10.41,0,0,0-3.77,3.33,5.76,5.76,0,0,0-1.09,4.12c.41,2.28,2.71,3.56,4.69,4.31a8.66,8.66,0,0,0,2.62.72,5.57,5.57,0,0,0,3.57-1.4c2.11-1.7,4.38-5.34,2.67-8C391.8,157.73,391.15,158.11,391.41,158.51Z"/><path class="cls-7" d="M382.55,155.24a10.54,10.54,0,0,0-3.53,4,5.83,5.83,0,0,0,.36,5.1,7.31,7.31,0,0,0,4.17,3.35,17.34,17.34,0,0,0,6.34.43c.64,0,.64-1,0-1-3.44.2-7.56.24-9.56-3.13a4.84,4.84,0,0,1-.26-4.65,10.62,10.62,0,0,1,3.18-3.39c.51-.4-.2-1.1-.7-.71Z"/><path class="cls-7" d="M379.64,162.77a7.07,7.07,0,0,0-5.57-4.46.5.5,0,0,0-.5.5.51.51,0,0,0,.5.5,6,6,0,0,1,4.61,3.72.51.51,0,0,0,.61.35.49.49,0,0,0,.35-.61Z"/><path class="cls-7" d="M374.68,159.28c1.74-.84,3.43-1.8,5.18-2.64a14.77,14.77,0,0,1,5.33-1.65,5.55,5.55,0,0,1,4,1.31c1.09.88,2,1.95,3,2.89a7.85,7.85,0,0,0,4,2.16c.63.1.9-.86.26-1-3-.46-4.64-3.29-6.88-5a6.34,6.34,0,0,0-4-1.4,13.6,13.6,0,0,0-5.34,1.36c-2.1.92-4.08,2.08-6.14,3.07-.58.28-.07,1.14.51.87Z"/><path class="cls-7" d="M381.18,155.35a11.78,11.78,0,0,0-3.17,4.86l.84-.22a7,7,0,0,0-2.62-1.66l-.14,1a3.84,3.84,0,0,0,4.17-2.27c.18-.44-.38-.74-.73-.56l-2.63,1.33c-.49.25-.14,1.13.39.92,1.53-.61,2.92-1.47,4.38-2.21a7.23,7.23,0,0,1,4.53-1.08,9.44,9.44,0,0,1,3.33,1.82,7.53,7.53,0,0,0,3.46,1.48c.64.07.63-.93,0-1-2.66-.3-4.28-3-7-3.34-3.29-.39-6.12,2.22-9,3.36l.39.92,2.62-1.34-.73-.56a2.91,2.91,0,0,1-3.21,1.53c-.59-.07-.63.8-.13,1a5.6,5.6,0,0,1,2.18,1.4.51.51,0,0,0,.84-.22,10.68,10.68,0,0,1,2.91-4.42c.48-.43-.23-1.14-.71-.71Z"/><path class="cls-7" d="M378.37,159.73a.5.5,0,0,0,0-1,.5.5,0,0,0,0,1Z"/><path class="cls-7" d="M379.21,162a.5.5,0,0,0,0-1,.5.5,0,0,0,0,1Z"/><path class="cls-7" d="M421.44,157.18a6,6,0,0,0-2.9-1.67,2.84,2.84,0,0,0-2.27.73,11.44,11.44,0,0,0-2,2.45c-.54.81-1.63,2.51-2.82,2.09-.61-.22-.87.75-.27,1,1.11.4,2.15-.36,2.87-1.13s1.36-1.93,2.11-2.85a2.94,2.94,0,0,1,1.85-1.28c1-.08,2,.78,2.7,1.41.48.43,1.19-.28.71-.71Z"/><path class="cls-8" d="M415.46,159.23c-1.16,2,.55,8.44,3.27,7.88,1-.29,4.72-1.3,3.36-6.5C420.74,156.42,418.22,154.31,415.46,159.23Z"/><path class="cls-7" d="M415.14,159.05a4.45,4.45,0,0,0-.4,2.52,9.91,9.91,0,0,0,.72,3.13c.59,1.45,1.8,3.27,3.62,2.7a5,5,0,0,0,3.28-2.67,6,6,0,0,0,.26-3.49,9.47,9.47,0,0,0-1.61-3.76,2.89,2.89,0,0,0-2.73-1.43c-1.47.25-2.47,1.8-3.14,3a.37.37,0,0,0,.64.37c.55-1,1.31-2.26,2.46-2.6a1.92,1.92,0,0,1,2,.84,8.19,8.19,0,0,1,1.56,3.17,6,6,0,0,1,.05,3.26,4,4,0,0,1-2.66,2.5,1.6,1.6,0,0,1-1.37,0,3.8,3.8,0,0,1-1.44-1.75,9.27,9.27,0,0,1-.83-3,4.37,4.37,0,0,1,.27-2.48A.37.37,0,0,0,415.14,159.05Z"/><path class="cls-7" d="M420.3,157.83c1.18,2,2,4.17,1.14,6.49a4.33,4.33,0,0,1-1.63,2.26,4.68,4.68,0,0,1-3.6.17c-.63-.14-.9.83-.27,1a6,6,0,0,0,4.12-.12,5.09,5.09,0,0,0,2.19-2.6,7.17,7.17,0,0,0,.43-4,11.14,11.14,0,0,0-1.52-3.65.5.5,0,0,0-.86.51Z"/><path class="cls-7" d="M422.53,164.45a8,8,0,0,1,.59-1.11,2.2,2.2,0,0,1,.17-.25l.08-.11,0,0a5,5,0,0,1,.39-.41,1.54,1.54,0,0,1,.19-.17l.06,0,.08-.06a3.26,3.26,0,0,1,.4-.24l.1-.05c-.11.06,0,0,0,0l.21-.07.2,0c.11,0-.1,0,0,0h.12a.5.5,0,0,0,0-1c-1.83.06-3,1.83-3.64,3.35a.51.51,0,0,0,.35.62.51.51,0,0,0,.61-.35Z"/><path class="cls-7" d="M425.37,161a50.62,50.62,0,0,0-3.57-3.89c-1-.87-2.41-1.76-3.8-1.28a6.31,6.31,0,0,0-2.62,2.45c-.64.85-1.49,2.25-2.68,2.35-.63.06-.64,1.06,0,1,2.53-.21,3.29-3.27,5.1-4.57,1.18-.85,2.51.05,3.43.88,1.26,1.13,2.28,2.52,3.43,3.77.44.47,1.15-.24.71-.71Z"/><path class="cls-7" d="M421.06,158.08a11.57,11.57,0,0,1,1.11,4.17c0,.39.55.71.85.35a3.35,3.35,0,0,1,1.24-1c.5-.19.47-1-.13-1-.83,0-1.2-.81-1.28-1.53l-.86.35,1.28,1.45.71-.71c-.86-.77-1.52-1.74-2.3-2.58a4,4,0,0,0-2.54-1.53,3.29,3.29,0,0,0-2.28,1.1c-.6.52-1.27,1.33-2.13,1.34a.5.5,0,0,0,0,1,3.45,3.45,0,0,0,2.19-1.06c.55-.48,1.18-1.27,2-1.38s1.7.8,2.22,1.38a31.49,31.49,0,0,0,2.17,2.44.5.5,0,0,0,.71-.71l-1.28-1.44c-.27-.31-.91-.08-.85.35.14,1.25.85,2.56,2.28,2.53l-.13-1a4,4,0,0,0-1.68,1.23l.85.35a13,13,0,0,0-1.25-4.68c-.29-.57-1.15-.07-.86.51Z"/><path class="cls-7" d="M422.86,161.8a.5.5,0,0,0,0-1,.5.5,0,0,0,0,1Z"/><path class="cls-7" d="M423.46,161.22a.5.5,0,0,0,0-1,.5.5,0,0,0,0,1Z"/><path class="cls-7" d="M423.81,161.31a.5.5,0,0,0,0-1,.5.5,0,0,0,0,1Z"/><path class="cls-7" d="M422.17,163.62a.5.5,0,0,0,0-1,.5.5,0,0,0,0,1Z"/><path class="cls-9" d="M415.83,187.78c-8.81,1-21-.44-20.15-6.52S415.83,187.78,415.83,187.78Z"/><path class="cls-10" d="M394.6,177.24s6.49-14.24,20.77-6.75c8.32,8.71,6.61,16.77,6.61,16.77-1.89,3.07-12.07-1.56-12.07-1.56S393.92,186.27,394.6,177.24Z"/><path class="cls-11" d="M176.1,363c-41.25,6-75.39,9.07-75.39,9.07s24.22-24.05,57.89-51.86"/><path class="cls-2" d="M176.1,363c58.81-8.54,132.08-23,141.49-43,16-34-31-79-31-79-40.69,12.15-90.27,48-128,79.22"/><path class="cls-2" d="M266.68,386.06a.51.51,0,0,1,.47.76C265,390.76,255.36,408,253.59,408a12.17,12.17,0,0,1-4.08-.88S224.59,391,228.59,389C232.21,387.22,261.17,386.23,266.68,386.06Z"/><polygon class="cls-6" points="344.81 345.88 326.74 375.22 347.09 367.12 344.81 345.88"/><path class="cls-12" d="M158.81,319.25l-8,6.67S163.59,364,165.59,364,177,362.59,177,362.59Z"/><path class="cls-13" d="M389.16,245.91s2.31,12.32-4.92,18.38c-5.06-.59-5.71-1.85-5.71-1.85s-3.54-8.51-2-10.11,3.73-8.25,4.68-7.94S387.57,244.34,389.16,245.91Z"/><path class="cls-13" d="M384.54,262.7s.87,36.21-1.38,39c-3.86,9.7-12,22-16.2,24.69-4.46-6.41-2.77-14.29-2.77-14.29,8.14-24.39,15.28-48.86,15.37-49.86S384.54,262.7,384.54,262.7Z"/><path class="cls-14" d="M413.92,240.25s-21.09,5.54-24.33,5.66C390.89,257,391.8,258,391.8,258s17.78-6.11,18.89-7.55S413.92,240.25,413.92,240.25Z"/><path class="cls-14" d="M328.81,224.7s49.38,19.05,51.78,19.69C375.83,250,374.81,256,371.74,256s-53.15-21.55-53.15-21.55Z"/><path class="cls-15" d="M328.59,224.7s19.22,6.44,21.11,8.89S362.59,349,328.59,371c9-44-4-82-4-82l17-6c-18,0-18-4-18-4l-5-44.55Z"/><path class="cls-15" d="M414.4,238.11,405.85,242s-30.51,100.86-25.68,102.5,30.36-41.25,29.32-49.22l-6.3-2.28c3.15-2.4,9.53-4.19,9.54-6.23S415.84,241.2,414.4,238.11Z"/><path class="cls-15" d="M413.92,237c37.82,3,78.2,14,79,26-19.26,7.16-55.5,10-79,3A124.55,124.55,0,0,0,413.92,237Z"/><path class="cls-2" d="M416.65,370.42c31.84-5.38,66.7-43.25,71.27-69.39,7-40,4-42,4-42-7,10.32-24.11,9.28-42.82,4.29"/><path class="cls-11" d="M416.65,370.42c-1.39.24-2.78.41-4.17.52a3.55,3.55,0,0,1-2.69-1c-1.74-1.63-4.87-2.93-9.87-8.93-1.18-1.42-9.31-12.67-8-14,1.75-1.77,13.69,7.46,19,6-11.08-1.37-20-15.13-20-26a144.73,144.73,0,0,0,29,12c-14.4-6.83-33.11-34-32-46,0,0,12.08,14.43,42,24-19.94-5.47-50.31-39.62-47-50.55,0,0,29.86,15.15,62,31.55-39.89-16.4-73.48-58.78-63.1-58.89,5.33-.07,26.9,10.54,49.83,18.68"/><path class="cls-14" d="M431.65,257.82c5.81,2.06,11.7,4,17.45,5.5,0,0-16.07-4.62-18.62-6S415.92,370,415.92,370a31.25,31.25,0,0,0,7-2c11-27,27.33-104.44,27.33-104.44Z"/></svg>