<?xml version="1.0" encoding="UTF-8"?><svg xmlns="http://www.w3.org/2000/svg" viewBox="0 0 129.4 129.4"><defs><style>.d,.e,.f{fill:#fff;}.g{fill:#ffc2ec;}.e,.f,.h,.i,.j{stroke-miterlimit:10;stroke-width:.25px;}.e,.h,.i{stroke:#fff;}.f{stroke:#000;}.h{fill:#0f1126;}.i{fill:#887ff7;}.j{fill:#706de2;stroke:#44c;}</style></defs><g id="a"/><g id="b"><g id="c"><circle class="d" cx="64.7" cy="64.7" r="64.7"/><ellipse class="g" cx="64.75" cy="64.7" rx="55.45" ry="54.19"/><g><path class="h" d="M56.1,51.6c1.5-7.1,3-14.2,4.5-21.2,.6-2.9,1.2-5.8,1.9-8.7,.7-3.1,2.3-4.4,5.4-3.5,8.1,2.4,16.2,4.9,24.1,7.7,3.4,1.2,6.6,3,9.7,4.6,2.8,1.5,3.3,3.4,1.9,6.2-4.5,8.5-9,17-13.6,25.4-.7,1.3-.6,2,.5,3.1,2.2,2.1,4.4,4.3,5.9,6.9,2.8,4.6,1.1,8.7-4.1,10.6-4.5,1.6-9.2,1.6-13.9,.9-11.7-1.6-22.5-5.6-31.7-13.1-2.4-1.9-4.5-4.4-6.1-7-2.6-4.3-1.1-8.4,3.6-10.2,1.8-.7,3.8-1.1,5.7-1.4,2-.3,4-.2,6.2-.3Zm30.9,15.1c-5.5-1.4-11.1-2.3-16.3-4.2-5.3-1.9-10.2-4.8-15.5-7.4-.3,1.2-.7,2.7-.9,4.2-.1,.5,.4,1.2,.8,1.5,8.5,5.4,17.6,9.4,27.9,10.2,.7,.1,1.7-.4,2.1-.9,.8-1.1,1.4-2.4,1.9-3.4Z"/><path class="e" d="M86.8,67c-.6,1-1.1,2.3-2,3.3-.4,.5-1.4,1-2.1,.9-10.2-1.1-19.2-5.2-27.6-10.8-.4-.3-.8-1-.8-1.5,.2-1.5,.6-3,.9-4.2,5.2,2.7,10.1,5.7,15.3,7.7,5.3,2,10.8,3.1,16.3,4.6Z"/></g><path class="f" d="M20.9,70.2c-.3,0-.6-.1-.9-.1-1.5-.3-2.7-1.1-3.2-2.6-.5-1.4-.1-2.7,1-3.7,1.1-1.1,2.3-2,3.6-3,7.1-5.6,14.2-11.2,21.3-16.7,.6-.5,1-.9,.7-1.8-.7-1.7-.1-3.2,1-4.5,.8-.9,1.4-1.8,1.2-3.1-.2-1.5-1.5-2.6-2.9-2.4-1.6,.2-2.5,1.4-2.4,3,.1,1.1-.3,1.8-1.1,1.9-.8,.1-1.5-.5-1.6-1.6-.2-2.1,.6-3.8,2.3-5.1,1.8-1.3,3.7-1.2,5.5-.1,2,1.1,2.8,2.9,2.7,5.1-.1,1.5-.8,2.9-1.8,4-.9,1-.6,2-.2,3,.1,.3,.7,.5,1.1,.5,9.2,1.7,18.4,3.4,27.6,5.1,.7,.1,1.4,.3,2.2,.4,1.7,.2,3.1,.9,4,2.5,.1,.3,.1,.6,.2,.9,0,1.8-.9,3.2-2.4,4.2-19.3,4.6-38.6,9.3-57.9,14.1Zm28.2-9.7c9.1-2.3,18.3-4.5,27.4-6.8,.4-.1,.8-.1,1.1-.3,.4-.4,.7-.8,.8-1.3,0-.3-.6-.6-.9-.9-.3-.2-.6-.2-1-.2-10.1-1.9-20.1-3.8-30.2-5.6-.5-.1-1.2,.1-1.6,.4-6.5,5.1-13,10.2-19.6,15.4-1.8,1.4-3.6,2.8-5.3,4.3-.3,.2-.6,1-.4,1.2,.3,.4,.8,.6,1.3,.8,.3,.1,.6-.1,1-.2,9.2-2.3,18.3-4.6,27.4-6.8Z"/><path class="i" d="M69.27,83.81c3.63-2.61,6.85-5.26,10.45-7.46,5.46-3.21,8.18-2.03,10.17,4.03,1.78,5.39,2.06,10.91,.5,16.33-1.17,4.04-3.48,5.42-7.29,3.81-3.9-1.6-7.51-3.86-11.1-6.01-1.34-.8-2.13-1.28-3.67-.12-2.99,2.2-6.03,1.58-9.02-.67-2.53,1.93-4.95,3.84-7.4,5.65-1.01,.67-2.01,1.34-3.15,1.82-5.52,2.81-8.85,1.63-9.92-4.38-.86-4.72-.98-9.87-.33-14.63,.79-5.8,4.02-7.13,9.35-4.85,2.07,.88,3.97,1.99,5.79,3.22,1.8,1.13,3.52,2.37,5.34,3.6,3.4-2.78,6.92-2.94,10.28-.34Z"/><path class="j" d="M59.51,91.47c-.08,.85-.14,1.29,.11,1.86,.72,1.64,3.16,2.12,4.95,2.28,3.61-.35,4.59-1.59,4.92-2.29,.43-.9,.02-1.38-.19-4.1-.26-3.36,.36-4.05-.39-5.13-1.08-1.56-3.4-1.64-4.26-1.67-.41-.02-4.07-.15-5.33,1.99-.97,1.65,.61,2.74,.19,7.06Z"/></g></g></svg>