<?xml version="1.0" encoding="UTF-8"?><svg xmlns="http://www.w3.org/2000/svg" viewBox="0 0 129.4 129.4"><defs><style>.e{fill:#fff;}.f{fill:#d2e4ff;}.g{fill:#1b6c9e;}</style></defs><g id="a"/><g id="b"><g id="c"><circle class="e" cx="64.7" cy="64.7" r="64.7"/><ellipse class="f" cx="64.7" cy="64.7" rx="55.35" ry="55.52" transform="translate(-1.96 127.38) rotate(-88.23)"/><g id="d"><g><path class="g" d="M46.6,50.1c-1.7-.3-3.4-.7-5-1-.6-.1-.9,.3-1.2,.6-2.1,2-4.1,4-6.2,5.9-1.9,1.7-4.7,1.1-5.8-1.3-.6-1.3-.4-2.9,.7-3.9,2.8-2.8,5.6-5.5,8.4-8.2,.9-.9,1.9-1.1,3.1-.8,3.6,.7,7.1,1.4,10.7,2,.7,.1,1.4,.4,2,.7,4.7,2.1,8.9,4.8,12.7,8.4,.7,.7,1.4,.9,2.4,.9,1.5-.1,3.1-.1,4.6,0,.9,0,1.1-.2,1.1-1.1,0-6.5,.1-13,0-19.5,0-1.2,.4-1.4,1.5-1.4,6.8,.1,13.5,.1,20.3,.1,1,0,1.3,.2,1.3,1.2-.1,21-.2,42-.3,63.1,0,.9-.2,1.2-1.2,1.2-6.9-.1-13.7-.1-20.6,0-.9,0-1.1-.2-1.1-1.1,.1-9,.1-18,.1-26.9,0-1,.3-1.2,1.2-1.2,1.8,.1,3.6,.1,5.3,0,.7,0,.9,.2,.9,.9-.1,1.4,0,2.8,0,4.2,0,.4,0,.8,.4,1s.8-.1,1.1-.4c2.9-2.9,5.8-5.8,8.7-8.6,.4-.4,.3-.7,0-1.1-2.8-2.8-5.7-5.7-8.5-8.5-.3-.3-.7-.7-1.1-.5-.4,.2-.4,.7-.4,1.1v4.1c0,.6-.1,.9-.8,.9-5.1-.1-10.3-.1-15.4-.2-.8,0-1.5-.4-2.2-1-1.6-1.3-3.2-2.6-4.8-4-.5-.5-.7-.4-1,.2-2,3.8-4,7.6-6.1,11.4-.4,.7,0,.9,.5,1.2,3.7,2.1,7.5,4.2,11.2,6.2,.8,.4,1,.8,.7,1.7-1.8,6.1-3.6,12.2-5.4,18.3-.5,1.7-2,2.8-3.6,2.7-1.8-.1-3.2-1.3-3.5-3.1-.1-.7,.1-1.4,.3-2,1.1-4.1,2.3-8.2,3.5-12.3,.2-.8,.1-1.2-.7-1.6-4.2-2.3-8.3-4.6-12.5-7-2.5-1.4-3.3-3.4-2.7-6.2,.3-1.2,.8-2.4,1.3-3.5,1.9-3.6,3.8-7.1,5.7-10.7,.1-.2,.3-.5,.4-.9Z"/><path class="g" d="M36.3,73.4c1.4,2.1,3.4,2.9,5.2,4,.7,.4,.9,.7,.5,1.5-1.1,2.1-2,4.2-3,6.4-.3,.6-.6,.8-1.3,.9-4,.4-8,.9-12,1.3-1.9,.2-3.8-1.3-4.1-3.2-.3-2,.9-3.8,2.9-4.2,2.6-.4,5.3-.7,7.9-1,.7-.1,1.2-.3,1.5-1,.8-1.4,1.6-2.9,2.4-4.7Z"/><path class="g" d="M60,43.5c-3.1,.4-6.3-2.6-6.3-6.2s2.7-6.3,6.2-6.3,6.4,2.8,6.4,6.4c.1,3.3-2.8,6.4-6.3,6.1Z"/></g></g></g></g></svg>