<?xml version="1.0" encoding="UTF-8"?><svg xmlns="http://www.w3.org/2000/svg" viewBox="0 0 525.56 233.99"><defs><style>.e{fill:#f9e4ea;stroke:#fff;stroke-width:22px;}.e,.f{stroke-miterlimit:10;}.g{fill:#f96304;}.h{fill:#a0a9b7;}.i{fill:#8a94a7;}.j{fill:#8c96a9;}.k{fill:#8f99ab;}.l{fill:#e1450b;}.m{fill:#21252c;}.n{fill:#434c61;}.o{fill:#444c61;}.p{fill:#6f788d;}.q{fill:#6e778c;}.r{fill:#3c4256;}.s{fill:#454e62;}.f{fill:#fff;stroke:#2d5096;}</style></defs><g id="a"/><g id="b"><g id="c"><rect class="e" x="11" y="11" width="503.56" height="211.99" rx="90.11" ry="90.11"/><g id="d"><g><path class="j" d="M347.02,90.37c20.99,13.32,41.98,26.64,62.96,39.98,.95,.61,1.76,1.45,2.64,2.18-.57,2.45-2.72,3.63-4.3,5.23-13.12,13.36-26.3,26.67-39.46,40-5.94,.59-12.02-1.24-17.86,1.02-1.62-.43-3.24-.85-4.85-1.28-.31-1.81-1.65-2.73-3.03-3.7-4.58-3.2-9.11-6.39-13.1-10.42-17.19-17.38-16.04-49.68,4.16-64.98,4.11-3.11,8.76-5.08,12.86-8.03Z"/><path class="j" d="M112.54,132.61c7.2-5.79,15.34-10.17,23.06-15.18,14.09-9.15,28.35-18.04,42.54-27.03,1.03,1.43,2.73,1.79,4.18,2.5,13.57,6.58,22.3,17.37,24.35,32.1,2.7,19.39-4.09,35.23-21.01,46.22-2.46,1.6-5.52,3.07-6.65,6.3-1.53,.21-3.06,.41-4.59,.61-6.04-.12-12.09-.24-18.13-.36-1.42-1.58-2.76-3.23-4.26-4.74-12.06-12.1-24.16-24.16-36.23-36.25-1.25-1.25-2.91-2.21-3.27-4.17Z"/><path class="n" d="M288.51,27.81c4.84-13.46,15.97-20.11,29.87-17.85,12.31,2.01,20.77,12.72,20.79,26.38,.01,10.09,.02,20.19,0,30.28-.01,4.96-.13,9.92,.98,14.8-9.37,3.67-18.73,7.34-28.1,10.99-9.34,3.65-18.43,7.97-28.11,10.73,1.34-16.69,2.68-33.38,4.01-50.06,.18-2.27,.79-4.56-.09-6.83,.9-2.12,1.75-4.26,1.43-6.64-.71-3.9,3.14-8.11-.78-11.8Zm8.82,6.9c.39,2.63,1.99,5.06,5.53,4.95,3.4-.11,5.41-2.26,5.36-5.77-.05-3.57-2.38-5.64-5.6-5.63-3.27,.01-5.42,2.11-5.29,6.45Z"/><path class="o" d="M185,81.42c2.8-15.15,3.4-30.5,4.2-45.84,.62-11.86,7.27-21.1,17.65-24.5,10.06-3.3,21.09-.2,27.84,7.86,3.61,4.31,5.93,9.26,5.95,14.9,.08,23.13-.02,46.26-.05,69.39-4.95-.78-9.28-3.29-13.85-5.06-13.97-5.42-27.83-11.14-41.73-16.75Zm26.55-41.69c-.13,2.42,6.39,10.62,8.45,10.55,.44-.01,1.01-.27,1.28-.61,2.61-3.29,6.23-6.1,5.4-11.07-1.5-4-4.5-6.08-8.63-5.5-3.53,.5-6.43,2.36-6.49,6.62Zm-8.73-.92c3.23-.04,5.19-1.44,5.08-4.69-.1-2.98-1.91-5.09-4.83-5.14-2.94-.05-4.77,2.05-4.95,5.01-.2,3.23,1.7,4.72,4.7,4.82Zm33.98-4.36c.03-3.09-.79-5.41-3.91-5.49-2.75-.07-4.14,1.82-3.99,4.47,.14,2.7,1.02,5.63,4.07,5.77,2.81,.13,4.16-2.18,3.83-4.75Z"/><path class="p" d="M283.95,103.15c9.68-2.75,18.77-7.08,28.11-10.73,9.37-3.66,18.73-7.33,28.1-10.99,2,3.2,3.96,6.43,6.85,8.95-4.1,2.96-8.75,4.92-12.86,8.03-20.2,15.3-21.35,47.6-4.16,64.98,3.99,4.03,8.52,7.22,13.1,10.42,1.38,.97,2.72,1.89,3.03,3.7-6.24,1-12.39-.38-18.58-.7-22.7-5.9-37.47-19.9-43.55-42.7-2.75-10.3-1.18-20.64-.05-30.96Z"/><path class="p" d="M185,81.42c13.9,5.6,27.76,11.32,41.73,16.75,4.57,1.78,8.91,4.28,13.85,5.06-.02,10.05,1.09,20.16-.76,30.13-3.63,19.54-14.85,33.06-33.16,40.68-3.19,1.33-6.49,2.37-9.74,3.54-5.96-.42-11.94,.83-17.9-.08,1.13-3.22,4.19-4.7,6.65-6.3,16.91-11,23.7-26.83,21.01-46.22-2.05-14.73-10.78-25.52-24.35-32.1-1.45-.71-3.15-1.07-4.18-2.5,3.05-2.4,4.86-5.76,6.85-8.96Z"/><path class="s" d="M81.6,177.77c-11.57,8.29-24.13,14-38.58,14.81-.36-.55-.68-.49-.97,.05-.66,.02-1.32,.04-1.98,.06-4.64-1.61-9.27-1.82-13.88,.13l-8.03,.47-.26-.98c7.09-4.51,14.17-9.03,21.96-13.99-8.41-1.73-14.32-5.14-15.68-13.49,.99-1.01,1.98-2.02,2.98-3.02,11.58-.42,23.17-.42,34.75,0v2.04c-5.51,5.6-13.35,8.02-19.68,14h38.46l.47,.15,.44-.23Z"/><path class="s" d="M501.13,163.9c-1.05,7.96-5.67,12.37-15.72,14.3,5.92,3.95,11.3,7.54,16.68,11.12-.38,2.98-2.69,2.17-4.53,2.36-4.8,.49-9.74-1.09-14.44,.95-14.14-.44-26.48-5.86-37.95-13.7,0-.48,.01-.96,.02-1.44h37.89c-7.16-4.9-13.51-9.24-19.86-13.59v-2.07c11.26-.41,22.52-.44,33.77,.02,1.02,1.4,2.86,1.16,4.13,2.07Z"/><path class="o" d="M112.54,132.61c.36,1.96,2.02,2.92,3.27,4.17,12.06,12.1,24.16,24.16,36.23,36.25,1.5,1.5,2.84,3.15,4.26,4.74-5.94-.02-11.88-.03-17.82-.05-.32-.02-.63-.09-.93-.2-.27-.59-.4-1.31-.83-1.74-12.02-11.95-24.07-23.87-36.11-35.8,3.75-2.83,7.56-5.55,11.94-7.38Z"/><path class="n" d="M368.85,177.77c13.16-13.32,26.34-26.63,39.46-40,1.57-1.6,3.73-2.78,4.3-5.23,4.01,1.96,7.98,3.98,11.07,7.33-9.17,10.56-19.67,19.81-29.3,29.93-2.35,2.47-5.38,4.37-6.8,7.67-.51,.17-1.02,.34-1.53,.51-5.74-.07-11.47-.15-17.21-.22Z"/><path class="i" d="M100.6,139.98c12.04,11.93,24.09,23.85,36.11,35.8,.43,.43,.56,1.15,.83,1.74-5.35,.07-10.7,.14-16.05,.21-6.48-8.1-14.15-15.06-21.6-22.21-3.22-3.09-5.08-7.96-10.31-8.71,3.67-2.28,7.35-4.56,11.02-6.83Z"/><path class="i" d="M387.58,177.48c1.42-3.31,4.45-5.2,6.8-7.67,9.62-10.12,20.12-19.37,29.3-29.93,3.81,1.15,6.98,3.32,9.76,6.13-1.68,3.24-4.59,5.4-7,8-7.45,8.04-15.98,15.05-22.78,23.73l-16.07-.25Z"/><path class="s" d="M403.66,177.73c6.79-8.68,15.32-15.69,22.78-23.73,2.41-2.6,5.32-4.76,7-8,4.61,1.83,8.71,4.46,12.32,7.86-5.03,2.98-8.47,7.69-12.5,11.73-3.79,3.79-8.33,6.94-10.94,11.84-6.21,.84-12.44,.33-18.66,.3Z"/><path class="s" d="M89.58,146.82c5.23,.75,7.1,5.62,10.31,8.71,7.45,7.15,15.12,14.11,21.6,22.21-6.22,0-12.46,.57-18.67-.32-6.94-8.71-14.87-16.44-23.43-23.54,2.8-3.21,6.71-4.81,10.18-7.05Z"/><path class="k" d="M422.32,177.43c2.6-4.9,7.15-8.05,10.94-11.84,4.03-4.04,7.47-8.74,12.5-11.73,4.69,1.68,8.58,4.68,12.6,7.5-2.12,4.03-6.05,6.43-8.9,9.79-1.66,1.95-4.33,3.22-4.26,6.33,0,.48-.01,.96-.02,1.44-4.73-1.99-9.7-.75-14.55-1.08-2.77-.18-5.54-.28-8.31-.42Z"/><path class="g" d="M198.02,212.58c-13.71,.1-27.41,.18-41.12,.32-3.32,.03-2.57-1.73-1.54-3.45,2.49-4.13,6.81-3.04,10.69-3.19l1.08-1.54c-5.21-4.76-10.43-9.51-15.64-14.27,2.91,.45,5.8,.45,8.68-.23,3.29,3.18,6.86,6.12,9.8,9.6,4.43,5.23,9.74,7.49,16.48,6.47,2.41,.21,4.83,.3,7.21,.65,3.17,.47,4.96,2.17,4.36,5.64Z"/><path class="j" d="M79.41,153.87c8.56,7.11,16.49,14.83,23.43,23.54-7.06,.87-14.15,.25-21.23,.36l-.44,.23-.47-.15c-2.8-6.77-9.07-10.3-14.04-15.06l.23-1.02c3.69-3.4,7.82-6.13,12.53-7.91Z"/><path class="g" d="M373.45,190.58c-5.14,4.6-10.28,9.19-15.7,14.03,3.07,2.32,4.93,1.62,6.62,1.71,2.59,.13,4.35,1.3,5.57,3.47,1.1,1.96,.84,3.07-1.72,3.05-13.7-.11-27.4-.18-41.09-.26,.02-4.26,1.9-6.47,6.41-6.06,1.8,.16,3.63,0,5.46-.02,6.91,.7,12.28-1.88,16.71-7.2,2.8-3.37,6.16-6.28,9.27-9.39,2.74,1.21,5.61,.86,8.47,.67Z"/><path class="q" d="M445.2,177.48c-.08-3.11,2.6-4.38,4.26-6.33,2.86-3.36,6.78-5.76,8.9-9.79,.3,.17,.61,.34,.91,.51,1.04,1.22,2.46,1.71,3.96,2.02,6.35,4.35,12.7,8.69,19.86,13.59h-37.89Z"/><path class="l" d="M339.01,206.5c-1.82,.02-3.65,.19-5.45,.02-4.51-.41-6.39,1.8-6.41,6.06-5.91,.1-11.82,.2-17.73,.28-.96,.01-2.21,.33-2.69-.69-.54-1.15,.36-2.16,1.01-3.09,1.45-2.08,3.54-3.13,5.96-2.71,11.59,2.01,19.89-3.13,26.71-11.86,1.3-1.66,3.08-2.94,4.63-4.39,2.75,.94,5.58,.67,8.4,.49-1.71,1.78-3.51,3.49-5.1,5.37-3.02,3.59-7.44,5.94-9.34,10.52Z"/><path class="l" d="M198.02,212.58c.61-3.47-1.19-5.17-4.36-5.64-2.38-.35-4.81-.44-7.21-.65-4.18-5.87-10.14-10.08-14.64-15.67,2.84,.19,5.7,.51,8.42-.73,3.82,3.85,7.77,7.58,11.42,11.58,3.24,3.55,7.07,5.12,11.82,4.89,2.95-.14,5.92-.08,8.87,.02,2.46,.08,4.4,1.13,5.58,3.42,.98,1.91,.95,3.13-1.69,3.08-6.07-.13-12.14-.2-18.22-.3Z"/><path class="p" d="M160.17,190.21c-2.87,.69-5.77,.69-8.68,.24-4.34-4.25-8.68-8.49-13.01-12.73,5.94,.02,11.88,.03,17.82,.05,6.04,.12,12.09,.24,18.13,.36-1.02,3.97-6.39,3.85-7.39,7.84-3.16,.01-4.92,2.28-6.87,4.25Z"/><path class="q" d="M373.45,190.58c-2.85,.19-5.72,.54-8.46-.68-2.15-1.55-3.8-3.97-6.86-3.93-1.26-3.5-5.59-3.97-7.14-7.19,5.84-2.26,11.92-.43,17.86-1.02,5.74,.07,11.47,.15,17.21,.22-4.2,4.2-8.4,8.4-12.61,12.6Z"/><path class="s" d="M350.99,178.79c1.54,3.23,5.87,3.69,7.14,7.19-1.56,1.54-3.12,3.09-4.68,4.63-2.82,.18-5.64,.46-8.4-.49-5.83-4.44-11.66-8.87-17.49-13.31,6.19,.32,12.34,1.7,18.58,.7,1.62,.42,3.24,.85,4.85,1.28Z"/><path class="s" d="M167.03,185.97c1-4,6.37-3.87,7.39-7.84,1.53-.2,3.06-.4,4.59-.61,5.96,.91,11.93-.34,17.9,.08-5.56,4.1-11.12,8.2-16.67,12.3-2.72,1.25-5.58,.92-8.42,.73-1.59-1.55-3.19-3.1-4.79-4.66Z"/><path class="p" d="M289.3,39.61c.32,2.38-.53,4.52-1.43,6.64-3.13-2.19-6.72-1.44-10.1-1.31-4.23,.16-4.07-1.52-2.2-4.22,2.44-3.52,4.84-7.1,8.81-9.15,1.66,2.66,2.02,6.13,4.91,8.04Z"/><path class="r" d="M483.12,192.62c4.7-2.04,9.64-.46,14.44-.95,1.84-.19,4.16,.62,4.53-2.36l5.03,2.89c-8.12,.72-16.06,1.38-24,.41Z"/><path class="h" d="M289.3,39.61c-2.9-1.91-3.25-5.37-4.91-8.04,.43-2.29,1.73-3.63,4.13-3.76,3.93,3.69,.08,7.9,.78,11.8Z"/><path class="r" d="M26.19,192.83c4.61-1.94,9.24-1.74,13.88-.13-4.62,.63-9.25,.45-13.88,.13Z"/><path class="r" d="M27.16,161.82c-.99,1.01-1.98,2.02-2.98,3.02-1.62-3.58,.5-3.47,2.98-3.02Z"/><path class="r" d="M66.88,161.78c-.08,.34-.15,.68-.22,1.02-1.58,.35-3.16,.71-4.74,1.06v-2.04c1.65-.01,3.31-.03,4.96-.04Z"/><path class="r" d="M463.23,163.89c-1.51-.31-2.92-.8-3.96-2.02,1.33-.02,2.65-.04,3.98-.05v2.07Z"/><path class="r" d="M501.13,163.9c-1.27-.91-3.11-.66-4.13-2.07,1.54,.37,4.44-1.98,4.13,2.07Z"/><path class="r" d="M42.05,192.64c.3-.54,.62-.6,.97-.05l-.97,.05Z"/><path class="m" d="M297.34,34.71c-.13-4.34,2.02-6.44,5.29-6.45,3.22-.01,5.55,2.06,5.6,5.63,.05,3.51-1.96,5.66-5.36,5.77-3.54,.11-5.14-2.32-5.53-4.95Z"/><path class="p" d="M226.66,38.61c.84,4.97-2.79,7.78-5.4,11.07-.27,.34-.84,.6-1.28,.61-2.06,.07-8.57-8.13-8.44-10.55,4.87-2.62,10.06-.98,15.12-1.12Z"/><path class="m" d="M202.81,38.82c-3.01-.1-4.9-1.59-4.7-4.82,.18-2.96,2.01-5.06,4.95-5.01,2.92,.05,4.73,2.16,4.83,5.14,.11,3.25-1.85,4.65-5.08,4.69Z"/><path class="m" d="M236.79,34.46c.33,2.57-1.02,4.88-3.83,4.75-3.05-.14-3.93-3.07-4.07-5.77-.14-2.65,1.24-4.54,3.99-4.47,3.11,.08,3.94,2.4,3.91,5.49Z"/><path class="h" d="M226.66,38.61c-5.06,.14-10.24-1.5-15.12,1.12,.05-4.27,2.95-6.13,6.49-6.62,4.13-.58,7.13,1.5,8.63,5.5Z"/><path class="q" d="M61.91,163.86c1.58-.35,3.16-.71,4.74-1.06,4.96,4.75,11.24,8.29,14.04,15.06-12.53,0-25.07,0-38.46,0,6.33-5.98,14.17-8.4,19.69-14Z"/></g></g><g><path class="f" d="M215.54,107.92c0-.47,.51-1.03,1.53-1.68,1.02-.65,2.47-1.23,4.34-1.74,1.87-.51,3.9-.77,6.11-.77s3.82,.32,4.84,.94c1.02,.63,1.57,1.32,1.65,2.07l2.07,21.48h.83l1.83-20.95c.12-1.1,1.46-1.97,4.01-2.6,2.56-.63,4.94-.94,7.14-.94s3.84,.19,4.9,.56c1.06,.38,1.74,.76,2.04,1.15,.3,.39,.44,.76,.44,1.09s-.29,1.26-.86,2.77c-.57,1.52-1.17,3.14-1.8,4.87-2.09,5.51-5.61,15.38-10.56,29.63-.43,1.22-3.82,1.83-10.15,1.83-1.97,0-3.27-.14-3.9-.41-.63-.27-1.06-.75-1.3-1.42-2.32-6.69-5.1-14.28-8.32-22.78-3.23-8.5-4.84-12.87-4.84-13.1Z"/><path class="f" d="M288.49,143.16c-1.18,.87-2.82,1.58-4.93,2.15-2.11,.57-4.82,.86-8.14,.86s-6.48-.28-9.47-.83c-2.99-.55-5.13-1.16-6.43-1.83-1.3-.67-1.95-1.32-1.95-1.95,0-2.2,.31-4.5,.94-6.88,.63-2.38,1.38-3.57,2.24-3.57,.16,0,1.79,.53,4.9,1.59,3.11,1.06,5.45,1.59,7.02,1.59s2.6-.17,3.07-.5c.47-.33,.71-.82,.71-1.45s-.43-1.19-1.3-1.68c-.87-.49-1.95-.92-3.25-1.3-1.3-.37-2.71-.92-4.22-1.62-1.52-.71-2.92-1.5-4.22-2.36s-2.38-2.1-3.25-3.69c-.87-1.59-1.3-3.41-1.3-5.46,0-8.73,5.21-13.1,15.64-13.1,3.9,0,7.26,.25,10.09,.74,2.83,.49,4.83,1.04,5.99,1.65,1.16,.61,1.74,1.21,1.74,1.8,0,2.05-.48,4.25-1.45,6.61-.96,2.36-1.9,3.54-2.8,3.54-.16,0-.67-.18-1.53-.53-2.6-1.14-4.75-1.71-6.46-1.71s-2.87,.16-3.48,.47c-.61,.32-.91,.8-.91,1.45s.43,1.18,1.3,1.59c.86,.41,1.94,.79,3.22,1.12,1.28,.33,2.68,.85,4.19,1.53,1.51,.69,2.92,1.5,4.22,2.42,1.3,.92,2.38,2.23,3.25,3.92,.87,1.69,1.3,3.66,1.3,5.9,0,2.36-.61,4.51-1.83,6.43-.75,1.18-1.71,2.2-2.89,3.07Z"/></g></g></g></svg>