<?xml version="1.0" encoding="UTF-8"?><svg xmlns="http://www.w3.org/2000/svg" viewBox="0 0 525.56 233.99"><defs><style>.e{fill:#dcebef;stroke:#fff;stroke-width:22px;}.e,.f{stroke-miterlimit:10;}.g{fill:#f96304;}.h,.f{fill:#fff;}.i{fill:#a0a9b7;}.j{fill:#8a94a7;}.k{fill:#8c96a9;}.l{fill:#e1450b;}.m{fill:#21252c;}.n{fill:#444c61;}.o{fill:#1a2330;}.p{fill:#6f788d;}.q{fill:#6e778c;}.r{fill:#3c4256;}.s{fill:#454e62;}.f{stroke:#2d5096;}</style></defs><g id="a"/><g id="b"><g id="c"><rect class="e" x="11" y="11" width="503.56" height="211.99" rx="90.11" ry="90.11"/><g id="d"><g><path class="o" d="M381.98,174.96c-27.38,0-54.76,0-82.14,0-6.42,0-9.62-3.18-9.62-9.59,0-35.55,0-71.1,0-106.65,0-6.01,3.38-9.43,9.32-9.43,54.67,0,109.35,0,164.02,0,7.08,0,10.14,3.1,10.14,10.18,0,35.2,0,70.41,0,105.61,0,6.79-3.09,9.89-9.85,9.89-27.29,0-54.59,0-81.88,0h0Zm-.09-25.09h0c25.64,0,51.28,0,76.92,0,4.26,0,4.58-.32,4.58-4.57,0-27.64,0-55.28,0-82.91,0-3.97-.36-4.34-4.3-4.34-51.45,0-102.9,0-154.36,0-3.79,0-4.17,.4-4.18,4.2,0,27.81,0,55.62,0,83.44,0,3.78,.42,4.21,4.16,4.21,25.73,0,51.45,0,77.18,0Zm.05,15.29c3.03,0,6.07,0,9.1,0,1.85,0,3.03-.83,3-2.78-.03-1.96-1.27-2.71-3.09-2.71-5.98,0-11.96,0-17.94,0-1.83,0-3.06,.71-3.11,2.67-.06,2.15,1.29,2.84,3.21,2.83,2.95,0,5.89,0,8.84,0Z"/><path class="o" d="M381.85,194.2c-10.08,0-20.17,0-30.25,0-.78,0-1.8,.24-2.29-.16-1.05-.86-2.57-2.07-2.53-3.1,.04-1.19,1.49-2.37,2.43-3.46,.21-.24,.85-.24,1.26-.17,4.66,.74,8.02-.15,8.73-5.73,.26-2.1,2.46-2.81,4.5-2.81,12.17-.03,24.34-.01,36.51,0,2.73,0,4.28,1.45,5.09,3.99,1.46,4.55,1.5,4.54,6.31,4.55,.61,0,1.22,0,1.83,0,2.23,.03,3.69,1.05,3.9,3.33,.19,2.06-1.44,3.5-3.92,3.54-3.3,.05-6.61,.02-9.91,.02-7.21,0-14.43,0-21.64,0h0Z"/><path class="h" d="M381.9,149.88c-25.73,0-51.45,0-77.18,0-3.75,0-4.16-.43-4.16-4.21,0-27.81,0-55.62,0-83.44,0-3.8,.38-4.2,4.18-4.2,51.45,0,102.9,0,154.36,0,3.94,0,4.3,.37,4.3,4.34,0,27.64,0,55.28,0,82.91,0,4.26-.32,4.57-4.58,4.57-25.64,0-51.28,0-76.92,0h0Z"/><path class="o" d="M381.94,165.18c-2.95,0-5.89,0-8.84,0-1.91,0-3.26-.68-3.21-2.83,.05-1.96,1.28-2.68,3.11-2.67,5.98,.01,11.96,0,17.94,0,1.82,0,3.06,.75,3.09,2.71,.03,1.95-1.15,2.78-3,2.78-3.03,0-6.07,0-9.1,0Z"/></g></g><g><path class="k" d="M114.4,131.35c7.25-5.83,15.44-10.24,23.21-15.28,14.18-9.21,28.53-18.15,42.81-27.21,1.04,1.44,2.75,1.81,4.21,2.52,13.66,6.63,22.44,17.48,24.5,32.31,2.71,19.51-4.12,35.45-21.14,46.52-2.48,1.61-5.55,3.09-6.69,6.34-1.54,.21-3.08,.41-4.62,.62-6.08-.12-12.16-.24-18.25-.36-1.42-1.59-2.78-3.25-4.28-4.77-12.14-12.17-24.32-24.31-36.46-36.48-1.26-1.26-2.93-2.23-3.29-4.2Z"/><path class="n" d="M187.31,79.84c2.82-15.25,3.42-30.7,4.23-46.13,.62-11.94,7.32-21.23,17.76-24.66,10.13-3.32,21.22-.2,28.01,7.91,3.63,4.34,5.97,9.32,5.99,14.99,.08,23.28-.02,46.55-.05,69.83-4.98-.78-9.34-3.31-13.94-5.1-14.06-5.46-28.01-11.21-42-16.85Zm26.71-41.95c-.13,2.44,6.43,10.69,8.5,10.62,.44-.01,1.02-.27,1.29-.61,2.62-3.31,6.27-6.14,5.43-11.14-1.51-4.02-4.53-6.12-8.69-5.53-3.56,.5-6.48,2.37-6.53,6.67Zm-8.78-.92c3.25-.04,5.22-1.45,5.11-4.72-.1-3-1.92-5.12-4.86-5.17-2.96-.05-4.8,2.06-4.98,5.04-.2,3.25,1.71,4.75,4.73,4.85Zm34.19-4.38c.03-3.11-.8-5.44-3.93-5.52-2.77-.07-4.16,1.84-4.02,4.5,.14,2.72,1.03,5.67,4.1,5.8,2.83,.13,4.19-2.19,3.85-4.78Z"/><path class="p" d="M187.31,79.84c13.99,5.64,27.94,11.39,42,16.85,4.6,1.79,8.96,4.31,13.94,5.1-.02,10.12,1.1,20.29-.76,30.33-3.65,19.66-14.94,33.27-33.37,40.94-3.21,1.34-6.53,2.38-9.81,3.56-6-.42-12.01,.83-18.01-.08,1.14-3.24,4.21-4.73,6.69-6.34,17.02-11.07,23.85-27,21.14-46.52-2.06-14.83-10.85-25.68-24.5-32.31-1.46-.71-3.17-1.07-4.21-2.52,3.07-2.42,4.89-5.79,6.9-9.02Z"/><path class="s" d="M83.27,176.8c-11.64,8.34-24.29,14.09-38.82,14.9-.36-.55-.68-.49-.98,.05-.66,.02-1.33,.04-1.99,.07-4.67-1.62-9.33-1.83-13.97,.13l-8.08,.47-.26-.98c7.13-4.54,14.26-9.08,22.1-14.08-8.46-1.74-14.41-5.17-15.78-13.57,1-1.01,2-2.03,2.99-3.04,11.66-.42,23.31-.43,34.97,0v2.05c-5.55,5.64-13.44,8.07-19.81,14.09h38.71l.48,.15,.44-.24Z"/><path class="n" d="M114.4,131.35c.36,1.97,2.04,2.94,3.29,4.2,12.14,12.17,24.32,24.31,36.46,36.48,1.51,1.51,2.86,3.17,4.28,4.77-5.98-.02-11.95-.03-17.93-.05-.32-.02-.63-.09-.94-.2-.27-.59-.41-1.32-.84-1.75-12.09-12.03-24.22-24.02-36.34-36.02,3.77-2.85,7.61-5.59,12.01-7.42Z"/><path class="j" d="M102.39,138.77c12.12,12,24.24,24,36.34,36.02,.43,.43,.57,1.16,.84,1.75-5.38,.07-10.77,.14-16.15,.22-6.52-8.15-14.24-15.16-21.74-22.35-3.24-3.11-5.12-8.01-10.38-8.76,3.7-2.29,7.39-4.58,11.09-6.88Z"/><path class="s" d="M91.3,145.65c5.26,.75,7.14,5.66,10.38,8.76,7.49,7.19,15.22,14.2,21.74,22.35-6.26,0-12.54,.58-18.78-.32-6.98-8.77-14.96-16.54-23.57-23.69,2.82-3.23,6.75-4.84,10.24-7.1Z"/><path class="g" d="M200.42,211.82c-13.79,.1-27.58,.19-41.38,.32-3.34,.03-2.59-1.74-1.55-3.47,2.5-4.16,6.86-3.06,10.75-3.21l1.09-1.55c-5.25-4.79-10.5-9.57-15.74-14.36,2.93,.45,5.84,.46,8.73-.24,3.31,3.2,6.9,6.16,9.86,9.66,4.45,5.26,9.8,7.54,16.59,6.52,2.42,.21,4.86,.3,7.26,.66,3.19,.47,5,2.18,4.38,5.67Z"/><path class="k" d="M81.06,152.75c8.61,7.15,16.59,14.92,23.57,23.69-7.11,.88-14.24,.25-21.36,.36l-.44,.24-.48-.15c-2.82-6.81-9.13-10.37-14.13-15.15l.23-1.03c3.72-3.43,7.87-6.17,12.61-7.96Z"/><path class="l" d="M200.42,211.82c.61-3.49-1.2-5.2-4.38-5.67-2.4-.35-4.84-.45-7.26-.66-4.21-5.91-10.21-10.15-14.73-15.77,2.86,.19,5.74,.51,8.48-.74,3.84,3.87,7.82,7.62,11.49,11.65,3.26,3.57,7.12,5.15,11.89,4.92,2.97-.14,5.95-.08,8.93,.02,2.47,.08,4.43,1.14,5.61,3.44,.99,1.92,.96,3.15-1.7,3.1-6.11-.13-12.22-.2-18.33-.3Z"/><path class="p" d="M162.33,189.32c-2.89,.69-5.81,.69-8.73,.24-4.37-4.27-8.73-8.54-13.09-12.81,5.98,.02,11.95,.03,17.93,.05,6.08,.12,12.16,.24,18.24,.36-1.03,4-6.44,3.87-7.44,7.89-3.18,.01-4.95,2.29-6.91,4.27Z"/><path class="s" d="M169.24,185.05c1-4.02,6.41-3.9,7.44-7.89,1.54-.2,3.08-.41,4.62-.61,6,.91,12.01-.34,18.01,.08-5.59,4.12-11.19,8.25-16.78,12.37-2.74,1.25-5.61,.93-8.47,.74-1.6-1.56-3.21-3.12-4.82-4.69Z"/><path class="r" d="M27.5,191.95c4.64-1.95,9.3-1.75,13.97-.13-4.65,.63-9.31,.46-13.97,.13Z"/><path class="r" d="M28.48,160.75c-1,1.01-2,2.03-2.99,3.04-1.63-3.6,.51-3.49,2.99-3.04Z"/><path class="r" d="M68.45,160.71c-.08,.34-.15,.69-.22,1.03-1.59,.36-3.18,.71-4.77,1.07v-2.05c1.66-.01,3.33-.03,4.99-.04Z"/><path class="r" d="M43.46,191.76c.3-.54,.62-.61,.98-.05l-.98,.05Z"/><path class="p" d="M229.25,36.76c.84,5-2.81,7.83-5.43,11.14-.27,.34-.84,.6-1.29,.61-2.07,.07-8.63-8.18-8.5-10.62,4.9-2.64,10.13-.99,15.21-1.13Z"/><path class="m" d="M205.24,36.97c-3.03-.1-4.93-1.6-4.73-4.85,.18-2.98,2.03-5.09,4.98-5.04,2.94,.05,4.76,2.18,4.86,5.17,.11,3.27-1.86,4.68-5.11,4.72Z"/><path class="m" d="M239.44,32.59c.33,2.59-1.02,4.91-3.85,4.78-3.07-.14-3.95-3.09-4.1-5.8-.14-2.66,1.25-4.57,4.02-4.5,3.13,.08,3.96,2.41,3.93,5.52Z"/><path class="i" d="M229.25,36.76c-5.09,.14-10.31-1.51-15.21,1.13,.05-4.29,2.97-6.16,6.53-6.67,4.16-.59,7.18,1.51,8.69,5.53Z"/><path class="q" d="M63.45,162.8c1.59-.36,3.18-.71,4.77-1.07,5,4.78,11.31,8.34,14.13,15.15-12.61,0-25.22,0-38.71,0,6.37-6.02,14.26-8.45,19.81-14.09Z"/></g><g><path class="f" d="M226.96,103.99c0-.47,.51-1.03,1.53-1.68,1.02-.65,2.47-1.23,4.34-1.74,1.87-.51,3.9-.77,6.11-.77s3.82,.32,4.84,.94c1.02,.63,1.57,1.32,1.65,2.07l2.07,21.48h.83l1.83-20.95c.12-1.1,1.46-1.97,4.01-2.6,2.56-.63,4.94-.94,7.14-.94s3.84,.19,4.9,.56c1.06,.38,1.74,.76,2.04,1.15,.3,.39,.44,.76,.44,1.09s-.29,1.26-.86,2.77c-.57,1.52-1.17,3.14-1.8,4.87-2.09,5.51-5.61,15.38-10.56,29.63-.43,1.22-3.82,1.83-10.15,1.83-1.97,0-3.27-.14-3.9-.41-.63-.27-1.06-.75-1.3-1.42-2.32-6.69-5.1-14.28-8.32-22.78-3.23-8.5-4.84-12.87-4.84-13.1Z"/><path class="f" d="M299.91,139.23c-1.18,.87-2.82,1.58-4.93,2.15-2.11,.57-4.82,.86-8.14,.86s-6.48-.28-9.47-.83c-2.99-.55-5.13-1.16-6.43-1.83-1.3-.67-1.95-1.32-1.95-1.95,0-2.2,.31-4.5,.94-6.88,.63-2.38,1.38-3.57,2.24-3.57,.16,0,1.79,.53,4.9,1.59,3.11,1.06,5.45,1.59,7.02,1.59s2.6-.17,3.07-.5c.47-.33,.71-.82,.71-1.45s-.43-1.19-1.3-1.68c-.87-.49-1.95-.92-3.25-1.3-1.3-.37-2.71-.92-4.22-1.62-1.52-.71-2.92-1.5-4.22-2.36s-2.38-2.1-3.25-3.69c-.87-1.59-1.3-3.41-1.3-5.46,0-8.73,5.21-13.1,15.64-13.1,3.9,0,7.26,.25,10.09,.74,2.83,.49,4.83,1.04,5.99,1.65,1.16,.61,1.74,1.21,1.74,1.8,0,2.05-.48,4.25-1.45,6.61-.96,2.36-1.9,3.54-2.8,3.54-.16,0-.67-.18-1.53-.53-2.6-1.14-4.75-1.71-6.46-1.71s-2.87,.16-3.48,.47c-.61,.32-.91,.8-.91,1.45s.43,1.18,1.3,1.59c.86,.41,1.94,.79,3.22,1.12,1.28,.33,2.68,.85,4.19,1.53,1.51,.69,2.92,1.5,4.22,2.42,1.3,.92,2.38,2.23,3.25,3.92,.87,1.69,1.3,3.66,1.3,5.9,0,2.36-.61,4.51-1.83,6.43-.75,1.18-1.71,2.2-2.89,3.07Z"/></g></g></g></svg>