<?xml version="1.0" encoding="UTF-8"?><svg xmlns="http://www.w3.org/2000/svg" viewBox="0 0 129.4 129.4"><defs><style>.e{fill:#f8c100;}.f{fill:#f47701;}.g{fill:#f47700;}.h{fill:#f5eec3;}.i{fill:#fff;}.j{fill:#ffc533;}.k{fill:#d0291e;}.l{fill:#e24b08;}.m{fill:#f8d33d;stroke:#fff;stroke-miterlimit:10;stroke-width:.25px;}</style></defs><g id="a"/><g id="b"><g id="c"><circle class="i" cx="64.7" cy="64.7" r="64.7"/><ellipse class="j" cx="64.36" cy="64.92" rx="55.27" ry="53.55"/><g><path d="M86.91,88.36c-1.31-2-2.77-2.81-5.03-2.73-5.47,.19-10.94,.05-16.42,.07-1.06,0-2.13-.09-2.14-1.41,0-1.31,1.05-1.44,2.12-1.44,5.26,.01,10.51,0,16.03,0-1.25-1.57-2.2-2.82-4.39-2.75-5.47,.17-10.94,.07-16.42,.08-.36,0-.72,0-1.08,0-1.01,.02-1.78-.32-1.77-1.46,.01-1.15,.87-1.42,1.83-1.42,2.43-.02,4.85,0,7.28,0,2.92,0,5.83,0,8.95,0-7.16-8.28-15.99-14.67-22.01-23.72-11.93,4.87-18.39,14.5-13.99,27.03,.83,2.37,2.06,4.6,3.16,6.88,.24,.5,.59,1.01,1.03,1.32,4.67,3.31,9.26,6.81,15.24,7.49,.44,.05,.93,.22,1.27,.5,1.57,1.25,3.09,2.56,4.77,3.97-1.71,1.36-3.28,2.68-4.93,3.9-.36,.27-.97,.29-1.47,.3-2.48,.03-4.96,.01-7.43,.01-.95,0-1.88,.17-1.86,1.33,.02,1.15,.92,1.31,1.89,1.31,4.54-.01,9.09,0,13.63,0,.95,0,2.06,.06,2.15-1.19,.1-1.36-.98-1.48-2.04-1.46-.14,0-.28-.09-.61-.21,1.12-.92,2.15-1.74,3.15-2.6,1.26-1.08,1.26-1.67,.03-2.74-.97-.84-1.95-1.66-2.86-2.83,.74,0,1.47,0,2.21,0,12.49,0,24.99,0,37.48,0,1.04,0,2.5,.32,2.53-1.24,.03-1.72-1.52-1.32-2.58-1.33-3.46-.04-6.92,.05-10.38-.07-.86-.03-1.93-.47-2.51-1.09-1.15-1.24-2.38-1.68-4.06-1.65-5.68,.1-11.36,.03-17.04,.04-.97,0-1.84-.26-1.83-1.39,0-1.08,.77-1.49,1.79-1.46,.21,0,.41,0,.62,0,4.7,0,9.4-.02,14.09-.03,.45,0,.91,0,1.59,0Z"/><path d="M27.81,73.15c-2.25-3.93-3.09-8.14-2.46-12.66,.53-3.78,1.81-7.29,3.47-10.69,1.25-2.57,2.25-5.2,2.19-8.13-.03-1.19-.39-1.93-1.7-2.1-1.02-.13-2.03-.4-2.99-.75-.53-.19-1.28-.63-1.34-1.04-.08-.52,.31-1.28,.75-1.66,1.38-1.2,2.41-2.54,3.22-4.23,3.19-6.58,11.72-8.82,17.68-4.73,3.77,2.59,5.49,6.3,5.63,10.81,.11,3.66,.1,7.33,.47,10.96,.14,1.43-.25,1.89-1.34,2.56-2.84,1.74-5.8,3.42-8.3,5.6-5.84,5.1-8.46,11.61-7.14,19.38,.44,2.62,1.36,5.17,2.11,7.96-3.93-3.34-7.67-6.79-10.24-11.29Zm7.91-38.57c-.05,2.32,1.82,4.27,4.15,4.32,2.29,.05,4.22-1.9,4.2-4.25-.02-2.29-1.86-4.15-4.12-4.15-2.26,0-4.18,1.85-4.23,4.08Z"/><path d="M81,99.47c2.57,2.99,5.76,4.9,9.31,6.24,4.01,1.52,8.19,2.09,12.46,1.87,.57-.03,1.42-.41,1.59-.84,.18-.43-.18-1.28-.57-1.71-1.5-1.63-3.09-3.18-4.69-4.72-.39-.37-.93-.81-1.41-.81-5.56-.06-11.12-.04-16.69-.04Z"/><path class="i" d="M44.06,34.65c.02,2.35-1.9,4.29-4.2,4.25-2.33-.05-4.2-1.99-4.15-4.32,.05-2.23,1.97-4.08,4.23-4.08,2.26,0,4.1,1.86,4.12,4.15Zm-5.33-.05c.02,.48,.66,.93,1.03,1.4,.47-.43,1.2-.79,1.33-1.3,.1-.39-.56-.97-1.13-1.84-.61,.81-1.25,1.29-1.23,1.74Z"/></g><g id="d"><g><path class="m" d="M82.84,74.15h-3.49c-.45-.24-.97-.21-1.46-.29-12.8-2.25-18.41-16.84-10.06-26.18,1-1.11,2.16-2.05,3.35-2.97,.14-.07,.29-.13,.43-.21,1.44-.91,3-1.56,4.65-2.04,1.18-.34,2.4-.46,3.61-.68,2.17-.09,4.31,.1,6.4,.69,1.79,.5,3.41,1.32,4.98,2.25,.09,.08,.18,.16,.28,.24,5.32,3.94,7.66,9.05,6.81,15.35-.89,6.56-6.45,12.1-13.37,13.46-.7,.14-1.41,.26-2.11,.39Zm11.77-15.28c.8-.13,1.02-.37,1.01-1.13,0-.54-.04-1.08-.11-1.62-.91-6.53-7.04-11.61-14.06-11.64-.8,0-1.06,.19-1.22,.93-.24,0-.48-.02-.71,.01-3.14,.42-5.83,1.65-8.03,3.81-2.24,2.19-3.51,4.77-3.71,7.81-.74,.11-1,.38-.98,1.09,.09,4.25,1.94,7.71,5.45,10.37,2.47,1.87,5.34,2.82,8.54,2.92,.86,.03,1.15-.11,1.41-.86,1.18-.16,2.36-.33,3.49-.71,3.12-1.06,5.54-2.92,7.2-5.6,1.03-1.66,1.7-3.44,1.72-5.4Z"/><path class="f" d="M63.22,31.56c2.04-3.23,4.25-6.36,6.43-9.51,.14,.17,.3,.34,.42,.53,2.38,3.41,4.75,6.81,7.12,10.22l4.34,6.21c-.05,.11-.11,.21-.16,.32-.47,.84-1.12,1.58-1.51,2.45-1.2,.21-2.43,.33-3.61,.68-1.65,.48-3.21,1.13-4.65,2.04-.13,.08-.28,.14-.43,.21-.08-.11-.16-.22-.24-.34-2.58-4.03-5.15-8.06-7.72-12.1v-.71Z"/><path class="e" d="M67.78,57.06c.19-3.04,1.47-5.62,3.71-7.81,2.2-2.16,4.89-3.39,8.03-3.81,.23-.03,.47-.01,.71-.01,.16,.57,.53,.83,1.18,.85,.92,.02,1.85,.11,2.75,.32,5.58,1.31,9.31,5.65,9.59,11.18,.04,.71,.16,.87,.88,1.1-.02,1.95-.69,3.74-1.72,5.4-1.67,2.68-4.08,4.54-7.2,5.6-1.13,.38-2.31,.55-3.49,.71-.23-.75-.44-.89-1.26-.92-.76-.02-1.52-.09-2.26-.25-5.84-1.24-9.73-5.59-10-11.19-.04-.79-.16-.94-.91-1.16Zm8.45,6.6c0,.49,.5,.73,1.02,.47,1.15-.58,2.3-1.16,3.43-1.78,.38-.21,.68-.22,1.06-.02,1.13,.61,2.28,1.19,3.42,1.79,.26,.13,.51,.2,.76,.03,.27-.18,.3-.42,.25-.72-.24-1.25-.45-2.5-.68-3.76-.07-.4,.03-.71,.35-1,.95-.88,1.93-1.75,2.81-2.7,.17-.18,.34-.37,.21-.63-.12-.25-.32-.39-.62-.44-1.24-.17-2.47-.35-3.71-.51-.49-.06-.82-.25-1.03-.7-.5-1.06-1.03-2.09-1.56-3.14-.15-.3-.26-.66-.74-.64-.47,.01-.56,.38-.72,.67-.53,1.04-1.07,2.08-1.57,3.14-.19,.41-.49,.6-.94,.66-1.24,.17-2.47,.36-3.71,.51-.34,.04-.58,.18-.71,.47-.12,.29,.1,.48,.29,.66,.89,.87,1.77,1.75,2.69,2.59,.39,.36,.46,.71,.37,1.19-.25,1.28-.45,2.57-.68,3.86Z"/><path class="l" d="M79.87,41.78c.39-.88,1.04-1.62,1.51-2.45,.06-.1,.11-.21,.16-.32,1.37-2.06,2.74-4.13,4.1-6.19,1.4-2.14,2.81-4.27,4.19-6.42,.94-1.47,1.97-2.88,2.83-4.39,.24,0,.27,.21,.36,.34,1.9,2.78,3.79,5.58,5.71,8.35,.55,.8,.57,1.55,.04,2.37-2.45,3.8-4.89,7.61-7.33,11.41-.05,.09-.13,.16-.19,.24-1.56-.94-3.19-1.75-4.98-2.25-2.09-.59-4.23-.78-6.4-.69Z"/><path class="h" d="M94.61,58.87c-.72-.24-.84-.4-.88-1.1-.28-5.53-4.01-9.87-9.59-11.18-.9-.21-1.82-.3-2.75-.32-.65-.01-1.02-.28-1.18-.85,.16-.74,.42-.94,1.22-.93,7.02,.03,13.15,5.1,14.06,11.64,.08,.54,.1,1.08,.11,1.62,.01,.75-.21,.99-1.01,1.13Z"/><path class="h" d="M67.78,57.06c.75,.22,.87,.37,.91,1.16,.27,5.59,4.16,9.95,10,11.19,.74,.16,1.5,.23,2.26,.25,.82,.03,1.03,.17,1.26,.92-.27,.75-.55,.89-1.41,.86-3.19-.1-6.06-1.05-8.54-2.92-3.51-2.66-5.36-6.12-5.45-10.37-.02-.72,.24-.98,.98-1.09Z"/><path class="k" d="M92.66,22.01c-.86,1.51-1.89,2.93-2.83,4.39-1.38,2.15-2.79,4.28-4.19,6.42-2.81-.06-5.63-.03-8.45-.02-2.37-3.41-4.75-6.81-7.12-10.22-.13-.18-.28-.35-.42-.53,.12-.12,.27-.07,.41-.07,7.44,0,14.88,0,22.32,0,.09,0,.18,.01,.27,.02Z"/><path class="g" d="M76.23,63.66c.22-1.29,.43-2.58,.68-3.86,.09-.47,.02-.83-.37-1.19-.92-.84-1.8-1.72-2.69-2.59-.19-.18-.41-.37-.29-.66,.12-.3,.36-.43,.71-.47,1.24-.16,2.47-.34,3.71-.51,.45-.06,.75-.26,.94-.66,.5-1.05,1.03-2.09,1.57-3.14,.15-.3,.24-.66,.72-.67,.48-.01,.58,.35,.74,.64,.53,1.04,1.07,2.08,1.56,3.14,.21,.45,.54,.64,1.03,.7,1.24,.16,2.47,.35,3.71,.51,.3,.04,.5,.19,.62,.44,.13,.27-.04,.45-.21,.63-.88,.95-1.86,1.82-2.81,2.7-.32,.3-.42,.61-.35,1,.23,1.25,.44,2.51,.68,3.76,.06,.3,.02,.54-.25,.72-.26,.17-.51,.1-.76-.03-1.14-.6-2.29-1.18-3.42-1.79-.38-.2-.68-.19-1.06,.02-1.13,.61-2.28,1.2-3.43,1.78-.52,.26-1.02,.02-1.02-.47Z"/></g></g></g></g></svg>