<svg xmlns="http://www.w3.org/2000/svg" viewBox="0 0 101.49 101.49"><defs><style>.cls-1{fill:#fff;}.cls-2{fill:#407d96;}.cls-3{fill:none;stroke:#407d96;stroke-linecap:round;stroke-miterlimit:10;stroke-width:4px;}</style></defs><g id="MapPressed"><path class="cls-1" d="M94,49a1.71,1.71,0,0,1-1.23.51,1.74,1.74,0,0,1-1.74-1.74A37.15,37.15,0,0,0,59.69,10.9a1.74,1.74,0,1,1,.55-3.44,40.84,40.84,0,0,1,34.3,40.3A1.71,1.71,0,0,1,94,49Z"/><polygon class="cls-1" points="60.82 13.71 53.73 8.69 61.62 5.06 60.82 13.71"/><path class="cls-1" d="M61.4,14.29a1,1,0,0,1-.24.16.83.83,0,0,1-.81-.07l-7.09-5A.82.82,0,0,1,53.39,8l7.89-3.63a.81.81,0,0,1,.81.08.83.83,0,0,1,.35.74l-.81,8.65A.86.86,0,0,1,61.4,14.29Zm-6-5.45,4.78,3.39.54-5.83Z"/><path class="cls-1" d="M8.51,52.76a1.74,1.74,0,0,1,3,1.23A37.14,37.14,0,0,0,42.85,90.85a1.74,1.74,0,1,1-.55,3.44A40.84,40.84,0,0,1,8,54,1.72,1.72,0,0,1,8.51,52.76Z"/><polygon class="cls-1" points="41.72 88.04 48.81 93.06 40.92 96.69 41.72 88.04"/><path class="cls-1" d="M41.14,87.47a.8.8,0,0,1,1-.09l7.09,5a.8.8,0,0,1,.34.74.82.82,0,0,1-.47.66l-7.89,3.63a.83.83,0,0,1-.81-.07.85.85,0,0,1-.35-.75L40.91,88A.81.81,0,0,1,41.14,87.47Zm6,5.44L42.4,89.53l-.54,5.83Z"/><rect class="cls-2" x="24.81" y="3.5" width="52.92" height="94.75" rx="11.2" transform="translate(-20.96 51.15) rotate(-45)"/><path class="cls-1" d="M71.47,92.66a7.68,7.68,0,0,1-10.82,0L9.49,41.5a7.68,7.68,0,0,1,0-10.82L31.07,9.09a7.7,7.7,0,0,1,10.82,0L93.05,60.26a7.68,7.68,0,0,1,0,10.82Z"/><path class="cls-2" d="M27.29,12.87l1.37,1.37a2.17,2.17,0,0,1-.28,3L17.65,28a2.15,2.15,0,0,1-3,.28L13.27,26.9Z"/><line class="cls-3" x1="46.82" y1="29.75" x2="46.82" y2="62.93"/><line class="cls-3" x1="55.72" y1="39.61" x2="55.72" y2="72.79"/></g></svg>