<svg id="Layer_1" data-name="Layer 1" xmlns="http://www.w3.org/2000/svg" viewBox="0 0 559 559"><defs><style>.cls-1{fill:#313c80;}.cls-2{fill:#843d2c;}.cls-3{fill:#1669af;stroke:#26a9e0;stroke-width:0.5px;}.cls-18,.cls-3,.cls-7{stroke-miterlimit:10;}.cls-4{fill:#e25988;}.cls-5{fill:#d0d2d3;}.cls-6{fill:#662b1e;}.cls-14,.cls-7{fill:#3e88bf;}.cls-18,.cls-7{stroke:#2e3191;}.cls-7{stroke-width:0.75px;}.cls-8{fill:#df417e;}.cls-9{fill:#231f20;}.cls-10{fill:#c0bc31;}.cls-11{fill:#9c732a;}.cls-12{fill:#dc9a30;}.cls-13{fill:#7c2d19;}.cls-15{fill:#803824;}.cls-16{fill:#13153e;}.cls-17{fill:#fff;}.cls-18{fill:none;}.cls-19{fill:#2e3191;}.cls-20{fill:#e6e7e7;}</style></defs><path class="cls-1" d="M239.48,282.1c-4.94,8.87-5.75,19.26-4.48,29.17.35,2.72.81,5.43,1.37,8.11.47,2.24.69,5,2.39,6.7a9.31,9.31,0,0,0,2.83,1.71l3.83,1.79c2.36,1.1,4.73,2.19,7.09,3.31a38.61,38.61,0,0,1,6.86,4.09c2.13,1.62,4.4,3,7.17,3a2.58,2.58,0,0,0,2.5-2.5c1.1-8.3-3.16-16-6.67-23.16-3.71-7.62-6.79-15.5-11.65-22.5-2.73-3.94-5.77-7.64-8.81-11.34l-1.11,4.18a20.57,20.57,0,0,0,9.55-8.5c2.4-3.75,4-8,6.54-11.63,4.31-6.21,12.42-9.38,14.27-17.29.73-3.13-4.09-4.46-4.83-1.33s-3.07,5.53-5.47,7.67c-2.75,2.46-5.57,4.74-7.79,7.72-2.53,3.41-4.11,7.37-6.23,11-1.74,3-4,6.18-7.36,7.52a2.55,2.55,0,0,0-1.11,4.18c5.09,6.19,9.92,12.43,13.51,19.63,1.83,3.66,3.44,7.43,5.19,11.13,1.62,3.44,3.45,6.78,4.88,10.31,1.62,4,2.66,8.07,2.09,12.39l2.5-2.5c-1.8,0-3.28-1.25-4.64-2.29a35.67,35.67,0,0,0-5.42-3.39c-4.29-2.15-8.7-4-13-6.11-.47-.22-1.05-.41-1.28-.86a14.55,14.55,0,0,1-.77-3.3c-.5-2.3-.94-4.61-1.28-6.94a56.86,56.86,0,0,1-.45-13.73,35.07,35.07,0,0,1,4.14-13.7c1.57-2.82-2.75-5.34-4.32-2.53Z"/><path class="cls-2" d="M235.52,236.7s-29.66-24.5-37.33-66.1c-14.67-42.63-49.67-49.91-66.67-27-7,57.51,8.89,105,10.45,108.15S235.52,236.7,235.52,236.7Z"/><path class="cls-3" d="M164,329.14S184.72,367.4,188,367c14,4.56,47.48,7.07,47.48,7.07Z"/><path class="cls-4" d="M244.86,388.55s.64,3.84.19,4.68a27.61,27.61,0,0,0-1.2,3.55s-2.58,2.84-2.38,5.05c.14,1.51-1.2,3.85-2.17,5.33a35.9,35.9,0,0,1,4.14,1.07,3.88,3.88,0,0,1,.8-2.05c2-2.61,3.08-2.74,3.08-2.74a5.7,5.7,0,0,0,.59-1.47c.06-.49,1-2.62,1.31-2.68s.16-5.26.16-5.26l.35-4.49Z"/><path class="cls-4" d="M254,414c-.52-1.13-1.89-1.53-3.11-1.81a14.72,14.72,0,0,1-4.44-1.53c-1.28-.55-2.65-1.33-2.78-2.86a19,19,0,0,1-4.18-.88c-4.24,4.84-11.56,1.18-17,3.2a3.8,3.8,0,0,1,2,4.57c3-.16,10.84.53,10.55,4.57a13.09,13.09,0,0,0,5.38-1.06,31.75,31.75,0,0,1,3.42-2.07c2.92-1,5.74,1,8.45,1.77a1.33,1.33,0,0,0,.81.05c.42-.15.6-.64.73-1.07A4.1,4.1,0,0,0,254,414Z"/><path class="cls-5" d="M253.53,413.3c4.26,3.22,4.71,5.83,4.71,5.83s-3.91-.95-6.23-1.2C254.17,417.56,253.53,413.3,253.53,413.3Z"/><path class="cls-5" d="M222.76,409.69c-3.74-1.15-5.47,3.42-8.1,5.09a22.61,22.61,0,0,0,9.55-.13,1.1,1.1,0,0,0,.66-.33,1,1,0,0,0,.1-.87,7.31,7.31,0,0,0-2.12-3.89"/><path class="cls-5" d="M230.81,414.82c-4.35.24-4.06,5.15-6,7.87a25.55,25.55,0,0,0,11.73-2.89c.33-.17.68-.37.73-.7s-.33-.82-.7-1.17a13.85,13.85,0,0,0-5.75-3.26"/><path class="cls-6" d="M232.43,370.1a.52.52,0,0,0-.47.77c2.17,3.94,11.79,21.21,13.56,21.21a12.06,12.06,0,0,0,4.08-.89s24.92-16.11,20.92-18.11C266.9,371.27,237.94,370.28,232.43,370.1Z"/><path class="cls-7" d="M141.91,248c-23.86,180.67,248.7,146.79,310.4,124.74,0,0-142.6-135.58-212.18-136.93C201.9,227.34,141.91,248,141.91,248Z"/><path class="cls-8" d="M299.05,402.05a1.82,1.82,0,0,0-1.78,2.32,7.86,7.86,0,0,1,.49,3.09,27.32,27.32,0,0,0-.59,4c-.44,1.61-2.38,4.17-1.7,6.83a8.64,8.64,0,0,1-.53,4.45,1.82,1.82,0,0,0,1.62,2.36l.85.06a1.82,1.82,0,0,0,1.9-1.41,6.27,6.27,0,0,1,.37-1,10.16,10.16,0,0,1,2.54-3.61,2.62,2.62,0,0,0,.82-2.13c0-.59.58-3.29.94-3.44s-.79-5.36-1-6.1l0-.18-.4-3.65a1.82,1.82,0,0,0-1.79-1.62Z"/><path class="cls-4" d="M312.78,429.78c-.86-1.21-2.56-1.38-4-1.44a17.38,17.38,0,0,1-5.54-.81,5.48,5.48,0,0,1-3.52-1.89,1.74,1.74,0,0,0-1.52-.77,21.55,21.55,0,0,1-3.94-.18c-2,3.78-6.56,4.56-10.58,5.16a42.1,42.1,0,0,0-5.31,1,1.81,1.81,0,0,0-.92,2.86,4.38,4.38,0,0,1,.89,1.64,1.85,1.85,0,0,0,2.06,1.35c3.2-.39,9-.81,11,2.12a1.86,1.86,0,0,0,2.08.86,12.18,12.18,0,0,0,4.37-2c1.26-1,2.18-2.37,3.55-3.18,3.2-1.86,6.94-.15,10.29.19a1.6,1.6,0,0,0,1-.12,1.8,1.8,0,0,0,.61-1.42A5,5,0,0,0,312.78,429.78Z"/><path class="cls-5" d="M315.59,431.18a1.89,1.89,0,0,1-1.09,3.58C311.29,434.52,312.79,429.45,315.59,431.18Z"/><path class="cls-5" d="M275.29,431.68a4.46,4.46,0,0,0-3.67,1.26,14.19,14.19,0,0,0-2.51,3.52,1.83,1.83,0,0,0,1.85,2.73,26.78,26.78,0,0,0,7.13-2,1.35,1.35,0,0,0,.7-.54,1.25,1.25,0,0,0-.07-1,8.69,8.69,0,0,0-3.36-4.09"/><path class="cls-5" d="M285.86,435.91c-3.19.78-4,3.69-4.3,6.51-.06.42-.11.84-.18,1.26a1.83,1.83,0,0,0,2.35,2,31.86,31.86,0,0,0,9.95-5.23c.36-.28.72-.59.7-1s-.56-.88-1.08-1.21a16.31,16.31,0,0,0-7.46-2.55"/><path class="cls-9" d="M170,155.05c-2.62-1-5.48-1.69-8-.11a15,15,0,0,0-3.34,3.07c-1.18,1.36-3.09,3.11-5.05,2.84-.63-.08-.9.88-.27,1,3.82.51,5.88-3.51,8.45-5.52a5.81,5.81,0,0,1,3.42-1.34,11.77,11.77,0,0,1,4.55,1c.6.24.86-.73.26-1Z"/><path class="cls-10" d="M160.38,158.37c-2.18,3.28,3,10,6.85,8.68,1.78-.55,8.76-2.51,5-8.41C169,154.46,164.52,152.84,160.38,158.37Z"/><path class="cls-9" d="M160.06,158.18c-1.5,2.35.14,5.49,1.83,7.25a6.82,6.82,0,0,0,3.46,2.08,5.54,5.54,0,0,0,2.9-.39c2-.66,4.24-1.7,5.11-3.72,1.26-2.93-1.29-6.06-3.54-7.65a6.31,6.31,0,0,0-4.76-1.2,8.6,8.6,0,0,0-5,3.63c-.3.39.35.76.64.38a8.16,8.16,0,0,1,4.14-3.19,5.2,5.2,0,0,1,3.91.59c2.15,1.22,4.83,4.06,4.06,6.76-.53,1.85-2.55,2.87-4.21,3.48a9,9,0,0,1-2.19.64,4.69,4.69,0,0,1-3.2-1.22c-1.82-1.47-4-4.71-2.51-7.06C161,158.15,160.31,157.78,160.06,158.18Z"/><path class="cls-9" d="M168.86,156A10.89,10.89,0,0,1,172,159.3a4.83,4.83,0,0,1-.23,4.74c-2,3.37-6.11,3.32-9.55,3.13-.64,0-.64,1,0,1a17.34,17.34,0,0,0,6.34-.44,7.26,7.26,0,0,0,4.17-3.34,5.83,5.83,0,0,0,.36-5.1,10.57,10.57,0,0,0-3.53-4c-.5-.39-1.21.32-.7.71Z"/><path class="cls-9" d="M173.43,163.08a6,6,0,0,1,4.61-3.72.52.52,0,0,0,.5-.5c0-.25-.23-.54-.5-.5a7,7,0,0,0-5.57,4.46.49.49,0,0,0,.35.61.5.5,0,0,0,.61-.35Z"/><path class="cls-9" d="M177.94,158.46c-3.44-1.65-6.85-4-10.75-4.4a6.34,6.34,0,0,0-4.23,1A23.81,23.81,0,0,0,159.8,158a7.94,7.94,0,0,1-4.18,2.48c-.64.09-.37,1.06.26,1,2.86-.44,4.59-2.88,6.61-4.67a5.79,5.79,0,0,1,3.69-1.7,12.33,12.33,0,0,1,5.41,1.35c2,.9,3.87,2,5.84,2.94.58.28,1.09-.58.51-.86Z"/><path class="cls-9" d="M170.22,156.11a10.65,10.65,0,0,1,2.91,4.41.51.51,0,0,0,.84.22,5.84,5.84,0,0,1,2.18-1.4c.49-.17.46-1.05-.13-1a2.9,2.9,0,0,1-3.21-1.53l-.73.57,2.62,1.33.39-.91c-2.88-1.14-5.71-3.75-9-3.36-2.69.31-4.31,3-7,3.34-.63.07-.64,1.07,0,1a7.53,7.53,0,0,0,3.46-1.48,9.46,9.46,0,0,1,3.33-1.83,7.28,7.28,0,0,1,4.53,1.08c1.46.75,2.85,1.6,4.38,2.21.53.21.89-.66.39-.91l-2.63-1.34c-.34-.17-.91.13-.73.57a3.82,3.82,0,0,0,4.17,2.26l-.14-1a6.77,6.77,0,0,0-2.62,1.66l.84.22a11.71,11.71,0,0,0-3.17-4.86c-.48-.43-1.19.28-.71.71Z"/><path class="cls-9" d="M173.74,159.77a.5.5,0,0,0,0-1,.5.5,0,0,0,0,1Z"/><path class="cls-9" d="M172.9,162a.5.5,0,0,0,0-1,.5.5,0,0,0,0,1Z"/><path class="cls-9" d="M131.38,157.94c.7-.63,1.67-1.49,2.7-1.41a2.91,2.91,0,0,1,1.85,1.28c.75.91,1.3,2,2.11,2.84s1.76,1.54,2.87,1.14c.6-.22.34-1.19-.27-1-1.19.43-2.28-1.27-2.82-2.08a11.26,11.26,0,0,0-2-2.46,2.84,2.84,0,0,0-2.27-.72,5.92,5.92,0,0,0-2.9,1.67c-.48.43.23,1.13.71.71Z"/><path class="cls-10" d="M136.65,159.28c1.16,2-.55,8.44-3.27,7.88-1-.3-4.72-1.3-3.36-6.51C131.37,156.47,133.89,154.36,136.65,159.28Z"/><path class="cls-9" d="M136.32,159.47a3.81,3.81,0,0,1,.31,2.11,9.52,9.52,0,0,1-.59,2.69c-.41,1.1-1.33,2.91-2.78,2.46a4.41,4.41,0,0,1-2.73-2c-1-2-.17-4.6.93-6.36.45-.72,1.17-1.62,2.13-1.52,1.29.13,2.17,1.67,2.73,2.66a.38.38,0,0,0,.65-.38,5.92,5.92,0,0,0-2.8-2.91,2.46,2.46,0,0,0-2.54.72,8.55,8.55,0,0,0-1.86,3.31,7,7,0,0,0-.26,3.89,4.76,4.76,0,0,0,3.19,3.23,2.33,2.33,0,0,0,1.85,0,4,4,0,0,0,1.77-1.92,9.84,9.84,0,0,0,1-3.44,4.91,4.91,0,0,0-.37-2.93C136.73,158.67,136.09,159.05,136.32,159.47Z"/><path class="cls-9" d="M131,157.37a11.27,11.27,0,0,0-1.51,3.57,7.28,7.28,0,0,0,.42,4.1,5.13,5.13,0,0,0,2.11,2.55,5.9,5.9,0,0,0,4.2.17c.63-.14.36-1.1-.27-1a4.72,4.72,0,0,1-3.6-.17,4.36,4.36,0,0,1-1.63-2.27c-.82-2.31,0-4.47,1.14-6.49a.5.5,0,0,0-.86-.5Z"/><path class="cls-9" d="M130.54,164.23c-.63-1.52-1.81-3.29-3.64-3.36a.51.51,0,0,0-.5.5.51.51,0,0,0,.5.5H127l.21,0,.22.07h0l.1.05a3.18,3.18,0,0,1,.4.23l.1.08c-.09-.07,0,0,0,0l.2.18a3.88,3.88,0,0,1,.39.42s.09.12,0,0l.08.12.17.24a7.94,7.94,0,0,1,.58,1.11.51.51,0,0,0,.62.35.5.5,0,0,0,.35-.61Z"/><path class="cls-9" d="M127.45,161.73c1.15-1.25,2.16-2.64,3.43-3.78.92-.82,2.25-1.72,3.43-.88,1.81,1.31,2.57,4.36,5.1,4.58.64,0,.63-1,0-1-1.17-.1-2-1.46-2.64-2.3a6.4,6.4,0,0,0-2.66-2.5c-1.36-.48-2.74.37-3.74,1.22a48.53,48.53,0,0,0-3.63,4c-.44.47.27,1.18.71.71Z"/><path class="cls-9" d="M130.19,157.62a12.86,12.86,0,0,0-1.25,4.68l.85-.36a4,4,0,0,0-1.68-1.23l-.13,1c1.43,0,2.14-1.28,2.28-2.53.06-.43-.58-.66-.85-.36l-1.28,1.45a.5.5,0,0,0,.71.7,28.14,28.14,0,0,0,2.12-2.38c.53-.6,1.37-1.56,2.27-1.43s1.38.87,1.92,1.34a3.48,3.48,0,0,0,2.23,1.1.5.5,0,0,0,0-1c-.86,0-1.53-.82-2.13-1.35a3.33,3.33,0,0,0-2.28-1.1,4.09,4.09,0,0,0-2.54,1.53c-.78.85-1.44,1.81-2.3,2.59l.71.7,1.28-1.44-.86-.35c-.08.71-.45,1.54-1.28,1.53-.6,0-.64.79-.13,1a3.16,3.16,0,0,1,1.24,1c.3.36.81,0,.85-.35a11.68,11.68,0,0,1,1.11-4.18c.29-.57-.57-1.08-.86-.5Z"/><path class="cls-9" d="M129.25,161.85a.5.5,0,0,0,0-1,.5.5,0,0,0,0,1Z"/><path class="cls-9" d="M128.65,161.26a.5.5,0,0,0,0-1,.5.5,0,0,0,0,1Z"/><path class="cls-9" d="M128.3,161.35a.5.5,0,0,0,0-1,.5.5,0,0,0,0,1Z"/><path class="cls-9" d="M129.94,163.67a.5.5,0,0,0,0-1,.5.5,0,0,0,0,1Z"/><path class="cls-11" d="M136.28,187.83c8.81,1,21-.44,20.15-6.53S136.28,187.83,136.28,187.83Z"/><path class="cls-12" d="M157.51,177.29s-6.49-14.24-20.77-6.75c-8.32,8.7-6.61,16.77-6.61,16.77,1.89,3.07,12.07-1.57,12.07-1.57S158.19,186.32,157.51,177.29Z"/><path class="cls-13" d="M398.52,367.08c30.48,4.05,54,5,54,5s8,0-44.08-41.05"/><path class="cls-14" d="M399.48,365.17c-60.71-7.88-153.31-23.46-164-46.09-16-34,31-79,31-79C312.44,253.79,369.7,297.77,408.44,331"/><path class="cls-15" d="M285.52,389.08c-.4,0-.76-.56-.56-.21,2.17,3.94,11.79,21.21,13.56,21.21a12.06,12.06,0,0,0,4.08-.89s25.39-18.11,20.92-18.11C314.52,391.08,291,389.25,285.52,389.08Z"/><path class="cls-7" d="M243.51,212.3c-13-5.57-76.93,34.95-80,51.78,35.94-17.68,90-33.63,102-21.76,29,13.76,13-18.37,0-22.13C255.52,207.81,243.51,212.3,243.51,212.3Z"/><path class="cls-7" d="M135.9,230.23c-3.38,13.85,2.68,32.85,27.62,33.85,4.94-9,4-8,4-8-12-5-28-19-29-23C135.52,230.08,135.9,230.23,135.9,230.23Z"/><path class="cls-16" d="M193.56,245.1c-4.19.57-10,8-10,9s16-4.84,16-4.84S196.62,244.69,193.56,245.1Z"/><path class="cls-16" d="M146.7,252.2c4.64,1.1,5.82,9.88,5.82,9.88l-9.79-5.49C141.43,253.3,146.7,252.2,146.7,252.2Z"/><path class="cls-17" d="M190.37,251.78c-2.45.61-3.33,3.58-3.79,6.07a88.49,88.49,0,0,0-1.77,13.73c-.17,7,1.33,13.93,1.95,20.91.56,6.26.33,12.85-2.27,18.52a.85.85,0,0,0,1.27,1.05,8.11,8.11,0,0,0,2.23-3c2-4.37,2.22-9.39,1.78-14.19s-1.56-9.55-1.7-14.37c-.55-18.46,1.69-19.05,1.45-28.46"/><path class="cls-17" d="M146.18,258.63c6.62,15.34,7.16,32.5,9.58,49,.53,3.65,1.49,7.78,4.74,9.54l-2.31-16.71c-1.6-11.51-3.23-23.2-7.92-33.83a62.6,62.6,0,0,0-5.1-9.34"/><path class="cls-18" d="M399,365.58s2.41-3.7,9.5-34.5"/><path class="cls-19" d="M264.72,220.07c-3.86-.63-6.55,2.47-9.4,4.49-3.12,2.22-6.93,2.58-10.64,2.87-.48,0-.49.79,0,.75,3.45-.27,7.08-.56,10.12-2.38s5.78-5.65,9.72-5c.47.07.67-.65.2-.73Z"/><path class="cls-19" d="M261,218.59c-3.37.62-5.84,3.67-9.3,3.93-.48,0-.48.79,0,.75,3.57-.27,6.05-3.32,9.5-4,.48-.08.27-.81-.2-.72Z"/><path class="cls-18" d="M269.52,244.32c-22,19.76-47.44,64.78-26.22,81.77,37.22,31,155,40.4,155,40.4"/><path class="cls-20" d="M151.32,245c4.2,3.08,13.34,10.21,16.27,10.14,3.93-5.06,21.2-18.65,21.2-18.65Z"/><path class="cls-19" d="M215.69,373.68a127.32,127.32,0,0,0,52-31.33c.57-.56-.31-1.45-.89-.88A126.92,126.92,0,0,1,228,367.81a122.76,122.76,0,0,1-12.6,4.66c-.77.24-.44,1.45.33,1.21Z"/><path class="cls-19" d="M265.19,345.24a125.63,125.63,0,0,0,54,20c5.95.78,11.94,1.24,17.93,1.55.81,0,.81-1.21,0-1.25a180,180,0,0,1-30.86-3.84,121.26,121.26,0,0,1-26.66-9.53,123.23,123.23,0,0,1-13.76-8c-.67-.45-1.3.63-.63,1.08Z"/><path class="cls-19" d="M268,341.8l.23-.44a.51.51,0,0,0,.07-.24.43.43,0,0,0,0-.25.53.53,0,0,0-.11-.21.46.46,0,0,0-.18-.16l-.15-.06a.62.62,0,0,0-.33,0l-.15.06a.61.61,0,0,0-.22.23l-.23.44a.48.48,0,0,0-.07.23.43.43,0,0,0,0,.25.53.53,0,0,0,.11.21.46.46,0,0,0,.18.16l.15.07a.92.92,0,0,0,.33,0l.15-.07a.58.58,0,0,0,.22-.22Z"/><path class="cls-15" d="M342.8,360.08c-3.28,6.59-19.28,31-19.28,31s110-2.93,129-18.55C431.52,371.55,342.8,360.08,342.8,360.08Z"/><path class="cls-19" d="M343.08,359.63c-4.42,3.7-7.28,8.74-9.95,13.76a110.41,110.41,0,0,1-10.37,16.47c-.49.62.39,1.52.88.88a105.76,105.76,0,0,0,10.19-16c2.74-5.17,5.58-10.4,10.13-14.21.62-.52-.27-1.4-.88-.89Z"/><path class="cls-19" d="M142.71,264.39a52.77,52.77,0,0,0-1,8.12,43.85,43.85,0,0,1-.93,8.47.25.25,0,0,0,.48.13,40.24,40.24,0,0,0,.92-8,56.72,56.72,0,0,1,1-8.62c.07-.31-.41-.45-.48-.13Z"/><path class="cls-19" d="M205.28,365.8c1.58,2.46,4.77,3.41,6.12,6.05.15.28.58,0,.43-.26-1.35-2.66-4.54-3.58-6.12-6-.17-.27-.61,0-.43.25Z"/><path class="cls-19" d="M258.12,340l9,1.27c.31,0,.45-.43.13-.48l-9-1.28c-.31,0-.45.44-.13.49Z"/><path class="cls-19" d="M267.55,340.59a73.56,73.56,0,0,1-9.77-2.79c-.3-.11-.43.38-.13.48a75.13,75.13,0,0,0,9.77,2.8c.31.06.45-.42.13-.49Z"/><path class="cls-19" d="M268.78,244.05a39.87,39.87,0,0,0-8.93,2.65c-.29.12,0,.56.26.43a39.73,39.73,0,0,1,8.8-2.6c.32-.05.19-.53-.13-.48Z"/><path class="cls-19" d="M266.12,242.82,263,243.94c-.31.11-.18.59.13.48l3.17-1.12c.3-.11.17-.59-.13-.48Z"/><path class="cls-19" d="M210.62,368.31q1.41,2.22,2.9,4.38c.19.27.62,0,.44-.25q-1.5-2.16-2.91-4.38c-.17-.27-.6,0-.43.25Z"/><path class="cls-19" d="M243.79,267.51a19.85,19.85,0,0,0-3.85,7.22.25.25,0,0,0,.48.13,19.32,19.32,0,0,1,3.72-7c.21-.24-.14-.6-.35-.35Z"/><path class="cls-19" d="M244.42,270.16a8.52,8.52,0,0,0-2.84,4c-.1.3.38.43.48.13a8.14,8.14,0,0,1,2.72-3.79.26.26,0,0,0,0-.36.27.27,0,0,0-.36,0Z"/><path class="cls-19" d="M179.23,243.12a23.78,23.78,0,0,0-3.71,4.18c-.19.26.24.51.43.25a23.88,23.88,0,0,1,3.63-4.08c.24-.21-.11-.57-.35-.35Z"/><path class="cls-19" d="M152.54,322.21c3.68,4.07,7.07,8.36,10.58,12.56,3,3.56,6.52,6.91,11.2,7.88.32.07.45-.42.14-.48-4.88-1-8.43-4.63-11.47-8.34-3.32-4-6.59-8.09-10.1-12-.22-.24-.57.11-.35.35Z"/></svg>