<svg id="Layer_1" data-name="Layer 1" xmlns="http://www.w3.org/2000/svg" viewBox="0 0 559 559"><defs><style>.cls-1,.cls-6{fill:#662b1e;}.cls-2{fill:#e25988;}.cls-3{fill:silver;}.cls-4{fill:#803824;}.cls-5,.cls-9{fill:#3e88bf;stroke:#2e3191;}.cls-18,.cls-5,.cls-6,.cls-9{stroke-miterlimit:10;}.cls-18,.cls-6{stroke:#3b2314;}.cls-7{fill:#313c80;}.cls-18,.cls-8{fill:#843d2c;}.cls-9{stroke-width:0.75px;}.cls-10{fill:#231f20;}.cls-11{fill:#c0bc31;}.cls-12{fill:#9c732a;}.cls-13{fill:#dc9a30;}.cls-14{fill:#13153e;}.cls-15{fill:#fff;}.cls-16{fill:#2e3191;}.cls-17{fill:#e6e7e7;}</style></defs><path class="cls-1" d="M155.18,360.59c-.32-.22-.71-.09-.71.24.06,3.68.41,19.88,1.83,20.82a14,14,0,0,0,3.64,1.61s26.84,3,24.49-.45C182.3,379.72,159.52,363.64,155.18,360.59Z"/><path class="cls-2" d="M155.33,378.54s-2.63,4.21-3.8,4.62a34.35,34.35,0,0,0-4.05,2.22s-4.51.44-5.84,2.39-6.73,2.78-6.73,2.78-6.52-14-16.54-4.48c-1.24,2.86.79,6.61.79,6.61s3.63-4.91,4.21-4.43c1.59-.84,5.35-.44,4.83,4.39S134,403.33,134,403.33a7.5,7.5,0,0,0,3.27.06c1.25-.43.36,1.33.36,1.33s-.88,1.15-.74,1.82c2.44-.69,4.78,1.51,3.47,2.86,0,1.34,1.16,1.48,2,.94s2.33-4.17,1.6-4.86c-.18-.8-.47-2.74-.47-2.74s-4.33-5.46-4.83-5.41-1-3.65,2.54-4.1,4.7.36,4.7.36a6.62,6.62,0,0,0,1.66-.67c.42-.35,3-1.31,3.39-1.09s4.59-4.4,4.59-4.4l4.53-3.93Z"/><path class="cls-2" d="M128.32,393a10.06,10.06,0,0,1-3.87-2.51c-1.56-1.75-8.92-5.14-10.77,2.11,2.32-.84,4.41-.81,4.35,1.78,7.51-4.53,7.93,6.91,15.63,8.29C130.23,398.37,127.78,395.42,128.32,393Z"/><path class="cls-3" d="M114.44,391.72s-1.35,4.4.7,7.2A7.19,7.19,0,0,0,118,394S117.79,390.48,114.44,391.72Z"/><path class="cls-3" d="M118.48,386.39s-1.35,4.39.7,7.2a7.19,7.19,0,0,0,2.83-4.95S121.84,385.15,118.48,386.39Z"/><path class="cls-3" d="M137,406.15a4.81,4.81,0,0,1-4,3.58c4.67,1.73,7.56.13,7.56.13S142.22,406.81,137,406.15Z"/><path class="cls-4" d="M213.26,398c-.35-.18-.71,0-.66.34.6,3.63,3.34,19.6,4.88,20.32a14,14,0,0,0,3.84,1.05s27-1,24.15-4.06C242.91,412.86,218,400.32,213.26,398Z"/><path class="cls-2" d="M216.07,415.67s-2,4.55-3.09,5.14a34.32,34.32,0,0,0-3.66,2.79s-4.41,1.1-5.43,3.23-6.24,3.74-6.24,3.74-8.51-12.84-17-2c-.8,3,1.77,6.42,1.77,6.42s2.86-5.39,3.5-5c1.45-1.06,5.23-1.23,5.43,3.63s7.34,9.71,7.34,9.71a7.45,7.45,0,0,0,3.24-.42c1.18-.61.55,1.26.55,1.26s-.69,1.27-.45,1.91c2.31-1,4.95.79,3.85,2.31.22,1.32,1.36,1.3,2.08.65s1.69-4.48.87-5.05c-.29-.76-.87-2.64-.87-2.64s-5.08-4.76-5.57-4.64-1.54-3.46,1.9-4.43S209,432,209,432a6.4,6.4,0,0,0,1.54-.9c.37-.41,2.79-1.74,3.19-1.58s3.89-5,3.89-5l3.9-4.56Z"/><path class="cls-2" d="M191.49,434a10,10,0,0,1-4.2-1.91c-1.8-1.5-9.58-3.77-10.33,3.67,2.16-1.16,4.23-1.45,4.55,1.12,6.77-5.59,8.87,5.66,16.69,5.89C194.17,439,191.31,436.44,191.49,434Z"/><path class="cls-3" d="M177.57,434.76s-.69,4.54,1.76,7a7.26,7.26,0,0,0,2.07-5.32S180.7,433,177.57,434.76Z"/><path class="cls-3" d="M180.78,428.89s-.69,4.54,1.76,7a7.26,7.26,0,0,0,2.07-5.32S183.91,427.16,180.78,428.89Z"/><path class="cls-3" d="M202,445.7a4.81,4.81,0,0,1-3.43,4.13c4.88,1,7.49-1,7.49-1S207.27,445.58,202,445.7Z"/><path class="cls-5" d="M383.14,197.68c-5.75,3.1-22.38,12.47-23.84,14.55-11.86,16.85-24.3,29.51-35.42,37.94-3.23,2.45-39.07,21.64-55.71,23.25a9.71,9.71,0,0,0-2.86.73c-24.87,10.48-30.55,14.7-30.55,14.7,63.55,40.16,88.49,55.87,88.49,55.87,9.08-4,17.82-2.67-2.37-20.54,27,18.88,28,19,42,11.17-8.26-9.58-21.56-22-21.56-22,33.54,14.88,36.85,19.34,47,10.92-4.28-6.24-23.11-18.31-23.11-18.31,42.28,16.18,38,11.57,47.21,3C404.4,303.8,383,293.65,383,293.65c53.54,13.87,56.74,12.35,71.41-6.33-13.54-4.41-37.6-7.54-37.6-7.54a151.76,151.76,0,0,0,21.82-.55C409.41,262.46,395.85,228.53,383.14,197.68Z"/><path class="cls-4" d="M553.89,157.82l-4.54-.4c-108.16,7.33-148,31.26-164.52,39.37l-1.69.89c12.71,30.85,26.27,64.78,55.46,81.55,18.78-1.77,44.28-7.65,53.58-26-16.69.46-51.38-1.63-51.38-1.63,77-17.41,86.7-35.83,85.93-50.84-28.92,7.64-92.88,24-92.88,24C531.6,183.43,542.05,191.28,553.89,157.82Z"/><path class="cls-4" d="M84.69,183.57C71.61,165.1,35.08,115.7,11,104.2a2.92,2.92,0,0,0-4.12,3c1.13,10.46,6.49,36,31.81,51.61,0,0-22.42-12.41-26.38-13-.91,13,5.54,24.07,38,44,0,0-15.79-9.41-32.46-12.89,3.91,13.3,1.11,14.24,35.89,32.3C66.84,208.37,78.65,196.44,84.69,183.57Z"/><path class="cls-5" d="M149.73,296.5s-12.66-44.33-31.06-70.29c-1.54-3.26-12.68-10-29.1-35.64,0,0-1.79-2.64-4.88-7-6,12.87-17.85,24.8-31,25.66l3.54,1.83s-30.23-7.5-32.64-4.82c1.76,15.42,22.94,22.6,44.7,25.81,0,0-27.84-3.1-33.37.12,3.78,8.65,9,14.47,44.89,17.76,0,0-22.35.74-26,5.24,4.44,17.85,20.45,12.12,34.3,14.17,0,0-11.18.37-18.83,4.29,4,13.74,7,7.11,35,9.22,0,0-20.81,4-24.37,7.52,7.45,11.21,22.87,9.45,36.31,7.39,0,0-19.12,6.27-16.73,10.67l24.87,2.66s-11.61,3.34-13,6.16c1.51,10.33,13.27,6,23.2,4.89,0,0,19.63-.58,14.25,1.66-2.42,2.67-.41,7.35,5.61,9.92S149.73,296.5,149.73,296.5Z"/><line class="cls-1" x1="146.47" y1="147.73" x2="153.18" y2="153.65"/><line class="cls-6" x1="172.77" y1="157.8" x2="188.1" y2="154.61"/><path class="cls-7" d="M222,298.43c-6.84,7.44-10,17.16-11.13,27-.31,2.6-.48,5.21-.56,7.82s-.63,5.72.82,7.89a10.68,10.68,0,0,0,2.45,2.34l3.5,2.77c2.12,1.68,4.26,3.34,6.35,5.06a39.15,39.15,0,0,1,5.38,5.39c1.59,1.92,3.45,3.72,6,4.25a2.58,2.58,0,0,0,3.07-1.75c3-7.83.68-16.26-1.07-24.08-1.85-8.24-3-16.59-6.09-24.5-1.75-4.5-3.85-8.85-6-13.19l-1.49,3.67c9.27-1.39,13.59-10.48,20.06-16.05,5.59-4.81,14-6.06,17.53-13.16,1.43-2.87-2.88-5.41-4.32-2.53s-4.13,4.61-6.91,6.13c-3.28,1.78-6.62,3.35-9.51,5.76-5.92,4.92-9.86,13.78-18.18,15-1.72.26-2.12,2.39-1.5,3.67,3.54,7.25,6.81,14.46,8.64,22.36.9,3.92,1.6,7.9,2.42,11.85.79,3.79,1.79,7.54,2.4,11.36a23.65,23.65,0,0,1-.83,12.35l3.08-1.74c-1.68-.35-2.73-1.7-3.78-3a35.21,35.21,0,0,0-4.21-4.42c-3.68-3.18-7.6-6.09-11.41-9.12-.53-.42-1.35-.86-1.49-1.55a17.74,17.74,0,0,1,0-3.64c.06-2.45.19-4.91.42-7.36A55.76,55.76,0,0,1,218.46,314,34.85,34.85,0,0,1,225.52,302c2.18-2.36-1.35-5.91-3.53-3.53Z"/><path class="cls-8" d="M228.63,253.38s-23.18-30.71-21-72.95c-4.38-44.87-36.74-60.07-58.58-41.76C128.91,193,133.35,242.9,134.14,246.3S228.63,253.38,228.63,253.38Z"/><path class="cls-9" d="M314.79,395a5.22,5.22,0,0,1,1,.38C332.29,388,350.65,383.92,369,381c-37.38-49.69-94.14-116.63-135.73-127.39C198.09,236.49,135,242.66,135,242.66c-41.14,107.55,52.7,159.22,143.81,180.88a90.37,90.37,0,0,1,16.53-16.1l-.31-.06A29.79,29.79,0,0,1,314.79,395Z"/><path class="cls-4" d="M315.82,395.42a5.22,5.22,0,0,0-1-.38A29.79,29.79,0,0,0,295,407.38l.31.06A107.44,107.44,0,0,1,315.82,395.42Z"/><path class="cls-4" d="M408,436S392.23,411.79,369,381c-18.39,2.95-36.75,7-53.22,14.45,2.27,1.14.11,3.13-.12,4-6.27,4.45-13.72,9.57-20.41,8a90.37,90.37,0,0,0-16.53,16.1C331.84,436.16,384,438.6,408,436Z"/><path class="cls-4" d="M315.7,399.42c.23-.87,2.39-2.86.12-4a107.44,107.44,0,0,0-20.53,12C302,409,309.43,403.87,315.7,399.42Z"/><path class="cls-10" d="M183.78,158.76c-2.48-1.72-5.23-3-8.23-1.81a31.27,31.27,0,0,0-4.27,2.55c-1.44.85-3.26,1.7-4.93,1.05-.6-.23-.86.74-.26,1,3.29,1.27,6.25-1.82,8.89-3.21a6.23,6.23,0,0,1,3.86-.81,11.09,11.09,0,0,1,4.44,2.13c.53.36,1-.5.5-.87Z"/><path class="cls-11" d="M173.69,159.77c-2.88,2.68.58,10.45,4.65,10,1.87-.12,9.1-.41,6.78-7C183,158,179,155.34,173.69,159.77Z"/><path class="cls-10" d="M173.43,159.5c-2,1.95-1.13,5.42.12,7.53a6.77,6.77,0,0,0,2.92,2.81,5.56,5.56,0,0,0,2.86.26c2-.18,4.34-.63,5.69-2.26,2-2.45.42-6-1.3-8.15a6.5,6.5,0,0,0-4.45-2.55c-2.19-.17-4.21,1-5.84,2.36-.38.31.16.84.53.53a8.06,8.06,0,0,1,4.91-2.15,5.31,5.31,0,0,1,3.74,1.7c1.72,1.73,3.59,5.1,2.06,7.47-1,1.55-3.11,2-4.82,2.24a8.88,8.88,0,0,1-2.24.12,4.68,4.68,0,0,1-2.8-1.87c-1.46-1.83-2.87-5.56-.85-7.51C174.3,159.7,173.77,159.17,173.43,159.5Z"/><path class="cls-10" d="M182.56,159.51a9.67,9.67,0,0,1,2.31,4.29,4.86,4.86,0,0,1-1.45,4.17c-2.73,2.75-6.67,1.77-10,.78a.5.5,0,0,0-.27,1,16.62,16.62,0,0,0,6.61,1,7.24,7.24,0,0,0,4.56-2.31,5.81,5.81,0,0,0,1.5-4.7,10.6,10.6,0,0,0-2.59-4.93c-.4-.5-1.11.21-.71.71Z"/><path class="cls-10" d="M185.29,167.39a6,6,0,0,1,5.47-2.56.5.5,0,0,0,.5-.5.51.51,0,0,0-.5-.5,7,7,0,0,0-6.33,3,.51.51,0,0,0,.18.69.52.52,0,0,0,.68-.18Z"/><path class="cls-10" d="M190.76,163.93c-2.85-2.31-5.48-5.22-9-6.6a6.51,6.51,0,0,0-4.41-.3,18,18,0,0,0-3.93,2.06,8.25,8.25,0,0,1-4.86,1.58c-.64,0-.64,1,0,1,3,.24,5.31-1.9,7.84-3.17a5.55,5.55,0,0,1,4.24-.5,13.67,13.67,0,0,1,4.6,2.61c1.64,1.28,3.15,2.72,4.77,4,.5.4,1.21-.3.71-.71Z"/><path class="cls-10" d="M183.78,159.84a10.78,10.78,0,0,1,1.82,5,.5.5,0,0,0,.75.43,5.76,5.76,0,0,1,2.44-.86.5.5,0,0,0,0-1,2.87,2.87,0,0,1-2.67-2.33l-.83.48,2.24,1.91.61-.79c-2.45-1.71-4.44-4.6-7.5-5.28-2.91-.64-5.28,1.89-8.16,1.54-.63-.07-.63.93,0,1a8,8,0,0,0,3.93-.78,6.89,6.89,0,0,1,4-.79,8.83,8.83,0,0,1,3.73,2.21,45.29,45.29,0,0,0,3.52,3c.46.32,1-.42.61-.79l-2.25-1.9a.5.5,0,0,0-.83.48,3.85,3.85,0,0,0,3.63,3.07v-1a6.91,6.91,0,0,0-2.95,1l.76.43a11.91,11.91,0,0,0-1.95-5.47c-.37-.52-1.24,0-.87.51Z"/><path class="cls-10" d="M186.48,164.24a.5.5,0,0,0,0-1,.5.5,0,0,0,0,1Z"/><path class="cls-10" d="M185.14,166.21a.5.5,0,0,0,0-1,.5.5,0,0,0,0,1Z"/><path class="cls-10" d="M145.57,152.63a4.38,4.38,0,0,1,2.85-.79,2.52,2.52,0,0,1,1.47,1.43c.53,1,.82,2.1,1.32,3.12s1.4,2.34,2.73,2.19c.63-.08.64-1.08,0-1-1.31.15-2-1.85-2.32-2.79A10.89,10.89,0,0,0,150.3,152a2.85,2.85,0,0,0-2-1.23,5.87,5.87,0,0,0-3.19.95c-.57.31-.07,1.17.5.87Z"/><path class="cls-11" d="M150.4,155.15c.67,2.19-2.5,8.08-5,6.91-.87-.51-4.29-2.36-1.76-7.11C145.91,151.19,148.85,149.72,150.4,155.15Z"/><path class="cls-10" d="M150,155.25a3.88,3.88,0,0,1-.2,2.18,9.6,9.6,0,0,1-1.29,2.58,4.69,4.69,0,0,1-1.81,1.67,1.47,1.47,0,0,1-1.5-.15,4.09,4.09,0,0,1-2.14-3.22,6.2,6.2,0,0,1,1.07-3.51,8.37,8.37,0,0,1,2-2.28,1.93,1.93,0,0,1,2.11-.36c1,.6,1.47,2,1.77,3.09a.38.38,0,0,0,.73-.2c-.53-1.81-1.78-4.6-4.16-3.65a6.12,6.12,0,0,0-2.4,2.06,8.52,8.52,0,0,0-1.79,3.79,4.54,4.54,0,0,0,.49,3,5.11,5.11,0,0,0,1.59,1.68,2.66,2.66,0,0,0,1.74.65,3.69,3.69,0,0,0,2.3-1.36,10,10,0,0,0,1.87-3.15,5.07,5.07,0,0,0,.36-3A.38.38,0,0,0,150,155.25Z"/><path class="cls-10" d="M145.3,152a11.27,11.27,0,0,0-2.27,3.09,7.21,7.21,0,0,0-.56,4.2,4.9,4.9,0,0,0,1.73,3.13,6.26,6.26,0,0,0,3.75.91.5.5,0,0,0,0-1,5.18,5.18,0,0,1-3.19-.74,4.06,4.06,0,0,1-1.35-2.77c-.31-2.46,1-4.42,2.6-6.11.45-.47-.26-1.18-.71-.71Z"/><path class="cls-10" d="M143.29,158.43c-.25-1.58-1-3.52-2.73-4a.5.5,0,0,0-.61.35.5.5,0,0,0,.35.62l.22.07h0l.11.06.18.11.1.07s0,0,0,0a3.85,3.85,0,0,1,.35.35l.07.09s.07.08,0,0l.16.23c.09.16.18.32.26.48a3,3,0,0,1,.2.48,7.47,7.47,0,0,1,.32,1.32.5.5,0,0,0,1-.27Z"/><path class="cls-10" d="M140.87,155.4c1.43-1,2.76-2.09,4.28-2.91,1.1-.59,2.57-1.11,3.51,0,1.41,1.68,1.48,4.82,3.85,5.6.62.2.88-.76.27-1-1.1-.36-1.6-1.81-2-2.77a6.88,6.88,0,0,0-2-3.08c-1.19-.82-2.75-.35-3.93.24a42.16,42.16,0,0,0-4.5,3c-.54.35,0,1.22.5.86Z"/><path class="cls-10" d="M144.5,152a13,13,0,0,0-2.3,4.25l.92-.12a4.08,4.08,0,0,0-1.35-1.59l-.38.92c1.38.35,2.38-.72,2.82-1.91a.51.51,0,0,0-.74-.57l-1.58,1.11a.5.5,0,0,0,.51.86c1-.56,1.9-1.36,2.88-2,.67-.45,1.72-1.1,2.51-.58a6.46,6.46,0,0,1,1.41,1.74,3.31,3.31,0,0,0,1.82,1.47c.62.16.89-.81.26-1s-1.22-1-1.64-1.62a4,4,0,0,0-1.78-1.7,3.47,3.47,0,0,0-2.9.66c-1.05.67-2,1.53-3.07,2.13l.51.86,1.58-1.11-.74-.56c-.24.67-.78,1.42-1.59,1.21a.5.5,0,0,0-.38.92,3,3,0,0,1,1,1.22.51.51,0,0,0,.92-.12,11.79,11.79,0,0,1,2-3.81c.41-.49-.29-1.2-.71-.7Z"/><path class="cls-10" d="M142.72,156a.5.5,0,0,0,0-1,.5.5,0,0,0,0,1Z"/><path class="cls-10" d="M142.27,155.24a.5.5,0,0,0,0-1,.5.5,0,0,0,0,1Z"/><path class="cls-10" d="M141.91,155.24a.5.5,0,0,0,0-1,.5.5,0,0,0,0,1Z"/><path class="cls-10" d="M143,157.87a.5.5,0,0,0,0-1,.5.5,0,0,0,0,1Z"/><path class="cls-12" d="M143.67,185.08c8.62,2,20.9,2,20.77-4.12S143.67,185.08,143.67,185.08Z"/><path class="cls-13" d="M166.51,177.5s-3-15.36-18.63-11.38c-10.12,6.54-10.32,14.78-10.32,14.78,1.13,3.43,12.1,1.28,12.1,1.28S165.08,186.44,166.51,177.5Z"/><path class="cls-9" d="M242.06,231.51c-11.35-8.44-82.94,16.15-89.82,31.81,39.06-8.87,95.34-11.84,104.26,2.48,25,20.11,16.91-14.84,5.13-21.52C254.78,229.92,242.06,231.51,242.06,231.51Z"/><path class="cls-9" d="M133.22,224c-6.5,12.69-5,32.58,19,39.33,6.89-7.61,5.75-6.85,5.75-6.85-10.52-7.65-22.84-25-22.88-29.1C132.89,223.76,133.22,224,133.22,224Z"/><path class="cls-14" d="M185.86,251.83c-4.21-.42-11.55,5.44-11.86,6.45s16.69-1,16.69-1S188.93,252.13,185.86,251.83Z"/><path class="cls-14" d="M138.63,247.87c4.26,2.15,3.37,10.95,3.37,10.95l-8.25-7.61C133.24,247.72,138.63,247.87,138.63,247.87Z"/><path class="cls-15" d="M181.21,257.59c-2.53,0-4.08,2.71-5.1,5a88.82,88.82,0,0,0-4.91,12.95c-1.78,6.77-1.93,13.85-2.94,20.79-.91,6.22-2.66,12.58-6.51,17.48a.85.85,0,0,0,1,1.32,8.22,8.22,0,0,0,2.86-2.36c3-3.78,4.34-8.62,5-13.39s.7-9.65,1.68-14.37c3.75-18.09,6.06-18.14,8-27.35"/><path class="cls-15" d="M136.64,254c2.88,16.46-.58,33.27-2.06,49.92-.33,3.68-.35,7.92,2.4,10.38l1.62-16.78c1.12-11.57,2.24-23.32.15-34.75a62.78,62.78,0,0,0-2.8-10.26"/><path class="cls-16" d="M260.8,244c-3.41-1.43-6.74.79-9.78,2.09-3.66,1.55-7.52,1.06-11.33.45-.47-.07-.67.65-.2.72,3.57.57,7.34,1.14,10.84-.1,3.25-1.16,6.67-3.94,10.27-2.44.44.19.64-.54.2-.72Z"/><path class="cls-16" d="M257.62,241.67c-3.42-.17-6.53,2.21-10,1.67-.47-.07-.67.65-.2.73,3.54.56,6.66-1.82,10.16-1.65.49,0,.48-.72,0-.75Z"/><path class="cls-17" d="M144.79,241.94c3.38,4,10.62,13,13.48,13.64,5-4,24.95-13.23,24.95-13.23Z"/><path class="cls-16" d="M177.55,382a127.67,127.67,0,0,0,45.65-11.84,131.17,131.17,0,0,0,12.19-6.57c.68-.42.05-1.5-.64-1.08A126.86,126.86,0,0,1,191,379.14a122.27,122.27,0,0,1-13.47,1.64c-.8.06-.8,1.31,0,1.25Z"/><path class="cls-16" d="M232.31,365.83a125.72,125.72,0,0,0,47.93,32c5.59,2.13,11.28,3.95,17,5.64a.63.63,0,0,0,.33-1.21,179.62,179.62,0,0,1-29.13-10.88A121.22,121.22,0,0,1,244.7,375.9,122.73,122.73,0,0,1,233.19,365c-.55-.59-1.43.29-.88.88Z"/><path class="cls-16" d="M235.85,363.16l.32-.38a.39.39,0,0,0,.13-.2.48.48,0,0,0,.06-.24.53.53,0,0,0-.06-.24.44.44,0,0,0-.13-.2l-.12-.1a.72.72,0,0,0-.32-.08l-.16,0a.61.61,0,0,0-.28.16l-.32.38a.66.66,0,0,0-.18.44.4.4,0,0,0,.05.24.44.44,0,0,0,.13.2l.12.1a.61.61,0,0,0,.32.08l.17,0a.63.63,0,0,0,.27-.16Z"/><path class="cls-16" d="M304.76,397.9c-5.22,2.6-9.2,6.9-13,11.22a110,110,0,0,1-13.9,13.57c-.63.5.26,1.38.88.88a108.17,108.17,0,0,0,13.64-13.26c3.82-4.34,7.76-8.71,13-11.33.72-.36.09-1.44-.63-1.08Z"/><path class="cls-16" d="M131.93,258.79a53.77,53.77,0,0,0-2.83,7.7,42.84,42.84,0,0,1-2.86,8c-.15.29.28.54.43.25a40.66,40.66,0,0,0,2.76-7.58,54.63,54.63,0,0,1,2.93-8.12c.14-.29-.3-.54-.43-.25Z"/><path class="cls-16" d="M169.27,371.94c1,2.77,3.85,4.43,4.55,7.31a.25.25,0,0,0,.49-.13c-.71-2.91-3.58-4.55-4.56-7.31-.1-.3-.59-.17-.48.13Z"/><path class="cls-16" d="M226.71,359.15l8.44,3.32c.3.12.43-.36.13-.48l-8.44-3.33c-.3-.11-.43.37-.13.49Z"/><path class="cls-16" d="M235.7,361.88a75.59,75.59,0,0,1-8.86-5c-.27-.17-.52.26-.25.44a73.93,73.93,0,0,0,8.86,5c.28.14.54-.3.25-.43Z"/><path class="cls-16" d="M259.28,268.25a39.69,39.69,0,0,0-9.3.5c-.32.05-.18.54.13.48a39.14,39.14,0,0,1,9.17-.48c.32,0,.32-.48,0-.5Z"/><path class="cls-16" d="M257,266.43l-3.35.36a.25.25,0,0,0-.25.25.26.26,0,0,0,.25.25l3.35-.36a.27.27,0,0,0,.25-.25c0-.13-.12-.27-.25-.25Z"/><path class="cls-16" d="M173.88,375.63c.57,1.66,1.18,3.3,1.81,4.94.12.29.6.16.48-.14-.63-1.63-1.23-3.28-1.8-4.93-.11-.31-.59-.18-.49.13Z"/><path class="cls-16" d="M229.53,285.27a19.79,19.79,0,0,0-5.42,6.13.25.25,0,0,0,.43.25,19.16,19.16,0,0,1,5.24-5.95c.26-.19,0-.63-.25-.43Z"/><path class="cls-16" d="M229.53,288a8.48,8.48,0,0,0-3.7,3.24c-.17.27.26.52.43.25a8.09,8.09,0,0,1,3.52-3.06c.3-.13,0-.57-.25-.43Z"/><path class="cls-16" d="M172.38,246.57a24.19,24.19,0,0,0-4.58,3.21c-.24.21.11.56.35.35a24.07,24.07,0,0,1,4.49-3.13c.28-.15,0-.58-.26-.43Z"/><path class="cls-16" d="M128.07,317.32c2.66,4.85,5,9.85,7.45,14.8,2,4.11,4.72,8.11,9,10.13.29.14.55-.29.25-.43-4.5-2.12-7.11-6.43-9.21-10.75-2.29-4.71-4.54-9.41-7.06-14-.15-.28-.58,0-.43.25Z"/><path class="cls-16" d="M306.1,398.42a336.68,336.68,0,0,1,50.46-13.93c4.83-.94,9.69-1.76,14.56-2.49.79-.11.45-1.32-.34-1.2a336.34,336.34,0,0,0-51,11.69q-7,2.2-14,4.72c-.75.27-.43,1.48.33,1.21Z"/><line class="cls-18" x1="145.28" y1="149.86" x2="153.34" y2="149.78"/><line class="cls-18" x1="173.29" y1="150.25" x2="188.13" y2="157.75"/></svg>