<svg id="Layer_1" data-name="Layer 1" xmlns="http://www.w3.org/2000/svg" viewBox="0 0 559 559"><defs><style>.cls-1,.cls-6{fill:#662b1e;}.cls-2{fill:#e25988;}.cls-3{fill:silver;}.cls-4{fill:#803824;}.cls-5,.cls-9{fill:#3e88bf;stroke:#2e3191;}.cls-18,.cls-5,.cls-6,.cls-9{stroke-miterlimit:10;}.cls-18,.cls-6{stroke:#3b2314;}.cls-7{fill:#313c80;}.cls-18,.cls-8{fill:#843d2c;}.cls-9{stroke-width:0.75px;}.cls-10{fill:#231f20;}.cls-11{fill:#c0bc31;}.cls-12{fill:#9c732a;}.cls-13{fill:#dc9a30;}.cls-14{fill:#13153e;}.cls-15{fill:#fff;}.cls-16{fill:#2e3191;}.cls-17{fill:#e6e7e7;}</style></defs><path class="cls-1" d="M217.08,357.63c-.37-.14-.71.09-.62.41,1,3.54,5.48,19.11,7.09,19.66a14.08,14.08,0,0,0,3.93.62s26.71-4,23.56-6.7C248.19,369.18,222.05,359.46,217.08,357.63Z"/><path class="cls-2" d="M221.82,374.94s-1.47,4.74-2.5,5.44a34.75,34.75,0,0,0-3.34,3.18s-4.25,1.58-5,3.8-5.78,4.41-5.78,4.41S195.28,380,188,391.68c-.47,3.08,2.46,6.19,2.46,6.19s2.25-5.68,2.93-5.37c1.32-1.22,5.06-1.8,5.79,3s8.37,8.84,8.37,8.84a7.45,7.45,0,0,0,3.18-.78c1.1-.73.68,1.2.68,1.2s-.55,1.34-.24,2c2.18-1.3,5,.24,4.08,1.87.37,1.29,1.5,1.14,2.15.41s1.18-4.63.3-5.11c-.37-.72-1.15-2.53-1.15-2.53s-5.58-4.17-6.06-4-1.91-3.27,1.41-4.61,4.63-.86,4.63-.86a6.34,6.34,0,0,0,1.43-1.07c.32-.44,2.58-2,3-1.92s3.31-5.43,3.31-5.43l3.38-5Z"/><path class="cls-2" d="M199.41,395.84A10.16,10.16,0,0,1,195,394.4c-2-1.29-9.93-2.68-9.86,4.79,2-1.39,4.05-1.9,4.66.62,6.1-6.31,9.43,4.64,17.23,4C202.63,400.53,199.51,398.31,199.41,395.84Z"/><path class="cls-3" d="M185.66,398.15s-.18,4.59,2.52,6.78a7.2,7.2,0,0,0,1.47-5.51S188.59,396.09,185.66,398.15Z"/><path class="cls-3" d="M188.21,392s-.18,4.59,2.52,6.78a7.2,7.2,0,0,0,1.47-5.51S191.13,389.9,188.21,392Z"/><path class="cls-3" d="M211.15,406.33a4.8,4.8,0,0,1-3,4.48c5,.48,7.34-1.81,7.34-1.81S216.38,405.62,211.15,406.33Z"/><path class="cls-4" d="M282.78,378.88c-.37-.08-.68.19-.54.49,1.51,3.36,8.24,18.1,9.91,18.4a14,14,0,0,0,4,0S322,389.9,318.44,387.7C315.27,385.7,288,380,282.78,378.88Z"/><path class="cls-2" d="M290,395.29s-.76,4.91-1.67,5.76a34.79,34.79,0,0,0-2.83,3.63s-4,2.19-4.43,4.51-5.07,5.22-5.07,5.22-11.51-10.24-17,2.44c0,3.11,3.34,5.75,3.34,5.75s1.39-5.94,2.11-5.73c1.13-1.4,4.74-2.53,6.18,2.12s9.58,7.5,9.58,7.5a7.35,7.35,0,0,0,3-1.24c1-.88.85,1.09.85,1.09s-.35,1.4.05,2c2-1.61,5-.51,4.31,1.25.56,1.21,1.65.9,2.18.09s.49-4.76-.45-5.11c-.48-.65-1.51-2.33-1.51-2.33s-6.14-3.3-6.58-3.05-2.38-2.95.71-4.77,4.45-1.53,4.45-1.53a6.36,6.36,0,0,0,1.26-1.27c.25-.49,2.25-2.39,2.68-2.34s2.48-5.86,2.48-5.86l2.6-5.41Z"/><path class="cls-2" d="M271,419.28a10.2,10.2,0,0,1-4.55-.77c-2.12-1-10.22-1.19-9.05,6.19,1.8-1.68,3.72-2.48,4.7-.08,5.1-7.13,10,3.2,17.63,1.42C274.84,423.45,271.42,421.7,271,419.28Z"/><path class="cls-3" d="M257.71,423.59s.49,4.57,3.49,6.34a7.22,7.22,0,0,0,.64-5.67S260.29,421.12,257.71,423.59Z"/><path class="cls-3" d="M259.31,417.1s.5,4.57,3.49,6.33a7.22,7.22,0,0,0,.64-5.67S261.89,414.63,259.31,417.1Z"/><path class="cls-3" d="M284.12,427.92a4.82,4.82,0,0,1-2.26,4.87c5-.27,7-2.87,7-2.87S289.19,426.45,284.12,427.92Z"/><path class="cls-5" d="M395.76,141.81c-4.76,4.46-18.44,17.78-19.32,20.16-7.15,19.32-15.94,34.74-24.53,45.75-2.5,3.19-32.23,30.91-47.91,36.72a10,10,0,0,0-2.57,1.44c-21.37,16.5-25.78,22-25.78,22,71.72,22.56,99.85,31.36,99.85,31.36,7.76-6.14,16.54-7.13-7.55-19.24,30.92,11.34,31.9,11.23,43.49,0C401,272.92,385,264.28,385,264.28c36.23,5.8,40.57,9.27,48.26-1.48-5.73-4.94-27-11.78-27-11.78,45,4.81,39.69,1.46,46.4-9.18-9.12-2.88-32.44-7.22-32.44-7.22,55.31-.29,58-2.57,67.42-24.38-14.22-.81-38.27,2.33-38.27,2.33a153.11,153.11,0,0,0,20.94-6.12C437.74,197.71,416,168.38,395.76,141.81Z"/><path class="cls-4" d="M550.63,59.58l-4.49.77c-102.69,34.77-135.1,68.1-149,80.17-.26.23-.75.67-1.41,1.29,20.19,26.57,42,55.9,74.48,64.64,17.71-6.52,40.85-18.72,45.14-38.87-16,4.71-50.08,11.56-50.08,11.56,70-36.53,74.63-56.82,70.06-71.13-26,14.79-83.65,47-83.65,47C535.64,90,547.75,95,550.63,59.58Z"/><path class="cls-4" d="M103.64,204.53C86.27,190,38.31,151.62,12.07,146.67a2.92,2.92,0,0,0-3.23,3.93c3.78,9.83,15.5,33.18,44,41.76,0,0-24.86-6.26-28.84-5.81,2.45,12.8,11.52,21.84,48,32.84,0,0-17.68-5.06-34.68-4.15,7.18,11.86,4.72,13.48,43,22C92.74,233.08,101.1,218.52,103.64,204.53Z"/><path class="cls-5" d="M195.41,297.06s-23.58-39.61-48-60c-2.32-2.76-14.81-6.39-37.26-27,0,0-2.4-2.1-6.5-5.53-2.54,14-10.9,28.55-23.41,32.75l3.89.86s-31.14.49-32.79,3.69c5.65,14.46,28,16,49.82,13.51,0,0-27.71,4.13-32.23,8.66,5.86,7.39,12.38,11.69,47.94,5.68,0,0-21.42,6.43-23.84,11.74,8.86,16.11,22.87,6.48,36.78,4.92,0,0-10.71,3.21-17.11,9,7.42,12.25,8.63,5.07,36.23-.05,0,0-19.1,9.2-21.63,13.51,10.06,8.93,24.52,3.27,37-2.15,0,0-16.88,10.95-13.45,14.59l24.73-3.79s-10.37,6.2-11,9.29c4.1,9.61,14.36,2.41,23.68-1.21,0,0,18.83-5.58,14.2-2-1.66,3.2,1.48,7.21,8,8.16S195.41,297.06,195.41,297.06Z"/><line class="cls-1" x1="154.2" y1="154.08" x2="162.2" y2="158.08"/><line class="cls-6" x1="182.2" y1="157.08" x2="196.2" y2="150.08"/><path class="cls-7" d="M265.76,280.43c-4.79,9.11-5.25,19.49-3.76,29.49.38,2.59.9,5.15,1.49,7.7.5,2.15.79,5.05,2.44,6.69s4.48,2.42,6.63,3.36c2.47,1.07,4.94,2.14,7.4,3.23a39,39,0,0,1,7,3.92c2.16,1.55,4.48,3,7.24,2.82a2.58,2.58,0,0,0,2.5-2.5c.89-8.33-3.52-15.88-7.21-23-3.91-7.53-7.18-15.33-12.21-22.21-2.83-3.87-5.95-7.5-9.08-11.12l-.51,3.92c8.51-3.67,10.43-13.41,15.13-20.41,4.16-6.2,12.1-9.59,13.74-17.45a2.58,2.58,0,0,0-1.75-3.08,2.53,2.53,0,0,0-3.08,1.75c-.67,3.26-2.9,5.61-5.25,7.82-2.74,2.57-5.57,5-7.73,8.08-4.35,6.24-5.94,15.67-13.58,19-1.59.69-1.44,2.85-.51,3.93,5.25,6.07,10.24,12.17,14,19.28,1.92,3.62,3.62,7.34,5.46,11,1.73,3.46,3.66,6.83,5.23,10.37a23.77,23.77,0,0,1,2.34,12.14l2.5-2.5c-1.83.09-3.3-1.12-4.72-2.13a34.09,34.09,0,0,0-5.49-3.26c-4.34-2-8.8-3.83-13.19-5.79-.56-.25-1.13-.4-1.39-1a18.36,18.36,0,0,1-.84-3.28c-.56-2.31-1-4.64-1.45-7a56.3,56.3,0,0,1-.77-13.47,35,35,0,0,1,3.77-13.8c1.49-2.85-2.82-5.38-4.32-2.53Z"/><path class="cls-8" d="M260.65,235.19s-30.27-23.75-39-65.15c-15.72-42.26-50.89-48.67-67.32-25.37-5.57,57.66,11.49,104.77,13.12,107.85S260.65,235.19,260.65,235.19Z"/><path class="cls-9" d="M380.2,350.08a4.73,4.73,0,0,1,1.08.11c14-11.42,30.74-20,47.76-27.59C380.19,284.13,308.18,234,265.23,234.18c-38.42-7.51-97.88,14.62-97.88,14.62C155.1,363.29,259,389.23,352.65,386.86a90.36,90.36,0,0,1,11.87-19.8l-.32,0A29.82,29.82,0,0,1,380.2,350.08Z"/><path class="cls-4" d="M381.28,350.19a4.73,4.73,0,0,0-1.08-.11,29.82,29.82,0,0,0-16,17l.32,0A107.39,107.39,0,0,1,381.28,350.19Z"/><path class="cls-4" d="M480.74,365.81s-21.4-19.35-51.7-43.21c-17,7.56-33.74,16.17-47.76,27.59,2.5.52.92,3,.92,3.89-4.93,5.91-10.82,12.77-17.68,13a90.36,90.36,0,0,0-11.87,19.8C407.2,385.48,458.23,374.49,480.74,365.81Z"/><path class="cls-4" d="M382.2,354.08c0-.89,1.58-3.37-.92-3.89a107.39,107.39,0,0,0-16.76,16.87C371.38,366.85,377.27,360,382.2,354.08Z"/><path class="cls-10" d="M193.09,155.2c-2.66-1-5.56-1.56-8.07.1a15.46,15.46,0,0,0-3.23,3.13c-1.21,1.46-3,3.18-5.1,3-.64-.07-.63.93,0,1,1.85.2,3.52-1,4.8-2.18s2.15-2.56,3.46-3.62a5.74,5.74,0,0,1,3.34-1.37,11.78,11.78,0,0,1,4.53.94c.61.22.87-.74.27-1Z"/><path class="cls-11" d="M183.59,158.75c-2.1,3.33,3.23,10,7.06,8.5,1.77-.59,8.69-2.72,4.75-8.52C192.14,154.62,187.59,153.12,183.59,158.75Z"/><path class="cls-10" d="M183.26,158.56c-1.44,2.39.27,5.48,2,7.2a6.84,6.84,0,0,0,3.51,2,5.63,5.63,0,0,0,2.89-.47c2-.72,4.23-1.82,5-3.9,1.15-3-1.53-6.05-3.84-7.56a6.3,6.3,0,0,0-4.75-1,8.69,8.69,0,0,0-4.86,3.74c-.28.39.37.77.65.38a8.23,8.23,0,0,1,4-3.29,5.1,5.1,0,0,1,3.88.44c2.19,1.13,5,3.9,4.34,6.62-.45,1.9-2.45,3-4.12,3.66a9,9,0,0,1-2.19.7,4.7,4.7,0,0,1-3.2-1.11c-1.87-1.41-4.16-4.63-2.72-7C184.16,158.53,183.51,158.15,183.26,158.56Z"/><path class="cls-10" d="M192.09,156.23a9.82,9.82,0,0,1,3.28,3.44,4.9,4.9,0,0,1-.33,4.61c-2,3.29-6,3.33-9.38,3.22a.5.5,0,0,0,0,1,17.33,17.33,0,0,0,6.33-.59,7.22,7.22,0,0,0,4.08-3.44,5.82,5.82,0,0,0,.24-5.13,10.7,10.7,0,0,0-3.71-4c-.52-.39-1,.48-.51.86Z"/><path class="cls-10" d="M196.75,163.15a6,6,0,0,1,4.64-3.87.5.5,0,0,0,.35-.61.52.52,0,0,0-.62-.35,7,7,0,0,0-5.33,4.56.51.51,0,0,0,.34.62.52.52,0,0,0,.62-.35Z"/><path class="cls-10" d="M201.15,158.41c-3.47-1.56-7-3.87-10.84-4.14a6.33,6.33,0,0,0-4.21,1.13,23.92,23.92,0,0,0-3.1,2.94,7.79,7.79,0,0,1-4.11,2.59c-.63.11-.37,1.08.26,1,2.85-.51,4.52-3,6.5-4.83a5.86,5.86,0,0,1,3.64-1.79,12.22,12.22,0,0,1,5.37,1.18c2,.84,4,1.92,6,2.82.58.27,1.09-.6.5-.86Z"/><path class="cls-10" d="M193.36,156.24a10.6,10.6,0,0,1,3,4.33.51.51,0,0,0,.84.23,5.6,5.6,0,0,1,2.14-1.46.5.5,0,0,0-.26-1,2.84,2.84,0,0,1-3.17-1.57l-.68.68,2.65,1.27.39-.91c-2.94-1.09-5.89-3.67-9.21-3.13-2.65.44-4.21,3.14-6.89,3.52-.63.08-.36,1.05.27,1a7.52,7.52,0,0,0,3.36-1.59,9.41,9.41,0,0,1,3.21-1.86,7.13,7.13,0,0,1,4.46.91c1.51.72,3,1.57,4.53,2.15.53.2.9-.67.39-.91l-2.66-1.27a.5.5,0,0,0-.68.68,3.86,3.86,0,0,0,4.29,2l-.26-1a7,7,0,0,0-2.59,1.72l.84.22a11.75,11.75,0,0,0-3.28-4.78c-.49-.42-1.2.29-.71.71Z"/><path class="cls-10" d="M197,159.82a.5.5,0,0,0,0-1,.5.5,0,0,0,0,1Z"/><path class="cls-10" d="M196.18,162.07a.5.5,0,0,0,0-1,.5.5,0,0,0,0,1Z"/><path class="cls-10" d="M154.57,159a4.23,4.23,0,0,1,2.64-1.48,2.85,2.85,0,0,1,1.91,1.23c.78.9,1.37,2,2.21,2.82s1.78,1.46,2.86,1c.6-.23.34-1.19-.26-1-1.19.46-2.32-1.21-2.89-2a11.06,11.06,0,0,0-2-2.42,2.87,2.87,0,0,0-2.3-.65,5.9,5.9,0,0,0-2.82,1.73c-.47.44.24,1.14.7.7Z"/><path class="cls-11" d="M159.89,160.25c1.21,1.94-.35,8.45-3.08,7.95-1-.26-4.75-1.18-3.52-6.41C154.54,157.57,157,155.39,159.89,160.25Z"/><path class="cls-10" d="M159.56,160.44a3.74,3.74,0,0,1,.36,2.06,9.22,9.22,0,0,1-.51,2.7c-.36,1.08-1.24,3-2.69,2.59a4.43,4.43,0,0,1-2.8-1.95c-1.09-1.94-.31-4.59.73-6.38.44-.75,1.14-1.68,2.12-1.6,1.28.09,2.21,1.61,2.79,2.58.25.41.9,0,.65-.38a5.91,5.91,0,0,0-2.89-2.86,2.51,2.51,0,0,0-2.54.82,8.79,8.79,0,0,0-1.76,3.37,6.89,6.89,0,0,0-.14,3.87,4.75,4.75,0,0,0,3.27,3.14,2.37,2.37,0,0,0,1.83,0,4,4,0,0,0,1.75-2,10,10,0,0,0,.91-3.43,4.89,4.89,0,0,0-.43-2.92A.38.38,0,0,0,159.56,160.44Z"/><path class="cls-10" d="M154.15,158.47a11.11,11.11,0,0,0-1.43,3.64,7.2,7.2,0,0,0,.49,4,5.12,5.12,0,0,0,2.11,2.54,5.75,5.75,0,0,0,4.28.12c.63-.15.36-1.12-.26-1a4.75,4.75,0,0,1-3.61-.07,4.48,4.48,0,0,1-1.72-2.29c-.85-2.27-.12-4.43,1-6.45.31-.56-.55-1.07-.86-.5Z"/><path class="cls-10" d="M153.85,165.24c-.64-1.47-1.89-3.14-3.66-3.16a.5.5,0,0,0,0,1h.22c.11,0-.1,0,0,0l.12,0,.21.06.11,0h0a2.67,2.67,0,0,1,.43.25l.1.07c.09.06,0-.05,0,0l.19.17a4.26,4.26,0,0,1,.7.81,8.1,8.1,0,0,1,.65,1.19.49.49,0,0,0,.68.18.5.5,0,0,0,.18-.68Z"/><path class="cls-10" d="M150.74,162.93c1.1-1.25,2.06-2.63,3.27-3.79.88-.85,2.2-1.86,3.42-1.08,1.9,1.22,2.7,4.33,5.26,4.49.64,0,.64-1,0-1-1.21-.07-2.1-1.47-2.77-2.32a6.16,6.16,0,0,0-2.69-2.37c-1.37-.4-2.71.47-3.68,1.34a48.21,48.21,0,0,0-3.52,4c-.42.48.28,1.19.71.71Z"/><path class="cls-10" d="M153.39,158.74a13.13,13.13,0,0,0-1.14,4.7l.86-.35a4.08,4.08,0,0,0-1.71-1.19l-.13,1c1.42,0,2.11-1.31,2.23-2.58a.5.5,0,0,0-.85-.35l-1.25,1.48a.5.5,0,0,0,.71.7,26.93,26.93,0,0,0,2.07-2.44c.51-.6,1.32-1.59,2.22-1.49s1.41.83,2,1.29a3.5,3.5,0,0,0,2.25,1,.5.5,0,0,0,0-1c-.86,0-1.55-.76-2.16-1.28a3.32,3.32,0,0,0-2.3-1.05,4.05,4.05,0,0,0-2.51,1.59c-.76.86-1.39,1.84-2.24,2.64l.71.7,1.25-1.47-.86-.36c-.06.71-.4,1.58-1.23,1.58a.5.5,0,0,0-.14,1,3.09,3.09,0,0,1,1.27.93.5.5,0,0,0,.85-.35,11.71,11.71,0,0,1,1-4.2c.27-.58-.59-1.09-.87-.5Z"/><path class="cls-10" d="M152.54,163a.5.5,0,0,0,0-1,.5.5,0,0,0,0,1Z"/><path class="cls-10" d="M151.93,162.43a.5.5,0,0,0,0-1,.5.5,0,0,0,0,1Z"/><path class="cls-10" d="M151.58,162.53a.5.5,0,0,0,0-1,.5.5,0,0,0,0,1Z"/><path class="cls-10" d="M153.27,164.8a.5.5,0,0,0,0-1,.5.5,0,0,0,0,1Z"/><path class="cls-12" d="M160.22,188.8c8.83.8,21-1,20-7S160.22,188.8,160.22,188.8Z"/><path class="cls-13" d="M181.19,177.73s-6.84-14.07-20.93-6.23c-8.1,8.91-6.19,16.93-6.19,16.93,2,3,12-1.87,12-1.87S182.09,186.75,181.19,177.73Z"/><path class="cls-9" d="M268,210.61c-13.12-5.25-76,36.84-78.68,53.74,35.49-18.57,89.14-35.85,101.43-24.28,29.33,13,12.54-18.68-.55-22.12C279.93,205.81,268,210.61,268,210.61Z"/><path class="cls-9" d="M160.89,231.19c-3,13.93,3.5,32.77,28.46,33.16,4.71-9.12,3.8-8.1,3.8-8.1C181,251.55,164.69,238,163.59,234,160.51,231.05,160.89,231.19,160.89,231.19Z"/><path class="cls-14" d="M218.91,244.63c-4.18.68-9.77,8.22-9.81,9.28S225,248.67,225,248.67,222,244.14,218.91,244.63Z"/><path class="cls-14" d="M172.24,252.89c4.67,1,6.06,9.73,6.06,9.73l-9.92-5.25C167,254.13,172.24,252.89,172.24,252.89Z"/><path class="cls-15" d="M215.89,251.39c-2.44.67-3.25,3.66-3.64,6.16a88.72,88.72,0,0,0-1.44,13.77c0,7,1.68,13.89,2.47,20.85.72,6.25.65,12.85-1.81,18.57a.86.86,0,0,0,1.3,1,8.18,8.18,0,0,0,2.15-3c1.94-4.42,2-9.44,1.43-14.23s-1.79-9.51-2.06-14.32c-1-18.45,1.22-19.09.75-28.49"/><path class="cls-15" d="M171.88,259.33c7,15.18,8,32.31,10.78,48.78.63,3.64,1.69,7.74,5,9.43q-1.37-8.32-2.72-16.65c-1.88-11.47-3.81-23.11-8.76-33.62a61.59,61.59,0,0,0-5.33-9.21"/><path class="cls-16" d="M289.43,217.85c-3.87-.53-6.48,2.62-9.28,4.71-3.07,2.3-6.87,2.76-10.57,3.14-.48.05-.48.8,0,.75,3.44-.35,7.07-.73,10.06-2.63s5.64-5.79,9.59-5.25c.47.07.68-.65.2-.72Z"/><path class="cls-16" d="M285.68,216.46c-3.35.7-5.75,3.81-9.2,4.16-.48,0-.48.8,0,.75,3.56-.36,6-3.47,9.4-4.19.47-.1.27-.82-.2-.72Z"/><path class="cls-17" d="M176.67,245.58c4.28,3,13.6,9.88,16.53,9.74,3.8-5.17,20.73-19.18,20.73-19.18Z"/><path class="cls-16" d="M244.2,372.63a127.52,127.52,0,0,0,41.1-23.14A128.87,128.87,0,0,0,295.39,340c.56-.58-.33-1.47-.88-.88a127.46,127.46,0,0,1-38.05,27.25,124.06,124.06,0,0,1-12.59,5c-.76.26-.44,1.47.33,1.21Z"/><path class="cls-16" d="M293,343a125.9,125.9,0,0,0,54.7,18.68c5.89.62,11.81.92,17.73,1.08a.63.63,0,0,0,0-1.25,180.22,180.22,0,0,1-30.75-3,121.21,121.21,0,0,1-27-8.84,123.48,123.48,0,0,1-14.1-7.72c-.68-.44-1.31.65-.63,1.08Z"/><path class="cls-16" d="M295.72,339.47l.22-.45a.48.48,0,0,0,.07-.23.56.56,0,0,0-.12-.46.35.35,0,0,0-.18-.16l-.14-.07a.65.65,0,0,0-.34,0l-.15.07a.58.58,0,0,0-.22.22l-.21.45a.4.4,0,0,0-.08.23.56.56,0,0,0,.12.46.55.55,0,0,0,.18.16l.15.06a.62.62,0,0,0,.33,0l.15-.06a.58.58,0,0,0,.22-.22Z"/><path class="cls-16" d="M371.23,355.41c-4.38,3.86-7.13,9-9.7,14.18a108.54,108.54,0,0,1-10,16.67c-.48.64.61,1.27,1.08.63a106.46,106.46,0,0,0,9.79-16.31c2.58-5.17,5.27-10.41,9.68-14.28.61-.53-.28-1.41-.88-.89Z"/><path class="cls-16" d="M168.55,265.17a54,54,0,0,0-.76,8.14,43.08,43.08,0,0,1-.72,8.49c-.07.31.41.44.48.13a40.41,40.41,0,0,0,.73-8,54.29,54.29,0,0,1,.76-8.64c.05-.32-.43-.45-.49-.13Z"/><path class="cls-16" d="M233.61,365c1.64,2.42,4.86,3.29,6.27,5.89.15.28.58,0,.43-.25-1.42-2.63-4.63-3.47-6.27-5.9-.18-.26-.61,0-.43.26Z"/><path class="cls-16" d="M285.86,337.92l9,1.06c.32,0,.32-.46,0-.5l-9-1.06c-.32,0-.32.47,0,.5Z"/><path class="cls-16" d="M295.25,338.26a72.54,72.54,0,0,1-9.84-2.55c-.31-.1-.44.39-.13.49a75.47,75.47,0,0,0,9.83,2.55c.32.06.45-.43.14-.49Z"/><path class="cls-16" d="M294.09,241.72a40.11,40.11,0,0,0-8.87,2.86c-.29.14,0,.57.26.43a39.8,39.8,0,0,1,8.74-2.81c.31-.06.18-.54-.13-.48Z"/><path class="cls-16" d="M291.39,240.55l-3.14,1.2a.25.25,0,0,0,.13.49l3.15-1.21a.26.26,0,0,0,.17-.31.25.25,0,0,0-.31-.17Z"/><path class="cls-16" d="M239,367.38q1.47,2.17,3,4.31c.19.25.62,0,.43-.26-1-1.41-2-2.85-3-4.3-.18-.27-.61,0-.43.25Z"/><path class="cls-16" d="M269.68,265.78A19.81,19.81,0,0,0,266,273.1a.25.25,0,0,0,.48.13,19.18,19.18,0,0,1,3.55-7.09c.19-.25-.16-.61-.36-.36Z"/><path class="cls-16" d="M270.38,268.42a8.66,8.66,0,0,0-2.75,4.08.25.25,0,0,0,.48.13,8.14,8.14,0,0,1,2.62-3.85c.25-.21-.1-.56-.35-.36Z"/><path class="cls-16" d="M204.54,243a23.75,23.75,0,0,0-3.61,4.27c-.18.27.25.52.43.25a23.42,23.42,0,0,1,3.53-4.17c.23-.22-.12-.57-.35-.35Z"/><path class="cls-16" d="M179.8,322.73c3.73,3.92,7.19,8,10.75,12.13,3.09,3.54,6.75,6.89,11.54,7.77.31.05.45-.43.13-.49-5-.91-8.67-4.54-11.85-8.25-3.34-3.9-6.67-7.79-10.21-11.51a.25.25,0,0,0-.36.35Z"/><path class="cls-16" d="M372.66,355.57a336.66,336.66,0,0,1,45-26.29q6.72-3.25,13.6-6.21c.73-.32.1-1.4-.63-1.08a336.23,336.23,0,0,0-46.18,24.26q-6.33,4-12.47,8.24c-.66.46,0,1.54.63,1.08Z"/><line class="cls-18" x1="155.2" y1="154.08" x2="162.2" y2="158.08"/><line class="cls-18" x1="180.7" y1="156.58" x2="196.2" y2="150.56"/></svg>