<svg id="Layer_1" data-name="Layer 1" xmlns="http://www.w3.org/2000/svg" viewBox="0 0 559 559"><defs><style>.cls-1,.cls-6{fill:#662b1e;}.cls-2{fill:#e25988;}.cls-3{fill:silver;}.cls-4{fill:#803824;}.cls-5,.cls-9{fill:#3e88bf;stroke:#2e3191;}.cls-18,.cls-5,.cls-6,.cls-9{stroke-miterlimit:10;}.cls-18,.cls-6{stroke:#3b2314;}.cls-7{fill:#313c80;}.cls-18,.cls-8{fill:#843d2c;}.cls-9{stroke-width:0.75px;}.cls-10{fill:#231f20;}.cls-11{fill:#c0bc31;}.cls-12{fill:#9c732a;}.cls-13{fill:#dc9a30;}.cls-14{fill:#13153e;}.cls-15{fill:#fff;}.cls-16{fill:#2e3191;}.cls-17{fill:#e6e7e7;}</style></defs><path class="cls-1" d="M340.84,357.69c.36-.13.7.1.61.42-1,3.54-5.47,19.11-7.09,19.66a14.08,14.08,0,0,1-3.93.62s-26.7-4-23.56-6.7C309.72,369.25,335.86,359.53,340.84,357.69Z"/><path class="cls-2" d="M336.09,375s1.47,4.74,2.5,5.45a33.74,33.74,0,0,1,3.34,3.17s4.25,1.58,5,3.81,5.79,4.41,5.79,4.41,9.87-11.83,17.13-.1c.47,3.08-2.45,6.19-2.45,6.19s-2.25-5.67-2.93-5.36c-1.33-1.22-5.07-1.8-5.8,3s-8.36,8.84-8.36,8.84a7.45,7.45,0,0,1-3.18-.78c-1.11-.73-.69,1.2-.69,1.2s.55,1.33.24,1.94c-2.18-1.29-5,.24-4.08,1.88-.37,1.28-1.5,1.13-2.14.41s-1.19-4.63-.31-5.11c.38-.73,1.15-2.53,1.15-2.53s5.59-4.17,6.06-4,1.91-3.27-1.41-4.61-4.63-.86-4.63-.86a6.21,6.21,0,0,1-1.43-1.06c-.32-.45-2.58-2-3-1.92s-3.31-5.43-3.31-5.43l-3.38-5Z"/><path class="cls-2" d="M358.5,395.91a10.16,10.16,0,0,0,4.39-1.44c1.95-1.29,9.93-2.69,9.86,4.79-2-1.4-4.05-1.91-4.65.61-6.11-6.3-9.43,4.65-17.23,4C355.28,400.6,358.41,398.37,358.5,395.91Z"/><path class="cls-3" d="M372.25,398.21s.18,4.6-2.52,6.79a7.22,7.22,0,0,1-1.47-5.52S369.32,396.15,372.25,398.21Z"/><path class="cls-3" d="M369.7,392s.19,4.59-2.51,6.78a7.2,7.2,0,0,1-1.47-5.51S366.78,390,369.7,392Z"/><path class="cls-3" d="M346.76,406.39a4.84,4.84,0,0,0,3,4.49c-5,.47-7.34-1.81-7.34-1.81S341.54,405.69,346.76,406.39Z"/><path class="cls-4" d="M275.13,378.94c.38-.08.68.2.55.5-1.52,3.36-8.24,18.09-9.92,18.4a14.23,14.23,0,0,1-4,0S236,390,239.47,387.76C242.64,385.77,269.93,380,275.13,378.94Z"/><path class="cls-2" d="M267.88,395.36s.75,4.91,1.66,5.75a33.72,33.72,0,0,1,2.84,3.64s4,2.19,4.42,4.51,5.07,5.21,5.07,5.21,11.51-10.23,17,2.44c0,3.12-3.34,5.76-3.34,5.76s-1.39-5.95-2.11-5.74c-1.13-1.4-4.74-2.52-6.18,2.12s-9.57,7.51-9.57,7.51a7.51,7.51,0,0,1-3-1.24c-1-.89-.86,1.08-.86,1.08s.35,1.4,0,2c-2-1.6-5-.5-4.32,1.25-.56,1.22-1.65.91-2.18.1s-.49-4.76.45-5.11c.48-.66,1.52-2.33,1.52-2.33s6.13-3.3,6.57-3,2.38-3-.71-4.77-4.45-1.54-4.45-1.54a6.23,6.23,0,0,1-1.26-1.26c-.25-.49-2.25-2.4-2.68-2.35s-2.47-5.85-2.47-5.85L261.56,398Z"/><path class="cls-2" d="M287,419.35a10.11,10.11,0,0,0,4.55-.78c2.13-1,10.22-1.19,9.05,6.2-1.79-1.68-3.72-2.48-4.69-.08-5.11-7.14-10,3.2-17.64,1.42C283.07,423.51,286.49,421.77,287,419.35Z"/><path class="cls-3" d="M300.21,423.66s-.5,4.57-3.5,6.34a7.22,7.22,0,0,1-.64-5.67S297.62,421.19,300.21,423.66Z"/><path class="cls-3" d="M298.6,417.16s-.49,4.57-3.49,6.34a7.22,7.22,0,0,1-.64-5.67S296,414.69,298.6,417.16Z"/><path class="cls-3" d="M273.79,428a4.84,4.84,0,0,0,2.26,4.88c-5-.27-7-2.88-7-2.88S268.73,426.52,273.79,428Z"/><path class="cls-5" d="M162.15,141.87c4.76,4.47,18.45,17.79,19.33,20.17,7.14,19.32,15.94,34.74,24.53,45.74,2.49,3.2,32.22,30.92,47.9,36.73a9.63,9.63,0,0,1,2.58,1.44c21.36,16.5,25.77,22,25.77,22-71.71,22.57-99.84,31.37-99.84,31.37-7.77-6.15-16.55-7.14,7.54-19.25-30.92,11.35-31.9,11.24-43.48.05C156.91,273,173,264.34,173,264.34c-36.23,5.81-40.57,9.27-48.26-1.47,5.73-4.94,27-11.79,27-11.79-45,4.82-39.69,1.47-46.4-9.17,9.12-2.89,32.44-7.22,32.44-7.22-55.31-.3-58-2.58-67.42-24.39,14.22-.8,38.28,2.33,38.28,2.33a152,152,0,0,1-21-6.11C120.18,197.77,142,168.44,162.15,141.87Z"/><path class="cls-4" d="M7.28,59.64l4.5.78c102.68,34.77,135.1,68.09,149,80.16.27.23.76.68,1.41,1.29-20.18,26.57-42,55.9-74.48,64.65C70,200,46.82,187.79,42.53,167.64c16,4.71,50.09,11.57,50.09,11.57-70-36.54-74.64-56.82-70.07-71.13,26,14.79,83.66,47,83.66,47C22.28,90.11,10.17,95,7.28,59.64Z"/><path class="cls-4" d="M454.28,204.6c17.37-14.5,65.32-52.91,91.56-57.86a2.92,2.92,0,0,1,3.23,3.93c-3.77,9.83-15.5,33.17-44,41.75,0,0,24.85-6.26,28.83-5.81-2.45,12.81-11.52,21.85-48,32.84,0,0,17.68-5,34.69-4.14-7.19,11.85-4.72,13.48-43,22C465.18,233.15,456.81,218.59,454.28,204.6Z"/><path class="cls-5" d="M362.5,297.13s23.58-39.61,48-60c2.33-2.75,14.81-6.38,37.26-27,0,0,2.4-2.09,6.51-5.52,2.53,14,10.9,28.55,23.41,32.74l-3.9.87s31.14.48,32.79,3.69c-5.65,14.46-28,16-49.82,13.51,0,0,27.71,4.13,32.23,8.66-5.86,7.39-12.38,11.69-47.93,5.68,0,0,21.41,6.43,23.83,11.74C456,297.6,442,288,428.11,286.4c0,0,10.71,3.22,17.11,9-7.42,12.25-8.62,5.07-36.22-.05,0,0,19.09,9.19,21.62,13.5-10.06,8.93-24.52,3.28-37-2.15,0,0,16.88,11,13.45,14.6l-24.73-3.79s10.37,6.2,11,9.29c-4.1,9.6-14.36,2.41-23.68-1.21,0,0-18.83-5.59-14.19-2.05,1.65,3.21-1.49,7.22-8,8.17S362.5,297.13,362.5,297.13Z"/><line class="cls-1" x1="403.72" y1="154.15" x2="395.72" y2="158.15"/><line class="cls-6" x1="375.72" y1="157.15" x2="361.72" y2="150.15"/><path class="cls-7" d="M287.83,283c4.08,7.75,4.53,16.87,3.3,25.4-.34,2.36-.79,4.69-1.32,7-.24,1.08-.5,2.16-.77,3.24a6.91,6.91,0,0,1-.62,2.22c-.5.59-2,.94-2.63,1.24l-3.42,1.49c-2.24,1-4.49,1.95-6.73,2.94a36.36,36.36,0,0,0-6.52,3.54c-1.6,1.14-3.29,2.71-5.36,2.61l2.5,2.5c-.83-7.69,3.46-14.5,6.83-21.07,3.7-7.2,6.86-14.64,11.63-21.24,2.65-3.66,5.62-7.07,8.57-10.48.93-1.08,1.08-3.24-.51-3.93-7.64-3.3-9.23-12.73-13.58-19-2.16-3.1-5-5.5-7.73-8.08-2.35-2.21-4.57-4.55-5.25-7.81A2.5,2.5,0,1,0,261.4,245c1.63,7.85,9.57,11.24,13.73,17.44,4.7,7,6.62,16.74,15.13,20.42l-.51-3.93c-5.56,6.44-10.91,12.94-14.89,20.5-2,3.76-3.75,7.63-5.67,11.42s-3.91,7.32-5.52,11.15a27.08,27.08,0,0,0-2.41,13.26,2.57,2.57,0,0,0,2.5,2.5,10.43,10.43,0,0,0,6.41-2.24,44.4,44.4,0,0,1,6.11-3.74c2.31-1.1,4.68-2.08,7-3.1s4.88-1.94,7.17-3.16,2.9-3.52,3.5-5.93,1.16-4.94,1.6-7.44a62.89,62.89,0,0,0,1-15.49,41,41,0,0,0-4.43-16.11c-1.5-2.85-5.81-.33-4.32,2.52Z"/><path class="cls-8" d="M297.27,235.26s30.26-23.76,39-65.15c15.72-42.26,50.89-48.67,67.32-25.38,5.57,57.67-11.49,104.78-13.12,107.86S297.27,235.26,297.27,235.26Z"/><path class="cls-9" d="M177.72,350.15a5.47,5.47,0,0,0-1.09.1c-14-11.41-30.73-20-47.76-27.59C177.72,284.2,249.73,234,292.68,234.25c38.43-7.51,97.89,14.62,97.89,14.62,12.24,114.49-91.7,140.42-185.31,138.05a89.9,89.9,0,0,0-11.87-19.79l.33,0A29.82,29.82,0,0,0,177.72,350.15Z"/><path class="cls-4" d="M176.63,350.25a5.47,5.47,0,0,1,1.09-.1,29.82,29.82,0,0,1,16,17l-.33,0A107,107,0,0,0,176.63,350.25Z"/><path class="cls-4" d="M77.17,365.88s21.4-19.36,51.7-43.22c17,7.57,33.74,16.18,47.76,27.59-2.49.53-.91,3-.91,3.9,4.92,5.9,10.81,12.77,17.67,13a89.9,89.9,0,0,1,11.87,19.79C150.72,385.54,99.68,374.56,77.17,365.88Z"/><path class="cls-4" d="M175.72,354.15c0-.89-1.58-3.37.91-3.9a107,107,0,0,1,16.76,16.88C186.53,366.92,180.64,360.05,175.72,354.15Z"/><path class="cls-10" d="M365.09,156.23a11.63,11.63,0,0,1,4.53-.94,5.73,5.73,0,0,1,3.34,1.36c1.31,1.07,2.24,2.48,3.46,3.62s2.95,2.39,4.8,2.18c.64-.07.64-1.07,0-1-2.05.23-3.89-1.49-5.1-2.95a15,15,0,0,0-3.23-3.13c-2.51-1.67-5.4-1.08-8.06-.11-.6.22-.34,1.19.26,1Z"/><path class="cls-11" d="M374.33,158.82c2.09,3.33-3.24,10-7.07,8.5-1.77-.59-8.69-2.73-4.75-8.53C365.77,154.69,370.32,153.18,374.33,158.82Z"/><path class="cls-10" d="M374,159c1.28,2.11-.45,4.91-2,6.38a6,6,0,0,1-3.08,1.72,5,5,0,0,1-2.46-.45c-1.67-.61-3.6-1.5-4.44-3.15-1.32-2.58,1.21-5.46,3.2-6.83a5.58,5.58,0,0,1,4.28-1.08A7.83,7.83,0,0,1,374,159c.28.39.93,0,.65-.38a9.36,9.36,0,0,0-4.25-3.57,5.82,5.82,0,0,0-4.28.26,10.41,10.41,0,0,0-3.88,3.21,5.78,5.78,0,0,0-1.26,4.09c.33,2.32,2.6,3.68,4.59,4.49a8.69,8.69,0,0,0,2.62.78,5.51,5.51,0,0,0,3.62-1.33c2.14-1.65,4.48-5.22,2.84-7.93A.38.38,0,0,0,374,159Z"/><path class="cls-10" d="M365.31,155.43a10.94,10.94,0,0,0-3.71,4,5.88,5.88,0,0,0,.24,5.14,7.28,7.28,0,0,0,4.09,3.44,17.51,17.51,0,0,0,6.33.59c.64,0,.64-1,0-1-3.4.1-7.42.06-9.38-3.22a4.88,4.88,0,0,1-.34-4.61,9.91,9.91,0,0,1,3.28-3.44c.51-.38,0-1.25-.51-.87Z"/><path class="cls-10" d="M362.13,163a7,7,0,0,0-5.34-4.57.52.52,0,0,0-.62.35.51.51,0,0,0,.35.62,6,6,0,0,1,4.64,3.86.51.51,0,0,0,.62.35.5.5,0,0,0,.35-.61Z"/><path class="cls-10" d="M357.27,159.34c1.76-.79,3.47-1.71,5.24-2.5a14.94,14.94,0,0,1,5.38-1.52,5.55,5.55,0,0,1,3.94,1.42c1.06.91,1.95,2,3,3a7.86,7.86,0,0,0,4,2.26c.63.11.9-.85.26-1-3-.54-4.55-3.43-6.76-5.2a6.4,6.4,0,0,0-3.92-1.48,13.59,13.59,0,0,0-5.45,1.27c-2.08.87-4.07,2-6.13,2.89-.58.26-.08,1.12.51.86Z"/><path class="cls-10" d="M363.85,155.59a11.78,11.78,0,0,0-3.29,4.79l.84-.23a6.86,6.86,0,0,0-2.59-1.71l-.26,1a3.86,3.86,0,0,0,4.3-2,.51.51,0,0,0-.69-.69L359.51,158c-.51.25-.15,1.11.38.92,1.54-.57,3-1.4,4.44-2.11a7.23,7.23,0,0,1,4.55-.95,9.12,9.12,0,0,1,3.15,1.81,7.61,7.61,0,0,0,3.42,1.64c.63.08.9-.88.27-1-2.68-.37-4.23-3.07-6.89-3.51-3.31-.54-6.27,2-9.2,3.12l.38.92,2.66-1.27-.69-.69a2.84,2.84,0,0,1-3.17,1.58.5.5,0,0,0-.26,1,5.83,5.83,0,0,1,2.14,1.46.51.51,0,0,0,.84-.22,10.73,10.73,0,0,1,3-4.34c.49-.42-.22-1.12-.7-.71Z"/><path class="cls-10" d="M360.94,159.89a.5.5,0,0,0,0-1,.5.5,0,0,0,0,1Z"/><path class="cls-10" d="M361.73,162.13a.5.5,0,0,0,0-1,.5.5,0,0,0,0,1Z"/><path class="cls-10" d="M404.05,158.4a6,6,0,0,0-2.83-1.73,2.85,2.85,0,0,0-2.3.66,11.28,11.28,0,0,0-2.05,2.41c-.57.81-1.7,2.47-2.88,2-.61-.24-.87.73-.27,1,1.08.42,2.12-.3,2.86-1s1.43-1.92,2.21-2.82a2.9,2.9,0,0,1,1.91-1.24,4.29,4.29,0,0,1,2.64,1.49c.47.44,1.18-.26.71-.71Z"/><path class="cls-11" d="M398,160.32c-1.22,1.94.34,8.45,3.07,8,1-.27,4.75-1.18,3.52-6.42C403.37,157.64,400.91,155.46,398,160.32Z"/><path class="cls-10" d="M397.7,160.13a4.63,4.63,0,0,0-.46,2.52,10.16,10.16,0,0,0,.65,3.13c.56,1.46,1.71,3.31,3.53,2.79a5,5,0,0,0,3.35-2.54,6.05,6.05,0,0,0,.38-3.42,9.48,9.48,0,0,0-1.52-3.9,2.9,2.9,0,0,0-2.69-1.51c-1.49.21-2.52,1.74-3.24,2.93-.25.41.4.79.65.37.57-.95,1.36-2.21,2.51-2.53a1.92,1.92,0,0,1,2,.91,8.2,8.2,0,0,1,1.47,3.2,6.05,6.05,0,0,1-.05,3.27,4.07,4.07,0,0,1-2.75,2.42,1.54,1.54,0,0,1-1.37-.05,3.82,3.82,0,0,1-1.37-1.81,9.06,9.06,0,0,1-.74-3,4.2,4.2,0,0,1,.34-2.43C398.6,160.09,398,159.71,397.7,160.13Z"/><path class="cls-10" d="M402.9,159c1.12,2,1.84,4.17,1,6.45a4.36,4.36,0,0,1-1.72,2.28c-1.12.67-2.42.36-3.61.07a.5.5,0,0,0-.26,1,5.8,5.8,0,0,0,4.28-.12,5.23,5.23,0,0,0,2.12-2.54,7.23,7.23,0,0,0,.48-4,11.29,11.29,0,0,0-1.43-3.64c-.31-.56-1.17-.06-.86.51Z"/><path class="cls-10" d="M404.92,165.81a7.37,7.37,0,0,1,.64-1.17l.19-.27c-.05.07,0,0,0-.05a.52.52,0,0,1,.1-.11,4.75,4.75,0,0,1,.38-.4l.2-.17c.11-.09-.08.05,0,0l.1-.08a2.13,2.13,0,0,1,.42-.23s.1,0,0,0l.1,0,.22-.07.12,0c.11,0,0,0,0,0h.23a.5.5,0,0,0,0-1c-1.77,0-3,1.69-3.66,3.16a.5.5,0,1,0,.86.5Z"/><path class="cls-10" d="M407.88,162.29a46.58,46.58,0,0,0-3.52-4c-1-.87-2.31-1.73-3.67-1.33a6.14,6.14,0,0,0-2.69,2.36c-.68.86-1.56,2.25-2.78,2.33-.64,0-.64,1,0,1,2.56-.16,3.36-3.27,5.26-4.49,1.22-.79,2.54.23,3.42,1.08,1.21,1.16,2.17,2.54,3.27,3.79.43.48,1.13-.23.71-.71Z"/><path class="cls-10" d="M403.66,159.31a11.91,11.91,0,0,1,1,4.2.5.5,0,0,0,.85.35,3.09,3.09,0,0,1,1.27-.93.5.5,0,0,0-.13-1c-.84,0-1.17-.87-1.24-1.58l-.85.36,1.24,1.47.71-.71c-.84-.79-1.48-1.77-2.24-2.64a4,4,0,0,0-2.5-1.58,3.34,3.34,0,0,0-2.31,1c-.61.51-1.29,1.29-2.16,1.28a.5.5,0,0,0,0,1,3.46,3.46,0,0,0,2.21-1c.57-.47,1.22-1.24,2-1.33s1.68.86,2.18,1.45a31.51,31.51,0,0,0,2.11,2.49.5.5,0,0,0,.71-.71L405.26,160a.5.5,0,0,0-.85.35c.12,1.26.81,2.57,2.24,2.58l-.14-1a4.17,4.17,0,0,0-1.71,1.19l.86.36a13,13,0,0,0-1.14-4.71c-.27-.58-1.14-.07-.86.51Z"/><path class="cls-10" d="M405.37,163.07a.5.5,0,0,0,0-1,.5.5,0,0,0,0,1Z"/><path class="cls-10" d="M406,162.49a.5.5,0,0,0,0-1,.5.5,0,0,0,0,1Z"/><path class="cls-10" d="M406.33,162.59a.5.5,0,0,0,0-1,.5.5,0,0,0,0,1Z"/><path class="cls-10" d="M404.64,164.86a.5.5,0,0,0,0-1,.5.5,0,0,0,0,1Z"/><path class="cls-12" d="M397.69,188.86c-8.83.81-21-1-20-7S397.69,188.86,397.69,188.86Z"/><path class="cls-13" d="M376.72,177.8s6.85-14.08,20.94-6.24c8.1,8.91,6.19,16.94,6.19,16.94-2,3-12-1.87-12-1.87S375.83,186.81,376.72,177.8Z"/><path class="cls-9" d="M289.88,210.68c13.13-5.26,76,36.83,78.68,53.73-35.48-18.56-89.13-35.84-101.42-24.28-29.34,13-12.55-18.68.54-22.11C278,205.88,289.88,210.68,289.88,210.68Z"/><path class="cls-9" d="M397,231.26c3,13.93-3.5,32.77-28.46,33.15-4.71-9.12-3.8-8.09-3.8-8.09,12.12-4.7,28.47-18.3,29.57-22.28C397.4,231.12,397,231.26,397,231.26Z"/><path class="cls-14" d="M339,244.7c4.18.68,9.78,8.21,9.82,9.28s-15.88-5.24-15.88-5.24S336,244.21,339,244.7Z"/><path class="cls-14" d="M385.67,253c-4.66,1-6.06,9.74-6.06,9.74l9.93-5.25C390.92,254.19,385.67,253,385.67,253Z"/><path class="cls-15" d="M342,251.46c2.43.67,3.24,3.66,3.64,6.16a89.81,89.81,0,0,1,1.43,13.77c0,7-1.68,13.89-2.47,20.85-.71,6.25-.65,12.84,1.81,18.57a.85.85,0,0,1-1.29,1,8.12,8.12,0,0,1-2.16-3c-1.93-4.42-2-9.43-1.43-14.23s1.8-9.5,2.06-14.32c1-18.44-1.22-19.08-.75-28.49"/><path class="cls-15" d="M386,259.4c-7,15.17-7.95,32.31-10.78,48.78-.63,3.64-1.69,7.74-5,9.42L373,301c1.87-11.47,3.8-23.11,8.75-33.63a62.88,62.88,0,0,1,5.33-9.2"/><path class="cls-16" d="M268.68,218.64c3.95-.54,6.62,3.37,9.59,5.25s6.62,2.28,10.06,2.62c.48.05.48-.7,0-.75-3.7-.37-7.5-.83-10.57-3.13-2.79-2.09-5.41-5.25-9.28-4.71-.48.06-.27.79.2.72Z"/><path class="cls-16" d="M272,217.25c3.43.72,5.84,3.83,9.4,4.18.48,0,.48-.7,0-.75-3.45-.34-5.84-3.45-9.2-4.16-.47-.1-.67.63-.2.73Z"/><path class="cls-17" d="M381.24,245.65c-4.28,3-13.6,9.87-16.52,9.73-3.81-5.16-20.73-19.17-20.73-19.17Z"/><path class="cls-16" d="M314.05,371.49a126,126,0,0,1-50.64-32.28c-.56-.58-1.45.31-.89.89a128.27,128.27,0,0,0,38.68,27.62,125.67,125.67,0,0,0,12.51,5c.77.26,1.1-.94.34-1.2Z"/><path class="cls-16" d="M264.3,341.94A124.38,124.38,0,0,1,210,360.48c-5.81.6-11.65.9-17.48,1-.81,0-.81,1.28,0,1.25a181.85,181.85,0,0,0,31.07-3.07A122.15,122.15,0,0,0,264.93,343c.68-.43.05-1.51-.63-1.08Z"/><path class="cls-16" d="M263.27,338.9l-.22-.44a.46.46,0,0,0-.16-.18.53.53,0,0,0-.21-.11.43.43,0,0,0-.25,0,.48.48,0,0,0-.23.07l-.13.1a.61.61,0,0,0-.16.28l0,.16a.72.72,0,0,0,.08.32l.22.44a.4.4,0,0,0,.16.18.56.56,0,0,0,.46.12.48.48,0,0,0,.23-.07l.13-.1a.63.63,0,0,0,.16-.27l0-.17a.72.72,0,0,0-.08-.32Z"/><path class="cls-16" d="M185.8,356.37c4.41,3.87,7.1,9.1,9.68,14.28A107.43,107.43,0,0,0,205.27,387c.47.63,1.56,0,1.08-.63a110.65,110.65,0,0,1-10-16.67c-2.57-5.15-5.31-10.33-9.7-14.18-.6-.53-1.49.35-.88.89Z"/><path class="cls-16" d="M388.88,265.37a56.73,56.73,0,0,1,.76,8.64,39.66,39.66,0,0,0,.72,8c.07.31.55.18.48-.14a43,43,0,0,1-.72-8.48,53,53,0,0,0-.76-8.15c-.06-.31-.54-.18-.48.14Z"/><path class="cls-16" d="M323.87,364.81c-1.64,2.42-4.85,3.27-6.27,5.9-.15.28.28.53.43.25,1.41-2.61,4.63-3.47,6.27-5.9.19-.26-.25-.51-.43-.25Z"/><path class="cls-16" d="M272.05,337.49l-9,1.06c-.32,0-.32.53,0,.5l9-1.06c.32,0,.32-.54,0-.5Z"/><path class="cls-16" d="M262.8,338.81a72.92,72.92,0,0,0,9.84-2.55c.3-.1.17-.58-.14-.48a75.47,75.47,0,0,1-9.83,2.55c-.32.06-.19.54.13.48Z"/><path class="cls-16" d="M263.69,242.27a39,39,0,0,1,8.75,2.81c.29.13.54-.3.25-.43a39.68,39.68,0,0,0-8.86-2.86c-.32-.07-.45.41-.14.48Z"/><path class="cls-16" d="M266.39,241.1l3.14,1.2a.25.25,0,0,0,.31-.17.26.26,0,0,0-.18-.31l-3.14-1.2a.25.25,0,0,0-.31.17.26.26,0,0,0,.18.31Z"/><path class="cls-16" d="M318.47,367.19c-1,1.46-2,2.89-3,4.31-.19.26.24.51.43.25,1-1.41,2-2.85,3-4.31.18-.26-.25-.51-.43-.25Z"/><path class="cls-16" d="M287.88,266.2a19.53,19.53,0,0,1,3.55,7.1.25.25,0,0,0,.48-.13,20,20,0,0,0-3.68-7.32c-.2-.25-.55.1-.35.35Z"/><path class="cls-16" d="M287.18,268.84a8.1,8.1,0,0,1,2.62,3.86c.09.31.58.18.48-.13a8.54,8.54,0,0,0-2.75-4.08c-.25-.2-.6.15-.35.35Z"/><path class="cls-16" d="M353,243.42a23.9,23.9,0,0,1,3.54,4.17c.17.27.61,0,.43-.25a24.23,24.23,0,0,0-3.61-4.27c-.24-.22-.59.13-.36.35Z"/><path class="cls-16" d="M377.76,322.45c-3.54,3.72-6.88,7.61-10.22,11.51-3.18,3.71-6.85,7.34-11.85,8.25-.31.06-.18.54.14.48,4.78-.87,8.44-4.22,11.54-7.77,3.55-4.07,7-8.2,10.74-12.12.22-.23-.13-.59-.35-.35Z"/><path class="cls-16" d="M185.89,354.56a338.43,338.43,0,0,0-45-26.3q-6.74-3.25-13.6-6.2c-.73-.32-1.37.76-.63,1.08a336.69,336.69,0,0,1,46.17,24.26q6.33,4,12.48,8.24c.66.46,1.28-.63.63-1.08Z"/><line class="cls-18" x1="402.72" y1="154.15" x2="395.72" y2="158.15"/><line class="cls-18" x1="377.22" y1="156.65" x2="361.72" y2="150.63"/></svg>