<svg id="Layer_1" data-name="Layer 1" xmlns="http://www.w3.org/2000/svg" viewBox="0 0 559 559"><defs><style>.cls-1{fill:#313c80;}.cls-2{fill:#843d2c;}.cls-3{fill:#1669af;stroke:#26a9e0;stroke-width:0.5px;}.cls-18,.cls-3,.cls-7{stroke-miterlimit:10;}.cls-4{fill:#e25988;}.cls-5{fill:#d0d2d3;}.cls-6{fill:#662b1e;}.cls-14,.cls-7{fill:#3e88bf;}.cls-18,.cls-7{stroke:#2e3191;}.cls-7{stroke-width:0.75px;}.cls-8{fill:#df417e;}.cls-9{fill:#231f20;}.cls-10{fill:#c0bc31;}.cls-11{fill:#9c732a;}.cls-12{fill:#dc9a30;}.cls-13{fill:#7c2d19;}.cls-15{fill:#803824;}.cls-16{fill:#13153e;}.cls-17{fill:#fff;}.cls-18{fill:none;}.cls-19{fill:#2e3191;}.cls-20{fill:#e6e7e7;}</style></defs><path class="cls-1" d="M308.73,284.53c4.36,7.81,4.93,17,3.92,25.68-.26,2.27-.66,4.54-1.11,6.78-.23,1.12-.47,2.23-.72,3.34a6.88,6.88,0,0,1-.48,2.06c-.46.62-1.92,1-2.6,1.3l-3.6,1.68-6.44,3a36.39,36.39,0,0,0-6.43,3.71c-1.54,1.16-3.24,2.82-5.28,2.77l2.5,2.5c-1-7.68,3.06-14.59,6.28-21.24,3.52-7.29,6.49-14.81,11.1-21.52,2.55-3.73,5.42-7.22,8.29-10.7a2.55,2.55,0,0,0-1.1-4.18c-3.34-1.35-5.63-4.53-7.37-7.52-2.12-3.65-3.7-7.61-6.23-11-2.22-3-5-5.26-7.79-7.72-2.4-2.14-4.72-4.44-5.47-7.67s-5.56-1.8-4.83,1.33c1.85,7.91,10,11.08,14.27,17.29,2.55,3.66,4.14,7.88,6.54,11.63a20.57,20.57,0,0,0,9.55,8.5l-1.11-4.18c-5.4,6.57-10.59,13.19-14.39,20.85-1.89,3.81-3.56,7.72-5.38,11.55s-3.73,7.42-5.26,11.29a26.93,26.93,0,0,0-2.1,13.31,2.58,2.58,0,0,0,2.5,2.5,10.41,10.41,0,0,0,6.36-2.36,43.55,43.55,0,0,1,5.81-3.79c4.62-2.37,9.53-4.17,14.09-6.63,2.38-1.29,2.95-3.42,3.5-5.89s1.07-5.08,1.46-7.65a62.56,62.56,0,0,0,.64-15.52,41.14,41.14,0,0,0-4.8-16c-1.57-2.81-5.89-.29-4.32,2.53Z"/><path class="cls-2" d="M317,236.59s29.67-24.49,37.33-66.09C369,127.87,404,120.59,421,143.47c7,57.51-8.89,105-10.45,108.15S317,236.59,317,236.59Z"/><path class="cls-3" d="M388.49,329s-20.68,38.25-24,37.87C350.52,371.47,317,374,317,374Z"/><path class="cls-4" d="M307.67,388.45s-.64,3.84-.19,4.68a28.07,28.07,0,0,1,1.21,3.55s2.57,2.84,2.37,5.05c-.14,1.51,1.2,3.85,2.17,5.32a38.1,38.1,0,0,0-4.14,1.08,3.77,3.77,0,0,0-.8-2.05c-2-2.61-3.07-2.74-3.07-2.74a5.61,5.61,0,0,1-.6-1.47,6.93,6.93,0,0,0-1.31-2.68c-.31-.06-.16-5.26-.16-5.26l-.35-4.49Z"/><path class="cls-4" d="M298.58,413.86c.52-1.13,1.89-1.53,3.11-1.81a14.72,14.72,0,0,0,4.44-1.53c1.28-.55,2.65-1.33,2.78-2.86a19,19,0,0,0,4.18-.89c4.24,4.85,11.56,1.19,17,3.21a3.79,3.79,0,0,0-2,4.57c-3-.16-10.84.53-10.55,4.57a13.09,13.09,0,0,1-5.38-1.06,31.62,31.62,0,0,0-3.41-2.07c-2.93-1-5.75,1-8.46,1.77a1.33,1.33,0,0,1-.81.05c-.42-.15-.6-.64-.73-1.07A4.22,4.22,0,0,1,298.58,413.86Z"/><path class="cls-5" d="M299,413.2c-4.26,3.22-4.71,5.83-4.71,5.83s3.91-.95,6.23-1.2C298.36,417.46,299,413.2,299,413.2Z"/><path class="cls-5" d="M329.77,409.59c3.74-1.15,5.47,3.42,8.1,5.09a22.61,22.61,0,0,1-9.55-.13,1.13,1.13,0,0,1-.66-.33,1,1,0,0,1-.1-.87,7.22,7.22,0,0,1,2.13-3.89"/><path class="cls-5" d="M321.72,414.72c4.35.24,4.06,5.15,6,7.87A25.55,25.55,0,0,1,316,419.7c-.33-.17-.68-.37-.73-.7s.33-.82.7-1.17a13.85,13.85,0,0,1,5.75-3.26"/><path class="cls-6" d="M320.1,370a.52.52,0,0,1,.47.77C318.4,374.71,308.78,392,307,392a12.06,12.06,0,0,1-4.08-.89S278,375,282,373C285.63,371.17,314.59,370.18,320.1,370Z"/><path class="cls-7" d="M410.62,247.89c23.86,180.67-248.7,146.79-310.4,124.74,0,0,142.6-135.58,212.18-136.93C350.63,227.24,410.62,247.89,410.62,247.89Z"/><path class="cls-8" d="M253.48,402a1.82,1.82,0,0,1,1.78,2.32,7.86,7.86,0,0,0-.49,3.09,27.32,27.32,0,0,1,.59,4c.44,1.61,2.38,4.17,1.7,6.83a8.64,8.64,0,0,0,.53,4.45A1.82,1.82,0,0,1,256,425l-.85.06a1.82,1.82,0,0,1-1.9-1.41,4.75,4.75,0,0,0-.37-1,10.16,10.16,0,0,0-2.54-3.61,2.65,2.65,0,0,1-.82-2.13c0-.59-.58-3.3-.94-3.44s.79-5.36.95-6.1l0-.18.4-3.65a1.82,1.82,0,0,1,1.79-1.62Z"/><path class="cls-4" d="M239.75,429.68c.87-1.21,2.56-1.38,4.05-1.44a17.66,17.66,0,0,0,5.54-.81,5.48,5.48,0,0,0,3.52-1.89,1.74,1.74,0,0,1,1.52-.77,21.55,21.55,0,0,0,3.94-.18c2,3.78,6.56,4.55,10.58,5.16a42.1,42.1,0,0,1,5.31,1,1.81,1.81,0,0,1,.92,2.86,4.38,4.38,0,0,0-.89,1.64,1.85,1.85,0,0,1-2.06,1.35c-3.2-.39-9-.81-11,2.12a1.86,1.86,0,0,1-2.08.86,12.35,12.35,0,0,1-4.37-2c-1.26-1-2.18-2.37-3.55-3.18-3.2-1.86-6.94-.15-10.29.19a1.6,1.6,0,0,1-1-.12,1.8,1.8,0,0,1-.61-1.42A5,5,0,0,1,239.75,429.68Z"/><path class="cls-5" d="M236.94,431.08a1.89,1.89,0,0,0,1.09,3.58C241.24,434.42,239.74,429.35,236.94,431.08Z"/><path class="cls-5" d="M277.24,431.58a4.46,4.46,0,0,1,3.67,1.26,14.49,14.49,0,0,1,2.52,3.52,1.84,1.84,0,0,1-1.86,2.73,27.16,27.16,0,0,1-7.13-2,1.4,1.4,0,0,1-.7-.54,1.25,1.25,0,0,1,.07-1,8.69,8.69,0,0,1,3.36-4.09"/><path class="cls-5" d="M266.68,435.81c3.18.78,4,3.69,4.3,6.51,0,.42.1.84.17,1.26a1.83,1.83,0,0,1-2.35,2,32.07,32.07,0,0,1-9.95-5.23c-.36-.28-.72-.59-.7-1s.56-.89,1.08-1.21a16.35,16.35,0,0,1,7.46-2.55"/><path class="cls-9" d="M382.84,155.91a11.81,11.81,0,0,1,4.55-1,5.81,5.81,0,0,1,3.42,1.34c2.57,2,4.63,6,8.45,5.52.63-.09.36-1.05-.27-1-2,.27-3.87-1.48-5.05-2.84a15,15,0,0,0-3.34-3.07c-2.54-1.58-5.4-.92-8,.11-.59.23-.34,1.2.26,1Z"/><path class="cls-10" d="M392.15,158.27c2.18,3.28-3,10-6.85,8.67-1.78-.55-8.76-2.51-5-8.4C383.5,154.35,388,152.74,392.15,158.27Z"/><path class="cls-9" d="M391.83,158.46c1.33,2.09-.32,4.92-1.82,6.43a6,6,0,0,1-3,1.8,5,5,0,0,1-2.46-.38c-1.67-.56-3.6-1.38-4.5-3-1.43-2.53,1-5.45,2.89-6.9a5.7,5.7,0,0,1,4.3-1.27,7.76,7.76,0,0,1,4.62,3.3c.29.38.94,0,.65-.38a9.35,9.35,0,0,0-4.38-3.48,5.84,5.84,0,0,0-4.32.41,10.44,10.44,0,0,0-3.77,3.34,5.74,5.74,0,0,0-1.09,4.12c.41,2.28,2.71,3.56,4.69,4.31a8.64,8.64,0,0,0,2.62.71,5.46,5.46,0,0,0,3.57-1.4c2.12-1.69,4.38-5.34,2.68-8C392.22,157.68,391.57,158.05,391.83,158.46Z"/><path class="cls-9" d="M383,155.18a10.57,10.57,0,0,0-3.53,4,5.83,5.83,0,0,0,.36,5.1,7.26,7.26,0,0,0,4.17,3.34,17.34,17.34,0,0,0,6.34.44c.64,0,.65-1,0-1-3.44.19-7.56.24-9.55-3.13a4.83,4.83,0,0,1-.27-4.66,10.64,10.64,0,0,1,3.19-3.39c.5-.4-.21-1.1-.71-.71Z"/><path class="cls-9" d="M380.06,162.71a7,7,0,0,0-5.57-4.45c-.27,0-.5.25-.5.5a.52.52,0,0,0,.5.5A6,6,0,0,1,379.1,163a.51.51,0,0,0,.61.35.5.5,0,0,0,.35-.62Z"/><path class="cls-9" d="M375.1,159.22c1.74-.84,3.43-1.8,5.18-2.63a14.77,14.77,0,0,1,5.33-1.65,5.55,5.55,0,0,1,4,1.31c1.09.87,2,1.95,3,2.88a7.84,7.84,0,0,0,4,2.17c.63.1.9-.87.26-1-3-.46-4.64-3.28-6.88-5a6.35,6.35,0,0,0-4-1.41,13.45,13.45,0,0,0-5.34,1.37c-2.1.91-4.07,2.08-6.14,3.07-.58.28-.07,1.14.51.86Z"/><path class="cls-9" d="M381.6,155.3a11.59,11.59,0,0,0-3.16,4.86l.83-.22a6.77,6.77,0,0,0-2.62-1.66l-.14,1a3.82,3.82,0,0,0,4.17-2.26c.18-.44-.38-.74-.73-.57l-2.62,1.34c-.5.25-.15,1.12.38.91,1.53-.61,2.92-1.46,4.38-2.21a7.3,7.3,0,0,1,4.53-1.08,9.46,9.46,0,0,1,3.33,1.83,7.53,7.53,0,0,0,3.46,1.48c.64.07.63-.93,0-1-2.66-.31-4.28-3-7-3.34-3.29-.39-6.12,2.22-9,3.36l.38.91,2.62-1.33-.73-.57a2.9,2.9,0,0,1-3.21,1.53c-.59-.07-.63.81-.13,1a5.72,5.72,0,0,1,2.18,1.4.51.51,0,0,0,.84-.22,10.65,10.65,0,0,1,2.91-4.41c.48-.43-.23-1.14-.71-.71Z"/><path class="cls-9" d="M378.79,159.67a.5.5,0,0,0,0-1,.5.5,0,0,0,0,1Z"/><path class="cls-9" d="M379.63,161.9a.5.5,0,0,0,0-1,.5.5,0,0,0,0,1Z"/><path class="cls-9" d="M421.86,157.13a5.88,5.88,0,0,0-2.9-1.67,2.84,2.84,0,0,0-2.27.72,11.26,11.26,0,0,0-2,2.46c-.54.8-1.63,2.51-2.82,2.08-.61-.22-.87.75-.27,1a2.81,2.81,0,0,0,2.87-1.14c.81-.86,1.36-1.93,2.11-2.84a2.94,2.94,0,0,1,1.85-1.28c1-.08,2,.78,2.7,1.41.48.42,1.19-.28.71-.71Z"/><path class="cls-10" d="M415.88,159.18c-1.16,2,.56,8.44,3.27,7.88,1-.3,4.72-1.3,3.36-6.51C421.16,156.37,418.65,154.25,415.88,159.18Z"/><path class="cls-9" d="M415.56,159a4.48,4.48,0,0,0-.4,2.53,9.85,9.85,0,0,0,.72,3.12c.6,1.46,1.8,3.28,3.62,2.7a5,5,0,0,0,3.28-2.66,6,6,0,0,0,.26-3.49,9.21,9.21,0,0,0-1.61-3.76A2.88,2.88,0,0,0,418.7,156c-1.47.26-2.46,1.81-3.14,3a.38.38,0,0,0,.65.38c.54-1,1.31-2.26,2.45-2.6a1.94,1.94,0,0,1,2,.83,8.28,8.28,0,0,1,1.55,3.18,6,6,0,0,1,.05,3.25,4,4,0,0,1-2.66,2.5,1.57,1.57,0,0,1-1.37,0,3.63,3.63,0,0,1-1.43-1.75,8.9,8.9,0,0,1-.84-3,4.26,4.26,0,0,1,.28-2.47A.38.38,0,0,0,415.56,159Z"/><path class="cls-9" d="M420.72,157.77c1.18,2,2,4.18,1.14,6.49a4.4,4.4,0,0,1-1.63,2.27,4.67,4.67,0,0,1-3.6.16c-.63-.13-.9.83-.27,1a6,6,0,0,0,4.13-.13,5,5,0,0,0,2.18-2.59,7.19,7.19,0,0,0,.43-4,11.05,11.05,0,0,0-1.52-3.65.5.5,0,0,0-.86.5Z"/><path class="cls-9" d="M423,164.39a7.94,7.94,0,0,1,.58-1.11l.17-.24.09-.12,0,0a3.88,3.88,0,0,1,.39-.42l.19-.17.06,0,.08-.06a2.3,2.3,0,0,1,.4-.23l.1,0h0l.21-.06.21-.05c.1,0-.11,0,0,0h.12a.5.5,0,0,0,0-1c-1.83.07-3,1.83-3.64,3.36a.5.5,0,0,0,.35.61.52.52,0,0,0,.62-.35Z"/><path class="cls-9" d="M425.79,160.92a48.83,48.83,0,0,0-3.57-3.89c-1-.88-2.41-1.77-3.8-1.28a6.24,6.24,0,0,0-2.62,2.45c-.64.85-1.49,2.25-2.68,2.35-.63,0-.64,1,0,1,2.53-.22,3.29-3.27,5.1-4.58,1.18-.84,2.51.06,3.43.88,1.27,1.14,2.28,2.53,3.43,3.78.44.47,1.15-.24.71-.71Z"/><path class="cls-9" d="M421.48,158a11.68,11.68,0,0,1,1.11,4.17c0,.39.55.72.85.36a3.16,3.16,0,0,1,1.24-1c.5-.19.47-1-.13-1-.83,0-1.2-.82-1.28-1.53l-.86.35,1.28,1.44.71-.7c-.86-.78-1.52-1.74-2.3-2.59a4.09,4.09,0,0,0-2.54-1.53,3.33,3.33,0,0,0-2.28,1.1c-.6.53-1.27,1.34-2.13,1.34a.5.5,0,0,0,0,1,3.39,3.39,0,0,0,2.19-1c.55-.49,1.18-1.27,2-1.38s1.7.79,2.22,1.38a31.34,31.34,0,0,0,2.17,2.43.5.5,0,0,0,.71-.7l-1.28-1.45c-.27-.3-.91-.08-.85.36.14,1.25.85,2.56,2.28,2.53l-.13-1a4,4,0,0,0-1.68,1.23l.85.35a12.86,12.86,0,0,0-1.25-4.67c-.28-.58-1.15-.07-.86.5Z"/><path class="cls-9" d="M423.28,161.75a.5.5,0,0,0,0-1,.5.5,0,0,0,0,1Z"/><path class="cls-9" d="M423.88,161.16a.5.5,0,0,0,0-1,.5.5,0,0,0,0,1Z"/><path class="cls-9" d="M424.23,161.25a.5.5,0,0,0,0-1,.5.5,0,0,0,0,1Z"/><path class="cls-9" d="M422.59,163.56a.5.5,0,0,0,0-1,.5.5,0,0,0,0,1Z"/><path class="cls-11" d="M416.25,187.73c-8.8,1-21-.44-20.15-6.53S416.25,187.73,416.25,187.73Z"/><path class="cls-12" d="M395,177.19s6.49-14.24,20.77-6.75c8.32,8.7,6.61,16.77,6.61,16.77-1.89,3.07-12.07-1.57-12.07-1.57S394.35,186.22,395,177.19Z"/><path class="cls-13" d="M154,367c-30.48,4-54,5-54,5s-8,0,44.08-41.05"/><path class="cls-14" d="M153.05,365.07c60.71-7.88,153.31-23.46,164-46.09,16-34-31-79-31-79-45.92,13.71-103.18,57.68-141.92,91"/><path class="cls-15" d="M267,389c.4,0,.76-.56.56-.21C265.4,392.71,255.78,410,254,410a12.06,12.06,0,0,1-4.08-.89S224.54,391,229,391C238,391,261.5,389.15,267,389Z"/><path class="cls-7" d="M309,212.2c13-5.57,76.93,35,80,51.78-35.94-17.69-90-33.63-102-21.76-29,13.76-13-18.37,0-22.13C297,207.71,309,212.2,309,212.2Z"/><path class="cls-7" d="M416.63,230.13C420,244,414,263,389,264c-4.94-9-4-8-4-8,12-5,28-19,29-23C417,230,416.63,230.13,416.63,230.13Z"/><path class="cls-16" d="M359,245c4.19.57,10,8,10,9s-16-4.84-16-4.84S355.91,244.59,359,245Z"/><path class="cls-16" d="M405.83,252.1C401.19,253.2,400,262,400,262l9.79-5.49C411.1,253.2,405.83,252.1,405.83,252.1Z"/><path class="cls-17" d="M362.16,251.68c2.45.61,3.33,3.58,3.79,6.07a88.49,88.49,0,0,1,1.77,13.73c.17,7-1.33,13.93-2,20.91-.56,6.26-.33,12.85,2.27,18.52a.85.85,0,0,1-1.27,1,8.08,8.08,0,0,1-2.22-3c-2.05-4.37-2.23-9.39-1.79-14.19s1.56-9.55,1.7-14.37C365,262,362.77,261.39,363,252"/><path class="cls-17" d="M406.35,258.53c-6.62,15.34-7.16,32.5-9.57,49-.54,3.66-1.5,7.79-4.74,9.55l2.31-16.71c1.59-11.51,3.23-23.2,7.91-33.83a62.6,62.6,0,0,1,5.1-9.34"/><path class="cls-18" d="M153.51,365.48s-2.41-3.7-9.5-34.5"/><path class="cls-19" d="M288,220.7c3.94-.65,6.7,3.19,9.72,5s6.67,2.11,10.12,2.38c.49,0,.48-.72,0-.75-3.71-.29-7.52-.65-10.64-2.87-2.85-2-5.54-5.12-9.4-4.49-.47.08-.27.8.2.73Z"/><path class="cls-19" d="M291.33,219.21c3.45.64,5.93,3.69,9.5,4,.48,0,.48-.71,0-.75-3.46-.26-5.93-3.31-9.3-3.93-.47-.09-.68.63-.2.72Z"/><path class="cls-18" d="M283,244.22C305,264,330.45,309,309.23,326c-37.22,31-155,40.4-155,40.4"/><path class="cls-20" d="M401.21,244.9C397,248,387.87,255.11,384.94,255c-3.93-5.06-21.2-18.65-21.2-18.65Z"/><path class="cls-19" d="M337.17,372.37a126,126,0,0,1-41.52-22.13,130,130,0,0,1-9.9-8.87c-.57-.57-1.46.32-.89.88a126.87,126.87,0,0,0,52,31.33c.77.24,1.1-1,.33-1.21Z"/><path class="cls-19" d="M286.71,344.06A124.62,124.62,0,0,1,232.88,364c-5.79.74-11.62,1.18-17.45,1.48-.8,0-.81,1.29,0,1.25a181.33,181.33,0,0,0,31-3.84,122.22,122.22,0,0,0,40.93-17.7c.67-.45,0-1.53-.63-1.08Z"/><path class="cls-19" d="M285.6,341.07l-.23-.45a.44.44,0,0,0-.16-.17.56.56,0,0,0-.46-.12.39.39,0,0,0-.23.07l-.13.1a.63.63,0,0,0-.16.27l0,.17a.72.72,0,0,0,.08.32l.23.44a.44.44,0,0,0,.16.17.43.43,0,0,0,.21.11.53.53,0,0,0,.25,0,.49.49,0,0,0,.23-.08l.13-.1a.57.57,0,0,0,.16-.27l0-.17a.65.65,0,0,0-.08-.31Z"/><path class="cls-15" d="M209.73,360C213,366.57,229,391,229,391s-110-2.93-129-18.55C121,371.45,209.73,360,209.73,360Z"/><path class="cls-19" d="M208.57,360.42c4.55,3.81,7.39,9,10.13,14.21a106.55,106.55,0,0,0,10.19,16c.5.63,1.37-.26.88-.88a111.23,111.23,0,0,1-10.37-16.47c-2.67-5-5.53-10.06-10-13.76-.61-.51-1.5.37-.88.89Z"/><path class="cls-19" d="M409.34,264.42a56.72,56.72,0,0,1,1,8.62,41,41,0,0,0,.92,8,.25.25,0,0,0,.48-.13,43.85,43.85,0,0,1-.93-8.47,52.77,52.77,0,0,0-1-8.12c-.07-.32-.55-.19-.48.13Z"/><path class="cls-19" d="M346.82,365.44c-1.58,2.47-4.77,3.39-6.12,6.05-.15.29.28.54.43.26,1.35-2.64,4.54-3.59,6.12-6.05.18-.27-.26-.53-.43-.26Z"/><path class="cls-19" d="M294.28,339.43l-9,1.28c-.32,0-.18.53.13.48l9-1.28c.32,0,.18-.52-.13-.48Z"/><path class="cls-19" d="M285.11,341a75.13,75.13,0,0,0,9.77-2.8c.3-.1.18-.59-.13-.48a75.09,75.09,0,0,1-9.77,2.79c-.31.07-.18.55.13.49Z"/><path class="cls-19" d="M283.62,244.43a40,40,0,0,1,8.81,2.6c.29.12.54-.31.25-.43a39.87,39.87,0,0,0-8.93-2.65c-.32,0-.45.43-.13.48Z"/><path class="cls-19" d="M286.28,243.2l3.17,1.12c.31.11.44-.37.13-.48l-3.17-1.12c-.3-.11-.43.37-.13.48Z"/><path class="cls-19" d="M341.48,368q-1.41,2.22-2.9,4.38c-.19.27.25.52.43.25q1.49-2.16,2.9-4.38c.17-.27-.26-.52-.43-.25Z"/><path class="cls-19" d="M308.39,267.76a19.32,19.32,0,0,1,3.72,7,.25.25,0,0,0,.48-.13,19.85,19.85,0,0,0-3.85-7.22c-.21-.25-.56.1-.35.35Z"/><path class="cls-19" d="M307.75,270.42a8.07,8.07,0,0,1,2.72,3.79c.1.3.59.17.48-.14a8.54,8.54,0,0,0-2.84-4,.25.25,0,0,0-.36.36Z"/><path class="cls-19" d="M373,243.37a23.1,23.1,0,0,1,3.63,4.08c.19.26.62,0,.44-.25A23.88,23.88,0,0,0,373.3,243c-.24-.22-.59.13-.35.35Z"/><path class="cls-19" d="M399.64,321.76c-3.51,3.88-6.78,7.92-10.09,12-3,3.71-6.6,7.33-11.48,8.34-.31.06-.18.54.14.48,4.68-1,8.23-4.32,11.2-7.88,3.51-4.2,6.9-8.49,10.58-12.56.22-.24-.13-.59-.35-.35Z"/></svg>