<svg id="Layer_1" data-name="Layer 1" xmlns="http://www.w3.org/2000/svg" viewBox="0 0 559 559"><defs><style>.cls-1,.cls-6{fill:#662b1e;}.cls-2{fill:#e25988;}.cls-3{fill:silver;}.cls-4{fill:#803824;}.cls-5,.cls-9{fill:#3e88bf;stroke:#2e3191;}.cls-18,.cls-5,.cls-6,.cls-9{stroke-miterlimit:10;}.cls-18,.cls-6{stroke:#3b2314;}.cls-7{fill:#313c80;}.cls-18,.cls-8{fill:#843d2c;}.cls-9{stroke-width:0.75px;}.cls-10{fill:#231f20;}.cls-11{fill:#c0bc31;}.cls-12{fill:#9c732a;}.cls-13{fill:#dc9a30;}.cls-14{fill:#13153e;}.cls-15{fill:#fff;}.cls-16{fill:#2e3191;}.cls-17{fill:#e6e7e7;}</style></defs><path class="cls-1" d="M403.81,361.3c.32-.22.71-.09.7.24-.06,3.68-.4,19.88-1.82,20.82a14,14,0,0,1-3.64,1.61s-26.84,3-24.49-.45C376.69,380.43,399.47,364.35,403.81,361.3Z"/><path class="cls-2" d="M403.65,379.25s2.64,4.21,3.81,4.62a34,34,0,0,1,4,2.22s4.52.44,5.85,2.39,6.72,2.78,6.72,2.78,6.52-14,16.55-4.48c1.24,2.86-.8,6.61-.8,6.61s-3.63-4.91-4.2-4.43c-1.59-.84-5.36-.44-4.84,4.39S425,404,425,404a7.5,7.5,0,0,1-3.27.06c-1.25-.43-.36,1.33-.36,1.33s.88,1.15.74,1.82c-2.45-.69-4.79,1.51-3.47,2.86,0,1.34-1.16,1.48-2,.95s-2.33-4.18-1.61-4.87c.18-.79.47-2.74.47-2.74s4.33-5.46,4.83-5.41,1-3.65-2.54-4.1-4.69.36-4.69.36a6.11,6.11,0,0,1-1.66-.67c-.42-.34-3-1.3-3.39-1.09s-4.59-4.39-4.59-4.39l-4.53-3.94Z"/><path class="cls-2" d="M430.67,393.72a10.06,10.06,0,0,0,3.87-2.51c1.56-1.75,8.92-5.14,10.76,2.11-2.31-.83-4.4-.81-4.34,1.78-7.52-4.53-7.93,6.91-15.63,8.29C428.76,399.08,431.2,396.13,430.67,393.72Z"/><path class="cls-3" d="M444.55,392.44s1.35,4.39-.7,7.2a7.22,7.22,0,0,1-2.83-5S441.19,391.19,444.55,392.44Z"/><path class="cls-3" d="M440.5,387.1s1.36,4.4-.69,7.2a7.18,7.18,0,0,1-2.84-4.95S437.15,385.86,440.5,387.1Z"/><path class="cls-3" d="M422,406.87a4.84,4.84,0,0,0,4,3.58c-4.68,1.72-7.56.12-7.56.12S416.77,407.52,422,406.87Z"/><path class="cls-4" d="M345.73,398.66c.34-.18.71,0,.66.34-.61,3.63-3.34,19.6-4.88,20.32a14,14,0,0,1-3.84,1.05s-27-1-24.16-4.06C316.07,413.57,341,401,345.73,398.66Z"/><path class="cls-2" d="M342.92,416.38s2,4.55,3.08,5.14a34.73,34.73,0,0,1,3.67,2.79s4.4,1.1,5.43,3.23,6.24,3.74,6.24,3.74,8.51-12.84,17-2c.81,3-1.76,6.42-1.76,6.42s-2.86-5.39-3.5-5c-1.45-1.06-5.23-1.23-5.43,3.63s-7.34,9.71-7.34,9.71a7.51,7.51,0,0,1-3.25-.42c-1.17-.61-.55,1.26-.55,1.26s.7,1.27.46,1.91c-2.31-1.05-4.95.79-3.85,2.31-.23,1.32-1.37,1.3-2.09.65s-1.69-4.48-.87-5.05c.3-.76.87-2.64.87-2.64s5.09-4.76,5.58-4.64,1.54-3.46-1.91-4.43-4.69-.34-4.69-.34a6.4,6.4,0,0,1-1.55-.9c-.36-.41-2.78-1.74-3.19-1.58s-3.89-5-3.89-5l-3.9-4.56Z"/><path class="cls-2" d="M367.5,434.69a10,10,0,0,0,4.2-1.91c1.8-1.5,9.58-3.77,10.33,3.67-2.16-1.16-4.23-1.44-4.56,1.12-6.76-5.58-8.86,5.66-16.68,5.89C364.81,439.71,367.67,437.15,367.5,434.69Z"/><path class="cls-3" d="M381.41,435.47s.69,4.54-1.75,7a7.21,7.21,0,0,1-2.07-5.32S378.28,433.74,381.41,435.47Z"/><path class="cls-3" d="M378.2,429.6s.69,4.54-1.75,7a7.21,7.21,0,0,1-2.07-5.32S375.07,427.87,378.2,429.6Z"/><path class="cls-3" d="M357,446.41a4.83,4.83,0,0,0,3.44,4.13c-4.88,1-7.5-1-7.5-1S351.71,446.29,357,446.41Z"/><path class="cls-5" d="M175.85,198.39c5.74,3.1,22.38,12.48,23.84,14.55,11.85,16.85,24.3,29.51,35.42,37.95,3.23,2.45,39.06,21.63,55.71,23.24a9.73,9.73,0,0,1,2.85.73c24.88,10.48,30.56,14.7,30.56,14.7-63.56,40.16-88.5,55.87-88.5,55.87-9.07-4-17.82-2.66,2.37-20.54-27,18.88-28,19-42,11.18,8.25-9.59,21.56-22.05,21.56-22.05-33.54,14.88-36.85,19.34-47,10.92,4.27-6.24,23.1-18.31,23.1-18.31-42.28,16.18-38,11.57-47.2,3,8.08-5.13,29.51-15.28,29.51-15.28-53.54,13.87-56.74,12.35-71.41-6.32,13.53-4.42,37.59-7.54,37.59-7.54a152.63,152.63,0,0,1-21.81-.56C149.58,263.17,163.13,229.24,175.85,198.39Z"/><path class="cls-4" d="M5.09,158.53l4.55-.4c108.16,7.33,148,31.26,164.52,39.38.31.15.9.46,1.69.88-12.72,30.85-26.27,64.78-55.46,81.55-18.78-1.77-44.28-7.64-53.58-26,16.69.46,51.37-1.63,51.37-1.63-77-17.41-86.69-35.83-85.93-50.83,28.92,7.63,92.89,24,92.89,24C27.39,184.14,16.94,192,5.09,158.53Z"/><path class="cls-4" d="M474.3,184.28c13.08-18.47,49.61-67.87,73.71-79.37a2.92,2.92,0,0,1,4.12,3c-1.13,10.46-6.49,36-31.81,51.61,0,0,22.43-12.41,26.39-13,.91,13-5.55,24.07-38,44,0,0,15.8-9.41,32.47-12.89-3.91,13.3-1.11,14.24-35.89,32.3C492.14,209.09,480.33,197.15,474.3,184.28Z"/><path class="cls-5" d="M409.26,297.21s12.66-44.32,31.06-70.29c1.54-3.26,12.68-10,29.1-35.64,0,0,1.79-2.64,4.88-7,6,12.87,17.84,24.81,31,25.66l-3.55,1.83s30.23-7.5,32.65-4.82c-1.77,15.42-22.94,22.6-44.71,25.81,0,0,27.85-3.1,33.38.12-3.78,8.65-9,14.47-44.89,17.76,0,0,22.35.74,26.05,5.25-4.44,17.84-20.45,12.11-34.3,14.16,0,0,11.17.37,18.83,4.29-4,13.74-7,7.11-35,9.22,0,0,20.81,4,24.36,7.52-7.44,11.21-22.86,9.45-36.31,7.39,0,0,19.12,6.27,16.74,10.67l-24.88,2.66s11.62,3.34,13,6.16c-1.5,10.33-13.26,6-23.2,4.89,0,0-19.63-.58-14.24,1.66,2.41,2.67.41,7.35-5.61,9.92S409.26,297.21,409.26,297.21Z"/><line class="cls-1" x1="412.51" y1="148.44" x2="405.8" y2="154.36"/><line class="cls-6" x1="386.21" y1="158.51" x2="370.89" y2="155.32"/><path class="cls-7" d="M333.46,302.68c5.82,6.33,8.61,14.86,9.64,23.26.3,2.44.47,4.9.56,7.35q.07,1.79.09,3.57c0,.82.28,1.88-.27,2.53a16.86,16.86,0,0,1-2.37,1.92L338,343.78c-1.88,1.49-3.77,3-5.64,4.47a36.09,36.09,0,0,0-5.24,5.1c-1.17,1.42-2.34,3.13-4.24,3.53l3.08,1.74c-2.76-7.21-.36-14.89,1.22-22.09,1.73-7.87,2.87-15.83,5.76-23.39,1.63-4.26,3.65-8.35,5.64-12.43.63-1.29.23-3.42-1.49-3.68-8.32-1.25-12.26-10.11-18.18-15-2.85-2.37-6.12-3.93-9.36-5.68-2.84-1.53-5.58-3.23-7.06-6.2s-5.76-.35-4.32,2.52c3.55,7.1,11.94,8.35,17.52,13.16,6.47,5.57,10.79,14.66,20.07,16.05l-1.5-3.67c-3.75,7.7-7.26,15.4-9.18,23.78-.94,4.08-1.65,8.22-2.52,12.31s-1.91,8-2.47,12.12c-.62,4.55-.62,9.21,1,13.56a2.59,2.59,0,0,0,3.08,1.75,10.18,10.18,0,0,0,5.39-3.54,47.5,47.5,0,0,1,4.64-5c4-3.48,8.35-6.48,12.37-9.9,2.18-1.85,2.18-4.25,2.14-6.9s-.16-5.39-.4-8.07A61.25,61.25,0,0,0,345.21,313,40.88,40.88,0,0,0,337,299.14c-2.18-2.37-5.71,1.17-3.54,3.54Z"/><path class="cls-8" d="M330.36,254.09s23.18-30.71,21-73c4.38-44.87,36.74-60.07,58.58-41.75,20.15,54.32,15.71,104.22,14.92,107.62S330.36,254.09,330.36,254.09Z"/><path class="cls-9" d="M244.19,395.75a5.11,5.11,0,0,0-1,.38c-16.48-7.45-34.84-11.5-53.23-14.45C227.32,332,284.09,265.05,325.67,254.29,360.89,237.2,424,243.37,424,243.37c41.13,107.55-52.71,159.22-143.81,180.88a90.43,90.43,0,0,0-16.54-16.1l.32-.06A29.81,29.81,0,0,0,244.19,395.75Z"/><path class="cls-4" d="M243.17,396.13a5.11,5.11,0,0,1,1-.38A29.81,29.81,0,0,1,264,408.09l-.32.06A107.36,107.36,0,0,0,243.17,396.13Z"/><path class="cls-4" d="M151,436.68s15.73-24.18,38.92-55c18.39,2.95,36.75,7,53.23,14.45-2.28,1.14-.12,3.13.11,4,6.27,4.45,13.72,9.57,20.41,8a90.43,90.43,0,0,1,16.54,16.1C227.15,436.87,175,439.31,151,436.68Z"/><path class="cls-4" d="M243.28,400.13c-.23-.87-2.39-2.86-.11-4a107.36,107.36,0,0,1,20.52,12C257,409.7,249.55,404.58,243.28,400.13Z"/><path class="cls-10" d="M375.71,160.34a11.11,11.11,0,0,1,4.43-2.13A6.32,6.32,0,0,1,384,159c2.64,1.39,5.6,4.48,8.89,3.21.59-.23.33-1.2-.27-1-1.63.64-3.42-.17-4.83-1a33.78,33.78,0,0,0-4.37-2.6c-3-1.19-5.75.09-8.23,1.81-.52.37,0,1.23.51.87Z"/><path class="cls-11" d="M385.3,160.48c2.88,2.68-.58,10.45-4.66,10-1.86-.12-9.1-.41-6.77-7C376,158.67,380,156.05,385.3,160.48Z"/><path class="cls-10" d="M385,160.74c1.79,1.73.81,4.91-.31,6.73a5.85,5.85,0,0,1-2.59,2.43,5,5,0,0,1-2.43.16c-1.71-.15-3.71-.5-5-1.77-2-2-.52-5.28.91-7.16a5.94,5.94,0,0,1,3.93-2.52c2-.22,3.94.89,5.45,2.13.37.31.9-.22.53-.53a9,9,0,0,0-5.3-2.37,5.93,5.93,0,0,0-4.11,1.63c-2.1,1.89-4.09,5.6-2.64,8.39,1,2,3.45,2.62,5.47,2.87a8.74,8.74,0,0,0,2.65.1,5.5,5.5,0,0,0,3.19-2.19c1.66-2.15,3-6.22.74-8.43C385.21,159.88,384.68,160.41,385,160.74Z"/><path class="cls-10" d="M375.72,159.51a10.6,10.6,0,0,0-2.59,4.93,5.8,5.8,0,0,0,1.5,4.7,7.19,7.19,0,0,0,4.56,2.31,16.55,16.55,0,0,0,6.6-1,.5.5,0,0,0-.26-1c-3.28,1-7.24,2-10-.79a4.86,4.86,0,0,1-1.45-4.17,9.57,9.57,0,0,1,2.31-4.29c.39-.5-.31-1.21-.71-.71Z"/><path class="cls-10" d="M374.56,167.59a7,7,0,0,0-6.33-3,.5.5,0,0,0-.5.5.51.51,0,0,0,.5.5,6,6,0,0,1,5.47,2.55.52.52,0,0,0,.68.18.51.51,0,0,0,.18-.69Z"/><path class="cls-10" d="M368.94,165.35c2.76-2.24,5.35-5.19,8.77-6.44a5.52,5.52,0,0,1,4.35.07,41.53,41.53,0,0,1,3.72,2.13,8.14,8.14,0,0,0,4.61,1.27c.64,0,.64-1,0-1-3.15.25-5.48-2.34-8.23-3.44-3.25-1.3-6.41.54-9,2.5-1.72,1.34-3.29,2.83-5,4.2-.5.41.21,1.11.71.71Z"/><path class="cls-10" d="M374.34,160a11.68,11.68,0,0,0-1.95,5.47l.75-.43a6.87,6.87,0,0,0-2.94-1v1a3.86,3.86,0,0,0,3.63-3.07.51.51,0,0,0-.84-.48l-2.24,1.9c-.43.37.14,1.12.6.79a41.78,41.78,0,0,0,3.45-2.91,9.07,9.07,0,0,1,3.81-2.27,6.68,6.68,0,0,1,3.88.76,8.21,8.21,0,0,0,4,.81c.63-.07.64-1.07,0-1-2.87.35-5.25-2.19-8.16-1.53s-5,3.56-7.49,5.28l.61.78,2.24-1.91-.84-.48a2.84,2.84,0,0,1-2.66,2.33.5.5,0,0,0,0,1,5.76,5.76,0,0,1,2.44.86.5.5,0,0,0,.75-.43,10.69,10.69,0,0,1,1.81-5c.37-.53-.5-1-.86-.51Z"/><path class="cls-10" d="M372.51,165a.5.5,0,0,0,0-1,.5.5,0,0,0,0,1Z"/><path class="cls-10" d="M373.84,166.92a.5.5,0,0,0,0-1,.5.5,0,0,0,0,1Z"/><path class="cls-10" d="M413.92,152.47a6,6,0,0,0-3.2-.95,2.87,2.87,0,0,0-2,1.23,11.27,11.27,0,0,0-1.33,2.75c-.35.94-1,2.94-2.31,2.79-.64-.08-.64.92,0,1,1.32.16,2.22-1.16,2.73-2.19s.78-2.12,1.32-3.12a2.5,2.5,0,0,1,1.47-1.43,4.44,4.44,0,0,1,2.85.79c.56.3,1.07-.56.5-.87Z"/><path class="cls-11" d="M408.59,155.86c-.68,2.19,2.49,8.08,5,6.91.86-.51,4.29-2.36,1.76-7.11C413.07,151.9,410.14,150.43,408.59,155.86Z"/><path class="cls-10" d="M408.23,155.76a4.61,4.61,0,0,0,.22,2.62,10.38,10.38,0,0,0,1.48,2.91,5.13,5.13,0,0,0,2.23,1.87,2.18,2.18,0,0,0,2-.29,4.82,4.82,0,0,0,2.5-4.05,7.25,7.25,0,0,0-1.31-3.89,8.62,8.62,0,0,0-2.32-2.49,2.53,2.53,0,0,0-2.69-.2c-1.2.72-1.74,2.26-2.1,3.52a.37.37,0,0,0,.72.2c.42-1.44,1.41-4.06,3.37-3.05a6.09,6.09,0,0,1,2,1.89,7.64,7.64,0,0,1,1.53,3.48,3.92,3.92,0,0,1-1.81,3.76,1.88,1.88,0,0,1-1.34.49,3.23,3.23,0,0,1-1.86-1.28,8.94,8.94,0,0,1-1.59-2.78A4.26,4.26,0,0,1,409,156,.37.37,0,0,0,408.23,155.76Z"/><path class="cls-10" d="M413,153.38c1.62,1.69,2.9,3.65,2.6,6.11a4.19,4.19,0,0,1-1.27,2.71,5.1,5.1,0,0,1-3.27.8.5.5,0,0,0,0,1,6.3,6.3,0,0,0,3.75-.91,4.89,4.89,0,0,0,1.72-3.13,7.14,7.14,0,0,0-.55-4.2,11.51,11.51,0,0,0-2.28-3.09c-.44-.46-1.15.24-.7.71Z"/><path class="cls-10" d="M416.66,159.41a7.26,7.26,0,0,1,.32-1.3,4.32,4.32,0,0,1,.47-1l.15-.22s0,0,0,0l.08-.1a3.51,3.51,0,0,1,.34-.33s.12-.09,0,0l.1-.07.17-.1.11-.06s.14,0,0,0l.22-.07a.52.52,0,0,0,.35-.62.5.5,0,0,0-.62-.34c-1.7.47-2.47,2.4-2.72,4a.52.52,0,0,0,.35.62.5.5,0,0,0,.61-.35Z"/><path class="cls-10" d="M418.62,155.25a45.22,45.22,0,0,0-4.43-3c-1.2-.61-2.79-1.12-4-.28a6.69,6.69,0,0,0-1.94,3c-.43,1-.92,2.47-2,2.84-.61.2-.35,1.16.26,1,2.38-.78,2.44-3.92,3.86-5.6.93-1.11,2.41-.58,3.5,0,1.53.82,2.85,2,4.29,2.91.53.36,1-.51.5-.86Z"/><path class="cls-10" d="M413.77,153.44a11.73,11.73,0,0,1,2.05,3.81.5.5,0,0,0,.91.12,3,3,0,0,1,1-1.22.51.51,0,0,0-.39-.92c-.8.21-1.34-.54-1.59-1.21l-.73.57,1.58,1.1.5-.86c-1.09-.6-2-1.46-3.06-2.13a3.51,3.51,0,0,0-2.9-.66,4.08,4.08,0,0,0-1.79,1.7c-.42.62-.86,1.43-1.64,1.62-.62.15-.36,1.12.27,1a3.29,3.29,0,0,0,1.79-1.43,6.91,6.91,0,0,1,1.44-1.78c.77-.51,1.78.1,2.45.54,1,.65,1.88,1.47,2.94,2a.5.5,0,0,0,.5-.86l-1.58-1.11a.51.51,0,0,0-.73.57c.44,1.19,1.44,2.26,2.82,1.91l-.39-.92a4.13,4.13,0,0,0-1.34,1.59l.91.12a13,13,0,0,0-2.3-4.25c-.41-.5-1.12.21-.71.7Z"/><path class="cls-10" d="M416.27,156.66a.5.5,0,0,0,0-1,.5.5,0,0,0,0,1Z"/><path class="cls-10" d="M416.71,156a.5.5,0,0,0,0-1,.5.5,0,0,0,0,1Z"/><path class="cls-10" d="M417.08,156a.5.5,0,0,0,0-1,.5.5,0,0,0,0,1Z"/><path class="cls-10" d="M416,158.58a.5.5,0,0,0,0-1,.5.5,0,0,0,0,1Z"/><path class="cls-12" d="M415.32,185.79c-8.63,2-20.9,2-20.78-4.12S415.32,185.79,415.32,185.79Z"/><path class="cls-13" d="M392.47,178.22s3-15.36,18.64-11.39c10.11,6.54,10.32,14.78,10.32,14.78-1.13,3.43-12.1,1.28-12.1,1.28S393.91,187.16,392.47,178.22Z"/><path class="cls-9" d="M316.93,232.22c11.35-8.44,82.94,16.15,89.82,31.81-39.06-8.87-95.35-11.84-104.27,2.48-25,20.11-16.9-14.84-5.13-21.52C304.21,230.63,316.93,232.22,316.93,232.22Z"/><path class="cls-9" d="M425.77,224.7c6.49,12.69,5,32.58-19,39.33-6.89-7.61-5.75-6.85-5.75-6.85,10.51-7.65,22.83-25,22.88-29.1C426.1,224.47,425.77,224.7,425.77,224.7Z"/><path class="cls-14" d="M373.12,252.54c4.22-.42,11.56,5.44,11.87,6.46s-16.69-1-16.69-1S370.06,252.84,373.12,252.54Z"/><path class="cls-14" d="M420.35,248.58c-4.25,2.15-3.37,11-3.37,11l8.26-7.62C425.74,248.43,420.35,248.58,420.35,248.58Z"/><path class="cls-15" d="M377.78,258.3c2.53,0,4.07,2.71,5.09,5a88.82,88.82,0,0,1,4.91,12.95c1.79,6.77,1.93,13.86,3,20.79.91,6.22,2.66,12.58,6.5,17.48a.85.85,0,0,1-1,1.33,8.13,8.13,0,0,1-2.85-2.37c-3-3.78-4.34-8.62-5-13.39s-.69-9.65-1.67-14.37c-3.75-18.09-6.07-18.14-8-27.35"/><path class="cls-15" d="M422.35,254.71c-2.88,16.46.58,33.27,2.06,49.92.33,3.68.34,7.92-2.4,10.38q-.81-8.38-1.63-16.78c-1.12-11.57-2.23-23.32-.14-34.75a62.78,62.78,0,0,1,2.8-10.26"/><path class="cls-16" d="M298.39,245.38c3.59-1.5,7,1.29,10.27,2.44,3.5,1.24,7.26.67,10.83.1.48-.07.28-.79-.2-.72-3.8.61-7.67,1.1-11.32-.45-3.05-1.3-6.37-3.52-9.78-2.09-.44.18-.25.91.2.72Z"/><path class="cls-16" d="M301.36,243.14c3.51-.18,6.62,2.2,10.16,1.64.48-.08.27-.8-.2-.72-3.42.54-6.53-1.84-10-1.67-.48,0-.48.77,0,.75Z"/><path class="cls-17" d="M414.2,242.65c-3.38,4-10.62,13-13.48,13.64-5-4-25-13.23-25-13.23Z"/><path class="cls-16" d="M381.44,381.49A125.73,125.73,0,0,1,336,369.63a128.83,128.83,0,0,1-11.79-6.38.63.63,0,0,0-.63,1.08,126.57,126.57,0,0,0,57.84,18.41c.8.06.8-1.19,0-1.25Z"/><path class="cls-16" d="M325.79,365.66A124.7,124.7,0,0,1,278,397.51c-5.45,2.05-11,3.82-16.57,5.46a.63.63,0,0,0,.33,1.21A182.17,182.17,0,0,0,291,393.26a122.21,122.21,0,0,0,35.72-26.72c.54-.59-.34-1.47-.89-.88Z"/><path class="cls-16" d="M324,363l-.32-.38a.63.63,0,0,0-.2-.13.43.43,0,0,0-.25-.05.42.42,0,0,0-.24.05.63.63,0,0,0-.2.13l-.1.13a.65.65,0,0,0-.08.31l0,.17a.67.67,0,0,0,.16.27l.32.38a.46.46,0,0,0,.21.13.39.39,0,0,0,.24.05.42.42,0,0,0,.24-.05.49.49,0,0,0,.2-.13l.1-.12a.72.72,0,0,0,.08-.32l0-.17A.63.63,0,0,0,324,363Z"/><path class="cls-16" d="M253.59,399.69c5.26,2.62,9.2,7,13,11.33a108.09,108.09,0,0,0,13.63,13.26c.63.5,1.52-.38.89-.88a110,110,0,0,1-13.9-13.57c-3.81-4.31-7.78-8.62-13-11.22-.72-.36-1.36.72-.64,1.08Z"/><path class="cls-16" d="M426.63,259.76a55.24,55.24,0,0,1,2.93,8.11,40.62,40.62,0,0,0,2.75,7.58c.15.29.59,0,.44-.25a43.6,43.6,0,0,1-2.87-8,52.55,52.55,0,0,0-2.82-7.7c-.14-.29-.57,0-.43.26Z"/><path class="cls-16" d="M389.23,372.52c-1,2.77-3.84,4.41-4.55,7.31-.08.31.41.44.48.13.7-2.88,3.58-4.54,4.56-7.3.1-.31-.38-.44-.49-.14Z"/><path class="cls-16" d="M332.15,359.37l-8.45,3.33c-.29.12-.17.6.13.48l8.45-3.32c.3-.12.17-.6-.13-.49Z"/><path class="cls-16" d="M323.54,363a75.52,75.52,0,0,0,8.86-5c.27-.18,0-.61-.25-.43a77,77,0,0,1-8.86,5c-.29.14,0,.57.25.43Z"/><path class="cls-16" d="M299.7,269.46a39.11,39.11,0,0,1,9.17.48c.32.06.45-.43.14-.48a39.77,39.77,0,0,0-9.31-.5c-.32,0-.32.52,0,.5Z"/><path class="cls-16" d="M302,267.64l3.35.36a.26.26,0,0,0,.25-.25.25.25,0,0,0-.25-.25l-3.35-.36a.25.25,0,0,0,0,.5Z"/><path class="cls-16" d="M384.62,376.21c-.57,1.65-1.17,3.3-1.81,4.93-.12.3.37.43.48.14.64-1.64,1.24-3.28,1.81-4.94.11-.3-.37-.44-.48-.13Z"/><path class="cls-16" d="M329.2,286.41a19.2,19.2,0,0,1,5.25,5.95.25.25,0,0,0,.43-.25,19.79,19.79,0,0,0-5.42-6.13c-.26-.2-.51.24-.26.43Z"/><path class="cls-16" d="M329.2,289.14a8,8,0,0,1,3.52,3.06c.17.27.61,0,.44-.25a8.61,8.61,0,0,0-3.7-3.24c-.3-.13-.55.3-.26.43Z"/><path class="cls-16" d="M386.35,247.71a24,24,0,0,1,4.48,3.13c.24.21.6-.14.36-.35a24.39,24.39,0,0,0-4.59-3.21c-.28-.15-.53.28-.25.43Z"/><path class="cls-16" d="M430.48,317.78c-2.51,4.59-4.76,9.29-7.05,14-2.1,4.32-4.72,8.63-9.22,10.75-.29.14,0,.57.25.44,4.29-2,7-6,9-10.14,2.47-4.95,4.79-9.95,7.45-14.8a.25.25,0,0,0-.44-.25Z"/><path class="cls-16" d="M253.22,397.92A337.84,337.84,0,0,0,202.76,384q-7.24-1.41-14.56-2.49c-.78-.12-1.12,1.09-.33,1.2a337.58,337.58,0,0,1,51,11.7q7.05,2.2,14,4.72c.75.27,1.08-.94.33-1.21Z"/><line class="cls-18" x1="413.7" y1="150.57" x2="405.64" y2="150.49"/><line class="cls-18" x1="385.69" y1="150.96" x2="370.85" y2="158.46"/></svg>