<svg id="Layer_1" data-name="Layer 1" xmlns="http://www.w3.org/2000/svg" viewBox="0 0 559 559"><defs><style>.cls-1{fill:#313c80;}.cls-2{fill:#843d2c;}.cls-3{fill:#1669af;stroke:#26a9e0;stroke-width:0.5px;}.cls-18,.cls-21,.cls-22,.cls-3,.cls-7{stroke-miterlimit:10;}.cls-4{fill:#e25988;}.cls-5{fill:#d0d2d3;}.cls-6{fill:#662b1e;}.cls-14,.cls-21,.cls-7{fill:#3e88bf;}.cls-18,.cls-21,.cls-22,.cls-7{stroke:#2e3191;}.cls-7{stroke-width:0.75px;}.cls-8{fill:#df417e;}.cls-9{fill:#231f20;}.cls-10{fill:#c0bc31;}.cls-11{fill:#9c732a;}.cls-12{fill:#dc9a30;}.cls-13{fill:#7c2d19;}.cls-15{fill:#803824;}.cls-16{fill:#13153e;}.cls-17{fill:#fff;}.cls-18{fill:none;}.cls-19{fill:#2e3191;}.cls-20{fill:#e6e7e7;}.cls-22{fill:#3580b0;}</style></defs><path class="cls-1" d="M308.54,284.84c4.35,7.81,4.93,17,3.91,25.68-.26,2.28-.66,4.54-1.11,6.78-.22,1.12-.46,2.23-.71,3.34a6.89,6.89,0,0,1-.49,2.06c-.46.62-1.92,1-2.6,1.3l-3.6,1.68c-2.14,1-4.29,2-6.43,3a36.39,36.39,0,0,0-6.43,3.71c-1.54,1.16-3.24,2.82-5.29,2.77l2.5,2.5c-1-7.68,3.07-14.59,6.28-21.24,3.52-7.29,6.5-14.81,11.1-21.52,2.56-3.73,5.43-7.22,8.29-10.7a2.54,2.54,0,0,0-1.1-4.18c-3.33-1.35-5.63-4.53-7.36-7.52-2.12-3.65-3.71-7.61-6.24-11-2.22-3-5-5.26-7.79-7.72-2.39-2.14-4.71-4.44-5.47-7.67s-5.55-1.8-4.82,1.33c1.85,7.91,10,11.08,14.27,17.29,2.55,3.66,4.14,7.88,6.53,11.63a20.57,20.57,0,0,0,9.55,8.5l-1.1-4.18c-5.41,6.57-10.6,13.2-14.4,20.85-1.88,3.81-3.55,7.72-5.38,11.55s-3.73,7.42-5.25,11.29a26.93,26.93,0,0,0-2.11,13.31,2.58,2.58,0,0,0,2.5,2.5,10.42,10.42,0,0,0,6.37-2.36A43.55,43.55,0,0,1,298,334c4.61-2.37,9.53-4.17,14.09-6.63,2.38-1.29,2.94-3.42,3.5-5.88s1.06-5.09,1.45-7.66a62.08,62.08,0,0,0,.64-15.52,41,41,0,0,0-4.8-16c-1.56-2.81-5.88-.29-4.31,2.53Z"/><path class="cls-2" d="M316.81,236.9s29.67-24.49,37.34-66.09c14.66-42.63,49.66-49.91,66.66-27,7,57.51-8.89,105-10.44,108.15S316.81,236.9,316.81,236.9Z"/><path class="cls-3" d="M388.3,329.35s-20.68,38.25-24,37.87c-14,4.56-47.49,7.07-47.49,7.07Z"/><path class="cls-4" d="M307.47,388.76s-.63,3.84-.19,4.68a28.07,28.07,0,0,1,1.21,3.55s2.57,2.84,2.37,5.05c-.13,1.51,1.21,3.85,2.18,5.32a36.94,36.94,0,0,0-4.14,1.08,3.9,3.9,0,0,0-.81-2.05c-1.95-2.61-3.07-2.74-3.07-2.74a6,6,0,0,1-.6-1.47,6.92,6.92,0,0,0-1.3-2.68c-.32-.06-.17-5.26-.17-5.26l-.34-4.49Z"/><path class="cls-4" d="M298.38,414.17c.53-1.13,1.9-1.53,3.11-1.81a14.53,14.53,0,0,0,4.44-1.53c1.29-.55,2.65-1.33,2.79-2.86a18.88,18.88,0,0,0,4.17-.89c4.25,4.85,11.56,1.19,17,3.21a3.81,3.81,0,0,0-2,4.57c-3-.16-10.83.53-10.55,4.57a13,13,0,0,1-5.37-1.06,32.76,32.76,0,0,0-3.42-2.07c-2.93-1-5.75,1-8.45,1.77a1.36,1.36,0,0,1-.82.05c-.42-.15-.6-.64-.72-1.07A4.16,4.16,0,0,1,298.38,414.17Z"/><path class="cls-5" d="M298.81,413.51c-4.27,3.22-4.71,5.83-4.71,5.83s3.9-.95,6.22-1.2C298.16,417.77,298.81,413.51,298.81,413.51Z"/><path class="cls-5" d="M329.57,409.9c3.75-1.15,5.48,3.42,8.1,5.09a22.56,22.56,0,0,1-9.54-.13,1.16,1.16,0,0,1-.67-.33,1.13,1.13,0,0,1-.1-.87,7.32,7.32,0,0,1,2.13-3.89"/><path class="cls-5" d="M321.53,415c4.35.24,4.06,5.15,6,7.87A25.54,25.54,0,0,1,315.79,420c-.34-.17-.69-.37-.73-.7s.32-.82.7-1.17a13.79,13.79,0,0,1,5.75-3.26"/><path class="cls-6" d="M319.91,370.31a.52.52,0,0,1,.47.77c-2.17,3.94-11.79,21.21-13.57,21.21a12,12,0,0,1-4.07-.89s-24.93-16.11-20.93-18.11C285.43,371.48,314.4,370.49,319.91,370.31Z"/><path class="cls-7" d="M410.42,248.2C434.29,428.87,161.72,395,100,372.94c0,0,142.59-135.58,212.18-136.93C350.43,227.55,410.42,248.2,410.42,248.2Z"/><path class="cls-8" d="M253.28,402.26a1.82,1.82,0,0,1,1.79,2.32,7.67,7.67,0,0,0-.49,3.09,30.25,30.25,0,0,1,.59,4c.44,1.61,2.37,4.17,1.69,6.83a8.86,8.86,0,0,0,.53,4.45,1.81,1.81,0,0,1-1.61,2.36l-.85.06A1.83,1.83,0,0,1,253,424a5.33,5.33,0,0,0-.36-1,10.13,10.13,0,0,0-2.55-3.61,2.68,2.68,0,0,1-.82-2.13c.05-.59-.57-3.3-.94-3.44s.79-5.36,1-6.1a1.1,1.1,0,0,0,0-.18l.41-3.65a1.82,1.82,0,0,1,1.79-1.62Z"/><path class="cls-4" d="M239.56,430c.86-1.21,2.55-1.38,4-1.44a17.66,17.66,0,0,0,5.54-.81,5.43,5.43,0,0,0,3.52-1.89,1.74,1.74,0,0,1,1.53-.77,21.63,21.63,0,0,0,3.94-.18c2,3.78,6.56,4.56,10.58,5.16a42.44,42.44,0,0,1,5.31,1,1.81,1.81,0,0,1,.91,2.86,4.68,4.68,0,0,0-.89,1.64,1.84,1.84,0,0,1-2.05,1.35c-3.21-.39-9-.81-11.05,2.12a1.85,1.85,0,0,1-2.07.86,12.4,12.4,0,0,1-4.38-2c-1.26-1-2.18-2.37-3.54-3.18-3.2-1.86-6.95-.15-10.29.19a1.59,1.59,0,0,1-1-.12,1.74,1.74,0,0,1-.61-1.42A4.91,4.91,0,0,1,239.56,430Z"/><path class="cls-5" d="M236.75,431.39a1.89,1.89,0,0,0,1.09,3.58C241.05,434.73,239.55,429.66,236.75,431.39Z"/><path class="cls-5" d="M277,431.89a4.46,4.46,0,0,1,3.67,1.26,14,14,0,0,1,2.52,3.52,1.84,1.84,0,0,1-1.86,2.73,27.09,27.09,0,0,1-7.12-2,1.39,1.39,0,0,1-.71-.54,1.29,1.29,0,0,1,.08-1,8.73,8.73,0,0,1,3.35-4.09"/><path class="cls-5" d="M266.48,436.12c3.18.78,4,3.69,4.3,6.51.05.42.11.84.17,1.26a1.82,1.82,0,0,1-2.34,2,32,32,0,0,1-10-5.23c-.35-.28-.72-.59-.7-1s.57-.89,1.08-1.21a16.35,16.35,0,0,1,7.46-2.55"/><path class="cls-9" d="M382.65,156.22a11.77,11.77,0,0,1,4.55-1.05,5.8,5.8,0,0,1,3.41,1.34c2.58,2,4.63,6,8.45,5.52.64-.09.37-1.05-.26-1-2,.27-3.87-1.48-5.05-2.84a15.22,15.22,0,0,0-3.34-3.07c-2.55-1.58-5.41-.92-8,.11-.59.23-.33,1.2.27,1Z"/><path class="cls-10" d="M392,158.58c2.18,3.28-3,10-6.85,8.67-1.79-.54-8.76-2.51-5-8.4C383.3,154.66,387.81,153.05,392,158.58Z"/><path class="cls-9" d="M391.63,158.77c1.33,2.09-.32,4.92-1.81,6.44a6,6,0,0,1-3,1.79,5,5,0,0,1-2.46-.38c-1.66-.56-3.59-1.38-4.5-3-1.42-2.52,1-5.45,2.9-6.9a5.68,5.68,0,0,1,4.29-1.27,7.76,7.76,0,0,1,4.62,3.3c.29.38.94,0,.65-.38a9.3,9.3,0,0,0-4.38-3.48,5.82,5.82,0,0,0-4.31.41,10.36,10.36,0,0,0-3.77,3.34,5.7,5.7,0,0,0-1.1,4.12c.42,2.28,2.71,3.56,4.7,4.31a8.57,8.57,0,0,0,2.62.71,5.46,5.46,0,0,0,3.57-1.4c2.11-1.69,4.37-5.34,2.67-8C392,158,391.37,158.36,391.63,158.77Z"/><path class="cls-9" d="M382.77,155.49a10.54,10.54,0,0,0-3.52,4,5.83,5.83,0,0,0,.36,5.1,7.23,7.23,0,0,0,4.17,3.34,17.34,17.34,0,0,0,6.34.44c.64,0,.64-1,0-1-3.45.19-7.56.24-9.56-3.13a4.83,4.83,0,0,1-.26-4.66,10.61,10.61,0,0,1,3.18-3.39c.51-.39-.21-1.1-.71-.71Z"/><path class="cls-9" d="M379.87,163a7.05,7.05,0,0,0-5.58-4.45c-.27,0-.5.25-.5.5a.52.52,0,0,0,.5.5,6,6,0,0,1,4.61,3.72.5.5,0,1,0,1-.27Z"/><path class="cls-9" d="M374.9,159.53c1.75-.84,3.43-1.8,5.18-2.63a14.82,14.82,0,0,1,5.34-1.65,5.55,5.55,0,0,1,4,1.31c1.09.87,2,1.95,3,2.88a7.84,7.84,0,0,0,4,2.17c.63.1.9-.87.27-1-3-.46-4.65-3.28-6.89-5a6.34,6.34,0,0,0-3.95-1.41,13.71,13.71,0,0,0-5.35,1.37c-2.09.91-4.07,2.08-6.13,3.07-.58.28-.07,1.14.5.86Z"/><path class="cls-9" d="M381.41,155.61a11.71,11.71,0,0,0-3.17,4.86l.84-.22a6.88,6.88,0,0,0-2.63-1.66l-.13,1a3.82,3.82,0,0,0,4.17-2.26c.17-.44-.39-.74-.74-.57l-2.62,1.34c-.5.25-.15,1.12.39.91,1.52-.61,2.92-1.46,4.38-2.21a7.27,7.27,0,0,1,4.53-1.08,9.55,9.55,0,0,1,3.33,1.83,7.5,7.5,0,0,0,3.45,1.48c.64.07.64-.93,0-1-2.66-.31-4.28-3-7-3.34-3.29-.39-6.13,2.22-9,3.36l.39.91,2.62-1.33-.74-.57a2.88,2.88,0,0,1-3.2,1.53c-.59-.07-.63.81-.13,1a5.92,5.92,0,0,1,2.18,1.4.5.5,0,0,0,.83-.22,10.77,10.77,0,0,1,2.92-4.41c.48-.43-.23-1.14-.71-.71Z"/><path class="cls-9" d="M378.59,160a.5.5,0,0,0,0-1,.5.5,0,0,0,0,1Z"/><path class="cls-9" d="M379.44,162.21a.5.5,0,0,0,0-1,.5.5,0,0,0,0,1Z"/><path class="cls-9" d="M421.67,157.44a5.92,5.92,0,0,0-2.9-1.67,2.84,2.84,0,0,0-2.27.72,10.7,10.7,0,0,0-2,2.46c-.54.8-1.64,2.51-2.83,2.08-.6-.22-.86.75-.26,1,1.1.4,2.14-.36,2.87-1.14s1.36-1.93,2.11-2.84a2.92,2.92,0,0,1,1.85-1.28c1-.08,2,.78,2.7,1.41.48.42,1.19-.28.71-.71Z"/><path class="cls-10" d="M415.69,159.49c-1.17,2,.55,8.44,3.27,7.88,1-.3,4.72-1.3,3.36-6.51C421,156.68,418.45,154.56,415.69,159.49Z"/><path class="cls-9" d="M415.36,159.3a4.57,4.57,0,0,0-.4,2.53,10.42,10.42,0,0,0,.72,3.12c.6,1.46,1.8,3.28,3.63,2.7a5,5,0,0,0,3.28-2.66,6.11,6.11,0,0,0,.25-3.49,9.33,9.33,0,0,0-1.6-3.76,2.88,2.88,0,0,0-2.73-1.44c-1.48.26-2.47,1.81-3.15,3a.38.38,0,0,0,.65.38c.55-1,1.31-2.26,2.46-2.6a1.93,1.93,0,0,1,2,.83,8.44,8.44,0,0,1,1.56,3.18,6,6,0,0,1,0,3.25,4,4,0,0,1-2.65,2.5,1.56,1.56,0,0,1-1.38,0,3.68,3.68,0,0,1-1.43-1.75,9.13,9.13,0,0,1-.83-3,4.17,4.17,0,0,1,.27-2.47A.38.38,0,0,0,415.36,159.3Z"/><path class="cls-9" d="M420.52,158.08c1.19,2,2,4.18,1.15,6.49a4.45,4.45,0,0,1-1.63,2.27,4.7,4.7,0,0,1-3.61.16c-.62-.13-.89.83-.26,1a6,6,0,0,0,4.12-.13,5,5,0,0,0,2.18-2.59,7.19,7.19,0,0,0,.44-4,11.27,11.27,0,0,0-1.52-3.65.5.5,0,0,0-.87.5Z"/><path class="cls-9" d="M422.76,164.7a8.05,8.05,0,0,1,.59-1.11l.16-.24.09-.12c-.06.08,0,0,0,0a5.14,5.14,0,0,1,.38-.42l.19-.17.06,0,.08-.06a2.38,2.38,0,0,1,.41-.23.31.31,0,0,1,.1,0c-.12,0,0,0,0,0l.2-.06.21,0c.1,0-.11,0,0,0h.12a.5.5,0,0,0,.5-.5.51.51,0,0,0-.5-.5c-1.83.07-3,1.83-3.63,3.36a.49.49,0,0,0,.35.61.51.51,0,0,0,.61-.35Z"/><path class="cls-9" d="M425.59,161.23a46.9,46.9,0,0,0-3.56-3.89c-1-.88-2.42-1.77-3.81-1.28a6.3,6.3,0,0,0-2.62,2.45c-.64.85-1.48,2.25-2.67,2.35-.64,0-.64,1,0,1,2.53-.22,3.28-3.27,5.1-4.58,1.18-.84,2.51.06,3.42.88,1.27,1.14,2.28,2.53,3.44,3.78.44.47,1.14-.24.7-.71Z"/><path class="cls-9" d="M421.28,158.33a11.91,11.91,0,0,1,1.12,4.17c0,.39.54.72.85.36a3,3,0,0,1,1.24-1c.5-.19.47-1-.13-1-.84,0-1.2-.82-1.29-1.53l-.85.35,1.28,1.44.71-.7c-.87-.78-1.52-1.74-2.31-2.59a4.09,4.09,0,0,0-2.54-1.53,3.35,3.35,0,0,0-2.28,1.1c-.59.53-1.26,1.34-2.12,1.34a.5.5,0,0,0,0,1,3.37,3.37,0,0,0,2.18-1c.56-.49,1.19-1.27,2-1.38s1.7.79,2.22,1.38a29.4,29.4,0,0,0,2.17,2.43.5.5,0,0,0,.71-.7L422.92,159a.5.5,0,0,0-.85.36c.15,1.25.86,2.56,2.29,2.53l-.14-1a4.17,4.17,0,0,0-1.68,1.23l.86.35a13.06,13.06,0,0,0-1.25-4.67c-.29-.58-1.15-.07-.87.5Z"/><path class="cls-9" d="M423.09,162.06a.5.5,0,0,0,0-1,.5.5,0,0,0,0,1Z"/><path class="cls-9" d="M423.68,161.47a.5.5,0,0,0,0-1,.5.5,0,0,0,0,1Z"/><path class="cls-9" d="M424,161.56a.5.5,0,0,0,0-1,.5.5,0,0,0,0,1Z"/><path class="cls-9" d="M422.4,163.87a.5.5,0,0,0,0-1,.5.5,0,0,0,0,1Z"/><path class="cls-11" d="M416.06,188c-8.81,1-21-.44-20.15-6.53S416.06,188,416.06,188Z"/><path class="cls-12" d="M394.83,177.5s6.49-14.24,20.77-6.75c8.31,8.7,6.6,16.77,6.6,16.77-1.89,3.07-12.06-1.57-12.06-1.57S394.15,186.53,394.83,177.5Z"/><path class="cls-13" d="M153.81,367.29c-30.48,4-54,5-54,5s-8,0,44.09-41.05"/><path class="cls-14" d="M152.86,365.38c60.71-7.88,153.3-23.46,164-46.09,16-34-31-79-31-79C239.89,254,182.64,298,143.9,331.24"/><path class="cls-15" d="M266.81,389.29c.41,0,.76-.56.57-.21-2.17,3.94-11.79,21.21-13.57,21.21a12,12,0,0,1-4.07-.89s-25.4-18.11-20.93-18.11C237.81,391.29,261.3,389.46,266.81,389.29Z"/><path class="cls-7" d="M308.82,212.51c13-5.57,76.93,35,80,51.78-35.93-17.69-90-33.63-102-21.76-29,13.76-13-18.37,0-22.13C296.81,208,308.82,212.51,308.82,212.51Z"/><path class="cls-7" d="M416.44,230.44c3.37,13.85-2.69,32.85-27.63,33.85-4.93-9-4-8-4-8,12-5,28-19,29-23C416.81,230.29,416.44,230.44,416.44,230.44Z"/><path class="cls-16" d="M358.77,245.31c4.19.57,10,8,10,9s-16-4.84-16-4.84S355.72,244.9,358.77,245.31Z"/><path class="cls-16" d="M405.63,252.41c-4.64,1.1-5.82,9.88-5.82,9.88l9.8-5.49C410.91,253.51,405.63,252.41,405.63,252.41Z"/><path class="cls-17" d="M362,252c2.46.61,3.34,3.58,3.79,6.07a88.51,88.51,0,0,1,1.78,13.73c.16,7-1.33,13.93-2,20.91-.55,6.26-.32,12.85,2.28,18.52a.85.85,0,0,1-1.27,1,8,8,0,0,1-2.23-3c-2.05-4.37-2.23-9.39-1.78-14.19s1.56-9.55,1.7-14.37c.54-18.46-1.7-19.05-1.46-28.46"/><path class="cls-17" d="M406.15,258.84c-6.62,15.34-7.15,32.5-9.57,49-.53,3.66-1.5,7.79-4.74,9.55l2.31-16.71c1.59-11.51,3.23-23.2,7.92-33.83a62.6,62.6,0,0,1,5.1-9.34"/><path class="cls-18" d="M153.31,365.79s-2.41-3.7-9.5-34.5"/><path class="cls-19" d="M287.82,221c3.94-.65,6.69,3.19,9.71,5s6.68,2.11,10.13,2.38c.48,0,.48-.72,0-.75-3.71-.29-7.52-.65-10.65-2.87-2.84-2-5.54-5.12-9.39-4.49-.48.08-.28.8.2.73Z"/><path class="cls-19" d="M291.13,219.52c3.45.64,5.93,3.69,9.5,4,.49,0,.48-.71,0-.75-3.46-.26-5.93-3.31-9.3-3.93-.47-.09-.67.63-.2.72Z"/><path class="cls-18" d="M282.81,244.53c22,19.76,47.45,64.78,26.23,81.77-37.23,31-155,40.4-155,40.4"/><path class="cls-20" d="M401,245.21c-4.21,3.08-13.35,10.21-16.28,10.14-3.93-5.06-21.2-18.65-21.2-18.65Z"/><path class="cls-19" d="M337,372.68a125.92,125.92,0,0,1-41.53-22.13,130,130,0,0,1-9.9-8.87.62.62,0,0,0-.88.88,126.87,126.87,0,0,0,52,31.33c.77.24,1.1-1,.33-1.21Z"/><path class="cls-19" d="M286.52,344.37a124.71,124.71,0,0,1-53.83,19.89c-5.8.74-11.63,1.18-17.46,1.48-.8,0-.8,1.29,0,1.25a181.44,181.44,0,0,0,31-3.84,122.5,122.5,0,0,0,40.93-17.7c.66-.45,0-1.53-.63-1.08Z"/><path class="cls-19" d="M285.4,341.38l-.22-.45a.52.52,0,0,0-.16-.17.42.42,0,0,0-.22-.11.42.42,0,0,0-.25,0,.39.39,0,0,0-.23.07l-.12.1a.54.54,0,0,0-.16.27l0,.17a.62.62,0,0,0,.09.32l.22.44a.52.52,0,0,0,.16.17.39.39,0,0,0,.22.11.52.52,0,0,0,.25,0,.49.49,0,0,0,.23-.08l.12-.1a.59.59,0,0,0,.17-.27l0-.17a.56.56,0,0,0-.09-.31Z"/><path class="cls-15" d="M209.53,360.29c3.28,6.59,19.28,31,19.28,31s-110-2.93-129-18.55C120.81,371.76,209.53,360.29,209.53,360.29Z"/><path class="cls-19" d="M208.37,360.73c4.56,3.81,7.39,9,10.13,14.21a107.35,107.35,0,0,0,10.19,16c.5.63,1.38-.26.89-.88a109.6,109.6,0,0,1-10.37-16.47c-2.67-5-5.53-10.06-10-13.76-.62-.51-1.51.37-.89.89Z"/><path class="cls-19" d="M409.14,264.73a55.5,55.5,0,0,1,1,8.62,40.23,40.23,0,0,0,.91,8,.25.25,0,0,0,.49-.13,42.33,42.33,0,0,1-.93-8.47,54,54,0,0,0-1-8.12c-.06-.32-.54-.19-.48.13Z"/><path class="cls-19" d="M346.63,365.75c-1.59,2.47-4.77,3.39-6.13,6.05-.14.29.29.54.44.26,1.34-2.64,4.53-3.59,6.12-6.05.17-.27-.26-.53-.43-.26Z"/><path class="cls-19" d="M294.08,339.74l-9,1.28c-.32,0-.19.53.13.48l9-1.28c.31,0,.18-.52-.14-.48Z"/><path class="cls-19" d="M284.92,341.29a75.59,75.59,0,0,0,9.77-2.8c.3-.1.17-.59-.13-.48a75.54,75.54,0,0,1-9.77,2.79c-.32.07-.19.55.13.49Z"/><path class="cls-19" d="M283.42,244.74a39.66,39.66,0,0,1,8.81,2.6c.29.12.55-.31.25-.43a39.56,39.56,0,0,0-8.93-2.65c-.31,0-.45.43-.13.48Z"/><path class="cls-19" d="M286.08,243.51l3.18,1.12c.3.11.43-.37.13-.48L286.22,243c-.31-.11-.44.37-.14.48Z"/><path class="cls-19" d="M341.29,368.27q-1.41,2.22-2.91,4.38c-.18.27.25.52.43.25q1.5-2.16,2.91-4.38c.17-.27-.26-.52-.43-.25Z"/><path class="cls-19" d="M308.19,268.07a19.5,19.5,0,0,1,3.73,7,.25.25,0,0,0,.48-.13,19.87,19.87,0,0,0-3.86-7.22c-.2-.25-.55.1-.35.35Z"/><path class="cls-19" d="M307.56,270.73a8.05,8.05,0,0,1,2.71,3.79c.11.3.59.17.49-.13a8.61,8.61,0,0,0-2.85-4,.26.26,0,0,0-.35,0,.25.25,0,0,0,0,.36Z"/><path class="cls-19" d="M372.75,243.68a23.16,23.16,0,0,1,3.64,4.08c.18.26.62,0,.43-.25a24.19,24.19,0,0,0-3.71-4.18c-.24-.22-.6.13-.36.35Z"/><path class="cls-19" d="M399.45,322.07c-3.51,3.88-6.79,7.92-10.1,12-3,3.71-6.59,7.33-11.47,8.34-.32.06-.18.54.13.48,4.69-1,8.23-4.32,11.2-7.88,3.52-4.2,6.91-8.49,10.59-12.56.21-.24-.14-.59-.35-.35Z"/><path class="cls-21" d="M405.85,252.75c41,2.29,87.77,17.2,84.35,26.38s-82.07,11.46-107.14-3.45c-7.84-4.65-11.33,5-11.57,20.92-.16,11.43,1.36,26.09,4.17,40.94,5.78,30.55,17,61.91,30.19,67.75,61.55-37.85,86.63-123.87,86.63-123.87Z"/><path class="cls-22" d="M410.48,254.29c37.82,3,78.2,14,79,26-19.26,7.16-55.5,10-79,3A124.52,124.52,0,0,0,410.48,254.29Z"/></svg>