<svg id="Layer_1" data-name="Layer 1" xmlns="http://www.w3.org/2000/svg" viewBox="0 0 559 559"><defs><style>.cls-1{fill:#313c80;}.cls-2{fill:#843d2c;}.cls-3{fill:#1669af;stroke:#26a9e0;stroke-width:0.5px;}.cls-18,.cls-21,.cls-22,.cls-3,.cls-7{stroke-miterlimit:10;}.cls-4{fill:#e25988;}.cls-5{fill:#d0d2d3;}.cls-6{fill:#662b1e;}.cls-14,.cls-22,.cls-7{fill:#3e88bf;}.cls-18,.cls-21,.cls-22,.cls-7{stroke:#2e3191;}.cls-7{stroke-width:0.75px;}.cls-8{fill:#df417e;}.cls-9{fill:#231f20;}.cls-10{fill:#c0bc31;}.cls-11{fill:#9c732a;}.cls-12{fill:#dc9a30;}.cls-13{fill:#7c2d19;}.cls-15{fill:#803824;}.cls-16{fill:#13153e;}.cls-17{fill:#fff;}.cls-18{fill:none;}.cls-19{fill:#2e3191;}.cls-20{fill:#e6e7e7;}.cls-21{fill:#3580b0;}</style></defs><path class="cls-1" d="M307.89,285.54c4.36,7.81,4.93,16.95,3.92,25.68-.27,2.28-.66,4.54-1.11,6.79-.23,1.11-.47,2.23-.72,3.33a7.12,7.12,0,0,1-.48,2.06c-.46.62-1.92,1-2.6,1.3l-3.6,1.68c-2.15,1-4.3,2-6.44,3a37,37,0,0,0-6.43,3.7c-1.54,1.16-3.24,2.82-5.28,2.77l2.5,2.5c-1-7.67,3.06-14.58,6.28-21.23,3.52-7.3,6.49-14.82,11.1-21.53,2.55-3.72,5.42-7.21,8.29-10.7a2.55,2.55,0,0,0-1.1-4.18c-3.34-1.34-5.63-4.52-7.37-7.52-2.12-3.65-3.7-7.61-6.23-11-2.22-3-5-5.27-7.79-7.73-2.4-2.14-4.72-4.44-5.47-7.66s-5.56-1.81-4.83,1.32c1.85,7.91,10,11.08,14.27,17.29,2.55,3.66,4.14,7.88,6.54,11.64a20.61,20.61,0,0,0,9.55,8.49l-1.11-4.18c-5.4,6.58-10.59,13.2-14.39,20.86-1.89,3.8-3.56,7.71-5.38,11.55s-3.73,7.41-5.26,11.28a26.93,26.93,0,0,0-2.1,13.31,2.57,2.57,0,0,0,2.5,2.5,10.41,10.41,0,0,0,6.36-2.36,43.55,43.55,0,0,1,5.81-3.79c4.62-2.36,9.53-4.17,14.09-6.63,2.38-1.28,2.95-3.41,3.5-5.88s1.07-5.09,1.46-7.66A62.54,62.54,0,0,0,317,299a41,41,0,0,0-4.8-16c-1.57-2.81-5.89-.3-4.32,2.52Z"/><path class="cls-2" d="M316.17,237.61s29.67-24.5,37.33-66.09c14.67-42.64,49.67-49.92,66.67-27,7,57.51-8.89,105-10.45,108.15S316.17,237.61,316.17,237.61Z"/><path class="cls-3" d="M387.65,330.06s-20.68,38.25-24,37.86c-14,4.56-47.48,7.07-47.48,7.07Z"/><path class="cls-4" d="M306.83,389.46s-.64,3.84-.19,4.68a28.14,28.14,0,0,1,1.2,3.55s2.58,2.84,2.38,5.06c-.14,1.5,1.2,3.85,2.17,5.32a35.9,35.9,0,0,0-4.14,1.07,3.8,3.8,0,0,0-.8-2.05c-2-2.61-3.07-2.73-3.07-2.73a5.73,5.73,0,0,1-.6-1.48,6.93,6.93,0,0,0-1.31-2.68c-.31-.06-.16-5.25-.16-5.25l-.35-4.5Z"/><path class="cls-4" d="M297.74,414.88c.52-1.13,1.89-1.54,3.11-1.82a14.72,14.72,0,0,0,4.44-1.53c1.28-.55,2.65-1.33,2.78-2.86a18.4,18.4,0,0,0,4.18-.88c4.24,4.84,11.56,1.18,17,3.2a3.8,3.8,0,0,0-2,4.57c-3-.15-10.84.53-10.55,4.57a13.24,13.24,0,0,1-5.38-1.05,29.53,29.53,0,0,0-3.41-2.07c-2.93-1-5.75,1-8.46,1.76a1.33,1.33,0,0,1-.81.05c-.42-.15-.6-.64-.73-1.07A4.19,4.19,0,0,1,297.74,414.88Z"/><path class="cls-5" d="M298.16,414.22c-4.26,3.21-4.71,5.83-4.71,5.83a61.11,61.11,0,0,1,6.23-1.2C297.52,418.47,298.16,414.22,298.16,414.22Z"/><path class="cls-5" d="M328.93,410.6c3.74-1.15,5.47,3.42,8.1,5.09a22.45,22.45,0,0,1-9.55-.13,1.13,1.13,0,0,1-.66-.33,1,1,0,0,1-.1-.87,7.19,7.19,0,0,1,2.13-3.88"/><path class="cls-5" d="M320.88,415.73c4.35.24,4.06,5.15,6,7.88a25.57,25.57,0,0,1-11.73-2.9c-.33-.17-.68-.37-.73-.7s.33-.81.7-1.16a13.87,13.87,0,0,1,5.75-3.27"/><path class="cls-6" d="M319.26,371a.51.51,0,0,1,.47.76c-2.17,3.94-11.79,21.21-13.56,21.21a12.17,12.17,0,0,1-4.08-.88S277.17,376,281.17,374C284.79,372.18,313.75,371.19,319.26,371Z"/><path class="cls-7" d="M409.78,248.9c23.86,180.67-248.7,146.79-310.4,124.74,0,0,142.6-135.58,212.18-136.93C349.79,228.26,409.78,248.9,409.78,248.9Z"/><path class="cls-8" d="M252.64,403a1.82,1.82,0,0,1,1.78,2.32,7.79,7.79,0,0,0-.49,3.08,27.51,27.51,0,0,1,.59,4c.44,1.62,2.38,4.17,1.7,6.84a8.61,8.61,0,0,0,.53,4.44,1.82,1.82,0,0,1-1.62,2.36l-.85.07a1.84,1.84,0,0,1-1.9-1.42,4.75,4.75,0,0,0-.37-1,10.27,10.27,0,0,0-2.54-3.61,2.65,2.65,0,0,1-.82-2.13c0-.59-.58-3.29-.94-3.43s.79-5.37.95-6.11l0-.18.4-3.65a1.82,1.82,0,0,1,1.79-1.62Z"/><path class="cls-4" d="M238.91,430.69c.87-1.21,2.56-1.38,4.05-1.44a17.1,17.1,0,0,0,5.54-.81,5.39,5.39,0,0,0,3.52-1.89,1.71,1.71,0,0,1,1.52-.76,21.55,21.55,0,0,0,3.94-.19c2,3.79,6.56,4.56,10.58,5.16a42.1,42.1,0,0,1,5.31,1,1.81,1.81,0,0,1,.92,2.86,4.54,4.54,0,0,0-.89,1.64,1.86,1.86,0,0,1-2.06,1.36c-3.2-.4-9-.82-11,2.12a1.85,1.85,0,0,1-2.08.85,12.18,12.18,0,0,1-4.37-2c-1.26-1-2.18-2.37-3.55-3.18-3.2-1.86-6.94-.14-10.29.2a1.61,1.61,0,0,1-1-.13,1.79,1.79,0,0,1-.61-1.41A5,5,0,0,1,238.91,430.69Z"/><path class="cls-5" d="M236.1,432.09a1.89,1.89,0,0,0,1.09,3.59C240.4,435.43,238.9,430.37,236.1,432.09Z"/><path class="cls-5" d="M276.4,432.6a4.45,4.45,0,0,1,3.67,1.25,14.19,14.19,0,0,1,2.51,3.52,1.83,1.83,0,0,1-1.85,2.73,26.78,26.78,0,0,1-7.13-2,1.39,1.39,0,0,1-.7-.53,1.27,1.27,0,0,1,.07-1,8.62,8.62,0,0,1,3.36-4.08"/><path class="cls-5" d="M265.84,436.82c3.18.78,4,3.7,4.3,6.51.05.42.1.84.17,1.26a1.83,1.83,0,0,1-2.35,2,31.86,31.86,0,0,1-9.95-5.23c-.36-.27-.72-.58-.7-1s.56-.88,1.08-1.21a16.55,16.55,0,0,1,7.46-2.55"/><path class="cls-9" d="M382,156.93a11.83,11.83,0,0,1,4.55-1.06,5.87,5.87,0,0,1,3.42,1.34c2.57,2,4.63,6,8.45,5.52.63-.09.36-1-.27-1-2,.26-3.87-1.49-5-2.85a15,15,0,0,0-3.34-3.07c-2.54-1.57-5.4-.92-8,.11-.59.23-.34,1.2.26,1Z"/><path class="cls-10" d="M391.31,159.28c2.18,3.28-3,10-6.85,8.68-1.78-.55-8.76-2.51-5-8.41C382.66,155.37,387.17,153.75,391.31,159.28Z"/><path class="cls-9" d="M391,159.47c1.33,2.09-.32,4.92-1.82,6.44a5.93,5.93,0,0,1-3,1.79,4.73,4.73,0,0,1-2.46-.38c-1.67-.56-3.6-1.38-4.5-3-1.43-2.52,1-5.45,2.89-6.89a5.71,5.71,0,0,1,4.3-1.28,7.79,7.79,0,0,1,4.62,3.3c.29.38.94,0,.65-.37a9.23,9.23,0,0,0-4.38-3.48,5.79,5.79,0,0,0-4.32.41,10.32,10.32,0,0,0-3.77,3.33,5.76,5.76,0,0,0-1.09,4.12c.41,2.28,2.71,3.56,4.69,4.31a9,9,0,0,0,2.62.72,5.57,5.57,0,0,0,3.57-1.4c2.12-1.7,4.38-5.34,2.68-8C391.38,158.69,390.73,159.07,391,159.47Z"/><path class="cls-9" d="M382.13,156.2a10.54,10.54,0,0,0-3.53,4,5.83,5.83,0,0,0,.36,5.1,7.26,7.26,0,0,0,4.17,3.34,17.13,17.13,0,0,0,6.34.44c.64,0,.65-1,0-1-3.44.2-7.56.24-9.55-3.13a4.81,4.81,0,0,1-.27-4.65,10.57,10.57,0,0,1,3.19-3.4c.5-.39-.21-1.09-.71-.7Z"/><path class="cls-9" d="M379.22,163.73a7.07,7.07,0,0,0-5.57-4.46.5.5,0,0,0-.5.5.51.51,0,0,0,.5.5,6,6,0,0,1,4.61,3.72.51.51,0,0,0,.61.35.49.49,0,0,0,.35-.61Z"/><path class="cls-9" d="M374.26,160.24c1.74-.84,3.43-1.8,5.18-2.64a14.77,14.77,0,0,1,5.33-1.65,5.55,5.55,0,0,1,4,1.31c1.09.88,2,2,3,2.89a7.85,7.85,0,0,0,4,2.16c.63.1.9-.86.26-1-3-.47-4.64-3.29-6.88-5a6.34,6.34,0,0,0-4-1.4,13.43,13.43,0,0,0-5.34,1.36c-2.1.92-4.07,2.08-6.14,3.07-.58.28-.07,1.14.51.87Z"/><path class="cls-9" d="M380.76,156.31a11.66,11.66,0,0,0-3.16,4.86l.83-.22a7,7,0,0,0-2.62-1.66l-.14,1a3.82,3.82,0,0,0,4.17-2.26c.18-.44-.38-.74-.73-.56l-2.62,1.33c-.5.25-.15,1.13.38.91a48.52,48.52,0,0,0,4.38-2.21c1.36-.68,3-1.39,4.53-1.07a9.44,9.44,0,0,1,3.33,1.82,7.53,7.53,0,0,0,3.46,1.48c.64.07.63-.93,0-1-2.66-.3-4.28-3-7-3.34-3.29-.39-6.12,2.22-9,3.36l.39.91,2.62-1.33-.73-.56a2.89,2.89,0,0,1-3.21,1.52c-.59-.07-.63.81-.13,1a5.6,5.6,0,0,1,2.18,1.4.51.51,0,0,0,.84-.22,10.62,10.62,0,0,1,2.91-4.42c.48-.43-.23-1.14-.71-.71Z"/><path class="cls-9" d="M378,160.69a.5.5,0,0,0,0-1,.5.5,0,0,0,0,1Z"/><path class="cls-9" d="M378.79,162.91a.5.5,0,0,0,0-1,.5.5,0,0,0,0,1Z"/><path class="cls-9" d="M421,158.14a6,6,0,0,0-2.9-1.67,2.87,2.87,0,0,0-2.27.72,11.75,11.75,0,0,0-2,2.46c-.54.81-1.63,2.51-2.82,2.09-.61-.22-.87.74-.27,1,1.11.4,2.15-.36,2.87-1.13s1.36-1.93,2.11-2.85a2.94,2.94,0,0,1,1.85-1.28c1-.08,2,.78,2.7,1.41.48.43,1.19-.28.71-.71Z"/><path class="cls-10" d="M415,160.19c-1.16,2,.55,8.44,3.27,7.88,1-.29,4.72-1.3,3.36-6.5C420.32,157.38,417.81,155.27,415,160.19Z"/><path class="cls-9" d="M414.72,160a4.48,4.48,0,0,0-.4,2.53,9.91,9.91,0,0,0,.72,3.13c.59,1.45,1.8,3.27,3.62,2.7a5.06,5.06,0,0,0,3.28-2.67,6,6,0,0,0,.26-3.49,9.33,9.33,0,0,0-1.61-3.76,2.92,2.92,0,0,0-2.73-1.44c-1.47.26-2.46,1.81-3.14,3a.38.38,0,0,0,.65.38c.54-1,1.3-2.26,2.45-2.6a1.92,1.92,0,0,1,2,.84,8,8,0,0,1,1.56,3.17,6,6,0,0,1,.05,3.26,4,4,0,0,1-2.66,2.49,1.57,1.57,0,0,1-1.37,0,3.72,3.72,0,0,1-1.43-1.75,9,9,0,0,1-.84-3,4.26,4.26,0,0,1,.28-2.47C415.6,160,415,159.58,414.72,160Z"/><path class="cls-9" d="M419.88,158.79c1.18,2,2,4.17,1.14,6.49a4.37,4.37,0,0,1-1.63,2.26,4.72,4.72,0,0,1-3.6.17c-.63-.14-.9.82-.27,1a6.1,6.1,0,0,0,4.13-.12,5.07,5.07,0,0,0,2.18-2.6,7.17,7.17,0,0,0,.43-4,11.14,11.14,0,0,0-1.52-3.65.5.5,0,0,0-.86.51Z"/><path class="cls-9" d="M422.12,165.41a7,7,0,0,1,.58-1.11l.17-.25.08-.11,0-.05a5,5,0,0,1,.39-.41,1.54,1.54,0,0,1,.19-.17l.06-.05.08-.06a3.26,3.26,0,0,1,.4-.24l.1-.05c-.11.06,0,0,0,0l.21-.07.2,0c.11,0-.1,0,0,0h.12a.51.51,0,0,0,.5-.5.5.5,0,0,0-.5-.5c-1.83.06-3,1.83-3.64,3.35a.51.51,0,0,0,.35.62.53.53,0,0,0,.62-.35Z"/><path class="cls-9" d="M425,161.93a50.62,50.62,0,0,0-3.57-3.89c-1-.88-2.41-1.76-3.8-1.28a6.31,6.31,0,0,0-2.62,2.45c-.64.85-1.49,2.25-2.68,2.35-.63.06-.64,1.06,0,1,2.53-.21,3.29-3.27,5.1-4.57,1.18-.85,2.51,0,3.43.87,1.27,1.14,2.28,2.53,3.43,3.78.44.47,1.15-.24.71-.71Z"/><path class="cls-9" d="M420.64,159a11.57,11.57,0,0,1,1.11,4.17c0,.39.55.71.85.35a3.16,3.16,0,0,1,1.24-1c.5-.19.47-1-.13-1-.83,0-1.2-.81-1.28-1.53l-.86.35,1.28,1.45.71-.71c-.86-.77-1.52-1.74-2.3-2.59a4.09,4.09,0,0,0-2.54-1.53,3.33,3.33,0,0,0-2.28,1.1c-.6.53-1.27,1.34-2.13,1.35a.5.5,0,0,0,0,1,3.45,3.45,0,0,0,2.19-1.06c.55-.48,1.18-1.27,2-1.38s1.7.8,2.22,1.38a31.49,31.49,0,0,0,2.17,2.44.5.5,0,0,0,.71-.71l-1.28-1.44c-.27-.31-.91-.08-.85.35.14,1.25.85,2.56,2.28,2.53l-.13-1a3.93,3.93,0,0,0-1.68,1.22l.85.36a12.86,12.86,0,0,0-1.25-4.68c-.29-.57-1.15-.07-.86.51Z"/><path class="cls-9" d="M422.44,162.76a.5.5,0,0,0,0-1,.5.5,0,0,0,0,1Z"/><path class="cls-9" d="M423,162.18a.5.5,0,0,0,0-1,.5.5,0,0,0,0,1Z"/><path class="cls-9" d="M423.39,162.27a.5.5,0,0,0,0-1,.5.5,0,0,0,0,1Z"/><path class="cls-9" d="M421.75,164.58a.5.5,0,0,0,0-1,.5.5,0,0,0,0,1Z"/><path class="cls-11" d="M415.41,188.74c-8.81,1-21-.44-20.15-6.52S415.41,188.74,415.41,188.74Z"/><path class="cls-12" d="M394.18,178.2S400.67,164,415,171.45c8.32,8.7,6.61,16.77,6.61,16.77-1.89,3.07-12.07-1.56-12.07-1.56S393.51,187.23,394.18,178.2Z"/><path class="cls-13" d="M153.17,368c-30.48,4.05-54,5-54,5s-8,0,44.08-41.05"/><path class="cls-14" d="M152.21,366.09c60.71-7.89,153.31-23.46,164-46.1,16-34-31-79-31-79C239.25,254.71,182,298.68,143.25,331.94"/><path class="cls-15" d="M266.17,390c.4,0,.76-.56.56-.21-2.17,3.94-11.79,21.21-13.56,21.21a12.17,12.17,0,0,1-4.08-.88S223.7,392,228.17,392C237.17,392,260.66,390.16,266.17,390Z"/><path class="cls-7" d="M308.18,213.22c13-5.58,76.93,34.94,80,51.77-35.94-17.68-90-33.62-102-21.76-29,13.76-13-18.36,0-22.12C296.17,208.72,308.18,213.22,308.18,213.22Z"/><path class="cls-7" d="M415.79,231.14C419.17,245,413.11,264,388.17,265c-4.94-9-4-8-4-8,12-5,28-19,29-23C416.17,231,415.79,231.14,415.79,231.14Z"/><path class="cls-16" d="M358.13,246c4.19.57,10,8,10,9s-16-4.85-16-4.85S355.07,245.6,358.13,246Z"/><path class="cls-16" d="M405,253.11c-4.64,1.11-5.82,9.88-5.82,9.88L409,257.5C410.26,254.22,405,253.11,405,253.11Z"/><path class="cls-17" d="M361.32,252.69c2.45.62,3.33,3.59,3.79,6.07a88.61,88.61,0,0,1,1.77,13.74c.17,7-1.33,13.92-1.95,20.9-.56,6.26-.33,12.86,2.27,18.52a.85.85,0,0,1-1.27,1.05,8.08,8.08,0,0,1-2.22-3c-2-4.37-2.23-9.39-1.79-14.19s1.56-9.54,1.7-14.37c.55-18.46-1.69-19.05-1.45-28.46"/><path class="cls-17" d="M405.51,259.54c-6.62,15.35-7.16,32.5-9.58,49-.53,3.65-1.49,7.78-4.73,9.54q1.16-8.36,2.3-16.71c1.6-11.51,3.24-23.19,7.92-33.83a62.49,62.49,0,0,1,5.1-9.33"/><path class="cls-18" d="M152.67,366.49s-2.41-3.7-9.5-34.5"/><path class="cls-19" d="M287.17,221.71c3.94-.64,6.7,3.2,9.72,5s6.67,2.12,10.12,2.38c.49,0,.48-.71,0-.75-3.71-.28-7.52-.65-10.64-2.87-2.85-2-5.54-5.11-9.4-4.48-.47.07-.27.8.2.72Z"/><path class="cls-19" d="M290.49,220.23c3.45.63,5.93,3.68,9.5,4,.48,0,.48-.71,0-.75-3.46-.26-5.93-3.31-9.3-3.93-.47-.08-.68.64-.2.73Z"/><path class="cls-18" d="M282.17,245.23C304.17,265,329.61,310,308.39,327c-37.22,31-155,40.41-155,40.41"/><path class="cls-20" d="M400.37,245.92c-4.2,3.07-13.34,10.21-16.27,10.14-3.93-5.07-21.2-18.66-21.2-18.66Z"/><path class="cls-19" d="M336.33,373.39a126,126,0,0,1-41.52-22.14,127.88,127.88,0,0,1-9.9-8.87c-.58-.56-1.46.32-.89.89a126.95,126.95,0,0,0,52,31.32c.77.24,1.1-1,.33-1.2Z"/><path class="cls-19" d="M285.87,345.07A124.62,124.62,0,0,1,232,365c-5.79.74-11.62,1.18-17.45,1.48-.8.05-.81,1.3,0,1.25a181.45,181.45,0,0,0,31-3.84,122.22,122.22,0,0,0,40.93-17.7c.67-.45,0-1.53-.63-1.08Z"/><path class="cls-19" d="M284.76,342.08l-.23-.44a.55.55,0,0,0-.16-.18.53.53,0,0,0-.21-.11.43.43,0,0,0-.25,0,.48.48,0,0,0-.23.07l-.13.1a.61.61,0,0,0-.16.28l0,.16a.69.69,0,0,0,.08.32l.23.44a.55.55,0,0,0,.16.18.56.56,0,0,0,.46.12.4.4,0,0,0,.23-.08l.13-.09a.61.61,0,0,0,.16-.28l0-.16a.69.69,0,0,0-.08-.32Z"/><path class="cls-15" d="M208.89,361c3.28,6.59,19.28,31,19.28,31s-110-2.93-129-18.55C120.17,372.46,208.89,361,208.89,361Z"/><path class="cls-19" d="M207.73,361.43c4.55,3.81,7.39,9.05,10.13,14.21a105.86,105.86,0,0,0,10.19,16c.5.63,1.37-.26.88-.89a110.41,110.41,0,0,1-10.37-16.47c-2.67-5-5.53-10.06-9.95-13.75-.61-.51-1.5.36-.88.88Z"/><path class="cls-19" d="M408.5,265.43a56.72,56.72,0,0,1,1,8.62,41,41,0,0,0,.92,8,.25.25,0,0,0,.48-.13,43.66,43.66,0,0,1-.93-8.46,52.75,52.75,0,0,0-1-8.13c-.07-.32-.55-.18-.48.13Z"/><path class="cls-19" d="M346,366.46c-1.58,2.46-4.77,3.39-6.12,6.05-.15.28.28.54.43.25,1.35-2.64,4.54-3.59,6.12-6.05.18-.27-.26-.52-.43-.25Z"/><path class="cls-19" d="M293.44,340.45l-9,1.27c-.32,0-.18.53.13.49l9-1.28c.32-.05.18-.53-.13-.48Z"/><path class="cls-19" d="M284.27,342A75.09,75.09,0,0,0,294,339.2c.3-.11.18-.59-.13-.49a73.6,73.6,0,0,1-9.77,2.8c-.31.06-.18.55.13.48Z"/><path class="cls-19" d="M282.78,245.45a40,40,0,0,1,8.81,2.59c.29.13.54-.3.25-.43a39.84,39.84,0,0,0-8.93-2.64c-.32-.06-.45.42-.13.48Z"/><path class="cls-19" d="M285.44,244.21l3.17,1.13c.31.11.44-.38.13-.48l-3.17-1.13c-.3-.11-.43.38-.13.48Z"/><path class="cls-19" d="M340.64,369q-1.41,2.22-2.9,4.38c-.19.27.25.52.43.26,1-1.44,2-2.91,2.9-4.38a.25.25,0,0,0-.43-.26Z"/><path class="cls-19" d="M307.55,268.77a19.28,19.28,0,0,1,3.72,7,.25.25,0,0,0,.48-.14,19.93,19.93,0,0,0-3.85-7.22c-.21-.25-.56.11-.35.35Z"/><path class="cls-19" d="M306.91,271.43a8.07,8.07,0,0,1,2.72,3.79c.1.3.59.17.48-.13a8.49,8.49,0,0,0-2.84-4,.25.25,0,0,0-.36,0,.26.26,0,0,0,0,.35Z"/><path class="cls-19" d="M372.11,244.38a23.83,23.83,0,0,1,3.63,4.08c.19.26.62,0,.43-.25a23.78,23.78,0,0,0-3.71-4.18c-.24-.21-.59.14-.35.35Z"/><path class="cls-19" d="M398.8,322.77c-3.51,3.88-6.78,7.93-10.1,12-3,3.71-6.59,7.33-11.47,8.34-.31.07-.18.55.14.48,4.68-1,8.23-4.32,11.2-7.87,3.51-4.21,6.9-8.5,10.58-12.56.22-.24-.13-.6-.35-.36Z"/><path class="cls-21" d="M410.84,256c37.82,3,78.19,14,79,26-19.26,7.16-55.5,10-79,3A125.18,125.18,0,0,0,410.84,256Z"/><path class="cls-22" d="M488.84,278c-17.73,26-99-20-110.1-19.9-10.38.12,23.2,42.49,63.1,58.9-32.14-16.41-62-31.55-62-31.55-3.33,10.93,27,45.08,47,50.55-29.92-9.57-42-24-42-24-1.11,12,17.59,39.16,32,46a144.41,144.41,0,0,1-29-12c0,10.87,8.91,24.63,20,26-5.31,1.45-17.26-7.77-19-6-1.32,1.32,6.81,12.58,8,14,5,6,8.13,7.3,9.87,8.93a3.58,3.58,0,0,0,2.69,1c32.89-2.55,70.66-42.63,75.44-69.91C491.84,280,488.84,278,488.84,278Z"/></svg>