<svg id="Layer_1" data-name="Layer 1" xmlns="http://www.w3.org/2000/svg" viewBox="0 0 559 559"><defs><style>.cls-1{fill:#313c80;}.cls-2{fill:#843d2c;}.cls-3{fill:#1669af;stroke:#26a9e0;stroke-width:0.5px;}.cls-13,.cls-3,.cls-4{stroke-miterlimit:10;}.cls-10,.cls-4{fill:#3e88bf;}.cls-13,.cls-4{stroke:#2e3191;}.cls-4{stroke-width:0.75px;}.cls-5{fill:#231f20;}.cls-6{fill:#c0bc31;}.cls-7{fill:#9c732a;}.cls-8{fill:#dc9a30;}.cls-9{fill:#7c2d19;}.cls-11{fill:#13153e;}.cls-12{fill:#fff;}.cls-13{fill:none;}.cls-14{fill:#2e3191;}.cls-15{fill:#e6e7e7;}.cls-16{fill:#803824;}</style></defs><path class="cls-1" d="M221.16,284.56c1.57-2.82-2.75-5.34-4.32-2.53a40.93,40.93,0,0,0-4.8,16,62.07,62.07,0,0,0,.64,15.52c.39,2.57.91,5.18,1.46,7.65s1.12,4.6,3.5,5.89c4.56,2.46,9.47,4.26,14.09,6.63a44.2,44.2,0,0,1,5.81,3.79,10.38,10.38,0,0,0,6.36,2.36,2.59,2.59,0,0,0,2.5-2.5,27.12,27.12,0,0,0-2.1-13.31c-1.53-3.87-3.44-7.46-5.26-11.29s-3.49-7.74-5.38-11.55c-3.8-7.66-9-14.28-14.39-20.85l-1.11,4.18a20.59,20.59,0,0,0,9.55-8.5c2.4-3.75,4-8,6.54-11.63,4.27-6.21,12.42-9.38,14.27-17.29.73-3.13-4.08-4.56-4.83-1.33s-3.07,5.53-5.47,7.67c-2.79,2.46-5.57,4.72-7.79,7.72-2.53,3.39-4.11,7.35-6.23,11-1.74,3-4,6.17-7.37,7.52a2.43,2.43,0,0,0-1,.58,2.54,2.54,0,0,0-.11,3.6c2.87,3.48,5.74,7,8.29,10.7,4.61,6.71,7.58,14.23,11.1,21.52,3.22,6.65,7.28,13.56,6.28,21.24l2.5-2.5c-2,0-3.74-1.61-5.28-2.77a36.76,36.76,0,0,0-6.43-3.71l-6.44-3-3.6-1.68c-.68-.3-2.14-.68-2.6-1.3a6.65,6.65,0,0,1-.48-2.06c-.25-1.11-.49-2.22-.72-3.34-.45-2.24-.85-4.51-1.11-6.78-1-8.68-.44-17.87,3.92-25.68Z"/><path class="cls-2" d="M134,269.57c-2.2-2.74-27.87-45.74-33.33-103.42,11.72-26,47.47-26.35,70.91,12.16,16.37,39,50.59,56.58,50.59,56.58S136.23,272.32,134,269.57Z"/><path class="cls-3" d="M212.89,374s-33.52-2.53-47.49-7.13c-3.32.38-24-37.87-24-37.87Z"/><path class="cls-4" d="M217.49,235.7c69.58,1.35,212.18,136.93,212.18,136.93C368,394.68,95.41,428.56,119.27,247.89,119.27,247.89,179.26,227.24,217.49,235.7Z"/><path class="cls-5" d="M140.64,170.21c.63.07.67-.93,0-1-2.76-.45-5.69-.48-7.83,1.6a14.6,14.6,0,0,0-2.61,3.72c-.86,1.58-2.32,3.69-4.33,3.85-.62.09-.68,1.08,0,1,3.84-.35,5-4.7,7.08-7.2a5.75,5.75,0,0,1,3.05-2,11.79,11.79,0,0,1,4.66,0Z"/><path class="cls-6" d="M143.69,172.18c4.94,4.95-1.46,8.35-3.09,9.27-3.47,2.12-10-3.33-8.54-7C134.93,168.16,139.67,168.77,143.69,172.18Z"/><path class="cls-5" d="M131.67,174.33c-1.1,3,1.89,6,4.32,7.24a5.45,5.45,0,0,0,3.79.6,8.51,8.51,0,0,0,2.41-1.25c1.77-1.15,3.75-2.9,3.66-5.21a5.73,5.73,0,0,0-1.95-3.79,10.4,10.4,0,0,0-4.39-2.46,5.82,5.82,0,0,0-4.31.52,9.41,9.41,0,0,0-3.54,4.34c-.2.43.52.66.72.23a7.75,7.75,0,0,1,3.81-4.21,5.7,5.7,0,0,1,4.47.32c2.16,1,5.15,3.35,4.3,6.12-.54,1.78-2.25,3-3.76,3.9a5,5,0,0,1-2.32.89,5.94,5.94,0,0,1-3.31-1.11c-1.79-1.16-4-3.57-3.16-5.9C132.58,174.11,131.87,173.88,131.67,174.33Z"/><path class="cls-5" d="M140.34,169.46c-.58-.27-1.12.56-.55.85a10.58,10.58,0,0,1,3.84,2.63,4.84,4.84,0,0,1,.74,4.61c-1.23,3.71-5.26,4.55-8.66,5.1a.5.5,0,0,0,.21,1,17.37,17.37,0,0,0,6.1-1.78,7.24,7.24,0,0,0,3.36-4.16,5.8,5.8,0,0,0-.74-5.05,10.53,10.53,0,0,0-4.3-3.16Z"/><path class="cls-5" d="M144.82,176.22h0a.5.5,0,0,0,1,.05,6,6,0,0,1,3.7-4.64.5.5,0,1,0-.21-1,7,7,0,0,0-4.49,5.54Z"/><path class="cls-5" d="M149,171.68c.63.15.94-.8.32-1-2.24-.52-4.41-1.24-6.66-1.68a13.47,13.47,0,0,0-5.51-.2,6.37,6.37,0,0,0-3.6,2.23c-1.83,2.16-2.82,5.27-5.66,6.36-.59.26-.12,1.15.47.92a7.78,7.78,0,0,0,3.44-3c.78-1.12,1.44-2.37,2.32-3.45a5.5,5.5,0,0,1,3.63-2.13,14.72,14.72,0,0,1,5.56.47c1.88.43,3.74,1,5.62,1.46Z"/><path class="cls-5" d="M141.78,169.32c-.56-.32-1.1.53-.54.85a10.58,10.58,0,0,1,3.78,3.68.69.69,0,0,0,.16.18.52.52,0,0,0,.71-.14,5.74,5.74,0,0,1,1.83-1.84c.45-.29.22-1.14-.34-1a2.89,2.89,0,0,1-3.46-.8l-.59.71,2.84.74.18-1c-3.06-.5-6.38-2.44-9.51-1.36-2.59.91-3.6,3.89-6.13,4.76-.6.2-.4,1.18.22,1A7.58,7.58,0,0,0,134,173a9.39,9.39,0,0,1,2.86-2.5,7.29,7.29,0,0,1,4.66.09c1.58.42,3.12.95,4.75,1.22.56.09.72-.83.17-1l-2.84-.75c-.38-.09-.86.32-.59.71a3.81,3.81,0,0,0,4.55,1.32l-.35-1a6.94,6.94,0,0,0-2.2,2.18l.86,0a11.67,11.67,0,0,0-4.13-4.07Z"/><path class="cls-5" d="M145.79,172.36a.49.49,0,0,0-.59-.38.5.5,0,0,0-.38.6.49.49,0,0,0,.59.38A.5.5,0,0,0,145.79,172.36Z"/><path class="cls-5" d="M145.45,174.72a.5.5,0,0,0-.6-.38.5.5,0,0,0-.38.59.51.51,0,0,0,.6.39A.5.5,0,0,0,145.45,174.72Z"/><path class="cls-5" d="M102.82,179.71c-.38.52.46,1,.84.54.55-.77,1.35-1.82,2.34-2a2.94,2.94,0,0,1,2.08.86c.93.73,1.69,1.66,2.67,2.32a2.8,2.8,0,0,0,3,.5c.53-.37.07-1.26-.48-.92-1.07.68-2.5-.76-3.2-1.42a11,11,0,0,0-2.48-2,2.82,2.82,0,0,0-2.37-.22,5.93,5.93,0,0,0-2.48,2.25Z"/><path class="cls-6" d="M102.89,183.16c-.22,5.38,3.63,5.56,4.67,5.64,2.77,0,3.07-6.69,1.51-8.39C105.31,176.18,103.31,178.79,102.89,183.16Z"/><path class="cls-5" d="M108.9,180.1a.39.39,0,0,0-.15.52,4.18,4.18,0,0,1,.8,2.35,8.56,8.56,0,0,1-.18,3.11,3.56,3.56,0,0,1-1,2,1.57,1.57,0,0,1-1.34.29,4,4,0,0,1-3.13-1.87,6,6,0,0,1-.65-3.19,8.42,8.42,0,0,1,.84-3.44,1.93,1.93,0,0,1,1.77-1.23c1.19.09,2.21,1.15,3,2a.38.38,0,0,0,.46,0,.38.38,0,0,0,.1-.53c-.92-1-2.22-2.32-3.71-2.26a2.88,2.88,0,0,0-2.36,2,9.13,9.13,0,0,0-.77,4,6,6,0,0,0,1,3.35,5,5,0,0,0,3.77,1.9c1.9.18,2.69-1.85,3-3.41a9.82,9.82,0,0,0,0-3.2,4.53,4.53,0,0,0-.93-2.39A.39.39,0,0,0,108.9,180.1Z"/><path class="cls-5" d="M104.05,180.11a.5.5,0,0,0-.94-.3,11,11,0,0,0-.71,3.89,7.21,7.21,0,0,0,1.28,3.81,5,5,0,0,0,2.68,2.07,6,6,0,0,0,4.06-.76c.58-.3.11-1.18-.47-.92a4.65,4.65,0,0,1-3.56.62,4.42,4.42,0,0,1-2.07-1.87c-1.34-2.08-1-4.38-.28-6.59Z"/><path class="cls-5" d="M103.33,187.16a.52.52,0,0,0,.68.21.5.5,0,0,0,.22-.67c-1-1.36-2.48-2.83-4.28-2.51a.5.5,0,1,0,.22,1l.11,0h.44l.09,0a2.25,2.25,0,0,1,.44.14l.09,0h.06l.23.12a5,5,0,0,1,.47.33h0l.11.1.22.2a8.14,8.14,0,0,1,.8,1Z"/><path class="cls-5" d="M100.61,184.77c.86-1.47,1.54-3,2.54-4.43.73-1,1.83-2.16,3.16-1.59,2,.89,3.45,3.71,6,3.38a.5.5,0,0,0-.22-1c-1.18.15-2.31-1-3.12-1.73a6.25,6.25,0,0,0-3.08-1.83c-1.46-.18-2.65,1-3.44,2.06a50.65,50.65,0,0,0-2.66,4.56C99.43,184.78,100.28,185.32,100.61,184.77Z"/><path class="cls-5" d="M103.31,180.45c.16-.62-.8-.93-1-.3a12.83,12.83,0,0,0-.22,4.82l.75-.52a4,4,0,0,0-1.9-.84l.09,1c1.4-.27,1.81-1.7,1.68-3,0-.44-.7-.52-.9-.17l-.94,1.69a.5.5,0,0,0,.14.64.51.51,0,0,0,.7-.1,31.74,31.74,0,0,0,1.6-2.84c.38-.69,1-1.76,1.87-1.82a4.28,4.28,0,0,1,2.25.92,3.43,3.43,0,0,0,2.36.51.51.51,0,0,0,.38-.6.5.5,0,0,0-.6-.38c-.84.18-1.67-.47-2.37-.85a3.27,3.27,0,0,0-2.46-.59,4,4,0,0,0-2.15,2c-.58,1-1,2.07-1.7,3l.85.53.94-1.68-.91-.16c.07.71-.12,1.59-.93,1.77a.51.51,0,0,0,.09,1,3.15,3.15,0,0,1,1.42.72c.37.28.84-.16.76-.54a11.58,11.58,0,0,1,.19-4.31Z"/><path class="cls-5" d="M102.77,183.9a.49.49,0,0,0-.59-.38.5.5,0,0,0-.38.6.49.49,0,0,0,.59.38A.5.5,0,0,0,102.77,183.9Z"/><path class="cls-5" d="M102.06,183.46a.5.5,0,1,0-1,.21.5.5,0,0,0,1-.21Z"/><path class="cls-5" d="M101.74,183.62a.5.5,0,0,0-.6-.38.49.49,0,0,0-.38.59.5.5,0,0,0,.6.38A.49.49,0,0,0,101.74,183.62Z"/><path class="cls-5" d="M103.84,185.52a.5.5,0,1,0-1,.22.49.49,0,0,0,.59.38A.52.52,0,0,0,103.84,185.52Z"/><path class="cls-7" d="M133.1,197.69c2.13,5.77-9.48,9.78-18.29,10.69C114.81,208.38,131,191.92,133.1,197.69Z"/><path class="cls-8" d="M120.17,205.07s-9,6.7-11.46,4.11c0,0-3.39-7.52,2.88-17.8,12.35-10.37,21.73,2.16,21.73,2.16C135.88,202.22,120.17,205.07,120.17,205.07Z"/><path class="cls-9" d="M385.81,331C437.89,372,429.89,372,429.89,372s-23.52-1-54-5"/><path class="cls-10" d="M385.76,331c-38.74-33.32-96-77.29-141.92-91,0,0-47,45-31,79,10.69,22.63,103.29,38.21,164,46.09"/><path class="cls-4" d="M242.89,220.09c13,3.76,29,35.89,0,22.13-12-11.87-66.06,4.07-102,21.76,3.07-16.78,67-57.35,80-51.78C220.89,212.2,232.89,207.71,242.89,220.09Z"/><path class="cls-4" d="M115.89,233c1,4,17,18,29,23,0,0,.94-1-4,8-25-1-31-20-27.63-33.87C113.26,230.13,112.89,230,115.89,233Z"/><path class="cls-11" d="M176.89,249.16s-16,5.84-16,4.84,5.81-8.43,10-9C174,244.59,176.89,249.16,176.89,249.16Z"/><path class="cls-11" d="M120.1,256.51l9.79,5.49s-1.19-8.8-5.83-9.9C124.06,252.1,118.79,253.2,120.1,256.51Z"/><path class="cls-12" d="M166.89,252c.23,9.39-2,10-1.41,28.35.14,4.82,1.26,9.57,1.7,14.37s.26,9.82-1.79,14.19a8.14,8.14,0,0,1-2.22,3,.87.87,0,0,1-.77.09.84.84,0,0,1-.5-1.09c2.6-5.67,2.83-12.26,2.27-18.52-.67-7-2.17-13.91-2-20.91a88,88,0,0,1,1.77-13.73c.46-2.49,1.34-5.46,3.79-6.07"/><path class="cls-12" d="M122.53,257.2a63.51,63.51,0,0,1,5.1,9.34c4.68,10.63,6.32,22.32,7.91,33.83l2.31,16.71c-3.24-1.76-4.2-5.89-4.74-9.55-2.41-16.5-3-33.66-9.57-49"/><path class="cls-13" d="M385.88,331c-7.09,30.8-9.5,34.5-9.5,34.5"/><path class="cls-14" d="M242.09,220c-3.86-.63-6.55,2.49-9.4,4.49-3.12,2.22-6.93,2.58-10.64,2.87a.38.38,0,0,0,0,.75c3.45-.27,7.1-.57,10.12-2.38s5.78-5.65,9.72-5C242.36,220.77,242.56,220.05,242.09,220Z"/><path class="cls-14" d="M238.56,219.25c.48-.09.27-.81-.2-.72-3.37.62-5.84,3.67-9.3,3.93a.38.38,0,0,0,0,.75c3.57-.31,6.05-3.36,9.5-4Z"/><path class="cls-13" d="M375.66,366.4s-117.78-9.4-155-40.4c-21.22-17,4.23-62,26.23-81.78"/><path class="cls-15" d="M166.15,236.35S148.88,249.94,145,255c-2.93.11-12.06-7-16.27-10.1Z"/><path class="cls-14" d="M192.7,372.37c-.77.21-.44,1.45.33,1.21a126.9,126.9,0,0,0,52-31.33c.57-.56-.32-1.45-.89-.88q-4.72,4.68-9.9,8.87a126,126,0,0,1-41.52,22.13Z"/><path class="cls-14" d="M243.16,344.11c-.63-.45-1.3.63-.63,1.08a122.14,122.14,0,0,0,40.93,17.7,181.56,181.56,0,0,0,31,3.84c.81,0,.8-1.25,0-1.25-5.83-.3-11.66-.74-17.45-1.48a124.52,124.52,0,0,1-53.83-19.94Z"/><path class="cls-14" d="M244.29,341.05a.58.58,0,0,0-.08.31v.17a.5.5,0,0,0,.16.27l.13.1a.42.42,0,0,0,.23.08.53.53,0,0,0,.25,0,.47.47,0,0,0,.21-.11.52.52,0,0,0,.16-.17l.23-.44a.89.89,0,0,0,.08-.32v-.17a.74.74,0,0,0-.16-.27l-.13-.1a.39.39,0,0,0-.23-.07.54.54,0,0,0-.46.12.37.37,0,0,0-.16.17l-.23.45Z"/><path class="cls-16" d="M429.89,372.45c-19,15.62-129,18.55-129,18.55s16-24.43,19.27-31C320.16,360,408.89,371.45,429.89,372.45Z"/><path class="cls-14" d="M321.37,360.41c.62-.52-.27-1.4-.88-.89-4.47,3.7-7.33,8.76-10,13.76a111.75,111.75,0,0,1-10.37,16.47c-.49.62.38,1.51.88.88a107.25,107.25,0,0,0,10.19-16c2.74-5.21,5.58-10.4,10.13-14.21Z"/><path class="cls-14" d="M120.56,264.45c.07-.32-.41-.45-.48-.13a51.62,51.62,0,0,0-1,8.12,44.65,44.65,0,0,1-.93,8.47.24.24,0,0,0,.15.27.25.25,0,0,0,.33-.14,42.19,42.19,0,0,0,.92-8,55.53,55.53,0,0,1,1-8.62Z"/><path class="cls-14" d="M182.64,365.7c1.58,2.46,4.77,3.41,6.12,6.05.15.28.58,0,.43-.26-1.35-2.66-4.54-3.58-6.12-6.05C182.9,365.17,182.46,365.43,182.64,365.7Z"/><path class="cls-14" d="M235.48,339.91l9,1.28c.31.05.45-.48.13-.48l-9-1.28C235.3,339.39,235.16,339.91,235.48,339.91Z"/><path class="cls-14" d="M244.91,340.51a75.09,75.09,0,0,1-9.77-2.79c-.31-.11-.43.38-.13.48a75.13,75.13,0,0,0,9.77,2.8C245.09,341.06,245.22,340.58,244.91,340.51Z"/><path class="cls-14" d="M246.27,244.43c.32-.05.19-.48-.13-.48a39.71,39.71,0,0,0-8.93,2.65c-.29.12,0,.55.25.43a40.19,40.19,0,0,1,8.81-2.6Z"/><path class="cls-14" d="M243.48,242.72l-3.17,1.12c-.31.11-.18.59.13.48l3.17-1.12C243.91,243.09,243.78,242.61,243.48,242.72Z"/><path class="cls-14" d="M188,368.25c.94,1.48,1.9,2.94,2.9,4.38.18.27.62,0,.43-.25-1-1.44-2-2.9-2.9-4.38C188.24,367.73,187.81,368,188,368.25Z"/><path class="cls-14" d="M221.15,267.41a19.55,19.55,0,0,0-3.85,7.22.24.24,0,0,0,.15.27.25.25,0,0,0,.33-.14,19.09,19.09,0,0,1,3.72-7C221.71,267.51,221.36,267.16,221.15,267.41Z"/><path class="cls-14" d="M222.14,270.43a.27.27,0,0,0,0-.36.25.25,0,0,0-.36,0,8.51,8.51,0,0,0-2.84,4c-.11.31.38.44.48.14a8.07,8.07,0,0,1,2.72-3.79Z"/><path class="cls-14" d="M156.94,243.35c.24-.22-.11-.57-.35-.35a23.85,23.85,0,0,0-3.77,4.2c-.18.25.25.51.44.25a22.71,22.71,0,0,1,3.63-4.08Z"/><path class="cls-14" d="M130.25,321.79c-.22-.24-.57.11-.35.35,3.68,4.07,7.07,8.36,10.58,12.56,3,3.56,6.52,6.88,11.2,7.88.32.06.45-.42.14-.48-4.88-1-8.48-4.63-11.48-8.34-3.31-4.08-6.58-8.12-10.09-12Z"/></svg>